<?xml version="1.0" standalone="no"?>
<!DOCTYPE svg PUBLIC "-//W3C//DTD SVG 1.1//EN" "http://www.w3.org/Graphics/SVG/1.1/DTD/svg11.dtd" >
<svg xmlns="http://www.w3.org/2000/svg">
<metadata>
Created by FontPrep 20130207 at Tue Jan  6 15:52:20 2015
 By Victor
Copyright 1990-1993 Bitstream Inc.  All rights reserved.
</metadata>
<defs>
<font id="32699c3c14055943d1059adf0b4c2370" horiz-adv-x='1024' >
  <font-face 
    font-family="ZurichBT-Roman"
    font-weight="400"
    font-stretch="normal"
    units-per-em="2048"
    panose-1="2 11 6 3 2 2 2 3 2 4"
    ascent="1638"
    descent="-410"
    x-height="1028"
    cap-height="1475"
    bbox="-342 -483 2591 1972"
    underline-thickness="127"
    underline-position="-132"
    unicode-range="U+0020-F002"
  />
<missing-glyph horiz-adv-x="1229" 
d="M217 -248h795v1577h-795v-1577zM102 -362v1806h1024v-1806h-1024z" />
    <glyph glyph-name=".notdef" horiz-adv-x="1229" 
d="M217 -248h795v1577h-795v-1577zM102 -362v1806h1024v-1806h-1024z" />
    <glyph glyph-name=".null" horiz-adv-x="0" 
 />
    <glyph glyph-name="nonmarkingreturn" horiz-adv-x="567" 
 />
    <glyph glyph-name="space" unicode=" " horiz-adv-x="567" 
 />
    <glyph glyph-name="exclam" unicode="!" horiz-adv-x="758" 
d="M276 0v207h205v-207h-205zM305 344l-35 1131h219l-34 -1131h-150z" />
    <glyph glyph-name="quotedbl" unicode="&#x22;" horiz-adv-x="614" 
d="M229 1436v-555h-139v555h139zM524 1436v-555h-139v555h139z" />
    <glyph glyph-name="numbersign" unicode="#" horiz-adv-x="1575" 
d="M924 1458l-162 -454h256l164 454h164l-160 -454h301l-51 -146h-303l-93 -262h322l-51 -147h-322l-162 -453h-165l161 453h-258l-162 -453h-165l159 453h-309l53 147h310l92 262h-330l51 146h332l162 454h166zM969 858h-260l-93 -264h261z" />
    <glyph glyph-name="dollar" unicode="$" horiz-adv-x="1133" 
d="M268 1062q0 -80 36.5 -120.5t127.5 -71.5l84 -26v427q-109 -2 -178.5 -65.5t-69.5 -143.5zM76 1034q0 167 119.5 274t320.5 117v170h100l1 -168q190 -3 299.5 -96t109.5 -250v-16h-182q-10 185 -228 207v-453l103 -28q187 -51 268.5 -136t81.5 -227q0 -190 -118 -301.5
t-335 -126.5v-199h-100v199q-223 0 -338 102.5t-115 303.5v20l191 -1q5 -126 67 -189.5t195 -75.5v487l-188 58q-252 75 -252 329zM885 390q0 171 -172 212l-97 23l1 -465q124 9 196 74.5t72 155.5z" />
    <glyph glyph-name="percent" unicode="%" horiz-adv-x="2015" 
d="M176 1075q0 180 84 277.5t238 97.5t237.5 -93t83.5 -274t-85 -282t-240 -101t-236.5 97.5t-81.5 277.5zM655 1084q0 244 -156 245q-76 0 -117.5 -64.5t-41.5 -186.5t39.5 -186.5t115.5 -64.5t118 68.5t42 188.5zM1364 1450h129l-842 -1475h-129zM1194 350q0 180 84 277.5
t239 97.5t238.5 -93.5t83.5 -273.5t-86 -281.5t-241 -101.5t-236.5 97.5t-81.5 277.5zM1360 353q0 -251 155 -251q76 0 118 68.5t42 188.5t-41 182.5t-117 62.5t-116.5 -64.5t-40.5 -186.5z" />
    <glyph glyph-name="ampersand" unicode="&#x26;" horiz-adv-x="1241" 
d="M342 1073q0 -242 268 -242h183v224h200v-224h181v-165h-181v-666h-448q-114 0 -223 20t-170.5 135t-61.5 251t75 232.5t208 113.5q-109 27 -171.5 115.5t-62.5 215.5q0 187 120.5 290.5t338.5 103.5h164v-168h-148q-143 0 -207.5 -56.5t-64.5 -179.5zM793 168v498h-181
q-167 0 -239 -58t-72 -193t63 -191t238 -56h191z" />
    <glyph glyph-name="quotesingle" unicode="'" horiz-adv-x="317" 
d="M229 1436v-555h-139v555h139z" />
    <glyph glyph-name="parenleft" unicode="(" horiz-adv-x="645" 
d="M164 628q0 169 50 373t169 496h139q-104 -335 -141 -521t-37 -347t44.5 -374t150.5 -542h-142q-144 377 -188.5 561.5t-44.5 353.5z" />
    <glyph glyph-name="parenright" unicode=")" horiz-adv-x="645" 
d="M301 581q0 161 -44.5 374t-150.5 542h142q145 -379 189 -561.5t44 -350.5t-50.5 -372t-170.5 -500h-137q104 335 141 521t37 347z" />
    <glyph glyph-name="asterisk" unicode="*" horiz-adv-x="1081" 
d="M395 705l-131 79l209 281l-338 -37v154l338 -37l-209 274l131 78l146 -313l133 313l133 -78l-199 -274l338 37v-154l-338 37l199 -281l-133 -79l-133 321z" />
    <glyph glyph-name="plus" unicode="+" horiz-adv-x="1706" 
d="M924 1221v-541h528v-139h-528v-541h-142v541h-528v139h528v541h142z" />
    <glyph glyph-name="comma" unicode="," horiz-adv-x="567" 
d="M98 -254l135 504h236l-229 -504h-142z" />
    <glyph glyph-name="hyphen" unicode="-" horiz-adv-x="678" 
d="M96 428v172h486v-172h-486z" />
    <glyph glyph-name="period" unicode="." horiz-adv-x="567" 
d="M172 0v252h223v-252h-223z" />
    <glyph glyph-name="slash" unicode="/" horiz-adv-x="616" 
d="M-33 -147l535 1644h123l-535 -1644h-123z" />
    <glyph glyph-name="zero" unicode="0" horiz-adv-x="1133" 
d="M1038 684q0 -707 -469 -707q-244 0 -359.5 177t-115.5 551q0 223 26 347t88 215q126 185 355 185q261 0 387 -227q47 -86 67.5 -205t20.5 -336zM293 708q0 -296 66 -432.5t207 -136.5t206.5 140.5t65.5 436.5t-67 435t-205 139t-205.5 -143t-67.5 -439z" />
    <glyph glyph-name="one" unicode="1" horiz-adv-x="1133" 
d="M768 1427v-1427h-197v1194q-141 -119 -315 -195v211q202 96 315 217h197z" />
    <glyph glyph-name="two" unicode="2" horiz-adv-x="1133" 
d="M1012 0h-891v205q397 360 545.5 546.5t148.5 298.5t-64 174t-169 62t-163.5 -63t-58.5 -181h-217q6 195 117.5 302.5t311.5 107.5t321 -106.5t121 -286.5q0 -127 -62 -241.5t-262 -313.5l-336 -336h658v-168z" />
    <glyph glyph-name="three" unicode="3" horiz-adv-x="1133" 
d="M1020 1063q0 -231 -258 -324q133 -27 207.5 -119t74.5 -229q0 -187 -137 -301.5t-361 -114.5t-342 105t-120 298h215q9 -118 70.5 -175.5t188.5 -57.5t205.5 67.5t78.5 188.5t-91.5 191t-261.5 70l-49 -3l1 156q374 10 374 239q0 112 -64.5 171t-178.5 59t-183.5 -57.5
t-73.5 -155.5h-204q3 175 125 277t330 102t331 -105.5t123 -281.5z" />
    <glyph glyph-name="four" unicode="4" horiz-adv-x="1133" 
d="M698 477v744l-491 -744h491zM698 0v307h-647v250l611 870h227v-950h192v-170h-192v-307h-191z" />
    <glyph glyph-name="five" unicode="5" horiz-adv-x="1133" 
d="M838 473q0 150 -72 226.5t-188 76.5q-224 0 -259 -192h-184l33 843h786v-161h-614l-18 -455q68 67 136 96t156 29q190 0 309 -128t119 -341t-141 -352.5t-369 -139.5q-187 0 -300.5 100.5t-120.5 272.5h217q36 -201 241 -201q127 0 198 88t71 238z" />
    <glyph glyph-name="six" unicode="6" horiz-adv-x="1133" 
d="M307 456q0 -142 76 -229.5t198 -87.5t196.5 86.5t74.5 230.5t-74 231t-194 87t-198.5 -88t-78.5 -230zM621 932q185 0 303 -125t118 -340t-128.5 -351t-340.5 -136q-487 0 -487 690q0 385 130.5 583.5t383.5 198.5q176 0 289 -96.5t122 -255.5h-204q-12 94 -69 147
t-144 53q-299 0 -303 -550q105 182 330 182z" />
    <glyph glyph-name="seven" unicode="7" horiz-adv-x="1133" 
d="M96 1251v176h914v-192l-498 -1235h-242l551 1251h-725z" />
    <glyph glyph-name="eight" unicode="8" horiz-adv-x="1133" 
d="M289 400q0 -116 76.5 -188.5t200.5 -72.5t202 72t78 190t-75.5 191.5t-201.5 73.5t-203 -75t-77 -191zM305 1070q0 -98 73.5 -164t191.5 -66t189.5 63t71.5 167t-72.5 166t-188.5 62t-190.5 -65t-74.5 -163zM80 397q0 275 311 355q-135 32 -212 120t-77 211
q0 159 131 263t333 104t334 -103.5t132 -263.5q0 -127 -75 -215.5t-207 -115.5q143 -31 224 -127.5t81 -235.5q0 -185 -134.5 -299.5t-356.5 -114.5t-353 114t-131 308z" />
    <glyph glyph-name="nine" unicode="9" horiz-adv-x="1133" 
d="M819 974q0 142 -74 230t-197 88t-198.5 -87t-75.5 -232t74.5 -230.5t194.5 -85.5t198 87.5t78 229.5zM504 498q-186 0 -303 127t-117 341t130 349t337 135q489 0 489 -686q0 -388 -128.5 -587.5t-379.5 -199.5q-180 0 -292 95.5t-121 254.5l207 1q12 -92 68 -144.5
t143 -52.5q301 0 301 553q-108 -186 -334 -186z" />
    <glyph glyph-name="colon" unicode=":" horiz-adv-x="758" 
d="M268 0v252h221v-252h-221zM268 1028h221v-252h-221v252z" />
    <glyph glyph-name="semicolon" unicode=";" horiz-adv-x="758" 
d="M492 1028v-252h-224v252h224zM141 -254l135 504h236l-229 -504h-142z" />
    <glyph glyph-name="less" unicode="&#x3c;" horiz-adv-x="1706" 
d="M1442 1006l-969 -396l969 -393v-154l-1178 484v129l1178 483v-153z" />
    <glyph glyph-name="equal" unicode="=" horiz-adv-x="1706" 
d="M1452 879v-140h-1198v140h1198zM1452 481v-139h-1198v139h1198z" />
    <glyph glyph-name="greater" unicode="&#x3e;" horiz-adv-x="1706" 
d="M1442 676v-129l-1178 -484v154l971 393l-971 396v153z" />
    <glyph glyph-name="question" unicode="?" horiz-adv-x="1006" 
d="M326 0v213h213v-213h-213zM410 1499q216 0 347.5 -101.5t131.5 -275.5t-269 -429l-48 -44q-58 -53 -58 -135v-174h-170v199q0 102 57 159l24 24q251 257 251 382q0 100 -74 160.5t-203 60.5t-268 -59v186q145 47 279 47z" />
    <glyph glyph-name="at" unicode="@" horiz-adv-x="2048" 
d="M1051 895q-138 0 -232 -130t-94 -319q0 -105 48.5 -162t141.5 -57t170.5 69t104.5 179l59 236q-17 88 -68.5 136t-129.5 48zM1042 1004q170 0 242 -150l57 115h132l-146 -576q-8 -32 -8 -59q0 -94 100 -94t195 89q184 174 184 433t-190.5 420t-477.5 161t-478 -114
q-192 -114 -297 -299.5t-105 -385.5t61.5 -331.5t192.5 -230.5q208 -160 539 -160t606 190l55 -82q-297 -223 -672 -223t-620 187q-306 234 -306 628q0 334 203 582q146 178 351.5 270t455.5 92q340 0 575 -181q118 -91 185.5 -222t67.5 -295t-63.5 -303.5t-194.5 -243.5
t-306 -104q-200 0 -200 157v19q-108 -174 -301 -174q-153 0 -233.5 85t-80.5 247q0 235 138 394t339 159z" />
    <glyph glyph-name="A" unicode="A" horiz-adv-x="1460" 
d="M219 0h-205l627 1475h211l592 -1475h-230l-147 381h-684zM1006 549l-271 727l-286 -727h557z" />
    <glyph glyph-name="B" unicode="B" horiz-adv-x="1313" 
d="M956 1075q0 236 -305 236h-284v-463h284q165 0 235 53t70 174zM997 422q0 262 -327 262h-303v-520h303q174 0 250.5 61t76.5 197zM170 0v1475h502q193 0 293 -43q96 -46 149 -132t53 -204t-61.5 -201.5t-177.5 -120.5q136 -38 207 -136t71 -247q0 -207 -117 -299
t-391 -92h-528z" />
    <glyph glyph-name="C" unicode="C" horiz-adv-x="1356" 
d="M729 -25q-299 0 -456.5 193.5t-157.5 560.5t165 567.5t468 200.5q237 0 374 -109t142 -300h-209q-10 113 -99.5 183t-226.5 70q-190 0 -296.5 -159.5t-106.5 -443.5t105 -438.5t298 -154.5q140 0 224.5 67t95.5 185h219q-4 -194 -149 -308t-390 -114z" />
    <glyph glyph-name="D" unicode="D" horiz-adv-x="1470" 
d="M637 0h-467v1475h414q217 0 326 -29.5t196 -97.5q124 -98 190 -260.5t66 -350.5q0 -371 -182 -563q-91 -94 -210.5 -134t-332.5 -40zM682 176q473 0 473 541q0 287 -131.5 441.5t-376.5 154.5h-280v-1137h315z" />
    <glyph glyph-name="E" unicode="E" horiz-adv-x="1237" 
d="M170 0v1475h915v-175h-718v-448h688v-174h-688v-502h735v-176h-932z" />
    <glyph glyph-name="F" unicode="F" horiz-adv-x="1126" 
d="M170 0v1475h858v-177h-661v-452h626v-176h-626v-670h-197z" />
    <glyph glyph-name="G" unicode="G" horiz-adv-x="1524" 
d="M113 727q0 356 193 563t530 207q236 0 374 -104t144 -285h-215q-4 103 -96.5 170.5t-233.5 67.5q-229 0 -358 -163.5t-129 -449.5t136.5 -441t385.5 -155q116 0 301 53v439h-307v166h516v-727q-287 -95 -518 -95q-339 0 -531 199t-192 555z" />
    <glyph glyph-name="H" unicode="H" horiz-adv-x="1462" 
d="M371 0h-201v1475h201v-629h725v629h196v-1475h-196v670h-725v-670z" />
    <glyph glyph-name="I" unicode="I" horiz-adv-x="539" 
d="M367 0h-197v1475h197v-1475z" />
    <glyph glyph-name="J" unicode="J" horiz-adv-x="1081" 
d="M240 367q0 -220 238 -220q124 0 184.5 79.5t60.5 273.5v975h197v-1010q0 -490 -449 -490q-203 0 -314.5 99.5t-111.5 281.5l2 43h195z" />
    <glyph glyph-name="K" unicode="K" horiz-adv-x="1331" 
d="M170 0v1475h197v-633l606 633h264l-641 -656l719 -819h-283l-665 780v-780h-197z" />
    <glyph glyph-name="L" unicode="L" horiz-adv-x="1096" 
d="M170 0v1475h195v-1299h671v-176h-866z" />
    <glyph glyph-name="M" unicode="M" horiz-adv-x="1862" 
d="M1497 0v1319l-471 -1319h-170l-487 1305v-1305h-197v1475h336l438 -1203l418 1203h326v-1475h-193z" />
    <glyph glyph-name="N" unicode="N" horiz-adv-x="1503" 
d="M172 0v1475h281l698 -1203v1203h178v-1475h-242l-733 1251v-1251h-182z" />
    <glyph glyph-name="O" unicode="O" horiz-adv-x="1579" 
d="M117 736q0 364 175.5 562.5t498.5 198.5t497 -197.5t174 -563.5t-175 -563.5t-495 -197.5t-497.5 198.5t-177.5 562.5zM328 742q0 -286 120 -441.5t342 -155.5t340.5 152.5t118.5 441.5t-119.5 442.5t-341.5 153.5t-341 -153.5t-119 -439.5z" />
    <glyph glyph-name="P" unicode="P" horiz-adv-x="1235" 
d="M684 1475q481 0 481 -406q0 -218 -139.5 -320t-437.5 -102h-221v-647h-197v1475h514zM651 829q164 0 234.5 55.5t70.5 182.5t-69.5 182.5t-235.5 55.5h-284v-476h284z" />
    <glyph glyph-name="Q" unicode="Q" horiz-adv-x="1579" 
d="M328 748q0 -284 119 -436t342 -152t341.5 151t118.5 437t-119 437.5t-341 151.5t-341.5 -152.5t-119.5 -436.5zM1462 760q0 -391 -221 -582h307v-178h-514l-229 -14q-330 0 -509 196t-179 558t175.5 560.5t495.5 198.5t497 -194t177 -545z" />
    <glyph glyph-name="R" unicode="R" horiz-adv-x="1327" 
d="M690 1475q490 0 490 -385q0 -132 -71.5 -223.5t-199.5 -125.5q97 -22 142.5 -68.5t68.5 -151.5q7 -33 30.5 -211.5t61.5 -309.5h-211q-31 125 -51.5 299t-36.5 217q-30 85 -93.5 117.5t-205.5 32.5h-247v-666h-197v1475h520zM655 846q170 0 242 52t72 172t-64.5 169
t-249.5 49h-288v-442h288z" />
    <glyph glyph-name="S" unicode="S" horiz-adv-x="1343" 
d="M664 150q168 0 264 68.5t96 187.5q0 169 -344 255l-60 15q-19 5 -58 15q-195 48 -271 93q-75 45 -117.5 123.5t-42.5 173.5q0 192 149 304t393 112t375.5 -97.5t131.5 -266.5v-23h-199q-5 108 -85.5 166.5t-228.5 58.5t-237.5 -65.5t-89.5 -175.5q0 -145 331 -228
q47 -12 72 -18q296 -76 391 -167.5t95 -256.5q0 -211 -147.5 -330t-420.5 -119t-409.5 107t-136.5 330v20h210q5 -144 88 -213t251 -69z" />
    <glyph glyph-name="T" unicode="T" horiz-adv-x="1235" 
d="M715 0h-197v1298h-489v177h1177v-177h-491v-1298z" />
    <glyph glyph-name="U" unicode="U" horiz-adv-x="1491" 
d="M152 1475h202v-871q0 -233 94 -341.5t300 -108.5t302.5 112.5t96.5 368.5v840h190v-963q0 -252 -162.5 -393.5t-448.5 -141.5q-574 0 -574 590v908z" />
    <glyph glyph-name="V" unicode="V" horiz-adv-x="1346" 
d="M764 0h-217l-514 1475h221l410 -1246l438 1246h213z" />
    <glyph glyph-name="W" unicode="W" horiz-adv-x="2001" 
d="M434 0l-401 1475h194l318 -1180l356 1180h223l324 -1207l332 1207h188l-426 -1475h-207l-334 1255l-374 -1255h-193z" />
    <glyph glyph-name="X" unicode="X" horiz-adv-x="1434" 
d="M45 0l561 774l-491 701h231l391 -568l389 568h232l-512 -701l543 -774h-238l-430 639l-445 -639h-231z" />
    <glyph glyph-name="Y" unicode="Y" horiz-adv-x="1346" 
d="M776 0h-196v582l-562 893h244l426 -719l414 719h225l-551 -893v-582z" />
    <glyph glyph-name="Z" unicode="Z" horiz-adv-x="1233" 
d="M1159 0h-1085v209l846 1089h-811v177h1024v-211l-838 -1082h864v-182z" />
    <glyph glyph-name="bracketleft" unicode="[" horiz-adv-x="645" 
d="M561 -311h-348v1786h348v-111h-188v-1565h188v-110z" />
    <glyph glyph-name="backslash" unicode="\" horiz-adv-x="616" 
d="M502 -147l-535 1644h123l533 -1644h-121z" />
    <glyph glyph-name="bracketright" unicode="]" horiz-adv-x="645" 
d="M84 1475h348v-1786h-348v110h186v1565h-186v111z" />
    <glyph glyph-name="asciicircum" unicode="^" horiz-adv-x="2048" 
d="M1116 1458l510 -557h-180l-422 420l-424 -420h-180l510 557h186z" />
    <glyph glyph-name="underscore" unicode="_" 
d="M1024 -340v-143h-1024v143h1024z" />
    <glyph glyph-name="grave" unicode="`" 
d="M655 1163h-120l-285 348h201z" />
    <glyph glyph-name="a" unicode="a" horiz-adv-x="1087" 
d="M748 510h-160q-147 0 -228 -55t-81 -141t55 -135.5t139 -49.5q133 0 204 71.5t71 207.5v102zM84 296q0 152 130 247.5t355 95.5h179v125q0 168 -203 168q-95 0 -150.5 -47t-58.5 -129h-182v16q0 136 97.5 208.5t295.5 72.5t294.5 -75.5t96.5 -244.5v-635q0 -34 10 -98
h-170q-10 32 -15 96t-5 66q-80 -187 -330 -187q-156 0 -250 84.5t-94 236.5z" />
    <glyph glyph-name="b" unicode="b" horiz-adv-x="1233" 
d="M346 503q0 -188 81 -295.5t215 -107.5t214 114.5t80 303.5t-81 295.5t-215 106.5t-214 -114.5t-80 -302.5zM158 205v1270h188v-603q151 172 353 172q203 0 317 -139t114 -391t-119.5 -395.5t-333.5 -143.5t-331 166l-8 -141h-193q13 95 13 205z" />
    <glyph glyph-name="c" unicode="c" horiz-adv-x="1057" 
d="M956 346q-25 -371 -419 -371q-201 0 -320 134.5t-119 390.5t124.5 404.5t346.5 148.5q173 0 276 -93.5t103 -250.5v-4h-184q0 92 -60 153.5t-149 61.5q-121 0 -190.5 -102.5t-69.5 -280.5q0 -418 256 -418q99 0 159 61.5t62 165.5h184z" />
    <glyph glyph-name="d" unicode="d" horiz-adv-x="1233" 
d="M1075 205q0 -103 12 -205h-192l-8 152q-72 -94 -149.5 -135.5t-180.5 -41.5q-212 0 -334.5 142t-122.5 392t119.5 392.5t332.5 142.5t335 -172v603h188v-1270zM297 518q0 -188 80.5 -303t214.5 -115t214.5 107t80.5 295t-80 303t-214 115t-215 -107t-81 -295z" />
    <glyph glyph-name="e" unicode="e" horiz-adv-x="1128" 
d="M1024 608q0 -79 -4 -125h-729v-61q0 -146 75 -225.5t200 -79.5t191.5 57.5t68.5 155.5h179q-1 -160 -114.5 -257.5t-300.5 -97.5q-240 0 -364 132t-124 395t123 407t341 144t338 -119.5t120 -325.5zM301 616h530v23q0 128 -70.5 206.5t-188.5 78.5t-194.5 -85t-76.5 -223
z" />
    <glyph glyph-name="f" unicode="f" horiz-adv-x="631" 
d="M492 1352q-51 0 -86 -42.5t-35 -121.5v-160h237v-139h-237v-889h-191v889h-188v139h188v164q0 307 285 307q75 0 172 -19v-151q-94 23 -145 23z" />
    <glyph glyph-name="g" unicode="g" horiz-adv-x="1214" 
d="M856 2v193q-30 -61 -119 -104.5t-186 -43.5q-217 0 -333 129t-116 366t119 373t320 136q237 0 329 -150l7 127h178q-8 -88 -8 -182v-813q0 -230 -114.5 -335.5t-346.5 -105.5t-331.5 82.5t-100.5 261.5h204q4 -210 230 -210q137 0 202.5 67.5t65.5 208.5zM879 551
q0 174 -79.5 272.5t-211.5 98.5t-209.5 -106t-77.5 -280t78.5 -272t210.5 -98t210.5 105.5t78.5 279.5z" />
    <glyph glyph-name="h" unicode="h" horiz-adv-x="1204" 
d="M672 1040q108 0 221.5 -50t133.5 -139.5t20 -213.5v-637h-189v649q0 130 -55.5 191t-174.5 61t-195.5 -65t-76.5 -168v-668h-190v1475h190v-617q35 83 121.5 132.5t194.5 49.5z" />
    <glyph glyph-name="i" unicode="i" horiz-adv-x="512" 
d="M162 0v1028h190v-1028h-190zM367 1266h-222v209h222v-209z" />
    <glyph glyph-name="j" unicode="j" horiz-adv-x="512" 
d="M74 -403q-21 0 -101 8v139q114 0 149.5 30t35.5 154v1100h190v-1139q0 -152 -66 -222t-208 -70zM362 1266h-219v209h219v-209z" />
    <glyph glyph-name="k" unicode="k" horiz-adv-x="1008" 
d="M346 0h-190v1475h190v-867l389 422h232l-428 -444l458 -586h-233l-418 551v-551z" />
    <glyph glyph-name="l" unicode="l" horiz-adv-x="512" 
d="M352 0h-190v1475h190v-1475z" />
    <glyph glyph-name="m" unicode="m" horiz-adv-x="1868" 
d="M1524 655q0 240 -226 240q-115 0 -188.5 -72t-73.5 -186v-637h-192v621q0 142 -55 209t-175 67t-189 -72.5t-69 -203.5v-621h-190v815q0 73 -8 213h192l6 -174q40 85 124 135.5t239.5 50.5t286.5 -180q79 97 159.5 138.5t186.5 41.5t217.5 -56.5t125 -155t13.5 -199.5
v-629h-184v655z" />
    <glyph glyph-name="n" unicode="n" horiz-adv-x="1204" 
d="M166 817q0 113 -8 211h192l6 -168q35 83 121.5 131.5t194.5 48.5t221.5 -49.5t133.5 -138.5t20 -213v-639h-189v649q0 130 -55.5 191t-174.5 61t-195.5 -65t-76.5 -168v-668h-190v817z" />
    <glyph glyph-name="o" unicode="o" horiz-adv-x="1233" 
d="M106 502q0 250 138 399.5t376 149.5t371 -139.5t133 -393.5t-137.5 -398.5t-376.5 -144.5t-371.5 138.5t-132.5 388.5zM620 915q-148 0 -233.5 -110.5t-85.5 -297.5t82 -287.5t231 -100.5t233.5 106.5t84.5 294.5t-82 291.5t-230 103.5z" />
    <glyph glyph-name="p" unicode="p" horiz-adv-x="1233" 
d="M684 -16q-215 0 -338 174v-547h-188v1214q0 106 -13 203h193l8 -154q115 179 330 179t334.5 -141.5t119.5 -397.5t-115.5 -393t-330.5 -137zM346 527q0 -188 80 -303t214 -115t215 107.5t81 295.5t-79.5 302t-213.5 114t-215.5 -106.5t-81.5 -294.5z" />
    <glyph glyph-name="q" unicode="q" horiz-adv-x="1233" 
d="M1075 825v-1214h-190v547q-123 -174 -337 -174q-215 0 -331.5 138t-116.5 393t120.5 396.5t334.5 141.5t330 -179l8 154h192q-10 -90 -10 -203zM885 526q0 188 -81.5 295t-215.5 107t-212.5 -113.5t-78.5 -302.5t80.5 -296t214.5 -107t213.5 114.5t79.5 302.5z" />
    <glyph glyph-name="r" unicode="r" horiz-adv-x="758" 
d="M608 856q-127 0 -195.5 -72t-68.5 -206v-578h-188v866q0 88 -6 162h190l4 -197q56 197 289 197q46 0 78 -7v-177q-62 12 -103 12z" />
    <glyph glyph-name="s" unicode="s" horiz-adv-x="1006" 
d="M881 780q0 -20 -2 -30h-189v8q0 74 -52.5 117t-142.5 43t-148 -43t-58 -100t35 -87.5t116 -52.5l234 -64q237 -63 237 -276q0 -146 -111 -233t-313 -87t-302.5 75t-100.5 235v24h190v-4q0 -84 59 -135t157 -51t157.5 45.5t59.5 107.5t-30 95t-94 49l-218 51
q-273 63 -273 268q0 141 114.5 228.5t294.5 87.5t280 -72.5t100 -198.5z" />
    <glyph glyph-name="t" unicode="t" horiz-adv-x="649" 
d="M195 195v698h-175v135h175v211l188 64v-275h229v-135h-229v-631q0 -80 26.5 -105.5t84.5 -25.5t114 14v-143q-96 -25 -149 -25q-145 0 -204.5 50t-59.5 168z" />
    <glyph glyph-name="u" unicode="u" horiz-adv-x="1204" 
d="M1038 203q0 -126 9 -203h-193l-6 162q-35 -83 -122.5 -132.5t-194.5 -49.5t-221 51t-133 139.5t-19 212.5v645h188v-657q0 -130 56 -191t174 -61t195 66t77 169v674h190v-825z" />
    <glyph glyph-name="v" unicode="v" horiz-adv-x="1112" 
d="M453 0l-420 1028h192l328 -815l332 815h188l-434 -1028h-186z" />
    <glyph glyph-name="w" unicode="w" horiz-adv-x="1659" 
d="M954 1028l234 -825l262 825h184l-356 -1028h-199l-248 864l-270 -864h-201l-337 1028h186l256 -825l258 825h231z" />
    <glyph glyph-name="x" unicode="x" horiz-adv-x="1118" 
d="M27 0l395 541l-369 487h242l270 -385l283 385h219l-391 -496l393 -532h-244l-293 414l-288 -414h-217z" />
    <glyph glyph-name="y" unicode="y" horiz-adv-x="1112" 
d="M453 0l-420 1028h192l328 -815l332 815h188l-602 -1417h-176z" />
    <glyph glyph-name="z" unicode="z" horiz-adv-x="899" 
d="M66 0v190l548 697h-514v141h723v-166l-563 -717h561v-145h-755z" />
    <glyph glyph-name="braceleft" unicode="{" 
d="M451 872v246q0 148 22.5 210.5t72.5 93.5t113.5 43t169.5 12h37v-150h-41q-120 0 -161 -44.5t-41 -184.5v-242q0 -160 -44.5 -228t-156.5 -98q113 -28 157 -96t44 -229v-242q0 -141 41.5 -185t162.5 -44h39v-148h-43q-193 0 -260 42t-89.5 104.5t-22.5 210.5v245
q0 149 -54.5 210t-185.5 61l-43 -2v149l45 -2q130 0 184 60.5t54 207.5z" />
    <glyph glyph-name="bar" unicode="|" 
d="M588 1565v-2048h-150v2048h150z" />
    <glyph glyph-name="braceright" unicode="}" 
d="M575 188v-245q0 -148 -22.5 -211t-70.5 -93t-109.5 -41.5t-169.5 -11.5h-43v148h39q120 0 162 45t42 186v240q0 160 44.5 228t156.5 97q-112 30 -156.5 98t-44.5 228v242q0 140 -42 184.5t-162 44.5h-39v150h37q195 0 278 -52q55 -34 77.5 -96.5t22.5 -210.5v-246
q0 -147 54 -207.5t184 -60.5l45 2v-149l-43 2q-132 0 -186 -60.5t-54 -210.5z" />
    <glyph glyph-name="asciitilde" unicode="~" horiz-adv-x="1706" 
d="M565 750q134 0 338 -79q159 -57 240 -57q166 0 387 156v-156q-204 -141 -389 -141q-93 -1 -280 67t-298 68q-160 0 -385 -157v155q212 144 387 144z" />
    <glyph glyph-name="nonbreakingspace" unicode="&#xa0;" horiz-adv-x="1133" 
 />
    <glyph glyph-name="exclamdown" unicode="&#xa1;" horiz-adv-x="758" 
d="M481 1475v-207h-205v207h205zM453 1130l36 -1130h-219l33 1130h150z" />
    <glyph glyph-name="cent" unicode="&#xa2;" horiz-adv-x="1133" 
d="M588 950q-116 0 -185 -102t-69 -264t30 -252.5t95 -141.5l208 745q-36 15 -79 15zM602 0q-24 0 -86 10l-78 -276l-102 30l78 269q-135 49 -206 174.5t-71 314.5q0 260 122 411.5t329 151.5q25 0 121 -12l71 252l103 -29l-76 -256q92 -46 135 -118.5t45 -183.5h-184
q-4 89 -43 132l-205 -716l45 -2q92 0 150.5 62t61.5 163h183q-7 -171 -115.5 -274t-277.5 -103z" />
    <glyph glyph-name="sterling" unicode="&#xa3;" horiz-adv-x="1133" 
d="M1057 0h-987v156h145v534h-145v139h145v175q0 229 107.5 337.5t327.5 108.5t331.5 -84t113.5 -246l-200 1q-5 94 -64 144t-169 50t-177 -64t-67 -172v-250h280v-139h-280v-534h639v-156z" />
    <glyph glyph-name="currency" unicode="&#xa4;" horiz-adv-x="1241" 
d="M621 1305q140 0 256 -86l204 204l82 -80l-205 -206q82 -110 82 -254t-82 -250l205 -205l-82 -82l-204 205q-115 -86 -256 -86q-140 0 -254 86l-205 -205l-82 82l207 205q-84 104 -84 248t84 256l-207 206l82 80l205 -204q114 86 254 86zM926 886q0 126 -89 215t-215 89
t-214.5 -89t-88.5 -215t88.5 -215t214.5 -89t215 89t89 215z" />
    <glyph glyph-name="yen" unicode="&#xa5;" horiz-adv-x="1239" 
d="M717 0h-191v563l-16 27h-485v94h424l-134 207h-290v96h229l-287 440h226l438 -712l424 712h211l-279 -440h227v-96h-290l-131 -207h421v-94h-483l-14 -27v-563z" />
    <glyph glyph-name="brokenbar" unicode="&#xa6;" 
d="M588 1432v-758h-150v758h150zM588 408v-758h-150v758h150z" />
    <glyph glyph-name="section" unicode="&#xa7;" horiz-adv-x="1081" 
d="M692 285q0 96 -174 150l-30 9q-193 62 -247.5 116.5t-54.5 194.5t224 228q-193 64 -193 234q0 130 98 205t271 75q91 0 239 -37v-155q-132 55 -225 55q-92 0 -136 -36.5t-44 -100.5q0 -95 181 -151l30 -9q139 -44 194.5 -102.5t55.5 -148.5t-56 -161.5t-153 -109.5
q109 -26 166 -92.5t57 -167.5q0 -142 -111 -224t-305 -82q-111 0 -258 43v175q150 -68 254 -68t160.5 42.5t56.5 117.5zM533 600q55 0 118.5 61.5t63.5 118.5t-66.5 106.5t-119.5 49.5t-112 -60t-59 -116t60 -108t115 -52z" />
    <glyph glyph-name="dieresis" unicode="&#xa8;" 
d="M256 1223v209h182v-209h-182zM586 1223v209h182v-209h-182z" />
    <glyph glyph-name="copyright" unicode="&#xa9;" horiz-adv-x="1706" 
d="M1591 726q0 -307 -220 -521q-220 -215 -520 -215t-517 217t-217 520t216 520t523 217t520 -215q104 -103 159.5 -239t55.5 -284zM1493 726q0 267 -184 454q-190 188 -455 188q-264 0 -448 -184q-93 -93 -143 -211.5t-50 -244.5q0 -259 190 -452q190 -188 449 -188
t450 185t191 453zM623 728q0 -158 62 -245.5t173 -87.5q82 0 136.5 47t68.5 129h145q-9 -130 -107.5 -211t-264.5 -81t-269.5 120t-103.5 327t109 329.5t286 122.5q142 0 236.5 -75t105.5 -196h-147q-27 160 -215 160q-96 0 -155.5 -90.5t-59.5 -248.5z" />
    <glyph glyph-name="ordfeminine" unicode="&#xaa;" horiz-adv-x="815" 
d="M561 1110h-121q-110 0 -170.5 -38t-60.5 -98t41 -95t123 -35t135 50t53 144v72zM115 1294q0 197 295 197q149 0 222 -53t73 -170v-445q0 -24 5 -69h-126q-8 20 -11 63t-4 49q-59 -129 -247 -129q-118 0 -188.5 59t-70.5 165t98 172.5t267 66.5h133v88q0 119 -151 119
q-72 0 -113.5 -33t-44.5 -91l-137 -1v12z" />
    <glyph glyph-name="guillemotleft" unicode="&#xab;" horiz-adv-x="1001" 
d="M502 113h-162l-225 409l213 393h164l-183 -393zM889 113h-162l-227 409l213 393h164l-183 -393z" />
    <glyph glyph-name="logicalnot" unicode="&#xac;" horiz-adv-x="1706" 
d="M1452 860v-502h-137v363h-1061v139h1198z" />
    <glyph glyph-name="sfthyphen" unicode="&#xad;" horiz-adv-x="678" 
d="M96 428v172h486v-172h-486z" />
    <glyph glyph-name="registered" unicode="&#xae;" horiz-adv-x="1706" 
d="M340 1255q205 209 514 209t524 -219q213 -215 213 -521t-215 -515q-225 -219 -526 -219t-517 219t-216 518q0 146 57.5 282.5t165.5 245.5zM213 728q0 -258 188 -449q187 -191 448 -191t453 185q191 185 191 454t-185 455t-454 186t-446 -182q-94 -95 -144.5 -213.5
t-50.5 -244.5zM872 1159q349 0 349 -229q0 -89 -50 -148t-141 -77l187 -381h-177l-170 356h-155v-356h-158v835h315zM844 1057h-129v-277h133q113 0 162 31.5t49 104.5t-51 107t-164 34z" />
    <glyph glyph-name="macron" unicode="&#xaf;" 
d="M242 1257v140h540v-140h-540z" />
    <glyph glyph-name="degree" unicode="&#xb0;" horiz-adv-x="674" 
d="M337 1456q119 0 203.5 -84t84.5 -204t-84 -203.5t-205 -83.5t-204 83t-83 203t84.5 204.5t203.5 84.5zM530 1169q0 81 -55.5 137t-136.5 56t-138 -56t-57 -137t57 -138.5t138 -57.5t136.5 57.5t55.5 138.5z" />
    <glyph glyph-name="plusminus" unicode="&#xb1;" horiz-adv-x="1706" 
d="M924 1192v-340h528v-139h-528v-340h-142v340h-528v139h528v340h142zM1452 170v-141h-1198v141h1198z" />
    <glyph glyph-name="twosuperior" unicode="&#xb2;" horiz-adv-x="748" 
d="M668 571h-588v123q261 215 360 327.5t99 179.5t-42.5 104.5t-112.5 37.5t-108 -38t-38 -109h-143q4 117 77.5 181.5t205.5 64.5t212 -63.5t80 -172.5q0 -75 -41.5 -143t-173.5 -189l-222 -202h435v-101z" />
    <glyph glyph-name="threesuperior" unicode="&#xb3;" horiz-adv-x="748" 
d="M291 1061q248 7 248 143q0 68 -43.5 102.5t-118.5 34.5t-120.5 -34t-47.5 -92h-135q2 105 81.5 166t217.5 61t219.5 -63.5t81.5 -170.5q0 -137 -170 -192q87 -17 136.5 -72.5t49.5 -136.5q0 -112 -91 -181t-239 -69t-225.5 63t-78.5 179h141q6 -72 46.5 -106t124.5 -34
t135.5 40.5t51.5 112.5t-60.5 114.5t-170.5 42.5l-33 -2v94z" />
    <glyph glyph-name="acute" unicode="&#xb4;" 
d="M369 1163l204 348h201l-285 -348h-120z" />
    <glyph glyph-name="mu" unicode="&#xb5;" horiz-adv-x="1151" 
d="M242 323q0 -84 52 -138t148 -54q132 0 208.5 92.5t123.5 311.5l115 536h178l-156 -732q-1 -7 -11 -57t-11 -81q0 -62 72 -62q18 0 32 2l-31 -143q-48 -10 -110 -10t-95.5 29t-51.5 100q-89 -131 -259 -131q-169 0 -268 116l-110 -530h-181l318 1499h180l-129 -600
q-14 -64 -14 -148z" />
    <glyph glyph-name="paragraph" unicode="&#xb6;" 
d="M958 1393h-120v-1393h-111v1393h-176v-1393h-113v782q-170 8 -271 102.5t-101 248.5t107.5 250t285.5 96h499v-86z" />
    <glyph glyph-name="glyph121" unicode="&#xb7;" horiz-adv-x="567" 
d="M143 714q0 59 40.5 99.5t98.5 40.5t100 -41t42 -99t-42 -99.5t-100 -41.5t-98.5 41t-40.5 100z" />
    <glyph glyph-name="cedilla" unicode="&#xb8;" 
d="M502 -365q121 0 121 84t-127 84l-60 -1v198h76v-102h29q223 0 223 -181q0 -91 -64.5 -139.5t-174.5 -48.5t-269 45v100q165 -39 246 -39z" />
    <glyph glyph-name="onesuperior" unicode="&#xb9;" horiz-adv-x="748" 
d="M508 1427v-856h-131v717q-98 -75 -207 -117v127q142 64 207 129h131z" />
    <glyph glyph-name="ordmasculine" unicode="&#xba;" horiz-adv-x="926" 
d="M80 1106q0 174 103 278.5t282 104.5t279 -97.5t100 -275.5t-103 -278.5t-283 -100.5t-279 97.5t-99 271.5zM465 1395q-111 0 -175.5 -78.5t-64.5 -208.5t61.5 -200t173.5 -70t175 74t63 206t-61 204.5t-172 72.5z" />
    <glyph glyph-name="guillemotright" unicode="&#xbb;" horiz-adv-x="1001" 
d="M500 113l192 409l-182 393h164l213 -393l-228 -409h-159zM113 113l194 409l-182 393h164l213 -393l-228 -409h-161z" />
    <glyph glyph-name="onequarter" unicode="&#xbc;" horiz-adv-x="1769" 
d="M483 1427v-798h-123v667q-90 -64 -198 -108v119q127 55 198 120h123zM373 -25l899 1475h125l-899 -1475h-125zM1497 266v418l-309 -418h309zM1497 0v172h-407v139l383 488h143v-533h123v-94h-123v-172h-119z" />
    <glyph glyph-name="onehalf" unicode="&#xbd;" horiz-adv-x="1769" 
d="M483 1427v-798h-123v667q-90 -64 -198 -108v119q127 55 198 120h123zM373 -25l899 1475h125l-899 -1475h-125zM1694 0h-561v115q247 198 342.5 303.5t95.5 169.5t-40.5 98.5t-106.5 34.5t-103 -36t-37 -101h-137q5 110 74.5 169.5t195.5 59.5t202.5 -59.5t76.5 -145.5
t-39 -149.5t-166 -175.5l-211 -189h414v-94z" />
    <glyph glyph-name="threequarters" unicode="&#xbe;" horiz-adv-x="1769" 
d="M479 1042q178 -31 178 -208q0 -91 -86 -155.5t-227 -64.5t-216 59.5t-75 168.5h135q7 -68 45.5 -99.5t118.5 -31.5t129 37.5t49 105.5t-57.5 106.5t-163.5 38.5l-33 -2l1 88q237 7 237 133q0 62 -41.5 96t-112.5 34t-115.5 -33t-46.5 -86h-128q1 97 77.5 154t208.5 57
t209.5 -58.5t77.5 -156.5q0 -129 -164 -183zM371 -25l899 1475h125l-899 -1475h-125zM1495 266v418l-309 -418h309zM1495 0v172h-408v139l383 488h144v-533h123v-94h-123v-172h-119z" />
    <glyph glyph-name="questiondown" unicode="&#xbf;" horiz-adv-x="1006" 
d="M680 1475v-213h-213v213h213zM115 352q0 172 267 424l28 27q9 9 26 24q56 51 56 134v174h170v-199q0 -66 -8 -93t-50 -69l-29 -30q-245 -250 -245 -373q0 -101 74 -162.5t202 -61.5t268 62v-189q-143 -45 -280 -45q-216 0 -347.5 102.5t-131.5 274.5z" />
    <glyph glyph-name="Agrave" unicode="&#xc0;" horiz-adv-x="1460" 
d="M219 0h-205l627 1475h211l592 -1475h-230l-147 381h-684zM1006 549l-271 727l-286 -727h557zM882 1609h-120l-285 348h201z" />
    <glyph glyph-name="Aacute" unicode="&#xc1;" horiz-adv-x="1460" 
d="M219 0h-205l627 1475h211l592 -1475h-230l-147 381h-684zM1006 549l-271 727l-286 -727h557zM596 1609l204 348h201l-285 -348h-120z" />
    <glyph glyph-name="Acircumflex" unicode="&#xc2;" horiz-adv-x="1460" 
d="M219 0h-205l627 1475h211l592 -1475h-230l-147 381h-684zM1006 549l-271 727l-286 -727h557zM444 1609l197 348h196l197 -348h-123l-172 230l-174 -230h-121z" />
    <glyph glyph-name="Atilde" unicode="&#xc3;" horiz-adv-x="1460" 
d="M219 0h-205l627 1475h211l592 -1475h-230l-147 381h-684zM1006 549l-271 727l-286 -727h557zM850 1814q66 0 94 74h88q-20 -102 -70 -156t-127 -53q-29 0 -65 10l-97 27q-26 8 -49 8q-62 0 -90 -68h-88q18 99 68 152t125 53q35 0 59 -8l99 -29q38 -10 53 -10z" />
    <glyph glyph-name="Adieresis" unicode="&#xc4;" horiz-adv-x="1460" 
d="M219 0h-205l627 1475h211l592 -1475h-230l-147 381h-684zM1006 549l-271 727l-286 -727h557zM483 1669v209h182v-209h-182zM813 1669v209h182v-209h-182z" />
    <glyph glyph-name="Aring" unicode="&#xc5;" horiz-adv-x="1460" 
d="M219 0h-205l627 1456h211l592 -1456h-230l-147 381h-684zM1006 549l-271 727l-286 -727h557zM518 1743q0 95 67 162t162 67t161.5 -67t66.5 -162t-65.5 -161t-161.5 -66t-163 66t-67 161zM633 1744q0 -48 33.5 -82t80.5 -34t82 35t35 81t-36 82t-82 36t-79.5 -35
t-33.5 -83z" />
    <glyph glyph-name="AE" unicode="&#xc6;" horiz-adv-x="2015" 
d="M1047 575l-121 748l-412 -748h533zM1860 1475v-179h-740l76 -450h635v-176h-604l86 -492h571v-178h-745l-64 399h-661l-219 -399h-215l831 1475h1049z" />
    <glyph glyph-name="Ccedilla" unicode="&#xc7;" horiz-adv-x="1356" 
d="M115 729q0 367 165 567t468 201q237 0 374 -109t142 -300h-209q-9 113 -99 183t-227 70q-191 1 -297 -159t-106 -444t105 -439q105 -154 298 -154q141 0 225 67t95 185h219q-4 -194 -149 -308t-390 -114h-10v-77h29q223 0 223 -181q-1 -91 -65 -139t-174 -49
q-110 0 -269 45v100q165 -39 246 -39q121 0 121 84t-127 84l-60 -1v177q-237 25 -371 189q-158 194 -157 561z" />
    <glyph glyph-name="Egrave" unicode="&#xc8;" horiz-adv-x="1237" 
d="M170 0v1475h915v-175h-718v-448h688v-174h-688v-502h735v-176h-932zM768 1609h-120l-285 348h201z" />
    <glyph glyph-name="Eacute" unicode="&#xc9;" horiz-adv-x="1237" 
d="M170 0v1475h915v-175h-718v-448h688v-174h-688v-502h735v-176h-932zM482 1609l204 348h201l-285 -348h-120z" />
    <glyph glyph-name="Ecircumflex" unicode="&#xca;" horiz-adv-x="1237" 
d="M170 0v1475h915v-175h-718v-448h688v-174h-688v-502h735v-176h-932zM330 1609l197 348h196l197 -348h-123l-172 230l-174 -230h-121z" />
    <glyph glyph-name="Edieresis" unicode="&#xcb;" horiz-adv-x="1237" 
d="M170 0v1475h915v-175h-718v-448h688v-174h-688v-502h735v-176h-932zM369 1669v209h182v-209h-182zM699 1669v209h182v-209h-182z" />
    <glyph glyph-name="Igrave" unicode="&#xcc;" horiz-adv-x="539" 
d="M367 0h-197v1475h197v-1475zM413 1609h-120l-285 348h201z" />
    <glyph glyph-name="Iacute" unicode="&#xcd;" horiz-adv-x="539" 
d="M367 0h-197v1475h197v-1475zM127 1609l204 348h201l-285 -348h-120z" />
    <glyph glyph-name="Icircumflex" unicode="&#xce;" horiz-adv-x="539" 
d="M367 0h-197v1475h197v-1475zM-25 1609l197 348h196l197 -348h-123l-172 230l-174 -230h-121z" />
    <glyph glyph-name="Idieresis" unicode="&#xcf;" horiz-adv-x="539" 
d="M367 0h-197v1475h197v-1475zM14 1669v209h182v-209h-182zM344 1669v209h182v-209h-182z" />
    <glyph glyph-name="Eth" unicode="&#xd0;" horiz-adv-x="1481" 
d="M651 0h-465v680h-186v156h186v643h412q208 0 402.5 -52t286 -276.5t91.5 -412.5q0 -371 -182 -564q-89 -94 -208.5 -134t-336.5 -40zM696 176q473 0 473 541q0 287 -131.5 441.5t-375.5 154.5h-281v-477h344v-156h-344v-504h315z" />
    <glyph glyph-name="Ntilde" unicode="&#xd1;" horiz-adv-x="1503" 
d="M172 0v1475h281l698 -1203v1203h178v-1475h-242l-733 1251v-1251h-182zM875 1814q66 0 94 74h88q-21 -102 -71 -156t-126 -53q-29 0 -65 10l-97 27q-26 8 -49 8q-62 0 -90 -68h-88q18 99 68 152t125 53q35 0 59 -8l99 -29q38 -10 53 -10z" />
    <glyph glyph-name="Ograve" unicode="&#xd2;" horiz-adv-x="1579" 
d="M117 736q-1 364 175 562t499 199t497 -197t174 -564t-175 -564t-495 -197q-320 0 -498 199q-177 198 -177 562zM328 742q0 -286 120 -442t342 -155t340 153t119 441q0 289 -119 443q-120 154 -342 153q-222 0 -341 -153q-119 -154 -119 -440zM934 1609h-120l-285 348h201
z" />
    <glyph glyph-name="Oacute" unicode="&#xd3;" horiz-adv-x="1579" 
d="M117 736q-1 364 175 562t499 199t497 -197t174 -564t-175 -564t-495 -197q-320 0 -498 199q-177 198 -177 562zM328 742q0 -286 120 -442t342 -155t340 153t119 441q0 289 -119 443q-120 154 -342 153q-222 0 -341 -153q-119 -154 -119 -440zM648 1609l204 348h201
l-285 -348h-120z" />
    <glyph glyph-name="Ocircumflex" unicode="&#xd4;" horiz-adv-x="1579" 
d="M117 736q-1 364 175 562t499 199t497 -197t174 -564t-175 -564t-495 -197q-320 0 -498 199q-177 198 -177 562zM328 742q0 -286 120 -442t342 -155t340 153t119 441q0 289 -119 443q-120 154 -342 153q-222 0 -341 -153q-119 -154 -119 -440zM496 1609l197 348h196
l197 -348h-123l-172 230l-174 -230h-121z" />
    <glyph glyph-name="Otilde" unicode="&#xd5;" horiz-adv-x="1579" 
d="M117 736q-1 364 175 562t499 199t497 -197t174 -564t-175 -564t-495 -197q-320 0 -498 199q-177 198 -177 562zM328 742q0 -286 120 -442t342 -155t340 153t119 441q0 289 -119 443q-120 154 -342 153q-222 0 -341 -153q-119 -154 -119 -440zM902 1814q66 0 94 74h88
q-20 -102 -70 -156t-127 -53q-29 0 -65 10l-97 27q-26 8 -49 8q-62 0 -90 -68h-88q18 99 68 152t125 53q35 0 59 -8l99 -29q38 -10 53 -10z" />
    <glyph glyph-name="Odieresis" unicode="&#xd6;" horiz-adv-x="1579" 
d="M117 736q-1 364 175 562t499 199t497 -197t174 -564t-175 -564t-495 -197q-320 0 -498 199q-177 198 -177 562zM328 742q0 -286 120 -442t342 -155t340 153t119 441q0 289 -119 443q-120 154 -342 153q-222 0 -341 -153q-119 -154 -119 -440zM535 1669v209h182v-209h-182
zM865 1669v209h182v-209h-182z" />
    <glyph glyph-name="multiply" unicode="&#xd7;" horiz-adv-x="1706" 
d="M860 709l469 469l98 -99l-469 -469l469 -469l-98 -96l-469 467l-469 -467l-98 96l469 469l-469 469l98 99z" />
    <glyph glyph-name="Oslash" unicode="&#xd8;" horiz-adv-x="1579" 
d="M793 1335q-223 0 -342 -153t-119 -429t108 -442l613 949q-122 75 -260 75zM1137.5 299.5q117.5 154.5 117.5 460.5t-122 426l-615 -955q115 -86 275 -86q227 0 344.5 154.5zM117 717q0 383 175.5 581.5t498.5 198.5q213 0 358 -86l139 217l92 -57l-145 -223
q227 -189 227 -615q0 -363 -175 -560.5t-496 -197.5q-212 0 -375 99l-166 -256l-88 57l170 260q-215 199 -215 582z" />
    <glyph glyph-name="Ugrave" unicode="&#xd9;" horiz-adv-x="1491" 
d="M152 1475h202v-871q0 -234 94 -342t300 -108t303 112q96 112 96 369v840h190v-963q0 -252 -162 -394q-163 -142 -449 -141q-574 0 -574 590v908zM888 1609h-120l-285 348h201z" />
    <glyph glyph-name="Uacute" unicode="&#xda;" horiz-adv-x="1491" 
d="M152 1475h202v-871q0 -234 94 -342t300 -108t303 112q96 112 96 369v840h190v-963q0 -252 -162 -394q-163 -142 -449 -141q-574 0 -574 590v908zM602 1609l204 348h201l-285 -348h-120z" />
    <glyph glyph-name="Ucircumflex" unicode="&#xdb;" horiz-adv-x="1491" 
d="M152 1475h202v-871q0 -234 94 -342t300 -108t303 112q96 112 96 369v840h190v-963q0 -252 -162 -394q-163 -142 -449 -141q-574 0 -574 590v908zM450 1609l197 348h196l197 -348h-123l-172 230l-174 -230h-121z" />
    <glyph glyph-name="Udieresis" unicode="&#xdc;" horiz-adv-x="1491" 
d="M152 1475h202v-871q0 -234 94 -342t300 -108t303 112q96 112 96 369v840h190v-963q0 -252 -162 -394q-163 -142 -449 -141q-574 0 -574 590v908zM489 1669v209h182v-209h-182zM819 1669v209h182v-209h-182z" />
    <glyph glyph-name="Yacute" unicode="&#xdd;" horiz-adv-x="1346" 
d="M776 0h-196v582l-562 893h244l426 -719l414 719h225l-551 -893v-582zM531 1609l204 348h201l-285 -348h-120z" />
    <glyph glyph-name="Thorn" unicode="&#xde;" horiz-adv-x="1235" 
d="M684 1176q481 0 481 -406q0 -218 -139.5 -320t-437.5 -102h-221v-348h-197v1475h197v-299h317zM651 530q164 0 234.5 55.5t70.5 182.5t-69.5 182.5t-235.5 55.5h-284v-476h284z" />
    <glyph glyph-name="germandbls" unicode="&#xdf;" horiz-adv-x="1319" 
d="M667 293q7 -170 169 -170q82 0 136 51.5t54 123.5t-42 125t-164 123t-168 127.5t-46 122.5t25.5 107.5t101.5 100.5t102.5 98t26.5 88q0 78 -68 129t-192 51q-256 0 -256 -303v-1067h-190v1063q0 229 110 332.5t330 103.5t336.5 -81.5t116.5 -210.5t-101 -206
q-18 -14 -50 -37q-101 -74 -101 -138t124 -135q174 -98 229.5 -184.5t55.5 -187.5q0 -148 -112 -242.5t-278 -94.5q-326 0 -339 311h190z" />
    <glyph glyph-name="agrave" unicode="&#xe0;" horiz-adv-x="1087" 
d="M748 510h-160q-147 0 -228 -54t-81 -142q0 -86 55 -136t139 -49q133 -1 204 71t71 208v102zM84 296q0 152 130 248t355 95h179v125q0 168 -203 168q-95 0 -151 -47t-58 -129h-182v16q0 136 98 208t295 73q199 1 295 -75t96 -245v-635q0 -34 10 -98h-170q-10 32 -15 96
t-5 66q-80 -187 -330 -187q-156 0 -250 85q-94 84 -94 236zM688 1163h-120l-285 348h201z" />
    <glyph glyph-name="aacute" unicode="&#xe1;" horiz-adv-x="1087" 
d="M748 510h-160q-147 0 -228 -54t-81 -142q0 -86 55 -136t139 -49q133 -1 204 71t71 208v102zM84 296q0 152 130 248t355 95h179v125q0 168 -203 168q-95 0 -151 -47t-58 -129h-182v16q0 136 98 208t295 73q199 1 295 -75t96 -245v-635q0 -34 10 -98h-170q-10 32 -15 96
t-5 66q-80 -187 -330 -187q-156 0 -250 85q-94 84 -94 236zM402 1163l204 348h201l-285 -348h-120z" />
    <glyph glyph-name="acircumflex" unicode="&#xe2;" horiz-adv-x="1087" 
d="M748 510h-160q-147 0 -228 -54t-81 -142q0 -86 55 -136t139 -49q133 -1 204 71t71 208v102zM84 296q0 152 130 248t355 95h179v125q0 168 -203 168q-95 0 -151 -47t-58 -129h-182v16q0 136 98 208t295 73q199 1 295 -75t96 -245v-635q0 -34 10 -98h-170q-10 32 -15 96
t-5 66q-80 -187 -330 -187q-156 0 -250 85q-94 84 -94 236zM250 1163l197 348h196l197 -348h-123l-172 230l-174 -230h-121z" />
    <glyph glyph-name="atilde" unicode="&#xe3;" horiz-adv-x="1087" 
d="M748 510h-160q-147 0 -228 -54t-81 -142q0 -86 55 -136t139 -49q133 -1 204 71t71 208v102zM84 296q0 152 130 248t355 95h179v125q0 168 -203 168q-95 0 -151 -47t-58 -129h-182v16q0 136 98 208t295 73q199 1 295 -75t96 -245v-635q0 -34 10 -98h-170q-10 32 -15 96
t-5 66q-80 -187 -330 -187q-156 0 -250 85q-94 84 -94 236zM656 1368q66 0 94 74h88q-20 -102 -70 -156t-127 -53q-29 0 -65 10l-97 27q-26 8 -49 8q-62 0 -90 -68h-88q18 99 68 152t125 53q35 0 59 -8l99 -29q38 -10 53 -10z" />
    <glyph glyph-name="adieresis" unicode="&#xe4;" horiz-adv-x="1087" 
d="M748 510h-160q-147 0 -228 -54t-81 -142q0 -86 55 -136t139 -49q133 -1 204 71t71 208v102zM84 296q0 152 130 248t355 95h179v125q0 168 -203 168q-95 0 -151 -47t-58 -129h-182v16q0 136 98 208t295 73q199 1 295 -75t96 -245v-635q0 -34 10 -98h-170q-10 32 -15 96
t-5 66q-80 -187 -330 -187q-156 0 -250 85q-94 84 -94 236zM289 1223v209h182v-209h-182zM619 1223v209h182v-209h-182z" />
    <glyph glyph-name="aring" unicode="&#xe5;" horiz-adv-x="1087" 
d="M748 510h-160q-147 0 -228 -55t-81 -141t55 -135.5t139 -49.5q133 0 204 71.5t71 207.5v102zM84 296q0 152 130 247.5t355 95.5h179v125q0 168 -203 168q-95 0 -150.5 -47t-58.5 -129h-182v16q0 136 97.5 208.5t295.5 72.5t294.5 -75.5t96.5 -244.5v-635q0 -34 10 -98
h-170q-10 32 -15 96t-5 66q-80 -187 -330 -187q-156 0 -250 84.5t-94 236.5zM340 1350q0 96 66 162.5t160 66.5t161.5 -67t67.5 -162t-66.5 -161.5t-162.5 -66.5t-161 66t-65 162zM453 1350q0 -48 32.5 -81.5t80.5 -33.5t82 34t34 80t-35 81.5t-81 35.5t-79.5 -34t-33.5 -82
z" />
    <glyph glyph-name="ae" unicode="&#xe6;" horiz-adv-x="1839" 
d="M805 625q0 299 -233 299q-113 0 -172.5 -44t-59.5 -114v-4h-193q8 139 110 215t265 76t252 -43t135 -136q65 94 150 137.5t205 43.5q218 0 341.5 -119t123.5 -328q-2 -77 -7 -125h-727l-2 -67q0 -141 77 -220t201 -79t189.5 57t67.5 155h182q-3 -165 -118 -259.5
t-314 -94.5q-133 0 -224.5 48.5t-158.5 152.5q-78 -105 -177 -153t-260 -48t-264.5 88.5t-103.5 244.5t116 232t363 76h236v9zM569 483q-288 0 -288 -178q0 -88 61 -138t177 -50t197.5 79t86.5 214l2 73h-236zM1536 616v23q0 128 -70.5 206.5t-187.5 78.5t-193 -81.5
t-90 -226.5h541z" />
    <glyph glyph-name="ccedilla" unicode="&#xe7;" horiz-adv-x="1057" 
d="M295 537q0 -418 256 -418q99 -1 159 61t62 166h184q-12 -180 -115 -276t-286 -95h-16v-77h29q223 0 223 -181q-1 -91 -65 -139t-174 -49q-110 0 -269 45v100q165 -39 246 -39q121 0 121 84t-127 84l-60 -1v180q-153 24 -246 128q-119 134 -119 390t124 405
q124 148 347 148q173 1 276 -93t103 -251v-4h-184q0 91 -60 153t-149 62q-121 0 -191 -102t-69 -281z" />
    <glyph glyph-name="egrave" unicode="&#xe8;" horiz-adv-x="1128" 
d="M1024 608q0 -79 -4 -125h-729v-61q0 -146 75 -226t200 -79q126 -1 192 57t68 156h179q-1 -160 -115 -258t-300 -97q-240 0 -364 132t-124 395t122 407t342 144q218 1 338 -119t120 -326zM301 616h530v23q-1 129 -71 207t-188 78t-194 -85q-77 -85 -77 -223zM708 1163
h-120l-285 348h201z" />
    <glyph glyph-name="eacute" unicode="&#xe9;" horiz-adv-x="1128" 
d="M1024 608q0 -79 -4 -125h-729v-61q0 -146 75 -226t200 -79q126 -1 192 57t68 156h179q-1 -160 -115 -258t-300 -97q-240 0 -364 132t-124 395t122 407t342 144q218 1 338 -119t120 -326zM301 616h530v23q-1 129 -71 207t-188 78t-194 -85q-77 -85 -77 -223zM422 1163
l204 348h201l-285 -348h-120z" />
    <glyph glyph-name="ecircumflex" unicode="&#xea;" horiz-adv-x="1128" 
d="M1024 608q0 -79 -4 -125h-729v-61q0 -146 75 -226t200 -79q126 -1 192 57t68 156h179q-1 -160 -115 -258t-300 -97q-240 0 -364 132t-124 395t122 407t342 144q218 1 338 -119t120 -326zM301 616h530v23q-1 129 -71 207t-188 78t-194 -85q-77 -85 -77 -223zM270 1163
l197 348h196l197 -348h-123l-172 230l-174 -230h-121z" />
    <glyph glyph-name="edieresis" unicode="&#xeb;" horiz-adv-x="1128" 
d="M1024 608q0 -79 -4 -125h-729v-61q0 -146 75 -226t200 -79q126 -1 192 57t68 156h179q-1 -160 -115 -258t-300 -97q-240 0 -364 132t-124 395t122 407t342 144q218 1 338 -119t120 -326zM301 616h530v23q-1 129 -71 207t-188 78t-194 -85q-77 -85 -77 -223zM309 1223v209
h182v-209h-182zM639 1223v209h182v-209h-182z" />
    <glyph glyph-name="igrave" unicode="&#xec;" horiz-adv-x="512" 
d="M162 0v1028h190v-1028h-190zM399 1163h-120l-285 348h201z" />
    <glyph glyph-name="iacute" unicode="&#xed;" horiz-adv-x="512" 
d="M162 0v1028h190v-1028h-190zM113 1163l204 348h201l-285 -348h-120z" />
    <glyph glyph-name="icircumflex" unicode="&#xee;" horiz-adv-x="512" 
d="M162 0v1028h190v-1028h-190zM-39 1163l197 348h196l197 -348h-123l-172 230l-174 -230h-121z" />
    <glyph glyph-name="idieresis" unicode="&#xef;" horiz-adv-x="512" 
d="M162 0v1028h190v-1028h-190zM0 1223v209h182v-209h-182zM330 1223v209h182v-209h-182z" />
    <glyph glyph-name="eth" unicode="&#xf0;" horiz-adv-x="1233" 
d="M1130 506q0 -254 -134 -392.5t-378 -138.5t-378 123.5t-134 345.5t135 361t353 139q137 0 270 -76q-87 151 -235 287l-305 -127l-52 96l258 109q-120 79 -213 129l93 113q141 -65 299 -175l288 121l52 -96l-242 -102q157 -142 240 -326.5t83 -390.5zM620 813
q-148 0 -233.5 -96.5t-85.5 -258.5t80.5 -251.5t230.5 -89.5t235 91.5t85 257.5t-82 256.5t-230 90.5z" />
    <glyph glyph-name="ntilde" unicode="&#xf1;" horiz-adv-x="1204" 
d="M166 817q0 113 -8 211h192l6 -168q36 84 122 132t194 48t192 -37q142 -62 172 -189q12 -51 11 -175v-639h-189v649q0 130 -56 191t-174 61q-120 0 -196 -65t-76 -168v-668h-190v817zM713 1368q66 0 94 74h88q-21 -102 -71 -156t-126 -53q-29 0 -65 10l-97 27q-26 8 -49 8
q-62 0 -90 -68h-88q18 99 68 152t125 53q35 0 59 -8l99 -29q38 -10 53 -10z" />
    <glyph glyph-name="ograve" unicode="&#xf2;" horiz-adv-x="1233" 
d="M106 502q0 250 138 400t376 149q238 1 371 -139t133 -394t-138 -399q-138 -144 -376 -144q-240 0 -372 139q-132 138 -132 388zM620 915q-148 -1 -234 -111t-85 -297q0 -187 82 -287t231 -101q150 1 234 107t84 294t-82 292t-230 103zM759 1163h-120l-285 348h201z" />
    <glyph glyph-name="oacute" unicode="&#xf3;" horiz-adv-x="1233" 
d="M106 502q0 250 138 400t376 149q238 1 371 -139t133 -394t-138 -399q-138 -144 -376 -144q-240 0 -372 139q-132 138 -132 388zM620 915q-148 -1 -234 -111t-85 -297q0 -187 82 -287t231 -101q150 1 234 107t84 294t-82 292t-230 103zM473 1163l204 348h201l-285 -348
h-120z" />
    <glyph glyph-name="ocircumflex" unicode="&#xf4;" horiz-adv-x="1233" 
d="M106 502q0 250 138 400t376 149q238 1 371 -139t133 -394t-138 -399q-138 -144 -376 -144q-240 0 -372 139q-132 138 -132 388zM620 915q-148 -1 -234 -111t-85 -297q0 -187 82 -287t231 -101q150 1 234 107t84 294t-82 292t-230 103zM321 1163l197 348h196l197 -348
h-123l-172 230l-174 -230h-121z" />
    <glyph glyph-name="otilde" unicode="&#xf5;" horiz-adv-x="1233" 
d="M106 502q0 250 138 400t376 149q238 1 371 -139t133 -394t-138 -399q-138 -144 -376 -144q-240 0 -372 139q-132 138 -132 388zM620 915q-148 -1 -234 -111t-85 -297q0 -187 82 -287t231 -101q150 1 234 107t84 294t-82 292t-230 103zM712 1233q-29 0 -65 10l-97 27
q-26 8 -49 8q-62 0 -90 -68h-88q18 99 68 152t125 53q35 0 59 -8l99 -29q38 -10 53 -10q66 0 94 74h88q-21 -102 -71 -156t-126 -53z" />
    <glyph glyph-name="odieresis" unicode="&#xf6;" horiz-adv-x="1233" 
d="M106 502q0 250 138 400t376 149q238 1 371 -139t133 -394t-138 -399q-138 -144 -376 -144q-240 0 -372 139q-132 138 -132 388zM620 915q-148 -1 -234 -111t-85 -297q0 -187 82 -287t231 -101q150 1 234 107t84 294t-82 292t-230 103zM360 1223v209h182v-209h-182z
M690 1223v209h182v-209h-182z" />
    <glyph glyph-name="divide" unicode="&#xf7;" horiz-adv-x="1706" 
d="M854 1106q51 0 88 -37t37 -89t-36.5 -89t-88.5 -37t-88.5 36.5t-36.5 88.5t37 89.5t88 37.5zM1452 680v-139h-1198v139h1198zM854 367q51 0 88 -36.5t37 -88.5t-36.5 -88.5t-88.5 -36.5t-88.5 36t-36.5 88t37 89t88 37z" />
    <glyph glyph-name="oslash" unicode="&#xf8;" horiz-adv-x="1233" 
d="M618 915q-145 0 -231 -110t-86 -299t84 -297l397 663q-77 43 -164 43zM602 119q328 0 328 420q0 148 -70 256l-386 -650q58 -26 128 -26zM106 483q0 266 137 418t367 152q144 0 248 -54l113 195l94 -47l-115 -199q174 -127 174 -428q0 -256 -137.5 -400.5t-382.5 -144.5
q-97 0 -213 31l-129 -217l-98 55l127 207q-185 166 -185 432z" />
    <glyph glyph-name="ugrave" unicode="&#xf9;" horiz-adv-x="1204" 
d="M1038 203q0 -126 9 -203h-193l-6 162q-34 -82 -122 -132t-195 -50t-191 38q-144 64 -171 190q-11 51 -11 175v645h188v-657q0 -130 56 -191t174 -61t196 66q76 66 76 169v674h190v-825zM741 1163h-120l-285 348h201z" />
    <glyph glyph-name="uacute" unicode="&#xfa;" horiz-adv-x="1204" 
d="M1038 203q0 -126 9 -203h-193l-6 162q-34 -82 -122 -132t-195 -50t-191 38q-144 64 -171 190q-11 51 -11 175v645h188v-657q0 -130 56 -191t174 -61t196 66q76 66 76 169v674h190v-825zM455 1163l204 348h201l-285 -348h-120z" />
    <glyph glyph-name="ucircumflex" unicode="&#xfb;" horiz-adv-x="1204" 
d="M1038 203q0 -126 9 -203h-193l-6 162q-34 -82 -122 -132t-195 -50t-191 38q-144 64 -171 190q-11 51 -11 175v645h188v-657q0 -130 56 -191t174 -61t196 66q76 66 76 169v674h190v-825zM303 1163l197 348h196l197 -348h-123l-172 230l-174 -230h-121z" />
    <glyph glyph-name="udieresis" unicode="&#xfc;" horiz-adv-x="1204" 
d="M1038 203q0 -126 9 -203h-193l-6 162q-34 -82 -122 -132t-195 -50t-191 38q-144 64 -171 190q-11 51 -11 175v645h188v-657q0 -130 56 -191t174 -61t196 66q76 66 76 169v674h190v-825zM342 1223v209h182v-209h-182zM672 1223v209h182v-209h-182z" />
    <glyph glyph-name="yacute" unicode="&#xfd;" horiz-adv-x="1112" 
d="M453 0l-420 1028h192l328 -815l332 815h188l-602 -1417h-176zM414 1163l204 348h201l-285 -348h-120z" />
    <glyph glyph-name="thorn" unicode="&#xfe;" horiz-adv-x="1233" 
d="M684 -16q-215 0 -338 174v-547h-188v1864h188v-601q115 179 330 179t334.5 -141.5t119.5 -397.5t-115.5 -393t-330.5 -137zM346 526q0 -188 80 -302.5t214 -114.5t215 107.5t81 295.5t-79.5 302t-213.5 114t-215.5 -107t-81.5 -295z" />
    <glyph glyph-name="ydieresis" unicode="&#xff;" horiz-adv-x="1112" 
d="M453 0l-420 1028h192l328 -815l332 815h188l-602 -1417h-176zM301 1223v209h182v-209h-182zM631 1223v209h182v-209h-182z" />
    <glyph glyph-name="Cacute" unicode="&#x106;" horiz-adv-x="1356" 
d="M729 -25q-299 -1 -457 193t-157 561q0 367 165 567t468 201q237 0 374 -109t142 -300h-209q-9 113 -99 183t-227 70q-191 1 -297 -159t-106 -444t105 -439q105 -154 298 -154q141 0 225 67t95 185h219q-4 -194 -149 -308t-390 -114zM590 1609l204 348h201l-285 -348h-120
z" />
    <glyph glyph-name="cacute" unicode="&#x107;" horiz-adv-x="1057" 
d="M956 346q-25 -371 -419 -371q-201 1 -320 135t-119 390t124 405q124 148 347 148q173 1 276 -93t103 -251v-4h-184q0 91 -60 153t-149 62q-121 0 -191 -102t-69 -281q0 -418 256 -418q99 -1 159 61t62 166h184zM410 1163l204 348h201l-285 -348h-120z" />
    <glyph glyph-name="Ccaron" unicode="&#x10c;" horiz-adv-x="1356" 
d="M729 -25q-299 -1 -457 193t-157 561q0 367 165 567t468 201q237 0 374 -109t142 -300h-209q-9 113 -99 183t-227 70q-191 1 -297 -159t-106 -444t105 -439q105 -154 298 -154q141 0 225 67t95 185h219q-4 -194 -149 -308t-390 -114zM438 1957h121l174 -227l172 227h123
l-197 -348h-196z" />
    <glyph glyph-name="ccaron" unicode="&#x10d;" horiz-adv-x="1057" 
d="M956 346q-25 -371 -419 -371q-201 1 -320 135t-119 390t124 405q124 148 347 148q173 1 276 -93t103 -251v-4h-184q0 91 -60 153t-149 62q-121 0 -191 -102t-69 -281q0 -418 256 -418q99 -1 159 61t62 166h184zM258 1511h121l174 -227l172 227h123l-197 -348h-196z" />
    <glyph glyph-name="dcroat" unicode="&#x111;" horiz-adv-x="1241" 
d="M1075 205q0 -103 12 -205h-192l-8 152q-72 -94 -149.5 -135.5t-180.5 -41.5q-212 0 -334.5 142t-122.5 392t119.5 392.5t332.5 142.5t335 -172v297h-330v111h330v195h188v-195h211v-111h-211v-964zM297 518q0 -188 80.5 -303t214.5 -115t214.5 107t80.5 295t-80 303
t-214 115t-215 -107t-81 -295z" />
    <glyph glyph-name="Gbreve" unicode="&#x11e;" horiz-adv-x="1524" 
d="M113 727q0 356 193 563t530 207q236 0 374 -104t144 -285h-215q-5 102 -97 170t-233 68q-229 0 -358 -164t-129 -449q0 -286 136 -441t386 -155q116 0 301 53v439h-307v166h516v-727q-287 -95 -518 -95q-339 0 -531 199t-192 555zM762 1783q90 -1 133 33q44 34 49 106
l109 1q-11 -147 -81 -213t-210 -66t-210 67t-81 212h109q6 -74 49 -107t133 -33z" />
    <glyph glyph-name="gbreve" unicode="&#x11f;" horiz-adv-x="1214" 
d="M856 2v193q-30 -61 -119 -105t-186 -43q-217 0 -333 129t-116 366t119 373t320 136q237 0 329 -150l7 127h178q-8 -88 -8 -182v-813q-1 -229 -115 -335t-346 -106t-332 82q-99 82 -100 262h204q4 -210 230 -210q136 0 202 68t66 208zM879 551q1 175 -79 273t-212 98
t-209 -106q-78 -106 -78 -280t79 -272q78 -98 210 -98t210 106t79 279zM608 1337q90 -1 133 33q44 34 49 106l109 1q-11 -147 -81 -213t-210 -66t-210 67t-81 212h109q6 -74 49 -107t133 -33z" />
    <glyph glyph-name="Idotaccent" unicode="&#x130;" horiz-adv-x="539" 
d="M367 0h-197v1475h197v-1475zM174 1663v221h192v-221h-192z" />
    <glyph glyph-name="dotlessi" unicode="&#x131;" horiz-adv-x="512" 
d="M162 0v1028h190v-1028h-190z" />
    <glyph glyph-name="Lslash" unicode="&#x141;" horiz-adv-x="1104" 
d="M184 0v616l-184 -129v175l184 131v682h195v-588l350 246v-177l-350 -245v-535h672v-176h-867z" />
    <glyph glyph-name="lslash" unicode="&#x142;" horiz-adv-x="524" 
d="M365 0h-189v643l-176 -123v129l176 123v703h189v-627l176 123v-129l-176 -123v-719z" />
    <glyph glyph-name="OE" unicode="&#x152;" horiz-adv-x="2038" 
d="M815 -12q-700 0 -700 750t716 751l312 -12h792v-174h-692v-453h653v-176h-653v-500h692v-174h-768zM838 1315q-521 0 -521 -574q0 -284 131.5 -431.5t382.5 -147.5q73 0 207 12v1126q-128 15 -200 15z" />
    <glyph glyph-name="oe" unicode="&#x153;" horiz-adv-x="1919" 
d="M1821 608q0 -79 -4 -125h-730v-84q0 -130 78 -207t200 -77t188.5 57.5t68.5 156.5h180q-1 -159 -115 -256.5t-301 -97.5q-137 0 -232 41.5t-163 130.5q-82 -89 -179.5 -130.5t-227.5 -41.5q-227 0 -354.5 137.5t-127.5 391.5t132 401.5t368 147.5q129 0 225 -43t174 -136
q140 179 359 179t340 -119.5t121 -325.5zM606 924q-142 0 -226.5 -115t-84.5 -303t80.5 -289.5t225.5 -101.5t227.5 107.5t82.5 297.5t-81.5 297t-223.5 107zM1094 618h532v23q0 128 -70.5 205.5t-188.5 77.5t-195.5 -84.5t-77.5 -221.5z" />
    <glyph glyph-name="Scedilla" unicode="&#x15e;" horiz-adv-x="1343" 
d="M115 412v20h210q5 -144 87 -213t252 -69q168 0 264 68t96 188q0 169 -344 255l-60 15q-19 5 -58 15q-195 48 -271 93q-75 46 -117 124t-43 173q0 192 149 304t393 112q243 1 375 -97t132 -267v-23h-199q-5 108 -85 166t-229 59q-147 1 -237 -65t-90 -176q0 -145 331 -228
q47 -12 72 -18q296 -76 391 -168t95 -256q1 -211 -147 -330t-410 -119v-77h29q223 0 223 -181q0 -91 -64 -139t-175 -49q-110 0 -269 45v100q165 -39 246 -39q121 0 121 84t-127 84l-60 -1v175q-226 13 -344 105q-136 107 -137 330z" />
    <glyph glyph-name="scedilla" unicode="&#x15f;" horiz-adv-x="1006" 
d="M84 285v24h190v-4q0 -84 60 -135t156 -51q98 0 158 45q60 46 59 108q0 62 -30 95t-94 49l-218 51q-273 63 -273 268q0 141 114 229t295 87q180 -1 280 -73t100 -198q0 -20 -2 -30h-189v8q0 74 -52 117t-143 43q-90 0 -148 -43t-58 -100t35 -87t116 -53l234 -64
q237 -63 237 -276q0 -146 -110 -233t-297 -87v-77h29q223 0 223 -181q0 -91 -64 -139t-175 -49q-110 0 -269 45v100q165 -39 246 -39q121 0 121 84t-127 84l-60 -1v175q-162 11 -244 73q-100 75 -100 235z" />
    <glyph glyph-name="Scaron" unicode="&#x160;" horiz-adv-x="1343" 
d="M664 150q168 0 264 68t96 188q0 169 -344 255l-60 15q-19 5 -58 15q-195 48 -271 93q-75 46 -117 124t-43 173q0 192 149 304t393 112q243 1 375 -97t132 -267v-23h-199q-5 108 -85 166t-229 59q-147 1 -237 -65t-90 -176q0 -145 331 -228q47 -12 72 -18
q296 -76 391 -168t95 -256q1 -211 -147 -330t-421 -119t-409 107t-137 330v20h210q5 -144 87 -213q84 -69 252 -69zM377 1957h121l174 -227l172 227h123l-197 -348h-196z" />
    <glyph glyph-name="scaron" unicode="&#x161;" horiz-adv-x="1006" 
d="M881 780q0 -20 -2 -30h-189v8q0 74 -52 117t-143 43q-90 0 -148 -43t-58 -100t35 -87t116 -53l234 -64q237 -63 237 -276q0 -146 -111 -233t-313 -87q-203 0 -303 75t-100 235v24h190v-4q0 -84 60 -135t156 -51q98 0 158 45q60 46 59 108q0 62 -30 95t-94 49l-218 51
q-273 63 -273 268q0 141 114 229t295 87q180 -1 280 -73t100 -198zM209 1511h121l174 -227l172 227h123l-197 -348h-196z" />
    <glyph glyph-name="Ydieresis" unicode="&#x178;" horiz-adv-x="1346" 
d="M776 0h-196v582l-562 893h244l426 -719l414 719h225l-551 -893v-582zM418 1669v209h182v-209h-182zM748 1669v209h182v-209h-182z" />
    <glyph glyph-name="Zcaron" unicode="&#x17d;" horiz-adv-x="1233" 
d="M1159 0h-1085v209l846 1089h-811v177h1024v-211l-838 -1082h864v-182zM321 1957h121l174 -227l172 227h123l-197 -348h-196z" />
    <glyph glyph-name="zcaron" unicode="&#x17e;" horiz-adv-x="899" 
d="M66 0v190l548 697h-514v141h723v-166l-563 -717h561v-145h-755zM156 1511h121l174 -227l172 227h123l-197 -348h-196z" />
    <glyph glyph-name="florin" unicode="&#x192;" horiz-adv-x="1133" 
d="M858 1307q-71 0 -109.5 -39t-58.5 -142l-41 -215h211l-26 -135h-211l-140 -725q-44 -222 -119 -303.5t-223 -81.5q-17 0 -41 2t-26 2l28 146h7q150 0 195 229q2 11 3 16l144 715h-189l27 135h186l39 219q30 166 107.5 243t214.5 77q38 0 124 -10l-22 -146q-52 13 -80 13z
" />
    <glyph glyph-name="circumflex" unicode="&#x2c6;" 
d="M217 1163l197 348h196l197 -348h-123l-172 230l-174 -230h-121z" />
    <glyph glyph-name="caron" unicode="&#x2c7;" 
d="M217 1511h121l174 -227l172 227h123l-197 -348h-196z" />
    <glyph glyph-name="breve" unicode="&#x2d8;" 
d="M512 1337q90 0 133.5 33.5t48.5 105.5l109 1q-11 -146 -81 -212.5t-210 -66.5t-210 67t-81 212h109q6 -74 49 -107t133 -33z" />
    <glyph glyph-name="dotaccent" unicode="&#x2d9;" 
d="M416 1217v221h192v-221h-192z" />
    <glyph glyph-name="ring" unicode="&#x2da;" 
d="M283 1350q0 95 67 162t162 67t162 -67t67 -162t-66.5 -161.5t-162.5 -66.5t-162.5 66.5t-66.5 161.5zM397 1350q0 -48 33.5 -81.5t81.5 -33.5t82.5 34t34.5 80t-36 81.5t-82 35.5t-80 -34t-34 -82z" />
    <glyph glyph-name="ogonek" unicode="&#x2db;" 
d="M469 -221q0 -43 21 -60.5t75 -17.5h84v-143h-86q-225 0 -225 168q0 64 41.5 126t144.5 148h82q-137 -122 -137 -221z" />
    <glyph glyph-name="tilde" unicode="&#x2dc;" 
d="M623 1368q66 0 94 74h88q-20 -102 -70.5 -155.5t-126.5 -53.5q-29 0 -65 10l-97 27q-26 8 -49 8q-62 0 -90 -68h-88q18 99 68 152t125 53q35 0 59 -8l99 -29q38 -10 53 -10z" />
    <glyph glyph-name="hungarumlaut" unicode="&#x2dd;" 
d="M311 1163l138 348h178l-219 -348h-97zM569 1163l166 348h176l-245 -348h-97z" />
    <glyph glyph-name="Omega" unicode="&#x3a9;" horiz-adv-x="1565" 
d="M1487 178v-178h-600v178q177 97 276 263t99 387t-132 366t-348 145t-348.5 -145.5t-132.5 -365.5t99.5 -386.5t277.5 -263.5v-178h-600v178h319q-158 139 -230.5 288t-72.5 333q0 318 191.5 515t495.5 197t496.5 -196.5t192.5 -505.5q0 -194 -71 -342t-232 -289h320z" />
    <glyph glyph-name="pi" unicode="&#x3c0;" horiz-adv-x="1206" 
d="M252 913q-106 0 -123 -133h-160q28 166 99.5 228.5t236.5 62.5h889l-35 -158h-182l-105 -487q-30 -148 -30 -197q0 -98 102 -98q26 0 100 10l-30 -141q-60 -16 -111 -16q-239 0 -239 202q0 91 55 351l80 376h-326l-194 -913h-181l195 913h-41z" />
    <glyph glyph-name="endash" unicode="&#x2013;" 
d="M0 451v127h1024v-127h-1024z" />
    <glyph glyph-name="emdash" unicode="&#x2014;" horiz-adv-x="2048" 
d="M0 451v127h2048v-127h-2048z" />
    <glyph glyph-name="quoteleft" unicode="&#x2018;" horiz-adv-x="522" 
d="M446 1475l-137 -504h-233l229 504h141z" />
    <glyph glyph-name="quoteright" unicode="&#x2019;" horiz-adv-x="522" 
d="M76 971l135 504h235l-229 -504h-141z" />
    <glyph glyph-name="quotesinglbase" unicode="&#x201a;" horiz-adv-x="522" 
d="M76 -252l135 504h235l-229 -504h-141z" />
    <glyph glyph-name="quotedblleft" unicode="&#x201c;" horiz-adv-x="897" 
d="M446 1475l-137 -504h-233l229 504h141zM821 1475l-137 -504h-233l229 504h141z" />
    <glyph glyph-name="quotedblright" unicode="&#x201d;" horiz-adv-x="897" 
d="M76 971l135 504h235l-229 -504h-141zM451 971l137 504h233l-229 -504h-141z" />
    <glyph glyph-name="quotedblbase" unicode="&#x201e;" horiz-adv-x="897" 
d="M76 -248l135 502h235l-229 -502h-141zM451 -248l137 502h233l-229 -502h-141z" />
    <glyph glyph-name="dagger" unicode="&#x2020;" horiz-adv-x="1081" 
d="M627 0h-172v1004h-367v155h367v316h172v-316h364v-155h-364v-1004z" />
    <glyph glyph-name="daggerdbl" unicode="&#x2021;" horiz-adv-x="1081" 
d="M627 0h-172v340h-367v154h367v510h-367v155h367v316h172v-316h364v-155h-364v-510h364v-154h-364v-340z" />
    <glyph glyph-name="bullet" unicode="&#x2022;" horiz-adv-x="1208" 
d="M307 762q0 123 87.5 209t209.5 86t208.5 -86.5t86.5 -208.5t-87.5 -209.5t-209.5 -87.5t-208.5 87t-86.5 210z" />
    <glyph glyph-name="ellipsis" unicode="&#x2026;" horiz-adv-x="2048" 
d="M229 0v252h223v-252h-223zM911 0v252h223v-252h-223zM1595 0v252h223v-252h-223z" />
    <glyph glyph-name="perthousand" unicode="&#x2030;" horiz-adv-x="2726" 
d="M135 1075q0 180 84 277.5t239 97.5t238.5 -93.5t83.5 -273.5t-85 -281.5t-241 -101.5t-237.5 97.5t-81.5 277.5zM614 1084q0 245 -156 245q-76 0 -116.5 -64.5t-40.5 -186.5t39.5 -186.5t115.5 -64.5t117 68t41 189zM1307 1450h131l-840 -1475h-131zM1141 350
q0 181 83.5 278t237.5 97t238 -93.5t84 -273.5t-86 -281.5t-241 -101.5t-235.5 97t-80.5 278zM1305 353q0 -251 155 -251q76 0 118 68.5t42 188.5t-41 182.5t-117 62.5t-116.5 -64.5t-40.5 -186.5zM1946 350q0 180 83.5 277.5t238.5 97.5t239 -93.5t84 -273.5t-86 -281.5
t-241 -101.5t-236.5 97.5t-81.5 277.5zM2111 353q0 -122 39.5 -186.5t115.5 -64.5t117.5 68t41.5 189t-40.5 183t-116.5 62t-116.5 -64.5t-40.5 -186.5z" />
    <glyph glyph-name="guilsinglleft" unicode="&#x2039;" horiz-adv-x="616" 
d="M502 113h-162l-225 409l213 393h164l-183 -393z" />
    <glyph glyph-name="guilsinglright" unicode="&#x203a;" horiz-adv-x="616" 
d="M115 113l192 409l-182 393h164l213 -393l-228 -409h-159z" />
    <glyph glyph-name="franc" unicode="&#x20a3;" horiz-adv-x="1884" 
d="M170 0v1475h858v-177h-661v-452h626v-176h-626v-670h-197zM1734 856q-128 0 -196 -72t-68 -206v-578h-188v866q0 88 -6 162h190l4 -197q56 197 289 197q46 0 78 -7v-177q-62 12 -103 12z" />
    <glyph glyph-name="trademark" unicode="&#x2122;" horiz-adv-x="1706" 
d="M694 1458v-80h-172v-458h-108v458h-172v80h452zM1405 1458v-538h-98v444l-166 -444h-56l-174 444v-444h-98v538h150l151 -385l141 385h150z" />
    <glyph glyph-name="partialdiff" unicode="&#x2202;" horiz-adv-x="1059" 
d="M707 494q0 116 -43.5 178.5t-122.5 62.5q-109 0 -179.5 -129t-70.5 -336q0 -116 43 -177.5t123 -61.5q109 0 179.5 130t70.5 333zM786 946q0 260 -145 260q-55 0 -127 -58t-108 -58t-60 22t-24 53q0 62 72 111t173 49q180 0 287 -155t107 -418q0 -335 -144.5 -556
t-357.5 -221q-152 0 -253.5 108.5t-101.5 288.5t110.5 308.5t272.5 128.5q101 0 166 -45.5t103 -142.5q30 174 30 325z" />
    <glyph glyph-name="Delta" unicode="&#x2206;" horiz-adv-x="1370" 
d="M797 1473l579 -1473h-1382l579 1473h224zM1102 178l-418 1084l-418 -1084h836z" />
    <glyph glyph-name="product" unicode="&#x220f;" horiz-adv-x="1550" 
d="M156 1473h1237v-1866h-240v1661h-758v-1661h-239v1866z" />
    <glyph glyph-name="summation" unicode="&#x2211;" horiz-adv-x="1380" 
d="M55 1473h1258v-193h-959l672 -717l-694 -764h1007v-192h-1314v149l725 801l-695 739v177z" />
    <glyph glyph-name="minus" unicode="&#x2212;" horiz-adv-x="1706" 
d="M1452 682v-141h-1198v141h1198z" />
    <glyph glyph-name="fraction" unicode="&#x2215;" horiz-adv-x="342" 
d="M-342 -25l899 1475h125l-899 -1475h-125z" />
    <glyph glyph-name="periodcentered" unicode="&#x2219;" horiz-adv-x="567" 
d="M143 714q0 59 40.5 99.5t98.5 40.5t100 -41t42 -99t-42 -99.5t-100 -41.5t-98.5 41t-40.5 100z" />
    <glyph glyph-name="radical" unicode="&#x221a;" horiz-adv-x="1305" 
d="M1305 1661v-96h-115l-594 -1606h-66l-319 883l-125 -45l-25 80l283 98l256 -709l516 1395h189z" />
    <glyph glyph-name="infinity" unicode="&#x221e;" horiz-adv-x="1706" 
d="M1487 610q0 -170 -83.5 -277.5t-217.5 -107.5q-95 0 -168.5 58.5t-153.5 199.5q-71 -136 -148.5 -199t-172.5 -63q-135 0 -228.5 112t-93.5 282t83.5 278t217.5 108q95 0 170 -61.5t150 -202.5q133 269 323 269q133 0 227.5 -113t94.5 -283zM526 842q-101 0 -165 -66.5
t-64 -169.5t59 -170t144 -67t150.5 66t142.5 231q-98 176 -267 176zM1411 619q0 103 -59 170t-144 67t-150.5 -66.5t-142.5 -230.5q100 -178 267 -178q101 0 165 67.5t64 170.5z" />
    <glyph glyph-name="integral" unicode="&#x222b;" horiz-adv-x="1067" 
d="M311 -262q106 0 120 688q2 108 3 165q12 515 107 737t297 222q80 0 130 -42t50 -102t-32 -91t-80 -31q-91 0 -117 73q-6 15 -10.5 51t-20.5 36q-107 0 -121 -619q-4 -193 -8 -303q-17 -479 -111.5 -686t-290.5 -207q-79 0 -129.5 41.5t-50.5 101.5t34 92t81 32
q79 0 110 -57q10 -18 15 -59.5t24 -41.5z" />
    <glyph glyph-name="approxequal" unicode="&#x2248;" horiz-adv-x="1706" 
d="M1186 657q-140 0 -330 68t-283 68t-181.5 -36t-213.5 -122v156q211 143 387 143q116 0 305.5 -67.5t274.5 -67.5t173 34.5t212 120.5v-155q-204 -142 -344 -142zM574 424q-92 0 -182 -36t-214 -122v156q215 145 387 145q115 0 305 -68.5t276 -68.5t174.5 35.5
t209.5 120.5v-156q-203 -141 -343.5 -141t-330.5 67.5t-282 67.5z" />
    <glyph glyph-name="notequal" unicode="&#x2260;" horiz-adv-x="1706" 
d="M1452 877v-136h-416l-205 -262h621v-135h-709l-249 -317l-105 84l184 233h-319v135h408l204 262h-612v136h702l252 317l105 -82l-187 -235h326z" />
    <glyph glyph-name="lessequal" unicode="&#x2264;" horiz-adv-x="1706" 
d="M1444 1059l-936 -309l936 -306v-149l-1182 395v121l1182 395v-147zM1446 162v-139h-1184v139h1184z" />
    <glyph glyph-name="greaterequal" unicode="&#x2265;" horiz-adv-x="1706" 
d="M1446 811v-121l-1184 -395v149l938 306l-938 309v147zM1446 162v-139h-1184v139h1184z" />
    <glyph glyph-name="lozenge" unicode="&#x25ca;" horiz-adv-x="1012" 
d="M506 1653l500 -1061l-500 -1069l-500 1069zM506 1409l-385 -817l385 -825l385 825z" />
    <glyph glyph-name="apple" unicode="&#xf000;" horiz-adv-x="1618" 
d="M1272 741q0 -113 60 -200t173 -138q-114 -247 -205 -342.5t-204 -95.5q-50 0 -131.5 33t-124.5 33t-129.5 -33t-138.5 -33t-116 44t-148 158t-139.5 269.5t-55.5 300.5q0 219 125 356.5t323 137.5q68 0 154.5 -34t122.5 -34t123 35t175 35q194 0 337 -164
q-201 -128 -201 -328zM834 1253q0 124 95 229.5t236 131.5q2 -20 2 -62q0 -131 -103.5 -234.5t-203.5 -103.5h-8l-16 2q-2 12 -2 37z" />
    <glyph glyph-name="fi" unicode="&#xf001;" horiz-adv-x="1190" 
d="M844 0v1028h190v-1028h-190zM522 1352q-63 0 -99 -42.5t-36 -121.5v-160h238v-139h-238v-889h-190v889h-189v139h189v164q0 307 284 307q70 0 172 -18v-152q-68 23 -131 23zM1049 1266h-220v209h220v-209z" />
    <glyph glyph-name="fl" unicode="&#xf002;" horiz-adv-x="1190" 
d="M844 0v1475h190v-1475h-190zM522 1352q-63 0 -99 -42.5t-36 -121.5v-160h238v-139h-238v-889h-190v889h-189v139h189v164q0 307 284 307q70 0 172 -18v-152q-68 23 -131 23z" />
    </font>
</defs>
</svg>
