<?xml version="1.0" standalone="no"?>
<!DOCTYPE svg PUBLIC "-//W3C//DTD SVG 1.1//EN" "http://www.w3.org/Graphics/SVG/1.1/DTD/svg11.dtd" >
<svg xmlns="http://www.w3.org/2000/svg">
<metadata>
Created by FontPrep 20130207 at Tue Jan  6 15:52:33 2015
 By Victor
Copyright 1990-1993 Bitstream Inc.  All rights reserved.
</metadata>
<defs>
<font id="15b57a1f982e6d8dce9ac317b4c1e102" horiz-adv-x='1024' >
  <font-face 
    font-family="FuturaBT-Light"
    font-weight="400"
    font-stretch="normal"
    units-per-em="2048"
    panose-1="2 11 4 2 2 2 4 2 3 3"
    ascent="1638"
    descent="-410"
    x-height="887"
    cap-height="1464"
    bbox="-342 -483 2181 1972"
    underline-thickness="80"
    underline-position="-183"
    unicode-range="U+0020-F002"
  />
<missing-glyph horiz-adv-x="1229" 
d="M217 -248h795v1577h-795v-1577zM102 -362v1806h1024v-1806h-1024z" />
    <glyph glyph-name=".notdef" horiz-adv-x="1229" 
d="M217 -248h795v1577h-795v-1577zM102 -362v1806h1024v-1806h-1024z" />
    <glyph glyph-name=".null" horiz-adv-x="0" 
 />
    <glyph glyph-name="nonmarkingreturn" horiz-adv-x="590" 
 />
    <glyph glyph-name="space" unicode=" " horiz-adv-x="590" 
 />
    <glyph glyph-name="exclam" unicode="!" horiz-adv-x="635" 
d="M215 63q0 43 29.5 73t72.5 30t73 -30t30 -73t-30 -72.5t-73 -29.5t-72.5 29.5t-29.5 72.5zM256 303v1194h123v-1194h-123z" />
    <glyph glyph-name="quotedbl" unicode="&#x22;" horiz-adv-x="551" 
d="M186 1434v-553h-86v553h86zM451 1434v-553h-86v553h86z" />
    <glyph glyph-name="numbersign" unicode="#" horiz-adv-x="1575" 
d="M915 1454l-174 -498h271l176 498h110l-174 -498h322l-31 -90h-323l-101 -282h348l-30 -90h-351l-174 -494h-112l176 494h-270l-179 -494h-110l174 494h-334l31 90h336l100 282h-360l28 90h365l176 498h110zM979 866h-270l-99 -282h269z" />
    <glyph glyph-name="dollar" unicode="$" horiz-adv-x="1180" 
d="M635 -168h-80v174q-276 0 -395 268l114 58q62 -199 281 -217v633q-178 85 -255 174.5t-77 215.5t87.5 214.5t244.5 111.5v101h80v-99q206 -24 293 -178l-105 -57q-57 112 -188 120v-505q204 -97 282 -191.5t78 -247.5t-96.5 -265.5t-263.5 -139.5v-170zM868 398
q0 111 -55.5 183t-177.5 130v-594q109 14 171 92t62 189zM356 1135q0 -82 47 -141.5t152 -110.5v469q-88 -14 -143.5 -74.5t-55.5 -142.5z" />
    <glyph glyph-name="percent" unicode="%" horiz-adv-x="1497" 
d="M270 -39l842 1518h109l-842 -1518h-109zM651 1104q0 -177 -78.5 -276t-216.5 -99t-215.5 98.5t-77.5 276.5t77.5 276.5t215.5 98.5t216.5 -99t78.5 -276zM532 1106q0 280 -176 280q-84 0 -129 -72t-45 -209t45 -209.5t129 -72.5t130 73.5t46 209.5zM1436 334
q0 -177 -78 -275t-217 -98t-216 98t-77 275t77 276t216 99t217 -99t78 -276zM1317 336q0 280 -176 280q-85 0 -129.5 -72t-44.5 -209t44.5 -209.5t128.5 -72.5t130.5 73.5t46.5 209.5z" />
    <glyph glyph-name="ampersand" unicode="&#x26;" horiz-adv-x="1311" 
d="M86 381q0 128 85.5 240.5t277.5 232.5l-56 74q-69 91 -91.5 148t-22.5 120q0 113 89.5 187.5t223.5 74.5t214.5 -76t80.5 -186t-63.5 -193.5t-207.5 -173.5l361 -446q97 118 174 242l86 -50q-101 -165 -199 -280l252 -295h-145l-182 215q-207 -242 -447 -242
q-189 0 -309.5 115t-120.5 293zM770 1192q0 68 -52 116t-132 48t-132.5 -47t-52.5 -123t68 -168l82 -111l65 45q154 107 154 240zM213 387q0 -129 90 -218t219 -89q172 0 373 221l-383 467l-66 -47q-147 -107 -190 -175.5t-43 -158.5z" />
    <glyph glyph-name="quotesingle" unicode="'" horiz-adv-x="285" 
d="M186 1434v-553h-86v553h86z" />
    <glyph glyph-name="parenleft" unicode="(" horiz-adv-x="559" 
d="M299 529q0 -522 213 -922l-90 -53q-238 444 -238 995t238 983l90 -49q-213 -432 -213 -954z" />
    <glyph glyph-name="parenright" unicode=")" horiz-adv-x="559" 
d="M137 1532q238 -428 238 -981t-238 -997l-90 53q215 404 215 922t-215 954z" />
    <glyph glyph-name="asterisk" unicode="*" horiz-adv-x="854" 
d="M162 928l-43 78l233 122l-233 129l43 78l227 -145l-6 274h88l-8 -274l229 143l43 -76l-233 -129l233 -122l-47 -78l-227 139l8 -266h-86l8 264z" />
    <glyph glyph-name="plus" unicode="+" horiz-adv-x="1706" 
d="M893 1221v-570h559v-82h-559v-569h-80v569h-559v82h559v570h80z" />
    <glyph glyph-name="comma" unicode="," horiz-adv-x="590" 
d="M324 254l145 -61l-264 -515l-84 39z" />
    <glyph glyph-name="hyphen" unicode="-" horiz-adv-x="711" 
d="M137 506h436v-129h-436v129z" />
    <glyph glyph-name="period" unicode="." horiz-adv-x="590" 
d="M193 84q0 43 29.5 72.5t72.5 29.5t72.5 -29.5t29.5 -72.5t-29.5 -72.5t-72.5 -29.5t-72.5 29.5t-29.5 72.5z" />
    <glyph glyph-name="slash" unicode="/" horiz-adv-x="825" 
d="M717 1497h108l-716 -1687h-109z" />
    <glyph glyph-name="zero" unicode="0" horiz-adv-x="1180" 
d="M592 -39q-228 0 -359 202.5t-131 556.5t131 556.5t359 202.5t357.5 -201.5t129.5 -559.5t-129.5 -557.5t-357.5 -199.5zM236 718q0 -300 95 -469t265 -169t260 163t90 476t-91.5 477t-261.5 164t-263.5 -171t-93.5 -471z" />
    <glyph glyph-name="one" unicode="1" horiz-adv-x="1180" 
d="M545 0v1331h-264l63 119h330v-1450h-129z" />
    <glyph glyph-name="two" unicode="2" horiz-adv-x="1180" 
d="M1012 115v-115h-940l315 346q33 37 96 105q391 425 391 612q0 132 -89 214.5t-235 82.5t-231.5 -92.5t-85.5 -253.5h-131v14q0 209 124.5 330t334.5 121t333.5 -111.5t123.5 -296.5q0 -234 -345 -602l-331 -354h670z" />
    <glyph glyph-name="three" unicode="3" horiz-adv-x="1180" 
d="M567 823q140 0 218.5 70t78.5 194t-78 199.5t-202 75.5t-196.5 -62t-86.5 -174h-143q17 164 129.5 258.5t296.5 94.5t300.5 -105t116.5 -274q0 -125 -66.5 -214t-186.5 -126q133 -45 205.5 -141t72.5 -230q0 -195 -126 -311.5t-337 -116.5t-330 105.5t-135 302.5l144 -1
q9 -141 90.5 -214.5t231.5 -73.5t236.5 82t86.5 228t-87.5 229t-242.5 83l-55 -1v126q54 -4 65 -4z" />
    <glyph glyph-name="four" unicode="4" horiz-adv-x="1180" 
d="M721 0v371h-660l793 1128v-1014h150v-114h-150v-371h-133zM721 485v660l-461 -660h461z" />
    <glyph glyph-name="five" unicode="5" horiz-adv-x="1180" 
d="M567 932q208 0 335.5 -127t127.5 -345t-137 -359.5t-358 -141.5q-307 0 -453 281l104 77q64 -122 150 -179.5t205 -57.5q161 0 256.5 104t95.5 273t-97.5 264.5t-275.5 95.5t-293 -106l-41 4l187 735h592v-113h-500l-115 -454q114 49 217 49z" />
    <glyph glyph-name="six" unicode="6" horiz-adv-x="1180" 
d="M625 879q188 0 307 -125.5t119 -329.5t-134.5 -334.5t-342.5 -130.5t-329.5 122t-121.5 327q0 120 52.5 244.5t234.5 377.5l342 477l108 -67l-469 -635q116 74 234 74zM260 416q0 -155 89.5 -247.5t237.5 -92.5t237 98t89 252t-90.5 247t-234.5 93t-236 -97.5t-92 -252.5
z" />
    <glyph glyph-name="seven" unicode="7" horiz-adv-x="1180" 
d="M184 1337v113h899l-737 -1495l-123 63l668 1319h-707z" />
    <glyph glyph-name="eight" unicode="8" horiz-adv-x="1180" 
d="M1001 1104q0 -230 -231 -316q133 -35 209 -139.5t76 -251.5q0 -203 -123.5 -319.5t-339.5 -116.5t-341.5 116t-125.5 316q0 150 76 255t211 140q-110 36 -171 123t-61 209q0 157 115 258t299 101t295.5 -102.5t111.5 -272.5zM594 842q126 0 199 69t73 189t-74.5 191
t-199.5 71t-199 -71t-74 -191t74.5 -189t200.5 -69zM590 80q152 0 240 85.5t88 234.5t-88 236t-240 87t-239 -86.5t-87 -236.5t87 -235t239 -85z" />
    <glyph glyph-name="nine" unicode="9" horiz-adv-x="1180" 
d="M551 561q-189 0 -308.5 124.5t-119.5 328.5t134.5 334.5t342.5 130.5t330.5 -122.5t122.5 -326.5q0 -125 -59.5 -259t-229.5 -363l-350 -476l-109 66l477 635q-109 -72 -231 -72zM915 1022q0 154 -89.5 248t-237.5 94t-237 -98t-89 -252t90 -248t234 -94t236.5 98
t92.5 252z" />
    <glyph glyph-name="colon" unicode=":" horiz-adv-x="635" 
d="M215 760q0 43 29.5 72.5t72.5 29.5t73 -29.5t30 -72.5t-30 -73t-73 -30t-72.5 30t-29.5 73zM215 84q0 43 29.5 72.5t72.5 29.5t73 -29.5t30 -72.5t-30 -72.5t-73 -29.5t-72.5 29.5t-29.5 72.5z" />
    <glyph glyph-name="semicolon" unicode=";" horiz-adv-x="635" 
d="M332 254l145 -61l-264 -515l-84 39zM301 760q0 43 29.5 72.5t72.5 29.5t73 -29.5t30 -72.5t-30 -73t-73 -30t-72.5 30t-29.5 73z" />
    <glyph glyph-name="less" unicode="&#x3c;" horiz-adv-x="1706" 
d="M1442 1034l-1045 -424l1045 -424v-88l-1178 482v61l1178 483v-90z" />
    <glyph glyph-name="equal" unicode="=" horiz-adv-x="1706" 
d="M1452 831v-79h-1198v79h1198zM1452 469v-82h-1198v82h1198z" />
    <glyph glyph-name="greater" unicode="&#x3e;" horiz-adv-x="1706" 
d="M1442 641v-61l-1178 -482v88l1045 424l-1045 424v90z" />
    <glyph glyph-name="question" unicode="?" horiz-adv-x="1053" 
d="M291 1096h-119v32q0 172 97 270.5t257 98.5t251 -90t91 -242q0 -111 -48 -186t-195 -170q-26 -16 -72 -45q-199 -123 -199 -232q0 -72 46 -115.5t128 -43.5t131.5 46.5t49.5 131.5v18h110v-24q0 -135 -79.5 -207t-217.5 -72t-216.5 75t-78.5 178t46 169.5t171 149.5
q26 16 73 46q226 143 226 273q0 97 -58.5 155t-164.5 58t-167.5 -70t-61.5 -198v-6zM401 63q0 43 30 73t73 30t72.5 -30t29.5 -73t-29.5 -72.5t-72.5 -29.5t-73 29.5t-30 72.5z" />
    <glyph glyph-name="at" unicode="@" horiz-adv-x="2048" 
d="M690 446q0 -115 58 -180t164 -65t191 72.5t116 193.5l63 254q-45 203 -233 203q-152 0 -255.5 -138t-103.5 -340zM1048 997q193 0 255 -170l61 129h80l-137 -553q-21 -76 -21 -114t30.5 -62t82.5 -24q102 0 205 75t164 208t61 282q0 273 -199.5 439.5t-531.5 166.5
t-563 -192q-310 -258 -310 -672q0 -327 221.5 -522t591.5 -195q161 0 324 50.5t299 142.5l29 -45q-292 -220 -658 -220t-610 185q-301 228 -301 616q0 327 198 572q293 356 795 356q334 0 565 -177q116 -89 182 -217.5t66 -287.5t-63 -298t-191 -241t-295 -102
q-192 0 -192 145q0 12 2 24t2 15q-49 -88 -125 -136t-166 -48q-154 0 -233.5 83t-79.5 243q0 228 134.5 386t327.5 158z" />
    <glyph glyph-name="A" unicode="A" horiz-adv-x="1223" 
d="M-18 0l643 1522l616 -1522h-145l-187 496h-598l-194 -496h-135zM356 610h510l-250 637z" />
    <glyph glyph-name="B" unicode="B" horiz-adv-x="1133" 
d="M182 0v1464h254q167 0 241.5 -16t136.5 -63t100 -127t38 -186t-61 -188t-168 -108q141 -21 221 -113t80 -214q0 -225 -125 -340q-64 -60 -154 -84.5t-307 -24.5h-256zM315 115h170q145 0 200 12.5t97 44.5t70.5 95.5t28.5 143.5t-31.5 146.5t-77.5 94.5t-97.5 37
t-160.5 9h-199v-583zM315 813h166q183 0 258.5 59.5t75.5 205.5t-73.5 208t-260.5 62h-166v-535z" />
    <glyph glyph-name="C" unicode="C" horiz-adv-x="1464" 
d="M878 1380q-267 0 -444.5 -180t-177.5 -469t178 -468t439 -179t477 170v-156q-224 -137 -467 -137q-159 0 -304 57.5t-251 161.5q-216 213 -215 551q0 164 56.5 306t160.5 244t250 159t303 57q281 0 477 -154l-2 -147q-213 184 -480 184z" />
    <glyph glyph-name="D" unicode="D" horiz-adv-x="1427" 
d="M182 0v1464h228q305 0 433 -30t235 -115t171 -238t64 -350t-63.5 -351t-171.5 -236t-230 -113t-393 -31h-273zM315 115h187q227 0 322 25.5t174 99.5t126 201.5t47 293.5q0 338 -188 504q-70 63 -171 89t-353 26h-144v-1239z" />
    <glyph glyph-name="E" unicode="E" horiz-adv-x="1051" 
d="M182 0v1464h725v-125h-592v-458h592v-125h-592v-631h592v-125h-725z" />
    <glyph glyph-name="F" unicode="F" horiz-adv-x="1026" 
d="M182 0v1464h725v-125h-592v-458h570v-125h-570v-756h-133z" />
    <glyph glyph-name="G" unicode="G" horiz-adv-x="1673" 
d="M427 1192q-171 -184 -171 -465t177 -462t430 -181t407.5 145t158.5 379h-505v115h651v-16q0 -350 -191 -548t-525 -198t-540 212t-206 556q0 328 207 548t532 220q452 0 627 -317l-97 -84q-181 280 -512 280q-272 0 -443 -184z" />
    <glyph glyph-name="H" unicode="H" horiz-adv-x="1427" 
d="M182 0v1464h133v-594h797v594h133v-1464h-133v756h-797v-756h-133z" />
    <glyph glyph-name="I" unicode="I" horiz-adv-x="498" 
d="M182 0v1464h133v-1464h-133z" />
    <glyph glyph-name="J" unicode="J" horiz-adv-x="764" 
d="M282 88q101 0 143 70.5t42 242.5v1063h133v-1149q0 -174 -79 -264t-232 -90q-188 0 -283 152l94 86q81 -111 182 -111z" />
    <glyph glyph-name="K" unicode="K" horiz-adv-x="1176" 
d="M182 0v1464h133v-686l662 686h174l-694 -700l727 -764h-193l-676 743v-743h-133z" />
    <glyph glyph-name="L" unicode="L" horiz-adv-x="846" 
d="M182 0v1464h133v-1339h502v-125h-635z" />
    <glyph glyph-name="M" unicode="M" horiz-adv-x="1712" 
d="M850 -57l-514 1175l-111 -1118h-137l199 1526l561 -1303l582 1303l188 -1526h-137l-109 1118z" />
    <glyph glyph-name="N" unicode="N" horiz-adv-x="1526" 
d="M182 0v1526l1037 -1225v1163h124v-1507l-1036 1227v-1184h-125z" />
    <glyph glyph-name="O" unicode="O" horiz-adv-x="1792" 
d="M1679 730q0 -319 -230 -544t-554 -225t-553 225q-229 227 -229 545t226 542t556 224t557 -224t227 -543zM1538 729q0 269 -187 459t-453 190t-456 -188q-188 -194 -188 -462t187 -458t453 -190t456 188q188 192 188 461z" />
    <glyph glyph-name="P" unicode="P" 
d="M315 774h91q242 0 325.5 62t83.5 204t-76 228q-39 44 -106 62t-227 18h-91v-574zM182 0v1464h267q158 0 232.5 -17t136.5 -61t100 -131.5t38 -193.5q0 -209 -117 -306.5t-370 -97.5h-154v-657h-133z" />
    <glyph glyph-name="Q" unicode="Q" horiz-adv-x="1792" 
d="M883 -31q-318 0 -544 223t-226 541t228 541t555 223t555 -223t228 -542t-235 -546l248 -288h-162l-178 206q-210 -135 -469 -135zM1362 283q176 190 176 453t-188 453.5t-453 190.5t-455 -190q-186 -190 -186 -460t186 -458q190 -188 457 -188q223 0 367 121l-340 395
h164z" />
    <glyph glyph-name="R" unicode="R" horiz-adv-x="1081" 
d="M451 1464q475 0 475 -399q0 -171 -101.5 -269t-279.5 -98l526 -698h-162l-514 698h-80v-698h-133v1464h269zM315 1348v-541h134q186 0 259.5 59.5t73.5 206.5t-76 211t-257 64h-134z" />
    <glyph glyph-name="S" unicode="S" horiz-adv-x="1020" 
d="M504 1380q-108 0 -172 -63.5t-64 -171.5q0 -154 252 -286t318.5 -228t66.5 -242q0 -197 -115 -312.5t-313 -115.5q-291 0 -407 285l114 61q32 -108 111 -167.5t203 -59.5t202 82t78 208t-52.5 196t-249.5 174t-270 193t-73 229t105.5 238.5t273.5 98.5q222 0 324 -186
l-103 -62q-66 129 -229 129z" />
    <glyph glyph-name="T" unicode="T" horiz-adv-x="1018" 
d="M442 0v1339h-403v125h940v-125h-404v-1339h-133z" />
    <glyph glyph-name="U" unicode="U" horiz-adv-x="1417" 
d="M176 1464h131v-956q0 -217 99.5 -322.5t301.5 -105.5t301 105.5t99 322.5v956h133v-913q0 -297 -132.5 -443.5t-400.5 -146.5t-400 146.5t-132 443.5v913z" />
    <glyph glyph-name="V" unicode="V" horiz-adv-x="1128" 
d="M555 -57l-573 1521h153l422 -1192l444 1192h146z" />
    <glyph glyph-name="W" unicode="W" horiz-adv-x="1839" 
d="M530 -57l-505 1521h139l366 -1169l390 1227l405 -1217l352 1159h138l-490 -1521l-405 1243z" />
    <glyph glyph-name="X" unicode="X" horiz-adv-x="991" 
d="M121 0h-146l447 770l-404 694h150l330 -581l333 581h144l-404 -690l445 -774h-148l-372 649z" />
    <glyph glyph-name="Y" unicode="Y" horiz-adv-x="1118" 
d="M496 0v674l-486 790h160l393 -671l395 671h152l-481 -790v-674h-133z" />
    <glyph glyph-name="Z" unicode="Z" horiz-adv-x="1147" 
d="M152 1343v121h970l-866 -1341h778v-123h-1009l870 1343h-743z" />
    <glyph glyph-name="bracketleft" unicode="[" horiz-adv-x="559" 
d="M221 1497h291v-98h-174v-1712h174v-99h-291v1909z" />
    <glyph glyph-name="backslash" unicode="\" horiz-adv-x="825" 
d="M717 -190l-717 1687h109l716 -1687h-108z" />
    <glyph glyph-name="bracketright" unicode="]" horiz-adv-x="559" 
d="M338 1497v-1909h-291v99h176v1712h-176v98h291z" />
    <glyph glyph-name="asciicircum" unicode="^" horiz-adv-x="2048" 
d="M1081 1458l541 -557h-125l-473 469l-475 -469h-125l539 557h118z" />
    <glyph glyph-name="underscore" unicode="_" 
d="M1024 -403v-80h-1024v80h1024z" />
    <glyph glyph-name="grave" unicode="`" 
d="M645 1030h-94l-283 350h164z" />
    <glyph glyph-name="a" unicode="a" horiz-adv-x="1108" 
d="M496 920q232 0 323 -195v162h123v-887h-123v162q-90 -201 -311 -201q-191 0 -307.5 131t-116.5 345t115 348.5t297 134.5zM221 435q0 -173 77.5 -266t219.5 -93t222.5 102t80.5 272t-80 263.5t-219 93.5t-220 -99.5t-81 -272.5z" />
    <glyph glyph-name="b" unicode="b" horiz-adv-x="1108" 
d="M596 -39q-220 0 -309 201v-162h-123v1550h123v-825q91 195 321 195q182 0 297 -134.5t115 -348.5t-116.5 -345t-307.5 -131zM883 434q0 174 -81 273.5t-220 99.5t-218 -93.5t-79 -263.5t80.5 -272t222.5 -102t218.5 92t76.5 266z" />
    <glyph glyph-name="c" unicode="c" horiz-adv-x="934" 
d="M217 434q0 -166 101.5 -267t254.5 -101t295 100v-135q-130 -74 -323 -74t-323 133.5t-130 345.5t135.5 348t352.5 136q162 0 276 -60l-2 -135q-124 86 -282 86q-159 0 -257 -105.5t-98 -271.5z" />
    <glyph glyph-name="d" unicode="d" horiz-adv-x="1108" 
d="M500 920q230 0 321 -195v825h125v-1550h-125v162q-89 -201 -309 -201q-191 0 -307.5 131t-116.5 345t115 348.5t297 134.5zM225 435q0 -173 77.5 -266t219.5 -93t221.5 102t79.5 272t-79 263.5t-218 93.5t-220 -99.5t-81 -272.5z" />
    <glyph glyph-name="e" unicode="e" horiz-adv-x="1018" 
d="M524 72q197 0 295 213l113 -62q-68 -135 -166.5 -198.5t-241.5 -63.5q-195 0 -315.5 130.5t-120.5 345.5t120 349t308 134t299 -123.5t111 -329.5v-27h-705q5 -172 86 -270t217 -98zM510 801q-118 0 -193.5 -70t-87.5 -186h551q-9 122 -80.5 189t-189.5 67z" />
    <glyph glyph-name="f" unicode="f" horiz-adv-x="530" 
d="M422 1464q-52 0 -79.5 -51.5t-27.5 -189.5v-336h195v-105h-195v-782h-122v782h-166v105h166v256q0 267 50 346.5t183 79.5q64 0 119 -21l-23 -108q-48 24 -100 24z" />
    <glyph glyph-name="g" unicode="g" horiz-adv-x="1108" 
d="M522 807q-140 0 -219.5 -98.5t-79.5 -270.5t75.5 -267t213.5 -95t223.5 101t85.5 271t-79.5 264.5t-219.5 94.5zM819 -16v180q-41 -95 -125.5 -149t-193.5 -54q-187 0 -298.5 130t-111.5 348t114 349.5t302 131.5q105 0 190.5 -54.5t122.5 -144.5v166h125v-733
q0 -320 -44 -412q-90 -188 -378 -188q-353 0 -395 276h154q30 -166 251 -166q82 0 147 29t93 71t37.5 85.5t9.5 134.5z" />
    <glyph glyph-name="h" unicode="h" horiz-adv-x="1067" 
d="M594 920q151 0 235 -84t84 -234v-602h-125v547q0 133 -56 197.5t-184 64.5q-262 0 -261 -346v-463h-123v1550h117v-800q108 170 313 170z" />
    <glyph glyph-name="i" unicode="i" horiz-adv-x="471" 
d="M172 0v887h127v-887h-127zM141 1232q0 40 28 67.5t67 27.5t67.5 -27.5t28.5 -67.5t-28 -66.5t-68 -26.5t-67.5 26.5t-27.5 66.5z" />
    <glyph glyph-name="j" unicode="j" horiz-adv-x="471" 
d="M172 -446v1333h127v-1333h-127zM141 1232q0 40 28 67.5t67 27.5t67.5 -27.5t28.5 -67.5t-28 -66.5t-68 -26.5t-67.5 26.5t-27.5 66.5z" />
    <glyph glyph-name="k" unicode="k" horiz-adv-x="938" 
d="M164 0v1550h123v-1056l442 393h170l-475 -398l510 -489h-170l-477 459v-459h-123z" />
    <glyph glyph-name="l" unicode="l" horiz-adv-x="471" 
d="M299 0h-127v1550h127v-1550z" />
    <glyph glyph-name="m" unicode="m" horiz-adv-x="1616" 
d="M1329 551q0 262 -213 262q-127 0 -186.5 -83t-59.5 -263v-467h-122v551q0 136 -51 199t-169 63q-240 0 -241 -346v-467h-123v887h123v-139q90 172 284 172t269 -175q105 175 309 175q141 0 222 -85.5t81 -234.5v-600h-123v551z" />
    <glyph glyph-name="n" unicode="n" horiz-adv-x="1067" 
d="M594 920q151 0 235 -84t84 -234v-602h-125v547q0 133 -56 197.5t-184 64.5q-262 0 -261 -346v-463h-123v887h117v-137q108 170 313 170z" />
    <glyph glyph-name="o" unicode="o" horiz-adv-x="1143" 
d="M1052.5 442q-0.5 -198 -142.5 -340q-142 -141 -339 -141t-339 140t-142 340q0 199 140 339t339 140q200 0 342 -140t141.5 -338zM571 76q146 0 247.5 105.5t101.5 259.5t-101 259t-247 105t-247.5 -105t-101.5 -259t101 -259.5t247 -105.5z" />
    <glyph glyph-name="p" unicode="p" horiz-adv-x="1108" 
d="M606 -39q-217 0 -323 203v-610h-119v1333h119v-166q51 96 133 147.5t184 51.5q187 0 301.5 -131t114.5 -349t-112 -348.5t-298 -130.5zM883 438q0 172 -78.5 270.5t-218.5 98.5t-220.5 -95.5t-80.5 -263.5t86.5 -270t224.5 -102t212.5 95t74.5 267z" />
    <glyph glyph-name="q" unicode="q" horiz-adv-x="1108" 
d="M90 440q0 218 114 349t302 131q103 0 186 -52t133 -147v166h119v-1333h-119v610q-106 -203 -325 -203q-186 0 -298 130.5t-112 348.5zM522 807q-140 0 -219.5 -98.5t-79.5 -270.5t75.5 -267t213.5 -95t223.5 101t85.5 271t-79.5 264.5t-219.5 94.5z" />
    <glyph glyph-name="r" unicode="r" horiz-adv-x="645" 
d="M555 799q-111 0 -189.5 -104t-78.5 -259v-436h-123v887h123v-178q68 115 133.5 163t134.5 48t123 -19l-40 -116q-47 14 -83 14z" />
    <glyph glyph-name="s" unicode="s" horiz-adv-x="782" 
d="M569 221q0 102 -172 168t-231.5 127.5t-59.5 161.5t80 172t198 72q232 0 304 -181l-113 -63q-43 129 -190 129q-64 0 -105.5 -37.5t-41.5 -93.5t41 -91.5t179 -82.5t188 -107t50 -174t-87 -187t-217 -73q-254 0 -329 197l117 67q58 -149 219 -149q78 0 124 39.5t46 105.5
z" />
    <glyph glyph-name="t" unicode="t" horiz-adv-x="508" 
d="M190 782h-163v105h163v364h121v-364h178v-105h-178v-782h-121v782z" />
    <glyph glyph-name="u" unicode="u" horiz-adv-x="1079" 
d="M287 887v-443q0 -202 57.5 -285t193.5 -83t195.5 84t59.5 284v443h122v-506q0 -207 -95.5 -313.5t-279.5 -106.5t-280 106.5t-96 313.5v506h123z" />
    <glyph glyph-name="v" unicode="v" horiz-adv-x="874" 
d="M31 887h135l272 -672l271 672h137l-408 -944z" />
    <glyph glyph-name="w" unicode="w" horiz-adv-x="1327" 
d="M379 -57l-354 944h129l231 -639l279 686l278 -686l232 639h129l-355 -944l-282 706z" />
    <glyph glyph-name="x" unicode="x" horiz-adv-x="807" 
d="M31 887h153l217 -326l217 326h150l-299 -426l330 -461h-152l-248 358l-245 -358h-154l332 461z" />
    <glyph glyph-name="y" unicode="y" horiz-adv-x="825" 
d="M43 887h131l254 -694l234 694h131l-459 -1333h-127l155 452z" />
    <glyph glyph-name="z" unicode="z" horiz-adv-x="780" 
d="M57 776v111h674l-491 -776h505v-111h-722l495 776h-461z" />
    <glyph glyph-name="braceleft" unicode="{" 
d="M225 573q139 0 196.5 64.5t57.5 222.5v240q0 227 68.5 302t257.5 75h43v-88h-37q-135 0 -182 -51.5t-47 -213.5v-241q0 -175 -43 -248t-152 -105q109 -32 152 -104t43 -248v-241q0 -162 46.5 -212.5t180.5 -50.5h39v-88h-43q-189 0 -257.5 74.5t-68.5 300.5v240
q0 158 -58 222t-200 64l-45 -2v90q20 -2 49 -2z" />
    <glyph glyph-name="bar" unicode="|" 
d="M557 1565v-2048h-90v2048h90z" />
    <glyph glyph-name="braceright" unicode="}" 
d="M545 201v-240q0 -226 -68.5 -300.5t-257.5 -74.5h-43v88h39q134 0 180.5 50.5t46.5 212.5v241q0 174 43.5 247t153.5 105q-110 32 -153.5 105t-43.5 248v241q0 162 -47 213.5t-182 51.5h-37v88h43q189 0 257.5 -75t68.5 -302v-240q0 -158 58 -222.5t200 -64.5l45 2v-90
l-45 2q-142 0 -200 -64t-58 -222z" />
    <glyph glyph-name="asciitilde" unicode="~" horiz-adv-x="1706" 
d="M565 641q-161 0 -387 -160v92q207 146 387 146q100 0 271 -61q12 -6 20 -8t26 -9q168 -61 261 -61q160 0 387 159v-92q-211 -147 -387 -147q-99 0 -266 61q-16 6 -25 9t-30 11q-167 60 -257 60z" />
    <glyph glyph-name="nonbreakingspace" unicode="&#xa0;" horiz-adv-x="1180" 
 />
    <glyph glyph-name="exclamdown" unicode="&#xa1;" horiz-adv-x="635" 
d="M215 1395q0 43 29.5 72.5t72.5 29.5t73 -29.5t30 -72.5t-30 -73t-73 -30t-72.5 30t-29.5 73zM256 1157h123v-1157h-123v1157z" />
    <glyph glyph-name="cent" unicode="&#xa2;" horiz-adv-x="1180" 
d="M647 1223q135 0 283 -60v-135q-124 80 -282 86l-1 -745q191 21 283 96v-131q-111 -68 -282 -72l-1 -205h-80v207q-197 11 -320.5 142.5t-123.5 329.5t119.5 329t324.5 156v161h80v-159zM254 742q0 -148 83.5 -247.5t229.5 -119.5v735q-136 -14 -224.5 -117t-88.5 -251z
" />
    <glyph glyph-name="sterling" unicode="&#xa3;" horiz-adv-x="1180" 
d="M395 84q-116 0 -209 -125l-86 61q71 134 195 170q80 111 80 200t-45 210h-230v90h185q-103 214 -103 385q0 170 125 287t325 117t317 -112.5t124 -315.5l-127 -22q-3 157 -85 245t-227 88t-231 -82.5t-86 -216.5t101 -373h389v-90h-358q38 -104 38 -176q0 -142 -101 -229
q91 -2 226 -58.5t191 -56.5q120 0 211 143l88 -59q-107 -201 -291 -201q-84 0 -220 60.5t-196 60.5z" />
    <glyph glyph-name="currency" unicode="&#xa4;" horiz-adv-x="1241" 
d="M620 1298q145 0 265 -94l205 207l59 -59l-207 -205q92 -119 92 -263q0 -145 -92 -261l207 -205l-59 -60l-205 207q-119 -92 -264 -92t-263 92l-206 -207l-58 60l207 205q-92 117 -92 261t92 263l-207 205l58 59l206 -207q117 94 262 94zM954 886q0 138 -96.5 234.5
t-234.5 96.5t-235 -97t-97 -234t96.5 -234t234.5 -97t235 96.5t97 234.5z" />
    <glyph glyph-name="yen" unicode="&#xa5;" horiz-adv-x="1182" 
d="M530 0v631h-497v98h456l-98 162h-358v100h293l-283 461h147l402 -676l412 676h135l-281 -461h289v-100h-352l-99 -162h451v-98h-490v-631h-127z" />
    <glyph glyph-name="brokenbar" unicode="&#xa6;" 
d="M557 1432v-758h-90v758h90zM557 408v-758h-90v758h90z" />
    <glyph glyph-name="section" unicode="&#xa7;" horiz-adv-x="1042" 
d="M887 -127q0 -142 -99.5 -235t-259.5 -93t-256 92t-96 248v23l127 -1q6 -233 227 -233q104 0 163 57t59 147t-45 138t-191 102t-199.5 81t-98.5 67t-74 108.5t-29 173.5t72 198t198 133q-219 90 -219 297q0 147 100.5 235t269.5 88t259 -86t90 -248v-20h-135
q-10 246 -222 246q-97 0 -159 -58t-62 -148t51.5 -144.5t232.5 -120.5t262 -155t81 -230q0 -274 -264 -357q217 -94 217 -305zM520 254q120 0 200.5 81t80.5 199t-76 194.5t-195 76.5t-199.5 -80.5t-80.5 -200.5t75 -195t195 -75z" />
    <glyph glyph-name="dieresis" unicode="&#xa8;" 
d="M240 1186q0 42 28 71t68 29t69 -29t29 -69t-28 -68t-70 -28t-69 26t-27 68zM590 1187q0 41 29 70t69 29t68 -29t28 -70t-27 -68t-69 -27t-70 27t-28 68z" />
    <glyph glyph-name="copyright" unicode="&#xa9;" horiz-adv-x="1706" 
d="M852 -10q-299 0 -514 215t-215 515t212 516t518 216t518 -212t212 -518t-211 -513q-107 -106 -241.5 -162.5t-278.5 -56.5zM195 721q0 -269 194.5 -463.5t463.5 -194.5t463 192q195 192 195 466q0 273 -192 466t-466 193t-466 -195t-192 -464zM854 1090q-126 0 -196 -98
t-70 -270t71.5 -270t194.5 -98q91 0 156 52.5t84 140.5h102q-11 -123 -108 -201t-255 -78t-260 123t-102 331t107 331t282 123q132 0 222.5 -72t103.5 -186h-105q-20 81 -79.5 126.5t-147.5 45.5z" />
    <glyph glyph-name="ordfeminine" unicode="&#xaa;" horiz-adv-x="831" 
d="M373 1487q174 0 241 -135v112h93v-620h-93v112q-70 -139 -223 -139q-154 0 -241 91.5t-87 241.5t86.5 243.5t223.5 93.5zM166 1148q0 -120 58.5 -185.5t164.5 -65.5t166.5 70.5t60.5 190.5t-60 185.5t-164 65.5t-165 -70.5t-61 -190.5z" />
    <glyph glyph-name="guillemotleft" unicode="&#xab;" horiz-adv-x="782" 
d="M297 49l-252 387l244 395l86 -53l-209 -344l213 -332zM655 49l-254 387l246 395l86 -53l-211 -344l215 -332z" />
    <glyph glyph-name="logicalnot" unicode="&#xac;" horiz-adv-x="1706" 
d="M1452 856v-502h-78v420h-1120v82h1198z" />
    <glyph glyph-name="sfthyphen" unicode="&#xad;" horiz-adv-x="711" 
d="M137 506h436v-129h-436v129z" />
    <glyph glyph-name="registered" unicode="&#xae;" horiz-adv-x="1706" 
d="M852 -10q-299 0 -514 215t-215 515t212 516t518 216t518 -212t212 -518t-211 -513q-107 -106 -241.5 -162.5t-278.5 -56.5zM195 721q0 -269 194.5 -463.5t463.5 -194.5t463 192q195 192 195 466q0 273 -192 466t-466 193t-466 -195t-192 -464zM874 1155
q180 0 264.5 -56.5t84.5 -176.5q0 -89 -55.5 -149t-147.5 -71l190 -393h-131l-182 377h-213v-377h-115v846h305zM852 1077h-168v-313h168q145 0 199.5 36t54.5 120t-61.5 120.5t-192.5 36.5z" />
    <glyph glyph-name="macron" unicode="&#xaf;" 
d="M254 1118v117h516v-117h-516z" />
    <glyph glyph-name="degree" unicode="&#xb0;" horiz-adv-x="674" 
d="M337 1450q113 0 193 -80t80 -194t-80 -193.5t-194 -79.5t-193.5 79.5t-79.5 193.5t80.5 194t193.5 80zM551 1175q0 88 -63 151t-151 63t-150 -62t-62 -151t62.5 -151t150.5 -62t150.5 62t62.5 150z" />
    <glyph glyph-name="plusminus" unicode="&#xb1;" horiz-adv-x="1706" 
d="M893 1161v-354h559v-80h-559v-352h-80v352h-559v80h559v354h80zM1452 141v-82h-1198v82h1198z" />
    <glyph glyph-name="twosuperior" unicode="&#xb2;" horiz-adv-x="778" 
d="M668 645v-70h-621q209 207 269 267q262 259 262 370q0 79 -60 129t-156 50t-152 -55.5t-56 -151.5h-86v8q0 125 82 197.5t220 72.5t220 -66.5t82 -176.5q0 -139 -221 -357l-226 -217h443z" />
    <glyph glyph-name="threesuperior" unicode="&#xb3;" horiz-adv-x="778" 
d="M371 623q100 0 157.5 49.5t57.5 137.5t-57.5 137.5t-159.5 49.5l-37 -1v75l43 -2q92 0 144 42.5t52 116.5t-51.5 119.5t-133.5 45.5t-130 -37.5t-57 -103.5l-95 -1q11 98 85.5 154.5t195.5 56.5t199 -62.5t78 -150.5q0 -170 -168 -217q88 -28 136 -86t48 -137
q0 -117 -83 -186.5t-223 -69.5t-218.5 63t-87.5 181h94q12 -174 211 -174z" />
    <glyph glyph-name="acute" unicode="&#xb4;" 
d="M379 1030l213 350h164l-283 -350h-94z" />
    <glyph glyph-name="mu" unicode="&#xb5;" horiz-adv-x="1094" 
d="M186 332q0 -258 240 -258q120 0 213 109t137 313l125 567h121l-166 -786q-25 -112 -25 -136q0 -63 68 -63q17 0 39 2l-18 -96q-39 -13 -76 -13q-133 0 -133 127q0 18 4 45q-43 -83 -124 -127.5t-183 -44.5t-174.5 45.5t-104.5 126.5l-119 -567h-121l316 1487h121
l-123 -590q-17 -81 -17 -141z" />
    <glyph glyph-name="paragraph" unicode="&#xb6;" 
d="M932 1415h-129v-1415h-70v1415h-192v-1415h-70v782q-175 8 -278 102.5t-103 248.5t108.5 250t286.5 96h447v-64z" />
    <glyph glyph-name="glyph121" unicode="&#xb7;" horiz-adv-x="590" 
d="M193 719q0 43 29.5 72.5t72.5 29.5t72.5 -29.5t29.5 -72.5t-29.5 -73t-72.5 -30t-72.5 30t-29.5 73z" />
    <glyph glyph-name="cedilla" unicode="&#xb8;" 
d="M526 -342q125 0 125 89t-141 89l-41 -2v166h61v-100h15q103 0 158 -39.5t55 -112.5q0 -164 -215 -164q-98 0 -242 37v70q162 -33 225 -33z" />
    <glyph glyph-name="onesuperior" unicode="&#xb9;" horiz-adv-x="778" 
d="M360 575v799h-174l41 72h217v-871h-84z" />
    <glyph glyph-name="ordmasculine" unicode="&#xba;" horiz-adv-x="858" 
d="M172 1391q104 96 255 96t257 -96q107 -101 107 -238.5t-107 -236.5t-256 -99q-149 -1 -254 97q-106 98 -106 239q0 140 104 238zM428 897q110 0 186 73.5t76 181.5t-76 181.5t-186 73.5t-185 -73.5t-75 -180.5t75 -181.5t185 -74.5z" />
    <glyph glyph-name="guillemotright" unicode="&#xbb;" horiz-adv-x="782" 
d="M485 49l-84 53l215 332l-208 344l86 53l243 -395zM127 49l-82 53l215 332l-211 344l86 53l244 -395z" />
    <glyph glyph-name="onequarter" unicode="&#xbc;" horiz-adv-x="1829" 
d="M344 633v745h-168l41 66h207v-811h-80zM401 -39l918 1518h106l-915 -1518h-109zM1540 0v207h-416l500 633v-568h94v-65h-94v-207h-84zM1540 272v369l-291 -369h291z" />
    <glyph glyph-name="onehalf" unicode="&#xbd;" horiz-adv-x="1829" 
d="M344 633v745h-168l41 66h207v-811h-80zM401 -39l918 1518h106l-915 -1518h-109zM1722 63v-63h-592l199 195q18 17 53 50q254 244 254 351q0 73 -57 119.5t-149 46.5t-144.5 -52t-52.5 -143h-82v8q0 118 77.5 185t210.5 67t210 -61.5t77 -165.5q0 -131 -218 -339
l-208 -198h422z" />
    <glyph glyph-name="threequarters" unicode="&#xbe;" horiz-adv-x="1829" 
d="M559 852q0 82 -55 128t-154 46h-35v70l43 -2q88 0 137.5 39t49.5 109t-49.5 111.5t-127.5 41.5t-124 -34.5t-54 -96.5h-89q8 90 79.5 143t187.5 53t189.5 -59t73.5 -141q0 -159 -160 -201q84 -25 130 -79.5t46 -129.5q0 -109 -79.5 -174.5t-211.5 -65.5t-208 59t-87 171
h91q12 -162 202 -162q96 0 150.5 46t54.5 128zM401 -39l918 1518h106l-915 -1518h-109zM1540 0v207h-416l500 633v-568h94v-65h-94v-207h-84zM1540 272v369l-291 -369h291z" />
    <glyph glyph-name="questiondown" unicode="&#xbf;" horiz-adv-x="1053" 
d="M750 365h118v-33q0 -172 -97 -271.5t-257 -99.5t-251 91t-91 243q0 111 48 186t196 170q26 17 74 47q198 122 198 230q0 72 -46.5 115.5t-129.5 43.5t-131.5 -46.5t-48.5 -131.5v-18h-111v24q0 135 80.5 207t218.5 72t215.5 -75t77.5 -178t-46 -169.5t-171 -148.5
q-25 -17 -72 -47q-227 -143 -227 -273q0 -97 58.5 -155t164.5 -58t168 70t62 198v7zM639 1395q0 -43 -29.5 -73t-72.5 -30t-72 29t-29 73t29 73.5t72 29.5t72.5 -29.5t29.5 -72.5z" />
    <glyph glyph-name="Agrave" unicode="&#xc0;" horiz-adv-x="1223" 
d="M-18 0l643 1522l616 -1522h-145l-187 496h-598l-194 -496h-135zM356 610h510l-250 637zM745 1608h-94l-283 350h164z" />
    <glyph glyph-name="Aacute" unicode="&#xc1;" horiz-adv-x="1223" 
d="M-18 0l643 1522l616 -1522h-145l-187 496h-598l-194 -496h-135zM356 610h510l-250 637zM479 1608l213 350h164l-283 -350h-94z" />
    <glyph glyph-name="Acircumflex" unicode="&#xc2;" horiz-adv-x="1223" 
d="M-18 0l643 1522l616 -1522h-145l-187 496h-598l-194 -496h-135zM356 610h510l-250 637zM325 1608l213 350h146l213 -350h-92l-193 250l-195 -250h-92z" />
    <glyph glyph-name="Atilde" unicode="&#xc3;" horiz-adv-x="1223" 
d="M-18 0l643 1522l616 -1522h-145l-187 496h-598l-194 -496h-135zM356 610h510l-250 637zM704 1688q-31 0 -65 10l-80 27q-24 8 -58 8q-61 0 -92 -61h-88q45 178 199 178q35 0 59 -8l78 -27q34 -10 61 -10q73 0 97 67h88q-51 -184 -199 -184z" />
    <glyph glyph-name="Adieresis" unicode="&#xc4;" horiz-adv-x="1223" 
d="M-18 0l643 1522l616 -1522h-145l-187 496h-598l-194 -496h-135zM356 610h510l-250 637zM340 1764q0 42 28 71t68 29t69 -29t29 -69t-28 -68t-70 -28t-69 26t-27 68zM690 1765q0 41 29 70t69 29t68 -29t28 -70t-27 -68t-69 -27t-70 27t-28 68z" />
    <glyph glyph-name="Aring" unicode="&#xc5;" horiz-adv-x="1223" 
d="M-18 0l624 1460h39l596 -1460h-145l-187 496h-598l-194 -496h-135zM356 610h510l-250 633zM389 1738q0 100 67.5 167t167.5 67t168 -67t68 -167t-68 -168.5t-167 -68.5t-167.5 68.5t-68.5 168.5zM492 1737q0 -56 38 -94.5t94 -38.5t95 38.5t39 94.5t-38.5 94.5
t-94.5 38.5t-94.5 -38.5t-38.5 -94.5z" />
    <glyph glyph-name="AE" unicode="&#xc6;" horiz-adv-x="1688" 
d="M135 0h-127l529 1464h618l41 -125h-506l158 -458h526l43 -125h-526l215 -631h532l41 -125h-665l-170 496h-533zM348 610h457l-217 662z" />
    <glyph glyph-name="Ccedilla" unicode="&#xc7;" horiz-adv-x="1464" 
d="M878 1380q-266 0 -444 -180t-178 -469t178 -468t439 -179t477 170v-156q-224 -137 -467 -137h-5v-61h15q103 0 158 -40t55 -112q0 -164 -215 -164q-98 0 -242 37v70q162 -33 225 -33q125 0 125 89t-141 89l-41 -2v130q-123 9 -253 60q-130 52 -236 156q-216 213 -215 551
q1 164 57 306t160 244t250 159t303 57q281 0 477 -154l-2 -147q-213 184 -480 184z" />
    <glyph glyph-name="Egrave" unicode="&#xc8;" horiz-adv-x="1051" 
d="M182 0v1464h725v-125h-592v-458h592v-125h-592v-631h592v-125h-725zM674 1608h-94l-283 350h164z" />
    <glyph glyph-name="Eacute" unicode="&#xc9;" horiz-adv-x="1051" 
d="M182 0v1464h725v-125h-592v-458h592v-125h-592v-631h592v-125h-725zM408 1608l213 350h164l-283 -350h-94z" />
    <glyph glyph-name="Ecircumflex" unicode="&#xca;" horiz-adv-x="1051" 
d="M182 0v1464h725v-125h-592v-458h592v-125h-592v-631h592v-125h-725zM254 1608l213 350h146l213 -350h-92l-193 250l-195 -250h-92z" />
    <glyph glyph-name="Edieresis" unicode="&#xcb;" horiz-adv-x="1051" 
d="M182 0v1464h725v-125h-592v-458h592v-125h-592v-631h592v-125h-725zM269 1764q0 42 28 71t68 29t69 -29t29 -69t-28 -68t-70 -28t-69 26t-27 68zM619 1765q0 41 29 70t69 29t68 -29t28 -70t-27 -68t-69 -27t-70 27t-28 68z" />
    <glyph glyph-name="Igrave" unicode="&#xcc;" horiz-adv-x="498" 
d="M182 0v1464h133v-1464h-133zM383 1608h-94l-283 350h164z" />
    <glyph glyph-name="Iacute" unicode="&#xcd;" horiz-adv-x="498" 
d="M182 0v1464h133v-1464h-133zM117 1608l213 350h164l-283 -350h-94z" />
    <glyph glyph-name="Icircumflex" unicode="&#xce;" horiz-adv-x="498" 
d="M182 0v1464h133v-1464h-133zM-37 1608l213 350h146l213 -350h-92l-193 250l-195 -250h-92z" />
    <glyph glyph-name="Idieresis" unicode="&#xcf;" horiz-adv-x="498" 
d="M182 0v1464h133v-1464h-133zM-22 1764q0 42 28 71t68 29t69 -29t29 -69t-28 -68t-70 -28t-69 26t-27 68zM328 1765q0 41 29 70t69 29t68 -29t28 -70t-27 -68t-69 -27t-70 27t-28 68z" />
    <glyph glyph-name="Eth" unicode="&#xd0;" horiz-adv-x="1436" 
d="M193 0v762h-193v102h193v600h227q308 0 435.5 -30t217.5 -103q250 -201 250 -599t-252 -599q-92 -72 -214.5 -102.5t-412.5 -30.5h-251zM326 115h184q228 0 323.5 25.5t174.5 99.5t125.5 200t46.5 294q0 340 -187 505q-70 63 -171.5 89t-354.5 26h-141v-490h426v-102
h-426v-647z" />
    <glyph glyph-name="Ntilde" unicode="&#xd1;" horiz-adv-x="1526" 
d="M182 0v1526l1037 -1225v1163h124v-1507l-1036 1227v-1184h-125zM856 1688q-31 0 -65 10l-80 27q-24 8 -58 8q-61 0 -92 -61h-88q45 178 199 178q35 0 59 -8l78 -27q34 -10 61 -10q73 0 97 67h88q-51 -184 -199 -184z" />
    <glyph glyph-name="Ograve" unicode="&#xd2;" horiz-adv-x="1792" 
d="M1679 730q0 -319 -230 -544t-554 -225t-553 225q-229 227 -229 545t226 542t556 224t557 -224t227 -543zM1538 729q0 269 -187 459t-453 190t-456 -188q-188 -194 -188 -462t187 -458t453 -190t456 188q188 192 188 461zM1030 1608h-94l-283 350h164z" />
    <glyph glyph-name="Oacute" unicode="&#xd3;" horiz-adv-x="1792" 
d="M1679 730q0 -319 -230 -544t-554 -225t-553 225q-229 227 -229 545t226 542t556 224t557 -224t227 -543zM1538 729q0 269 -187 459t-453 190t-456 -188q-188 -194 -188 -462t187 -458t453 -190t456 188q188 192 188 461zM764 1608l213 350h164l-283 -350h-94z" />
    <glyph glyph-name="Ocircumflex" unicode="&#xd4;" horiz-adv-x="1792" 
d="M1679 730q0 -319 -230 -544t-554 -225t-553 225q-229 227 -229 545t226 542t556 224t557 -224t227 -543zM1538 729q0 269 -187 459t-453 190t-456 -188q-188 -194 -188 -462t187 -458t453 -190t456 188q188 192 188 461zM610 1608l213 350h146l213 -350h-92l-193 250
l-195 -250h-92z" />
    <glyph glyph-name="Otilde" unicode="&#xd5;" horiz-adv-x="1792" 
d="M1679 730q0 -319 -230 -544t-554 -225t-553 225q-229 227 -229 545t226 542t556 224t557 -224t227 -543zM1538 729q0 269 -187 459t-453 190t-456 -188q-188 -194 -188 -462t187 -458t453 -190t456 188q188 192 188 461zM989 1688q-31 0 -65 10l-80 27q-24 8 -58 8
q-61 0 -92 -61h-88q45 178 199 178q35 0 59 -8l78 -27q34 -10 61 -10q73 0 97 67h88q-51 -184 -199 -184z" />
    <glyph glyph-name="Odieresis" unicode="&#xd6;" horiz-adv-x="1792" 
d="M1679 730q0 -319 -230 -544t-554 -225t-553 225q-229 227 -229 545t226 542t556 224t557 -224t227 -543zM1538 729q0 269 -187 459t-453 190t-456 -188q-188 -194 -188 -462t187 -458t453 -190t456 188q188 192 188 461zM625 1764q0 42 28 71t68 29t69 -29t29 -69
t-28 -68t-70 -28t-69 26t-27 68zM975 1765q0 41 29 70t69 29t68 -29t28 -70t-27 -68t-69 -27t-70 27t-28 68z" />
    <glyph glyph-name="multiply" unicode="&#xd7;" horiz-adv-x="1706" 
d="M854 668l487 487l58 -57l-488 -488l488 -487l-58 -57l-487 487l-487 -487l-58 57l488 487l-488 488l58 57z" />
    <glyph glyph-name="Oslash" unicode="&#xd8;" horiz-adv-x="1792" 
d="M1477 1247q202 -219 202 -523q0 -150 -58.5 -288.5t-228 -303.5t-507.5 -165q-273 0 -488 172l-178 -184l-65 70l176 180q-217 209 -217 527q0 319 229 543t544 224t523 -186l184 192l70 -67zM1319 1221q-183 159 -437 159t-440 -189t-186 -444t166 -450zM1538 731
q0 231 -154 422l-895 -920q190 -149 406 -149q128 0 246.5 49t209.5 141q187 188 187 457z" />
    <glyph glyph-name="Ugrave" unicode="&#xd9;" horiz-adv-x="1417" 
d="M176 1464h131v-956q0 -216 99 -322q100 -106 302 -106t301 106t99 322v956h133v-913q0 -297 -132 -443q-133 -146 -401 -147q-268 1 -400 147t-132 443v913zM842 1608h-94l-283 350h164z" />
    <glyph glyph-name="Uacute" unicode="&#xda;" horiz-adv-x="1417" 
d="M176 1464h131v-956q0 -216 99 -322q100 -106 302 -106t301 106t99 322v956h133v-913q0 -297 -132 -443q-133 -146 -401 -147q-268 1 -400 147t-132 443v913zM576 1608l213 350h164l-283 -350h-94z" />
    <glyph glyph-name="Ucircumflex" unicode="&#xdb;" horiz-adv-x="1417" 
d="M176 1464h131v-956q0 -216 99 -322q100 -106 302 -106t301 106t99 322v956h133v-913q0 -297 -132 -443q-133 -146 -401 -147q-268 1 -400 147t-132 443v913zM422 1608l213 350h146l213 -350h-92l-193 250l-195 -250h-92z" />
    <glyph glyph-name="Udieresis" unicode="&#xdc;" horiz-adv-x="1417" 
d="M176 1464h131v-956q0 -216 99 -322q100 -106 302 -106t301 106t99 322v956h133v-913q0 -297 -132 -443q-133 -146 -401 -147q-268 1 -400 147t-132 443v913zM437 1764q0 42 28 71t68 29t69 -29t29 -69t-28 -68t-70 -28t-69 26t-27 68zM787 1765q0 41 29 70t69 29t68 -29
t28 -70t-27 -68t-69 -27t-70 27t-28 68z" />
    <glyph glyph-name="Yacute" unicode="&#xdd;" horiz-adv-x="1118" 
d="M496 0v674l-486 790h160l393 -671l395 671h152l-481 -790v-674h-133zM426 1608l213 350h164l-283 -350h-94z" />
    <glyph glyph-name="Thorn" unicode="&#xde;" 
d="M182 0v1464h133v-299h111q176 0 252 -17t139 -63t101 -132t38 -191q0 -210 -117.5 -308t-369.5 -98h-154v-356h-133zM315 473h91q242 0 325.5 61.5t83.5 205.5t-76 229q-39 43 -104 60.5t-229 17.5h-91v-574z" />
    <glyph glyph-name="germandbls" unicode="&#xdf;" horiz-adv-x="1059" 
d="M651 864q310 -35 310 -444q0 -206 -115.5 -335.5t-310.5 -129.5q-58 0 -123 25v131q60 -31 131 -31q138 0 213 92.5t75 266.5t-83 268t-242 94q-12 0 -16 -1l-56 -3v124l49 -1q132 0 195 66.5t63 200.5t-61.5 202.5t-179.5 68.5q-190 0 -207 -123.5t-17 -224.5v-1110
h-122v782h-121v105h121v297q0 186 93 286.5t261 100.5t264 -104.5t96 -284.5q0 -234 -217 -318z" />
    <glyph glyph-name="agrave" unicode="&#xe0;" horiz-adv-x="1108" 
d="M496 920q232 0 323 -195v162h123v-887h-123v162q-90 -201 -311 -201q-192 0 -308 131t-116 345q0 215 115 349t297 134zM221 435q-1 -173 77 -266t220 -93t222 102t81 272q0 170 -80 264t-219 93q-139 1 -220 -99t-81 -273zM688 1030h-94l-283 350h164z" />
    <glyph glyph-name="aacute" unicode="&#xe1;" horiz-adv-x="1108" 
d="M496 920q232 0 323 -195v162h123v-887h-123v162q-90 -201 -311 -201q-192 0 -308 131t-116 345q0 215 115 349t297 134zM221 435q-1 -173 77 -266t220 -93t222 102t81 272q0 170 -80 264t-219 93q-139 1 -220 -99t-81 -273zM422 1030l213 350h164l-283 -350h-94z" />
    <glyph glyph-name="acircumflex" unicode="&#xe2;" horiz-adv-x="1108" 
d="M496 920q232 0 323 -195v162h123v-887h-123v162q-90 -201 -311 -201q-192 0 -308 131t-116 345q0 215 115 349t297 134zM221 435q-1 -173 77 -266t220 -93t222 102t81 272q0 170 -80 264t-219 93q-139 1 -220 -99t-81 -273zM268 1030l213 350h146l213 -350h-92l-193 250
l-195 -250h-92z" />
    <glyph glyph-name="atilde" unicode="&#xe3;" horiz-adv-x="1108" 
d="M496 920q232 0 323 -195v162h123v-887h-123v162q-90 -201 -311 -201q-192 0 -308 131t-116 345q0 215 115 349t297 134zM221 435q-1 -173 77 -266t220 -93t222 102t81 272q0 170 -80 264t-219 93q-139 1 -220 -99t-81 -273zM444 1155q-61 0 -92 -61h-88q45 178 199 178
q35 0 59 -8l78 -27q34 -10 61 -10q73 0 97 67h88q-51 -184 -199 -184q-31 0 -65 10l-80 27q-24 8 -58 8z" />
    <glyph glyph-name="adieresis" unicode="&#xe4;" horiz-adv-x="1108" 
d="M496 920q232 0 323 -195v162h123v-887h-123v162q-90 -201 -311 -201q-192 0 -308 131t-116 345q0 215 115 349t297 134zM221 435q-1 -173 77 -266t220 -93t222 102t81 272q0 170 -80 264t-219 93q-139 1 -220 -99t-81 -273zM283 1186q0 42 28 71t68 29t69 -29t29 -69
t-28 -68t-70 -28t-69 26t-27 68zM633 1187q0 41 29 70t69 29t68 -29t28 -70t-27 -68t-69 -27t-70 27t-28 68z" />
    <glyph glyph-name="aring" unicode="&#xe5;" horiz-adv-x="1108" 
d="M291 1221q0 99 67.5 167t167.5 68t168 -68t68 -167t-68 -167.5t-167 -68.5t-167.5 68.5t-68.5 167.5zM393 1221q0 -56 38.5 -95t94.5 -39t94.5 39t38.5 95t-38.5 95.5t-94.5 39.5t-94.5 -39.5t-38.5 -95.5zM496 920q232 0 323 -195v162h123v-887h-123v162
q-90 -201 -311 -201q-191 0 -307.5 131t-116.5 345t115 348.5t297 134.5zM221 435q0 -173 77.5 -266t219.5 -93t222.5 102t80.5 272t-80 263.5t-219 93.5t-220 -99.5t-81 -272.5z" />
    <glyph glyph-name="ae" unicode="&#xe6;" horiz-adv-x="1624" 
d="M702 265q0 81 -68 127t-182 46t-179.5 -50t-65.5 -136t60.5 -132t174.5 -46t187 55t73 136zM1118 801q-117 0 -192.5 -71t-87.5 -187h551q-8 122 -81 190t-190 68zM432 813q-146 0 -295 -78l2 131q150 54 297 54q148 0 239 -49.5t116 -137.5q48 89 134 138t195 49
q189 0 301.5 -125t112.5 -336v-21h-705q6 -171 84.5 -267.5t210.5 -96.5q205 0 299 211l117 -62q-136 -264 -414 -264q-243 0 -362 221q-37 -105 -130.5 -163t-235.5 -58t-234 79.5t-92 209.5t100 212.5t268 82.5t270 -88q3 18 3 65q0 149 -67.5 221t-213.5 72z" />
    <glyph glyph-name="ccedilla" unicode="&#xe7;" horiz-adv-x="934" 
d="M217 434q-1 -166 101 -267t255 -101t295 100v-135q-127 -72 -305 -74v-57h15q103 0 158 -40t55 -112q0 -164 -215 -164q-98 0 -242 37v70q162 -33 225 -33q125 0 125 89t-141 89l-41 -2v125q-167 15 -289 140q-121 125 -121 337t136 348t352 136q162 0 276 -60l-2 -135
q-124 86 -282 86q-159 1 -257 -105t-98 -272z" />
    <glyph glyph-name="egrave" unicode="&#xe8;" horiz-adv-x="1018" 
d="M524 72q197 0 295 213l113 -62q-68 -135 -166 -199t-242 -63q-196 1 -316 131t-120 345t120 349t308 134t299 -124t111 -329v-27h-705q5 -172 86 -270t217 -98zM510 801q-118 0 -194 -70t-87 -186h551q-9 122 -81 189q-71 67 -189 67zM643 1030h-94l-283 350h164z" />
    <glyph glyph-name="eacute" unicode="&#xe9;" horiz-adv-x="1018" 
d="M524 72q197 0 295 213l113 -62q-68 -135 -166 -199t-242 -63q-196 1 -316 131t-120 345t120 349t308 134t299 -124t111 -329v-27h-705q5 -172 86 -270t217 -98zM510 801q-118 0 -194 -70t-87 -186h551q-9 122 -81 189q-71 67 -189 67zM377 1030l213 350h164l-283 -350
h-94z" />
    <glyph glyph-name="ecircumflex" unicode="&#xea;" horiz-adv-x="1018" 
d="M524 72q197 0 295 213l113 -62q-68 -135 -166 -199t-242 -63q-196 1 -316 131t-120 345t120 349t308 134t299 -124t111 -329v-27h-705q5 -172 86 -270t217 -98zM510 801q-118 0 -194 -70t-87 -186h551q-9 122 -81 189q-71 67 -189 67zM223 1030l213 350h146l213 -350h-92
l-193 250l-195 -250h-92z" />
    <glyph glyph-name="edieresis" unicode="&#xeb;" horiz-adv-x="1018" 
d="M524 72q197 0 295 213l113 -62q-68 -135 -166 -199t-242 -63q-196 1 -316 131t-120 345t120 349t308 134t299 -124t111 -329v-27h-705q5 -172 86 -270t217 -98zM510 801q-118 0 -194 -70t-87 -186h551q-9 122 -81 189q-71 67 -189 67zM238 1186q0 42 28 71t68 29t69 -29
t29 -69t-28 -68t-70 -28t-69 26t-27 68zM588 1187q0 41 29 70t69 29t68 -29t28 -70t-27 -68t-69 -27t-70 27t-28 68z" />
    <glyph glyph-name="igrave" unicode="&#xec;" horiz-adv-x="471" 
d="M172 0v887h127v-887h-127zM369 1030h-94l-283 350h164z" />
    <glyph glyph-name="iacute" unicode="&#xed;" horiz-adv-x="471" 
d="M172 0v887h127v-887h-127zM103 1030l213 350h164l-283 -350h-94z" />
    <glyph glyph-name="icircumflex" unicode="&#xee;" horiz-adv-x="471" 
d="M172 0v887h127v-887h-127zM-51 1030l213 350h146l213 -350h-92l-193 250l-195 -250h-92z" />
    <glyph glyph-name="idieresis" unicode="&#xef;" horiz-adv-x="471" 
d="M172 0v887h127v-887h-127zM-36 1186q0 42 28 71t68 29t69 -29t29 -69t-28 -68t-70 -28t-69 26t-27 68zM314 1187q0 41 29 70t69 29t68 -29t28 -70t-27 -68t-69 -27t-70 27t-28 68z" />
    <glyph glyph-name="eth" unicode="&#xf0;" horiz-adv-x="1139" 
d="M1053 496q0 -244 -132.5 -389.5t-341.5 -145.5t-352 136t-143 328t139 325q143 137 325 137q181 0 345 -146q-72 268 -324 492l-313 -146l-47 82l276 131q-89 74 -243 158l59 90q194 -112 297 -196l342 159l51 -84l-307 -147q369 -369 369 -784zM566 76q146 0 247.5 102
t101.5 250t-101 250t-247 102t-247 -102t-101 -250t100.5 -250t246.5 -102z" />
    <glyph glyph-name="ntilde" unicode="&#xf1;" horiz-adv-x="1067" 
d="M594 920q151 0 235 -84t84 -234v-602h-125v547q0 133 -56 197t-184 65q-262 0 -261 -346v-463h-123v887h117v-137q108 170 313 170zM424 1155q-61 0 -92 -61h-88q45 178 199 178q35 0 59 -8l78 -27q34 -10 61 -10q73 0 97 67h88q-51 -184 -199 -184q-31 0 -65 10l-80 27
q-24 8 -58 8z" />
    <glyph glyph-name="ograve" unicode="&#xf2;" horiz-adv-x="1143" 
d="M1053 442q-1 -198 -143 -340q-142 -141 -339 -141t-339 140t-142 340q0 199 140 339t339 140q200 0 342 -140t142 -338zM571 76q145 0 247 106t102 259q0 154 -101 259t-247 105t-248 -105q-101 -105 -101 -259q0 -153 101 -259t247 -106zM704 1030h-94l-283 350h164z
" />
    <glyph glyph-name="oacute" unicode="&#xf3;" horiz-adv-x="1143" 
d="M1053 442q-1 -198 -143 -340q-142 -141 -339 -141t-339 140t-142 340q0 199 140 339t339 140q200 0 342 -140t142 -338zM571 76q145 0 247 106t102 259q0 154 -101 259t-247 105t-248 -105q-101 -105 -101 -259q0 -153 101 -259t247 -106zM438 1030l213 350h164
l-283 -350h-94z" />
    <glyph glyph-name="ocircumflex" unicode="&#xf4;" horiz-adv-x="1143" 
d="M1053 442q-1 -198 -143 -340q-142 -141 -339 -141t-339 140t-142 340q0 199 140 339t339 140q200 0 342 -140t142 -338zM571 76q145 0 247 106t102 259q0 154 -101 259t-247 105t-248 -105q-101 -105 -101 -259q0 -153 101 -259t247 -106zM284 1030l213 350h146l213 -350
h-92l-193 250l-195 -250h-92z" />
    <glyph glyph-name="otilde" unicode="&#xf5;" horiz-adv-x="1143" 
d="M1053 442q-1 -198 -143 -340q-142 -141 -339 -141t-339 140t-142 340q0 199 140 339t339 140q200 0 342 -140t142 -338zM571 76q145 0 247 106t102 259q0 154 -101 259t-247 105t-248 -105q-101 -105 -101 -259q0 -153 101 -259t247 -106zM663 1110q-31 0 -65 10l-80 27
q-24 8 -58 8q-61 0 -92 -61h-88q45 178 199 178q35 0 59 -8l78 -27q34 -10 61 -10q73 0 97 67h88q-51 -184 -199 -184z" />
    <glyph glyph-name="odieresis" unicode="&#xf6;" horiz-adv-x="1143" 
d="M1053 442q-1 -198 -143 -340q-142 -141 -339 -141t-339 140t-142 340q0 199 140 339t339 140q200 0 342 -140t142 -338zM571 76q145 0 247 106t102 259q0 154 -101 259t-247 105t-248 -105q-101 -105 -101 -259q0 -153 101 -259t247 -106zM299 1186q0 42 28 71t68 29
t69 -29t29 -69t-28 -68t-70 -28t-69 26t-27 68zM649 1187q0 41 29 70t69 29t68 -29t28 -70t-27 -68t-69 -27t-70 27t-28 68z" />
    <glyph glyph-name="divide" unicode="&#xf7;" horiz-adv-x="1706" 
d="M854 1055q41 0 69.5 -28.5t28.5 -69.5t-28.5 -71t-69.5 -30t-69.5 29.5t-28.5 70.5t28.5 70t69.5 29zM1452 651v-82h-1198v82h1198zM854 365q40 0 69 -29.5t29 -70.5t-28.5 -70t-69.5 -29t-69.5 28.5t-28.5 69.5t29 71t69 30z" />
    <glyph glyph-name="oslash" unicode="&#xf8;" horiz-adv-x="1143" 
d="M223 434q0 -114 70 -213l500 502q-88 82 -211 82q-159 0 -259 -103.5t-100 -267.5zM918 444q0 114 -68 220l-504 -504q100 -82 217 -82q154 0 254.5 103.5t100.5 262.5zM88 432q0 208 139.5 348t347.5 140q164 0 302 -111l110 113l62 -58l-113 -110q117 -145 117 -310
q0 -207 -141.5 -345t-352.5 -138q-161 0 -295 113l-117 -115l-55 59l111 113q-115 142 -115 301z" />
    <glyph glyph-name="ugrave" unicode="&#xf9;" horiz-adv-x="1079" 
d="M287 887v-443q-1 -202 57 -285t194 -83t196 84q59 84 59 284v443h122v-506q0 -207 -95 -313q-96 -106 -280 -107q-184 1 -280 107t-96 313v506h123zM674 1030h-94l-283 350h164z" />
    <glyph glyph-name="uacute" unicode="&#xfa;" horiz-adv-x="1079" 
d="M287 887v-443q-1 -202 57 -285t194 -83t196 84q59 84 59 284v443h122v-506q0 -207 -95 -313q-96 -106 -280 -107q-184 1 -280 107t-96 313v506h123zM408 1030l213 350h164l-283 -350h-94z" />
    <glyph glyph-name="ucircumflex" unicode="&#xfb;" horiz-adv-x="1079" 
d="M287 887v-443q-1 -202 57 -285t194 -83t196 84q59 84 59 284v443h122v-506q0 -207 -95 -313q-96 -106 -280 -107q-184 1 -280 107t-96 313v506h123zM254 1030l213 350h146l213 -350h-92l-193 250l-195 -250h-92z" />
    <glyph glyph-name="udieresis" unicode="&#xfc;" horiz-adv-x="1079" 
d="M287 887v-443q-1 -202 57 -285t194 -83t196 84q59 84 59 284v443h122v-506q0 -207 -95 -313q-96 -106 -280 -107q-184 1 -280 107t-96 313v506h123zM269 1186q0 42 28 71t68 29t69 -29t29 -69t-28 -68t-70 -28t-69 26t-27 68zM619 1187q0 41 29 70t69 29t68 -29t28 -70
t-27 -68t-69 -27t-70 27t-28 68z" />
    <glyph glyph-name="yacute" unicode="&#xfd;" horiz-adv-x="825" 
d="M43 887h131l254 -694l234 694h131l-459 -1333h-127l155 452zM281 1030l213 350h164l-283 -350h-94z" />
    <glyph glyph-name="thorn" unicode="&#xfe;" horiz-adv-x="1108" 
d="M606 -39q-217 0 -323 203v-610h-119v1996h119v-829q41 93 125 146t192 53q187 0 301.5 -131.5t114.5 -349.5t-111.5 -348t-298.5 -130zM883 438q0 172 -78.5 270.5t-218.5 98.5t-220.5 -95.5t-80.5 -263.5t86.5 -270t224.5 -102t212.5 95t74.5 267z" />
    <glyph glyph-name="ydieresis" unicode="&#xff;" horiz-adv-x="825" 
d="M43 887h131l254 -694l234 694h131l-459 -1333h-127l155 452zM142 1186q0 42 28 71t68 29t69 -29t29 -69t-28 -68t-70 -28t-69 26t-27 68zM492 1187q0 41 29 70t69 29t68 -29t28 -70t-27 -68t-69 -27t-70 27t-28 68z" />
    <glyph glyph-name="Cacute" unicode="&#x106;" horiz-adv-x="1464" 
d="M878 1380q-266 0 -444 -180t-178 -469t178 -468t439 -179t477 170v-156q-224 -137 -467 -137q-159 0 -304 57q-145 58 -251 162q-216 213 -215 551q1 164 57 306t160 244t250 159t303 57q281 0 477 -154l-2 -147q-213 184 -480 184zM741 1608l213 350h164l-283 -350h-94z
" />
    <glyph glyph-name="cacute" unicode="&#x107;" horiz-adv-x="934" 
d="M217 434q-1 -166 101 -267t255 -101t295 100v-135q-130 -74 -323 -74q-193 -1 -323 133t-130 346t136 348t352 136q162 0 276 -60l-2 -135q-124 86 -282 86q-159 1 -257 -105t-98 -272zM428 1030l213 350h164l-283 -350h-94z" />
    <glyph glyph-name="Ccaron" unicode="&#x10c;" horiz-adv-x="1464" 
d="M878 1380q-266 0 -444 -180t-178 -469t178 -468t439 -179t477 170v-156q-224 -137 -467 -137q-159 0 -304 57q-145 58 -251 162q-216 213 -215 551q1 164 57 306t160 244t250 159t303 57q281 0 477 -154l-2 -147q-213 184 -480 184zM1159 1958l-213 -350h-146l-213 350
h92l195 -250l193 250h92z" />
    <glyph glyph-name="ccaron" unicode="&#x10d;" horiz-adv-x="934" 
d="M217 434q-1 -166 101 -267t255 -101t295 100v-135q-130 -74 -323 -74q-193 -1 -323 133t-130 346t136 348t352 136q162 0 276 -60l-2 -135q-124 86 -282 86q-159 1 -257 -105t-98 -272zM846 1380l-213 -350h-146l-213 350h92l195 -250l193 250h92z" />
    <glyph glyph-name="dcroat" unicode="&#x111;" horiz-adv-x="1116" 
d="M500 920q230 0 321 -195v436h-360v101h360v288h125v-288h170v-101h-170v-1161h-125v162q-88 -201 -309 -201q-191 0 -307.5 130.5t-116.5 344.5t115.5 349t296.5 135zM225 434q0 -172 77.5 -265t219.5 -93t221.5 102t79.5 272t-79.5 263.5t-217.5 93.5t-219.5 -100.5
t-81.5 -272.5z" />
    <glyph glyph-name="Gbreve" unicode="&#x11e;" horiz-adv-x="1673" 
d="M427 1192q-171 -184 -171 -465t177 -462t430 -181t407 145t159 379h-505v115h651v-16q0 -350 -191 -548t-525 -198t-540 212t-206 556q0 328 207 548t532 220q452 0 627 -317l-97 -84q-181 280 -512 280q-272 0 -443 -184zM838 1733q90 1 136 31t57 98h81
q-12 -124 -78 -182t-196 -58t-196 58t-78 182h79q11 -67 58 -98t137 -31z" />
    <glyph glyph-name="gbreve" unicode="&#x11f;" horiz-adv-x="1108" 
d="M522 807q-140 -1 -220 -99t-79 -270q-1 -172 75 -266q76 -96 214 -96t224 101t85 271q0 170 -80 264q-79 95 -219 95zM819 -16v180q-41 -95 -125 -149t-194 -54q-186 0 -298 130t-112 348q0 217 114 349t302 132q104 0 190 -54t123 -145v166h125v-733q0 -320 -44 -412
q-90 -188 -378 -188q-353 0 -395 276h154q30 -166 251 -166q82 0 148 29t92 71q28 42 38 86t9 134zM556 1155q90 1 136 31t56 98h81q-11 -124 -77 -182t-197 -58t-197 58t-77 182h79q11 -67 58 -98q48 -31 138 -31z" />
    <glyph glyph-name="Idotaccent" unicode="&#x130;" horiz-adv-x="498" 
d="M182 0v1464h133v-1464h-133zM148 1766q0 42 30 73t72 31t72 -30t30 -74q0 -42 -30 -72t-72 -31q-42 1 -72 31t-30 72z" />
    <glyph glyph-name="dotlessi" unicode="&#x131;" horiz-adv-x="471" 
d="M172 0v887h127v-887h-127z" />
    <glyph glyph-name="Lslash" unicode="&#x141;" horiz-adv-x="856" 
d="M193 0v672l-195 -135l-66 79l261 185v663h133v-592l237 166l64 -86l-301 -209v-618h501v-125h-634z" />
    <glyph glyph-name="lslash" unicode="&#x142;" horiz-adv-x="500" 
d="M313 0h-127v635l-149 -109l-57 82l206 148v794h127v-719l152 107l55 -82l-207 -147v-709z" />
    <glyph glyph-name="OE" unicode="&#x152;" horiz-adv-x="2320" 
d="M242 732q0 -266 180 -456t440 -190t439 189q178 189 178 463t-176 457t-437 183t-442 -190q-182 -190 -182 -456zM879 1499q399 0 604 -338v303h698v-125h-575v-458h575v-125h-575v-631h575v-125h-698v311q-97 -166 -257 -256t-366 -90t-380 106t-270.5 278t-96.5 384
q0 322 221 544t545 222z" />
    <glyph glyph-name="oe" unicode="&#x153;" horiz-adv-x="1841" 
d="M563 922q291 0 412 -234q41 109 138 171.5t226 62.5q187 0 298.5 -124.5t111.5 -334.5v-21h-705q0 -165 81.5 -265.5t211.5 -100.5q207 0 301 213l117 -64q-137 -264 -403 -264q-136 0 -238.5 65t-138.5 173q-57 -113 -164 -175.5t-223 -62.5q-218 0 -357 140t-139 340
t103 303t190.5 140.5t177.5 37.5zM1333 805q-117 0 -194 -73t-86 -187h551q-8 123 -81 191.5t-190 68.5zM573 76q146 0 247.5 105.5t101.5 259.5t-101 259t-247 105t-247.5 -105t-101.5 -259t101 -259.5t247 -105.5z" />
    <glyph glyph-name="Scedilla" unicode="&#x15e;" horiz-adv-x="1020" 
d="M498 80q124 0 202 82t78 208t-52 195q-52 71 -250 175q-197 104 -270 193t-73 229q-1 140 105 239q106 98 274 98q222 0 324 -186l-103 -62q-66 129 -229 129q-108 0 -172 -64t-64 -171q0 -154 252 -286t319 -228q66 -96 66 -242q0 -197 -107 -305t-270 -121v-63h15
q103 0 158 -40t55 -112q0 -164 -215 -164q-98 0 -242 37v70q162 -33 225 -33q125 0 125 89t-141 89l-41 -2v127q-283 5 -397 285l114 61q32 -107 110 -167q80 -60 204 -60z" />
    <glyph glyph-name="scedilla" unicode="&#x15f;" horiz-adv-x="782" 
d="M569 221q0 102 -172 168t-232 127q-59 62 -59 162t80 172t198 72q232 0 304 -181l-113 -63q-43 129 -190 129q-63 1 -105 -37t-42 -94t41 -91q41 -36 179 -83t188 -107t50 -174t-82 -183t-205 -76v-62h15q103 0 158 -40t55 -112q0 -164 -215 -164q-98 0 -242 37v70
q162 -33 225 -33q125 0 125 89t-141 89l-41 -2v128q-96 5 -172 54q-77 48 -113 142l117 67q58 -149 219 -149q78 0 124 40t46 105z" />
    <glyph glyph-name="Scaron" unicode="&#x160;" horiz-adv-x="1020" 
d="M504 1380q-108 0 -172 -64t-64 -171q0 -154 252 -286t319 -228q66 -96 66 -242q0 -197 -115 -313t-313 -115q-291 0 -407 285l114 61q32 -107 110 -167t204 -60q124 0 202 82t78 208t-52 195q-52 71 -250 175q-197 104 -270 193t-73 229q-1 140 105 239q106 98 274 98
q222 0 324 -186l-103 -62q-66 129 -229 129zM795 1958l-213 -350h-146l-213 350h92l195 -250l193 250h92z" />
    <glyph glyph-name="scaron" unicode="&#x161;" horiz-adv-x="782" 
d="M569 221q0 102 -172 168t-232 127q-59 62 -59 162t80 172t198 72q232 0 304 -181l-113 -63q-43 129 -190 129q-63 1 -105 -37t-42 -94t41 -91q41 -36 179 -83t188 -107t50 -174t-87 -187t-217 -73q-254 0 -329 197l117 67q58 -149 219 -149q78 0 124 40t46 105zM676 1380
l-213 -350h-146l-213 350h92l195 -250l193 250h92z" />
    <glyph glyph-name="Ydieresis" unicode="&#x178;" horiz-adv-x="1118" 
d="M496 0v674l-486 790h160l393 -671l395 671h152l-481 -790v-674h-133zM287 1764q0 42 28 71t68 29t69 -29t29 -69t-28 -68t-70 -28t-69 26t-27 68zM637 1765q0 41 29 70t69 29t68 -29t28 -70t-27 -68t-69 -27t-70 27t-28 68z" />
    <glyph glyph-name="Zcaron" unicode="&#x17d;" horiz-adv-x="1147" 
d="M152 1343v121h970l-866 -1341h778v-123h-1009l870 1343h-743zM858 1958l-213 -350h-146l-213 350h92l195 -250l193 250h92z" />
    <glyph glyph-name="zcaron" unicode="&#x17e;" horiz-adv-x="780" 
d="M57 776v111h674l-491 -776h505v-111h-722l495 776h-461zM676 1380l-213 -350h-146l-213 350h92l195 -250l193 250h92z" />
    <glyph glyph-name="florin" unicode="&#x192;" horiz-adv-x="1180" 
d="M279 -330q70 0 103.5 68t63.5 348l82 739h-163l10 95h164l20 182q23 207 89.5 292t201.5 85q71 0 127 -29l-21 -107q-63 23 -122 23q-58 0 -92 -49t-54 -223l-18 -174h194l-6 -95h-199l-88 -800q-31 -278 -94.5 -377t-197.5 -99q-45 2 -92 15l31 118q22 -12 61 -12z" />
    <glyph glyph-name="circumflex" unicode="&#x2c6;" 
d="M225 1030l213 350h146l213 -350h-92l-193 250l-195 -250h-92z" />
    <glyph glyph-name="caron" unicode="&#x2c7;" 
d="M797 1380l-213 -350h-146l-213 350h92l195 -250l193 250h92z" />
    <glyph glyph-name="breve" unicode="&#x2d8;" 
d="M512 1155q90 0 136 30.5t57 98.5h81q-12 -124 -77.5 -182t-196.5 -58t-196.5 58t-77.5 182h79q11 -67 58 -98t137 -31z" />
    <glyph glyph-name="dotaccent" unicode="&#x2d9;" 
d="M410 1188q0 42 30 73t72 31t72 -31t30 -73t-30.5 -72.5t-71.5 -30.5t-71.5 30.5t-30.5 72.5z" />
    <glyph glyph-name="ring" unicode="&#x2da;" 
d="M264 1260q0 104 72 175.5t176 71.5t176 -71.5t72 -175.5t-72 -176t-176 -72t-176 72t-72 176zM371 1260q0 -60 40.5 -102t100.5 -42t101.5 42t41.5 102t-41.5 100.5t-101.5 40.5t-100.5 -40.5t-40.5 -100.5z" />
    <glyph glyph-name="ogonek" unicode="&#x2db;" 
d="M535 -434q-222 0 -222 154q0 74 41 134.5t148 145.5h71q-143 -127 -143 -236q0 -46 23 -66t77 -20h84v-112h-79z" />
    <glyph glyph-name="tilde" unicode="&#x2dc;" 
d="M604 1110q-31 0 -65 10l-80 27q-24 8 -58 8q-61 0 -92 -61h-88q45 178 199 178q35 0 59 -8l78 -27q34 -10 61 -10q73 0 97 67h88q-51 -184 -199 -184z" />
    <glyph glyph-name="hungarumlaut" unicode="&#x2dd;" 
d="M322 1030l147 350h158l-221 -350h-84zM580 1030l168 350h155l-239 -350h-84z" />
    <glyph glyph-name="Omega" unicode="&#x3a9;" horiz-adv-x="1585" 
d="M1456 786q0 -405 -360 -665h356v-121h-573v102q438 273 438 684q0 269 -146.5 438t-377.5 169t-378 -169t-147 -438q0 -411 439 -684v-102h-572v121h354q-360 260 -360 665q0 317 188.5 522t474.5 205t475 -205t189 -522z" />
    <glyph glyph-name="pi" unicode="&#x3c0;" horiz-adv-x="1155" 
d="M772 205q0 -107 92 -107q68 0 109 10l-25 -108q-52 -16 -96 -16q-92 0 -145.5 54t-53.5 147t56 352l88 421h-381l-203 -958h-121l201 958h-39q-55 0 -85.5 -32t-41.5 -101h-121q25 135 85 186.5t206 51.5h829l-24 -105h-182l-119 -565q-29 -129 -29 -188z" />
    <glyph glyph-name="endash" unicode="&#x2013;" 
d="M0 481h1024v-80h-1024v80z" />
    <glyph glyph-name="emdash" unicode="&#x2014;" horiz-adv-x="2048" 
d="M0 401v80h2048v-80h-2048z" />
    <glyph glyph-name="quoteleft" unicode="&#x2018;" horiz-adv-x="590" 
d="M467 1466l-195 -540l-149 67l262 504z" />
    <glyph glyph-name="quoteright" unicode="&#x2019;" horiz-adv-x="590" 
d="M123 958l194 539l150 -65l-262 -506z" />
    <glyph glyph-name="quotesinglbase" unicode="&#x201a;" horiz-adv-x="590" 
d="M324 254l145 -61l-264 -515l-84 39z" />
    <glyph glyph-name="quotedblleft" unicode="&#x201c;" horiz-adv-x="877" 
d="M449 1466l-195 -540l-148 67l261 504zM772 1466l-194 -540l-150 67l262 504z" />
    <glyph glyph-name="quotedblright" unicode="&#x201d;" horiz-adv-x="877" 
d="M106 958l193 539l150 -65l-263 -506zM428 958l195 539l149 -65l-262 -506z" />
    <glyph glyph-name="quotedblbase" unicode="&#x201e;" horiz-adv-x="877" 
d="M106 -287l193 541l150 -68l-263 -505zM428 -287l195 541l149 -68l-262 -505z" />
    <glyph glyph-name="dagger" unicode="&#x2020;" horiz-adv-x="1042" 
d="M461 -446v1220h-361v115h361v575h123v-575h360v-115h-360v-1220h-123z" />
    <glyph glyph-name="daggerdbl" unicode="&#x2021;" horiz-adv-x="1042" 
d="M459 -446v485h-359v113h359v720h-359v113h359v479h123v-479h362v-113h-362v-720h362v-113h-362v-485h-123z" />
    <glyph glyph-name="bullet" unicode="&#x2022;" horiz-adv-x="1208" 
d="M307 762q0 123 87.5 209t209.5 86t208.5 -86.5t86.5 -208.5t-87.5 -209.5t-209.5 -87.5t-208.5 87t-86.5 210z" />
    <glyph glyph-name="ellipsis" unicode="&#x2026;" horiz-adv-x="2048" 
d="M240 84q0 42 30 72t72 30t72 -30t30 -72t-30 -72t-72 -30t-72 30t-30 72zM922 84q0 42 30 72t72 30t72 -30t30 -72t-30 -72t-72 -30t-72 30t-30 72zM1606 84q0 42 30 72t72 30t72 -30t30 -72t-30 -72t-72 -30t-72 30t-30 72z" />
    <glyph glyph-name="perthousand" unicode="&#x2030;" horiz-adv-x="2204" 
d="M270 -39l840 1518h109l-842 -1518h-107zM649 1104q0 -177 -78.5 -276t-216.5 -99t-215.5 98.5t-77.5 276.5t77.5 276.5t215.5 98.5t216.5 -99t78.5 -276zM530 1106q0 280 -176 280q-84 0 -129 -72t-45 -209t44.5 -209.5t129.5 -72.5t130.5 73.5t45.5 209.5zM1434 334
q0 -177 -78 -275t-217 -98t-216 98t-77 275t77 276t216 99t217 -99t78 -276zM1315 336q0 280 -176 280q-85 0 -129.5 -72t-44.5 -209t44.5 -209.5t128.5 -72.5t130.5 73.5t46.5 209.5zM2142 334q0 -177 -77 -275t-216 -98t-217 98t-78 275t78 276t217 99t216 -99t77 -276z
M2023 336q0 280 -174 280q-84 0 -130 -72.5t-46 -208.5t45.5 -209t129.5 -73t129.5 73t45.5 210z" />
    <glyph glyph-name="guilsinglleft" unicode="&#x2039;" horiz-adv-x="422" 
d="M295 51l-252 385l244 395l86 -51l-209 -346l215 -332z" />
    <glyph glyph-name="guilsinglright" unicode="&#x203a;" horiz-adv-x="422" 
d="M125 51l-82 51l215 332l-211 346l88 51l244 -395z" />
    <glyph glyph-name="franc" unicode="&#x20a3;" horiz-adv-x="1671" 
d="M182 0v1464h725v-125h-592v-458h570v-125h-570v-756h-133zM1581 799q-111 0 -189 -104t-79 -259v-436h-123v887h123v-178q67 115 133 163t135 48t123 -19l-40 -116q-47 14 -83 14z" />
    <glyph glyph-name="trademark" unicode="&#x2122;" horiz-adv-x="1706" 
d="M694 1454v-51h-174v-479h-67v479h-179v51h420zM1364 1454v-530h-59v479l-181 -479h-49l-190 479v-479h-60v530h101l174 -440l162 440h102z" />
    <glyph glyph-name="partialdiff" unicode="&#x2202;" 
d="M713 459q0 256 -185 256q-117 0 -190.5 -125t-73.5 -330q0 -117 47.5 -179.5t137.5 -62.5q114 0 189 125.5t75 315.5zM772 883q0 354 -154 354q-45 0 -99.5 -73.5t-108.5 -73.5q-29 0 -48.5 18.5t-19.5 46.5q0 59 61 102t148 43q160 0 254 -147t94 -401
q0 -335 -131.5 -557t-323.5 -222q-139 0 -224 105t-85 279t107 297.5t258 123.5q191 0 250 -200q22 138 22 305z" />
    <glyph glyph-name="Delta" unicode="&#x2206;" horiz-adv-x="1335" 
d="M754 1473l592 -1473h-1358l594 1473h172zM1155 121l-487 1233l-490 -1233h977z" />
    <glyph glyph-name="product" unicode="&#x220f;" horiz-adv-x="1491" 
d="M164 1473h1163v-1866h-135v1743h-893v-1743h-135v1866z" />
    <glyph glyph-name="summation" unicode="&#x2211;" horiz-adv-x="1290" 
d="M45 1473h1208v-123h-1038l721 -787l-760 -835h1077v-121h-1243v127l752 829l-717 787v123z" />
    <glyph glyph-name="minus" unicode="&#x2212;" horiz-adv-x="1706" 
d="M1452 651v-82h-1198v82h1198z" />
    <glyph glyph-name="fraction" unicode="&#x2215;" horiz-adv-x="342" 
d="M-342 -39l917 1518h107l-915 -1518h-109z" />
    <glyph glyph-name="periodcentered" unicode="&#x2219;" horiz-adv-x="590" 
d="M193 719q0 43 29.5 72.5t72.5 29.5t72.5 -29.5t29.5 -72.5t-29.5 -73t-72.5 -30t-72.5 30t-29.5 73z" />
    <glyph glyph-name="radical" unicode="&#x221a;" horiz-adv-x="1264" 
d="M1264 1626v-61h-129l-596 -1606h-31l-330 907l-110 -39l-15 50l230 79l278 -759l531 1429h172z" />
    <glyph glyph-name="infinity" unicode="&#x221e;" horiz-adv-x="1706" 
d="M1159 987q130 0 219.5 -106t89.5 -268t-80 -263.5t-210 -101.5q-94 0 -165.5 60.5t-142.5 201.5q-71 -139 -148.5 -203.5t-172.5 -64.5q-130 0 -220.5 106t-90.5 268t80 263.5t210 101.5q98 0 172.5 -64.5t135.5 -203.5q130 274 323 274zM532 874q-108 0 -176.5 -77
t-68.5 -197t63.5 -197t155.5 -77t162 76t151 268q-104 204 -287 204zM1421 628q0 120 -63.5 197.5t-155.5 77.5t-162 -77.5t-151 -268.5q107 -205 287 -205q107 0 176 78t69 198z" />
    <glyph glyph-name="integral" unicode="&#x222b;" horiz-adv-x="948" 
d="M401 565q0 511 86.5 746t268.5 235q65 0 106 -35t41 -85t-27.5 -76.5t-74.5 -26.5q-77 0 -101.5 64.5t-33.5 64.5q-67 0 -93 -159t-26 -677t-85.5 -752.5t-268.5 -234.5q-64 0 -106 34.5t-42 83.5t28.5 78.5t68.5 29.5q101 0 111 -65.5t30 -65.5q66 0 92 165t26 676z" />
    <glyph glyph-name="approxequal" unicode="&#x2248;" horiz-adv-x="1706" 
d="M1143 664q-106 0 -295.5 69.5t-277.5 69.5t-176 -35.5t-216 -124.5v92q209 148 387 148q106 0 295.5 -71t276.5 -71t174.5 36t218.5 126v-94q-209 -145 -387 -145zM570 479q-88 0 -176 -35.5t-216 -124.5v93q209 145 387 145q106 0 295.5 -69.5t277.5 -69.5t176 35.5
t216 124.5v-93q-211 -147 -387 -147q-106 0 -295.5 70.5t-277.5 70.5z" />
    <glyph glyph-name="notequal" unicode="&#x2260;" horiz-adv-x="1706" 
d="M1452 831v-79h-440l-219 -283h659v-82h-711l-254 -324l-61 48l215 276h-387v82h436l221 283h-657v79h709l254 326l63 -49l-217 -277h389z" />
    <glyph glyph-name="lessequal" unicode="&#x2264;" horiz-adv-x="1706" 
d="M1442 1083l-1043 -350l1043 -352v-88l-1178 405v70l1178 403v-88zM1442 129v-80h-1178v80h1178z" />
    <glyph glyph-name="greaterequal" unicode="&#x2265;" horiz-adv-x="1706" 
d="M1442 768v-70l-1178 -405v88l1043 352l-1043 350v88zM1442 129v-80h-1178v80h1178z" />
    <glyph glyph-name="lozenge" unicode="&#x25ca;" horiz-adv-x="1012" 
d="M506 1653l500 -1061l-500 -1069l-500 1069zM506 1409l-385 -817l385 -825l385 825z" />
    <glyph glyph-name="apple" unicode="&#xf000;" horiz-adv-x="1618" 
d="M1272 741q0 -113 60 -200t173 -138q-114 -247 -205 -342.5t-204 -95.5q-50 0 -131.5 33t-124.5 33t-129.5 -33t-138.5 -33t-116 44t-148 158t-139.5 269.5t-55.5 300.5q0 219 125 356.5t323 137.5q68 0 154.5 -34t122.5 -34t123 35t175 35q194 0 337 -164
q-201 -128 -201 -328zM834 1253q0 124 95 229.5t236 131.5q2 -20 2 -62q0 -131 -103.5 -234.5t-203.5 -103.5h-8l-16 2q-2 12 -2 37z" />
    <glyph glyph-name="fi" unicode="&#xf001;" horiz-adv-x="967" 
d="M422 1464q-52 0 -79.5 -51.5t-27.5 -189.5v-336h195v-105h-195v-782h-122v782h-166v105h166v256q0 267 50 346.5t183 79.5q64 0 119 -21l-23 -108q-48 24 -100 24zM668 0v887h127v-887h-127zM637 1232q0 40 27.5 67.5t66.5 27.5t66.5 -27.5t27.5 -67.5t-26.5 -66.5
t-66.5 -26.5t-67.5 26.5t-27.5 66.5z" />
    <glyph glyph-name="fl" unicode="&#xf002;" horiz-adv-x="977" 
d="M422 1464q-52 0 -79.5 -51.5t-27.5 -189.5v-336h195v-105h-195v-782h-122v782h-166v105h166v256q0 267 50 346.5t183 79.5q64 0 119 -21l-23 -108q-48 24 -100 24zM678 0v1550h125v-1550h-125z" />
    </font>
</defs>
</svg>
