<?xml version="1.0" standalone="no"?>
<!DOCTYPE svg PUBLIC "-//W3C//DTD SVG 1.1//EN" "http://www.w3.org/Graphics/SVG/1.1/DTD/svg11.dtd" >
<svg xmlns="http://www.w3.org/2000/svg">
<metadata>
Created by FontPrep 20130207 at Fri May 23 23:10:44 2014
 By Victor
Copyright (c) 2014 by Antonio Rodrigues Jr. All rights reserved.
</metadata>
<defs>
<font id="ee1611b61f5688e70c12b40684dbb395" horiz-adv-x='1024' >
  <font-face 
    font-family="Berlin"
    font-weight="400"
    font-stretch="normal"
    units-per-em="2048"
    panose-1="2 0 5 6 0 0 0 2 0 2"
    ascent="1536"
    descent="-512"
    x-height="1022"
    cap-height="1434"
    bbox="-152 -508 1804 1848"
    underline-thickness="102"
    underline-position="-102"
    unicode-range="U+0020-2212"
  />
<missing-glyph horiz-adv-x="516" 
 />
    <glyph glyph-name=".notdef" horiz-adv-x="516" 
 />
    <glyph glyph-name=".null" horiz-adv-x="0" 
 />
    <glyph glyph-name="nonmarkingreturn" horiz-adv-x="681" 
 />
    <glyph glyph-name="space" unicode=" " horiz-adv-x="516" 
 />
    <glyph glyph-name="exclam" unicode="!" horiz-adv-x="262" 
d="M41 89q0 40 24.5 65.5t64.5 25.5t65.5 -25.5t25.5 -65.5t-25.5 -64.5t-65.5 -24.5t-64.5 24.5t-24.5 64.5zM209 397h-154l-6 1033h160v-1033z" />
    <glyph glyph-name="quotedbl" unicode="&#x22;" horiz-adv-x="487" 
d="M365 1137h-123l82 297h122zM164 1137h-123l82 297h123z" />
    <glyph glyph-name="numbersign" unicode="#" horiz-adv-x="931" 
d="M604 641h-213l-31 -135q-21 -91 -28 -133h213zM41 260v113h180q13 66 29 133l31 135h-240v115h262l53 258h107l-49 -258h213l37 178l12 80h110l-53 -258h158v-115h-180q-6 -33 -14.5 -66.5t-14.5 -68.5t-13 -66.5t-14 -66.5h236v-113h-256q-13 -70 -29 -133l-24 -127
h-113l53 260h-215q-6 -29 -11 -58.5t-11 -61.5t-14.5 -68.5t-14.5 -71.5h-106l49 260h-158z" />
    <glyph glyph-name="dollar" unicode="$" horiz-adv-x="1011" 
d="M258 940q0 -90 53.5 -136t149.5 -77v369q-111 -10 -157 -56t-46 -100zM813 306q0 96 -54.5 145t-164.5 86v-396q111 12 165 58.5t54 106.5zM971 340q0 -147 -101.5 -232t-275.5 -102v-211h-133v209q-256 12 -420 201l113 108q125 -152 307 -172v430q-164 43 -230.5 91.5
t-97.5 105t-31 126.5q0 142 86 234t273 103v203h133v-203q231 -18 375 -195l-111 -96q-90 129 -264 154v-406q178 -51 244.5 -98t99.5 -105.5t33 -144.5z" />
    <glyph glyph-name="uni0025" unicode="%" horiz-adv-x="995" 
d="M471 1230q0 -85 -52.5 -143.5t-154.5 -58.5t-158.5 59.5t-56.5 143.5t56.5 141.5t157.5 57.5t154.5 -57.5t53.5 -142.5zM286 1114q85 0 85 115q0 49 -26 85t-109.5 36t-83.5 -121q0 -47 24.5 -81t109.5 -34zM182 0h-141l762 1430h141zM954 202q0 -85 -53 -143.5
t-155 -58.5t-158 59.5t-56 143.5t56.5 141t157.5 57t154.5 -57t53.5 -142zM746.5 86q107.5 0 107.5 82t-25.5 118t-107.5 36t-82 -118t107.5 -118z" />
    <glyph glyph-name="ampersand" unicode="&#x26;" horiz-adv-x="1226" 
d="M498 121q203 0 342 143l-371 451q-139 -82 -196.5 -149t-57.5 -171t81 -189t202 -85zM745 1134q0 81 -52 131t-127 50t-127 -48t-52 -124q0 -39 25.5 -83t66.5 -99l53 -62q109 57 161 105.5t52 129.5zM41 397q0 129 84 228.5t258 195.5q-78 100 -118 173t-40 132
q-1 136 99 224t248 88t242 -87q93 -87 93 -223t-108.5 -213t-180.5 -120l312 -381q75 101 78 252h151q-16 -216 -119 -387l146 -181q-37 -33 -127 -108l-127 155q-176 -160 -438 -159q-195 0 -326 118q-127 119 -127 293z" />
    <glyph glyph-name="quotesingle" unicode="'" horiz-adv-x="204" 
d="M164 1137h-123v297h123v-297z" />
    <glyph glyph-name="parenleft" unicode="(" horiz-adv-x="544" 
d="M41 692q0 292 95.5 509t240.5 394h127q-334 -420 -334 -903q0 -392 132 -603.5t202 -299.5h-127q-156 200 -246 405.5t-90 497.5z" />
    <glyph glyph-name="parenright" unicode=")" horiz-adv-x="544" 
d="M375 691q0 275 -89 491.5t-245 412.5h127q151 -190 213.5 -333.5t92.5 -276.5t30 -357t-90 -431t-246 -408h-127q334 420 334 902z" />
    <glyph glyph-name="asterisk" unicode="*" horiz-adv-x="768" 
d="M330 1434h102l2 -283l264 84l29 -90l-266 -96l174 -224l-76 -57l-176 219l-172 -217l-82 55l160 230l-248 92l31 90l258 -86v283z" />
    <glyph glyph-name="plus" unicode="+" horiz-adv-x="983" 
d="M434 68v393h-393v112h393v396h113v-396h395v-112h-395v-393h-113z" />
    <glyph glyph-name="comma" unicode="," horiz-adv-x="346" 
d="M41 -297l133 502h131l-141 -502h-123z" />
    <glyph glyph-name="hyphen" unicode="-" horiz-adv-x="491" 
d="M41 455v120h410v-120h-410z" />
    <glyph glyph-name="period" unicode="." horiz-adv-x="280" 
d="M41 98q0 43 27.5 72t70.5 29t72 -29t29 -72t-29 -70.5t-72 -27.5t-70.5 27.5t-27.5 70.5z" />
    <glyph glyph-name="slash" unicode="/" horiz-adv-x="749" 
d="M41 0l551 1434h117l-551 -1434h-117z" />
    <glyph glyph-name="zero" unicode="0" horiz-adv-x="1097" 
d="M920 698q0 267 -106 427.5t-268 160.5t-270 -158.5t-108 -429.5t107.5 -431.5t271.5 -160.5q162 0 267.5 162.5t105.5 429.5zM41 696q0 327 142.5 524t365.5 197t365.5 -197t142.5 -524t-142 -520.5t-366 -193.5t-366 193.5t-142 520.5z" />
    <glyph glyph-name="one" unicode="1" horiz-adv-x="223" 
d="M41 0v1380l141 54v-1434h-141z" />
    <glyph glyph-name="two" unicode="2" horiz-adv-x="931" 
d="M631 1206q-76 80 -191 80q-222 0 -282 -184l-117 98q53 104 156 167t215 63q208 0 322 -121.5t114 -297.5t-106.5 -307t-147.5 -176l-356 -393h653v-135h-836v147l418 453q112 130 173 223.5t61 197.5q0 105 -76 185z" />
    <glyph glyph-name="three" unicode="3" horiz-adv-x="995" 
d="M55 1276q154 166 376 166q214 0 337 -92t123 -267q0 -119 -62.5 -200.5t-166.5 -116.5q129 -35 210.5 -125t81.5 -244q0 -192 -140.5 -300.5t-352.5 -108.5q-135 0 -232.5 40t-187.5 130l115 96q107 -139 305 -139q160 0 252 74.5t92 212.5t-110.5 210t-309.5 72h-47v141
h51q155 0 252.5 66.5t97.5 177.5t-81.5 178.5t-194.5 67.5q-112 0 -179 -32t-122 -97z" />
    <glyph glyph-name="four" unicode="4" horiz-adv-x="1042" 
d="M729 528l-2 643l-487 -643h489zM729 2v381h-688v109l702 940h129v-904h129v-145h-129v-381h-143z" />
    <glyph glyph-name="five" unicode="5" horiz-adv-x="1003" 
d="M447 963q218 0 367 -114t149 -357q0 -193 -142.5 -346.5t-353.5 -153.5q-139 0 -237.5 43t-188.5 129l111 100q99 -129 315 -129q151 0 252.5 103t101.5 258t-112.5 241t-290.5 86t-297 -37l61 648h670v-146h-547l-31 -334q78 9 173 9z" />
    <glyph glyph-name="six" unicode="6" horiz-adv-x="1036" 
d="M188 507q0 -61 24 -135.5t94 -164.5t222 -90t238 92.5t86 235.5t-84 227t-200 84q-212 0 -371 -152q-9 -36 -9 -97zM41 570q0 130 42 272.5t188.5 335.5t543.5 266l41 -125q-287 -68 -439.5 -199t-201.5 -348v-2q76 72 159 99.5t183 27.5t176 -30.5t134.5 -87t93 -138.5
t34.5 -237.5t-129 -286.5t-347 -131t-348 163.5t-130 420.5z" />
    <glyph glyph-name="seven" unicode="7" horiz-adv-x="925" 
d="M326 51v-47h-142v43q0 238 84 408t199 381t242 452h-668v146h844v-111l-242 -438q-61 -115 -189 -354.5t-128 -479.5z" />
    <glyph glyph-name="eight" unicode="8" horiz-adv-x="1075" 
d="M330.5 910q78.5 -66 208.5 -81q193 20 238.5 108.5t45.5 140.5q0 101 -83 165t-205 64h-7q-115 -4 -195.5 -67.5t-80.5 -163.5t78.5 -166zM881 397q0 129 -90.5 200t-251.5 83q-164 -12 -254 -83t-90 -200q0 -80 32 -141q55 -68 138.5 -102.5t169.5 -34.5t171 33.5
t142 103.5q33 57 33 141zM41 386q0 165 82 255t211 125q-104 35 -167 117t-63 186q0 190 124 281.5t315 91.5h8q76 0 135 -19q127 -31 206 -115t79 -214t-62.5 -211.5t-167.5 -116.5q129 -35 211 -125t82 -255t-116 -270.5t-293 -121.5l-25 -4l-37 -2h-47l-65 6
q-178 17 -294 122t-116 270z" />
    <glyph glyph-name="nine" unicode="9" horiz-adv-x="1036" 
d="M848 920q0 63 -23.5 138t-94 165t-222.5 90q-151 0 -237.5 -92.5t-86.5 -235.5t84 -227t200 -84q209 0 372 151q8 32 8 95zM995 859q0 -130 -42 -272.5t-189 -335t-543 -265.5l-41 125q423 98 520 268t121 278v2q-76 -72 -158.5 -99.5t-182.5 -27.5q-189 0 -314 121.5
t-125 324.5t129.5 334.5t347.5 131.5t347.5 -164t129.5 -421z" />
    <glyph glyph-name="colon" unicode=":" horiz-adv-x="280" 
d="M41 922q0 43 27.5 71.5t70.5 28.5t72 -28.5t29 -71.5t-29 -71t-72 -28t-70.5 28t-27.5 71zM41 98q0 43 27.5 72t70.5 29t72 -29t29 -72t-29 -70.5t-72 -27.5t-70.5 27.5t-27.5 70.5z" />
    <glyph glyph-name="semicolon" unicode=";" horiz-adv-x="374" 
d="M135 922q0 43 27.5 71.5t70.5 28.5t72 -28.5t29 -71.5t-29 -71t-72 -28t-70.5 28t-27.5 71zM41 -313l139 501h131l-141 -501h-129z" />
    <glyph glyph-name="less" unicode="&#x3c;" horiz-adv-x="520" 
d="M328 133l-287 344l287 344h151l-268 -344l72 -92q139 -169 196 -252h-151z" />
    <glyph glyph-name="equal" unicode="=" horiz-adv-x="927" 
d="M41 686v137h846v-137h-846zM41 289v131h846v-131h-846z" />
    <glyph glyph-name="greater" unicode="&#x3e;" horiz-adv-x="520" 
d="M41 133l268 344q-33 41 -66.5 82t-64.5 80l-137 182h152l286 -344l-286 -344h-152z" />
    <glyph glyph-name="question" unicode="?" horiz-adv-x="833" 
d="M41 1270q155 164 351 164q182 0 291.5 -90t109.5 -261q0 -209 -332 -432v-332h-133l-6 422q190 117 236 163t64.5 86t18.5 93q0 106 -67.5 159.5t-160.5 53.5t-152.5 -32.5t-113.5 -98.5zM297 96q0 41 27.5 69t68.5 28t68.5 -28t27.5 -69t-27.5 -68.5t-68.5 -27.5
t-68.5 27.5t-27.5 68.5z" />
    <glyph glyph-name="at" unicode="@" horiz-adv-x="1398" 
d="M885 862q0 166 -212 166q-109 0 -192 -104l-86 96q106 131 297 131q145 0 233.5 -69.5t88.5 -204.5v-377q0 -56 57 -56q150 0 150 332q0 114 -38 217t-142.5 210.5t-347.5 107.5t-382 -170.5t-139 -430.5t135.5 -425.5t333 -165.5t298.5 34.5t187 122.5l66 -96
q-188 -180 -498 -180q-311 0 -482 197t-171 506t174 515.5t475 206.5t484.5 -180t183.5 -483q0 -208 -86 -317t-214 -109t-161 94q-104 -108 -241 -108q-138 0 -217 66.5t-79 186.5t87.5 184t209.5 64q123 0 228 -35v74zM487 560q0 -50 46.5 -86t115.5 -36t132 36t104 89
v103q-101 43 -216 43t-148.5 -49.5t-33.5 -99.5z" />
    <glyph glyph-name="A" unicode="A" 
d="M420 586h424l-211 600zM899 434h-532l-154 -434h-172l510 1434h164l510 -1434h-172z" />
    <glyph glyph-name="B" unicode="B" horiz-adv-x="1107" 
d="M193 1282v-463h411q96 0 164 68t68 164.5t-68.5 163.5t-163.5 67h-411zM193 152h464q107 0 185 81.5t78 189.5t-77.5 176.5t-185.5 68.5h-464v-516zM1067 422q0 -181 -119 -301.5t-293 -120.5h-614v1434h561q156 0 269.5 -112t113.5 -277t-129 -281q94 -53 152.5 -147.5
t58.5 -194.5z" />
    <glyph glyph-name="C" unicode="C" horiz-adv-x="1222" 
d="M205.5 206.5q-164.5 214.5 -164.5 518.5t163.5 515.5t473.5 211.5t504 -229l-109 -97q-84 104 -180 139t-218 35q-231 0 -356.5 -165.5t-125.5 -411.5t126 -414t361 -168q117 0 213 38t180 143l109 -97q-198 -233 -505 -233t-471.5 214.5z" />
    <glyph glyph-name="D" unicode="D" horiz-adv-x="1290" 
d="M948.5 1132.5q-145.5 149.5 -397.5 149.5h-358v-1130h358q263 0 403 151t140 416q0 264 -145.5 413.5zM1249 718q0 -312 -178.5 -515t-509.5 -203h-520v1434h520q336 0 512 -202.5t176 -513.5z" />
    <glyph glyph-name="E" unicode="E" horiz-adv-x="942" 
d="M41 0v1434h854v-152h-702v-461h638v-151h-638v-518h708v-152h-860z" />
    <glyph glyph-name="F" unicode="F" horiz-adv-x="935" 
d="M41 0v1434h854v-152h-702v-461h638v-151h-638v-670h-152z" />
    <glyph glyph-name="G" unicode="G" horiz-adv-x="1243" 
d="M215.5 207.5q-174.5 215.5 -174.5 518.5t163.5 514.5t473.5 211.5t504 -229l-109 -97q-84 104 -180 139t-218 35q-231 0 -356.5 -165.5t-125.5 -410.5t135.5 -414t362.5 -169t360 131v398h-408v151h559v-596q-198 -233 -505 -233t-481.5 215.5z" />
    <glyph glyph-name="H" unicode="H" horiz-adv-x="1093" 
d="M901 0v670h-708v-670h-152v1434h152v-613h708v613h152v-1434h-152z" />
    <glyph glyph-name="I" unicode="I" horiz-adv-x="233" 
d="M41 0v1434h152v-1434h-152z" />
    <glyph glyph-name="J" unicode="J" horiz-adv-x="894" 
d="M854 1434v-1012q0 -217 -106.5 -327.5t-309.5 -110.5q-129 0 -217.5 48t-179.5 169l115 106q53 -82 123.5 -127t192.5 -45t176 79t54 210v1010h152z" />
    <glyph glyph-name="K" unicode="K" horiz-adv-x="1128" 
d="M41 0v1434h152v-697l692 697h198l-696 -697l700 -737h-210l-684 733v-733h-152z" />
    <glyph glyph-name="L" unicode="L" horiz-adv-x="940" 
d="M41 0v1434h152v-1282h706v-152h-858z" />
    <glyph glyph-name="M" unicode="M" horiz-adv-x="1357" 
d="M1167 0v1135l-487 -795l-494 778v-1118h-145v1434h117l522 -834l522 834h115v-1434h-150z" />
    <glyph glyph-name="N" unicode="N" horiz-adv-x="1232" 
d="M188 0h-147v1434h123l880 -1162v1162h148v-1434h-127l-877 1161v-1161z" />
    <glyph glyph-name="O" unicode="O" horiz-adv-x="1417" 
d="M1376 725q0 -143 -42 -276.5t-126 -234.5t-210 -162.5t-291.5 -61.5t-289.5 61.5t-208 162.5t-126 234.5t-42 276.5t42 274t126 231.5t208 161t289.5 60.5t291.5 -60.5t210 -161t126 -231.5t42 -274zM1087 1134.5q-136 165.5 -379 165.5t-378 -164t-135 -412.5
t135.5 -415.5t379.5 -167t378.5 167t134.5 414t-136 412.5z" />
    <glyph glyph-name="P" unicode="P" horiz-adv-x="1026" 
d="M193 764h382q106 0 182.5 75t76.5 182t-77 184t-182 77h-382v-518zM193 612v-612h-152v1434h534q168 0 289 -121t121 -292t-120.5 -290t-289.5 -119h-382z" />
    <glyph glyph-name="Q" unicode="Q" horiz-adv-x="1417" 
d="M1087 1134.5q-136 165.5 -379 165.5t-378 -164t-135 -412.5t135.5 -415.5t379.5 -167t378.5 167t134.5 414t-136 412.5zM707 -10q-312 0 -489 213t-177 520t176.5 518t415.5 211t365 -60.5t252 -211t126 -455.5q0 -390 -174 -532t-291 -175l176 -223h-167l-152 199
q-32 -4 -61 -4z" />
    <glyph glyph-name="R" unicode="R" horiz-adv-x="1077" 
d="M193 764h382q106 0 182.5 75t76.5 182t-77 184t-182 77h-382v-518zM193 612v-612h-152v1434h534q168 0 289 -121t121 -291q0 -134 -78.5 -242t-204.5 -149l334 -631h-170l-336 612h-337z" />
    <glyph glyph-name="S" unicode="S" horiz-adv-x="1103" 
d="M578 1288q-145 0 -226.5 -60.5t-81.5 -148.5q0 -131 152 -189.5t210 -78.5q171 -59 301 -154.5t130 -276.5t-141.5 -285.5t-360.5 -104.5q-154 0 -280.5 57t-239.5 184l123 103q139 -189 401 -189q152 0 247 63.5t95 166.5q0 169 -323 277q-128 43 -202.5 70.5t-171.5 95
t-97 237.5q0 171 113.5 278t346.5 107q147 0 264 -47t222 -172l-133 -105q-115 172 -348 172z" />
    <glyph glyph-name="T" unicode="T" horiz-adv-x="946" 
d="M553 1282v-1282h-152v1282h-360v152h864v-152h-352z" />
    <glyph glyph-name="U" unicode="U" horiz-adv-x="1228" 
d="M530 137h104q84 0 243 53t159 304v940h152v-963q-8 -200 -139.5 -327t-335.5 -152l-76 -6h-25q-158 0 -358.5 89.5t-212.5 395.5v963h152v-940q0 -169 78.5 -236.5t158 -94t100.5 -26.5z" />
    <glyph glyph-name="V" unicode="V" 
d="M633 248l420 1186h172l-510 -1434h-164l-510 1434h172z" />
    <glyph glyph-name="W" unicode="W" horiz-adv-x="1845" 
d="M1403 0h-160l-313 1122l-322 -1122h-166l-401 1434h168l319 -1125l314 1125h168l313 -1125l313 1125h168z" />
    <glyph glyph-name="X" unicode="X" horiz-adv-x="1275" 
d="M238 0h-197l502 723l-494 711h197l391 -572l393 572h197l-496 -711l504 -723h-199l-399 584z" />
    <glyph glyph-name="Y" unicode="Y" horiz-adv-x="1251" 
d="M549 0v682l-508 752h180l404 -576l405 576h180l-508 -750l-2 -684h-151z" />
    <glyph glyph-name="Z" unicode="Z" horiz-adv-x="1124" 
d="M1083 152v-152h-1042v152l786 1130h-743v152h948v-150l-786 -1132h837z" />
    <glyph glyph-name="bracketleft" unicode="[" horiz-adv-x="348" 
d="M41 -203v1807h266v-123h-141v-1561h141v-123h-266z" />
    <glyph glyph-name="backslash" unicode="\" horiz-adv-x="749" 
d="M592 4l-551 1430h117l551 -1430h-117z" />
    <glyph glyph-name="bracketright" unicode="]" horiz-adv-x="348" 
d="M41 -203v123h139v1561h-139v123h266v-1807h-266z" />
    <glyph glyph-name="asciicircum" unicode="^" horiz-adv-x="583" 
d="M41 1202l190 232h121l191 -232h-140l-112 133l-111 -133h-139z" />
    <glyph glyph-name="underscore" unicode="_" horiz-adv-x="1105" 
d="M41 -426v113h1024v-113h-1024z" />
    <glyph glyph-name="grave" unicode="`" horiz-adv-x="413" 
d="M233 1202l-192 232h141l191 -232h-140z" />
    <glyph glyph-name="a" unicode="a" horiz-adv-x="917" 
d="M111 885q125 149 339 149q204 0 315.5 -92.5t111.5 -259.5v-682h-142v109q-80 -106 -183 -112.5t-168 -6.5q-145 0 -244 75t-99 228t112 239t298 86t284 -36v84q0 117 -72.5 179t-201.5 62q-82 0 -138.5 -19.5t-111.5 -88.5zM426 111q215 0 309 153v180q-63 29 -133 34
t-131 5q-128 0 -208.5 -45.5t-80.5 -142.5q0 -184 244 -184z" />
    <glyph glyph-name="b" unicode="b" horiz-adv-x="974" 
d="M406 117q180 0 279 109.5t99 295.5t-107.5 288.5t-289.5 102.5q-91 0 -203 -39v-724q97 -33 222 -33zM399 1036q225 0 380 -131t155 -376t-147 -390t-394 -145q-174 0 -352 55v1385h143v-428q113 30 215 30z" />
    <glyph glyph-name="c" unicode="c" horiz-adv-x="950" 
d="M909 158q-155 -164 -385 -164q-240 0 -361.5 150.5t-121.5 374.5t124 370.5t355 146.5q232 0 379 -164l-94 -94q-117 135 -286 135t-251 -109.5t-82 -280.5q0 -170 85.5 -288t262.5 -118t291 131z" />
    <glyph glyph-name="d" unicode="d" horiz-adv-x="974" 
d="M588 913q-182 0 -290 -102.5t-108 -288.5t99.5 -295.5t279.5 -109.5q128 0 222 33v724q-119 39 -203 39zM574 1036q101 0 217 -30v428h143v-1385q-178 -55 -328 -55q-270 0 -417.5 145t-147.5 390t155 376t378 131z" />
    <glyph glyph-name="e" unicode="e" horiz-adv-x="999" 
d="M811 614q0 206 -112.5 252.5t-189.5 46.5q-148 0 -225 -86.5t-94 -212.5h621zM926 150q-146 -158 -387 -158t-369.5 149t-128.5 386t131 372t344 135t327.5 -138t110.5 -402h-768q6 -174 100.5 -276.5t267.5 -102.5t286 125z" />
    <glyph glyph-name="f" unicode="f" horiz-adv-x="546" 
d="M133 1053q0 311 131 354t242 23l-19 -117q-144 36 -177.5 -55.5t-33.5 -208.5v-23h181v-127h-181v-899h-143v899h-92v127h92v27z" />
    <glyph glyph-name="g" unicode="g" horiz-adv-x="972" 
d="M190 506q0 -186 108 -288.5t290 -102.5q88 0 200 39v725q-94 32 -219 32q-180 0 -279.5 -109.5t-99.5 -295.5zM41 500q0 244 147 389t394 145q172 0 350 -55v-1024q0 -230 -126.5 -337t-358.5 -107t-394 170l94 102q119 -135 318 -135q162 0 242.5 66.5t80.5 219.5v89
q-224 -59 -419 1t-261.5 205.5t-66.5 270.5z" />
    <glyph glyph-name="h" unicode="h" horiz-adv-x="942" 
d="M758 0v655q0 129 -76 193.5t-185 64.5t-178.5 -65t-132.5 -170v-678h-145v1434h145v-547q49 66 132.5 111.5t183.5 45.5q183 0 291 -94.5t108 -265.5v-684h-143z" />
    <glyph glyph-name="i" unicode="i" horiz-adv-x="256" 
d="M41 1345.5q0 38.5 23.5 63.5t62.5 25t63.5 -25t24.5 -63.5t-24.5 -62t-63.5 -23.5t-62.5 23.5t-23.5 62zM57 0v1024h144v-1024h-144z" />
    <glyph glyph-name="j" unicode="j" horiz-adv-x="491" 
d="M276 1345.5q0 38.5 24 63.5t62.5 25t63.5 -25t25 -63.5t-25 -62t-63.5 -23.5t-62.5 23.5t-24 62zM291 12v1014h143v-1020q0 -271 -133 -346.5t-229 -85.5l-31 123q133 16 191.5 93t58.5 222z" />
    <glyph glyph-name="k" unicode="k" horiz-adv-x="909" 
d="M41 0v1432h143v-904l492 496h192l-503 -492l501 -532h-198l-484 528v-528h-143z" />
    <glyph glyph-name="l" unicode="l" horiz-adv-x="225" 
d="M41 0v1434h143v-1434h-143z" />
    <glyph glyph-name="m" unicode="m" horiz-adv-x="1654" 
d="M1473 0v655q0 129 -77 192.5t-190 65.5q-162 0 -224 -100t-83 -135v-678h-141v655q0 129 -77 193.5t-186 64.5t-178.5 -65t-132.5 -170v-678h-143v1026h143v-139q49 66 133 111.5t202 45.5t208 -48t135 -144q73 83 160 137.5t233 54.5q147 0 253 -95.5t106 -264.5v-684
h-141z" />
    <glyph glyph-name="n" unicode="n" horiz-adv-x="940" 
d="M758 0v655q0 129 -77 193.5t-186 64.5t-178.5 -65t-132.5 -170v-678h-143v1026h143v-139q49 66 132.5 111.5t183.5 45.5q183 0 291 -94.5t108 -265.5v-684h-141z" />
    <glyph glyph-name="o" unicode="o" horiz-adv-x="1038" 
d="M165 133q-124 149 -124 379q0 231 123 376.5t355 145.5t355 -148t123 -379.5t-122 -377t-354 -145.5t-356 149zM846 508q0 88 -18.5 162.5t-57.5 130t-101.5 87.5t-189.5 32t-206.5 -110t-79.5 -300q0 -289 118.5 -350.5t206.5 -61.5t150.5 31t101.5 86t57.5 130
t18.5 163z" />
    <glyph glyph-name="p" unicode="p" horiz-adv-x="985" 
d="M385 115q182 0 289.5 102.5t107.5 288.5t-99 295.5t-280 109.5q-125 0 -221 -32v-725q119 -39 203 -39zM182 -508h-141v1487q179 55 327 55q272 0 424 -146t152 -389t-160 -375t-387 -132q-103 0 -215 31v-531z" />
    <glyph glyph-name="q" unicode="q" horiz-adv-x="972" 
d="M569 911q-180 0 -279.5 -109.5t-99.5 -295.5t108 -288.5t290 -102.5q88 0 203 39v725q-94 32 -222 32zM41 500q0 244 147 389t394 145q172 0 350 -55v-1487h-141v531q-225 -60 -421 0.5t-262.5 206t-66.5 270.5z" />
    <glyph glyph-name="r" unicode="r" horiz-adv-x="702" 
d="M499 913q-113 0 -182.5 -65t-132.5 -170v-678h-143v1024h143v-137q49 66 133 111.5t184 45.5t161 -16l-37 -137q-60 22 -126 22z" />
    <glyph glyph-name="s" unicode="s" horiz-adv-x="823" 
d="M413 913q-93 0 -135 -38.5t-42 -88.5q0 -83 58.5 -120.5t142.5 -64.5q85 -27 215 -78.5t130 -237.5q0 -137 -103 -216t-240 -79q-138 0 -228 40t-170 132l106 98q106 -143 277 -143q111 0 164 43t53 97q0 92 -60 132.5t-150 65.5q-89 26 -214 73t-125 233q0 134 94 207.5
t222 73.5t211 -36.5t159 -128.5l-100 -97l-2 2q-51 68 -110.5 99.5t-152.5 31.5z" />
    <glyph glyph-name="t" unicode="t" horiz-adv-x="546" 
d="M133 901h-92v127h92v242h143v-242h181v-127h-181v-518q0 -189 57 -238.5t154 -25.5l19 -117q-200 -41 -286.5 67.5t-86.5 309.5v522z" />
    <glyph glyph-name="u" unicode="u" horiz-adv-x="966" 
d="M467 113q215 0 313 168v743h146v-1024h-138v115q-104 -129 -356 -129q-170 0 -280.5 93t-110.5 265v680h143v-651q0 -124 80.5 -192t202.5 -68z" />
    <glyph glyph-name="v" unicode="v" horiz-adv-x="1077" 
d="M614 0h-147l-426 1022h156l348 -864l350 864h141z" />
    <glyph glyph-name="w" unicode="w" horiz-adv-x="1681" 
d="M1282 0h-137l-301 827l-307 -827h-138l-358 1022h154l284 -844l301 844h133l304 -842l282 842h141z" />
    <glyph glyph-name="x" unicode="x" horiz-adv-x="1026" 
d="M813 0l-309 426l-305 -426h-158l377 520l-369 504h172l305 -416l299 416h156l-369 -506l373 -518h-172z" />
    <glyph glyph-name="y" unicode="y" horiz-adv-x="1079" 
d="M150 -301q202 38 261.5 125.5t59.5 159.5l-430 1040h162l342 -860l340 860h153l-426 -1040l-37 -99q-59 -192 -189 -246.5t-206 -62.5z" />
    <glyph glyph-name="z" unicode="z" horiz-adv-x="858" 
d="M817 137v-137h-776v137l567 752h-567v135h745v-135l-581 -752h612z" />
    <glyph glyph-name="braceleft" unicode="{" horiz-adv-x="415" 
d="M231 -2q0 -90 111 -90l33 -2v-113h-33q-96 0 -157.5 55.5t-69.5 171.5l-2 480q-4 72 -14.5 107.5t-57.5 35.5v143q47 0 57.5 36t14.5 108l2 438q8 117 69.5 172t157.5 55h33v-112l-33 -2q-113 0 -113 -38v-546q-6 -86 -20.5 -125t-83.5 -57q93 -24 97.5 -89t6.5 -94v-409
q2 -35 2 -125z" />
    <glyph glyph-name="bar" unicode="|" horiz-adv-x="194" 
d="M154 -393h-113v1966h113v-1966z" />
    <glyph glyph-name="braceright" unicode="}" horiz-adv-x="415" 
d="M186 1394q0 21 -31.5 54t-80.5 33l-33 2v112h33q96 0 157.5 -55t69.5 -172l2 -438q4 -72 14.5 -108t57.5 -36v-143q-47 0 -57.5 -36t-14.5 -107l-2 -480q-8 -117 -69.5 -172t-157.5 -55h-33v113l33 2q110 0 110 90t2 125v409q6 80 21 122.5t84 60.5q-69 18 -84 59
t-21 123v497z" />
    <glyph glyph-name="asciitilde" unicode="~" horiz-adv-x="741" 
d="M41 623q90 90 171 90q81 -1 151 -31q71 -30 95.5 -39.5t52.5 -9.5t54.5 12t75.5 39l59 -86q-66 -45 -104.5 -62.5t-83.5 -17.5t-79 13.5t-94 42t-89 28.5q-30 0 -42.5 -2t-27 -10t-32 -21.5t-48.5 -33.5z" />
    <glyph glyph-name="exclamdown" unicode="&#xa1;" horiz-adv-x="256" 
d="M53 782h154v-997h-154v997zM215 1079q0 -39 -23.5 -63.5t-62.5 -24.5t-63.5 24.5t-24.5 63.5t24.5 62.5t63.5 23.5t62.5 -23.5t23.5 -62.5z" />
    <glyph glyph-name="cent" unicode="&#xa2;" horiz-adv-x="925" 
d="M246 267.5q66 -118.5 192 -144.5v809q-127 -26 -192.5 -142t-65.5 -260t66 -262.5zM553 -211h-115v209q-190 23 -293.5 175.5t-103.5 355.5t103 353t294 175v209h115v-207q191 -18 332 -178l-101 -88q-104 129 -231 143v-817q129 19 231 145l101 -88q-137 -162 -332 -180
v-207z" />
    <glyph glyph-name="sterling" unicode="&#xa3;" horiz-adv-x="958" 
d="M469 394q0 -126 -156 -242h605v-152h-873v119q138 59 212.5 126.5t74.5 160.5q0 55 -35 106h-256v125h160q-41 49 -73 107.5t-32 136.5q0 156 101.5 252t291.5 96q267 0 416 -201l-104 -98q-104 162 -318 162q-127 0 -184 -53.5t-57 -144.5t54 -158.5t77 -98.5h409v-125
h-333q20 -46 20 -118z" />
    <glyph glyph-name="yen" unicode="&#xa5;" horiz-adv-x="1001" 
d="M432 0v223h-305v127h305v201h-305v127h233l-319 551h170l293 -504l291 504h166l-326 -551h237v-127h-305v-201h305v-127h-305v-223h-135z" />
    <glyph glyph-name="brokenbar" unicode="&#xa6;" horiz-adv-x="188" 
d="M41 -2v508h106v-508h-106zM41 930v508h106v-508h-106z" />
    <glyph glyph-name="section" unicode="&#xa7;" horiz-adv-x="786" 
d="M621 709q0 111 -87.5 140.5t-130.5 41.5l-84 22q-153 -22 -153 -170q0 -59 58 -90.5t143.5 -57.5t107.5 -36q146 57 146 150zM178 975q-102 63 -102 197q0 137 101 206.5t247 69.5q78 0 143.5 -22.5t137.5 -51.5l-41 -106q-66 41 -115 61.5t-123 20.5q-225 0 -225 -179
q0 -75 88 -107t136 -47q133 -42 226.5 -109t93.5 -197q0 -70 -41.5 -130.5t-101.5 -91.5q109 -68 109 -207t-101 -217.5t-263 -78.5t-300 67l49 99q128 -51 182 -56.5t91 -5.5q100 0 158.5 43t58.5 146q0 119 -106.5 156.5t-157.5 53.5q-140 44 -210.5 92.5t-70.5 155.5
q0 164 137 238z" />
    <glyph glyph-name="dieresis" unicode="&#xa8;" horiz-adv-x="585" 
d="M371 1345.5q0 38.5 23.5 63.5t62.5 25t63.5 -25t24.5 -63.5t-24.5 -62t-63.5 -23.5t-62.5 23.5t-23.5 62zM41 1345.5q0 38.5 23.5 63.5t62.5 25t63.5 -25t24.5 -63.5t-24.5 -62t-63.5 -23.5t-62.5 23.5t-23.5 62z" />
    <glyph glyph-name="copyright" unicode="&#xa9;" horiz-adv-x="1499" 
d="M1083 410q-135 -146 -345 -146q-209 0 -324 136t-115 331t119 325t324 130t331 -146l-82 -82q-106 119 -254 119q-149 0 -229 -98.5t-80 -246.5t83.5 -253.5t238.5 -105.5q154 0 260 116zM1458 725q0 -143 -48 -272t-140 -227.5t-224.5 -156t-298 -57.5t-297 57.5
t-222.5 156t-139 227.5t-48 272t48 271t139 224.5t222.5 154t297 57.5t298 -57.5t224.5 -154t140 -224.5t48 -271zM1168 1142q-169 181 -418 181q-248 0 -373 -133t-169 -241.5t-44 -286.5t168.5 -359.5t416.5 -181.5t418 179.5t170 419.5q0 241 -169 422z" />
    <glyph glyph-name="ordfeminine" unicode="&#xaa;" horiz-adv-x="749" 
d="M379 1317q231 0 304 -161q24 -52 24 -121v-546h-113v87q-65 -85 -192 -92q-128 -7 -186 10q-177 52 -177 220q0 134 94 204q83 66 233 66q149 0 228 -29v67q0 93 -58 143t-142 50q-84 1 -130 -15q-45 -16 -89 -72l-80 69q101 120 284 120zM594 845q-69 31 -192 31
t-167 -26q-85 -49 -83 -134q0 -138 195 -138q170 0 247 123v144z" />
    <glyph glyph-name="guillemotleft" unicode="&#xab;" horiz-adv-x="827" 
d="M649 141l-280 338l280 338h137l-268 -338l268 -338h-137zM322 141l-281 338l281 338h137l-269 -338l269 -338h-137z" />
    <glyph glyph-name="logicalnot" unicode="&#xac;" horiz-adv-x="956" 
d="M799 236v364h-758v121h874v-485h-116z" />
    <glyph glyph-name="registered" unicode="&#xae;" horiz-adv-x="1499" 
d="M1458 725q0 -143 -48 -272t-140 -227.5t-224.5 -156t-298 -57.5t-297 57.5t-222.5 156t-139 227.5t-48 272t48 271t139 224.5t222.5 154t297 57.5t298 -57.5t224.5 -154t140 -224.5t48 -271zM1170 1142q-169 181 -422 181q-127 0 -234.5 -50t-185.5 -133t-122 -191.5
t-44 -225.5t44 -225.5t122 -192.5t185.5 -134t235.5 -50t236.5 50t231 179.5t122.5 369.5q0 241 -169 422zM612 639v-338h-143v854h297q129 0 217 -64t88 -201q0 -138 -68.5 -174t-103.5 -42q44 -89 109 -205l96 -168h-154l-182 338h-156zM612 1024v-248h140q84 0 136 40
t49 96q-6 111 -175 112h-150z" />
    <glyph glyph-name="macron" unicode="&#xaf;" horiz-adv-x="598" 
d="M41 1309v125h516v-125h-516z" />
    <glyph glyph-name="degree" unicode="&#xb0;" horiz-adv-x="507" 
d="M467 1232q0 -85 -54.5 -144.5t-155.5 -59.5t-158.5 60.5t-57.5 145.5t57.5 142.5t158.5 57.5t155.5 -58.5t54.5 -143.5zM254 1122q106 0 106 109q0 47 -23.5 82t-82.5 35q-100 0 -100 -113t100 -113z" />
    <glyph glyph-name="plusminus" unicode="&#xb1;" horiz-adv-x="983" 
d="M41 0v113h901v-113h-901zM422 211v270h-381v133h381v273h133v-273h387v-133h-387v-270h-133z" />
    <glyph glyph-name="twosuperior" unicode="&#xb2;" horiz-adv-x="567" 
d="M519 427v-77h-477v84l238 258q21 25 45 53q89 108 89 179q0 70 -42 114t-118 46q-118 0 -154 -106l-66 57q30 59 88 95t124 36q176 -1 232 -146q56 -144 -79 -311q-26 -32 -50 -58l-203 -224h373z" />
    <glyph glyph-name="threesuperior" unicode="&#xb3;" horiz-adv-x="602" 
d="M42 1078q88 95 214 95q64 0 110 -13q150 -43 152 -191q0 -69 -36 -115t-95 -66q73 -20 120 -72t47 -124t-23 -115q-48 -89 -151 -117q-52 -15 -118 -15q-132 0 -228 97l65 55q64 -81 164 -80q101 1 153 43q52 44 52 122t-62 119q-63 41 -176 40h-27v81h29q138 0 184 82
q15 27 15 72t-47 87q-48 39 -115 37q-104 0 -167 -73z" />
    <glyph glyph-name="acute" unicode="&#xb4;" horiz-adv-x="413" 
d="M41 1202l190 232h142l-193 -232h-139z" />
    <glyph glyph-name="mu" unicode="&#xb5;" horiz-adv-x="772" 
d="M711 223q0 -79 20 -223h-123l-14 115q-50 -57 -148.5 -117.5t-277.5 53.5v-395h-127v1292h127v-561q0 -138 28.5 -186.5t66.5 -70t87 -21.5q79 0 135.5 61t92.5 143v635h133v-725z" />
    <glyph glyph-name="paragraph" unicode="&#xb6;" horiz-adv-x="831" 
d="M41 1108q0 324 371 324h379v-1440h-136v1298h-145v-1298h-135v807q-181 7 -257.5 97t-76.5 212z" />
    <glyph glyph-name="periodcentered" unicode="&#xb7;" horiz-adv-x="272" 
d="M41 88q0 41 26.5 68.5t67.5 27.5t68.5 -27.5t27.5 -68.5t-27.5 -67.5t-68.5 -26.5t-67.5 26.5t-26.5 67.5z" />
    <glyph glyph-name="cedilla" unicode="&#xb8;" horiz-adv-x="466" 
d="M426 -104q0 -113 -63.5 -175.5t-172.5 -62.5q-64 0 -149 39l35 92q63 -33 116 -33t93.5 34t40.5 100t-17 133h99q18 -61 18 -127z" />
    <glyph glyph-name="onesuperior" unicode="&#xb9;" horiz-adv-x="163" 
d="M34 350v789l82 30v-819h-82z" />
    <glyph glyph-name="ordmasculine" unicode="&#xba;" horiz-adv-x="843" 
d="M801 896q0 -183 -98 -300t-282 -116t-284 121t-99 301q1 182 98 298t284 116q186 0 283 -119q98 -118 98 -301zM680 898q0 229 -141 302q-50 24 -120 24t-119 -24q-141 -69 -141 -300t141 -303q49 -25 119 -25q199 0 246 196q15 60 15 130z" />
    <glyph glyph-name="guillemotright" unicode="&#xbb;" horiz-adv-x="839" 
d="M190 823l289 -346l-289 -346h-149l248 346l-232 324h2l-18 22h149zM510 823l289 -346l-289 -346h-150l248 346l-248 346h150z" />
    <glyph glyph-name="onequarter" unicode="&#xbc;" horiz-adv-x="993" 
d="M717 818v-516h74v-83h-74v-218h-82v218h-393l-84 -219h-117l551 1434h117l-417 -1084l351 468h74zM635 302l-1 368l-279 -368h280zM59 350v789l81 30v-819h-81z" />
    <glyph glyph-name="onehalf" unicode="&#xbd;" horiz-adv-x="989" 
d="M568 397q89 108 89 179q0 70 -43 115q-43 46 -118 46q-32 0 -58 -8l-280 -729h-117l257 669l-23 19q22 43 58 73l259 673h117l-237 -616q12 1 46 1t79 -18t76 -51q65 -69 65 -179t-145 -268l-205 -226h375v-77h-479v84l239 260q21 25 45 53zM59 350v789l81 30v-819h-81z
" />
    <glyph glyph-name="threequarters" unicode="&#xbe;" horiz-adv-x="1259" 
d="M789 302l-1 368l-215 -283l-33 -85h249zM42 1078q88 95 214 95q64 0 110 -13q150 -43 152 -191q0 -69 -36 -115t-95 -66q73 -20 113 -63t49 -95l309 804h117l-298 -776l120 160h74v-516h74v-83h-74v-218h-82v218h-281l-84 -219h-117l87 226v55l43 57l23 59
q-76 -52 -170 -52t-150 23t-106 74l65 55q64 -81 164 -80q101 1 153 43q52 44 52 122t-62 119q-63 41 -176 40h-27v81h29q138 0 184 82q15 27 15 72t-47 87q-48 39 -115 37q-104 0 -167 -73z" />
    <glyph glyph-name="questiondown" unicode="&#xbf;" horiz-adv-x="837" 
d="M797 -43q-149 -158 -345 -158q-183 0 -297 87.5t-114 256.5q0 197 142.5 297.5t205.5 141.5v241h119l2 -297q-179 -108 -252.5 -189t-73.5 -192q0 -112 72 -169.5t173 -57.5t163.5 32t116.5 93zM535 1120q0 -39 -24 -63.5t-62.5 -24.5t-63.5 24.5t-25 63.5t25 62.5
t63.5 23.5t62.5 -23.5t24 -62.5z" />
    <glyph glyph-name="Agrave" unicode="&#xc0;" 
d="M420 586h424l-211 600zM899 434h-532l-154 -434h-172l510 1434h164l510 -1434h-172zM578 1616l-193 231h141l191 -231h-139z" />
    <glyph glyph-name="Aacute" unicode="&#xc1;" 
d="M420 586h424l-211 600zM899 434h-532l-154 -434h-172l510 1434h164l510 -1434h-172zM545 1616l190 231h142l-193 -231h-139z" />
    <glyph glyph-name="Acircumflex" unicode="&#xc2;" 
d="M420 586h424l-211 600zM899 434h-532l-154 -434h-172l510 1434h164l510 -1434h-172zM360 1616l191 231h162l190 -231h-160l-112 133l-111 -133h-160z" />
    <glyph glyph-name="Atilde" unicode="&#xc3;" 
d="M420 586h424l-211 600zM899 434h-532l-154 -434h-172l510 1434h164l510 -1434h-172zM858 1666q-39 -18 -93 -17q-54 0 -138 41t-123 43q-39 1 -58 -10q-18 -11 -35 -24t-49 -34l-59 88q45 45 89 68q100 52 259 -19q85 -38 117 -38q34 0 60 12t75 39l60 -86
q-66 -45 -105 -63z" />
    <glyph glyph-name="Adieresis" unicode="&#xc4;" 
d="M420 586h424l-211 600zM899 434h-532l-154 -434h-172l510 1434h164l510 -1434h-172zM711 1759q0 39 23 64q24 25 63 25t63 -26q24 -24 25 -63q0 -39 -25 -63q-26 -24 -64 -23q-38 -1 -62 23t-23 63zM381 1759q0 39 23 64q24 25 63 25t63 -26q24 -24 25 -63q0 -39 -25 -63
q-26 -24 -64 -23q-38 -1 -62 23t-23 63z" />
    <glyph glyph-name="Aring" unicode="&#xc5;" 
d="M420 586h424l-211 600zM408 1624q0 90 57 148t161 59q104 -1 161 -61t57 -150t-57 -149q-29 -30 -70 -44l508 -1427h-172l-154 434h-532l-154 -434h-172l506 1424q-49 15 -82 50q-57 60 -57 150zM721 1623q0 42 -23 73q-24 30 -72 30t-70 -30t-22 -72q0 -41 22 -73
q22 -31 71 -31t71 30t23 73z" />
    <glyph glyph-name="AE" unicode="&#xc6;" horiz-adv-x="1775" 
d="M977 1300l-287 -489h285zM975 0v670h-369l-393 -670h-172l842 1432h790v-132h-553v-487h498v-143h-498v-539h615v-131h-760z" />
    <glyph glyph-name="Ccedilla" unicode="&#xc7;" horiz-adv-x="1222" 
d="M780 -104q0 -113 -63 -175.5t-172 -62.5q-65 0 -150 39l35 92q63 -33 117 -33q53 0 93 34t40 94t-10 108q-304 4 -466.5 217t-162.5 517t163.5 515t473.5 211t504 -229l-109 -97q-84 104 -180 139t-218 35q-231 0 -356.5 -165.5t-125.5 -411.5t126 -414t361 -168
q117 0 213 38t180 143l109 -97q-169 -199 -414 -229q12 -42 12 -100z" />
    <glyph glyph-name="Egrave" unicode="&#xc8;" horiz-adv-x="942" 
d="M41 0v1434h854v-152h-702v-461h638v-151h-638v-518h708v-152h-860zM436 1616l-192 231h141l190 -231h-139z" />
    <glyph glyph-name="Eacute" unicode="&#xc9;" horiz-adv-x="942" 
d="M41 0v1434h854v-152h-702v-461h638v-151h-638v-518h708v-152h-860zM387 1616l191 231h141l-193 -231h-139z" />
    <glyph glyph-name="Ecircumflex" unicode="&#xca;" horiz-adv-x="942" 
d="M41 0v1434h854v-152h-702v-461h638v-151h-638v-518h708v-152h-860zM199 1616l190 231h162l190 -231h-159l-113 133l-111 -133h-159z" />
    <glyph glyph-name="Edieresis" unicode="&#xcb;" horiz-adv-x="942" 
d="M41 0v1434h854v-152h-702v-461h638v-151h-638v-518h708v-152h-860zM549 1759q0 39 23 64q24 25 63 25t63 -26q24 -24 25 -63q0 -39 -25 -63q-26 -24 -64 -23q-38 -1 -62 23t-23 63zM219 1759q0 39 24 64q25 25 63 25t63 -26q25 -24 25 -63t-26 -63q-24 -24 -63 -23
q-39 -1 -63 23t-23 63z" />
    <glyph glyph-name="Igrave" unicode="&#xcc;" horiz-adv-x="233" 
d="M41 0v1434h152v-1434h-152zM70 1616l-193 231h141l191 -231h-139z" />
    <glyph glyph-name="Iacute" unicode="&#xcd;" horiz-adv-x="233" 
d="M41 0v1434h152v-1434h-152zM2 1616l191 231h141l-193 -231h-139z" />
    <glyph glyph-name="Icircumflex" unicode="&#xce;" horiz-adv-x="233" 
d="M41 0v1434h152v-1434h-152zM-152 1616l191 231h162l190 -231h-160l-112 133l-111 -133h-160z" />
    <glyph glyph-name="Idieresis" unicode="&#xcf;" horiz-adv-x="233" 
d="M41 0v1434h152v-1434h-152zM197 1759q0 39 23 64q24 25 63 25t63 -26q24 -24 25 -63q0 -39 -25 -63q-26 -24 -64 -23q-38 -1 -62 23t-23 63zM-133 1759q0 39 23 64q24 25 63 25t63 -26q24 -24 25 -63q0 -39 -25 -63q-26 -24 -64 -23q-38 -1 -62 23t-23 63z" />
    <glyph glyph-name="Ntilde" unicode="&#xd1;" horiz-adv-x="1232" 
d="M188 0h-147v1434h123l880 -1162v1162h148v-1434h-127l-877 1161v-1161zM842 1666q-38 -18 -92 -17q-53 1 -111 29q-111 54 -151 55t-58 -10t-36 -24t-48 -34l-59 88q91 91 174 91q83 -1 171 -40t120 -40q34 0 60 12t75 39l59 -86q-66 -45 -104 -63z" />
    <glyph glyph-name="Ograve" unicode="&#xd2;" horiz-adv-x="1417" 
d="M706 -10q-313 0 -497 224q-168 202 -168 508t177 518t491 212q315 0 499 -221q168 -201 168 -507t-168 -510q-84 -100 -210 -162t-292 -62zM1087 1133q-136 167 -380 167q-243 0 -379 -166q-135 -166 -134 -411q1 -246 137 -414t379 -168t383 172q130 160 130 407
q0 246 -136 413zM735 1616l-192 231h141l190 -231h-139z" />
    <glyph glyph-name="Oacute" unicode="&#xd3;" horiz-adv-x="1417" 
d="M706 -10q-313 0 -497 224q-168 202 -168 508t177 518t491 212q315 0 499 -221q168 -201 168 -507t-168 -510q-84 -100 -210 -162t-292 -62zM1087 1133q-136 167 -380 167q-243 0 -379 -166q-135 -166 -134 -411q1 -246 137 -414t379 -168t383 172q130 160 130 407
q0 246 -136 413zM543 1616l190 231h141l-192 -231h-139z" />
    <glyph glyph-name="Ocircumflex" unicode="&#xd4;" horiz-adv-x="1417" 
d="M706 -10q-313 0 -497 224q-168 202 -168 508t177 518t491 212q315 0 499 -221q168 -201 168 -507t-168 -510q-84 -100 -210 -162t-292 -62zM1087 1133q-136 167 -380 167q-243 0 -379 -166q-135 -166 -134 -411q1 -246 137 -414t379 -168t383 172q130 160 130 407
q0 246 -136 413zM436 1616l191 231h161l191 -231h-160l-112 133l-111 -133h-160z" />
    <glyph glyph-name="Otilde" unicode="&#xd5;" horiz-adv-x="1417" 
d="M706 -10q-313 0 -497 224q-168 202 -168 508t177 518t491 212q315 0 499 -221q168 -201 168 -507t-168 -510q-84 -100 -210 -162t-292 -62zM1087 1133q-136 167 -380 167q-243 0 -379 -166q-135 -166 -134 -411q1 -246 137 -414t379 -168t383 172q130 160 130 407
q0 246 -136 413zM934 1666q-38 -18 -93 -17q-54 0 -138 41t-123 43q-39 1 -58 -10q-18 -11 -36 -24t-48 -34l-59 88q45 45 89 68q100 52 259 -19q85 -38 117 -38q34 0 60 12t75 39l59 -86q-66 -45 -104 -63z" />
    <glyph glyph-name="Odieresis" unicode="&#xd6;" horiz-adv-x="1417" 
d="M706 -10q-313 0 -497 224q-168 202 -168 508t177 518t491 212q315 0 499 -221q168 -201 168 -507t-168 -510q-84 -100 -210 -162t-292 -62zM1087 1133q-136 167 -380 167q-243 0 -379 -166q-135 -166 -134 -411q1 -246 137 -414t379 -168t383 172q130 160 130 407
q0 246 -136 413zM786 1759q0 39 24 64t62 25t64 -26q25 -24 25 -63t-25 -63t-64 -23q-38 -1 -62 23t-24 63zM457 1759q0 39 23 64q24 25 63 25t63 -26q24 -24 25 -63q0 -39 -25 -63q-26 -24 -64 -23q-38 -1 -62 23t-23 63z" />
    <glyph glyph-name="multiply" unicode="&#xd7;" horiz-adv-x="802" 
d="M119 879l280 -277l277 281l80 -80l-277 -281l283 -276l-80 -80l-281 276l-278 -280l-80 78l276 282l-278 277z" />
    <glyph glyph-name="Oslash" unicode="&#xd8;" horiz-adv-x="1417" 
d="M1223 723q0 248 -131 403q-61 76 -152 123l-336 -1099q47 -8 103 -9q247 0 381.5 167t134.5 415zM678 1300q-98 0 -193.5 -46t-160 -124.5t-97 -184t-32.5 -222.5t52 -285.5t253 -257.5l338 1106q-62 14 -160 14zM1376 725q0 -143 -42 -276.5t-126 -234.5t-210 -162.5
t-291 -61.5q-78 0 -148 12l-63 -207h-115l74 238q-144 58 -237 170t-135 245.5t-42 357.5t176.5 435t489.5 211q94 0 176 -20l63 206h115l-74 -241q142 -71 223.5 -169t123.5 -229t42 -274z" />
    <glyph glyph-name="Ugrave" unicode="&#xd9;" horiz-adv-x="1228" 
d="M193 494q0 -252 237 -330q80 -26 132 -27h86q71 0 150 27q241 82 238 330v940h152v-963q-8 -199 -139 -327t-336 -152l-76 -6h-25q-158 0 -263 47q-296 132 -308 438v963h152v-940zM641 1616l-192 231h141l190 -231h-139z" />
    <glyph glyph-name="Uacute" unicode="&#xda;" horiz-adv-x="1228" 
d="M193 494q0 -252 237 -330q80 -26 132 -27h86q71 0 150 27q241 82 238 330v940h152v-963q-8 -199 -139 -327t-336 -152l-76 -6h-25q-158 0 -263 47q-296 132 -308 438v963h152v-940zM449 1616l190 231h141l-192 -231h-139z" />
    <glyph glyph-name="Ucircumflex" unicode="&#xdb;" horiz-adv-x="1228" 
d="M193 494q0 -252 237 -330q80 -26 132 -27h86q71 0 150 27q241 82 238 330v940h152v-963q-8 -199 -139 -327t-336 -152l-76 -6h-25q-158 0 -263 47q-296 132 -308 438v963h152v-940zM342 1616l190 231h162l191 -231h-160l-113 133l-110 -133h-160z" />
    <glyph glyph-name="Udieresis" unicode="&#xdc;" horiz-adv-x="1228" 
d="M193 494q0 -252 237 -330q80 -26 132 -27h86q71 0 150 27q241 82 238 330v940h152v-963q-8 -199 -139 -327t-336 -152l-76 -6h-25q-158 0 -263 47q-296 132 -308 438v963h152v-940zM692 1759q0 39 24 64t62 25t64 -26q24 -24 24 -63t-24 -63t-64 -23q-38 -1 -62 23
t-24 63zM362 1759q0 39 24 64t63 25t63 -26q24 -24 25 -63q0 -39 -25 -63q-26 -24 -64 -23q-38 -1 -62 23t-24 63z" />
    <glyph glyph-name="Yacute" unicode="&#xdd;" horiz-adv-x="1251" 
d="M549 0v682l-508 752h180l404 -576l405 576h180l-508 -750l-2 -684h-151zM459 1616l190 231h142l-193 -231h-139z" />
    <glyph glyph-name="Thorn" unicode="&#xde;" horiz-adv-x="974" 
d="M406 117q180 0 279 109.5t99 295.5t-107.5 288.5t-289.5 102.5q-91 0 -203 -39v-724q97 -33 222 -33zM399 1036q225 0 380 -131t155 -376t-147 -390t-394 -145q-102 0 -209 18v-444h-141v479l-2 2v1393h143v-436q113 30 215 30z" />
    <glyph glyph-name="germandbls" unicode="&#xdf;" horiz-adv-x="872" 
d="M677.5 27.5q-153.5 -103.5 -382.5 -103.5v127q158 0 282.5 79.5t124.5 242.5t-119.5 221.5t-187 73t-100.5 22.5v131q143 78 198.5 146.5t55.5 132.5q0 105 -58 152.5t-148 47.5q-89 0 -130 -62t-41 -214v-1024h-131v999q0 216 66.5 320t248.5 104q146 0 237 -87t91 -230
q0 -90 -48 -173t-177 -161q158 -45 265 -111.5t107 -298t-153.5 -335z" />
    <glyph glyph-name="agrave" unicode="&#xe0;" horiz-adv-x="917" 
d="M111 885q125 149 339 149q304 0 397 -200q30 -66 30 -152v-682h-142v109q-80 -106 -238 -116q-48 -3 -113 -3q-66 0 -130 18q-135 38 -186 147q-27 54 -27 133q0 154 112 242t298 88q187 0 284 -36v84q0 117 -72 179q-73 62 -202 62q-82 0 -138 -19t-112 -89zM426 111
q215 0 309 153v180q-63 29 -133 34t-131 5q-200 0 -264 -102q-25 -39 -25 -111t65 -116q65 -43 179 -43zM485 1202l-192 232h141l191 -232h-140z" />
    <glyph glyph-name="aacute" unicode="&#xe1;" horiz-adv-x="917" 
d="M111 885q125 149 339 149q304 0 397 -200q30 -66 30 -152v-682h-142v109q-80 -106 -238 -116q-48 -3 -113 -3q-66 0 -130 18q-135 38 -186 147q-27 54 -27 133q0 154 112 242t298 88q187 0 284 -36v84q0 117 -72 179q-73 62 -202 62q-82 0 -138 -19t-112 -89zM426 111
q215 0 309 153v180q-63 29 -133 34t-131 5q-200 0 -264 -102q-25 -39 -25 -111t65 -116q65 -43 179 -43zM293 1202l190 232h142l-193 -232h-139z" />
    <glyph glyph-name="acircumflex" unicode="&#xe2;" horiz-adv-x="917" 
d="M111 885q125 149 339 149q304 0 397 -200q30 -66 30 -152v-682h-142v109q-80 -106 -238 -116q-48 -3 -113 -3q-66 0 -130 18q-135 38 -186 147q-27 54 -27 133q0 154 112 242t298 88q187 0 284 -36v84q0 117 -72 179q-73 62 -202 62q-82 0 -138 -19t-112 -89zM426 111
q215 0 309 153v180q-63 29 -133 34t-131 5q-200 0 -264 -102q-25 -39 -25 -111t65 -116q65 -43 179 -43zM186 1202l191 232h162l190 -232h-160l-112 133l-111 -133h-160z" />
    <glyph glyph-name="atilde" unicode="&#xe3;" horiz-adv-x="917" 
d="M111 885q125 149 339 149q304 0 397 -200q30 -66 30 -152v-682h-142v109q-80 -106 -238 -116q-48 -3 -113 -3q-66 0 -130 18q-135 38 -186 147q-27 54 -27 133q0 154 112 242t298 88q187 0 284 -36v84q0 117 -72 179q-73 62 -202 62q-82 0 -138 -19t-112 -89zM426 111
q215 0 309 153v180q-63 29 -133 34t-131 5q-200 0 -264 -102q-25 -39 -25 -111t65 -116q65 -43 179 -43zM129 1339q91 91 171 91t151 -30t96 -40t53 -10t54 12t75 39l59 -86q-66 -45 -104 -63t-93 -17q-54 0 -139 42t-124 42q-38 0 -56 -10q-18 -9 -35 -23t-49 -35z" />
    <glyph glyph-name="adieresis" unicode="&#xe4;" horiz-adv-x="917" 
d="M111 885q125 149 339 149q304 0 397 -200q30 -66 30 -152v-682h-142v109q-80 -106 -238 -116q-48 -3 -113 -3q-66 0 -130 18q-135 38 -186 147q-27 54 -27 133q0 154 112 242t298 88q187 0 284 -36v84q0 117 -72 179q-73 62 -202 62q-82 0 -138 -19t-112 -89zM426 111
q215 0 309 153v180q-63 29 -133 34t-131 5q-200 0 -264 -102q-25 -39 -25 -111t65 -116q65 -43 179 -43zM537 1346q-1 40 23 64t63 24t63 -25t25 -63q0 -38 -25 -63q-26 -23 -64 -23t-62 23q-23 24 -23 63zM207 1346q-1 40 23 64t63 24t63 -25t25 -63q0 -38 -25 -63
q-26 -23 -64 -23t-62 23q-23 24 -23 63z" />
    <glyph glyph-name="aring" unicode="&#xe5;" horiz-adv-x="917" 
d="M735 666q0 117 -72 179q-73 62 -202 62q-82 0 -138 -19t-112 -89l-100 86q93 110 230 138q-28 14 -50 37q-57 60 -57 150t56 148q58 58 162 59q104 0 161 -60q57 -61 57 -151t-57 -148q-18 -19 -42 -32q115 -18 181 -72q125 -104 125 -272v-682h-142v109
q-80 -106 -238 -116q-48 -3 -113 -3q-66 0 -130 18q-135 38 -186 147q-27 54 -27 133q0 154 112 242t298 88q187 0 284 -36v84zM426 111q215 0 309 153v180q-63 29 -133 34t-131 5q-200 0 -264 -102q-25 -39 -25 -111t65 -116q65 -43 179 -43zM453 1106q49 0 71 30t23 73
q0 42 -23 73q-24 31 -72 31t-70 -31t-22 -72q0 -40 22 -72t71 -32z" />
    <glyph glyph-name="ae" unicode="&#xe6;" horiz-adv-x="1691" 
d="M1503 614q0 131 -76.5 215t-224.5 84t-226 -86.5t-93 -212.5h620zM426 111q215 0 309 153v180q-63 29 -133 34t-131 5q-128 0 -208.5 -45.5t-80.5 -142.5q0 -184 244 -184zM450 1034q288 0 381 -174q72 100 171.5 137t193.5 37q225 0 340 -138t111 -402h-768
q6 -174 100 -276.5t268 -102.5t285 125l86 -90q-146 -158 -379 -158t-362 133v-125h-142v109q-80 -106 -183 -112.5t-168 -6.5q-145 0 -244 75t-99 228t112 239t298 86t284 -36v84q0 117 -72.5 179t-201.5 62q-82 0 -138.5 -19.5t-111.5 -88.5l-100 86q126 149 339 149z" />
    <glyph glyph-name="ccedilla" unicode="&#xe7;" horiz-adv-x="950" 
d="M606 -104q0 -114 -63 -176t-172 -62q-70 0 -150 39l35 92q129 -68 210 1q40 34 40 95t-10 109q-219 8 -337 156t-118 369t123 369t355 148q233 0 380 -164l-94 -94q-119 137 -286 136t-249 -109t-83 -280q-1 -173 85 -290q86 -118 263 -118t290 131l84 -90
q-134 -141 -315 -160q12 -48 12 -102z" />
    <glyph glyph-name="egrave" unicode="&#xe8;" horiz-adv-x="999" 
d="M811 614q0 205 -168 276q-57 24 -134 24q-147 -1 -226 -89q-78 -88 -93 -211h621zM926 150q-146 -158 -387 -158t-370 150q-128 150 -128 385t130 371t344 136t329 -138t110 -402h-768q6 -174 100 -276t269 -103q174 0 285 125zM526 1202l-192 232h141l191 -232h-140z
" />
    <glyph glyph-name="eacute" unicode="&#xe9;" horiz-adv-x="999" 
d="M811 614q0 205 -168 276q-57 24 -134 24q-147 -1 -226 -89q-78 -88 -93 -211h621zM926 150q-146 -158 -387 -158t-370 150q-128 150 -128 385t130 371t344 136t329 -138t110 -402h-768q6 -174 100 -276t269 -103q174 0 285 125zM334 1202l190 232h142l-193 -232h-139z
" />
    <glyph glyph-name="ecircumflex" unicode="&#xea;" horiz-adv-x="999" 
d="M811 614q0 205 -168 276q-57 24 -134 24q-147 -1 -226 -89q-78 -88 -93 -211h621zM926 150q-146 -158 -387 -158t-370 150q-128 150 -128 385t130 371t344 136t329 -138t110 -402h-768q6 -174 100 -276t269 -103q174 0 285 125zM227 1202l191 232h162l190 -232h-160
l-112 133l-111 -133h-160z" />
    <glyph glyph-name="edieresis" unicode="&#xeb;" horiz-adv-x="999" 
d="M811 614q0 205 -168 276q-57 24 -134 24q-147 -1 -226 -89q-78 -88 -93 -211h621zM926 150q-146 -158 -387 -158t-370 150q-128 150 -128 385t130 371t344 136t329 -138t110 -402h-768q6 -174 100 -276t269 -103q174 0 285 125zM578 1346q0 40 24 64t62 24q40 0 64 -25
t24 -63t-25 -63q-25 -23 -63 -23t-63 23q-23 24 -23 63zM248 1346q0 40 24 64t62 24q40 0 64 -25t24 -63t-25 -63q-25 -23 -63 -23t-63 23q-23 24 -23 63z" />
    <glyph glyph-name="igrave" unicode="&#xec;" horiz-adv-x="256" 
d="M156 1202l-193 232h141l191 -232h-139zM57 0v1024h144v-1024h-144z" />
    <glyph glyph-name="iacute" unicode="&#xed;" horiz-adv-x="256" 
d="M-37 1202l191 232h141l-193 -232h-139zM57 0v1024h144v-1024h-144z" />
    <glyph glyph-name="icircumflex" unicode="&#xee;" horiz-adv-x="256" 
d="M-143 1202l190 232h162l190 -232h-159l-113 133l-111 -133h-159zM57 0v1024h144v-1024h-144z" />
    <glyph glyph-name="idieresis" unicode="&#xef;" horiz-adv-x="256" 
d="M207 1345.5q0 38.5 23.5 63.5t62.5 25t63.5 -25t24.5 -63.5t-24.5 -62t-63.5 -23.5t-62.5 23.5t-23.5 62zM-123 1345.5q0 38.5 23.5 63.5t62.5 25t63.5 -25t24.5 -63.5t-24.5 -62t-63.5 -23.5t-62.5 23.5t-23.5 62zM57 0v1024h144v-1024h-144z" />
    <glyph glyph-name="ntilde" unicode="&#xf1;" horiz-adv-x="940" 
d="M184 0h-143v1026h143v-139q49 65 133 111q83 46 183 46q277 0 369 -204q30 -68 30 -156v-684h-141v655q0 129 -77 194t-189 64q-174 0 -308 -235v-678zM139 1339q91 91 171 91t151 -30t96 -40t58 -10t124 51l60 -86q-66 -45 -105 -63t-93 -17q-54 0 -139 42t-115 42
q-29 0 -46 -3t-44 -23q-27 -21 -58 -42z" />
    <glyph glyph-name="ograve" unicode="&#xf2;" horiz-adv-x="1038" 
d="M997 506q1 -111 -29 -206q-62 -200 -239 -276q-90 -40 -211 -40q-229 0 -353 150t-124 379q0 228 122 374q122 147 354 147q233 0 356 -148q124 -148 124 -380zM518 920q-165 0 -245 -110t-80 -300q0 -289 176 -380q61 -32 149 -32t150 31q178 88 178 378t-177 381
q-63 32 -151 32zM545 1202l-193 232h142l190 -232h-139z" />
    <glyph glyph-name="oacute" unicode="&#xf3;" horiz-adv-x="1038" 
d="M997 506q1 -111 -29 -206q-62 -200 -239 -276q-90 -40 -211 -40q-229 0 -353 150t-124 379q0 228 122 374q122 147 354 147q233 0 356 -148q124 -148 124 -380zM518 920q-165 0 -245 -110t-80 -300q0 -289 176 -380q61 -32 149 -32t150 31q178 88 178 378t-177 381
q-63 32 -151 32zM352 1202l191 232h141l-192 -232h-140z" />
    <glyph glyph-name="ocircumflex" unicode="&#xf4;" horiz-adv-x="1038" 
d="M997 506q1 -111 -29 -206q-62 -200 -239 -276q-90 -40 -211 -40q-229 0 -353 150t-124 379q0 228 122 374q122 147 354 147q233 0 356 -148q124 -148 124 -380zM518 920q-165 0 -245 -110t-80 -300q0 -289 176 -380q61 -32 149 -32t150 31q178 88 178 378t-177 381
q-63 32 -151 32zM248 1202l190 232h162l191 -232h-160l-113 133l-110 -133h-160z" />
    <glyph glyph-name="otilde" unicode="&#xf5;" horiz-adv-x="1038" 
d="M997 506q1 -111 -29 -206q-62 -200 -239 -276q-90 -40 -211 -40q-229 0 -353 150t-124 379q0 228 122 374q122 147 354 147q233 0 356 -148q124 -148 124 -380zM518 920q-165 0 -245 -110t-80 -300q0 -289 176 -380q61 -32 149 -32t150 31q178 88 178 378t-177 381
q-63 32 -151 32zM188 1339q91 91 172 91t151 -30q71 -30 95 -40t58 -10q33 0 124 51l60 -86q-66 -45 -105 -63t-91 -17t-111 29q-57 28 -89 42t-58 13q-26 0 -44 -3q-17 -3 -44 -23q-27 -21 -58 -42z" />
    <glyph glyph-name="odieresis" unicode="&#xf6;" horiz-adv-x="1038" 
d="M997 506q1 -111 -29 -206q-62 -200 -239 -276q-90 -40 -211 -40q-229 0 -353 150t-124 379q0 228 122 374q122 147 354 147q233 0 356 -148q124 -148 124 -380zM518 920q-165 0 -245 -110t-80 -300q0 -289 176 -380q61 -32 149 -32t150 31q178 88 178 378t-177 381
q-63 32 -151 32zM596 1346q0 40 24 64t62 24t64 -25q24 -25 24 -63t-25 -63q-25 -23 -63 -23t-62 24t-24 62zM266 1346q0 40 24 64t62 24t64 -25q24 -25 24 -63t-24 -63q-24 -23 -64 -23q-38 0 -62 24t-24 62z" />
    <glyph glyph-name="divide" unicode="&#xf7;" horiz-adv-x="280" 
d="M41 922q0 44 28 72q29 28 71 28t71 -29t29 -71t-29 -71q-29 -28 -72 -28t-71 28t-27 71zM41 98q0 43 28 72q29 29 71 29t71 -29t29 -72q0 -42 -29 -70t-72 -28t-71 28t-27 70z" />
    <glyph glyph-name="oslash" unicode="&#xf8;" horiz-adv-x="1038" 
d="M193 479q0 -221 131 -321l288 749q-42 13 -112 13t-131.5 -31t-118.5 -110t-57 -300zM535 98q71 0 191 59.5t120 350.5q0 253 -135 354l-289 -753q42 -11 113 -11zM542 -16q-97 0 -163 16l-78 -205h-117l95 246q-121 66 -179.5 190.5t-58.5 258.5q0 254 123 399t354 145
q70 0 135 -16l82 211h117l-96 -250q123 -66 182 -190.5t59 -258.5t-29.5 -229.5t-89 -166.5t-149.5 -110.5t-187 -39.5z" />
    <glyph glyph-name="ugrave" unicode="&#xf9;" horiz-adv-x="966" 
d="M467 113q217 0 313 168v743h146v-1024h-138v115q-104 -129 -356 -129q-170 0 -280 94t-111 264v680h143v-651q0 -122 80 -191q81 -69 203 -69zM510 1202l-193 232h142l190 -232h-139z" />
    <glyph glyph-name="uacute" unicode="&#xfa;" horiz-adv-x="966" 
d="M467 113q217 0 313 168v743h146v-1024h-138v115q-104 -129 -356 -129q-170 0 -280 94t-111 264v680h143v-651q0 -122 80 -191q81 -69 203 -69zM317 1202l191 232h141l-192 -232h-140z" />
    <glyph glyph-name="ucircumflex" unicode="&#xfb;" horiz-adv-x="966" 
d="M467 113q217 0 313 168v743h146v-1024h-138v115q-104 -129 -356 -129q-170 0 -280 94t-111 264v680h143v-651q0 -122 80 -191q81 -69 203 -69zM211 1202l190 232h162l191 -232h-160l-113 133l-110 -133h-160z" />
    <glyph glyph-name="udieresis" unicode="&#xfc;" horiz-adv-x="966" 
d="M467 113q217 0 313 168v743h146v-1024h-138v115q-104 -129 -356 -129q-170 0 -280 94t-111 264v680h143v-651q0 -122 80 -191q81 -69 203 -69zM561 1346q0 40 24 64q25 24 63 24t63 -25t25 -63t-26 -63q-24 -23 -63 -23t-63 24t-23 62zM231 1346q0 40 24 64q25 24 63 24
t63 -25t25 -63t-25 -63q-25 -23 -64 -23t-63 24t-23 62z" />
    <glyph glyph-name="yacute" unicode="&#xfd;" horiz-adv-x="1079" 
d="M150 -301q202 38 287 163q34 50 34 122l-430 1040h162l342 -860l340 860h153l-426 -1040l-37 -99q-38 -124 -142 -208q-104 -85 -253 -101zM373 1202l190 232h142l-193 -232h-139z" />
    <glyph glyph-name="thorn" unicode="&#xfe;" horiz-adv-x="974" 
d="M406 117q180 0 279 109.5t99 295.5t-107.5 288.5t-289.5 102.5q-91 0 -203 -39v-724q97 -33 222 -33zM399 1036q225 0 380 -131t155 -376t-147 -390t-394 -145q-102 0 -209 18v-444h-141v479l-2 2v1487h143v-530q113 30 215 30z" />
    <glyph glyph-name="ydieresis" unicode="&#xff;" horiz-adv-x="1079" 
d="M150 -301q202 38 287 163q34 50 34 122l-430 1040h162l342 -860l340 860h153l-426 -1040l-37 -99q-38 -124 -142 -208q-104 -85 -253 -101zM616 1346q0 40 24 64t62 24t64 -25q25 -25 25 -63t-25 -63q-25 -23 -64 -23q-38 0 -62 24t-24 62zM287 1346q-1 40 23 64t63 24
t63 -25t25 -63q0 -38 -25 -63q-26 -23 -64 -23t-62 23q-23 24 -23 63z" />
    <glyph glyph-name="dotlessi" unicode="&#x131;" horiz-adv-x="256" 
d="M63 0v1024h144v-1024h-144z" />
    <glyph glyph-name="OE" unicode="&#x152;" horiz-adv-x="1740" 
d="M827 1303h-90q-260 0 -401 -161.5t-141 -427.5t146.5 -424.5t395.5 -158.5h90v1172zM727 0q-333 0 -509.5 201.5t-176.5 513.5t179.5 515.5t506.5 203.5h930v-136h-680v-479h616v-133h-616v-551h723v-135h-973z" />
    <glyph glyph-name="oe" unicode="&#x153;" horiz-adv-x="1679" 
d="M1497 573q0 123 -74.5 205t-210.5 82q-251 0 -288 -287h573zM786 477q0 82 -16 151.5t-53 121t-94.5 81t-175.5 29.5t-192.5 -101.5t-74.5 -277.5q0 -265 110.5 -323t192.5 -58t139.5 28t94.5 78t53 119.5t16 151.5zM1239 -6q-141 0 -235.5 58.5t-147.5 150.5
q-107 -209 -373 -209q-210 0 -326 137t-116 352q0 332 166.5 408t288.5 76t213.5 -56.5t142.5 -150.5q55 104 149.5 155.5t210.5 51.5q209 0 317.5 -128t108.5 -372h-718q4 -161 92.5 -259.5t244.5 -98.5t267 122l80 -84q-140 -153 -365 -153z" />
    <glyph glyph-name="Scaron" unicode="&#x160;" horiz-adv-x="1103" 
d="M578 1288q-144 0 -226 -60t-82 -149q0 -135 239 -223q65 -25 123 -45q172 -59 257 -122q84 -62 129 -132t45 -166q0 -191 -143 -297t-359 -104q-155 0 -281 57t-239 184l123 103q139 -189 401 -189q149 0 247 64q97 64 95 156q0 111 -123 195q-80 54 -252 108
q-76 26 -150 54q-268 99 -269 329q0 175 113 282t347 107q147 0 265 -47t221 -172l-133 -105q-115 172 -348 172zM440 1841l111 -133l113 133h153l-190 -231h-150l-190 231h153z" />
    <glyph glyph-name="scaron" unicode="&#x161;" horiz-adv-x="823" 
d="M236 785q0 -82 70 -128q39 -24 127 -54q89 -29 145 -51q207 -82 204 -267q0 -136 -103 -215q-103 -80 -240 -80q-138 0 -228 40t-170 132l106 98q106 -143 277 -143q111 0 164 43t53 97q0 94 -73 140q-42 29 -134 56q-92 29 -146 49q-196 74 -196 258q0 135 94 209
t244 73q106 0 190 -36t158 -129l-100 -97l-2 2q-100 133 -252 131q-104 0 -146 -39t-42 -89zM299 1434l111 -134l112 134h154l-191 -232h-149l-191 232h154z" />
    <glyph glyph-name="Ydieresis" unicode="&#x178;" horiz-adv-x="1251" 
d="M549 0v682l-508 752h180l404 -576l405 576h180l-508 -750l-2 -684h-151zM702 1759q0 39 24 64t62 25t64 -26q25 -24 25 -63t-25 -63t-64 -23q-38 -1 -62 23t-24 63zM373 1759q0 39 23 64q24 25 63 25t63 -26q24 -24 25 -63q0 -39 -25 -63q-26 -24 -64 -23q-38 -1 -62 23
t-23 63z" />
    <glyph glyph-name="Zcaron" unicode="&#x17d;" horiz-adv-x="1124" 
d="M1083 152v-152h-1042v152l786 1130h-743v152h948v-150l-786 -1132h837zM432 1847l111 -133l112 133h154l-191 -231h-149l-190 231h153z" />
    <glyph glyph-name="zcaron" unicode="&#x17e;" horiz-adv-x="858" 
d="M817 137v-137h-776v137l567 752h-567v135h745v-135l-581 -752h612zM299 1434l111 -134l112 134h154l-191 -232h-149l-191 232h154z" />
    <glyph glyph-name="circumflex" unicode="&#x2c6;" horiz-adv-x="624" 
d="M41 1202l190 232h162l191 -232h-160l-113 133l-110 -133h-160z" />
    <glyph glyph-name="caron" unicode="&#x2c7;" horiz-adv-x="612" 
d="M195 1434l110 -134l113 134h153l-190 -232h-150l-190 232h154z" />
    <glyph glyph-name="breve" unicode="&#x2d8;" horiz-adv-x="495" 
d="M248 1241q-98 0 -151.5 55.5t-55.5 135.5h90q5 -123 91.5 -123t114.5 36.5t30 86.5h88q-4 -78 -56.5 -134.5t-150.5 -56.5z" />
    <glyph glyph-name="dotaccent" unicode="&#x2d9;" horiz-adv-x="272" 
d="M41 1333q0 41 26.5 69t67.5 28t68.5 -28t27.5 -69t-27.5 -67.5t-68.5 -26.5t-67.5 26.5t-26.5 67.5z" />
    <glyph glyph-name="ring" unicode="&#x2da;" horiz-adv-x="518" 
d="M477 1206q0 -90 -56 -148.5t-160.5 -58.5t-162 60.5t-57.5 150.5t57.5 148.5t162 58.5t160.5 -60.5t56 -150.5zM354 1209q0 42 -22.5 73t-71.5 31t-70.5 -31t-21.5 -72t21.5 -72.5t70.5 -31.5t71.5 30.5t22.5 72.5z" />
    <glyph glyph-name="ogonek" unicode="&#x2db;" horiz-adv-x="204" 
 />
    <glyph glyph-name="tilde" unicode="&#x2dc;" horiz-adv-x="741" 
d="M41 1339q91 91 171 91t151 -30t95.5 -40t52.5 -10t54.5 12t75.5 39l59 -86q-66 -45 -104.5 -62.5t-83.5 -17.5t-79 13.5t-94 42t-89 28.5q-30 0 -42.5 -2t-27 -10.5t-32 -21.5t-48.5 -34z" />
    <glyph glyph-name="hungarumlaut" unicode="&#x2dd;" horiz-adv-x="661" 
d="M354 1130l140 302h127l-158 -302h-109zM102 1130l140 302h127l-158 -302h-109z" />
    <glyph glyph-name="endash" unicode="&#x2013;" horiz-adv-x="1024" 
d="M41 420v112h942v-112h-942z" />
    <glyph glyph-name="emdash" unicode="&#x2014;" horiz-adv-x="1474" 
d="M41 420v112h1393v-112h-1393z" />
    <glyph glyph-name="quoteleft" unicode="&#x2018;" horiz-adv-x="325" 
d="M285 1434l-113 -410h-131l121 410h123z" />
    <glyph glyph-name="quoteright" unicode="&#x2019;" horiz-adv-x="325" 
d="M285 1434l-113 -410h-131l121 410h123z" />
    <glyph glyph-name="quotesinglbase" unicode="&#x201a;" horiz-adv-x="348" 
d="M41 -98l139 301h127l-157 -301h-109z" />
    <glyph glyph-name="quotedblleft" unicode="&#x201c;" horiz-adv-x="585" 
d="M545 1434l-113 -410h-131l121 410h123zM285 1434l-113 -410h-131l121 410h123z" />
    <glyph glyph-name="quotedblright" unicode="&#x201d;" horiz-adv-x="585" 
d="M545 1434l-113 -410h-131l121 410h123zM285 1434l-113 -410h-131l121 410h123z" />
    <glyph glyph-name="quotedblbase" unicode="&#x201e;" horiz-adv-x="600" 
d="M293 -98l139 301h127l-158 -301h-108zM41 -98l139 301h127l-157 -301h-109z" />
    <glyph glyph-name="bullet" unicode="&#x2022;" horiz-adv-x="462" 
d="M41 475q0 84 52 138.5t136 54.5t138.5 -54.5t54.5 -138.5t-54.5 -136t-138.5 -52t-136 52t-52 136z" />
    <glyph glyph-name="ellipsis" unicode="&#x2026;" horiz-adv-x="1050" 
d="M819 94q0 41 26.5 68.5t67.5 27.5t69 -27.5t28 -68.5t-28 -67.5t-69 -26.5t-67.5 26.5t-26.5 67.5zM430 94q0 41 26.5 68.5t67.5 27.5t69 -27.5t28 -68.5t-28 -67.5t-69 -26.5t-67.5 26.5t-26.5 67.5zM41 94q0 41 26.5 68.5t67.5 27.5t68.5 -27.5t27.5 -68.5t-27.5 -67.5
t-68.5 -26.5t-67.5 26.5t-26.5 67.5z" />
    <glyph glyph-name="guilsinglleft" unicode="&#x2039;" horiz-adv-x="489" 
d="M322 139l-281 338l281 338h127l-269 -338l269 -338h-127z" />
    <glyph glyph-name="guilsinglright" unicode="&#x203a;" horiz-adv-x="479" 
d="M41 139l248 338l-248 338h117l280 -338l-280 -338h-117z" />
    <glyph glyph-name="fraction" unicode="&#x2044;" horiz-adv-x="634" 
d="M156 0h-115l438 1434h115z" />
    <glyph glyph-name="Euro" unicode="&#x20ac;" horiz-adv-x="1075" 
d="M41 401v121h162q-2 20 -2 27v74q0 52 6 92h-166v119h186q42 174 153.5 290.5t276.5 116.5q221 0 377 -221l-100 -105q-126 197 -272 197q-101 0 -175 -78t-114 -200h362v-119h-391q-6 -40 -6 -96q0 -55 4 -97h393v-121h-370q54 -192 145.5 -236t151.5 -44q151 0 272 182
l100 -102q-151 -211 -377 -211q-172 0 -283 115t-151 296h-182z" />
    <glyph glyph-name="trademark" unicode="&#x2122;" horiz-adv-x="1660" 
d="M1468 424v696l-297 -559l-297 547v-684h-151v1010h131l317 -586l322 586h127v-1010h-152zM424 1298v-878h-154v878h-229v136h608v-136h-225z" />
    <glyph glyph-name="minus" unicode="&#x2212;" horiz-adv-x="983" 
d="M41 461v112h901v-112h-901z" />
    <glyph glyph-name="percent" horiz-adv-x="995" 
d="M471 1230q0 -85 -52.5 -143.5t-154.5 -58.5t-158.5 59.5t-56.5 143.5t56.5 141.5t157.5 57.5t154.5 -57.5t53.5 -142.5zM286 1114q85 0 85 115q0 49 -26 85t-109.5 36t-83.5 -121q0 -47 24.5 -81t109.5 -34zM182 0h-141l762 1430h141zM954 202q0 -85 -53 -143.5
t-155 -58.5t-158 59.5t-56 143.5t56.5 141t157.5 57t154.5 -57t53.5 -142zM746.5 86q107.5 0 107.5 82t-25.5 118t-107.5 36t-82 -118t107.5 -118z" />
    </font>
</defs>
</svg>
