<?xml version="1.0" standalone="no"?>
<!DOCTYPE svg PUBLIC "-//W3C//DTD SVG 1.1//EN" "http://www.w3.org/Graphics/SVG/1.1/DTD/svg11.dtd" >
<svg xmlns="http://www.w3.org/2000/svg">
<metadata>
Created by FontPrep 20130207 at Fri May 23 23:10:46 2014
 By Victor
Copyright (c) 2014 by Antonio Rodrigues Jr. All rights reserved.
</metadata>
<defs>
<font id="fb98119a8195cbe52d7103d9e960b0c9" horiz-adv-x='1024' >
  <font-face 
    font-family="BerlinBold"
    font-weight="700"
    font-stretch="normal"
    units-per-em="2048"
    panose-1="2 0 8 6 0 0 0 2 0 4"
    ascent="1536"
    descent="-512"
    x-height="1022"
    cap-height="1434"
    bbox="-137 -471 1810 1845.02"
    underline-thickness="102"
    underline-position="-102"
    unicode-range="U+0020-2212"
  />
<missing-glyph horiz-adv-x="516" 
 />
    <glyph glyph-name=".notdef" horiz-adv-x="516" 
 />
    <glyph glyph-name=".null" horiz-adv-x="0" 
 />
    <glyph glyph-name="nonmarkingreturn" horiz-adv-x="516" 
 />
    <glyph glyph-name="space" unicode=" " horiz-adv-x="516" 
 />
    <glyph glyph-name="space" unicode="&#xa0;" horiz-adv-x="516" 
 />
    <glyph glyph-name="exclam" unicode="!" horiz-adv-x="325" 
d="M274 401h-225v1031h225v-1031zM41 120q0 54 34 89t87 35t88 -35t35 -89t-35 -87t-88 -33t-87 33t-34 87z" />
    <glyph glyph-name="quotedbl" unicode="&#x22;" horiz-adv-x="483" 
d="M215 895h-158l-16 541h192zM426 895h-158l-20 541h194z" />
    <glyph glyph-name="numbersign" unicode="#" horiz-adv-x="944" 
d="M553 600h-121l-37 -178h117zM41 242v180h172q4 23 12 59.5t25 118.5h-209v182h250l47 238h178l-45 -238h117l45 238h182l-51 -238h139v-182h-174l-33 -168q-2 -2 -2 -4v-6h209v-180h-244q-4 -24 -49 -242h-184l51 242h-121l-47 -242h-176l43 242h-135z" />
    <glyph glyph-name="dollar" unicode="$" horiz-adv-x="1046" 
d="M334 915q0 -49 28.5 -77.5t81.5 -51.5v242q-110 -26 -110 -113zM772 334q0 59 -36 92t-91 55v-268q127 30 127 121zM993 352q0 -145 -94 -232t-254 -110v-200h-201v196q-224 19 -403 225l162 154q114 -146 241 -172v326q-155 44 -243 124.5t-88 235.5q0 202 119.5 262
t211.5 72v201h201v-201q209 -31 361 -219l-162 -140q-86 121 -199 152v-301q241 -66 294.5 -177.5t53.5 -195.5z" />
    <glyph glyph-name="uni0025" unicode="%" 
d="M541 1215q0 -93 -59.5 -158.5t-168.5 -65.5t-174 63.5t-65 159.5t62 160t174 64t171.5 -65t59.5 -158zM309.5 1148q63.5 0 63.5 70t-63.5 70t-63.5 -70t63.5 -70zM258 0h-217l745 1438h218zM989 224q0 -93 -59.5 -158.5t-173.5 -65.5q-162 0 -198 89t-36 134
q0 96 61.5 161t174.5 65t172 -66t59 -159zM757.5 156q61.5 0 61.5 70t-61.5 70t-61.5 -70t61.5 -70z" />
    <glyph glyph-name="ampersand" unicode="&#x26;" horiz-adv-x="1232" 
d="M276 411q0 -81 64 -147q63 -70 162 -69q150 0 264 98l-301 364q-96 -59 -142.5 -112t-46.5 -134zM692 1117q0 56 -37 91t-90 35t-91 -33.5t-38 -73.5t20.5 -76t55.5 -81l31 -35q68 39 108.5 78t40.5 95zM517 -6q-214 0 -349 119q-127 121 -127 299q0 250 297 424
q-127 173 -127 272q0 137 104 233q111 93 259 93t247 -91q97 -91 97 -211t-62.5 -202t-185.5 -160q50 -60 93.5 -114t72 -87.5t61.5 -74.5q36 89 39 204h219q-19 -231 -106 -393l143 -176l-178 -147l-117 141q-166 -129 -380 -129z" />
    <glyph glyph-name="quotesingle" unicode="'" horiz-adv-x="272" 
d="M215 893h-160l-14 541h190z" />
    <glyph glyph-name="parenleft" unicode="(" horiz-adv-x="626" 
d="M41 654q0 443 135 666.5t195 297.5h215q-248 -308 -299 -552.5t-51 -539t350 -729.5h-215q-330 414 -330 857z" />
    <glyph glyph-name="parenright" unicode=")" horiz-adv-x="626" 
d="M391 645.5q0 413.5 -138 647t-212 325.5h215q221 -277 275.5 -524.5t54.5 -565t-330 -731.5h-215q350 435 350 848.5z" />
    <glyph glyph-name="asterisk" unicode="*" horiz-adv-x="811" 
d="M319 1438h170l3 -248l231 74l47 -156l-227 -84l149 -195l-131 -98l-155 195l-152 -191l-133 92l139 203l-219 82l53 154l225 -76v248z" />
    <glyph glyph-name="plus" unicode="+" horiz-adv-x="991" 
d="M403 63v363h-362v180h362v367h181v-367h366v-180h-366v-363h-181z" />
    <glyph glyph-name="comma" unicode="," horiz-adv-x="421" 
d="M41 -274l141 540h199l-152 -540h-188z" />
    <glyph glyph-name="hyphen" unicode="-" horiz-adv-x="536" 
d="M41 422v186h455v-186h-455z" />
    <glyph glyph-name="period" unicode="." horiz-adv-x="342" 
d="M41 128q0 56 36 94t92 38t94 -38t38 -94t-38 -92t-94 -36t-92 36t-36 92z" />
    <glyph glyph-name="slash" unicode="/" horiz-adv-x="811" 
d="M41 0l539 1403h190l-539 -1403h-190z" />
    <glyph glyph-name="zero" unicode="0" horiz-adv-x="1138" 
d="M567 182q142 0 231 147t89 384.5t-89.5 381.5t-230.5 144t-232 -143t-91 -382.5t90.5 -385.5t232.5 -146zM569.5 -16q-235.5 0 -382 197t-146.5 531q0 333 148.5 533.5t380 200.5t380 -200t148.5 -534q0 -333 -146.5 -530.5t-382 -197.5z" />
    <glyph glyph-name="one" unicode="1" horiz-adv-x="288" 
d="M41 0v1364l207 76v-1440h-207z" />
    <glyph glyph-name="two" unicode="2" horiz-adv-x="1015" 
d="M713 1014q0 94 -63.5 160.5t-163.5 66.5q-190 0 -259 -205l-186 152q66 123 180.5 197.5t236.5 74.5q226 0 350 -125.5t124 -330.5q0 -206 -262 -480l-289 -315h594v-209h-909v201l423 446v-2q161 180 192.5 252t31.5 117z" />
    <glyph glyph-name="three" unicode="3" horiz-adv-x="1024" 
d="M55 1241q183 195 403 195q217 0 341.5 -97.5t124.5 -279.5t-154 -281q92 -47 152.5 -144.5t60.5 -213.5q0 -213 -142 -322.5t-354 -109.5q-133 0 -236.5 47t-209.5 151l170 142q110 -146 276 -146q129 0 205 59.5t76 169.5t-92 178t-258 68h-82v207h86q123 0 204 50.5
t81 138.5t-64.5 138t-156.5 50t-152 -32.5t-117 -100.5z" />
    <glyph glyph-name="four" unicode="4" horiz-adv-x="1046" 
d="M678 586v29v114l-2 324l-336 -467h338zM678 2v373h-637v151l670 916h176v-856h119v-211h-119v-373h-209z" />
    <glyph glyph-name="five" unicode="5" horiz-adv-x="1030" 
d="M698 285q84 84 84 212t-95.5 217t-252.5 89q-156 0 -307 -49l68 690h692v-211h-512q-2 -33 -4 -58.5t-5.5 -71t-9.5 -97.5q29 2 36 2h71q223 0 374.5 -135t151.5 -379q0 -195 -142.5 -348.5t-354.5 -153.5q-135 0 -241 50t-210 151l164 145q104 -137 287 -137
q122 0 206 84z" />
    <glyph glyph-name="six" unicode="6" horiz-adv-x="1042" 
d="M254 522q0 -42 19.5 -108t78.5 -148t182 -82q122 0 190.5 76t68.5 191t-68.5 192.5t-162.5 77.5q-172 0 -302 -121q-6 -36 -6 -78zM313 872q106 56 268 56t291 -133t129 -336.5t-129.5 -337t-349.5 -133.5t-350.5 172t-130.5 415q0 313 182 562.5t580 322.5l59 -186
q-233 -53 -361 -157.5t-188 -244.5z" />
    <glyph glyph-name="seven" unicode="7" horiz-adv-x="937" 
d="M379 82v-82h-207v78q0 266 104.5 474t176.5 341v-2q20 41 40.5 77t41 74.5t44 82.5t54.5 104h-592v211h856v-152l-227 -414q-134 -248 -212.5 -448t-78.5 -344z" />
    <glyph glyph-name="eight" unicode="8" horiz-adv-x="1077" 
d="M311 1062q0 -81 64.5 -130t163.5 -60q96 10 160.5 59.5t64.5 130.5t-66.5 129t-162.5 48h-5q-92 -4 -155.5 -50t-63.5 -127zM817 406q0 102 -73.5 171.5t-204.5 79.5q-135 -10 -208 -78.5t-73 -172.5q0 -59 27 -113q47 -49 115.5 -78t137.5 -29t140.5 30t118.5 83
q20 46 20 107zM41 406q0 129 59.5 229t151.5 147q-154 99 -154 281t124.5 279.5t320.5 97.5h8q73 0 133 -19q131 -33 212 -120t81 -232q0 -188 -154 -287q92 -47 152.5 -147.5t60.5 -210.5q0 -197 -118 -305.5t-295 -124.5l-27 -4l-16 -2h-66l-61 6q-174 16 -293 123.5
t-119 288.5z" />
    <glyph glyph-name="nine" unicode="9" horiz-adv-x="1042" 
d="M788 926q0 42 -19 108t-78 148t-182 82q-122 0 -190.5 -76t-68.5 -191t68 -192.5t161 -77.5q173 0 303 121q6 36 6 78zM729 575q-104 -55 -267.5 -55t-292 134t-128.5 336t129 336t350 134q220 0 350.5 -172t130.5 -416q0 -314 -182.5 -562.5t-578.5 -321.5l-60 186
q233 53 361.5 157.5t187.5 243.5z" />
    <glyph glyph-name="colon" unicode=":" horiz-adv-x="342" 
d="M41 890q0 56 36 94t92 38t94 -38t38 -94t-38 -92t-94 -36t-92 36t-36 92zM41 128q0 56 36 94t92 38t94 -38t38 -94t-38 -92t-94 -36t-92 36t-36 92z" />
    <glyph glyph-name="semicolon" unicode=";" horiz-adv-x="440" 
d="M139 890q0 56 36 94t92 38t94 -38t38 -94t-37.5 -92t-93.5 -36t-92.5 36t-36.5 92zM41 -291l149 541h199l-151 -541h-197z" />
    <glyph glyph-name="less" unicode="&#x3c;" horiz-adv-x="612" 
d="M338 123l-297 356l297 357h233l-276 -357l47 -59q138 -162 225 -297h-229z" />
    <glyph glyph-name="equal" unicode="=" horiz-adv-x="940" 
d="M41 635v203h858v-203h-858zM41 268v197h858v-197h-858z" />
    <glyph glyph-name="greater" unicode="&#x3e;" horiz-adv-x="612" 
d="M41 123l276 354q-10 10 -17 20.5t-15 20.5l-72 88l-172 230h233l297 -357l-297 -356h-233z" />
    <glyph glyph-name="question" unicode="?" horiz-adv-x="870" 
d="M41 1255q185 189 377 189q187 0 299 -92.5t112 -270.5q0 -202 -307 -419v-367h-200l-5 491q181 113 238 165.5t57 131.5q0 78 -51 118t-124 40t-128 -33.5t-112 -105.5zM295 126q0 54 35 91t90 37t92 -37t37 -91t-37 -90t-92 -36t-90 36t-35 90z" />
    <glyph glyph-name="at" unicode="@" horiz-adv-x="1378" 
d="M823 836q0 116 -155 116q-80 0 -179 -118l-133 147q125 160 326 160q154 0 245 -75t91 -216v-350q0 -12 17 -12q44 -1 72 60t28 182q0 231 -122 357.5t-330 126.5t-325.5 -148.5t-117.5 -373.5q0 -224 116 -365t336 -141q102 0 187.5 27t164.5 98h-14q-104 0 -170 66
q-102 -80 -229 -80t-210 72.5t-83 201.5t89.5 198t229.5 69q88 0 166 -21v19zM1194 201q-205 -201 -509 -201t-474 193.5t-170 497.5t172.5 504t468.5 200t475.5 -177.5t179.5 -474.5q0 -171 -63 -279.5t-162 -139.5zM704 655q-174 0 -174 -87q0 -42 33 -64.5t83 -22.5
t97.5 28t79.5 64v56q-65 26 -119 26z" />
    <glyph glyph-name="A" unicode="A" horiz-adv-x="1314" 
d="M510 631h293q-20 59 -37.5 106t-34 93.5t-34 95.5t-40.5 114zM883 412h-451l-145 -412h-246l512 1434h209l512 -1434h-246z" />
    <glyph glyph-name="B" unicode="B" horiz-adv-x="1130" 
d="M262 1212v-360h350q76 0 128.5 52t52.5 129t-52.5 128t-128.5 51h-350zM262 221h402q82 0 145 64.5t63 152.5t-61 140.5t-147 52.5h-402v-410zM1090 433q0 -187 -126.5 -310t-301.5 -123h-621v1434h569q167 0 284.5 -119.5t117.5 -273.5t-101 -273q84 -57 131.5 -147.5
t47.5 -187.5z" />
    <glyph glyph-name="C" unicode="C" horiz-adv-x="1253" 
d="M157.5 269q-116.5 152 -116.5 456t163.5 515.5t475.5 211.5q174 0 302 -69.5t230 -190.5l-161 -143q-88 109 -177.5 145.5t-193.5 36.5t-184 -42t-132.5 -112.5t-77 -163t-24.5 -249.5t108.5 -305t313.5 -148q100 0 190.5 40t176.5 148l161 -143q-218 -264 -532 -264
q-164 0 -285 62.5t-237.5 214.5z" />
    <glyph glyph-name="D" unicode="D" horiz-adv-x="1302" 
d="M1036 719q0 233 -127 363t-346 130h-301v-991h301q229 0 351 132.5t122 365.5zM1081 202.5q-181 -202.5 -510 -202.5h-530v1434h530q339 0 515 -202t176 -514q0 -313 -181 -515.5z" />
    <glyph glyph-name="E" unicode="E" horiz-adv-x="972" 
d="M41 0v1434h885v-222h-664v-358h604v-221h-604v-412h670v-221h-891z" />
    <glyph glyph-name="F" unicode="F" horiz-adv-x="966" 
d="M41 0v1434h885v-222h-664v-358h604v-221h-604v-633h-221z" />
    <glyph glyph-name="G" unicode="G" horiz-adv-x="1280" 
d="M1018 633h-385v221h606v-602l-10 -25q-92 -106 -213 -170.5t-290 -64.5t-296 62.5t-213 165t-131 234.5t-45 272q0 304 163.5 515t475.5 211q174 0 302 -69.5t230 -190.5l-161 -143q-88 109 -178.5 145.5t-194.5 36.5t-183 -42t-131.5 -112.5t-77 -163t-24.5 -244
t126.5 -305t321.5 -153.5t308 100v322z" />
    <glyph glyph-name="H" unicode="H" horiz-adv-x="1116" 
d="M854 0v633h-592v-633h-221v1434h221v-580h592v580h221v-1434h-221z" />
    <glyph glyph-name="I" unicode="I" horiz-adv-x="303" 
d="M41 0v1434h221v-1434h-221z" />
    <glyph glyph-name="J" unicode="J" horiz-adv-x="942" 
d="M492 205q188 0 188 235v994h221v-996q0 -225 -110.5 -339.5t-321.5 -114.5q-134 0 -229.5 56.5t-198.5 192.5l166 156q59 -88 124.5 -136t160.5 -48z" />
    <glyph glyph-name="K" unicode="K" horiz-adv-x="1200" 
d="M41 0v1434h219v-603l602 603h297l-698 -697q204 -214 322 -340.5t207 -219.5t169 -177h-307l-592 631v-631h-219z" />
    <glyph glyph-name="L" unicode="L" horiz-adv-x="970" 
d="M41 0v1434h221v-1213h668v-221h-889z" />
    <glyph glyph-name="M" unicode="M" horiz-adv-x="1366" 
d="M1106 0v975l-422 -688l-428 676v-963h-215v1434h170l473 -754l473 754h168v-1434h-219z" />
    <glyph glyph-name="N" unicode="N" horiz-adv-x="1249" 
d="M258 0h-217v1434h174l776 -1020v1020h217v-1434h-180l-770 1022v-1022z" />
    <glyph glyph-name="O" unicode="O" horiz-adv-x="1423" 
d="M1203 202.5q-179 -212.5 -491.5 -212.5t-491.5 212.5t-179 520.5t178 518.5t492.5 210.5t492.5 -210.5t178 -518.5t-179 -520.5zM1159 721q0 218 -117 364t-331 146t-330.5 -147t-116.5 -360.5t117 -363t330 -149.5q214 0 331 146t117 364z" />
    <glyph glyph-name="P" unicode="P" horiz-adv-x="1052" 
d="M260 801h324q85 0 146 59t61 144.5t-63 146.5t-144 61h-324v-411zM260 580v-580h-219v1434h543q175 0 301.5 -126.5t126.5 -302.5t-126.5 -300.5t-301.5 -124.5h-324z" />
    <glyph glyph-name="Q" unicode="Q" horiz-adv-x="1423" 
d="M1159 721q0 218 -117 364t-331 146t-330.5 -147t-116.5 -360.5t117 -363t330 -149.5q214 0 331 146t117 364zM1382 739q0 -252 -107 -437t-306 -265q20 -29 82 -103t100 -129h-258l-141 187q-10 -2 -12 -2h-29q-312 0 -491 212.5t-179 520.5t178 518.5t492.5 210.5
t450.5 -161t178 -293t42 -259z" />
    <glyph glyph-name="R" unicode="R" horiz-adv-x="1126" 
d="M262 801h324q86 0 145.5 59.5t59.5 145.5t-59.5 145t-145.5 61h-324v-411zM262 580v-580h-221v1434h545q173 0 299.5 -126.5t126.5 -301.5q0 -129 -71 -233.5t-179 -156.5l323 -616h-249l-318 580h-256z" />
    <glyph glyph-name="S" unicode="S" horiz-adv-x="1157" 
d="M879 390q0 83 -81.5 134t-248.5 109l-49 18q-70 25 -222.5 88t-152.5 318t174.5 319t274.5 64q182 0 306 -58t236 -194l-190 -152l-35 51q-107 132 -287 132q-119 0 -185.5 -46.5t-66.5 -115.5t90.5 -118t187.5 -83t172 -67t187.5 -120t112.5 -257q0 -200 -144 -311
t-368 -111q-154 0 -287 65.5t-262 208.5l180 148q143 -197 371 -197q195 0 241 65.5t46 109.5z" />
    <glyph glyph-name="T" unicode="T" horiz-adv-x="976" 
d="M602 1212v-1212h-221v1212h-340v222h895v-222h-334z" />
    <glyph glyph-name="U" unicode="U" horiz-adv-x="1245" 
d="M621 -14q-155 0 -361.5 93.5t-218.5 403.5v951h221v-928q0 -137 87.5 -210.5t230.5 -86.5q10 -2 26 -2h32t54 4t96 23.5t126.5 77t68.5 194.5v928h221v-951q-8 -203 -141.5 -334.5t-343.5 -156.5l-72 -6h-26z" />
    <glyph glyph-name="V" unicode="V" horiz-adv-x="1314" 
d="M657 393q13 38 371 1041h246l-512 -1434h-209l-512 1434h246z" />
    <glyph glyph-name="W" unicode="W" horiz-adv-x="1851" 
d="M1409 0h-209l-266 963l-277 -963h-215l-401 1434h240l272 -961l268 961h217l267 -961l268 961h237z" />
    <glyph glyph-name="X" unicode="X" horiz-adv-x="1357" 
d="M678 922q240 352 352 512h279l-496 -711q57 -84 121.5 -176t130 -186.5t130.5 -186.5t122 -174h-283l-358 522l-357 -522h-278l502 723l-496 711h281z" />
    <glyph glyph-name="Y" unicode="Y" horiz-adv-x="1337" 
d="M557 0v672l-516 762h264l363 -516l364 516h264l-516 -762l-2 -672h-221z" />
    <glyph glyph-name="Z" unicode="Z" horiz-adv-x="1146" 
d="M1106 221v-221h-1065v193l713 1019h-672v222h975v-191l-709 -1022h758z" />
    <glyph glyph-name="bracketleft" unicode="[" horiz-adv-x="403" 
d="M41 -203v1749h321v-170h-141v-1407h141v-172h-321z" />
    <glyph glyph-name="backslash" unicode="\" horiz-adv-x="811" 
d="M580 0l-539 1440h190l539 -1440h-190z" />
    <glyph glyph-name="bracketright" unicode="]" horiz-adv-x="403" 
d="M41 -203v172h141v1407h-141v170h321v-1749h-321z" />
    <glyph glyph-name="asciicircum" unicode="^" horiz-adv-x="651" 
d="M41 1169l219 263h133l217 -263h-184l-100 121l-99 -121h-186z" />
    <glyph glyph-name="underscore" unicode="_" horiz-adv-x="1105" 
d="M41 -395v180h1024v-180h-1024z" />
    <glyph glyph-name="grave" unicode="`" horiz-adv-x="475" 
d="M233 1202l-192 232h203l190 -232h-201z" />
    <glyph glyph-name="a" unicode="a" horiz-adv-x="931" 
d="M90 854q158 180 368 180q205 0 319 -95.5t114 -268.5v-670h-207v49q-57 -41 -125.5 -50t-148.5 -9q-164 0 -266.5 79.5t-102.5 238.5t88 228.5t162 91t198 21.5t195 -20v24q0 90 -57.5 138.5t-142.5 48.5t-134 -22t-108 -95zM248 310q0 -132 188 -132q159 0 248 117v127
q-73 27 -165 27q-271 0 -271 -139z" />
    <glyph glyph-name="b" unicode="b" horiz-adv-x="985" 
d="M399 846q-49 0 -149 -27v-614q80 -20 168 -21q147 0 229 91t82 245t-89 240t-241 86zM422 1036q90 0 186.5 -29.5t216 -131.5t119.5 -346t-145.5 -389.5t-392.5 -145.5q-168 0 -365 61v1379h209v-418q82 20 172 20z" />
    <glyph glyph-name="c" unicode="c" horiz-adv-x="974" 
d="M530 184q149 0 277 140l127 -138l-23 -28q-72 -76 -163 -120t-221 -44q-241 0 -363.5 152t-122.5 375t125.5 369t355.5 146t404 -192l-142 -139q-128 141 -262 141q-135 0 -202.5 -91.5t-67.5 -234.5q0 -225 102.5 -280.5t175.5 -55.5z" />
    <glyph glyph-name="d" unicode="d" horiz-adv-x="985" 
d="M586 846q-152 0 -241 -86t-89 -240t82 -245t231 -91q88 0 166 19v616q-100 27 -149 27zM562 1036q91 0 173 -20v418h209v-1379q-197 -61 -343 -61q-269 0 -414.5 145.5t-145.5 389.5t155 375.5t366 131.5z" />
    <glyph glyph-name="e" unicode="e" horiz-adv-x="1003" 
d="M507 852q-112 0 -168 -57.5t-77 -149.5h488q-10 88 -70.5 147.5t-172.5 59.5zM543 182q152 0 274 133l131 -139l-22 -26q-142 -158 -385 -158t-371.5 149t-128.5 365q0 259 132.5 393.5t347.5 134.5q214 0 328 -147.5t114 -429.5h-709q16 -129 91 -202t198 -73z" />
    <glyph glyph-name="f" unicode="f" horiz-adv-x="593" 
d="M41 1026h86q0 281 104.5 349.5t190.5 68.5q27 0 131 -17l-29 -176h-45q-70 20 -106.5 -27t-36.5 -198h166v-195h-166v-831h-209v831h-86v195z" />
    <glyph glyph-name="g" unicode="g" horiz-adv-x="985" 
d="M588 182q44 0 149 27v614q-76 20 -166 21q-147 0 -230 -91t-83 -245t89 -240t241 -86zM595 1034q136 0 349 -61v-977q0 -230 -125.5 -339.5t-358.5 -109.5t-419 195l139 152q127 -143 295 -144q131 0 196.5 52.5t65.5 174.5v33q-81 -18 -171 -18t-186.5 29.5
t-215.5 131.5t-119 346t145.5 389.5t404.5 145.5z" />
    <glyph glyph-name="h" unicode="h" horiz-adv-x="954" 
d="M252 952q108 90 276 90t276.5 -98t108.5 -272v-672h-208v645q0 102 -58.5 151.5t-148.5 49.5q-116 0 -172 -81t-74 -110v-655h-211v1434h211v-482z" />
    <glyph glyph-name="i" unicode="i" horiz-adv-x="319" 
d="M41 1315q0 53 32.5 86t86 33t86.5 -33t33 -86t-33 -86t-86.5 -33t-86 33t-32.5 86zM57 0v1024h209v-1024h-209z" />
    <glyph glyph-name="j" unicode="j" horiz-adv-x="544" 
d="M268 1315q0 53 32 86t85 33t86 -33t33 -86t-33 -86t-86 -33t-85 33t-32 86zM281 49v977h208v-983q0 -272 -147 -350t-254 -90l-47 186q127 16 183.5 79.5t56.5 180.5z" />
    <glyph glyph-name="k" unicode="k" horiz-adv-x="978" 
d="M41 0v1434h209v-818l401 408h287l-506 -494l500 -530h-289l-393 432v-432h-209z" />
    <glyph glyph-name="l" unicode="l" horiz-adv-x="288" 
d="M41 0v1434h207v-1434h-207z" />
    <glyph glyph-name="m" unicode="m" horiz-adv-x="1615" 
d="M1575 672v-672h-207v645q0 100 -60 149.5t-130 50.5q-116 2 -191.5 -63.5t-75.5 -128.5v-653h-204v645q0 102 -60.5 151.5t-147.5 49.5t-168 -64t-81 -127v-655h-209v1026h209v-74q112 90 276 90q98 0 183.5 -38.5t138.5 -112.5q142 148 340 151q169 0 278 -98.5
t109 -271.5z" />
    <glyph glyph-name="n" unicode="n" horiz-adv-x="952" 
d="M250 952q108 90 275 90t276.5 -98t109.5 -272v-672h-206v645q0 102 -59.5 151.5t-146.5 49.5t-168 -64t-81 -127v-655h-209v1026h209v-74z" />
    <glyph glyph-name="o" unicode="o" 
d="M165.5 133.5q-124.5 147.5 -124.5 378.5q0 232 124.5 377t356.5 145t357 -148t125 -378q0 -231 -125 -376.5t-357 -145.5t-356.5 147.5zM786 508q0 74 -14 136.5t-46 108.5t-83 72.5t-154.5 26.5t-167 -92.5t-63.5 -249.5q0 -242 95.5 -293t167 -51t122.5 25.5t83 71.5
t46 108.5t14 136.5z" />
    <glyph glyph-name="p" unicode="p" horiz-adv-x="995" 
d="M397 182q154 0 243 86t89 240t-83 245t-230 91q-88 0 -168 -21v-614q100 -27 149 -27zM388 1034q262 0 414 -145t152 -389t-159 -376t-385 -132q-82 0 -162 18v-481h-207v1444q207 61 347 61z" />
    <glyph glyph-name="q" unicode="q" horiz-adv-x="983" 
d="M586 182q49 0 149 27v614q-80 20 -166 21q-150 0 -231.5 -91t-81.5 -245t89 -240t241 -86zM592 1034q137 0 350 -61v-1444h-207v481q-80 -18 -172 -18q-212 0 -367 131t-155 376q0 244 145.5 389.5t405.5 145.5z" />
    <glyph glyph-name="r" unicode="r" horiz-adv-x="739" 
d="M503 846q-96 0 -174.5 -65t-78.5 -126v-655h-209v1024h209v-72q108 90 274 90q83 0 174 -26l-55 -205q-90 35 -140 35z" />
    <glyph glyph-name="s" unicode="s" horiz-adv-x="870" 
d="M651 739q-83 107 -211 107q-129 0 -129 -97q0 -46 57.5 -75t121.5 -49q159 -49 244 -115.5t85 -209.5t-107.5 -226.5t-246.5 -83.5q-140 0 -236 48t-188 155l156 143q113 -152 252 -152q84 0 123.5 29t39.5 66q0 61 -48 91t-127 54q-80 24 -206.5 70.5t-126.5 248.5
q0 141 97.5 219t253.5 78q109 0 197.5 -43t176.5 -151l-147 -141z" />
    <glyph glyph-name="t" unicode="t" horiz-adv-x="593" 
d="M422 -8q-295 0 -295 397v445h-86v194h86v242h209v-242h166v-194h-166v-441q0 -151 37 -190t106 -19l45 2l29 -176q-97 -18 -131 -18z" />
    <glyph glyph-name="u" unicode="u" horiz-adv-x="976" 
d="M727 1024h209v-1024h-203v57q-106 -69 -285 -69t-293 96t-114 272v668h209v-641q0 -98 63 -150.5t160 -52.5q170 0 254 127v717z" />
    <glyph glyph-name="v" unicode="v" horiz-adv-x="1116" 
d="M655 0h-188l-426 1022h227l295 -735l299 735h213z" />
    <glyph glyph-name="w" unicode="w" horiz-adv-x="1669" 
d="M502 319q158 452 250 703h176l252 -700l237 700h211l-358 -1022h-180l-252 694l-258 -694h-181l-358 1022h221z" />
    <glyph glyph-name="x" unicode="x" horiz-adv-x="1103" 
d="M565 668q217 296 258 356h238l-369 -508l371 -516h-252l-266 367l-264 -367h-240l377 520l-369 504h252z" />
    <glyph glyph-name="y" unicode="y" horiz-adv-x="1120" 
d="M154 -211q192 39 247.5 106.5t57.5 120.5l-418 1008h233l291 -727l289 727h225l-450 -1104q-37 -123 -147.5 -210t-282.5 -107z" />
    <glyph glyph-name="z" unicode="z" horiz-adv-x="876" 
d="M836 203v-203h-795v178l487 645h-487v201h766v-176l-500 -645h529z" />
    <glyph glyph-name="braceleft" unicode="{" horiz-adv-x="466" 
d="M358 1540h68v-180l-68 -2q-62 0 -64.5 -57.5t-2.5 -75.5v-385q-4 -43 -11.5 -83t-41.5 -69q35 -31 42 -70.5t11 -82.5l2 -437q0 -88 21.5 -104.5t43.5 -16.5l68 -2v-180h-68q-104 0 -171.5 59.5t-77.5 188.5l-3 444q-2 47 -11 72t-54 25v207q47 0 55 24.5t10 73.5l3 403
q10 129 77.5 188.5t171.5 59.5z" />
    <glyph glyph-name="bar" unicode="|" horiz-adv-x="262" 
d="M221 -205h-180v1897h180v-1897z" />
    <glyph glyph-name="braceright" unicode="}" horiz-adv-x="466" 
d="M426 791v-207q-45 0 -54.5 -24.5t-11.5 -72.5l-2 -444q-10 -129 -77.5 -188.5t-171.5 -59.5h-68v180l68 2q65 0 65 121l2 437q4 43 11.5 82.5t41.5 70.5q-35 29 -42 69t-11 83v385q0 93 -21.5 113t-45.5 20l-68 2v180h68q104 0 171.5 -59.5t77.5 -188.5l2 -403
q2 -49 10.5 -73.5t55.5 -24.5z" />
    <glyph glyph-name="exclamdown" unicode="&#xa1;" horiz-adv-x="319" 
d="M274 -205h-225v1030h225v-1030zM279 1112q0 -53 -32 -86t-85 -33t-87 33t-34 86t34 86t87 33t85 -33t32 -86z" />
    <glyph glyph-name="cent" unicode="&#xa2;" horiz-adv-x="954" 
d="M246 532q0 -106 39 -197t123 -130v643q-77 -32 -119.5 -121t-42.5 -195zM590 -201h-182v205q-176 34 -271.5 183t-95.5 339q0 306 137 406t230 119v178h182v-176q179 -35 323 -203l-151 -133q-96 117 -172 141v-663q80 33 172 143l149 -133l-22 -29q-119 -143 -299 -176
v-201z" />
    <glyph glyph-name="sterling" unicode="&#xa3;" horiz-adv-x="972" 
d="M92 868q0 160 104.5 260.5t299.5 100.5q135 0 239.5 -55.5t196.5 -174.5l-156 -147q-111 174 -287 174q-98 0 -142 -39t-44 -97q0 -96 78 -196l25 -28h399v-193h-295q4 -10 4 -13v-38q0 -114 -82 -205h498v-217h-885v174q113 47 189.5 104.5t76.5 135.5q0 26 -14 59h-256
v193h111q-60 91 -60 202z" />
    <glyph glyph-name="yen" unicode="&#xa5;" horiz-adv-x="1067" 
d="M432 0v207h-282v192h282v111h-282v195h188q-74 125 -131 229t-95 170.5t-71 124.5h246l250 -445l247 445h242l-301 -524h190v-195h-282v-111h282v-192h-282v-207h-201z" />
    <glyph glyph-name="brokenbar" unicode="&#xa6;" horiz-adv-x="256" 
d="M41 -2v547h174v-547h-174zM41 885v547h174v-547h-174z" />
    <glyph glyph-name="section" unicode="&#xa7;" horiz-adv-x="819" 
d="M489 610q97 38 97 108.5t-106 101.5q-30 9 -64 20l-72 18q-104 -24 -104 -119q0 -46 87 -75.5t116.5 -38.5t45.5 -15zM444 1262q-172 0 -172 -127q0 -35 55 -59t115 -44q155 -50 245.5 -119.5t90.5 -203.5q0 -59 -30.5 -114.5t-73.5 -92.5q71 -71 71 -204t-104.5 -215.5
t-266.5 -82.5t-333 82l78 156q155 -57 198 -61.5t97 -4.5t96.5 30.5t42.5 104.5q0 83 -88 115.5t-134 46.5q-136 41 -209 94.5t-73 169.5q0 147 101 223q-68 68 -68 160q0 163 105 238.5t255 75.5q76 0 150 -26t158 -61l-66 -176q-78 47 -129 71t-111 24z" />
    <glyph glyph-name="dieresis" unicode="&#xa8;" horiz-adv-x="624" 
d="M346 1315q0 53 32 86t85 33t87 -33t34 -86t-34 -86t-87 -33t-85 33t-32 86zM41 1315q0 53 31.5 86t85 33t87.5 -33t34 -86t-34 -86t-87.5 -33t-85 33t-31.5 86z" />
    <glyph glyph-name="copyright" unicode="&#xa9;" horiz-adv-x="1470" 
d="M397.5 413q-116.5 137 -116.5 335t119.5 328t327.5 130t359 -174l-129 -129q-114 127 -229 127q-186 0 -220 -114t-34 -170q0 -121 67.5 -206t194.5 -85t240 127l121 -131l-25 -27q-140 -148 -349 -148q-210 0 -326.5 137zM1239 246.5q-191 -201.5 -505 -201.5
t-503.5 202.5t-189.5 493t189 492t504 201.5t505.5 -200.5t190.5 -493t-191 -494zM1095.5 1100.5q-145.5 156.5 -360.5 156.5t-359.5 -155.5t-144.5 -360.5t143.5 -362.5t359.5 -157.5t361.5 155.5t145.5 361.5t-145.5 362.5z" />
    <glyph glyph-name="ordfeminine" unicode="&#xaa;" horiz-adv-x="737" 
d="M78 1137q121 139 283 139q239 0 310 -160q24 -53 24 -121v-516h-159v38q-44 -32 -97 -39t-115 -7q-128 0 -206 62t-78 183q0 122 93 196q86 68 251 68q95 0 152 -16v19q0 69 -44 106t-112 37t-104 -17t-81 -73zM199 710q0 -95 146 -93q122 0 191 89v98q-57 21 -146 21
q-134 0 -176 -59q-15 -23 -15 -56z" />
    <glyph glyph-name="guillemotleft" unicode="&#xab;" horiz-adv-x="899" 
d="M637 131l-291 350l291 350h221l-278 -350q31 -39 67.5 -85t82.5 -103t128 -162h-221zM334 131l-293 350l293 350h221l-279 -350q31 -39 68 -85t83 -103t128 -162h-221z" />
    <glyph glyph-name="logicalnot" unicode="&#xac;" horiz-adv-x="968" 
d="M743 217v338h-702v188h887v-526h-185z" />
    <glyph glyph-name="registered" unicode="&#xae;" horiz-adv-x="1470" 
d="M647 948v-153h90q61 0 99 23t36 59q-4 71 -124 71h-101zM647 592v-313h-196q125 -91 285 -91t284 91h-121l-170 313h-82zM229 708q0 -124 55.5 -236t153.5 -185v839q-98 -72 -153.5 -183t-55.5 -235zM1094 340q149 153 149 363q0 209 -147 365.5t-363 156.5
q-145 0 -268 -80h287q219 0 269 -100.5t50 -172.5q0 -177 -141 -235q30 -66 78 -145zM1239 213.5q-191 -201.5 -505 -201.5t-503.5 202.5t-189.5 493t189 492t504 201.5t505.5 -200.5t190.5 -493t-191 -494z" />
    <glyph glyph-name="macron" unicode="&#xaf;" horiz-adv-x="634" 
d="M41 1241v191h553v-191h-553z" />
    <glyph glyph-name="degree" unicode="&#xb0;" horiz-adv-x="552" 
d="M512 1219q0 -94 -59.5 -161t-170.5 -67t-176 66.5t-65 161.5q0 96 63.5 159.5t175.5 63.5t172 -64.5t60 -158.5zM276 1286q-55 0 -55 -66.5t55 -66.5q62 1 62 67t-62 66z" />
    <glyph glyph-name="plusminus" unicode="&#xb1;" horiz-adv-x="993" 
d="M41 0v180h911v-180h-911zM393 195v251h-352v199h352v252h201v-252h358v-199h-358v-251h-201z" />
    <glyph glyph-name="twosuperior" unicode="&#xb2;" horiz-adv-x="1015" 
d="M713 1014q1 94 -63 161t-164 67q-188 -1 -259 -206l-186 152q67 124 181 198t236 74q224 0 349 -125t125 -328t-262 -483l-289 -315h594v-209h-909v201l423 446v-2q163 181 202 275q22 49 22 94z" />
    <glyph glyph-name="threesuperior" unicode="&#xb3;" horiz-adv-x="1024" 
d="M55 1241q183 195 403 195q325 0 431 -209q35 -70 35 -162q0 -188 -154 -287q92 -47 152 -145q60 -97 61 -213q0 -212 -144 -323t-352 -109q-133 0 -236 47t-210 151l170 142q110 -146 276 -146q129 0 205 60t76 169q0 111 -92 179t-258 67h-82v207h86q123 0 204 50
t81 138t-65 139q-65 50 -156 50t-151 -33t-118 -100z" />
    <glyph glyph-name="acute" unicode="&#xb4;" horiz-adv-x="475" 
d="M41 1202l190 232h203l-192 -232h-201z" />
    <glyph glyph-name="mu" unicode="&#xb5;" horiz-adv-x="802" 
d="M236 -319h-195v1339h195v-623q0 -109 28.5 -165t112.5 -56q48 0 90 46.5t72 113.5v684h198v-776q0 -29 25 -244h-187l-12 63q-144 -119 -327 -40v-342z" />
    <glyph glyph-name="paragraph" unicode="&#xb6;" horiz-adv-x="851" 
d="M610 0v1225h-59v-1225h-201v774q-169 19 -239 110.5t-70 221.5t82.5 228t298.5 98h389v-1432h-201z" />
    <glyph glyph-name="periodcentered" unicode="&#xb7;" horiz-adv-x="333" 
d="M41 118.5q0 55.5 35 91.5t90 36t91 -36t36 -91.5t-36 -90t-91 -34.5t-90 34.5t-35 90z" />
    <glyph glyph-name="cedilla" unicode="&#xb8;" horiz-adv-x="522" 
d="M481 -59q0 -123 -69.5 -190.5t-168.5 -67.5t-202 55l57 160q83 -48 122 -48q40 0 65.5 23t25.5 77t-24 146h168q26 -96 26 -155z" />
    <glyph glyph-name="onesuperior" unicode="&#xb9;" horiz-adv-x="200" 
d="M34 352v782l119 44v-826h-119z" />
    <glyph glyph-name="ordmasculine" unicode="&#xba;" horiz-adv-x="831" 
d="M788 874q0 -180 -97 -292t-277 -112t-278 115t-98 295q0 179 96 292t278 113q181 1 278 -115q98 -116 98 -296zM619 876q0 188 -112 247q-40 21 -96 21t-94 -20q-110 -58 -110 -246q0 -189 110 -247q38 -21 94 -21t96 20q79 40 100 140q12 49 12 106z" />
    <glyph glyph-name="guillemotright" unicode="&#xbb;" horiz-adv-x="923" 
d="M287 838l301 -359l-301 -358h-230l258 358l-143 201l-51 76l-80 82h246zM584 838l299 -359l-299 -358h-230l258 358l-258 359h230z" />
    <glyph glyph-name="onequarter" unicode="&#xbc;" horiz-adv-x="1105" 
d="M34 352v782l119 44v-826h-119zM789 829v-492h68v-122h-68v-214h-120v214h-353l-83 -215h-190l539 1403h190l-370 -964l285 390h102zM669 337v67l-2 129v72l-193 -268h195z" />
    <glyph glyph-name="onehalf" unicode="&#xbd;" horiz-adv-x="1193" 
d="M740 561q0 61 -36 98t-98 37q-100 0 -138 -115l-9 7l-226 -588h-190l539 1403h190l-227 -591q29 7 75 7q103 0 173 -70t70 -186t-147 -269l-162 -177h333v-117h-510v113l238 250v-1q125 138 125 199zM34 352v782l119 44v-826h-119z" />
    <glyph glyph-name="threequarters" unicode="&#xbe;" horiz-adv-x="1433" 
d="M568 590q0 -120 -80 -183q-80 -62 -178 -62t-158 27q-58 27 -119 86l97 80q63 -82 147 -82q83 0 126 34t43 95q0 62 -52 101t-147 39h-46v117h49q70 0 116 28t45 79q0 50 -36 79q-37 28 -89 28t-86 -18t-67 -57l-91 75q102 110 228 110q185 1 245 -118q20 -39 19 -92
q0 -106 -87 -162q53 -27 87 -83q34 -55 34 -121zM977 829v-492h69v-122h-69v-214h-120v214h-213l-83 -215h-190l538 1403h191l-221 -574h98zM857 337v67l-1 129v72l-134 -186l-32 -82h167z" />
    <glyph glyph-name="questiondown" unicode="&#xbf;" horiz-adv-x="872" 
d="M831 -23q-175 -182 -371 -182q-189 0 -304 90t-115 278t132 283t192 134l6 239h172l8 -334q-167 -102 -217.5 -154t-67 -91t-16.5 -84q0 -88 55 -132t141 -44q135 0 250 133zM573 1054.5q0 -53.5 -31.5 -86t-85 -32.5t-86 32.5t-32.5 86t32.5 86.5t86 33t85 -33
t31.5 -86.5z" />
    <glyph glyph-name="Agrave" unicode="&#xc0;" horiz-adv-x="1314" 
d="M510 631h293q-17 50 -53 148q-34 97 -52 147t-41 114zM883 412h-451l-145 -412h-246l512 1434h209l512 -1434h-246zM653 1612l-192 231h203l190 -231h-201z" />
    <glyph glyph-name="Aacute" unicode="&#xc1;" horiz-adv-x="1314" 
d="M510 631h293q-17 50 -53 148q-34 97 -52 147t-41 114zM883 412h-451l-145 -412h-246l512 1434h209l512 -1434h-246zM461 1612l190 231h203l-192 -231h-201z" />
    <glyph glyph-name="Acircumflex" unicode="&#xc2;" horiz-adv-x="1314" 
d="M510 631h293q-17 50 -53 148q-34 97 -52 147t-41 114zM883 412h-451l-145 -412h-246l512 1434h209l512 -1434h-246zM365 1612l190 231h203l190 -231h-200l-91 108l-92 -108h-200z" />
    <glyph glyph-name="Atilde" unicode="&#xc3;" horiz-adv-x="1314" 
d="M510 631h293q-17 50 -53 148q-34 97 -52 147t-41 114zM883 412h-451l-145 -412h-246l512 1434h209l512 -1434h-246zM1014 1683q-148 -100 -228 -100q-45 0 -72 10t-87 39t-90 29q-29 0 -41 -7t-47 -32l-52 -39l-96 141q57 57 109 86t117 29q64 0 148 -36t107 -37
q49 -1 131 61z" />
    <glyph glyph-name="Adieresis" unicode="&#xc4;" horiz-adv-x="1314" 
d="M510 631h293q-17 50 -53 148q-34 97 -52 147t-41 114zM883 412h-451l-145 -412h-246l512 1434h209l512 -1434h-246zM690 1724q0 53 32 86t85 33t87 -33t34 -86t-34 -86q-34 -32 -87 -32t-85 32t-32 86zM385 1724q0 53 32 86t85 33t87 -33t34 -86t-34 -86q-34 -32 -87 -32
t-85 32t-32 86z" />
    <glyph glyph-name="Aring" unicode="&#xc5;" horiz-adv-x="1314" 
d="M510 631h293q-17 50 -53 148q-34 97 -52 147t-41 114zM428 1626q0 92 59 156t171 63q112 0 170 -63q58 -64 58 -156t-58 -157q-26 -29 -63 -44l509 -1425h-246l-145 412h-451l-145 -412h-246l509 1425q-36 16 -63 44q-59 65 -59 157zM657 1546q74 0 74 81t-74 81
q-69 0 -69 -81t69 -81z" />
    <glyph glyph-name="AE" unicode="&#xc6;" horiz-adv-x="1789" 
d="M952 758v401l-211 -401h211zM952 0v561h-327l-332 -561h-252l842 1434h809v-203h-525v-471h471v-199h-471v-360h582v-201h-797z" />
    <glyph glyph-name="Ccedilla" unicode="&#xc7;" horiz-adv-x="1253" 
d="M805 -59q0 -123 -69.5 -190.5t-168.5 -67.5t-202 55l57 160q83 -48 122 -48q40 0 65.5 23t25.5 60t-4 61q-284 15 -437 229t-153 510t163.5 507.5t475.5 211.5q174 0 302 -69.5t230 -190.5l-161 -143q-88 109 -177.5 145.5t-193.5 36.5t-184 -42t-132.5 -112.5t-77 -163
t-24.5 -249.5t108.5 -305t313.5 -148q100 0 190.5 40t176.5 148l161 -143q-177 -212 -413 -254q6 -31 6 -61z" />
    <glyph glyph-name="Egrave" unicode="&#xc8;" horiz-adv-x="972" 
d="M41 0v1434h885v-222h-664v-358h604v-221h-604v-412h670v-221h-891zM481 1604l-192 231h203l190 -231h-201z" />
    <glyph glyph-name="Eacute" unicode="&#xc9;" horiz-adv-x="972" 
d="M41 0v1434h885v-222h-664v-358h604v-221h-604v-412h670v-221h-891zM289 1604l190 231h203l-193 -231h-200z" />
    <glyph glyph-name="Ecircumflex" unicode="&#xca;" horiz-adv-x="972" 
d="M41 0v1434h885v-222h-664v-358h604v-221h-604v-412h670v-221h-891zM195 1612l190 231h203l190 -231h-200l-91 108l-92 -108h-200z" />
    <glyph glyph-name="Edieresis" unicode="&#xcb;" horiz-adv-x="972" 
d="M41 0v1434h885v-222h-664v-358h604v-221h-604v-412h670v-221h-891zM520 1724q0 53 32 86t85 33t87 -33t34 -86t-34 -86q-34 -32 -87 -32t-85 32t-32 86zM215 1724q0 53 32 86t85 33t87 -33t34 -86t-34 -86q-34 -32 -87 -32t-85 32t-32 86z" />
    <glyph glyph-name="Igrave" unicode="&#xcc;" horiz-adv-x="303" 
d="M41 0v1434h221v-1434h-221zM88 1612l-192 231h202l191 -231h-201z" />
    <glyph glyph-name="Iacute" unicode="&#xcd;" horiz-adv-x="303" 
d="M41 0v1434h221v-1434h-221zM39 1612l190 231h203l-192 -231h-201z" />
    <glyph glyph-name="Icircumflex" unicode="&#xce;" horiz-adv-x="303" 
d="M41 0v1434h221v-1434h-221zM-137 1612l190 231h203l190 -231h-200l-90 108l-93 -108h-200z" />
    <glyph glyph-name="Idieresis" unicode="&#xcf;" horiz-adv-x="303" 
d="M41 0v1434h221v-1434h-221zM188 1724q0 53 32 86t85 33t87 -33t34 -86t-34 -86q-34 -32 -87 -32t-85 32t-32 86zM-117 1724q0 53 32 86t85 33t87 -33t34 -86t-34 -86q-34 -32 -87 -32t-85 32t-32 86z" />
    <glyph glyph-name="Ntilde" unicode="&#xd1;" horiz-adv-x="1249" 
d="M258 0h-217v1434h174l776 -1020v1020h217v-1434h-180l-770 1022v-1022zM981 1683q-148 -100 -228 -100q-45 0 -72 10t-87 39t-89 29q-30 0 -42 -7t-47 -32l-51 -39l-97 141q58 57 110 86t116 29t149 -36q84 -36 107 -37q47 -1 131 61z" />
    <glyph glyph-name="Ograve" unicode="&#xd2;" horiz-adv-x="1423" 
d="M1213 1231q169 -199 169 -507t-169 -510q-85 -100 -211 -162t-292 -62q-314 0 -500 224q-169 200 -169 508t169 509q188 221 502 221q315 0 501 -221zM1159 721q0 216 -116 363t-331 147t-332 -148q-116 -149 -116 -361q0 -213 117 -362t330 -149q214 0 331 147t117 363z
M707 1612l-193 231h203l190 -231h-200z" />
    <glyph glyph-name="Oacute" unicode="&#xd3;" horiz-adv-x="1423" 
d="M1213 1231q169 -199 169 -507t-169 -510q-85 -100 -211 -162t-292 -62q-314 0 -500 224q-169 200 -169 508t169 509q188 221 502 221q315 0 501 -221zM1159 721q0 216 -116 363t-331 147t-332 -148q-116 -149 -116 -361q0 -213 117 -362t330 -149q214 0 331 147t117 363z
M514 1612l191 231h202l-192 -231h-201z" />
    <glyph glyph-name="Ocircumflex" unicode="&#xd4;" horiz-adv-x="1423" 
d="M1213 1231q169 -199 169 -507t-169 -510q-85 -100 -211 -162t-292 -62q-314 0 -500 224q-169 200 -169 508t169 509q188 221 502 221q315 0 501 -221zM1159 721q0 216 -116 363t-331 147t-332 -148q-116 -149 -116 -361q0 -213 117 -362t330 -149q214 0 331 147t117 363z
M420 1612l190 231h203l191 -231h-201l-90 108l-92 -108h-201z" />
    <glyph glyph-name="Otilde" unicode="&#xd5;" horiz-adv-x="1423" 
d="M1213 1231q169 -199 169 -507t-169 -510q-85 -100 -211 -162t-292 -62q-314 0 -500 224q-169 200 -169 508t169 509q188 221 502 221q315 0 501 -221zM1159 721q0 216 -116 363t-331 147t-332 -148q-116 -149 -116 -361q0 -213 117 -362t330 -149q214 0 331 147t117 363z
M1067 1683q-148 -100 -228 -100q-45 0 -72 10t-87 39t-89 29q-30 0 -42 -7t-47 -32l-51 -39l-97 141q58 57 110 86t116 29t149 -36q84 -36 107 -37q47 -1 131 61z" />
    <glyph glyph-name="Odieresis" unicode="&#xd6;" horiz-adv-x="1423" 
d="M1213 1231q169 -199 169 -507t-169 -510q-85 -100 -211 -162t-292 -62q-314 0 -500 224q-169 200 -169 508t169 509q188 221 502 221q315 0 501 -221zM1159 721q0 216 -116 363t-331 147t-332 -148q-116 -149 -116 -361q0 -213 117 -362t330 -149q214 0 331 147t117 363z
M745 1724q0 53 32 86t85 33t87 -33t34 -86t-34 -86q-34 -32 -87 -32t-85 32t-32 86zM440 1724q0 53 32 86t85 33t87 -33t34 -86t-34 -86q-34 -32 -87 -32t-85 32t-32 86z" />
    <glyph glyph-name="multiply" unicode="&#xd7;" horiz-adv-x="856" 
d="M166 907l260 -258l256 260l127 -129l-256 -258l262 -256l-127 -127l-260 256l-258 -260l-129 123l258 264l-258 256z" />
    <glyph glyph-name="Oslash" unicode="&#xd8;" horiz-adv-x="1423" 
d="M1159 736q0 116 -46 228.5t-138 182.5l-359 -928q40 -8 124 -8t167.5 41t140 111.5t84 163.5t27.5 209zM711 1231q-214 0 -330.5 -147t-116.5 -361q0 -135 47 -250t142 -184l360 932q-63 10 -102 10zM41 725q0 306 178 516.5t492 210.5q96 0 182 -22l82 208h190
l-106 -276q236 -139 279.5 -339.5t43.5 -320.5t-42 -253.5t-179 -296t-450 -162.5q-96 0 -176 20l-82 -215h-191l109 281q-158 90 -244 264.5t-86 384.5z" />
    <glyph glyph-name="Ugrave" unicode="&#xd9;" horiz-adv-x="1245" 
d="M621 -14q-155 0 -263 49t-173 111q-136 130 -144 337v951h221v-928q0 -135 88 -210q88 -74 230 -87q10 -2 26 -2h58t112 23q208 69 207 276v928h221v-951q-8 -202 -144 -338q-133 -128 -341 -153l-72 -6h-26zM618 1612l-192 231h203l190 -231h-201z" />
    <glyph glyph-name="Uacute" unicode="&#xda;" horiz-adv-x="1245" 
d="M621 -14q-155 0 -263 49t-173 111q-136 130 -144 337v951h221v-928q0 -135 88 -210q88 -74 230 -87q10 -2 26 -2h58t112 23q208 69 207 276v928h221v-951q-8 -202 -144 -338q-133 -128 -341 -153l-72 -6h-26zM426 1612l190 231h203l-192 -231h-201z" />
    <glyph glyph-name="Ucircumflex" unicode="&#xdb;" horiz-adv-x="1245" 
d="M621 -14q-155 0 -263 49t-173 111q-136 130 -144 337v951h221v-928q0 -135 88 -210q88 -74 230 -87q10 -2 26 -2h58t112 23q208 69 207 276v928h221v-951q-8 -202 -144 -338q-133 -128 -341 -153l-72 -6h-26zM330 1612l190 231h203l190 -231h-200l-90 108l-93 -108h-200z
" />
    <glyph glyph-name="Udieresis" unicode="&#xdc;" horiz-adv-x="1245" 
d="M621 -14q-155 0 -263 49t-173 111q-136 130 -144 337v951h221v-928q0 -135 88 -210q88 -74 230 -87q10 -2 26 -2h58t112 23q208 69 207 276v928h221v-951q-8 -202 -144 -338q-133 -128 -341 -153l-72 -6h-26zM655 1724q0 53 32 86t85 33t87 -33t34 -86t-34 -86
q-34 -32 -87 -32t-85 32t-32 86zM350 1724q0 53 32 86t85 33t87 -33t34 -86t-34 -86q-34 -32 -87 -32t-85 32t-32 86z" />
    <glyph glyph-name="Yacute" unicode="&#xdd;" horiz-adv-x="1337" 
d="M557 0v672l-516 762h264l363 -516l364 516h264l-516 -762l-2 -672h-221zM471 1612l191 231h202l-192 -231h-201z" />
    <glyph glyph-name="Thorn" unicode="&#xde;" horiz-adv-x="892" 
d="M317 526q326 0 326 234q0 130 -82.5 179.5t-195.5 49.5h-115v-463h67zM852 760q0 -223 -145 -334t-375 -111h-82v-315h-209v1446h209v-252h104q354 0 426 -158.5t72 -275.5z" />
    <glyph glyph-name="germandbls" unicode="&#xdf;" horiz-adv-x="890" 
d="M512 1047q0 157 -150 157q-65 0 -93.5 -49t-28.5 -170v-985h-199v963q0 224 72 328t258 104q150 0 246 -90.5t96 -260.5t-61.5 -215t-96.5 -65q125 -33 210 -114t85 -269q0 -247 -167.5 -349t-406.5 -102v193q147 0 262 64.5t115 188.5t-96 177.5t-215 77.5l-66 14v172
q88 57 93 57t23 10q66 37 93 71.5t27 91.5z" />
    <glyph glyph-name="agrave" unicode="&#xe0;" horiz-adv-x="931" 
d="M90 854q158 180 368 180q205 0 319 -95t114 -269v-670h-207v49q-57 -41 -126 -50q-68 -9 -148 -9q-258 0 -341 174q-28 57 -28 139q0 164 121 259q55 44 129 66t197 22t196 -21v24q0 91 -57 139t-144 48t-133 -21t-108 -96zM248 299q0 -59 49 -90t139 -31q159 0 248 117
v127q-67 24 -161 26q-95 2 -134 -6q-141 -28 -141 -143zM461 1202l-193 232h203l191 -232h-201z" />
    <glyph glyph-name="aacute" unicode="&#xe1;" horiz-adv-x="931" 
d="M90 854q158 180 368 180q205 0 319 -95t114 -269v-670h-207v49q-57 -41 -126 -50q-68 -9 -148 -9q-258 0 -341 174q-28 57 -28 139q0 164 121 259q55 44 129 66t197 22t196 -21v24q0 91 -57 139t-144 48t-133 -21t-108 -96zM248 299q0 -59 49 -90t139 -31q159 0 248 117
v127q-67 24 -161 26q-95 2 -134 -6q-141 -28 -141 -143zM268 1202l191 232h203l-193 -232h-201z" />
    <glyph glyph-name="acircumflex" unicode="&#xe2;" horiz-adv-x="931" 
d="M90 854q158 180 368 180q205 0 319 -95t114 -269v-670h-207v49q-57 -41 -126 -50q-68 -9 -148 -9q-258 0 -341 174q-28 57 -28 139q0 164 121 259q55 44 129 66t197 22t196 -21v24q0 91 -57 139t-144 48t-133 -21t-108 -96zM248 299q0 -59 49 -90t139 -31q159 0 248 117
v127q-67 24 -161 26q-95 2 -134 -6q-141 -28 -141 -143zM174 1202l191 232h202l191 -232h-201l-90 109l-92 -109h-201z" />
    <glyph glyph-name="atilde" unicode="&#xe3;" horiz-adv-x="931" 
d="M90 854q158 180 368 180q205 0 319 -95t114 -269v-670h-207v49q-57 -41 -126 -50q-68 -9 -148 -9q-258 0 -341 174q-28 57 -28 139q0 164 121 259q55 44 129 66t197 22t196 -21v24q0 91 -57 139t-144 48t-133 -21t-108 -96zM248 299q0 -59 49 -90t139 -31q159 0 248 117
v127q-67 24 -161 26q-95 2 -134 -6q-141 -28 -141 -143zM590 1356q49 0 131 61l100 -143q-122 -83 -165 -91q-42 -9 -80 -9t-120 38q-81 38 -111 39q-30 0 -42 -7t-47 -32l-51 -38l-96 141q57 57 109 86t116 29t131 -28q66 -28 86 -38q20 -8 39 -8z" />
    <glyph glyph-name="adieresis" unicode="&#xe4;" horiz-adv-x="931" 
d="M90 854q158 180 368 180q205 0 319 -95t114 -269v-670h-207v49q-57 -41 -126 -50q-68 -9 -148 -9q-258 0 -341 174q-28 57 -28 139q0 164 121 259q55 44 129 66t197 22t196 -21v24q0 91 -57 139t-144 48t-133 -21t-108 -96zM248 299q0 -59 49 -90t139 -31q159 0 248 117
v127q-67 24 -161 26q-95 2 -134 -6q-141 -28 -141 -143zM500 1315q0 53 31 86q32 33 85 33t87 -33t34 -86t-34 -86t-87 -33t-85 33q-31 33 -31 86zM195 1315q0 53 31 86q32 33 85 33t87 -33t34 -86t-34 -86t-87 -33t-85 33q-31 33 -31 86z" />
    <glyph glyph-name="aring" unicode="&#xe5;" horiz-adv-x="931" 
d="M449.5 1298q-54.5 0 -54.5 -80t72 -80.5t72 79.5q0 33 -17.5 57t-72 24zM248 310q0 -132 188 -132q159 0 248 117v127q-73 27 -165 27q-271 0 -271 -139zM236 1217q0 92 59 155.5t171 63.5t170 -63.5t58 -155.5q0 -135 -106 -193q139 -27 221 -116t82 -238v-670h-207v49
q-57 -41 -125.5 -50t-148.5 -9q-164 0 -266.5 79.5t-102.5 238.5t115 250t286 91t242 -20v24q0 90 -57.5 138.5t-142.5 48.5t-134 -22t-108 -95l-152 131q118 137 258 166q-112 59 -112 197z" />
    <glyph glyph-name="ae" unicode="&#xe6;" horiz-adv-x="1648" 
d="M1152 852q-112 0 -168 -57.5t-77 -149.5h488q-10 88 -70.5 147.5t-172.5 59.5zM248 310q0 -132 188 -132q159 0 248 117v127q-73 27 -165 27q-271 0 -271 -139zM1188 182q152 0 274 133l131 -139l-22 -26q-142 -158 -391 -158q-174 0 -289 80v-72h-207v49
q-57 -41 -125.5 -50t-148.5 -9q-164 0 -266.5 79.5t-102.5 238.5t115 250t286 91t242 -20v24q0 90 -57.5 138.5t-142.5 48.5t-134 -22t-108 -95l-152 131q80 92 170 136t213 44q237 0 344 -137q129 137 346 137t331 -147.5t114 -429.5h-709q16 -129 91 -202t198 -73z" />
    <glyph glyph-name="ccedilla" unicode="&#xe7;" horiz-adv-x="974" 
d="M530 184q149 0 277 140l127 -138l-23 -28q-111 -116 -252 -150q6 -35 7 -67q0 -123 -69.5 -190.5t-168.5 -67.5t-203 55l58 160q83 -48 122 -48q40 0 65.5 23t25.5 59t-4 64q-222 11 -336.5 160t-114.5 368q0 220 125.5 366t355.5 146t404 -192l-142 -139
q-128 141 -262 141q-135 0 -202.5 -91.5t-67.5 -234.5q0 -225 102.5 -280.5t175.5 -55.5z" />
    <glyph glyph-name="egrave" unicode="&#xe8;" horiz-adv-x="1003" 
d="M507 852q-112 0 -168 -57t-77 -150h488q-10 87 -70 147t-173 60zM543 182q152 0 274 133l131 -139l-22 -26q-142 -158 -385 -158q-244 0 -372 150t-128 364q0 257 133 392q133 136 347 136t328 -147t114 -430h-709q16 -129 91 -202t198 -73zM498 1202l-193 232h203
l190 -232h-200z" />
    <glyph glyph-name="eacute" unicode="&#xe9;" horiz-adv-x="1003" 
d="M507 852q-112 0 -168 -57t-77 -150h488q-10 87 -70 147t-173 60zM543 182q152 0 274 133l131 -139l-22 -26q-142 -158 -385 -158q-244 0 -372 150t-128 364q0 257 133 392q133 136 347 136t328 -147t114 -430h-709q16 -129 91 -202t198 -73zM305 1202l191 232h202
l-192 -232h-201z" />
    <glyph glyph-name="ecircumflex" unicode="&#xea;" horiz-adv-x="1003" 
d="M507 852q-112 0 -168 -57t-77 -150h488q-10 87 -70 147t-173 60zM543 182q152 0 274 133l131 -139l-22 -26q-142 -158 -385 -158q-244 0 -372 150t-128 364q0 257 133 392q133 136 347 136t328 -147t114 -430h-709q16 -129 91 -202t198 -73zM209 1202l190 232h203
l191 -232h-201l-90 109l-92 -109h-201z" />
    <glyph glyph-name="edieresis" unicode="&#xeb;" horiz-adv-x="1003" 
d="M507 852q-112 0 -168 -57t-77 -150h488q-10 87 -70 147t-173 60zM543 182q152 0 274 133l131 -139l-22 -26q-142 -158 -385 -158q-244 0 -372 150t-128 364q0 257 133 392q133 136 347 136t328 -147t114 -430h-709q16 -129 91 -202t198 -73zM535 1315q0 53 31 86
q32 33 85 33t87 -33t34 -86t-34 -86t-87 -33t-85 33q-31 33 -31 86zM229 1315q0 53 32 86t85 33t87 -33t34 -86t-34 -86t-87 -33t-85 33t-32 86z" />
    <glyph glyph-name="igrave" unicode="&#xec;" horiz-adv-x="319" 
d="M74 1202l-193 232h203l190 -232h-200zM266 0h-209v1024h209v-1024z" />
    <glyph glyph-name="iacute" unicode="&#xed;" horiz-adv-x="319" 
d="M66 1202l190 232h203l-193 -232h-200zM266 0h-209v1024h209v-1024z" />
    <glyph glyph-name="icircumflex" unicode="&#xee;" horiz-adv-x="319" 
d="M-131 1202l190 232h203l191 -232h-201l-90 109l-92 -109h-201zM266 0h-209v1024h209v-1024z" />
    <glyph glyph-name="idieresis" unicode="&#xef;" horiz-adv-x="319" 
d="M195 1315q0 53 31.5 86t85 33t87 -33t33.5 -86t-33.5 -86t-87 -33t-85 33t-31.5 86zM-111 1315q0 53 32 86t85 33t87 -33t34 -86t-34 -86t-87 -33t-85 33t-32 86zM57 0v1024h209v-1024h-209z" />
    <glyph glyph-name="ntilde" unicode="&#xf1;" horiz-adv-x="952" 
d="M911 0h-206v645q1 101 -59 151t-148 50t-169 -66t-79 -125v-655h-209v1026h209v-74q110 92 277 91t276 -100t108 -271v-672zM605 1174q-45 0 -73 10t-88 38t-89 29q-30 0 -42 -7t-47 -32l-51 -38l-96 141q57 57 109 86t116 29t131 -28q66 -28 86 -38q20 -8 41 -8t60 19
t69 42l100 -143q-80 -54 -130 -77t-96 -23z" />
    <glyph glyph-name="ograve" unicode="&#xf2;" 
d="M1004 508q0 -230 -123 -376t-357 -146q-233 0 -358 148t-125 378t123 376t356 146q232 0 358 -148t126 -378zM520 852q-133 0 -198 -92q-64 -92 -64 -250q0 -242 141 -317q49 -27 121 -27t123 26q143 72 143 316q0 245 -143 317q-51 27 -123 27zM518 1202l-192 232h202
l191 -232h-201z" />
    <glyph glyph-name="oacute" unicode="&#xf3;" 
d="M1004 508q0 -230 -123 -376t-357 -146q-233 0 -358 148t-125 378t123 376t356 146q232 0 358 -148t126 -378zM520 852q-133 0 -198 -92q-64 -92 -64 -250q0 -242 141 -317q49 -27 121 -27t123 26q143 72 143 316q0 245 -143 317q-51 27 -123 27zM326 1202l190 232h203
l-193 -232h-200z" />
    <glyph glyph-name="ocircumflex" unicode="&#xf4;" 
d="M1004 508q0 -230 -123 -376t-357 -146q-233 0 -358 148t-125 378t123 376t356 146q232 0 358 -148t126 -378zM520 852q-133 0 -198 -92q-64 -92 -64 -250q0 -242 141 -317q49 -27 121 -27t123 26q143 72 143 316q0 245 -143 317q-51 27 -123 27zM229 1202l191 232h203
l190 -232h-201l-90 109l-92 -109h-201z" />
    <glyph glyph-name="otilde" unicode="&#xf5;" 
d="M1004 508q0 -230 -123 -376t-357 -146q-233 0 -358 148t-125 378t123 376t356 146q232 0 358 -148t126 -378zM520 852q-133 0 -198 -92q-64 -92 -64 -250q0 -242 141 -317q49 -27 121 -27t123 26q143 72 143 316q0 245 -143 317q-51 27 -123 27zM879 1274
q-148 -100 -227 -100q-46 0 -73 10t-87 38t-90 29q-30 0 -42 -7t-47 -32l-51 -38l-96 141q57 57 109 86q53 29 117 29t130 -28t86 -38q20 -8 41 -8t60 19t69 42z" />
    <glyph glyph-name="odieresis" unicode="&#xf6;" 
d="M1004 508q0 -230 -123 -376t-357 -146q-233 0 -358 148t-125 378t123 376t356 146q232 0 358 -148t126 -378zM520 852q-133 0 -198 -92q-64 -92 -64 -250q0 -242 141 -317q49 -27 121 -27t123 26q143 72 143 316q0 245 -143 317q-51 27 -123 27zM555 1315q0 53 32 86
t85 33t87 -33t34 -86t-34 -86t-87 -33t-85 33t-32 86zM250 1315q0 53 32 86t85 33t87 -33t34 -86t-34 -86t-87 -33t-85 33t-32 86z" />
    <glyph glyph-name="divide" unicode="&#xf7;" horiz-adv-x="342" 
d="M41 890q0 56 36 94t92 38t94 -38t38 -94t-38 -92t-94 -36t-92 36t-36 92zM41 128q0 56 36 94t92 38t94 -38t38 -94t-38 -92t-94 -36t-92 36t-36 92z" />
    <glyph glyph-name="oslash" unicode="&#xf8;" 
d="M498 852q-48 0 -144 -49t-96 -298q0 -162 68 -253q31 80 94 246.5t135 351.5q-9 2 -57 2zM522 166q264 0 264 350q0 167 -71 252q-31 -80 -58.5 -153.5t-55.5 -146.5t-56.5 -147.5t-59.5 -154.5h37zM41 495q0 249 124.5 394t356.5 145q39 0 101 -10l73 190h191l-99 -253
q111 -68 163.5 -188t52.5 -248q0 -248 -125 -393.5t-357 -145.5q-56 0 -104 8q-59 -152 -70 -184h-190l94 249q-109 68 -160 188t-51 248z" />
    <glyph glyph-name="ugrave" unicode="&#xf9;" horiz-adv-x="976" 
d="M727 1024h209v-1024h-203v57q-106 -69 -285 -69t-293 97t-114 271v668h209v-641q0 -98 61 -150q61 -51 162 -53q170 0 254 127v717zM483 1202l-192 232h203l190 -232h-201z" />
    <glyph glyph-name="uacute" unicode="&#xfa;" horiz-adv-x="976" 
d="M727 1024h209v-1024h-203v57q-106 -69 -285 -69t-293 97t-114 271v668h209v-641q0 -98 61 -150q61 -51 162 -53q170 0 254 127v717zM291 1202l190 232h203l-192 -232h-201z" />
    <glyph glyph-name="ucircumflex" unicode="&#xfb;" horiz-adv-x="976" 
d="M727 1024h209v-1024h-203v57q-106 -69 -285 -69t-293 97t-114 271v668h209v-641q0 -98 61 -150q61 -51 162 -53q170 0 254 127v717zM197 1202l190 232h203l190 -232h-200l-91 109l-92 -109h-200z" />
    <glyph glyph-name="udieresis" unicode="&#xfc;" horiz-adv-x="976" 
d="M727 1024h209v-1024h-203v57q-106 -69 -285 -69t-293 97t-114 271v668h209v-641q0 -98 61 -150q61 -51 162 -53q170 0 254 127v717zM522 1315q0 53 32 86t85 33t87 -33t34 -86t-34 -86t-87 -33t-85 33t-32 86zM217 1315q0 53 32 86t85 33t87 -33t34 -86t-34 -86t-87 -33
t-85 33t-32 86z" />
    <glyph glyph-name="yacute" unicode="&#xfd;" horiz-adv-x="1120" 
d="M154 -211q190 39 270 134q33 40 35 93l-418 1008h233l291 -727l289 727h225l-450 -1104q-37 -123 -148 -210t-282 -107zM362 1202l191 232h203l-193 -232h-201z" />
    <glyph glyph-name="thorn" unicode="&#xfe;" horiz-adv-x="985" 
d="M399 846q-49 0 -149 -27v-614q80 -20 168 -21q147 0 229 91t82 245t-89 240t-241 86zM422 1036q90 0 186.5 -29.5t216 -131.5t119.5 -346t-145.5 -389.5t-392.5 -145.5q-88 0 -156 10v-403h-207l-2 483v1413h209v-481q82 20 172 20z" />
    <glyph glyph-name="ydieresis" unicode="&#xff;" horiz-adv-x="1120" 
d="M154 -211q190 39 270 134q33 40 35 93l-418 1008h233l291 -727l289 727h225l-450 -1104q-37 -123 -148 -210t-282 -107zM594 1315q0 53 32 86t85 33t87 -33t34 -86t-34 -86t-87 -33t-85 33t-32 86zM289 1315q0 53 32 86t85 33t87 -33q33 -33 33 -86t-34 -86t-86 -33
q-53 0 -85 33t-32 86z" />
    <glyph glyph-name="dotlessi" unicode="&#x131;" horiz-adv-x="319" 
d="M61 0v1024h209v-1024h-209z" />
    <glyph glyph-name="OE" unicode="&#x152;" horiz-adv-x="1730" 
d="M786 1233h-47q-227 0 -351 -141.5t-124 -374.5q0 -232 128.5 -374t346.5 -142h47v1032zM729 0q-335 0 -511.5 201.5t-176.5 511.5q0 311 180.5 516t507.5 205h920v-205h-643v-377h581v-203h-581v-444h684v-205h-961z" />
    <glyph glyph-name="oe" unicode="&#x153;" horiz-adv-x="1748" 
d="M1252 852q-199 0 -244 -207h487q-10 88 -70.5 147.5t-172.5 59.5zM786 508q0 243 -97 293.5t-200.5 50.5t-167 -92.5t-63.5 -249.5q0 -242 95.5 -293t199.5 -51t168.5 93t64.5 247v2zM1302 182q137 0 261 133l131 -139l-23 -26q-142 -158 -389 -158t-383 166
q-127 -172 -368 -172t-365.5 147.5t-124.5 378.5q0 232 124.5 377t362.5 145t365 -168q129 168 358 168t343 -147.5t114 -429.5h-707v-11q16 -123 90 -193.5t211 -70.5z" />
    <glyph glyph-name="Scaron" unicode="&#x160;" horiz-adv-x="1110" 
d="M510 1448l-248 297h217l99 -105l92 105h217l-246 -297h-131zM844 360q0 70 -26.5 110t-79.5 76t-206 85q-76 27 -244.5 91.5t-168.5 313.5q0 163 115 276t346 113q145 0 261.5 -55t227.5 -186l-125 -117l-57 6q-117 156 -305 156q-125 0 -183.5 -47.5t-58.5 -109.5
t25.5 -98t71.5 -66t162 -72t291 -112t175 -327q0 -192 -139 -298.5t-359 -106.5q-154 0 -281.5 58.5t-244.5 193.5l162 149q160 -203 368 -203q133 0 203 50t70 120z" />
    <glyph glyph-name="scaron" unicode="&#x161;" horiz-adv-x="870" 
d="M651 739q-83 107 -211 107q-129 0 -129 -98q-1 -46 57 -74q58 -29 168 -63t167 -78t87 -98t30 -131t-30 -135q-92 -179 -368 -179q-207 0 -381 203l156 143q113 -152 252 -152q83 0 123 29t40 66t-23 69t-81 52t-104 34q-142 43 -201 89q-99 78 -99 220q0 141 98 219
t253 78q109 0 197 -43t177 -151l-147 -141zM719 1432l-219 -263h-133l-217 263h184l100 -121l98 121h187z" />
    <glyph glyph-name="Ydieresis" unicode="&#x178;" horiz-adv-x="1337" 
d="M557 0v672l-516 762h264l363 -516l364 516h264l-516 -762l-2 -672h-221zM702 1724q0 53 32 86t85 33t87 -33t34 -86t-34 -86q-34 -32 -87 -32t-85 32t-32 86zM397 1724q0 53 32 86t85 33t87 -33t34 -86t-34 -86q-34 -32 -87 -32t-85 32t-32 86z" />
    <glyph glyph-name="Zcaron" unicode="&#x17d;" horiz-adv-x="1146" 
d="M1106 221v-221h-1065v193l713 1019h-672v222h975v-191l-709 -1022h758zM858 1833l-219 -262h-133l-217 262h184l100 -121l99 121h186z" />
    <glyph glyph-name="zcaron" unicode="&#x17e;" horiz-adv-x="876" 
d="M836 203v-203h-795v178l487 645h-487v201h766v-176l-500 -645h529zM723 1432l-219 -263h-133l-217 263h184l100 -121l99 121h186z" />
    <glyph glyph-name="circumflex" unicode="&#x2c6;" horiz-adv-x="665" 
d="M41 1202l190 232h203l191 -232h-201l-90 109l-92 -109h-201z" />
    <glyph glyph-name="caron" unicode="&#x2c7;" horiz-adv-x="651" 
d="M610 1432l-219 -263h-133l-217 263h184l101 -121l98 121h186z" />
    <glyph glyph-name="breve" unicode="&#x2d8;" horiz-adv-x="544" 
d="M257.5 1366q51.5 0 70 22.5t18.5 51.5h158q-2 -88 -62 -150.5t-168 -62.5t-170.5 61.5t-60.5 151.5h158q5 -74 56.5 -74z" />
    <glyph glyph-name="dotaccent" unicode="&#x2d9;" horiz-adv-x="333" 
d="M41 1271q0 54 35 91t90 37t91 -37t36 -91t-36 -89t-91 -35t-90 35t-35 89z" />
    <glyph glyph-name="ring" unicode="&#x2da;" horiz-adv-x="540" 
d="M500 1216.5q0 -92.5 -58.5 -157t-170.5 -64.5t-171 64.5t-59 157t59.5 156t171.5 63.5t170 -63.5t58 -156zM272.5 1137.5q71.5 -0.5 71.5 79.5q0 33 -17.5 57t-71.5 24t-54 -80t71.5 -80.5z" />
    <glyph glyph-name="ogonek" unicode="&#x2db;" horiz-adv-x="204" 
 />
    <glyph glyph-name="tilde" unicode="&#x2dc;" horiz-adv-x="794" 
d="M522 1356q48 0 131 61l101 -143q-123 -83 -165 -91.5t-80 -8.5t-120 38q-83 38 -112 39q-30 0 -42 -7t-47 -32l-51 -38l-96 141q57 57 109.5 86t116.5 29t130 -28t86.5 -37t38.5 -9z" />
    <glyph glyph-name="hungarumlaut" unicode="&#x2dd;" horiz-adv-x="647" 
d="M274 1128l144 308h188l-145 -308h-187zM41 1128l143 308h189l-146 -308h-186z" />
    <glyph glyph-name="endash" unicode="&#x2013;" horiz-adv-x="1030" 
d="M41 389v180h948v-180h-948z" />
    <glyph glyph-name="emdash" unicode="&#x2014;" horiz-adv-x="1445" 
d="M41 389v180h1364v-180h-1364z" />
    <glyph glyph-name="quoteleft" unicode="&#x2018;" horiz-adv-x="413" 
d="M41 1128l143 308h189l-146 -308h-186z" />
    <glyph glyph-name="quoteright" unicode="&#x2019;" horiz-adv-x="413" 
d="M41 1128l143 308h189l-146 -308h-186z" />
    <glyph glyph-name="quotesinglbase" unicode="&#x201a;" horiz-adv-x="413" 
d="M41 -43l143 307h189l-146 -307h-186z" />
    <glyph glyph-name="quotedblleft" unicode="&#x201c;" horiz-adv-x="647" 
d="M274 1128l144 308h188l-145 -308h-187zM41 1128l143 308h189l-146 -308h-186z" />
    <glyph glyph-name="quotedblright" unicode="&#x201d;" horiz-adv-x="647" 
d="M274 1128l144 308h188l-145 -308h-187zM41 1128l143 308h189l-146 -308h-186z" />
    <glyph glyph-name="quotedblbase" unicode="&#x201e;" horiz-adv-x="632" 
d="M41 -291l123 541h201l-152 -541h-172zM270 -291l121 541h201l-152 -541h-170z" />
    <glyph glyph-name="bullet" unicode="&#x2022;" horiz-adv-x="509" 
d="M41 477q0 94 59.5 155.5t152.5 61.5t154.5 -61.5t61.5 -155.5t-61.5 -152.5t-154.5 -58.5t-152.5 58.5t-59.5 152.5z" />
    <glyph glyph-name="ellipsis" unicode="&#x2026;" horiz-adv-x="1206" 
d="M911 124q0 54 35 91t90 37t92 -37t37 -91t-36.5 -89t-92.5 -35t-90.5 35t-34.5 89zM475 124q0 54 35 91t90 37t92 -37t37 -91t-37 -89t-92 -35t-90 35t-35 89zM41 124q0 54 35 91t89 37t91 -37t37 -91t-37 -89t-91 -35t-89 35t-35 89z" />
    <glyph glyph-name="guilsinglleft" unicode="&#x2039;" horiz-adv-x="585" 
d="M332 129l-291 350l291 352h213l-279 -352q31 -39 68 -85t73.5 -92t72.5 -91t65 -82h-213z" />
    <glyph glyph-name="guilsinglright" unicode="&#x203a;" horiz-adv-x="573" 
d="M41 129l258 350q-29 39 -62.5 85t-98 133t-97.5 134h201l290 -352l-290 -350h-201z" />
    <glyph glyph-name="fraction" unicode="&#x2044;" horiz-adv-x="696" 
d="M227 0h-186l428 1434h186z" />
    <glyph glyph-name="Euro" unicode="&#x20ac;" horiz-adv-x="1089" 
d="M41 371v188h147v55v6l-2 18q0 11 2 24h-147v186h182q77 261 210 319t237 58t202.5 -69t176.5 -177l-148 -156q-136 207 -255 207q-120 0 -206 -182h320v-186h-367q-2 -12 -2 -14v-89h369v-188h-328q31 -78 86 -130.5t135 -52.5q119 0 248 189l125 -127l2 -49
q-151 -211 -389 -211t-319.5 150.5t-102.5 230.5h-176z" />
    <glyph glyph-name="trademark" unicode="&#x2122;" horiz-adv-x="1599" 
d="M1341 504v446q-59 -111 -121.5 -229.5t-115.5 -216.5l-236 436v-436h-217v928h183l270 -498l274 498h181v-928h-218zM451 1231v-731h-220v731h-190v201h598v-201h-188z" />
    <glyph glyph-name="minus" unicode="&#x2212;" horiz-adv-x="993" 
d="M41 426v180h911v-180h-911z" />
    <glyph glyph-name="percent" 
d="M541 1215q0 -93 -59.5 -158.5t-168.5 -65.5t-174 63.5t-65 159.5t62 160t174 64t171.5 -65t59.5 -158zM309.5 1148q63.5 0 63.5 70t-63.5 70t-63.5 -70t63.5 -70zM258 0h-217l745 1438h218zM989 224q0 -93 -59.5 -158.5t-173.5 -65.5q-162 0 -198 89t-36 134
q0 96 61.5 161t174.5 65t172 -66t59 -159zM757.5 156q61.5 0 61.5 70t-61.5 70t-61.5 -70t61.5 -70z" />
    </font>
</defs>
</svg>
