<?xml version="1.0" standalone="no"?>
<!DOCTYPE svg PUBLIC "-//W3C//DTD SVG 1.1//EN" "http://www.w3.org/Graphics/SVG/1.1/DTD/svg11.dtd" >
<svg xmlns="http://www.w3.org/2000/svg">
<metadata>
Created by FontPrep 20130207 at Fri May 23 23:10:45 2014
 By Victor
Copyright (c) 2014 by Antonio Rodrigues Jr. All rights reserved.
</metadata>
<defs>
<font id="f91a672801fcd2eab77c53fefbe90a3c" horiz-adv-x='1024' >
  <font-face 
    font-family="Berlin-Italic"
    font-weight="400"
    font-style="italic"
    font-stretch="normal"
    units-per-em="2048"
    panose-1="2 0 5 6 0 0 0 2 0 2"
    ascent="1536"
    descent="-512"
    x-height="1022"
    cap-height="1434"
    bbox="33 -537 2117.17 1819"
    underline-thickness="102"
    underline-position="-102"
    unicode-range="U+0020-2212"
  />
<missing-glyph horiz-adv-x="516" 
 />
    <glyph glyph-name=".notdef" horiz-adv-x="516" 
 />
    <glyph glyph-name=".null" horiz-adv-x="0" 
 />
    <glyph glyph-name="nonmarkingreturn" horiz-adv-x="681" 
 />
    <glyph glyph-name="space" unicode=" " horiz-adv-x="516" 
 />
    <glyph glyph-name="exclam" unicode="!" horiz-adv-x="501" 
d="M301 1430h160l-193 -1033h-159zM157 180q40 0 60.5 -25.5t12.5 -65.5t-39 -64.5t-71 -24.5t-59.5 24.5t-11.5 64.5t38 65.5t70 25.5z" />
    <glyph glyph-name="quotedbl" unicode="&#x22;" horiz-adv-x="499" 
d="M131 932h-90l90 502h123zM336 932h-90l88 502h125z" />
    <glyph glyph-name="numbersign" unicode="#" horiz-adv-x="1038" 
d="M686 641h-213l-59 -135q-16 -35 -20 -42l-38 -91h213zM307 260l-104 -260h-107l103 260h-158l25 113h180q12 31 27.5 65.5t29.5 67.5l59 135h-239l24 115h263l108 258h107l-105 -258h213l105 258h110l-108 -258h157l-24 -115h-180q-12 -33 -27.5 -66.5t-30 -68.5
t-28 -66.5t-27.5 -66.5h235l-24 -113h-256q-21 -58 -55 -133l-52 -127h-112l106 260h-215z" />
    <glyph glyph-name="dollar" unicode="$" horiz-adv-x="1185" 
d="M649 1096q-206 -18 -237 -170q-33 -134 159 -199zM757.5 199.5q64.5 46.5 77.5 106.5q21 96 -25 146t-146 85l-84 -396q113 12 177.5 58.5zM999 340q-33 -147 -151.5 -232t-296.5 -102l-45 -211h-133l45 209q-253 12 -377 201l135 108q95 -152 270 -172l93 430
q-155 44 -212 92t-76 104.5t-3 126.5q31 143 135.5 234.5t294.5 102.5l43 203h133l-43 -203q227 -18 334 -195l-131 -96q-63 129 -232 154l-86 -406q168 -51 224.5 -98t76.5 -105.5t2 -144.5z" />
    <glyph glyph-name="uni0025" unicode="%" horiz-adv-x="1288" 
d="M480 1028q-102 0 -144.5 59.5t-25.5 143.5t86 141.5t170 57.5t142 -57.5t23 -142.5t-83.5 -143.5t-167.5 -58.5zM546.5 1350q-59.5 0 -92 -35t-42.5 -84t7 -83t76.5 -34t92.5 32t43 82t-7.5 86t-77 36zM182 0h-141l1065 1430h141zM746 0q-102 0 -145.5 59.5t-26.5 143.5
t86 141t170 57t142 -57t24 -142t-82.5 -143.5t-167.5 -58.5zM789 322q-81 0 -109 -121q-24 -115 57.5 -115t114.5 33t43 82t-7.5 85t-98.5 36z" />
    <glyph glyph-name="ampersand" unicode="&#x26;" horiz-adv-x="1294" 
d="M475 121q203 0 373 143l-275 451q-159 -84 -229.5 -149.5t-92.5 -170.5q-21 -104 41 -189t183 -85zM798 1315q-74 0 -137 -48t-79 -124q-8 -39 8 -83t45 -99l41 -62q121 57 183.5 105.5t79.5 129.5t-25 131t-116 50zM830 1438q148 0 224 -87q75 -87 46 -214
q-27 -145 -154 -222t-207 -120l230 -381q96 101 133 252h151q-64 -215 -202 -387l108 -181l-151 -108l-93 155q-211 -160 -473 -159q-195 0 -301 118q-100 119 -63 293q27 129 132 228.5t300 195.5q-57 100 -82 173t-12 132q30 136 148 224t266 88z" />
    <glyph glyph-name="quotesingle" unicode="'" horiz-adv-x="294" 
d="M131 932h-90l90 502h123z" />
    <glyph glyph-name="parenleft" unicode="(" horiz-adv-x="770" 
d="M219 -211q-112 190 -158.5 400t13.5 503q110 501 528 903h127q-427 -427 -526 -903q-84 -392 4 -603.5t139 -299.5h-127z" />
    <glyph glyph-name="parenright" unicode=")" horiz-adv-x="768" 
d="M41 -211q201 205 332.5 417t189.5 486q86 395 -2 605t-139 298h127q114 -195 160 -404.5t-17 -498.5q-85 -411 -268.5 -619t-257.5 -284h-125z" />
    <glyph glyph-name="asterisk" unicode="*" horiz-adv-x="765" 
d="M438 1049l127 -224l-88 -57l-129 219l-219 -217l-70 55l209 230l-227 92l49 90l240 -86l59 283h103l-58 -283l283 84l8 -90z" />
    <glyph glyph-name="plus" unicode="+" horiz-adv-x="1007" 
d="M352 68l82 393h-393l25 112h393l84 396h112l-84 -396h396l-25 -112h-395l-82 -393h-113z" />
    <glyph glyph-name="comma" unicode="," horiz-adv-x="450" 
d="M41 -297l238 502h131l-248 -502h-121z" />
    <glyph glyph-name="hyphen" unicode="-" horiz-adv-x="516" 
d="M41 455l25 120h409l-24 -120h-410z" />
    <glyph glyph-name="period" unicode="." horiz-adv-x="299" 
d="M170 199q43 0 65.5 -29t13.5 -72t-43 -70.5t-77 -27.5t-65.5 27.5t-12.5 70.5q8 43 42 72t77 29z" />
    <glyph glyph-name="slash" unicode="/" horiz-adv-x="1052" 
d="M41 0l854 1434h117l-854 -1434h-117z" />
    <glyph glyph-name="zero" unicode="0" horiz-adv-x="1153" 
d="M754 270.5q140 164.5 196 430.5t-16 425.5t-234 159.5t-305 -160t-199 -431q-56 -270 18 -429.5t237 -159.5t303 164.5zM324 1221.5q184 195.5 406 195.5t322.5 -196t30.5 -526t-252.5 -521.5t-405 -191.5t-324 192t-31.5 522t254 525.5z" />
    <glyph glyph-name="one" unicode="1" horiz-adv-x="526" 
d="M41 0l293 1380l151 54l-303 -1434h-141z" />
    <glyph glyph-name="two" unicode="2" horiz-adv-x="1097" 
d="M700 1430q206 0 296 -120t48 -309q-35 -191 -354 -473l-438 -393h653l-28 -135h-836l31 147l514 453q45 43 170 161t150 242q25 125 -34.5 204t-205.5 79q-84 0 -163 -49t-126 -135l-96 98q76 104 191.5 167t227.5 63z" />
    <glyph glyph-name="three" unicode="3" horiz-adv-x="1146" 
d="M293 1276q189 166 411 166q212 0 316 -91.5t67 -267.5q-25 -119 -104.5 -200.5t-191.5 -116.5q121 -35 184.5 -125t30.5 -244q-43 -192 -205 -300.5t-377 -108.5q-135 0 -223 40t-160 130l135 96q77 -139 275 -139q160 0 268 74.5t138 212.5t-66.5 210t-294.5 72h-47
l30 141h51q243 0 317.5 96.5t86.5 152.5q23 107 -45.5 174t-180.5 67t-185.5 -32t-141.5 -97z" />
    <glyph glyph-name="four" unicode="4" horiz-adv-x="1136" 
d="M760 528l135 643l-625 -643h490zM649 2l80 381h-688l25 109l901 940h129l-193 -904h129l-31 -145h-129l-79 -381h-144z" />
    <glyph glyph-name="five" unicode="5" horiz-adv-x="1161" 
d="M615 963q219 0 343.5 -115t73.5 -356q-41 -192 -216 -346t-386 -154q-139 0 -228 43t-161 129l131 100q70 -129 289 -129q148 0 270.5 101t157.5 247q35 168 -59.5 254t-272.5 86t-305 -37l199 648h669l-30 -146h-547l-101 -334q78 9 173 9z" />
    <glyph glyph-name="six" unicode="6" horiz-adv-x="1083" 
d="M461 117q78 0 142.5 24.5t114.5 68.5t86 105.5t57 167.5t-44 189.5t-181 83.5q-212 0 -405 -152q-44 -117 -35 -212t41.5 -151.5t89 -90t134.5 -33.5zM287 772q162 125 359 125q196 0 296.5 -121t56 -324t-201.5 -334.5t-375 -131.5t-313.5 166t-40.5 407
q64 313 306.5 562.5t653.5 322.5l14 -125q-301 -68 -481 -199t-274 -348z" />
    <glyph glyph-name="seven" unicode="7" horiz-adv-x="1085" 
d="M1022 1323l-336 -438q-242 -323 -350.5 -495t-142.5 -339l-11 -47h-141l8 43q54 243 172.5 410.5t272.5 369.5t344 461h-668l31 146h843z" />
    <glyph glyph-name="eight" unicode="8" horiz-adv-x="1208" 
d="M748 1307h-7q-118 -4 -211 -67.5t-114 -163.5t43 -166t192 -81q197 20 261.5 108.5t75.5 140.5q22 103 -47.5 166t-192.5 63zM496 119q86 0 178 33.5t164 103.5q45 57 63 141q27 129 -48 200t-235 83q-166 -12 -271 -83t-132 -200q-18 -80 2 -141q41 -68 117 -102.5
t162 -34.5zM784 1442h9q76 0 131 -19q121 -31 182.5 -115t33.5 -214t-108 -211.5t-192 -116.5q121 -35 184 -125t27 -256t-173.5 -270.5t-318.5 -120.5l-27 -4l-36 -2h-47l-64 6q-175 17 -268.5 124t-58.5 270q36 163 136.5 253t237.5 125q-96 35 -141 117t-24 186
q38 189 181.5 281t335.5 92z" />
    <glyph glyph-name="nine" unicode="9" horiz-adv-x="1083" 
d="M624 1313q-150 0 -255 -91.5t-140 -240.5q-27 -140 38.5 -223.5t181.5 -83.5q209 0 403 151q49 99 34 243t-99.5 194.5t-162.5 50.5zM799 659q-159 -127 -359 -127t-298.5 121t-57.5 320q48 210 204 340.5t374 130.5t313 -164t43 -410q-70 -320 -310.5 -565.5
t-652.5 -318.5l-14 125q443 97 576 267.5t182 278.5v2z" />
    <glyph glyph-name="colon" unicode=":" horiz-adv-x="475" 
d="M346 1022q43 0 65.5 -28.5t13.5 -71.5t-44 -71t-78 -28t-64.5 28t-13.5 71q10 43 44 71.5t77 28.5zM170 199q43 0 65.5 -29t13.5 -72t-43 -70.5t-77 -27.5t-65.5 27.5t-12.5 70.5q8 43 42 72t77 29z" />
    <glyph glyph-name="semicolon" unicode=";" horiz-adv-x="645" 
d="M516 1022q43 0 65.5 -28.5t13.5 -71.5t-44 -71t-78 -28t-64.5 28t-13.5 71q10 43 44 71.5t77 28.5zM41 -313l244 501h131l-248 -501h-127z" />
    <glyph glyph-name="less" unicode="&#x3c;" horiz-adv-x="593" 
d="M254 133l-213 344l360 344h152l-342 -344l18 -37l33 -55q87 -134 144 -252h-152z" />
    <glyph glyph-name="equal" unicode="=" horiz-adv-x="1042" 
d="M127 686l29 137h845l-28 -137h-846zM41 289l29 131h845l-28 -131h-846z" />
    <glyph glyph-name="greater" unicode="&#x3e;" horiz-adv-x="593" 
d="M41 133l342 344q-62 101 -96 162l-99 182h152l213 -344l-360 -344h-152z" />
    <glyph glyph-name="question" unicode="?" horiz-adv-x="815" 
d="M43 1270q193 164 387 164q182 0 271 -89t55 -262q-44 -209 -424 -432l-70 -332h-133l82 422q214 116 271 162.5t83.5 86.5t38.5 93q23 106 -33.5 159.5t-149.5 53.5t-159.5 -32.5t-134.5 -98.5zM166 193q41 0 63.5 -28t13.5 -69t-42 -68.5t-74 -27.5t-63.5 27.5
t-13.5 68.5t42 69t74 28z" />
    <glyph glyph-name="at" unicode="@" horiz-adv-x="1472" 
d="M817 1151q145 0 219 -69.5t43 -204.5l-80 -377q-8 -56 45 -56q68 0 124 71t89 222q61 276 -50.5 425t-353.5 149q-243 0 -419 -170.5t-231 -429.5t44.5 -425.5t297.5 -166.5t307 34.5t213 122.5l45 -96q-225 -180 -535 -180t-440 195.5t-65 504.5t283 517t520 208
t446 -179.5t82 -483.5q-46 -208 -155 -317t-237 -109t-141 94q-124 -108 -263 -108q-138 0 -202.5 66.5t-41.5 185.5t126.5 184t226.5 65t218 -35l16 74q16 80 -25.5 123t-149.5 43t-216 -104l-65 96q137 131 325 131zM907 666q-92 43 -208 43q-115 0 -158 -49.5t-55 -99.5
t27 -86t109 -36t139.5 36t123.5 89z" />
    <glyph glyph-name="A" unicode="A" 
d="M543 586h424l-82 600zM991 434h-532l-246 -434h-172l813 1434h164l207 -1434h-172z" />
    <glyph glyph-name="B" unicode="B" 
d="M778 819q95 0 176.5 67t102.5 164t-32 164.5t-148 67.5h-412l-98 -463h411zM688 152q107 0 202 81t118 188t-39 177t-170 70h-465l-111 -516h465zM905 1434q158 0 248.5 -114.5t52.5 -270.5q-35 -168 -188 -285q82 -53 121 -147.5t17 -194.5q-39 -183 -184.5 -302.5
t-316.5 -119.5h-614l303 1434h561z" />
    <glyph glyph-name="C" unicode="C" horiz-adv-x="1357" 
d="M860 1452q172 0 280.5 -61.5t176.5 -167.5l-129 -97q-61 104 -150.5 139t-211.5 35q-232 0 -393 -167.5t-210 -409.5q-55 -242 36 -412t327 -170q117 0 221 38t211 143l88 -97q-248 -233 -554 -233t-426.5 215.5t-53.5 517.5q62 303 272 515t516 212z" />
    <glyph glyph-name="D" unicode="D" horiz-adv-x="1472" 
d="M823 1282h-358l-242 -1130h359q264 0 436 151.5t228 415.5t-57.5 413.5t-365.5 149.5zM864 1434q336 0 469.5 -202t68.5 -514q-66 -312 -289 -515t-552 -203h-520l303 1434h520z" />
    <glyph glyph-name="E" unicode="E" horiz-adv-x="1239" 
d="M41 0l303 1434h854l-31 -152h-702l-98 -461h639l-33 -151h-639l-111 -518h709l-31 -152h-860z" />
    <glyph glyph-name="F" unicode="F" horiz-adv-x="1239" 
d="M41 0l303 1434h854l-31 -152h-702l-98 -461h639l-33 -151h-639l-141 -670h-152z" />
    <glyph glyph-name="G" unicode="G" horiz-adv-x="1357" 
d="M860 1452q172 0 280.5 -61.5t176.5 -167.5l-129 -97q-61 104 -150.5 139t-211.5 35q-232 0 -393 -167.5t-210 -409.5q-54 -240 46 -411t328 -171t388 131l84 398h-407l32 151h559l-127 -596q-248 -233 -555 -233t-436 217.5t-63 515.5q62 303 272 515t516 212z" />
    <glyph glyph-name="H" unicode="H" horiz-adv-x="1396" 
d="M901 0l141 670h-708l-141 -670h-152l303 1434h152l-129 -613h708l129 613h152l-303 -1434h-152z" />
    <glyph glyph-name="I" unicode="I" horiz-adv-x="536" 
d="M41 0l303 1434h152l-303 -1434h-152z" />
    <glyph glyph-name="J" unicode="J" horiz-adv-x="1157" 
d="M460 135q122 0 192.5 79t97.5 210l215 1010h151l-215 -1012q-45 -217 -175 -327.5t-327 -110.5t-261 78.5t-97 138.5l137 106q37 -82 98.5 -127t183.5 -45z" />
    <glyph glyph-name="K" unicode="K" horiz-adv-x="1427" 
d="M41 0l303 1434h152l-148 -697l840 697h198l-843 -697l544 -737h-210l-529 733l-155 -733h-152z" />
    <glyph glyph-name="L" unicode="L" horiz-adv-x="970" 
d="M41 0l303 1434h152l-273 -1282h707l-31 -152h-858z" />
    <glyph glyph-name="M" unicode="M" horiz-adv-x="1660" 
d="M1167 0l240 1135l-655 -795l-328 778l-238 -1118h-145l303 1434h117l346 -834l698 834h115l-303 -1434h-150z" />
    <glyph glyph-name="N" unicode="N" horiz-adv-x="1536" 
d="M1065 0l-631 1161l-246 -1161h-147l303 1434h123l635 -1162l246 1162h147l-303 -1434h-127z" />
    <glyph glyph-name="O" unicode="O" horiz-adv-x="1478" 
d="M579.5 -10q-165.5 0 -276 61.5t-173 162.5t-76 234.5t17 276.5t100.5 274t175.5 231.5t241.5 161t302 60.5t279.5 -60.5t176 -161t77 -231.5t-16.5 -274t-101.5 -276.5t-176 -234.5t-245 -162.5t-305 -61.5zM447.5 1136q-169.5 -164 -222.5 -413q-56 -241 45 -411.5
t346 -170.5t412.5 165.5t221.5 412.5t-45.5 414t-343.5 167t-413.5 -164z" />
    <glyph glyph-name="P" unicode="P" horiz-adv-x="1259" 
d="M737 764q106 0 196.5 74.5t117.5 183.5q20 107 -40 183.5t-163 76.5h-383l-111 -518h383zM879 1434q167 0 262 -120t60 -290t-180.5 -291t-315.5 -121h-383l-129 -612h-152l303 1434h535z" />
    <glyph glyph-name="Q" unicode="Q" horiz-adv-x="1478" 
d="M447.5 1136q-169.5 -164 -222.5 -413q-56 -241 45 -411.5t346 -170.5t412.5 165.5t221.5 412.5t-45.5 414t-343.5 167t-413.5 -164zM580 -10q-311 0 -442.5 213t-66.5 519.5t287 518t460.5 211.5t352 -60.5t208 -212t28.5 -454.5q-87 -391 -289.5 -532.5t-326.5 -174.5
l129 -223h-168l-109 199q-32 -4 -63 -4z" />
    <glyph glyph-name="R" unicode="R" horiz-adv-x="1259" 
d="M737 764q106 0 196.5 74.5t117.5 183.5q20 107 -40 183.5t-163 76.5h-383l-111 -518h383zM879 1434q167 0 262 -120t61 -292q-27 -133 -129 -241.5t-237 -149.5l200 -631h-170l-207 612h-337l-129 -612h-152l303 1434h535z" />
    <glyph glyph-name="S" unicode="S" horiz-adv-x="1308" 
d="M829 1440q147 0 254 -47t185 -172l-156 -105l-4 12q-47 86 -121.5 123t-202.5 37t-221.5 -60.5t-113.5 -152.5t60.5 -145.5t244.5 -120.5q263 -86 312.5 -204t29.5 -214q-40 -191 -204 -296t-384 -105q-154 0 -268.5 57t-198.5 184l143 103q98 -189 363 -189
q229 0 303 85.5t86 141.5q23 105 -61.5 171t-249.5 125q-70 27 -139.5 54.5t-153 95.5t-46.5 238q38 170 174.5 277t368.5 107z" />
    <glyph glyph-name="T" unicode="T" horiz-adv-x="976" 
d="M553 1282l-272 -1282h-152l272 1282h-360l31 152h864l-31 -152h-352z" />
    <glyph glyph-name="U" unicode="U" horiz-adv-x="1449" 
d="M478 137h103q83 0 253.5 53t224.5 304l198 940h152l-199 -938l-6 -25q-49 -201 -207 -327.5t-368 -151.5l-78 -6h-25q-158 0 -337.5 89t-131.5 396l205 963h152l-199 -940q-52 -253 95 -305t168 -52z" />
    <glyph glyph-name="V" unicode="V" 
d="M381 248l672 1186h172l-813 -1434h-164l-207 1434h172z" />
    <glyph glyph-name="W" unicode="W" horiz-adv-x="1845" 
d="M1100 0h-160l-76 1122l-559 -1122h-166l-98 1434h168l82 -1125l551 1125h168l75 -1125l551 1125h168z" />
    <glyph glyph-name="X" unicode="X" horiz-adv-x="1570" 
d="M238 0h-197l655 723l-344 711h197l270 -572l514 572h197l-645 -711l350 -723h-199l-276 584z" />
    <glyph glyph-name="Y" unicode="Y" horiz-adv-x="1251" 
d="M504 858l526 576h180l-667 -750l-146 -684h-151l143 682l-348 752h180z" />
    <glyph glyph-name="Z" unicode="Z" horiz-adv-x="1376" 
d="M276 152h838l-31 -152h-1042l31 152l1028 1130h-744l31 152h948l-30 -150z" />
    <glyph glyph-name="bracketleft" unicode="[" horiz-adv-x="733" 
d="M41 -203l385 1807h266l-22 -103h-154l-340 -1601h154l-23 -103h-266z" />
    <glyph glyph-name="backslash" unicode="\" horiz-adv-x="446" 
d="M289 4l-248 1430h117l248 -1430h-117z" />
    <glyph glyph-name="bracketright" unicode="]" horiz-adv-x="733" 
d="M41 -203l22 103h154l340 1601h-154l23 103h266l-385 -1807h-266z" />
    <glyph glyph-name="asciicircum" unicode="^" horiz-adv-x="624" 
d="M41 1202l240 232h161l142 -232h-160l-84 133l-139 -133h-160z" />
    <glyph glyph-name="underscore" unicode="_" horiz-adv-x="1128" 
d="M41 -426l22 113h1024l-24 -113h-1022z" />
    <glyph glyph-name="grave" unicode="`" horiz-adv-x="364" 
d="M184 1202l-143 232h141l142 -232h-140z" />
    <glyph glyph-name="a" unicode="a" horiz-adv-x="1118" 
d="M463 117q88 -1 165 29t154 145l99 487q-88 136 -257 135.5t-276 -113t-145 -280.5q-30 -165 30 -284t230 -119zM649 1036q155 0 269 -80l14 68h145l-217 -1024h-137l14 84q-107 -90 -307 -90q-237 0 -325.5 149t-43.5 373q52 230 206 375t382 145z" />
    <glyph glyph-name="b" unicode="b" horiz-adv-x="1101" 
d="M569 913q-87 0 -211 -39l-153 -724q90 -33 215 -33q180 0 302 109.5t162 295.5t-46 288.5t-269 102.5zM607 1036q226 0 353 -130.5t74 -376.5t-229.5 -390.5t-423.5 -144.5q-174 0 -340 55l293 1385h143l-90 -428q117 30 220 30z" />
    <glyph glyph-name="c" unicode="c" horiz-adv-x="1036" 
d="M854 158q-190 -164 -420 -164q-241 0 -329.5 149t-43.5 373q52 230 206 375t386 145t342 -164l-114 -94q-86 135 -256 135t-274.5 -109.5t-143.5 -283.5q-50 -274 59 -338.5t199 -64.5q182 0 323 131z" />
    <glyph glyph-name="d" unicode="d" horiz-adv-x="1193" 
d="M696 913q-182 0 -311 -102.5t-169 -288.5t37 -295.5t257 -109.5q128 0 227 33l154 724q-110 39 -195 39zM708 1036q100 0 212 -30l90 428h143l-293 -1385q-190 -55 -340 -55q-271 0 -388 145t-64 389q52 245 234 376.5t406 131.5z" />
    <glyph glyph-name="e" unicode="e" horiz-adv-x="1075" 
d="M373.5 825q-96.5 -88 -137.5 -211h620q29 130 -30.5 214.5t-207.5 84.5t-244.5 -88zM650 1034q214 0 299 -138t26 -402h-768q-31 -174 40.5 -276.5t246.5 -102.5t311 125l67 -90q-178 -158 -420 -158t-338.5 149t-46.5 385q51 236 210 372t373 136z" />
    <glyph glyph-name="f" unicode="f" horiz-adv-x="757" 
d="M264 1053q65 311 205.5 354t247.5 23l-43 -117q-139 35 -189 -53.5t-79 -210.5l-5 -23h181l-27 -127h-180l-191 -899h-143l190 899h-92l27 127h92z" />
    <glyph glyph-name="g" unicode="g" horiz-adv-x="1234" 
d="M666 115q91 0 208 39l156 725q-87 32 -213 32q-180 0 -303 -109.5t-162 -295.5t46 -288.5t268 -102.5zM856 1034q172 0 338 -55l-217 -1024q-99 -444 -565 -444q-251 0 -371 170l115 102q90 -135 288 -135q162 0 257.5 66.5t127.5 219.5l19 89q-237 -58 -419 1
t-218.5 205t-9.5 271q53 246 231.5 390t423.5 144z" />
    <glyph glyph-name="h" unicode="h" horiz-adv-x="1105" 
d="M686 913q-181 0 -356 -235l-144 -678h-145l303 1434h145l-114 -547q61 66 155.5 111.5t193.5 45.5q182 0 271 -95.5t49 -264.5l-143 -684h-143l139 655q27 129 -35.5 193.5t-175.5 64.5z" />
    <glyph glyph-name="i" unicode="i" horiz-adv-x="532" 
d="M414 1434q39 0 58.5 -25t11 -63.5t-38 -62t-68.5 -23.5t-57.5 23.5t-10.5 62t37 63.5t68 25zM41 0l217 1024h143l-217 -1024h-143z" />
    <glyph glyph-name="j" unicode="j" horiz-adv-x="847" 
d="M729 1434q39 0 58.5 -25t11.5 -63.5t-38 -62t-69 -23.5t-57.5 23.5t-10 62t37 63.5t67.5 25zM41 -303q137 16 211 93t104 222l215 1014h144l-217 -1020q-53 -267 -204 -344.5t-249 -87.5z" />
    <glyph glyph-name="k" unicode="k" horiz-adv-x="1126" 
d="M41 0l303 1432h143l-191 -902l597 494h192l-608 -492l389 -532h-198l-372 527l-112 -527h-143z" />
    <glyph glyph-name="l" unicode="l" horiz-adv-x="528" 
d="M41 0l303 1434h143l-303 -1434h-143z" />
    <glyph glyph-name="m" unicode="m" horiz-adv-x="1818" 
d="M1458 1044q164 0 251.5 -96t47.5 -264l-143 -684h-141l139 655q27 129 -37 192.5t-176 65.5q-159 0 -244.5 -100t-112.5 -135l-143 -678h-141l139 655q27 129 -36.5 193.5t-176.5 64.5q-181 0 -356 -235l-144 -678h-143l217 1026h143l-28 -139q61 66 155 111.5t212 45.5
t198 -48t104 -144q204 192 416 192z" />
    <glyph glyph-name="n" unicode="n" horiz-adv-x="1103" 
d="M684 913q-181 0 -356 -235l-144 -678h-143l217 1026h143l-28 -139q61 66 155.5 111.5t193.5 45.5q182 0 271 -95.5t49 -264.5l-143 -684h-141l139 655q27 129 -36.5 193.5t-176.5 64.5z" />
    <glyph glyph-name="o" unicode="o" horiz-adv-x="1083" 
d="M108 133.5q-95 149.5 -42 378.5q48 231 202.5 376.5t386 145.5t322 -147.5t43.5 -378t-201 -377.5t-385 -147t-326 149.5zM554 920q-241 0 -339 -410q-61 -289 45.5 -350.5t194.5 -61.5t156.5 31t119.5 86t85 130t52.5 163t16.5 162.5t-46 162t-285 87.5z" />
    <glyph glyph-name="p" unicode="p" horiz-adv-x="1222" 
d="M514 115q182 0 312 102.5t169 288.5t-36.5 295.5t-256.5 109.5q-126 0 -227 -32l-156 -725q115 -39 195 -39zM693 1034q272 0 392.5 -145.5t73.5 -376.5q-58 -258 -244 -389t-416 -131q-105 0 -206 31l-113 -531h-139l313 1487q190 55 339 55z" />
    <glyph glyph-name="q" unicode="q" horiz-adv-x="1101" 
d="M532 115q94 0 211 39l156 725q-87 32 -215 32q-180 0 -303 -109.5t-162 -295.5t46 -288.5t267 -102.5zM723 1034q172 0 338 -55l-316 -1487h-141l113 531q-238 -59 -420.5 0.5t-219 205.5t-9.5 271q53 246 231.5 390t423.5 144z" />
    <glyph glyph-name="r" unicode="r" horiz-adv-x="919" 
d="M692 913q-114 0 -205 -71.5t-159 -163.5l-144 -678h-143l217 1024h143l-28 -137q61 66 155.5 111.5t193.5 45.5t157 -16l-66 -137q-54 22 -121 22z" />
    <glyph glyph-name="s" unicode="s" horiz-adv-x="970" 
d="M573 913q-93 0 -143.5 -38.5t-60.5 -88.5q-16 -83 35 -121.5t128 -64.5q78 -26 197.5 -77t79.5 -238q-27 -136 -149 -215.5t-259 -79.5t-218 40t-142 132l127 98q78 -143 248 -143q111 0 172.5 43t73.5 97q19 91 -32 131.5t-136 66.5q-84 26 -199 73.5t-75 232.5
q28 134 138 207.5t238 73.5t203 -36.5t131 -128.5l-121 -97v2q-37 68 -90 99.5t-146 31.5z" />
    <glyph glyph-name="t" unicode="t" horiz-adv-x="561" 
d="M41 215q0 78 18 164l111 522h-92l26 127h93l51 242h143l-51 -242h180l-26 -127h-181l-110 -518q-24 -128 -12 -198t80 -74q40 -2 87 8l-6 -117q-211 -42 -261 46.5t-50 166.5z" />
    <glyph glyph-name="u" unicode="u" horiz-adv-x="1130" 
d="M436 113q213 0 350 168l158 743h146l-218 -1024h-137l23 115q-131 -129 -383 -129q-169 0 -260 93t-56 265l146 680h143l-139 -651q-27 -125 40.5 -192.5t186.5 -67.5z" />
    <glyph glyph-name="v" unicode="v" horiz-adv-x="1077" 
d="M397 0h-147l-209 1022h156l163 -864l535 864h141z" />
    <glyph glyph-name="w" unicode="w" horiz-adv-x="1681" 
d="M1065 0h-137l-127 827l-482 -827h-137l-141 1022h154l104 -844l481 844h133l123 -842l463 842h141z" />
    <glyph glyph-name="x" unicode="x" horiz-adv-x="1239" 
d="M813 0l-219 426l-395 -426h-158l485 520l-260 504h172l217 -416l387 416h156l-477 -506l264 -518h-172z" />
    <glyph glyph-name="y" unicode="y" horiz-adv-x="1253" 
d="M41 -301q211 37 289 125t94 160l-209 1040h162l160 -860l522 860h153l-647 -1040l-57 -99q-109 -195 -247 -248t-214 -61z" />
    <glyph glyph-name="z" unicode="z" horiz-adv-x="1044" 
d="M233 137h613l-29 -137h-776l29 137l727 752h-568l29 135h746l-29 -135z" />
    <glyph glyph-name="braceleft" unicode="{" horiz-adv-x="692" 
d="M236 -207q-96 0 -145.5 55.5t-33.5 171.5l99 480q12 72 9 107.5t-50 35.5l30 143q47 0 65.5 36t37.5 108l94 438q35 117 107.5 172t168.5 55h33l-24 -112l-33 -2q-114 0 -133 -94.5t-25 -120.5l-78 -369q-23 -85 -46.5 -124.5t-96.5 -57.5q66 -18 71.5 -61.5t-5.5 -121.5
l-88 -409q-4 -35 -24 -125t91 -90l33 -2l-25 -113h-32z" />
    <glyph glyph-name="bar" unicode="|" horiz-adv-x="610" 
d="M152 -393h-111l416 1966h112z" />
    <glyph glyph-name="braceright" unicode="}" horiz-adv-x="692" 
d="M455 1595q96 0 146 -55t32 -172l-90 -438q-10 -72 -8 -108t49 -36l-31 -143q-47 0 -64.5 -36t-37.5 -107l-103 -480q-33 -117 -106.5 -172t-169.5 -55h-31l22 113l33 2q110 0 130 90t28 125l88 409q8 29 25.5 94t117.5 89q-87 24 -78 88.5t13 93.5l78 369q20 92 18 130
t-19.5 61.5t-66.5 23.5l-33 2l25 112h33z" />
    <glyph glyph-name="exclamdown" unicode="&#xa1;" horiz-adv-x="485" 
d="M332 991q-39 0 -58.5 24.5t-11.5 63.5t38 62.5t69 23.5t57 -23.5t10 -62.5t-36.5 -63.5t-67.5 -24.5zM195 -213v-2h-152v2h-2l192 1032h160l-192 -1032h-6z" />
    <glyph glyph-name="cent" unicode="&#xa2;" horiz-adv-x="1019" 
d="M209 268q41 -119 162 -145l172 809q-131 -26 -222 -141t-122 -259.5t10 -263.5zM485 119q132 19 263 145l81 -88q-170 -161 -370 -180l-43 -207h-115l43 209q-184 23 -254.5 173t-30.5 357q43 202 179.5 353t330.5 176l45 209h115l-45 -207q191 -18 295 -178l-119 -88
q-78 129 -201 143z" />
    <glyph glyph-name="sterling" unicode="&#xa3;" horiz-adv-x="1159" 
d="M745 1229q135 0 226.5 -48t146.5 -153l-125 -98q-70 162 -282 162q-127 0 -196 -53.5t-87 -144.5t20.5 -158.5t55.5 -98.5h409l-26 -125h-334q4 -23 4 -46.5t-6 -51.5q-18 -92 -76.5 -152.5t-134.5 -109.5h604l-31 -152h-872l25 119q151 60 237 125t111 162
q10 55 -13 106h-256l27 125h160q-31 49 -50.5 107.5t-2.5 136.5q33 156 154.5 252t311.5 96z" />
    <glyph glyph-name="yen" unicode="&#xa5;" horiz-adv-x="1128" 
d="M299 0l47 223h-305l27 127h305l43 201h-305l26 127h234l-203 551h170l186 -504l398 504h165l-442 -551h238l-27 -127h-305l-43 -201h305l-27 -127h-305l-47 -223h-135z" />
    <glyph glyph-name="brokenbar" unicode="&#xa6;" horiz-adv-x="495" 
d="M41 -2l109 508h106l-109 -508h-106zM240 930l108 508h107l-109 -508h-106z" />
    <glyph glyph-name="section" unicode="&#xa7;" horiz-adv-x="1019" 
d="M578 559q159 58 176 150q25 111 -56.5 140.5t-122.5 41.5l-79 22q-70 -10 -121 -48t-67 -110t39 -104t132.5 -57t98.5 -35zM371 90q217 0 256 189q29 118 -70.5 156t-147.5 54q-130 43 -190 91t-40 149q21 100 68.5 155.5t121.5 90.5q-89 63 -62 197q14 68 94.5 172
t313.5 104q78 0 138 -22.5t126 -51.5l-64 -106q-57 41 -101 61.5t-104 20.5q-242 0 -278 -179q-15 -75 66.5 -107t125.5 -47q129 -45 206 -111.5t49 -194.5q-14 -70 -69.5 -130.5t-121.5 -91.5q92 -67 66 -208q-31 -139 -148.5 -217t-279.5 -78t-285 67l70 99
q117 -51 170 -56.5t90 -5.5z" />
    <glyph glyph-name="dieresis" unicode="&#xa8;" horiz-adv-x="602" 
d="M483 1434q39 0 58.5 -25t11.5 -63.5t-38 -62t-68.5 -23.5t-57 23.5t-10.5 62t36.5 63.5t67.5 25zM154 1434q39 0 58 -25t11 -63.5t-37.5 -62t-68.5 -23.5t-57.5 23.5t-10.5 62t37 63.5t68 25z" />
    <glyph glyph-name="copyright" unicode="&#xa9;" horiz-adv-x="1560" 
d="M1047 410q-167 -146 -376 -146t-295.5 135.5t-45.5 331.5t188.5 325.5t350.5 129.5t300 -146l-98 -82q-79 119 -228 119q-150 0 -252 -100t-132 -247t31.5 -252t215.5 -105q155 0 283 116zM627 12q-166 0 -285 57.5t-189.5 156t-91 227.5t10 272t105.5 271t186.5 224.5
t255 154t309.5 57.5t285.5 -57.5t191.5 -154t93.5 -224.5t-9.5 -271t-106.5 -272t-188.5 -227.5t-257 -156t-310 -57.5zM906 1323q-248 0 -454 -179t-258 -421q-26 -117 -4.5 -225.5t81 -192.5t155.5 -134t224 -50q247 0 454.5 177.5t260.5 419.5q53 243 -79 424t-380 181z
" />
    <glyph glyph-name="ordfeminine" unicode="&#xaa;" horiz-adv-x="1118" 
d="M465 522q86 0 163 30t154 144l99 488q-89 135 -254 135q-249 0 -370 -242q-36 -71 -52 -149q-34 -164 28 -285q61 -121 232 -121zM649 1442q155 0 269 -80l14 68h145l-217 -1024h-137l14 83q-107 -90 -307 -90q-237 0 -332 161q-81 138 -37 362q51 228 205 374
q155 146 383 146z" />
    <glyph glyph-name="guillemotleft" unicode="&#xab;" horiz-adv-x="899" 
d="M578 141l-209 338l352 338h137l-340 -338l197 -338h-137zM250 141l-209 338l352 338h137l-340 -338l197 -338h-137z" />
    <glyph glyph-name="logicalnot" unicode="&#xac;" horiz-adv-x="980" 
d="M721 236l78 364h-758l25 121h874l-102 -485h-117z" />
    <glyph glyph-name="registered" unicode="&#xae;" horiz-adv-x="1560" 
d="M627 12q-166 0 -285 57.5t-189.5 156t-91 227.5t10 272t105.5 271t186.5 224.5t255 154t309.5 57.5t285.5 -57.5t191.5 -154t93.5 -224.5t-9.5 -271t-106.5 -272t-188.5 -227.5t-257 -156t-310 -57.5zM906 1323q-128 0 -246.5 -50t-214 -133t-161.5 -191.5t-92 -225.5
t-4.5 -225.5t81 -192.5t156.5 -134t225 -50q249 0 456.5 177.5t260.5 419.5q53 243 -42.5 374t-193 181t-225.5 50zM887 1155q130 0 204.5 -64t44.5 -201q-30 -138 -106 -174t-112 -42q14 -51 30.5 -100.5t34.5 -104.5l61 -168h-153l-111 338h-155l-72 -338h-143l180 854
h297zM856 1024h-149l-54 -248h140q84 0 144.5 40t69.5 96t-32 84t-119 28z" />
    <glyph glyph-name="macron" unicode="&#xaf;" horiz-adv-x="624" 
d="M41 1309l27 125h516l-27 -125h-516z" />
    <glyph glyph-name="degree" unicode="&#xb0;" horiz-adv-x="542" 
d="M230 1028q-102 0 -145.5 60.5t-26.5 145.5t87 142.5t171 57.5t143 -58.5t25 -143.5t-84.5 -144.5t-169.5 -59.5zM296 1348q-102 0 -126 -117q-10 -47 5 -78t73 -31q106 0 129 109q10 47 -6.5 82t-74.5 35z" />
    <glyph glyph-name="plusminus" unicode="&#xb1;" horiz-adv-x="1112" 
d="M41 0l22 113h902l-23 -113h-901zM465 211l57 270h-381l29 133h381l59 273h133l-59 -273h387l-29 -133h-387l-57 -270h-133z" />
    <glyph glyph-name="twosuperior" unicode="&#xb2;" horiz-adv-x="667" 
d="M226 982l-55 56q43 60 109 96t132 36q121 -1 171 -69t29 -171t-144 -219q-32 -32 -62 -58l-251 -225h375l-17 -78h-479l17 85l295 259q26 25 70 66t76 90q51 79 40 140q-17 97 -131 97q-115 0 -175 -105z" />
    <glyph glyph-name="threesuperior" unicode="&#xb3;" horiz-adv-x="688" 
d="M177 1078q109 95 233 95q186 0 219 -115q11 -38 -1 -98t-58 -106q-45 -46 -110 -66q70 -20 106 -72t20 -124q-27 -123 -119 -185t-192 -62q-101 0 -151 23t-90 74l76 55q44 -81 146 -80t164 43t78 122q17 78 -38 119t-168 40h-26l17 81h29q138 0 204 84q65 84 0 157
q-39 39 -107 37q-105 0 -182 -73z" />
    <glyph glyph-name="acute" unicode="&#xb4;" horiz-adv-x="462" 
d="M41 1202l240 232h141l-242 -232h-139z" />
    <glyph glyph-name="mu" unicode="&#xb5;" horiz-adv-x="1026" 
d="M446 109q77 0 148.5 62t122.5 142l135 635h133l-154 -725q-18 -87 -26 -223h-123l8 115q-64 -58 -123 -90.5t-148 -32.5q-88 0 -167 59l-84 -395h-127l274 1292h127l-118 -561q-29 -141 -4 -209.5t126 -68.5z" />
    <glyph glyph-name="paragraph" unicode="&#xb6;" horiz-adv-x="911" 
d="M492 1432h378l-305 -1440h-135l275 1298h-146l-274 -1298h-135l169 807q-177 7 -234.5 96t-30.5 220q28 130 127.5 223.5t310.5 93.5z" />
    <glyph glyph-name="periodcentered" unicode="&#xb7;" horiz-adv-x="290" 
d="M166 184q41 0 62.5 -27.5t12.5 -68.5t-42 -67.5t-74 -26.5t-62.5 26.5t-11.5 67.5q8 41 41 68.5t74 27.5z" />
    <glyph glyph-name="cedilla" unicode="&#xb8;" horiz-adv-x="518" 
d="M200 -244q56 0 119 45.5t58 221.5h98q4 -58 -8 -127q-25 -113 -101.5 -175.5t-185.5 -62.5q-63 0 -139 39l53 92q50 -33 106 -33z" />
    <glyph glyph-name="onesuperior" unicode="&#xb9;" horiz-adv-x="335" 
d="M34 350l167 789l87 30l-174 -819h-80z" />
    <glyph glyph-name="ordmasculine" unicode="&#xba;" horiz-adv-x="868" 
d="M776 1177q69 -110 31 -294q-38 -183 -159 -296q-121 -114 -303 -114t-255 117t-34 298q39 180 159 294t305 115q184 1 256 -120zM500 1208q-129 0 -210 -85q-80 -85 -115 -237q-47 -228 76 -298q43 -25 112 -25t123 24q105 47 161 169q56 123 53 250t-88 177
q-43 25 -112 25z" />
    <glyph glyph-name="guillemotright" unicode="&#xbb;" horiz-adv-x="913" 
d="M338 823l215 -346l-363 -346h-149l321 346l-161 324h2l-15 22h150zM657 823l215 -346l-362 -346h-150l322 346l-174 346h149z" />
    <glyph glyph-name="onequarter" unicode="&#xbc;" horiz-adv-x="1185" 
d="M60 350l168 789l86 30l-173 -819h-81zM41 0l854 1434h117l-854 -1434h-117zM732 302l78 368l-358 -368h280zM669 1l46 218h-395l14 62l517 537h74l-111 -516h74l-17 -83h-74l-46 -218h-82z" />
    <glyph glyph-name="onehalf" unicode="&#xbd;" horiz-adv-x="2676" 
d="M839 640q-17 97 -140 97q-48 1 -89 -25t-65 -63l-387 -649h-117l854 1434h117l-375 -629q100 34 187 -4q128 -56 93 -227q-17 -93 -142 -214q-32 -32 -62 -57l-251 -226h375l-17 -77h-479l18 84l294 260q26 25 56 53q148 138 130 243zM60 350l168 789l86 30l-173 -819
h-81z" />
    <glyph glyph-name="threequarters" unicode="&#xbe;" horiz-adv-x="1411" 
d="M178 1080q109 95 232 95q124 0 184 -52t39 -153q-13 -68 -59 -115t-111 -67q69 -20 106 -71q36 -51 20 -125t-48 -116q-100 -132 -288 -133q-77 0 -127 23t-92 74l77 55q43 -79 146 -79t165 43t80 121t-38 120q-56 41 -170 41h-27l18 81h29q143 0 207 88t-2 154
q-38 38 -107 38q-107 0 -183 -74zM266 0l854 1434h117l-545 -915l288 299h74l-111 -516h74l-17 -83h-74l-46 -218h-82l46 218h-331l-130 -219h-117zM861 302l78 368l-358 -368h280z" />
    <glyph glyph-name="questiondown" unicode="&#xbf;" horiz-adv-x="815" 
d="M774 -330q-182 -157 -378 -157q-185 0 -278.5 88t-56.5 256q35 192 201 294.5t238 143.5l59 242h105l-56 -297q-204 -110 -270 -170t-94.5 -106t-40.5 -101q-25 -117 34 -174.5t161 -57.5t171.5 32t135.5 93zM655 745q-39 0 -58 25t-11 63.5t37.5 62.5t68.5 24t57.5 -24
t10.5 -62.5t-37 -63.5t-68 -25z" />
    <glyph glyph-name="Agrave" unicode="&#xc0;" 
d="M543 586h424l-82 600zM991 434h-532l-246 -434h-172l813 1434h164l207 -1434h-172zM799 1587l-144 232h142l141 -232h-139z" />
    <glyph glyph-name="Aacute" unicode="&#xc1;" 
d="M543 586h424l-82 600zM991 434h-532l-246 -434h-172l813 1434h164l207 -1434h-172zM647 1587l240 232h141l-242 -232h-139z" />
    <glyph glyph-name="Acircumflex" unicode="&#xc2;" 
d="M543 586h424l-82 600zM991 434h-532l-246 -434h-172l813 1434h164l207 -1434h-172zM549 1503l289 316h131l157 -316h-120l-123 215l-211 -215h-123z" />
    <glyph glyph-name="Atilde" unicode="&#xc3;" 
d="M543 586h424l-82 600zM991 434h-532l-246 -434h-172l813 1434h164l207 -1434h-172zM510 1726q106 91 196 91q46 -1 80 -13t69 -27q36 -15 70 -27t65 -13q31 0 132 51l41 -86q-129 -80 -202 -80q-41 0 -73 13t-92 42t-95 29t-55 -10t-40 -24t-55 -34q-12 27 -41 88z" />
    <glyph glyph-name="Adieresis" unicode="&#xc4;" 
d="M543 586h424l-82 600zM991 434h-532l-246 -434h-172l813 1434h164l207 -1434h-172zM1020 1819q39 0 58 -25q20 -26 12 -64t-38 -62t-69 -24t-57 24t-11 63q8 39 37 63t68 25zM690 1819q38 0 58 -25q20 -26 12 -64t-38 -62t-69 -24t-57 24t-10 63t37 63t67 25z" />
    <glyph glyph-name="Aring" unicode="&#xc5;" 
d="M964.5 1690q-63.5 0 -98.5 -38t-45 -90q-24 -122 78 -128h25q53 4 87 39t46 88q10 53 -9.5 91t-83 38zM543 586h424l-82 600zM980 1757q99 0 140 -57t24 -140q-23 -114 -120 -165l201 -1395h-172l-62 434h-532l-246 -434h-172l778 1374q-41 14 -65 47q-41 57 -23 141
t84 139.5t165 55.5z" />
    <glyph glyph-name="AE" unicode="&#xc6;" horiz-adv-x="2017" 
d="M1251 1300l-389 -489h285zM975 0l141 670h-368l-535 -670h-172l1145 1432h790l-28 -132h-553l-103 -487h498l-31 -143h-497l-115 -539h614l-26 -131h-760z" />
    <glyph glyph-name="Ccedilla" unicode="&#xc7;" horiz-adv-x="1357" 
d="M395 -342q-63 0 -139 39l53 92q50 -33 106 -33t116.5 44t60.5 194q-20 -2 -41 -2q-305 0 -425.5 215.5t-53.5 517.5q62 303 272 515t516 212q172 0 280.5 -61.5t176.5 -167.5l-129 -97q-61 104 -150.5 139t-211.5 35q-232 0 -393 -167.5t-210 -409.5q-55 -242 36 -412
t327 -170q117 0 221 38t211 143l88 -97q-196 -184 -416 -223v-39q-10 -161 -98 -233t-197 -72z" />
    <glyph glyph-name="Egrave" unicode="&#xc8;" horiz-adv-x="1239" 
d="M41 0l303 1434h854l-31 -152h-702l-98 -461h639l-33 -151h-639l-111 -518h709l-31 -152h-860zM825 1587l-143 232h141l142 -232h-140z" />
    <glyph glyph-name="Eacute" unicode="&#xc9;" horiz-adv-x="1239" 
d="M41 0l303 1434h854l-31 -152h-702l-98 -461h639l-33 -151h-639l-111 -518h709l-31 -152h-860zM633 1587l239 232h142l-242 -232h-139z" />
    <glyph glyph-name="Ecircumflex" unicode="&#xca;" horiz-adv-x="1239" 
d="M41 0l303 1434h854l-31 -152h-702l-98 -461h639l-33 -151h-639l-111 -518h709l-31 -152h-860zM535 1503l288 316h131l158 -316h-121l-123 215l-211 -215h-122z" />
    <glyph glyph-name="Edieresis" unicode="&#xcb;" horiz-adv-x="1239" 
d="M41 0l303 1434h854l-31 -152h-702l-98 -461h639l-33 -151h-639l-111 -518h709l-31 -152h-860zM1006 1819q39 0 58 -25q19 -26 11 -64t-38 -62q-31 -24 -69 -24t-57 24q-18 24 -10 63t37 63t68 25zM676 1819q39 0 58 -25q19 -26 11 -64q-7 -38 -37 -62t-69 -24t-57 24
t-11 63q8 39 37 63t68 25z" />
    <glyph glyph-name="Igrave" unicode="&#xcc;" horiz-adv-x="536" 
d="M41 0l303 1434h152l-303 -1434h-152zM373 1587l-144 232h142l141 -232h-139z" />
    <glyph glyph-name="Iacute" unicode="&#xcd;" horiz-adv-x="536" 
d="M41 0l303 1434h152l-303 -1434h-152zM385 1587l240 232h141l-242 -232h-139z" />
    <glyph glyph-name="Icircumflex" unicode="&#xce;" horiz-adv-x="536" 
d="M41 0l303 1434h152l-303 -1434h-152zM184 1503l289 316h131l158 -316h-121l-123 215l-211 -215h-123z" />
    <glyph glyph-name="Idieresis" unicode="&#xcf;" horiz-adv-x="536" 
d="M41 0l303 1434h152l-303 -1434h-152zM656 1819q38 0 58 -25q20 -26 11 -64q-8 -38 -38 -62t-69 -24t-57 24t-10 63t37 63q30 24 68 25zM326 1819q39 0 58 -25q19 -26 11 -64t-38 -62q-31 -24 -69 -24t-57 24q-18 24 -10 63t37 63t68 25z" />
    <glyph glyph-name="Ntilde" unicode="&#xd1;" horiz-adv-x="1536" 
d="M1065 0l-631 1161l-246 -1161h-147l303 1434h123l635 -1162l246 1162h147l-303 -1434h-127zM1298 1702q-129 -80 -202 -80q-42 0 -74 13t-91 42q-60 29 -95 29q-34 0 -54 -10t-40 -24t-56 -34q-24 56 -41 88q107 91 217 91q33 0 129 -40q95 -40 131 -40t135 51z" />
    <glyph glyph-name="Ograve" unicode="&#xd2;" horiz-adv-x="1478" 
d="M580 -10q-314 0 -450 224q-125 203 -58 510q66 306 275 507q232 221 544 221q165 0 279 -60q223 -118 254 -390q30 -272 -118 -551q-148 -278 -421 -400q-139 -61 -305 -61zM1208 1127q-103 173 -346 173t-414 -165q-170 -165 -223 -412q-55 -239 45 -410
q100 -172 346 -172q245 0 412 166q168 166 223 413q54 247 -43 407zM946 1587l-143 232h141l141 -232h-139z" />
    <glyph glyph-name="Oacute" unicode="&#xd3;" horiz-adv-x="1478" 
d="M580 -10q-314 0 -450 224q-125 203 -58 510q66 306 275 507q232 221 544 221q165 0 279 -60q223 -118 254 -390q30 -272 -118 -551q-148 -278 -421 -400q-139 -61 -305 -61zM1208 1127q-103 173 -346 173t-414 -165q-170 -165 -223 -412q-55 -239 45 -410
q100 -172 346 -172q245 0 412 166q168 166 223 413q54 247 -43 407zM754 1587l239 232h142l-242 -232h-139z" />
    <glyph glyph-name="Ocircumflex" unicode="&#xd4;" horiz-adv-x="1478" 
d="M580 -10q-314 0 -450 224q-125 203 -58 510q66 306 275 507q232 221 544 221q165 0 279 -60q223 -118 254 -390q30 -272 -118 -551q-148 -278 -421 -400q-139 -61 -305 -61zM1208 1127q-103 173 -346 173t-414 -165q-170 -165 -223 -412q-55 -239 45 -410
q100 -172 346 -172q245 0 412 166q168 166 223 413q54 247 -43 407zM655 1503l289 316h131l158 -316h-121l-123 215l-211 -215h-123z" />
    <glyph glyph-name="Otilde" unicode="&#xd5;" horiz-adv-x="1478" 
d="M580 -10q-314 0 -450 224q-125 203 -58 510q66 306 275 507q232 221 544 221q165 0 279 -60q223 -118 254 -390q30 -272 -118 -551q-148 -278 -421 -400q-139 -61 -305 -61zM1208 1127q-103 173 -346 173t-414 -165q-170 -165 -223 -412q-55 -239 45 -410
q100 -172 346 -172q245 0 412 166q168 166 223 413q54 247 -43 407zM616 1726q108 91 198 91q46 -1 78 -13q34 -12 70 -27t70 -27t65 -13q32 0 132 51l41 -86q-129 -80 -193 -80t-121 28t-88 42t-54 14t-40 -3t-49 -23q-32 -21 -68 -42q-24 56 -41 88z" />
    <glyph glyph-name="Odieresis" unicode="&#xd6;" horiz-adv-x="1478" 
d="M580 -10q-314 0 -450 224q-125 203 -58 510q66 306 275 507q232 221 544 221q165 0 279 -60q223 -118 254 -390q30 -272 -118 -551q-148 -278 -421 -400q-139 -61 -305 -61zM1208 1127q-103 173 -346 173t-414 -165q-170 -165 -223 -412q-55 -239 45 -410
q100 -172 346 -172q245 0 412 166q168 166 223 413q54 247 -43 407zM1126 1819q38 0 58 -25q20 -26 12 -64t-38 -62t-68 -24t-58 24q-18 24 -10 63t37 63t67 25zM797 1819q39 0 58 -25q19 -26 11 -64t-38 -62t-68 -24t-58 24q-18 24 -10 63t37 63t68 25z" />
    <glyph glyph-name="multiply" unicode="&#xd7;" horiz-adv-x="915" 
d="M254 879l221 -277l336 281l63 -80l-335 -281l223 -276l-96 -80l-224 276l-338 -280l-63 78l338 282l-221 277z" />
    <glyph glyph-name="Oslash" unicode="&#xd8;" horiz-adv-x="1478" 
d="M1206 1126q-45 76 -125 123l-569 -1099q45 -8 100 -9q249 0 417 166t223 414q54 247 -46 405zM830 1300q-98 0 -203 -46t-227 -164t-175 -367q-56 -241 17 -364t157 -171q8 -4 15 -8l573 1106q-59 14 -157 14zM580 -10q-78 0 -144 12l-108 -207h-115l125 238
q-134 60 -202 171t-81.5 244.5t34 357t269.5 435t533 211.5q94 0 172 -20l108 206h115l-127 -241q233 -117 263.5 -392.5t-116 -553.5t-354 -369.5t-372.5 -91.5z" />
    <glyph glyph-name="Ugrave" unicode="&#xd9;" horiz-adv-x="1449" 
d="M595 137q70 0 154 27q256 82 310 330l198 940h152l-199 -938l-6 -25q-49 -200 -208 -328q-159 -127 -367 -151l-78 -6h-25q-158 0 -253 47q-264 131 -216 438l205 963h152l-199 -940q-52 -252 166 -330q74 -27 127 -27h87zM727 1587l-143 232h141l141 -232h-139z" />
    <glyph glyph-name="Uacute" unicode="&#xda;" horiz-adv-x="1449" 
d="M595 137q70 0 154 27q256 82 310 330l198 940h152l-199 -938l-6 -25q-49 -200 -208 -328q-159 -127 -367 -151l-78 -6h-25q-158 0 -253 47q-264 131 -216 438l205 963h152l-199 -940q-52 -252 166 -330q74 -27 127 -27h87zM739 1587l240 232h141l-241 -232h-140z" />
    <glyph glyph-name="Ucircumflex" unicode="&#xdb;" horiz-adv-x="1449" 
d="M595 137q70 0 154 27q256 82 310 330l198 940h152l-199 -938l-6 -25q-49 -200 -208 -328q-159 -127 -367 -151l-78 -6h-25q-158 0 -253 47q-264 131 -216 438l205 963h152l-199 -940q-52 -252 166 -330q74 -27 127 -27h87zM539 1503l288 316h131l158 -316h-121l-123 215
l-210 -215h-123z" />
    <glyph glyph-name="Udieresis" unicode="&#xdc;" horiz-adv-x="1449" 
d="M595 137q70 0 154 27q256 82 310 330l198 940h152l-199 -938l-6 -25q-49 -200 -208 -328q-159 -127 -367 -151l-78 -6h-25q-158 0 -253 47q-264 131 -216 438l205 963h152l-199 -940q-52 -252 166 -330q74 -27 127 -27h87zM1072 1819q38 0 57 -25q19 -26 11 -64t-37 -62
q-30 -24 -69 -24t-57 24t-10 63t37 63q30 24 68 25zM742 1819q38 0 58 -25q20 -26 11 -64q-8 -38 -38 -62q-31 -24 -69 -24t-57 24q-18 24 -10 63t37 63q30 24 68 25z" />
    <glyph glyph-name="Yacute" unicode="&#xdd;" horiz-adv-x="1251" 
d="M504 858l526 576h180l-667 -750l-146 -684h-151l143 682l-348 752h180zM434 1587l240 232h141l-242 -232h-139z" />
    <glyph glyph-name="Thorn" unicode="&#xde;" horiz-adv-x="1040" 
d="M563 1044h-162l-120 -569h112q383 0 445 291q32 155 -52.5 216.5t-222.5 61.5zM377 334h-127l-70 -334h-139l307 1446h139l-57 -266h150q344 0 382 -152.5t14 -265.5q-46 -216 -209 -322t-390 -106z" />
    <glyph glyph-name="germandbls" unicode="&#xdf;" horiz-adv-x="978" 
d="M252 999q50 221 136.5 322.5t250.5 101.5t237.5 -88t41.5 -229q-31 -155 -90.5 -205.5t-105.5 -73t-99 -55.5q29 -14 88 -29.5t112.5 -53.5t84 -111.5t-9.5 -260t-215.5 -290t-403.5 -103.5l26 127q157 0 298.5 79.5t178.5 246.5q31 160 -75.5 218t-171 72.5t-95.5 22.5
l29 131q57 35 108.5 56.5t115.5 64t91 170.5q19 95 -29.5 141.5t-136.5 46.5q-89 0 -142.5 -62t-86.5 -214l-217 -1024h-131z" />
    <glyph glyph-name="agrave" unicode="&#xe0;" horiz-adv-x="1118" 
d="M465 117q86 -1 163 29t154 145l99 487q-88 137 -254 135q-250 0 -370 -241q-36 -72 -52 -150q-34 -164 28 -284q61 -121 232 -121zM649 1036q155 0 269 -80l14 68h145l-217 -1024h-137l14 84q-107 -90 -307 -90q-237 0 -332 161q-82 138 -37 361q52 230 205 375t383 145z
M602 1202l-143 232h141l141 -232h-139z" />
    <glyph glyph-name="aacute" unicode="&#xe1;" horiz-adv-x="1118" 
d="M465 117q86 -1 163 29t154 145l99 487q-88 137 -254 135q-250 0 -370 -241q-36 -72 -52 -150q-34 -164 28 -284q61 -121 232 -121zM649 1036q155 0 269 -80l14 68h145l-217 -1024h-137l14 84q-107 -90 -307 -90q-237 0 -332 161q-82 138 -37 361q52 230 205 375t383 145z
M573 1202l240 232h141l-241 -232h-140z" />
    <glyph glyph-name="acircumflex" unicode="&#xe2;" horiz-adv-x="1118" 
d="M465 117q86 -1 163 29t154 145l99 487q-88 137 -254 135q-250 0 -370 -241q-36 -72 -52 -150q-34 -164 28 -284q61 -121 232 -121zM649 1036q155 0 269 -80l14 68h145l-217 -1024h-137l14 84q-107 -90 -307 -90q-237 0 -332 161q-82 138 -37 361q52 230 205 375t383 145z
M475 1118l289 316h131l158 -316h-121l-123 215l-211 -215h-123z" />
    <glyph glyph-name="atilde" unicode="&#xe3;" horiz-adv-x="1118" 
d="M465 117q86 -1 163 29t154 145l99 487q-88 137 -254 135q-250 0 -370 -241q-36 -72 -52 -150q-34 -164 28 -284q61 -121 232 -121zM649 1036q155 0 269 -80l14 68h145l-217 -1024h-137l14 84q-107 -90 -307 -90q-237 0 -332 161q-82 138 -37 361q52 230 205 375t383 145z
M1090 1317q-129 -80 -193 -80q-64 1 -121 29q-110 56 -147 55q-37 0 -57 -10q-20 -9 -40 -23t-55 -35q-24 56 -41 88q107 91 217 91q33 0 129 -40q95 -40 131 -40t136 51z" />
    <glyph glyph-name="adieresis" unicode="&#xe4;" horiz-adv-x="1118" 
d="M465 117q86 -1 163 29t154 145l99 487q-88 137 -254 135q-250 0 -370 -241q-36 -72 -52 -150q-34 -164 28 -284q61 -121 232 -121zM649 1036q155 0 269 -80l14 68h145l-217 -1024h-137l14 84q-107 -90 -307 -90q-237 0 -332 161q-82 138 -37 361q52 230 205 375t383 145z
M946 1434q38 0 58 -25t12 -63t-38 -63q-30 -23 -69 -23t-57 24t-10 62q8 40 37 64t67 24zM616 1434q38 0 58 -25t12 -63t-38 -63q-30 -23 -68 -23t-58 23q-18 24 -10 63q8 40 37 64t67 24z" />
    <glyph glyph-name="aring" unicode="&#xe5;" horiz-adv-x="1118" 
d="M465 117q86 -1 163 29t154 145l99 487q-88 137 -254 135q-250 0 -370 -241q-36 -72 -52 -150q-34 -164 28 -284q61 -121 232 -121zM649 1036q155 0 269 -80l14 68h145l-217 -1024h-137l14 84q-107 -90 -307 -90q-237 0 -332 161q-82 138 -37 361q52 230 205 375t383 145z
M641 1377q66 57 165 57t140 -58t24 -140q-17 -83 -83 -139q-66 -57 -165 -57t-141 58t-24 140q18 83 84 139zM791 1366q-63 0 -99 -38t-45 -90q-25 -128 90 -128q63 0 99 37q35 37 47 90q11 53 -9 91t-83 38z" />
    <glyph glyph-name="ae" unicode="&#xe6;" horiz-adv-x="2193" 
d="M465 117q86 -1 163 29t154 145l99 487q-88 137 -254 135q-250 0 -370 -241q-36 -72 -52 -150q-34 -164 28 -284q61 -121 232 -121zM649 1036q155 0 269 -80l14 68h145l-217 -1024h-137l14 84q-107 -90 -307 -90q-237 0 -332 161q-82 138 -37 361q52 230 205 375t383 145z
M1974 614q29 130 -32 215q-60 86 -208 85t-243 -90q-96 -89 -137 -210h620zM1768 1034q214 0 299 -138t26 -402h-768q-31 -174 41 -276t246 -103q174 0 311 125l68 -90q-178 -158 -420 -158t-340 151q-97 151 -49 363q55 256 214 392q158 136 372 136z" />
    <glyph glyph-name="ccedilla" unicode="&#xe7;" horiz-adv-x="1036" 
d="M465 117q182 0 323 131l66 -90q-179 -155 -387 -162v-33q-10 -161 -98 -233t-197 -72q-66 0 -139 39l53 92q49 -33 105 -33t115.5 42.5t62.5 199.5q-186 13 -269.5 153.5t-38.5 364.5q52 230 206 375t386 145t342 -164l-114 -94q-86 135 -256 135t-274.5 -109.5
t-143.5 -283.5q-50 -274 59 -338.5t199 -64.5z" />
    <glyph glyph-name="egrave" unicode="&#xe8;" horiz-adv-x="1075" 
d="M856 614q29 131 -32 216t-208 84t-243 -90t-137 -210h620zM650 1034q214 0 299 -138t26 -402h-768q-31 -174 41 -276t246 -103q174 0 311 125l67 -90q-178 -158 -420 -158t-338 150q-97 150 -46 384q50 234 209 371t373 137zM539 1202l-144 232h142l141 -232h-139z" />
    <glyph glyph-name="eacute" unicode="&#xe9;" horiz-adv-x="1075" 
d="M856 614q29 131 -32 216t-208 84t-243 -90t-137 -210h620zM650 1034q214 0 299 -138t26 -402h-768q-31 -174 41 -276t246 -103q174 0 311 125l67 -90q-178 -158 -420 -158t-338 150q-97 150 -46 384q50 234 209 371t373 137zM551 1202l240 232h141l-242 -232h-139z" />
    <glyph glyph-name="ecircumflex" unicode="&#xea;" horiz-adv-x="1075" 
d="M856 614q29 131 -32 216t-208 84t-243 -90t-137 -210h620zM650 1034q214 0 299 -138t26 -402h-768q-31 -174 41 -276t246 -103q174 0 311 125l67 -90q-178 -158 -420 -158t-338 150q-97 150 -46 384q50 234 209 371t373 137zM453 1118l288 316h131l158 -316h-121
l-123 215l-211 -215h-122z" />
    <glyph glyph-name="edieresis" unicode="&#xeb;" horiz-adv-x="1075" 
d="M856 614q29 131 -32 216t-208 84t-243 -90t-137 -210h620zM650 1034q214 0 299 -138t26 -402h-768q-31 -174 41 -276t246 -103q174 0 311 125l67 -90q-178 -158 -420 -158t-338 150q-97 150 -46 384q50 234 209 371t373 137zM924 1434q39 0 58 -25t11 -63t-38 -63
q-31 -23 -69 -23t-57 23q-18 24 -10 63q8 40 37 64t68 24zM594 1434q39 0 58 -25q20 -25 12 -63t-38 -63q-30 -23 -69 -23t-57 24t-11 62q8 40 37 64t68 24z" />
    <glyph glyph-name="igrave" unicode="&#xec;" horiz-adv-x="532" 
d="M293 1202l-143 232h141l141 -232h-139zM41 0l217 1024h143l-217 -1024h-143z" />
    <glyph glyph-name="iacute" unicode="&#xed;" horiz-adv-x="532" 
d="M281 1202l239 232h142l-242 -232h-139zM41 0l217 1024h143l-217 -1024h-143z" />
    <glyph glyph-name="icircumflex" unicode="&#xee;" horiz-adv-x="532" 
d="M47 1118l289 316h131l158 -316h-121l-123 215l-211 -215h-123zM41 0l217 1024h143l-217 -1024h-143z" />
    <glyph glyph-name="idieresis" unicode="&#xef;" horiz-adv-x="532" 
d="M571 1434q39 0 58.5 -25t11.5 -63.5t-38 -62t-68.5 -23.5t-57 23.5t-10.5 62t36.5 63.5t67.5 25zM242 1434q39 0 58 -25t11 -63.5t-37.5 -62t-68.5 -23.5t-57.5 23.5t-10.5 62t37 63.5t68 25zM41 0l217 1024h143l-217 -1024h-143z" />
    <glyph glyph-name="ntilde" unicode="&#xf1;" horiz-adv-x="1103" 
d="M722 1044q278 0 326 -204q15 -68 -6 -156l-143 -684h-141l139 655q27 129 -37 194t-176 64q-181 0 -356 -235l-144 -678h-143l217 1026h143l-28 -139q61 65 155 111t194 46zM1083 1317q-129 -80 -202 -80q-41 0 -73 13t-92 42t-95 29t-55 -10q-20 -9 -40 -23t-55 -35
q-24 56 -41 88q107 91 201 91q50 0 145 -40t130 -40t136 51z" />
    <glyph glyph-name="ograve" unicode="&#xf2;" horiz-adv-x="1083" 
d="M66 512q48 231 202 376q154 146 385 146q232 0 324 -148q91 -148 43 -379q-48 -230 -202 -377q-154 -146 -385 -146t-325 150t-42 378zM629 920q-165 0 -268 -108q-102 -108 -146 -302q-60 -289 96 -380q55 -32 143 -32t158 31q134 61 204 217q71 156 68 317t-112 225
q-55 32 -143 32zM748 1202l-144 232h141l142 -232h-139z" />
    <glyph glyph-name="oacute" unicode="&#xf3;" horiz-adv-x="1083" 
d="M66 512q48 231 202 376q154 146 385 146q232 0 324 -148q91 -148 43 -379q-48 -230 -202 -377q-154 -146 -385 -146t-325 150t-42 378zM629 920q-165 0 -268 -108q-102 -108 -146 -302q-60 -289 96 -380q55 -32 143 -32t158 31q134 61 204 217q71 156 68 317t-112 225
q-55 32 -143 32zM555 1202l240 232h141l-242 -232h-139z" />
    <glyph glyph-name="ocircumflex" unicode="&#xf4;" horiz-adv-x="1083" 
d="M66 512q48 231 202 376q154 146 385 146q232 0 324 -148q91 -148 43 -379q-48 -230 -202 -377q-154 -146 -385 -146t-325 150t-42 378zM629 920q-165 0 -268 -108q-102 -108 -146 -302q-60 -289 96 -380q55 -32 143 -32t158 31q134 61 204 217q71 156 68 317t-112 225
q-55 32 -143 32zM457 1118l288 316h132l157 -316h-121l-122 215l-211 -215h-123z" />
    <glyph glyph-name="otilde" unicode="&#xf5;" horiz-adv-x="1083" 
d="M66 512q48 231 202 376q154 146 385 146q232 0 324 -148q91 -148 43 -379q-48 -230 -202 -377q-154 -146 -385 -146t-325 150t-42 378zM629 920q-165 0 -268 -108q-102 -108 -146 -302q-60 -289 96 -380q55 -32 143 -32t158 31q134 61 204 217q71 156 68 317t-112 225
q-55 32 -143 32zM420 1341q106 91 196 91q46 0 80 -12t69 -28q36 -16 70 -28t65 -12t132 51l41 -86q-105 -65 -146 -73q-41 -7 -75 -7q-34 1 -92 29q-113 56 -148 55q-36 0 -56 -10q-20 -9 -40 -23t-55 -35q-12 27 -41 88z" />
    <glyph glyph-name="odieresis" unicode="&#xf6;" horiz-adv-x="1083" 
d="M66 512q48 231 202 376q154 146 385 146q232 0 324 -148q91 -148 43 -379q-48 -230 -202 -377q-154 -146 -385 -146t-325 150t-42 378zM629 920q-165 0 -268 -108q-102 -108 -146 -302q-60 -289 96 -380q55 -32 143 -32t158 31q134 61 204 217q71 156 68 317t-112 225
q-55 32 -143 32zM928 1434q39 0 58 -25t11 -63t-38 -63q-31 -23 -69 -23t-56 24t-11 62q8 40 37 64t68 24zM598 1434q39 0 58 -25q20 -25 12 -63t-38 -63q-30 -23 -69 -23t-57 24t-10 62q8 40 36 64t68 24z" />
    <glyph glyph-name="divide" unicode="&#xf7;" horiz-adv-x="475" 
d="M346 1022q43 0 66 -29q24 -29 14 -71t-45 -71q-35 -28 -78 -28t-65 28t-13 71q10 44 44 72t77 28zM170 199q43 0 66 -29q24 -29 14 -72q-10 -42 -44 -70t-77 -28t-65 28t-13 70q8 43 42 72t77 29z" />
    <glyph glyph-name="oslash" unicode="&#xf8;" horiz-adv-x="1103" 
d="M283 158l448 749q-41 13 -111 13q-145 1 -249 -108.5t-151 -332.5q-48 -223 63 -321zM371 109q37 -11 109 -11q152 0 256.5 111.5t142.5 298.5q54 253 -60 354zM464 -16q-97 0 -159 16l-123 -205h-116l147 246q-106 66 -139 190.5t-4 258.5q55 254 209 399t385 145
q70 0 131 -16l127 211h116l-149 -250q109 -66 141.5 -190.5t4.5 -258.5t-78 -229.5t-124.5 -166.5t-173 -110.5t-195.5 -39.5z" />
    <glyph glyph-name="ugrave" unicode="&#xf9;" horiz-adv-x="1130" 
d="M436 113q213 0 350 168l158 743h146l-218 -1024h-137l23 115q-131 -129 -383 -129q-171 0 -261 93t-55 265l146 680h143l-139 -651q-27 -125 41 -193q67 -67 186 -67zM772 1202l-143 232h141l141 -232h-139z" />
    <glyph glyph-name="uacute" unicode="&#xfa;" horiz-adv-x="1130" 
d="M436 113q213 0 350 168l158 743h146l-218 -1024h-137l23 115q-131 -129 -383 -129q-171 0 -261 93t-55 265l146 680h143l-139 -651q-27 -125 41 -193q67 -67 186 -67zM580 1202l239 232h142l-242 -232h-139z" />
    <glyph glyph-name="ucircumflex" unicode="&#xfb;" horiz-adv-x="1130" 
d="M436 113q213 0 350 168l158 743h146l-218 -1024h-137l23 115q-131 -129 -383 -129q-171 0 -261 93t-55 265l146 680h143l-139 -651q-27 -125 41 -193q67 -67 186 -67zM338 1118l289 316h131l157 -316h-120l-123 215l-211 -215h-123z" />
    <glyph glyph-name="udieresis" unicode="&#xfc;" horiz-adv-x="1130" 
d="M436 113q213 0 350 168l158 743h146l-218 -1024h-137l23 115q-131 -129 -383 -129q-171 0 -261 93t-55 265l146 680h143l-139 -651q-27 -125 41 -193q67 -67 186 -67zM786 1434q38 0 58 -25t12 -63t-38 -63q-30 -23 -68 -23t-58 23q-18 24 -10 63q8 40 37 64t67 24z
M457 1434q39 0 58 -25t11 -63t-38 -63q-30 -23 -68 -23t-58 23q-18 24 -10 63q8 40 37 64t68 24z" />
    <glyph glyph-name="yacute" unicode="&#xfd;" horiz-adv-x="1253" 
d="M41 -301q210 37 323 163q44 50 60 122l-209 1040h162l160 -860l522 860h153l-647 -1040l-57 -99q-112 -200 -314 -274q-71 -27 -147 -35zM641 1202l240 232h141l-242 -232h-139z" />
    <glyph glyph-name="thorn" unicode="&#xfe;" horiz-adv-x="1230" 
d="M698 913q-87 0 -211 -39l-153 -724q90 -33 215 -33q180 0 302 109.5t162 295.5t-46 288.5t-269 102.5zM736 1036q226 0 353 -130.5t74 -376.5t-229.5 -390.5t-423.5 -144.5q-104 0 -207 18l-117 -549h-145l416 1967h4l2 4h143l-90 -428q117 30 220 30z" />
    <glyph glyph-name="ydieresis" unicode="&#xff;" horiz-adv-x="1253" 
d="M41 -301q210 37 323 163q44 50 60 122l-209 1040h162l160 -860l522 860h153l-647 -1040l-57 -99q-112 -200 -314 -274q-71 -27 -147 -35zM1014 1434q39 0 58 -25t11 -63q-7 -38 -37 -63q-30 -23 -69 -23t-57 24t-11 62q8 40 37 64t68 24zM684 1434q39 0 58 -25
q20 -25 12 -63t-38 -63q-30 -23 -69 -23t-57 24t-10 62q8 40 36 64t68 24z" />
    <glyph glyph-name="dotlessi" unicode="&#x131;" horiz-adv-x="442" 
d="M41 0l217 1024h143l-217 -1024h-143z" />
    <glyph glyph-name="OE" unicode="&#x152;" horiz-adv-x="1880" 
d="M893 1303q-258 0 -435 -161t-234 -426t56.5 -425t362.5 -160h90l250 1172h-90zM606 0q-336 0 -468 202t-66 513t288.5 515t548.5 204h930l-29 -136h-680l-100 -479h617l-29 -133h-617l-116 -551h723l-29 -135h-973z" />
    <glyph glyph-name="oe" unicode="&#x153;" horiz-adv-x="1748" 
d="M1093.5 781.5q-86.5 -78.5 -128.5 -208.5h573q25 125 -32 206t-191 81q-135 0 -221.5 -78.5zM549.5 860q-118.5 0 -214 -100.5t-134.5 -278.5q-53 -267 44 -324t216 -57t216 103t130 274q59 269 -40 326t-217.5 57zM1157 -6q-141 0 -223 58.5t-115 150.5
q-152 -209 -418 -209q-211 0 -297.5 138t-42.5 350t189.5 348.5t357.5 136.5q135 0 214 -56.5t110 -150.5q78 104 183.5 155.5t221.5 51.5q209 0 290 -128t30 -372h-719q-29 -164 38 -261t224 -97q156 0 293 122l61 -84q-174 -153 -397 -153z" />
    <glyph glyph-name="Scaron" unicode="&#x160;" horiz-adv-x="1308" 
d="M841 1440q135 0 241 -47t186 -172l-156 -105l-4 12q-47 86 -122 123q-74 37 -202 37t-222 -60t-111 -149q-30 -133 190 -223q59 -25 113 -47q261 -85 332 -252q30 -70 10 -166q-40 -191 -205 -297q-166 -106 -383 -104q-154 0 -268 57t-199 184l143 103q98 -189 363 -189
q230 0 343 133q34 40 46 95q23 104 -83 187q-69 54 -228 108q-70 26 -140 54q-152 60 -195 176q-24 65 -4 153q60 269 326 358q94 31 229 31zM707 1819l81 -133l142 133h153l-239 -232h-150l-141 232h154z" />
    <glyph glyph-name="scaron" unicode="&#x161;" horiz-adv-x="1026" 
d="M573 913q-93 0 -143.5 -38.5t-60.5 -88.5q-16 -83 35 -121.5t128 -64.5q78 -26 197.5 -77t79.5 -238q-27 -136 -149 -215.5t-259 -79.5t-218 40t-142 132l127 98q78 -143 248 -143q111 0 172.5 43t73.5 97q19 91 -32 131.5t-136 66.5q-84 26 -199 73.5t-75 232.5
q28 134 138 207.5t238 73.5t203 -36.5t131 -128.5l-121 -97v2q-37 68 -90 99.5t-146 31.5zM985 1434l-299 -363h-131l-147 363h108l125 -263l236 263h108z" />
    <glyph glyph-name="Ydieresis" unicode="&#x178;" horiz-adv-x="1273" 
d="M858 1634q39 0 58.5 -24.5t11.5 -63.5t-38 -62.5t-69 -23.5t-57.5 23.5t-10 62.5t37 63.5t67.5 24.5zM528 1634q39 0 58.5 -24.5t11.5 -63.5t-38 -62.5t-68.5 -23.5t-57 23.5t-10.5 62.5t36.5 63.5t67.5 24.5zM268 0l135 645l-362 735h178l293 -594l547 594h174
l-684 -735l-135 -645h-146z" />
    <glyph glyph-name="Zcaron" unicode="&#x17d;" horiz-adv-x="1376" 
d="M276 152h838l-31 -152h-1042l31 152l1028 1130h-744l31 152h948l-30 -150zM575 1819l82 -133l142 133h153l-239 -232h-150l-141 232h153z" />
    <glyph glyph-name="zcaron" unicode="&#x17e;" horiz-adv-x="1044" 
d="M233 137h613l-29 -137h-776l29 137l727 752h-568l29 135h746l-29 -135zM410 1434l82 -134l141 134h153l-239 -232h-150l-141 232h154z" />
    <glyph glyph-name="circumflex" unicode="&#x2c6;" horiz-adv-x="659" 
d="M41 1118l289 316h131l157 -316h-120l-123 215l-211 -215h-123z" />
    <glyph glyph-name="caron" unicode="&#x2c7;" horiz-adv-x="612" 
d="M195 1434l81 -134l142 134h153l-239 -232h-150l-141 232h154z" />
    <glyph glyph-name="breve" unicode="&#x2d8;" horiz-adv-x="509" 
d="M211.5 1309q85.5 0 121.5 36.5t48 86.5h88q-20 -78 -85 -134.5t-163 -56.5t-139 55.5t-27 135.5h90q-19 -123 66.5 -123z" />
    <glyph glyph-name="dotaccent" unicode="&#x2d9;" horiz-adv-x="288" 
d="M164 1430q41 0 62.5 -28t13 -69t-42 -67.5t-74.5 -26.5t-61.5 26.5t-12.5 67.5t41 69t74 28z" />
    <glyph glyph-name="ring" unicode="&#x2da;" horiz-adv-x="530" 
d="M224 1040q-100 0 -141.5 57.5t-23.5 140.5t84 139.5t165 56.5t140 -57.5t24 -140.5t-82.5 -139.5t-165.5 -56.5zM292.5 1366q-63.5 0 -98 -38t-44.5 -90t8 -90t81.5 -38t98.5 37t47 90q10 53 -9.5 91t-83 38z" />
    <glyph glyph-name="ogonek" unicode="&#x2db;" horiz-adv-x="204" 
 />
    <glyph glyph-name="tilde" unicode="&#x2dc;" horiz-adv-x="735" 
d="M41 1341q107 91 197 91q45 0 78.5 -12.5t69.5 -28t69.5 -27.5t65.5 -12t132 51l41 -86q-106 -66 -146 -73t-69 -7q-35 0 -123.5 42t-114.5 42t-39.5 -2t-28.5 -10.5t-35.5 -21.5t-55.5 -34q-20 46 -41 88z" />
    <glyph glyph-name="hungarumlaut" unicode="&#x2dd;" horiz-adv-x="739" 
d="M293 1069l278 363h127l-297 -363h-108zM41 1069l278 363h127l-296 -363h-109z" />
    <glyph glyph-name="endash" unicode="&#x2013;" horiz-adv-x="1048" 
d="M41 420l25 112h942l-25 -112h-942z" />
    <glyph glyph-name="emdash" unicode="&#x2014;" horiz-adv-x="1499" 
d="M41 420l25 112h1392l-24 -112h-1393z" />
    <glyph glyph-name="quoteleft" unicode="&#x2018;" horiz-adv-x="411" 
d="M371 1434l-199 -410h-131l207 410h123z" />
    <glyph glyph-name="quoteright" unicode="&#x2019;" horiz-adv-x="411" 
d="M371 1434l-199 -410h-131l207 410h123z" />
    <glyph glyph-name="quotesinglbase" unicode="&#x201a;" horiz-adv-x="438" 
d="M117 -180h-76l250 385h106z" />
    <glyph glyph-name="quotedblleft" unicode="&#x201c;" horiz-adv-x="671" 
d="M631 1434l-199 -410h-131l207 410h123zM371 1434l-199 -410h-131l207 410h123z" />
    <glyph glyph-name="quotedblright" unicode="&#x201d;" horiz-adv-x="671" 
d="M631 1434l-199 -410h-131l207 410h123zM371 1434l-199 -410h-131l207 410h123z" />
    <glyph glyph-name="quotedblbase" unicode="&#x201e;" horiz-adv-x="675" 
d="M41 -313l217 501h131l-248 -501h-100zM285 -313l219 501h131l-248 -501h-102z" />
    <glyph glyph-name="bullet" unicode="&#x2022;" horiz-adv-x="499" 
d="M289 668q84 0 127 -54.5t24.5 -138.5t-84 -136t-149.5 -52t-125 52t-22.5 136t82 138.5t147.5 54.5z" />
    <glyph glyph-name="ellipsis" unicode="&#x2026;" horiz-adv-x="1232" 
d="M1106 190q41 0 63.5 -27.5t13.5 -68.5t-42 -67.5t-74 -26.5t-62.5 26.5t-13.5 67.5q10 41 42 68.5t73 27.5zM635 190q41 0 63.5 -27.5t13.5 -68.5t-42 -67.5t-74 -26.5t-62.5 26.5t-13.5 67.5q10 41 42 68.5t73 27.5zM164 190q41 0 63.5 -27.5t13.5 -68.5t-42 -67.5
t-74 -26.5t-62.5 26.5t-13.5 67.5q10 41 42 68.5t73 27.5z" />
    <glyph glyph-name="guilsinglleft" unicode="&#x2039;" horiz-adv-x="561" 
d="M250 139l-209 338l352 338h127l-340 -338l197 -338h-127z" />
    <glyph glyph-name="guilsinglright" unicode="&#x203a;" horiz-adv-x="550" 
d="M41 139l319 338l-176 338h117l209 -338l-352 -338h-117z" />
    <glyph glyph-name="fraction" unicode="&#x2044;" horiz-adv-x="937" 
d="M156 0h-115l741 1434h115z" />
    <glyph glyph-name="Euro" unicode="&#x20ac;" horiz-adv-x="1206" 
d="M223 401h-182l27 121h161q2 20 8.5 49t13.5 66t23 78h-165l24 119h186q134 282 282.5 344.5t252.5 62.5t184 -61.5t127 -159.5l-121 -105q-88 197 -231 197q-191 0 -348 -278h362l-24 -119h-391q-33 -89 -43 -193h393l-27 -121h-370q13 -192 95.5 -236t141.5 -44
q155 0 311 182l78 -102q-194 -211 -422 -211q-172 0 -259 117t-87 294z" />
    <glyph glyph-name="trademark" unicode="&#x2122;" horiz-adv-x="1689" 
d="M1282 424l150 696l-416 -559l-182 547l-146 -684h-151l215 1010h131l192 -586l447 586h127l-215 -1010h-152zM424 1298l-186 -878h-154l186 878h-229l29 136h608l-29 -136h-225z" />
    <glyph glyph-name="minus" unicode="&#x2212;" horiz-adv-x="1007" 
d="M41 461l25 112h901l-25 -112h-901z" />
    <glyph glyph-name="percent" horiz-adv-x="1288" 
d="M480 1028q-102 0 -144.5 59.5t-25.5 143.5t86 141.5t170 57.5t142 -57.5t23 -142.5t-83.5 -143.5t-167.5 -58.5zM546.5 1350q-59.5 0 -92 -35t-42.5 -84t7 -83t76.5 -34t92.5 32t43 82t-7.5 86t-77 36zM182 0h-141l1065 1430h141zM746 0q-102 0 -145.5 59.5t-26.5 143.5
t86 141t170 57t142 -57t24 -142t-82.5 -143.5t-167.5 -58.5zM789 322q-81 0 -109 -121q-24 -115 57.5 -115t114.5 33t43 82t-7.5 85t-98.5 36z" />
    </font>
</defs>
</svg>
