<?xml version="1.0" standalone="no"?>
<!DOCTYPE svg PUBLIC "-//W3C//DTD SVG 1.1//EN" "http://www.w3.org/Graphics/SVG/1.1/DTD/svg11.dtd" >
<svg xmlns="http://www.w3.org/2000/svg">
<metadata>
Created by FontPrep 20130207 at Fri May 23 23:10:53 2014
 By Victor
Copyright (c) 2013 by Antonio Rodrigues Jr. All rights reserved.
</metadata>
<defs>
<font id="59ead8d1e124ccfb79f3ace06f43e703" horiz-adv-x='1024' >
  <font-face 
    font-family="London"
    font-weight="400"
    font-stretch="normal"
    units-per-em="2048"
    panose-1="2 0 0 0 0 0 0 0 0 0"
    ascent="1536"
    descent="-512"
    x-height="1038"
    cap-height="1468"
    bbox="-1184 -365.532 2312 1903"
    underline-thickness="102"
    underline-position="-102"
    unicode-range="U+0020-FB02"
  />
<missing-glyph horiz-adv-x="614" 
 />
    <glyph glyph-name=".notdef" horiz-adv-x="614" 
 />
    <glyph glyph-name=".null" horiz-adv-x="0" 
 />
    <glyph glyph-name="nonmarkingreturn" horiz-adv-x="614" 
 />
    <glyph glyph-name="space" unicode=" " horiz-adv-x="614" 
 />
    <glyph glyph-name="space" unicode="&#xa0;" horiz-adv-x="614" 
 />
    <glyph glyph-name="exclam" unicode="!" horiz-adv-x="358" 
d="M37 157.5q0 -51.5 36 -87t87 -35.5t87 35.5t36 87t-36 87.5t-87 36t-87 -36t-36 -87.5zM165 319q63 0 108.5 -47.5t45.5 -115.5t-45.5 -112t-117.5 -44t-114 50t-42 115t51 109.5t114 44.5zM158 1434q-53 0 -90 -42t-31 -89l43 -324h-33l-31 207q-4 33 -9 62.5t-5 63.5
q0 68 50.5 112t99.5 44q78 0 122.5 -48.5t44 -94.5t-20.5 -184t-42.5 -322t-54.5 -364h-35l117 848q0 49 -36 90t-89 41z" />
    <glyph glyph-name="quotedbl" unicode="&#x22;" horiz-adv-x="612" 
d="M436 1432q-39 0 -65.5 -27t-26.5 -66t26.5 -65.5t65.5 -26.5t64.5 26.5t25.5 64.5t-25.5 66t-64.5 28zM438 1208q-51 0 -91 36t-40 94t39.5 93t99.5 35t95.5 -48.5t31.5 -114.5q0 -76 -48 -137.5t-115 -61.5v35q41 -2 74.5 29.5t43.5 78.5q-39 -39 -90 -39zM129 1432
q-39 0 -65.5 -27t-26.5 -66t26.5 -65.5t65.5 -26.5t64.5 26.5t25.5 64.5t-25.5 66t-64.5 28zM131 1208q-51 0 -91 36t-40 94t40 93t100 35t95 -48.5t31 -114.5q0 -76 -48 -137.5t-116 -61.5v35q98 7 119 108q-39 -39 -90 -39z" />
    <glyph glyph-name="numbersign" unicode="#" horiz-adv-x="1271" 
d="M901 977h-393l-162 -549h393zM23 426h282l164 551h-285l13 37h282l115 385h41l-117 -385h395l115 385h39l-115 -385h281l-12 -37h-281l-162 -551h281l-12 -37h-281l-113 -383h-39l113 383h-393l-113 -383h-41l115 383h-285z" />
    <glyph glyph-name="dollar" unicode="$" horiz-adv-x="978" 
d="M0 418h37q13 -203 125 -286t180 -103v-187h-39v160q-131 54 -217 166.5t-86 249.5zM625 1556v-153q305 -143 305 -459h-39v23q0 136 -85 248.5t-220 158.5v182h39zM31 986q0 -118 81.5 -197.5t233.5 -161.5q135 -78 268.5 -156t270.5 -158q39 118 -24 231t-171 175
q-279 154 -649 373q-10 -48 -10 -106zM342 1556v-172q-94 -15 -175 -90t-114 -166l656 -376q170 -85 212 -247t-41.5 -313t-256.5 -202v-148h-37v176q208 61 288 258q-37 18 -80.5 44t-84.5 50.5t-74 45t-85 50.5t-140 82t-159 88q-121 61 -189 156.5t-68 219.5t87 241.5
t222 159.5v143h39z" />
    <glyph glyph-name="ampersand" unicode="&#x26;" horiz-adv-x="1081" 
d="M74 1126q0 -96 60.5 -172.5t150.5 -107.5v569q-101 -34 -156 -113.5t-55 -175.5zM39 436q0 -116 72.5 -222.5t173.5 -139.5v723q-168 -70 -207 -186.5t-39 -174.5zM895 805h-244v-731q139 52 199.5 184.5t52.5 309.5t-8 237zM1004 943q0 46 -30 82t-77 36v37
q63 0 103 -46.5t40 -95.5t-26.5 -90t-79.5 -55q0 -121 2 -238.5t-19.5 -219t-80 -183.5t-166.5 -127t-207 -45q-194 0 -327.5 137.5t-133.5 308.5v17q8 117 72.5 211t169.5 149q-98 43 -152.5 128t-54.5 166q0 148 95 249.5t230 101.5q80 0 145.5 -50t104.5 -120v170h39
v-305h-39q-12 109 -82 187.5t-176 78.5h-16t-16 -2v-581h84v-39h-84v-746q145 -47 290 0l2 785l281 -2q35 0 72 27.5t37 73.5z" />
    <glyph glyph-name="quotesingle" unicode="'" horiz-adv-x="307" 
d="M129 1432q-39 0 -65.5 -27t-26.5 -66t26.5 -65.5t65.5 -26.5t64.5 26.5t25.5 64.5t-25.5 66t-64.5 28zM131 1208q-51 0 -91 36t-40 94t40 93t100 35t95 -48.5t31 -114.5q0 -76 -48 -137.5t-116 -61.5v35q51 12 80 36.5t39 71.5q-39 -39 -90 -39z" />
    <glyph glyph-name="parenleft" unicode="(" horiz-adv-x="323" 
d="M160 1346q-123 -286 -123 -611t123 -598v1209zM199 57l86 -133v-57q-160 195 -222.5 422t-62.5 481q11 480 134.5 643.5t150.5 200.5v-58q-68 -103 -86 -135v-1364z" />
    <glyph glyph-name="parenright" unicode=")" horiz-adv-x="323" 
d="M125 137q123 273 123 598t-123 611v-1209zM86 1421q-29 51 -86 135v58q27 -37 53.5 -72t48.5 -74q174 -286 183 -698q0 -254 -62.5 -481.5t-222.5 -421.5v57l86 133v1364z" />
    <glyph glyph-name="asterisk" unicode="*" horiz-adv-x="473" 
d="M201 1468h37v-206l182 100l16 -33l-180 -104l184 -107l-20 -33l-182 107v-213h-37v213q-121 -67 -185 -107l-16 33l182 107l-182 104l16 33l185 -100v206z" />
    <glyph glyph-name="plus" unicode="+" horiz-adv-x="528" 
d="M264 985v-225h225v-39h-225v-225h-39v225h-225v39h225v225h39z" />
    <glyph glyph-name="comma" unicode="," horiz-adv-x="307" 
d="M129 223q-39 0 -65.5 -26.5t-26.5 -65.5t26.5 -65.5t65.5 -26.5t64.5 26.5t25.5 64.5t-25.5 65.5t-64.5 27.5zM131 0q-51 0 -91 36t-40 94t40 93t100 35t95 -49t31 -115q0 -74 -47.5 -136t-116.5 -62v34q51 12 80 37t39 72q-39 -39 -90 -39z" />
    <glyph glyph-name="hyphen" unicode="-" horiz-adv-x="528" 
d="M0 713v37h489v-39h-487q-2 0 -2 2z" />
    <glyph glyph-name="period" unicode="." horiz-adv-x="296" 
d="M221 129q0 39 -27.5 65.5t-66.5 26.5t-64.5 -27.5t-25.5 -66.5t26.5 -64.5t64.5 -25.5t65.5 26.5t27.5 65.5zM0 128q0 44 31 87t112 43q43 0 79 -39t36 -94t-35 -90t-97 -35t-94 42t-32 86z" />
    <glyph glyph-name="slash" unicode="/" horiz-adv-x="303" 
d="M31 0h-31l225 1466h37z" />
    <glyph glyph-name="zero" unicode="0" horiz-adv-x="974" 
d="M895 795q0 205 -51.5 346t-188.5 237l-4 4v-1294l8 4q213 136 224.5 374.5t11.5 328.5zM283 88v1292q-222 -149 -233 -375.5t-11 -336.5q4 -70 10 -149t46 -214.5t188 -216.5zM460 1430q-71 0 -138 -29v-1333q63 -31 149 -31t141 31v1335q-81 27 -152 27zM492 1468
q72 0 148.5 -39.5t162 -136.5t107.5 -254q22 -156 22 -292q0 -268 -52.5 -429.5t-205.5 -257.5q-89 -59 -200 -59q-194 0 -317 148.5t-141 316.5q-19 169 -17 257q1 87 6 185.5t30.5 188.5t77 170t145.5 141t234 61z" />
    <glyph glyph-name="one" unicode="1" horiz-adv-x="647" 
d="M610 39v-39h-182v1468h39l2 -1429h141zM145 37v1393h-145v38h184v-1468h-184v37h145z" />
    <glyph glyph-name="two" unicode="2" horiz-adv-x="991" 
d="M913 39v389h39v-428h-622l508 768q75 118 75 248t-63 215l-811 -1231h-45q158 242 275.5 419t204.5 309t202.5 307.5t148.5 230.5q-63 82 -155 124t-193 42q-162 -8 -281 -113.5t-137 -278.5h-39q19 199 154 313.5t318 114.5q121 0 208.5 -50t169.5 -149t82 -274
q-7 -122 -79 -241t-126.5 -196t-109.5 -165l-234 -354h510z" />
    <glyph glyph-name="three" unicode="3" horiz-adv-x="976" 
d="M860 1110q0 141 -76.5 205.5t-130.5 81.5v-568q96 39 151.5 116t55.5 165zM829 647q-70 98 -176 133v-704q89 28 167.5 137.5t78.5 222.5t-70 211zM456 37q81 0 154 22l4 2v723h-196v39h196v588q-74 23 -144 23q-150 0 -270 -93t-120 -239h-39q0 165 133.5 265.5
t310.5 100.5q176 0 294 -100.5t118 -248.5q0 -149 -90 -228.5t-115 -85.5q117 -33 180.5 -144t64.5 -214q2 -189 -137.5 -319t-325.5 -130q-185 0 -320.5 110.5t-151.5 292.5l-2 23h39q4 -157 92 -240.5t166 -115t159 -31.5z" />
    <glyph glyph-name="four" unicode="4" horiz-adv-x="1073" 
d="M885 1468h39v-976h108v-39h-108v-414h108v-39h-147v1468zM602 492v901l-545 -901h545zM494 0v39h108v414h-612l612 1015h39v-1468h-147z" />
    <glyph glyph-name="five" unicode="5" horiz-adv-x="1015" 
d="M653 82q264 101 276 335t-80 367t-196 168v-870zM897 1102v328h-483l-39 -386v-2q172 16 298 -47t200.5 -169.5t95 -237.5t-17.5 -252t-137 -212t-263 -118q-86 -6 -142 -4q-57 2 -136.5 36t-176 122t-96.5 266h39q16 -263 270 -360q74 -29 151 -29t154 24v906
q-66 31 -133 35t-144 1q-168 -7 -298 -94q5 85 16.5 187t38.5 372h39l-49 -489q109 55 250 61l45 428h555v-366h-37z" />
    <glyph glyph-name="six" unicode="6" horiz-adv-x="970" 
d="M893 440q0 112 -67.5 223.5t-174.5 147.5v-743q104 59 173 159.5t69 212.5zM612 823q-161 33 -286 -16v-744q132 -49 286 -8v768zM39 730q0 -225 48.5 -390t197.5 -254v1292q-223 -139 -234.5 -350t-11.5 -298zM760 1339q125 -125 149 -299h-35l-8 29q-65 238 -190 298
t-205 60t-145 -26v-553q174 57 333 -4.5t215 -182.5t56 -219q0 -191 -137.5 -316.5t-315.5 -125.5t-299 121q-131 121 -156.5 289t-23.5 249t2 139q0 360 146.5 513t317.5 153t296 -125z" />
    <glyph glyph-name="seven" unicode="7" horiz-adv-x="972" 
d="M37 1432v-408h-37v444h932l-582 -1468h-45l567 1432h-256l-573 -1432h-45l567 1432h-528z" />
    <glyph glyph-name="eight" unicode="8" horiz-adv-x="970" 
d="M285 849v544q-46 0 -146 -109q-63 -80 -63 -173t59.5 -168t145.5 -114q4 0 4 20zM651 829q45 0 62 17l78 78q65 76 65 179t-58.5 177t-144.5 113q-2 -72 -2 -89v-475zM893 430q0 117 -68.5 210t-171.5 140q-2 -90 -2 -112v-592l6 2q113 55 174.5 145t61.5 207zM285 140
v642q-55 0 -167 -124q-28 -30 -52.5 -87t-28.5 -122q0 -129 65.5 -226.5t180.5 -146.5l1 26q1 27 1 38zM461 1432q-77 0 -139 -29v-1342q55 -24 131 -24q75 0 159 24v1348q-74 23 -151 23zM39 1114q0 74 40 144.5t135.5 142.5t259.5 72t292.5 -99.5t128.5 -236t-59.5 -211
t-145.5 -121.5q168 -94 205 -200.5t37 -155.5q0 -226 -150 -337.5t-346 -111.5q-183 13 -309.5 135.5t-126.5 286.5t84 255t160 128q-133 77 -169 156t-36 153z" />
    <glyph glyph-name="nine" unicode="9" horiz-adv-x="970" 
d="M37 1024q0 -113 65.5 -220.5t169.5 -148.5l7 -2v744q-104 -59 -173 -159.5t-69 -213.5zM453 629q79 0 151 28v744q-131 49 -287 8v-768q57 -12 136 -12zM845 340.5q46 158.5 46 389.5t-33 341.5t-82 184t-131 122.5v-1292q154 96 200 254.5zM0 1022q0 190 137 316
t315 126q179 0 300 -121q133 -122 156.5 -289t22.5 -248.5t-1 -139.5q0 -361 -148 -513.5t-312 -152.5q-175 0 -299 124t-151 300h35l8 -29q40 -145 143 -251.5t255 -106.5q78 0 143 26v553q-175 -58 -334 4.5t-214.5 183t-55.5 218.5z" />
    <glyph glyph-name="colon" unicode=":" horiz-adv-x="303" 
d="M221 620.5q0 38.5 -27.5 65.5t-65.5 27t-64.5 -27.5t-27.5 -65.5t26.5 -65t65.5 -27t65.5 27t27.5 65.5zM141 492h-26q-76 12 -104.5 81.5t18.5 128.5q23 31 61.5 42.5t76.5 -0.5t62.5 -41t28.5 -76t-29.5 -88t-87.5 -47zM221 129q0 39 -27.5 65.5t-66.5 26.5
t-64.5 -27.5t-25.5 -66.5t26.5 -64.5t64.5 -25.5t65.5 26.5t27.5 65.5zM0 128q0 44 31 87t112 43q43 0 79 -40t36 -94t-42 -89t-101 -35q-53 8 -84 46t-31 82z" />
    <glyph glyph-name="semicolon" unicode=";" horiz-adv-x="294" 
d="M129 223q-39 0 -65.5 -26.5t-26.5 -65.5t26.5 -65.5t65.5 -26.5t65.5 26.5t26.5 64.5t-26.5 65.5t-65.5 27.5zM131 0q-51 0 -91 36t-40 94t40 93t95 35t96 -49q35 -51 35 -101q0 -88 -47.5 -150t-116.5 -62v34q51 10 80 35t39 74q-39 -39 -90 -39zM221 620.5
q0 38.5 -27.5 65.5t-66.5 27t-64.5 -28t-25.5 -67t26.5 -64.5t63.5 -25.5t65.5 27t28.5 65.5zM0 619q0 43 31 87t112 44q43 0 79 -40t36 -94t-42 -89t-101 -35q-53 8 -84 45.5t-31 81.5z" />
    <glyph glyph-name="less" unicode="&#x3c;" horiz-adv-x="403" 
d="M367 399v-45l-367 344v43l367 334v-47l-328 -309z" />
    <glyph glyph-name="equal" unicode="=" horiz-adv-x="528" 
d="M0 651h489v-39h-489v39zM489 834h-489v38h489v-38z" />
    <glyph glyph-name="greater" unicode="&#x3e;" horiz-adv-x="405" 
d="M328 719l-328 309v47l367 -334v-43l-367 -344v45z" />
    <glyph glyph-name="question" unicode="?" horiz-adv-x="972" 
d="M491.5 37q51.5 0 87 36t35.5 87t-35.5 87t-87 36t-87 -36t-35.5 -87t35.5 -87t87 -36zM330 162q0 62 46 109.5t112 47.5t114.5 -45.5t48.5 -117.5t-52 -114t-122 -42q-66 4 -106.5 52t-40.5 110zM651 612q99 44 171.5 148t72.5 250q-5 200 -104 278t-140 96v-772z
M481 532q-46 0 -112 11v-178h-39v227q66 -23 138 -23t144 25v807q-162 56 -318 -12t-205.5 -193t-49.5 -221h-39q0 219 138 353t324 134t320 -123t150 -301l2 -41l-2 -36q-8 -126 -85.5 -234.5t-191.5 -155.5l-4 -206h-39v190q-85 -23 -131 -23z" />
    <glyph glyph-name="at" unicode="@" horiz-adv-x="1513" 
d="M745 0q199 0 345 88v-53q-156 -72 -375 -72q-135 6 -262 59.5t-225.5 148.5t-158 230t-59.5 289t53.5 284t149.5 231.5t230.5 163t282.5 61.5t266 -46q223 -86 354 -272.5t131 -417.5q0 -154 -59 -297t-178 -143q-65 0 -107.5 42t-42.5 116v772h36v-789q4 -45 37 -74.5
t79 -29.5q84 0 123 86t57 176t18 143q0 141 -55.5 267.5t-150.5 221.5t-223 151.5t-280 56.5t-278.5 -58.5t-218 -155t-141.5 -223.5t-50 -267t58.5 -266t155.5 -220t224 -148.5t264 -54.5zM674 1180q113 0 198 -64v68h37v-1006h-37v64q-59 -42 -118.5 -53t-87.5 -11
q-185 0 -314 149t-129 347q0 199 121 352.5t330 153.5zM434 1061q-6 0 -29 -22t-57 -69t-62 -122.5t-28 -175.5t45 -205t131 -168v762zM672.5 1145q-109.5 0 -199.5 -58v-808q91 -60 194 -60t201 72q4 4 4 12v772q-90 70 -199.5 70z" />
    <glyph glyph-name="A" unicode="A" horiz-adv-x="1480" 
d="M1442 39v-39h-182l-426 1468h38l416 -1429h154zM588 1397q0 -2 -11.5 -41t-30 -102.5t-42 -144.5t-48 -166t-48 -166t-42 -143.5t-29.5 -102.5l-11 -39h526zM850 39h133l-121 414h-549l-118 -414h145v-39h-340v39h156l401 1393h-131v36h182l426 -1468h-184v39z" />
    <glyph glyph-name="B" unicode="B" horiz-adv-x="1275" 
d="M145 39v1393h-145v36h184v-1468h-184v39h145zM1093 1289q-68 93 -173 126v-645q103 22 172 121t69 202t-68 196zM1119.5 585.5q-76.5 82.5 -199.5 123.5v-662q118 19 197 115.5t79 218.5t-76.5 204.5zM614 717v37h116q116 0 151 6l-2 667q-23 5 -74 5h-338l2 -1393h217
l195 2v674l-83 1q-82 1 -184 1zM430 0v1468h410q169 0 264.5 -124t94.5 -256t-73.5 -219t-173.5 -128q127 -43 205 -136t78 -237t-111.5 -256t-259.5 -112h-434z" />
    <glyph glyph-name="C" unicode="C" horiz-adv-x="1398" 
d="M37 725q0 -174 72.5 -326.5t207.5 -263.5v1188l-6 -4q-133 -111 -203.5 -265.5t-70.5 -328.5zM0 737q0 156 56.5 294t155.5 242.5t233 165t292 60.5q190 -10 339 -109.5t243 -263.5v342h39v-432h-39q-102 215 -259 320.5t-355 105.5t-349 -112v-1241q165 -111 361 -111
q195 0 357 117t247 309h43q-135 -326 -344 -395.5t-340 -67.5t-258 63.5t-274.5 224.5t-147.5 488z" />
    <glyph glyph-name="D" unicode="D" horiz-adv-x="1316" 
d="M145 39v1393h-145v36h184v-1468h-184v39h145zM956 172q273 205 273 583q0 156 -76 306.5t-197 249.5v-1139zM467 1432v-1393q133 -4 241.5 15.5t209.5 88.5v1190q-134 88 -263 93.5t-188 5.5zM430 1468q125 0 231.5 -10t250.5 -69t276 -304q86 -185 86 -344t-53.5 -291.5
t-147.5 -231.5t-220 -158.5t-269 -59.5h-154v1468z" />
    <glyph glyph-name="E" unicode="E" horiz-adv-x="1239" 
d="M145 39v1393h-145v36h184v-1468h-184v39h145zM430 1468h770v-428h-37v390h-696v-674h414v223h39v-487h-39v223h-414v-674h696v389h37v-430h-770v1468z" />
    <glyph glyph-name="F" unicode="F" horiz-adv-x="1239" 
d="M145 39v1393h-145v36h184v-1468h-184v39h145zM430 0v1468h770v-428h-37v390h-696v-674h414v223h39v-487h-39v223h-414v-674h147v-41h-184z" />
    <glyph glyph-name="G" unicode="G" horiz-adv-x="1546" 
d="M37 725q0 -174 72.5 -326.5t207.5 -263.5v1188l-6 -4q-133 -111 -203.5 -265.5t-70.5 -328.5zM0 737q0 156 56.5 294t155.5 242.5t233 165t292 60.5q190 -10 339 -109.5t243 -263.5v342h39v-432h-39q-102 215 -259 320.5t-355 105.5t-349 -112v-1241q165 -111 350 -111
q184 0 334 96v621h-145v37h182v-682q-168 -111 -383 -111q-145 4 -272 65.5t-274.5 224.5t-147.5 488zM1360 715v-715h-37v752h182v-37h-145z" />
    <glyph glyph-name="H" unicode="H" horiz-adv-x="1507" 
d="M145 39v1393h-145v36h184v-1468h-184v39h145zM1468 1432h-145v-1393h145v-39h-184v1468h184v-36zM1040 1468v-1468h-184v39h145v676h-534v-676h145v-39h-182v1468h182v-36h-145v-676h534v676h-145v36h184z" />
    <glyph glyph-name="I" unicode="I" horiz-adv-x="655" 
d="M145 39v1393h-145v36h184v-1468h-184v39h145zM467 1432v-1393h145v-39h-184v1468h184v-36h-145z" />
    <glyph glyph-name="J" unicode="J" horiz-adv-x="1243" 
d="M1055 477q0 -198 -148.5 -354t-384.5 -160q-203 -4 -362.5 133t-159.5 363h41q-6 -82 26.5 -164t97 -147.5t155 -106.5t185.5 -41t154.5 18.5t75.5 34.5v1379h-145v36h184v-1402q168 98 206 220t38 183v999h184v-36h-145v-30l-1 -126z" />
    <glyph glyph-name="K" unicode="K" horiz-adv-x="1468" 
d="M145 39v1393h-145v36h184v-1468h-184v39h145zM612 1432h-145v-639l676 639h-131v36h329v-36h-143l-522 -494l600 -899h154v-39h-173l-608 911l-182 -170l496 -741h-193v39h121l-424 637v-637h145v-39h-182v1468h182v-36z" />
    <glyph glyph-name="L" unicode="L" horiz-adv-x="1239" 
d="M145 39v1393h-145v36h184v-1468h-184v39h145zM430 0v1468h182v-36h-145v-1393h694v391h39v-430h-770z" />
    <glyph glyph-name="M" unicode="M" horiz-adv-x="1667" 
d="M1628 1468v-36h-145v-1393h145v-39h-182v1468h182zM184 39h146v-39h-330v39h145v1393h-145v36h174l500 -1409l129 373l-367 1036h41l346 -976l338 976h39v-1468h-176v39h139v1311l-469 -1350h-39l-471 1323v-1284z" />
    <glyph glyph-name="N" unicode="N" horiz-adv-x="1384" 
d="M184 39h146v-39h-330v39h145v1393h-145v36h492l671 -1380v1344h-145v36h328v-36h-146v-1432h-37l-696 1432h-272l696 -1432h-41l-666 1368v-1329z" />
    <glyph glyph-name="O" unicode="O" horiz-adv-x="1464" 
d="M317 1323q-134 -101 -205 -259.5t-75 -320.5q0 -176 69.5 -333.5t210.5 -274.5v1188zM1382 723q0 359 -282 604v-1194q207 162 244.5 334t37.5 256zM714 -2q190 0 347 111v1130l2 111q-147 110 -344 110t-359 -106l-4 -4v-1241q168 -111 358 -111zM728 1499
q159 0 287 -70.5t218 -181t139 -247t49 -278.5t-53 -281.5t-147.5 -247t-225.5 -171t-287 -63.5t-286.5 65.5t-225 174t-146.5 248t-52 289t54 287.5t151.5 244.5t231.5 169t293 62.5z" />
    <glyph glyph-name="P" unicode="P" horiz-adv-x="1239" 
d="M145 39v1393h-145v36h184v-1468h-184v39h145zM920 770q230 51 241 320q-2 117 -64.5 199.5t-176.5 125.5v-645zM614 754h118q118 0 149 6l-2 667l-60 7l-352 -2v-1393h145v-39h-182v1468h436q124 -8 227 -116.5t103 -265.5t-107 -263t-262 -106h-213v37z" />
    <glyph glyph-name="Q" unicode="Q" horiz-adv-x="1464" 
d="M37 722q0 -167 70.5 -318.5t209.5 -266.5v1188q-147 -119 -213.5 -277.5t-66.5 -325.5zM1382 735q0 167 -75.5 328t-206.5 264v-1194q282 232 282 602zM685 -182q-46 0 -53 -4l-93 -45q65 207 239 233q94 14 155.5 39t127.5 65v1248q-175 108 -343 108t-327 -88l-35 -24
v-1239q72 -51 146 -76v-41q-112 37 -206.5 111.5t-195 223.5t-100.5 400q0 154 54.5 294t150.5 245.5t227 168t284 62.5t281.5 -64.5t223 -170t148.5 -242t54 -272.5q0 -260 -133 -463.5t-352 -286.5q47 -8 106.5 -44t94.5 -50.5t98 -14.5t145 48v-41q-43 -27 -76.5 -36
t-83.5 -9t-91 18t-115.5 59t-153.5 41q-179 0 -250 -121l-4 -6q88 29 151.5 -2.5t140 -85t138.5 -53.5v-39q-57 2 -93 23.5t-76 47.5t-89 54.5t-95 28.5z" />
    <glyph glyph-name="R" unicode="R" horiz-adv-x="1433" 
d="M145 39v1393h-145v36h184v-1468h-184v39h145zM612 39v-39h-182v1468h408q151 0 256.5 -117.5t105.5 -244.5q0 -126 -66.5 -228.5t-181.5 -136.5q128 -23 215.5 -130t75.5 -249v-311q59 23 100 74t41 125h39l-2 -25q-8 -95 -79 -160t-171 -65t-176.5 69t-76.5 177v463
q-46 8 -84 8h-220v37q229 0 258 5t46 11l2 645q-44 19 -164 19l-289 -2l2 -1393h143zM1098.5 1284.5q-62.5 79.5 -142.5 116.5l-2 -619q79 29 143 115t64 197t-62.5 190.5zM1200 41v227q5 172 -26 238.5t-81.5 109.5t-136.5 78v-481q14 -86 78 -131t133 -45z" />
    <glyph glyph-name="S" unicode="S" horiz-adv-x="1157" 
d="M0 487h37q9 -196 141 -340.5t371 -144.5q186 0 332.5 91.5t193.5 262.5l-790 387q-113 53 -190 141t-77 204t54.5 191t132.5 125t164.5 74.5t154.5 24.5q158 0 300 -71t208 -215v247h37v-426h-37q-4 178 -138.5 302t-362.5 124t-323 -95t-128 -165l749 -364
q129 -63 210 -168t83 -252q-15 -207 -188 -333t-377 -126q-228 4 -392.5 150.5t-164.5 375.5zM55 1092q0 -94 54.5 -166t132.5 -119l841 -414q2 10 2 13v26q0 143 -89 236.5t-242 165.5l-686 335q-13 -37 -13 -77z" />
    <glyph glyph-name="T" unicode="T" horiz-adv-x="1130" 
d="M670 0v1468h422v-428h-37v392h-346v-1393h145v-39h-184zM426 0h-184v39h145v1393h-348v-392h-39v428h426v-1468z" />
    <glyph glyph-name="U" unicode="U" horiz-adv-x="1388" 
d="M1348 1468v-36h-146v-920q0 -186 -77.5 -309t-195.5 -183.5t-255 -60.5t-255 60.5t-196 180t-78 298.5v934h-145v36h184v-991q18 -278 244 -411v1402h184v-36h-145v-1387q51 -20 96 -33.5t131 -11.5t173 39t192.5 141t105.5 320v932h-147v36h330z" />
    <glyph glyph-name="V" unicode="V" horiz-adv-x="1384" 
d="M621 1468v-36h-132l334 -940l326 940h-131v36h328v-36h-156l-496 -1432h-39l-508 1432h-147v36h174l500 -1407l129 371l-367 1036h185z" />
    <glyph glyph-name="W" unicode="W" horiz-adv-x="1988" 
d="M1223 1468v-36h-129l331 -940l326 940h-131v36h328v-36h-154l-498 -1432h-39l-284 805l-279 -805h-39l-508 1432h-147v36h174l500 -1407l129 371l-367 1036h182v-36h-129l334 -943l129 371l-215 608h41l498 -1407l129 371l-367 1036h185z" />
    <glyph glyph-name="X" unicode="X" horiz-adv-x="1400" 
d="M655 1468v-36h-123l271 -562l368 562h-139v36h330v-36h-148l-395 -594l389 -799h154v-39h-178l-713 1468h184zM729 0v39h123l-297 612l-367 -612h142v-39h-330v39h143l389 657l-354 736h-162v36h185l712 -1468h-184z" />
    <glyph glyph-name="Y" unicode="Y" horiz-adv-x="1380" 
d="M582 0h-185v39h146v663l-396 730h-147v36h170l412 -761v-707zM635 1468v-36h-123l332 -613l313 613h-139v36h328v-36h-148l-334 -654v-739h146v-39h-185v778l-381 690h191z" />
    <glyph glyph-name="Z" unicode="Z" horiz-adv-x="1130" 
d="M39 1432v-394h-39v430h1112l-731 -1429h674v389h39v-428h-775l730 1430h-275l-731 -1430h-43l733 1432h-694z" />
    <glyph glyph-name="bracketleft" unicode="[" horiz-adv-x="223" 
d="M184 -82v-39h-184v1714h184v-37h-145v-1638h145z" />
    <glyph glyph-name="backslash" unicode="\" horiz-adv-x="303" 
d="M0 1466h37l225 -1466h-31z" />
    <glyph glyph-name="bracketright" unicode="]" horiz-adv-x="225" 
d="M145 -82v1638h-145v37h184v-1714h-184v39h145z" />
    <glyph glyph-name="asciicircum" unicode="^" horiz-adv-x="768" 
d="M420 1194h-64l-147 106l-148 -106h-67l368 264l367 -264h-63l-304 217l-122 -88z" />
    <glyph glyph-name="underscore" unicode="_" horiz-adv-x="712" 
d="M0 0h674v-39h-674v39z" />
    <glyph glyph-name="grave" unicode="`" horiz-adv-x="524" 
d="M43 1253h281q-7 4 -58 33t-116 64t-87 48l-20 11v-156zM4 1214v263l467 -263h-467z" />
    <glyph glyph-name="a" unicode="a" horiz-adv-x="1062" 
d="M39 301q0 -84 51 -148.5t123 -93.5q2 -2 4 -2h4v500q-86 -33 -134 -102.5t-48 -153.5zM672 37v508q-82 49 -208 49t-204 -25v-524q27 -8 68 -8h344zM196.5 963.5q131.5 74.5 296.5 74.5t302 -91t137 -242v-555q0 -43 31.5 -78t74.5 -35v-37q-66 8 -105.5 52t-39.5 102
v555q0 72 -45 138t-133 103l-4 2l2 -952h-385q-123 0 -225.5 82t-102.5 203v43q11 142 135.5 223.5t283.5 81.5t253 -47v385q-248 75 -407.5 -15t-182.5 -202h-39q22 135 153.5 209.5z" />
    <glyph glyph-name="b" unicode="b" horiz-adv-x="1081" 
d="M823 150q115 89 146.5 197t34.5 159q0 129 -51.5 226t-129.5 157v-739zM0 39h102v1395h-102v34h145v-1468h-145v39zM463 39q97 0 162.5 14.5t154.5 65.5v803q-95 51 -168 64t-239 13v-960h90zM330 0v1468h39v-430q238 0 364 -49.5t232 -200.5q75 -108 75 -266
q0 -205 -154.5 -363.5t-398.5 -158.5h-157z" />
    <glyph glyph-name="c" unicode="c" horiz-adv-x="1028" 
d="M37 484.5q0 -90.5 54.5 -188.5t129.5 -153v752q-123 -90 -153.5 -205t-30.5 -205.5zM111.5 190.5q-113.5 108.5 -113.5 325.5q0 216 152 370t372 154q129 0 245 -60t187 -175v233h39v-303h-41q-61 123 -178 196t-250 73q-74 0 -146.5 -20.5t-117.5 -57.5v-809
q120 -80 252 -80t252.5 67.5t189.5 200.5h39q-152 -305 -481 -305q-100 2 -193.5 42t-207 148.5z" />
    <glyph glyph-name="d" unicode="d" horiz-adv-x="1075" 
d="M1040 0h-145v1468h39v-1429h106v-39zM221 893q-72 -53 -126 -146.5t-58 -214.5q0 -129 53 -227t131 -158v746zM672 39v960h-100q-101 0 -200 -33t-112 -51v-798q121 -70 199 -74t119 -4h94zM518 0q-216 0 -367 160.5t-151 361.5q0 145 66 249q66 105 136 155.5t166 81
t304 30.5v396h-107v34h146v-1468h-193z" />
    <glyph glyph-name="e" unicode="e" 
d="M821 539h183q-19 219 -183 358v-358zM221 895q-198 -161 -182 -408q16 -217 182 -344v752zM782 539v383q-123 76 -273.5 74t-248.5 -74v-383h522zM260 500v-383q189 -120 389 -62t305 252h39q-106 -217 -327 -284q-221 -68 -427 62t-235 378q-8 60 2 131
q23 145 97.5 243.5t178 149.5t221.5 53t224.5 -42t188 -135t114.5 -230q12 -44 12 -133h-782z" />
    <glyph glyph-name="f" unicode="f" horiz-adv-x="716" 
d="M328 0v1423q-92 -27 -137.5 -93t-45.5 -138v-1192h-145v39h102v960h-102v39h102v166q7 117 93 187.5t179 70.5t185 -50.5t115 -264.5h-37q-14 181 -93 228.5t-134 54.5h-39v-392h102v-39h-102v-960h102v-39h-145z" />
    <glyph glyph-name="g" unicode="g" horiz-adv-x="974" 
d="M895 707q0 113 -74.5 169t-109.5 74v-491q74 37 129 99.5t55 148.5zM45 698q0 -74 52 -138t120 -99v477q-72 -27 -122 -96.5t-50 -143.5zM45 221q0 -78 66.5 -130t148.5 -52h629q-17 72 -77 127t-132 55h-635zM457.5 999q-118.5 0 -197.5 -34v-523q84 -32 207 -32t201 30
v529q-92 30 -210.5 30zM45 260h633q107 -8 180.5 -87.5t73.5 -186.5q0 -106 -72 -183.5t-178 -85.5h-215v39h205q86 8 151.5 68.5t65.5 175.5h-631q-106 0 -181 67.5t-75 157.5q0 89 50 147.5t110 78.5q-160 107 -160 247t131.5 236t304.5 104q123 0 230 -32v65
q0 115 57 132.5t80 17.5v-39q-81 0 -87.5 -52.5t-6.5 -76.5v-62q102 -47 162.5 -126t60.5 -175q-11 -157 -157 -240t-300 -83t-266 57h-8q-58 -12 -108 -60t-50 -104z" />
    <glyph glyph-name="h" unicode="h" horiz-adv-x="1185" 
d="M106 39v1391h-106v38h145v-1468h-145v39h106zM569 1040q178 0 324.5 -91.5t146.5 -229.5v-680h107v-39h-146v737q-5 90 -78 144.5t-104 68.5v-950h-145v39h106v928q-98 37 -206 37t-205 -39v-926h104v-39h-143v1468h39v-462q113 34 200 34z" />
    <glyph glyph-name="i" unicode="i" horiz-adv-x="516" 
d="M102 39v960h-102v39h145v-1038h-145v39h102zM328 1038h39v-999h106v-39h-145v1038zM348 1322q0 46 -32.5 78t-78.5 32t-78 -33t-32 -79t31.5 -79t79 -33t79 34t31.5 80zM342.5 1422q42.5 -46 42.5 -104t-44 -102.5t-105 -44.5t-104.5 44.5t-43.5 108.5t46.5 104t105.5 40
q60 0 102.5 -46z" />
    <glyph glyph-name="j" unicode="j" horiz-adv-x="610" 
d="M549 1322q0 46 -33 78t-79 32t-77.5 -33t-31.5 -79t31.5 -79t78.5 -33t79 34t32 80zM542.5 1422.5q43.5 -45.5 43.5 -104.5q0 -58 -44 -102.5t-106 -44.5t-104.5 44.5t-42.5 108.5t46 104t105 40t102.5 -45.5zM309 999h-106v39h147v-1276q79 24 129.5 89t50.5 149v1038
h39v-1054q-7 -122 -96.5 -194.5t-190.5 -72.5q-100 0 -191 78t-91 205h39q4 -113 76.5 -178.5t171.5 -69.5l22 2v1245z" />
    <glyph glyph-name="k" unicode="k" horiz-adv-x="1185" 
d="M0 39h104v1391h-104v38h145v-1468h-145v39zM330 1468h39v-880l508 413h-82v37h254v-37h-113l-393 -327l489 -635h115v-39h-135l-502 653l-141 -114q168 -222 274.5 -359t136.5 -180h-172v39h97l-336 436v-436h106v-39h-145v1468z" />
    <glyph glyph-name="l" unicode="l" horiz-adv-x="514" 
d="M102 39v1391h-102v38h145v-1468h-145v39h102zM328 1468h43v-1429h102v-39h-145v1468z" />
    <glyph glyph-name="m" unicode="m" horiz-adv-x="1857" 
d="M106 39v960h-106v39h145v-1038h-145v39h106zM367 39h106v-39h-143v1038h37v-34q104 35 208 34q190 0 336 -100q170 100 340 100t316.5 -82.5t146.5 -244.5v-672h107v-39h-146v719q0 69 -58.5 137.5t-123.5 93.5v-950h-145v39h106v926q-110 36 -207 36q-174 0 -299 -83
l-6 -5q98 -89 98 -196v-678h107v-39h-146v719q0 121 -82.5 172.5t-99.5 58.5v-950h-145v39h106v928q-100 34 -205.5 34t-207.5 -36v-926z" />
    <glyph glyph-name="n" unicode="n" horiz-adv-x="1183" 
d="M106 39v960h-106v39h145v-1038h-145v39h106zM588 1001q-118 0 -219 -36v-926h104v-39h-143v1040h39v-34q111 34 193 34t160.5 -19.5t149 -59t119.5 -102t49 -148.5v-672h107v-39h-146v721q0 105 -75.5 159t-106.5 70v-950h-145v39h106v926q-74 36 -192 36z" />
    <glyph glyph-name="o" unicode="o" horiz-adv-x="1081" 
d="M1004 512q0 115 -60.5 230.5t-124.5 152.5v-754q76 57 130.5 156.5t54.5 214.5zM217 889q-174 -136 -174 -371t174 -371v742zM260 115q113 -76 256 -76t264 76v807q-111 72 -237 77q-161 0 -283 -77v-807zM116.5 182.5q-116.5 108.5 -116.5 330.5t155.5 373.5
t368.5 151.5t365.5 -156t152.5 -362q0 -47 -8 -86q-24 -177 -169 -305.5t-329 -128.5q-102 0 -202.5 37t-217 145.5z" />
    <glyph glyph-name="p" unicode="p" horiz-adv-x="1081" 
d="M522 1038q215 0 366.5 -159t151.5 -363q0 -143 -75 -266q-144 -223 -327 -236.5t-265 -13.5v-244h102v-39h-145v1321h192zM0 1038h145v-1321h-145v39h102v1243h-102v39zM823 147q72 53 124 145.5t57 213.5q0 129 -51.5 226t-129.5 157v-742zM373 999v-960h88
q88 0 140 14.5t104.5 31t74.5 38.5v799q-119 69 -197.5 73t-119.5 4h-90z" />
    <glyph glyph-name="q" unicode="q" horiz-adv-x="1081" 
d="M711 1038v-1321h-146v39h103v244q-206 0 -347.5 45t-230.5 185q-90 140 -90 286q0 203 108.5 317.5t204 159.5t205.5 45h193zM1040 999h-102v-1243h102v-39h-145v1321h145v-39zM217 889q-78 -59 -129 -156.5t-51 -226.5q4 -121 56 -213t124 -146v742zM578 999
q-136 0 -203.5 -25.5t-114.5 -51.5v-799q19 -24 123.5 -54t124.5 -30h160v960h-90z" />
    <glyph glyph-name="r" unicode="r" horiz-adv-x="733" 
d="M102 39v960h-102v39h145v-1038h-145v39h102zM328 0v1036l39 -139q127 141 327 141v-39q-195 0 -327 -157v-805l106 2v-39h-145z" />
    <glyph glyph-name="s" unicode="s" horiz-adv-x="995" 
d="M133.5 603.5q49.5 -52.5 130.5 -83.5l635 -266q12 32 12 66q0 70 -58.5 125t-129.5 81l-631 258v4q-8 -21 -8 -77q0 -55 49.5 -107.5zM41 738q0 76 47 136t140.5 112t240.5 52q214 0 302.5 -79.5t113.5 -131.5v211h43v-307h-43q-36 129 -170 198.5t-250 69.5
q-117 0 -210 -45t-146 -131q168 -68 284.5 -114.5t273 -113t181.5 -91.5q106 -79 106 -193q0 -156 -161.5 -233.5t-330.5 -77.5t-272.5 61.5t-146.5 118t-43 123.5h43q4 -112 146 -188t282 -76t217.5 32.5t121.5 65.5t73 80l-219 93q-218 93 -361 149q-39 18 -85 38.5
t-85 50.5t-65.5 72t-26.5 118z" />
    <glyph glyph-name="t" unicode="t" horiz-adv-x="712" 
d="M102 297v702h-102v39h102v103l43 43v-905q0 -78 46.5 -141.5t136.5 -92.5v1321l43 43v-371h102v-39h-102v-960q109 0 186.5 63.5t77.5 182.5v39h39v-54q-8 -107 -87.5 -188.5t-197.5 -81.5t-202.5 86.5t-84.5 210.5z" />
    <glyph glyph-name="u" unicode="u" horiz-adv-x="1185" 
d="M1040 1038v-999h107v-39h-146v1038h39zM780 1001h-106v37h145v-1038h-39v37q-109 -37 -197 -37q-178 0 -329.5 96t-151.5 250v655h-102v37h145v-712q0 -78 56.5 -137.5t128.5 -96.5l-2 4v942h145v-37h-106v-925q92 -39 202 -39q111 0 211 39v925z" />
    <glyph glyph-name="v" unicode="v" horiz-adv-x="1183" 
d="M508 1038v-39h-100l286 -659l287 659h-102v39h247v-39h-102l-436 -999h-35l-440 999h-113v39h143l426 -979l103 232l-330 747h166z" />
    <glyph glyph-name="w" unicode="w" horiz-adv-x="1536" 
d="M0 1038h143l369 -979l98 265l-270 714h45l248 -657l100 266l-133 352h-119v39h150l364 -979l97 265l-267 714h158v-39h-102l233 -620l236 620h-123v39h270v-39h-106l-371 -999h-41l-225 592l-222 -592h-43l-376 999h-113v39z" />
    <glyph glyph-name="x" unicode="x" horiz-adv-x="1183" 
d="M535 1038v-39h-93l228 -366l295 366h-109v39h268v-39h-110l-322 -401l348 -559h107v-39h-129l-647 1038h164zM6 999v39h146l647 -1038h-166v39h94l-260 420l-338 -420h100v-39h-229v39h84l360 457l-313 503h-125z" />
    <glyph glyph-name="y" unicode="y" horiz-adv-x="1183" 
d="M508 1038v-39h-100l286 -659q72 166 143.5 328.5t143.5 330.5h-102v39h247v-39h-102q-211 -502 -328 -753l-155 -352q-80 -179 -242 -175q-144 0 -219.5 77.5t-79.5 203.5h43q0 -147 86 -193.5t156 -46.5t110.5 23.5t66 60.5t43 82t40.5 92l-432 981h-113v39h143
l426 -979l103 232l-330 747h166z" />
    <glyph glyph-name="z" unicode="z" horiz-adv-x="976" 
d="M43 999v-266h-43v305h670l-645 -1038h-45l622 999h-559zM889 39v328h43v-367h-688l645 1038h45l-619 -999h574z" />
    <glyph glyph-name="braceleft" unicode="{" horiz-adv-x="382" 
d="M221 608q0 47 -38 77t-85 34v-682q0 -55 40 -87t83 -32v690zM98 1438v-682q44 0 83.5 31t39.5 75v694q-47 -4 -85 -34.5t-38 -83.5zM260 596v-678h84v-39l-88 -2q-96 0 -146.5 46t-50.5 118v678h-59v37h59v676q0 66 45.5 113.5t102.5 47.5h137v-37h-84v-677
q0 -96 -86 -142q86 -48 86 -141z" />
    <glyph glyph-name="bar" unicode="|" horiz-adv-x="120" 
d="M82 -121h-39v1712h39v-1712z" />
    <glyph glyph-name="braceright" unicode="}" horiz-adv-x="378" 
d="M123 -82q43 0 83 32t40 87v682q-47 -4 -85 -34t-38 -77v-690zM123 862q0 -44 39.5 -75t83.5 -31v682q0 53 -38 83.5t-85 34.5v-694zM0 -82h84v678q0 95 86 141q-86 44 -86 142v677h-84v37h137q57 0 102.5 -47.5t45.5 -113.5v-676h59v-37h-59v-678q0 -72 -50.5 -118
t-146.5 -46l-88 2v39z" />
    <glyph glyph-name="asciitilde" unicode="~" horiz-adv-x="755" 
d="M41 1253q0 -47 12 -47h494q53 4 91 46t38 102v13q0 13 -4 24h-504q-53 -8 -90 -49.5t-37 -88.5zM166 1063q-66 0 -115 60.5t-49 106.5q0 81 52.5 139t135.5 58h465q-10 18 -35.5 40t-64.5 28v39q77 -11 118.5 -66.5t40.5 -109.5q-2 -85 -56.5 -138t-125.5 -53h-469
q37 -55 103 -67v-37z" />
    <glyph glyph-name="exclamdown" unicode="&#xa1;" horiz-adv-x="358" 
d="M283 1311q0 51 -36 87t-87 36t-87 -36t-36 -87t36 -87t87 -36t87 36t36 87zM319 1298q0 -93 -65.5 -121t-93.5 -28q-68 0 -114 48t-46 116t46 111.5t118 43.5t113.5 -50t41.5 -120zM162 35q53 0 90 42t31 89l-43 323h32l31 -206q4 -33 9 -63t5 -64q0 -70 -51 -113
t-99 -43q-78 0 -122.5 50t-44.5 96t20 182t43 321t56 365h35l-117 -848q0 -49 36 -90t89 -41z" />
    <glyph glyph-name="cent" unicode="&#xa2;" horiz-adv-x="1032" 
d="M37 484.5q0 -90.5 54.5 -188.5t129.5 -153v752q-123 -90 -153.5 -205t-30.5 -205.5zM537 -221h-39v221q-198 10 -349 154.5t-151 361.5q0 216 146.5 364.5t353.5 159.5v189h39v-189q121 -4 233 -62t184 -173v233h39v-303h-41q-61 123 -178 196t-250 73
q-74 0 -146.5 -20.5t-117.5 -57.5v-809q120 -80 252 -80t252.5 67.5t189.5 200.5h39q-146 -293 -456 -305v-221z" />
    <glyph glyph-name="sterling" unicode="&#xa3;" horiz-adv-x="1228" 
d="M145 1049v-154h246v504q-100 -41 -173 -140.5t-73 -209.5zM428 895h291v-37h-719v37h109v129q0 181 127.5 312.5t308.5 131.5t317.5 -124t136.5 -297h-36q-12 163 -127.5 275t-273.5 112q-79 0 -134 -19v-520zM147 575v-536h244l-2 536h-242zM0 612h719v-37h-291v-536
h573v414h37v-453h-1038v39h106v536h-106v37z" />
    <glyph glyph-name="currency" unicode="&#xa4;" horiz-adv-x="620" 
 />
    <glyph glyph-name="yen" unicode="&#xa5;" horiz-adv-x="1380" 
d="M940 674h-489v39h84l-390 719h-147v36h170l408 -755h247v65l-381 690h191v-36h-123l332 -613l313 613h-139v36h327v-36h-147l-334 -654v-65h78v-39zM455 492h489v-39h-80v-414h146v-39h-185v453h-243v-453h-185v39h146v414h-88v39z" />
    <glyph glyph-name="brokenbar" unicode="&#xa6;" horiz-adv-x="614" 
 />
    <glyph glyph-name="section" unicode="&#xa7;" horiz-adv-x="620" 
 />
    <glyph glyph-name="dieresis" unicode="&#xa8;" horiz-adv-x="577" 
d="M129 1243q39 0 65.5 26.5t26.5 65.5t-26.5 65.5t-65.5 26.5t-65.5 -26.5t-26.5 -65.5t26.5 -65.5t65.5 -26.5zM200.5 1440.5q43.5 -29.5 54.5 -81.5t-17.5 -95.5t-80.5 -55.5t-98.5 18t-56.5 84t19.5 98t82.5 53t96.5 -20.5zM422 1427q-39 0 -65.5 -26.5t-26.5 -65.5
t26.5 -65.5t65.5 -26.5t65.5 26.5t26.5 65.5t-26.5 65.5t-65.5 26.5zM432 1464q47 -6 80 -35.5t39 -76.5t-22.5 -90.5t-70.5 -51.5q-69 -12 -113 21t-51 87t27.5 98t92.5 48h18z" />
    <glyph glyph-name="copyright" unicode="&#xa9;" horiz-adv-x="1511" 
d="M250 698q0 -108 46 -209.5t140 -173.5v762q-92 -70 -139 -170.5t-47 -208.5zM1204 479q0 -39 -69 -115t-129 -111q-130 -77 -255 -77t-220 40t-165.5 110.5t-111.5 165t-41 256.5t152 315.5t366 153.5q162 0 293 -89.5t182 -216.5h-41q-63 120 -177 194.5t-254 74.5
t-255 -72q-4 -2 -4 -8v-811q102 -76 284.5 -76t278 103.5t125.5 162.5h41zM1427 696.5q0 143.5 -54 270.5t-148.5 221t-221.5 149.5t-271 55.5t-271 -54.5t-221.5 -149.5t-148.5 -222t-54 -270.5t54 -270.5t149.5 -221t221.5 -149.5t270 -55.5t271 55.5t221.5 150.5
t148.5 221t54 269.5zM1464 670q0 -150 -63.5 -279t-167 -224t-236.5 -149.5t-274 -54.5t-272.5 56.5t-231.5 155.5t-160.5 235t-60.5 292t61.5 289t165 230.5t236.5 153t273 55.5t271.5 -54.5t233.5 -150t163.5 -224.5t61.5 -278v-53z" />
    <glyph glyph-name="ordfeminine" unicode="&#xaa;" horiz-adv-x="1062" 
d="M39 301q0 -85 51 -149t123 -93q2 -2 4 -2h4v500q-86 -33 -134 -103t-48 -153zM672 37v508q-82 49 -208 49t-204 -25v-524q27 -8 68 -8h344zM209 970q119 68 285 68t302 -91t136 -242v-555q0 -43 32 -78t74 -35v-37q-66 8 -106 52t-39 102v555q0 73 -45 139t-133 102l-4 2
l2 -952h-385q-125 0 -226 82q-102 82 -102 203v43q11 141 134 222q123 80 330 82q114 0 208 -46v385q-250 76 -442 -34q-125 -72 -148 -183h-39q22 135 166 216z" />
    <glyph glyph-name="guillemotleft" unicode="&#xab;" horiz-adv-x="614" 
d="M571 399v-45l-366 344v43l366 334v-47l-327 -309zM367 399v-45l-367 344v43l367 334v-47l-328 -309z" />
    <glyph glyph-name="logicalnot" unicode="&#xac;" horiz-adv-x="524" 
d="M451 717h-451v39h489v-142h-38v103z" />
    <glyph glyph-name="registered" unicode="&#xae;" horiz-adv-x="1511" 
d="M793 1241q104 0 180 -82.5t76 -173.5q0 -90 -48.5 -162.5t-128.5 -95.5q98 -21 157 -95t48 -171v-217q43 16 71 51t28 88h28v-18q-6 -66 -56 -112t-122 -46q-116 0 -147 67.5t-31 106.5v324q-27 8 -60 8h-153v-480h102v-26h-129v1034h185zM428 233v981h-76v27h105v-1034
h-105v26h76zM975 1112.5q-45 57.5 -98 81.5l-3 -434q55 20 100.5 77.5t45.5 137.5t-45 137.5zM1049 395q0 125 -29.5 190t-142.5 109v-338q8 -59 54 -91t93 -32l25 3v159zM1427 696.5q0 143.5 -54 270.5t-148.5 221t-221.5 149.5t-271 55.5t-271 -54.5t-221.5 -149.5
t-148.5 -222t-54 -270.5t54 -270.5t149.5 -221t221.5 -149.5t270 -55.5t271 55.5t221.5 150.5t148.5 221t54 269.5zM1464 670q0 -150 -63.5 -279t-167 -224t-236.5 -149.5t-274 -54.5t-272.5 56.5t-231.5 155.5t-160.5 235t-60.5 292t61.5 289t165 230.5t236.5 153t273 55.5
t271.5 -54.5t233.5 -150t163.5 -224.5t61.5 -278v-53zM635 737h81q110 0 132 11l2 456q-32 13 -117 13l-98 -3v-477z" />
    <glyph glyph-name="degree" unicode="&#xb0;" horiz-adv-x="319" 
d="M37 1308.5q0 -51.5 36 -87t87 -35.5t87 35.5t36 87t-36 87.5t-87 36t-87 -36t-36 -87.5zM319 1310q0 -62 -44.5 -111.5t-112.5 -49.5t-114 44t-46 113t46 115.5t124 46.5q66 -6 106.5 -51t40.5 -107z" />
    <glyph glyph-name="plusminus" unicode="&#xb1;" horiz-adv-x="489" 
d="M0 410h489v-39h-487q-2 0 -2 2v37zM264 985v-225h225v-39h-225v-225h-39v225h-225v39h225v225h39z" />
    <glyph glyph-name="twosuperior" unicode="&#xb2;" horiz-adv-x="991" 
d="M913 39v389h39v-428h-622l508 768q75 118 75 248t-63 215l-811 -1231h-45q158 242 284 431t258 392q133 203 190 288t99 155q-63 82 -155 124t-193 42q-162 -8 -282 -115t-136 -277h-39q19 198 155 314q135 116 317 114q121 0 209 -50q160 -91 222 -256q60 -158 2 -296
t-146 -262q-87 -123 -142 -211l-234 -354h510z" />
    <glyph glyph-name="threesuperior" unicode="&#xb3;" horiz-adv-x="976" 
d="M860 1110q0 141 -115 238q-39 33 -92 49v-568q96 39 152 116q55 77 55 165zM653 76q89 28 169 139q79 111 78 224q-1 114 -72 211t-175 130v-704zM456 37q81 0 154 22l4 2v723h-196v39h196v588q-74 23 -144 23q-150 0 -270 -94t-120 -238h-39q0 164 134 266t311 101
q176 -1 293 -102q118 -101 118 -249t-111 -246q-71 -62 -94 -67q115 -33 180 -142q64 -111 65 -215t-36 -182q-75 -158 -246 -232q-82 -36 -174 -36q-190 0 -327 109t-152 294l-2 23h39q4 -159 124 -270q56 -53 134 -85t159 -32z" />
    <glyph glyph-name="acute" unicode="&#xb4;" horiz-adv-x="522" 
d="M428 1253v156l-50 -27q-50 -28 -86 -47.5t-66.5 -37t-53 -30t-25.5 -14.5h281zM467 1214h-467l467 263v-263z" />
    <glyph glyph-name="mu" unicode="&#xb5;" horiz-adv-x="620" 
 />
    <glyph glyph-name="paragraph" unicode="&#xb6;" horiz-adv-x="614" 
 />
    <glyph glyph-name="periodcentered" unicode="&#xb7;" horiz-adv-x="360" 
d="M39 737q0 -51 36 -87t87 -36t87 36t36 87t-36 87t-87 36t-87 -36t-36 -87zM2 750q0 92 65.5 120.5t94.5 28.5q68 0 114 -48t46 -116t-46 -111.5t-118 -43.5t-114 50t-42 120z" />
    <glyph glyph-name="cedilla" unicode="&#xb8;" horiz-adv-x="290" 
d="M-10 -233v18h37q2 -47 27.5 -81t67.5 -31t67.5 31t24.5 68t-37 66.5t-75 18.5v143h37v-106q59 -10 89 -55.5t21 -91.5t-38 -75.5t-74 -33.5q-54 -12 -100.5 27.5t-46.5 101.5z" />
    <glyph glyph-name="onesuperior" unicode="&#xb9;" horiz-adv-x="647" 
d="M610 39v-39h-182v1468h39l2 -1429h141zM145 37v1393h-145v38h184v-1468h-184v37h145z" />
    <glyph glyph-name="ordmasculine" unicode="&#xba;" 
d="M819 141q76 57 130 157q55 100 55 214q0 115 -61 231q-61 115 -124 152v-754zM43 518q0 -235 174 -371v742q-174 -136 -174 -371zM260 115q113 -76 256 -76t264 76v807q-111 72 -237 77q-163 0 -283 -77v-807zM536 0q-102 0 -202 37t-174 105q-160 148 -160 371
q0 222 156 374q156 151 368 151q213 0 365 -156q153 -156 153 -362q0 -47 -8 -86q-24 -177 -169 -305q-146 -129 -329 -129z" />
    <glyph glyph-name="guillemotright" unicode="&#xbb;" horiz-adv-x="612" 
d="M328 719l-328 309v47l367 -334v-43l-367 -344v45zM532 719l-327 309v47l366 -334v-43l-366 -344v45z" />
    <glyph glyph-name="onequarter" unicode="&#xbc;" horiz-adv-x="2023" 
d="M610 39v-39h-182v1468h39l2 -1429h141zM145 37v1393h-145v38h184v-1468h-184v37h145zM678 0h-31l225 1466h37zM1835 1468h39v-976h108v-39h-108v-414h108v-39h-147v1468zM1552 492v901l-544 -901h544zM1444 0v39h108v414h-612l612 1015h39v-1468h-147z" />
    <glyph glyph-name="onehalf" unicode="&#xbd;" horiz-adv-x="1941" 
d="M610 39v-39h-182v1468h39l2 -1429h141zM145 37v1393h-145v38h184v-1468h-184v37h145zM678 0h-31l225 1466h37zM1864 39v389h39v-428h-623l508 768q74 117 75 247t-63 216l-811 -1231h-45q158 242 276 419t233 353t191 291t132 203q-64 82 -156 124t-193 42
q-162 -8 -282 -115q-119 -107 -135 -277h-39q20 199 154 315q135 115 317 113q121 0 209 -50q160 -91 222 -256q30 -79 30 -167q-7 -121 -108 -287q-44 -73 -98 -150t-110 -165l-233 -354h510z" />
    <glyph glyph-name="threequarters" unicode="&#xbe;" horiz-adv-x="2353" 
d="M860 1110q0 141 -115 238q-39 33 -92 49v-568q96 39 152 116q55 77 55 165zM653 76q89 28 169 139q79 111 78 224q-1 114 -72 211t-175 130v-704zM456 37q81 0 154 22l4 2v723h-196v39h196v588q-74 23 -144 23q-150 0 -270 -94t-120 -238h-39q0 164 134 266t311 101
q176 -1 293 -102q118 -101 118 -249t-111 -246q-71 -62 -94 -67q115 -33 180 -142q64 -111 65 -215t-36 -182q-75 -158 -246 -232q-82 -36 -174 -36q-190 0 -327 109t-152 294l-2 23h39q4 -159 124 -270q56 -53 134 -85t159 -32zM1008 0h-31l225 1466h37zM2165 1468h39v-976
h108v-39h-108v-414h108v-39h-147v1468zM1882 492v901l-545 -901h545zM1774 0v39h108v414h-612l612 1015h39v-1468h-147z" />
    <glyph glyph-name="questiondown" unicode="&#xbf;" horiz-adv-x="960" 
d="M442 1425q-51 1 -87 -35q-35 -36 -35 -87t36 -87t86 -36q51 0 87 36t36 87t-36 87t-87 35zM604 1300q0 -62 -46 -109q-46 -48 -112 -48t-115 45q-48 46 -48 118t52 114t122 42q67 -4 107 -52t40 -110zM283 850q-100 -44 -172 -147t-70 -242t80 -250q68 -92 162 -133v772z
M456 930q49 0 109 -10v178h39v-228q-66 23 -138 23t-144 -25v-806q72 -25 154 -25t160 35q79 35 136 95q123 129 123 320h39q0 -217 -144 -359q-134 -128 -319 -128q-184 0 -318 124t-151 300l-2 41l2 37q8 121 85 232q78 110 192 157l4 207h39v-191q85 23 134 23z" />
    <glyph glyph-name="Agrave" unicode="&#xc0;" horiz-adv-x="1480" 
d="M1442 39v-39h-182l-426 1468h38l416 -1429h154zM588 1397q0 -8 -62 -218t-110 -375t-79 -273l-11 -39h526zM850 39h133l-121 414h-549l-118 -414h145v-39h-340v39h156l401 1393h-131v36h182l426 -1468h-184v39zM451 1577h280q-18 9 -99 54q-81 47 -111 63l-50 27l-20 12
v-156zM412 1538v262l467 -262h-467z" />
    <glyph glyph-name="Aacute" unicode="&#xc1;" horiz-adv-x="1480" 
d="M1442 39v-39h-182l-426 1468h38l416 -1429h154zM588 1397q0 -8 -62 -218t-110 -375t-79 -273l-11 -39h526zM850 39h133l-121 414h-549l-118 -414h145v-39h-340v39h156l401 1393h-131v36h182l426 -1468h-184v39zM842 1579v156l-21 -12q-20 -11 -90 -48q-159 -85 -170 -96
h281zM881 1540h-467l467 262v-262z" />
    <glyph glyph-name="Acircumflex" unicode="&#xc2;" horiz-adv-x="1480" 
d="M1442 39v-39h-182l-426 1468h38l416 -1429h154zM588 1397q0 -2 -11.5 -41t-30 -102.5t-42 -144.5t-48 -166t-48 -166t-42 -143.5t-29.5 -102.5l-11 -39h526zM850 39h133l-121 414h-549l-118 -414h145v-39h-340v39h156l401 1393h-131v36h182l426 -1468h-184v39zM659 1536
h-63l180 129l-123 88l-303 -217h-63l366 264l369 -264h-68l-147 106z" />
    <glyph glyph-name="Atilde" unicode="&#xc3;" horiz-adv-x="1480" 
d="M1442 39v-39h-182l-426 1468h38l416 -1429h154zM588 1397q0 -8 -62 -218t-110 -375t-79 -273l-11 -39h526zM850 39h133l-121 414h-549l-118 -414h145v-39h-340v39h156l401 1393h-131v2q-53 10 -96 64t-43 100q0 130 110 182q35 16 78 16h465q-10 18 -36 40t-64 28v39
q77 -11 118 -65q42 -54 40 -110q-3 -129 -112 -178q-32 -14 -69 -14h-469q37 -55 103 -68h157l426 -1468h-184v39zM961 1722v19q0 8 -5 18h-503q-53 -8 -91 -49t-36 -96q0 -19 10 -41l495 2q53 4 92 46q38 42 38 101z" />
    <glyph glyph-name="Adieresis" unicode="&#xc4;" horiz-adv-x="1480" 
d="M1442 39v-39h-182l-426 1468h38l416 -1429h154zM588 1397q0 -8 -62 -218t-110 -375t-79 -273l-11 -39h526zM850 39h133l-121 414h-549l-118 -414h145v-39h-340v39h156l401 1393h-131v36h182l426 -1468h-184v39zM522 1575q39 0 66 27q26 28 26 66t-26 65q-27 27 -66 27
q-40 0 -66 -28q-26 -26 -26 -65t26 -65t66 -27zM452 1558q-46 30 -56 84t19 98q30 44 83 53t96 -21t54 -81q11 -52 -17 -96q-29 -43 -81 -55t-98 18zM815 1759q-39 -1 -65 -27t-27 -65q0 -39 27 -65q28 -26 66 -27q38 0 65 27q27 28 27 66t-27 65q-27 26 -66 26zM825 1796
q47 -6 80 -36t39 -77t-22 -91t-70 -51q-99 -17 -147 58q-13 23 -19 64t29 85t92 48h18z" />
    <glyph glyph-name="Aring" unicode="&#xc5;" horiz-adv-x="1480" 
d="M1442 39v-39h-182l-426 1468h38l416 -1429h154zM588 1397q0 -8 -62 -218t-110 -375t-79 -273l-11 -39h526zM850 39h133l-121 414h-549l-118 -414h145v-39h-340v39h156l401 1393h-131v36h182l426 -1468h-184v39zM569 1694q0 -51 36 -87t87 -36t87 36t36 87t-36 87t-87 36
t-87 -36t-36 -87zM692 1855q68 0 114 -48q46 -47 46 -115t-46 -112t-118 -44t-114 50t-42 130t103 127q29 12 57 12z" />
    <glyph glyph-name="AE" unicode="&#xc6;" horiz-adv-x="1687" 
d="M719 489v842l-365 -842h365zM1001 1432h-245v-1432h-183v39h146v414h-379l-195 -453h-145v39h119l600 1393h-148v36h1078v-428h-37v392h-574v-678h291v225h37v-490h-37v226h-291v-676h574v389h37v-428h-648v1432z" />
    <glyph glyph-name="Ccedilla" unicode="&#xc7;" horiz-adv-x="1435" 
d="M37 725q0 -174 73 -327t207 -263v1188l-6 -4q-133 -111 -203 -265t-71 -329zM705 1462q-198 0 -349 -112v-1241q145 -97 310 -110v1h36v-2h11q197 0 360 117t248 309h43q-135 -327 -451 -431q-99 -33 -211 -34v-65q60 -10 90 -56t20 -91q-10 -46 -38 -76q-29 -30 -74 -33
q-54 -12 -101 27q-46 39 -46 102v18h37q2 -47 28 -81t67 -31q42 3 68 31q27 28 25 68t-38 66t-74 19v103q-129 10 -250 68t-215 162q-93 104 -147 244t-54 300q0 317 212 540q99 104 233 164t292 61q191 -10 339 -109t243 -264v342h39v-432h-39q-102 214 -259 320t-355 106z
" />
    <glyph glyph-name="Egrave" unicode="&#xc8;" horiz-adv-x="1241" 
d="M145 39v1393h-145v36h184v-1468h-184v39h145zM430 1468h770v-428h-37v390h-696v-674h414v223h39v-487h-39v223h-414v-674h696v389h37v-430h-770v1468zM469 1575h281q-28 13 -68 37q-41 24 -77 44q-35 20 -65 36t-51 27l-20 12v-156zM430 1536v262l467 -262h-467z" />
    <glyph glyph-name="Eacute" unicode="&#xc9;" horiz-adv-x="1239" 
d="M145 39v1393h-145v36h184v-1468h-184v39h145zM430 1468h770v-428h-37v390h-696v-674h414v223h39v-487h-39v223h-414v-674h696v389h37v-430h-770v1468zM860 1575v156l-20 -12q-20 -11 -95 -51q-162 -86 -165 -93h280zM899 1536h-467l467 262v-262z" />
    <glyph glyph-name="Ecircumflex" unicode="&#xca;" horiz-adv-x="1239" 
d="M145 39v1393h-145v36h184v-1468h-184v39h145zM430 1468h770v-428h-37v390h-696v-674h414v223h39v-487h-39v223h-414v-674h696v389h37v-430h-770v1468zM659 1536h-63l180 129l-123 88l-303 -217h-63l366 264l369 -264h-68l-147 106z" />
    <glyph glyph-name="Edieresis" unicode="&#xcb;" horiz-adv-x="1239" 
d="M145 39v1393h-145v36h184v-1468h-184v39h145zM430 1468h770v-428h-37v390h-696v-674h414v223h39v-487h-39v223h-414v-674h696v389h37v-430h-770v1468zM561 1577q39 0 66 27q27 28 27 66t-27 65t-66 27t-65 -28q-26 -26 -27 -65q1 -39 27 -65t65 -27zM454 1742
q30 44 83 53t96 -21t54 -81q11 -52 -17 -96q-29 -43 -81 -55t-99 18q-46 30 -56 84t20 98zM854 1761q-39 -1 -66 -27q-26 -26 -26 -65t26 -65t66 -27q39 0 66 27q26 28 26 66t-26 65q-27 26 -66 26zM864 1798q47 -6 80 -36t39 -76t-22 -92q-29 -44 -70 -51q-99 -17 -148 59
q-14 24 -19 64t30 84t92 48h18z" />
    <glyph glyph-name="Igrave" unicode="&#xcc;" horiz-adv-x="651" 
d="M145 39v1393h-145v36h184v-1468h-184v39h145zM467 1432v-1393h145v-39h-184v1468h184v-36h-145zM119 1575h280q-22 11 -65 36t-79 45t-66 36l-50 27l-20 12v-156zM80 1536v262l467 -262h-467z" />
    <glyph glyph-name="Iacute" unicode="&#xcd;" horiz-adv-x="651" 
d="M145 39v1393h-145v36h184v-1468h-184v39h145zM467 1432v-1393h145v-39h-184v1468h184v-36h-145zM487 1579v156l-20 -12q-20 -11 -82 -44t-96 -53q-35 -20 -58 -32t-24 -15h280zM526 1540h-467l467 262v-262z" />
    <glyph glyph-name="Icircumflex" unicode="&#xce;" horiz-adv-x="651" 
d="M145 39v1393h-145v36h184v-1468h-184v39h145zM467 1432v-1393h145v-39h-184v1468h184v-36h-145zM317 1536h-63l180 129l-123 88l-303 -217h-63l366 264l369 -264h-68l-147 106z" />
    <glyph glyph-name="Idieresis" unicode="&#xcf;" horiz-adv-x="651" 
d="M145 39v1393h-145v36h184v-1468h-184v39h145zM467 1432v-1393h145v-39h-184v1468h184v-36h-145zM160 1577q40 0 66 27q26 28 26 66t-27 65t-65 27t-66 -28q-26 -26 -26 -65t26 -65t66 -27zM52 1742q30 44 83 53t97 -21t54 -81q11 -51 -18 -95t-81 -56t-98 18t-56 84
t19 98zM453 1761q-39 -1 -66 -27t-27 -65t27 -65t66 -27q39 0 65 27q26 28 27 66q-1 38 -27 64t-65 27zM463 1798q47 -6 80 -36t39 -76t-23 -92q-29 -44 -70 -51q-98 -17 -147 59q-14 24 -19 64t29 84q35 44 92 48h19z" />
    <glyph glyph-name="Eth" unicode="&#xd0;" horiz-adv-x="1312" 
d="M0 39h147v143l1 529h-148v39h148l2 682h-150v36h186v-1468h-186v39zM956 172q273 205 273 583q0 156 -76 306.5t-197 249.5v-1139zM467 1432v-682h149v-39h-149v-672q133 -4 241.5 15.5t209.5 88.5v1190q-134 88 -263 93.5t-188 5.5zM430 1468q125 0 231.5 -10t250.5 -69
t276 -304q86 -185 86 -344t-53.5 -291.5t-147.5 -231.5t-220 -158.5t-269 -59.5h-154v1468z" />
    <glyph glyph-name="Ntilde" unicode="&#xd1;" horiz-adv-x="1384" 
d="M184 39h146v-39h-330v39h145v1393h-145v36h400q-38 32 -55 73.5t-17 72.5q0 68 53 125t135 57h465q-10 18 -35.5 40t-64.5 28v39q77 -11 118 -67t40 -110q-2 -87 -57 -138.5t-124 -51.5h-469q37 -55 103 -68l671 -1380v1344h-145v36h328v-36h-146v-1432h-37l-696 1432
h-272l696 -1432h-41l-666 1368v-1329zM367 1622q0 -47 12 -47h493q53 4 91 46t38 101v14q0 13 -4 23h-503q-53 -8 -90 -49t-37 -88z" />
    <glyph glyph-name="Ograve" unicode="&#xd2;" horiz-adv-x="1460" 
d="M317 1323q-134 -101 -205 -259q-71 -159 -75 -321q-1 -175 69 -333t211 -275v1188zM1382 723q0 361 -282 604v-1194q207 162 264 424q18 82 18 166zM713 -2q189 0 348 111v1130l2 111q-150 112 -345 111q-196 -1 -358 -107l-4 -4v-1241q168 -111 357 -111zM728 1499
q159 0 287 -71q128 -72 218 -182t139 -246t49 -278t-53 -282q-111 -292 -373 -417q-131 -63 -287 -63t-286 65q-261 131 -372 421q-52 139 -52 289t54 288q54 139 152 245t231 168q134 62 293 63zM514 1575h281q-28 13 -68 37q-41 24 -77 44t-66 36t-49 27l-21 12v-156z
M475 1536v262l467 -262h-467z" />
    <glyph glyph-name="Oacute" unicode="&#xd3;" horiz-adv-x="1460" 
d="M317 1323q-134 -101 -205 -259q-71 -159 -75 -321q-1 -175 69 -333t211 -275v1188zM1382 723q0 361 -282 604v-1194q207 162 264 424q18 82 18 166zM713 -2q189 0 348 111v1130l2 111q-150 112 -345 111q-196 -1 -358 -107l-4 -4v-1241q168 -111 357 -111zM728 1499
q159 0 287 -71q128 -72 218 -182t139 -246t49 -278t-53 -282q-111 -292 -373 -417q-131 -63 -287 -63t-286 65q-261 131 -372 421q-52 139 -52 289t54 288q54 139 152 245t231 168q134 62 293 63zM903 1575v156l-20 -12q-20 -11 -95 -51q-162 -86 -165 -93h280zM942 1536
h-467l467 262v-262z" />
    <glyph glyph-name="Ocircumflex" unicode="&#xd4;" horiz-adv-x="1460" 
d="M317 1323q-134 -101 -205 -259q-71 -159 -75 -321q-1 -175 69 -333t211 -275v1188zM1382 723q0 361 -282 604v-1194q207 162 264 424q18 82 18 166zM713 -2q189 0 348 111v1130l2 111q-150 112 -345 111q-196 -1 -358 -107l-4 -4v-1241q168 -111 357 -111zM728 1499
q159 0 287 -71q128 -72 218 -182t139 -246t49 -278t-53 -282q-111 -292 -373 -417q-131 -63 -287 -63t-286 65q-261 131 -372 421q-52 139 -52 289t54 288q54 139 152 245t231 168q134 62 293 63zM715 1536h-64l180 129l-122 88l-303 -217h-64l367 264l368 -264h-67
l-148 106z" />
    <glyph glyph-name="Otilde" unicode="&#xd5;" horiz-adv-x="1460" 
d="M317 1323q-134 -101 -205 -259q-71 -159 -75 -321q-1 -175 69 -333t211 -275v1188zM1382 723q0 361 -282 604v-1194q207 162 264 424q18 82 18 166zM713 -2q189 0 348 111v1130l2 111q-150 112 -345 111q-196 -1 -358 -107l-4 -4v-1241q168 -111 357 -111zM752 1499
q134 0 263 -71q128 -72 218 -182t139 -246t49 -278t-53 -282q-111 -292 -373 -417q-131 -63 -287 -63t-286 65q-261 131 -372 421q-52 139 -52 289t54 288q119 304 406 424q-62 31 -89 100t0 135t96 98q35 16 78 16h465q-10 18 -36 40t-65 28v39q77 -10 119 -65
q41 -54 40 -110q-2 -130 -113 -178q-32 -14 -68 -14h-469q37 -55 102 -68q100 31 234 31zM393 1614q0 -19 10 -41l496 2q53 4 91 46t38 101v19q0 8 -4 18h-504q-53 -8 -90 -49t-37 -96z" />
    <glyph glyph-name="Odieresis" unicode="&#xd6;" horiz-adv-x="1460" 
d="M317 1323q-134 -101 -205 -259q-71 -159 -75 -321q-1 -175 69 -333t211 -275v1188zM1382 723q0 361 -282 604v-1194q207 162 264 424q18 82 18 166zM713 -2q189 0 348 111v1130l2 111q-150 112 -345 111q-196 -1 -358 -107l-4 -4v-1241q168 -111 357 -111zM728 1499
q159 0 287 -71q128 -72 218 -182t139 -246t49 -278t-53 -282q-111 -292 -373 -417q-131 -63 -287 -63t-286 65q-261 131 -372 421q-52 139 -52 289t54 288q54 139 152 245t231 168q134 62 293 63zM569 1577q39 0 66 27q27 28 27 66t-27 65t-66 27t-65 -28q-26 -26 -27 -65
q1 -39 27 -65t65 -27zM462 1742q30 44 83 53t96 -21t54 -81q11 -52 -17 -96q-29 -43 -81 -55t-98 18q-47 30 -57 84t20 98zM862 1761q-40 -1 -66 -27t-26 -65t27 -65t65 -27q38 0 66 27q26 28 26 66t-26 65q-27 26 -66 26zM872 1798q47 -6 80 -36t39 -76t-22 -92
q-29 -44 -70 -51q-101 -17 -147 59q-14 24 -20 64t30 84q35 44 92 48h18z" />
    <glyph glyph-name="multiply" unicode="&#xd7;" horiz-adv-x="372" 
d="M27 555l-27 29l160 157l-160 160l27 27l159 -158l158 158l29 -27l-160 -158l160 -159l-27 -27l-160 158z" />
    <glyph glyph-name="Oslash" unicode="&#xd8;" horiz-adv-x="1460" 
d="M317 1323q-134 -101 -205 -259.5t-75 -320.5q0 -176 69.5 -333.5t210.5 -274.5v1188zM1382 723q0 359 -282 604v-1194q207 162 244.5 334t37.5 256zM1063 1350q-147 110 -344 110t-359 -106l-4 -4v-1005l707 843v162zM711 -41q-267 0 -468 191l-116 -138l-29 25l118 140
q-10 10 -19 22q-94 109 -146.5 248t-52.5 288.5t54 287.5t151.5 244.5t231.5 169t296 62.5q239 0 430 -176l139 145l27 -26l-137 -147q121 -127 176 -279t55 -294t-53 -281.5t-147.5 -247t-225.5 -171t-284 -63.5zM356 109q168 -111 351 -113t356 113v1016l-707 -838v-178z
" />
    <glyph glyph-name="Ugrave" unicode="&#xd9;" horiz-adv-x="1388" 
d="M1348 1468v-36h-146v-920q0 -186 -78 -309t-196 -183t-254 -61q-137 0 -255 60q-118 61 -196 181t-78 298v934h-145v36h184v-991q18 -278 244 -411v1402h184v-36h-145v-1387q51 -19 96 -33t131 -12t173 39q183 78 259 259q39 91 39 202v932h-147v36h330zM655 1575h281
q-28 13 -69 37q-39 24 -75 44t-66 36l-71 39v-156zM616 1536v262l467 -262h-467z" />
    <glyph glyph-name="Uacute" unicode="&#xda;" horiz-adv-x="1388" 
d="M1348 1468v-36h-146v-920q0 -186 -78 -309t-196 -183t-254 -61q-137 0 -255 60q-118 61 -196 181t-78 298v934h-145v36h184v-991q18 -278 244 -411v1402h184v-36h-145v-1387q51 -19 96 -33t131 -12t173 39q183 78 259 259q39 91 39 202v932h-147v36h330zM977 1575v156
l-21 -12q-20 -11 -90 -48q-159 -85 -170 -96h281zM1016 1536h-467l467 262v-262z" />
    <glyph glyph-name="Ucircumflex" unicode="&#xdb;" horiz-adv-x="1388" 
d="M1348 1468v-36h-146v-920q0 -186 -78 -309t-196 -183t-254 -61q-137 0 -255 60q-118 61 -196 181t-78 298v934h-145v36h184v-991q18 -278 244 -411v1402h184v-36h-145v-1387q51 -19 96 -33t131 -12t173 39q183 78 259 259q39 91 39 202v932h-147v36h330zM791 1536h-64
l180 129l-123 88l-303 -217h-63l366 264l369 -264h-68l-147 106z" />
    <glyph glyph-name="Udieresis" unicode="&#xdc;" horiz-adv-x="1388" 
d="M1348 1468v-36h-146v-920q0 -186 -78 -309t-196 -183t-254 -61q-137 0 -255 60q-118 61 -196 181t-78 298v934h-145v36h184v-991q18 -278 244 -411v1402h184v-36h-145v-1387q51 -19 96 -33t131 -12t173 39q183 78 259 259q39 91 39 202v932h-147v36h330zM545 1577
q39 0 65 27q26 28 27 66q0 38 -27 65q-28 27 -66 27t-65 -28q-27 -26 -27 -65t28 -65q26 -26 65 -27zM437 1742q30 44 83 53q52 9 96 -21t55 -81t-18 -95t-81 -56t-98 18t-56 84t19 98zM838 1761q-39 -1 -66 -27t-27 -65t27 -65t66 -27q40 0 66 27q26 28 26 66t-26 64
t-66 27zM848 1798q47 -6 80 -36t39 -76t-23 -92q-29 -44 -70 -51q-98 -17 -147 59q-14 24 -19 64t29 84q35 44 92 48h19z" />
    <glyph glyph-name="Yacute" unicode="&#xdd;" horiz-adv-x="1386" 
d="M582 0h-185v39h146v663l-396 730h-147v36h170l412 -761v-707zM635 1468v-36h-123l332 -613l313 613h-139v36h328v-36h-148l-334 -654v-739h146v-39h-185v778l-381 690h191zM979 1575v156l-21 -12q-20 -11 -90 -48q-159 -85 -170 -96h281zM1018 1536h-467l467 262v-262z
" />
    <glyph glyph-name="Thorn" unicode="&#xde;" horiz-adv-x="1234" 
d="M0 1430v38h186v-1804h-186v39h150l-3 1727h-147zM920 340q237 89 241 326q-11 270 -241 319v-645zM614 324h118q118 0 149 6l-2 667l-60 7l-352 -3v-1298h145v-39h-182v1804h182v-38h-145l2 -392h397q125 -8 227.5 -117.5t102.5 -265.5t-107 -262t-262 -106h-213v37z" />
    <glyph glyph-name="germandbls" unicode="&#xdf;" horiz-adv-x="1116" 
d="M935.5 1289.5q-68.5 89.5 -175.5 125.5v-645q103 38 173.5 121t70.5 196t-68.5 202.5zM960.5 591.5q-77.5 93.5 -200.5 117.5v-664q119 24 198.5 116t79.5 214q0 123 -77.5 216.5zM391 0v1415q-115 -35 -180.5 -128t-65.5 -195v-1092h-145v39h109v1022q0 207 129 311.5
t333 104.5t336.5 -102.5t132.5 -282.5q0 -123 -71.5 -216.5t-175.5 -134.5q199 -70 241.5 -181t42.5 -189q0 -152 -112 -257t-246 -114h-105v39l109 2v336t-2 338q-7 2 -15 2h-153v37h137q14 0 31 6q2 166 2 207v456q-160 34 -295 2v-1425h-37z" />
    <glyph glyph-name="agrave" unicode="&#xe0;" horiz-adv-x="1079" 
d="M39 301q0 -85 51 -149t123 -93q2 -2 4 -2h4v500q-86 -33 -134 -103t-48 -153zM672 37v508q-82 49 -208 49t-204 -25v-524q27 -8 68 -8h344zM209 970q119 68 285 68t302 -91t136 -242v-555q0 -43 32 -78t74 -35v-37q-66 8 -106 52t-39 102v555q0 73 -45 139t-133 102l-4 2
l2 -952h-385q-125 0 -226 82q-102 82 -102 203v43q11 141 134 222q123 80 330 82q114 0 208 -46v385q-250 76 -442 -34q-125 -72 -148 -183h-39q22 135 166 216zM262 1253h281q-4 2 -30 17t-112 62q-85 47 -118 66l-21 11v-156zM223 1214v263l467 -263h-467z" />
    <glyph glyph-name="aacute" unicode="&#xe1;" horiz-adv-x="1079" 
d="M39 301q0 -85 51 -149t123 -93q2 -2 4 -2h4v500q-86 -33 -134 -103t-48 -153zM672 37v508q-82 49 -208 49t-204 -25v-524q27 -8 68 -8h344zM209 970q119 68 285 68t302 -91t136 -242v-555q0 -43 32 -78t74 -35v-37q-66 8 -106 52t-39 102v555q0 73 -45 139t-133 102l-4 2
l2 -952h-385q-125 0 -226 82q-102 82 -102 203v43q11 141 134 222q123 80 330 82q114 0 208 -46v385q-250 76 -442 -34q-125 -72 -148 -183h-39q22 135 166 216zM651 1253v156q-35 -19 -67 -37t-69 -38t-67 -36q-30 -18 -53 -30t-24 -15h280zM690 1214h-467l467 263v-263z
" />
    <glyph glyph-name="acircumflex" unicode="&#xe2;" horiz-adv-x="1079" 
d="M39 301q0 -85 51 -149t123 -93q2 -2 4 -2h4v500q-86 -33 -134 -103t-48 -153zM672 37v508q-82 49 -208 49t-204 -25v-524q27 -8 68 -8h344zM209 970q119 68 285 68t302 -91t136 -242v-555q0 -43 32 -78t74 -35v-37q-66 8 -106 52t-39 102v555q0 73 -45 139t-133 102l-4 2
l2 -952h-385q-125 0 -226 82q-102 82 -102 203v43q11 141 134 222q123 80 330 82q114 0 208 -46v385q-250 76 -442 -34q-125 -72 -148 -183h-39q22 135 166 216zM463 1204h-64l181 129l-123 88l-303 -217h-64l367 264l368 -264h-67l-148 107z" />
    <glyph glyph-name="atilde" unicode="&#xe3;" horiz-adv-x="1079" 
d="M39 301q0 -85 51 -149t123 -93q2 -2 4 -2h4v500q-86 -33 -134 -103t-48 -153zM672 37v508q-82 49 -208 49t-204 -25v-524q27 -8 68 -8h344zM209 970q119 68 285 68t302 -91t136 -242v-555q0 -43 32 -78t74 -35v-37q-66 8 -106 52t-39 102v555q0 73 -45 139t-133 102l-4 2
l2 -952h-385q-125 0 -226 82q-102 82 -102 203v43q11 141 134 222q123 80 330 82q114 0 208 -46v385q-250 76 -442 -34q-125 -72 -148 -183h-39q22 135 166 216zM139 1288q0 -21 11 -41l495 2q53 4 91 46t38 102v18q0 8 -4 19h-504q-53 -8 -90 -50t-37 -96zM264 1106
q-66 0 -114 59t-49 106q-2 85 52 142t136 57h465q-10 18 -36 40t-65 28v39q77 -10 119 -65q41 -54 40 -110q-2 -129 -113 -177q-32 -14 -68 -15h-469q37 -55 102 -67v-37z" />
    <glyph glyph-name="adieresis" unicode="&#xe4;" horiz-adv-x="1079" 
d="M39 301q0 -85 51 -149t123 -93q2 -2 4 -2h4v500q-86 -33 -134 -103t-48 -153zM672 37v508q-82 49 -208 49t-204 -25v-524q27 -8 68 -8h344zM209 970q119 68 285 68t302 -91t136 -242v-555q0 -43 32 -78t74 -35v-37q-66 8 -106 52t-39 102v555q0 73 -45 139t-133 102l-4 2
l2 -952h-385q-125 0 -226 82q-102 82 -102 203v43q11 141 134 222q123 80 330 82q114 0 208 -46v385q-250 76 -442 -34q-125 -72 -148 -183h-39q22 135 166 216zM293 1243q39 0 65 27q26 28 27 66q0 38 -27 65q-28 27 -66 27t-65 -28q-27 -26 -27 -65t28 -65q26 -26 65 -27z
M365 1441q43 -30 54 -82t-18 -95q-29 -44 -81 -56t-98 18t-56 84t19 98q30 44 83 53t97 -20zM586 1427q-39 -1 -66 -27q-26 -26 -26 -65t26 -65t66 -27q40 0 66 27q26 28 26 66t-26 64t-66 27zM596 1464q47 -6 80 -36t39 -76t-23 -91q-29 -43 -70 -51q-97 -18 -147 58
q-14 24 -19 64t29 84q35 44 93 48h18z" />
    <glyph glyph-name="aring" unicode="&#xe5;" horiz-adv-x="1079" 
d="M39 301q0 -85 51 -149t123 -93q2 -2 4 -2h4v500q-86 -33 -134 -103t-48 -153zM672 37v508q-82 49 -208 49t-204 -25v-524q27 -8 68 -8h344zM209 970q119 68 285 68t302 -91t136 -242v-555q0 -43 32 -78t74 -35v-37q-66 8 -106 52t-39 102v555q0 73 -45 139t-133 102l-4 2
l2 -952h-385q-125 0 -226 82q-102 82 -102 203v43q11 141 134 222q123 80 330 82q114 0 208 -46v385q-250 76 -442 -34q-125 -72 -148 -183h-39q22 135 166 216zM375 1305q0 -51 36 -87t87 -36t87 36t36 87t-36 87t-87 36t-87 -36t-36 -87zM338 1317q0 90 102 137
q29 12 58 12q68 0 114 -48t45 -116q0 -68 -46 -111q-45 -44 -117 -44t-114 50t-42 120z" />
    <glyph glyph-name="ae" unicode="&#xe6;" horiz-adv-x="1552" 
d="M1296 915l-2 -374h185q-9 232 -183 374zM37 306q0 -89 53 -157.5t133 -95.5l-2 508q-77 -26 -130.5 -96t-53.5 -159zM666 311q0 -106 76.5 -160.5t105.5 -68.5v864q-23 -10 -78 -59q-49 45 -104 71v-647zM1065 1001q-90 0 -178 -34v-428h370v405q-102 57 -192 57z
M448 594q-93 0 -188 -21v-530q14 -4 17 -4h350v512q-86 43 -179 43zM1055 1036q194 0 328.5 -154t134.5 -380h-631v-434l22 -9q73 -20 137 -20q135 0 264.5 74t129.5 192h35q-4 -137 -145 -220t-270 -83q-279 0 -394 197v-199h-347q-139 4 -227 96t-88 215q0 158 131.5 239
t260.5 81t227 -37l4 -2v383q-111 33 -164 33q-115 0 -238.5 -71t-148.5 -202h-35q31 146 146 225.5t282 79.5t301 -104q124 100 285 100z" />
    <glyph glyph-name="ccedilla" unicode="&#xe7;" horiz-adv-x="1034" 
d="M91 296q54 -96 130 -153v752q-76 -55 -130 -157t-54 -225q0 -121 54 -217zM379 -233v18h37q2 -47 28 -81t67 -31q42 3 68 31q27 28 25 68t-38 66t-74 19v143h20q-100 2 -194 42q-190 81 -277 268q-43 92 -43 202q0 218 151 373t373 155q129 0 245 -60t187 -175v233h39
v-303h-41q-61 123 -178 196t-250 73q-74 0 -146 -20t-118 -58v-809q120 -80 252 -80q132 -1 253 67q120 68 189 201h39q-149 -297 -465 -305v-106q59 -10 89 -56t21 -91q-9 -46 -38 -76t-74 -33q-54 -12 -101 27q-46 40 -46 102z" />
    <glyph glyph-name="egrave" unicode="&#xe8;" 
d="M821 539h183q-19 219 -183 358v-358zM221 895q-198 -161 -182 -408q16 -217 182 -344v752zM782 539v383q-123 76 -275 74t-247 -74v-383h522zM260 500v-383q188 -120 389 -61t305 251h39q-106 -217 -327 -284q-221 -68 -426 62t-236 378q-8 60 2 131q23 145 97 244
q151 198 400 202t412 -177q82 -91 115 -230q12 -44 12 -133h-782zM344 1253h281q-4 2 -30 17t-112 62q-85 47 -118 66l-21 11v-156zM305 1214v263l467 -263h-467z" />
    <glyph glyph-name="eacute" unicode="&#xe9;" 
d="M821 539h183q-19 219 -183 358v-358zM221 895q-198 -161 -182 -408q16 -217 182 -344v752zM782 539v383q-123 76 -275 74t-247 -74v-383h522zM260 500v-383q188 -120 389 -61t305 251h39q-106 -217 -327 -284q-221 -68 -426 62t-236 378q-8 60 2 131q23 145 97 244
q151 198 400 202t412 -177q82 -91 115 -230q12 -44 12 -133h-782zM733 1253v156q-35 -19 -67 -37t-69 -38q-36 -20 -67 -36q-32 -18 -54 -30t-23 -15h280zM772 1214h-467l467 263v-263z" />
    <glyph glyph-name="ecircumflex" unicode="&#xea;" 
d="M821 539h183q-19 219 -183 358v-358zM221 895q-198 -161 -182 -408q16 -217 182 -344v752zM782 539v383q-123 76 -275 74t-247 -74v-383h522zM260 500v-383q188 -120 389 -61t305 251h39q-106 -217 -327 -284q-221 -68 -426 62t-236 378q-8 60 2 131q23 145 97 244
q151 198 400 202t412 -177q82 -91 115 -230q12 -44 12 -133h-782zM543 1204h-64l180 129l-122 88l-304 -217h-63l367 264l368 -264h-67l-148 107z" />
    <glyph glyph-name="edieresis" unicode="&#xeb;" 
d="M821 539h183q-19 219 -183 358v-358zM221 895q-198 -161 -182 -408q16 -217 182 -344v752zM782 539v383q-123 76 -275 74t-247 -74v-383h522zM260 500v-383q188 -120 389 -61t305 251h39q-106 -217 -327 -284q-221 -68 -426 62t-236 378q-8 60 2 131q23 145 97 244
q151 198 400 202t412 -177q82 -91 115 -230q12 -44 12 -133h-782zM393 1243q39 0 66 27q27 28 27 66t-27 65t-66 27t-65 -28q-26 -26 -27 -65q1 -39 27 -65t65 -27zM286 1408q30 44 83 53t96 -21t54 -81q11 -52 -17 -95q-28 -44 -81 -56q-52 -12 -98 18q-47 30 -57 84t20 98
zM686 1427q-40 -1 -66 -27t-26 -65t27 -65t65 -27q38 0 66 27q26 28 26 66t-26 65q-27 26 -66 26zM696 1464q47 -6 80 -36t39 -76q5 -46 -23 -91q-28 -43 -69 -51q-98 -18 -148 58q-14 24 -19 64t30 84t92 48h18z" />
    <glyph glyph-name="igrave" unicode="&#xec;" horiz-adv-x="516" 
d="M39 1253h280q-4 2 -50 29t-117 65t-93 51l-20 11v-156zM0 1214v263l467 -263h-467zM102 39v960h-102v39h145v-1038h-145v39h102zM328 1038h39v-999h106v-39h-145v1038z" />
    <glyph glyph-name="iacute" unicode="&#xed;" horiz-adv-x="516" 
d="M371 1253v156q-21 -11 -61 -33t-75.5 -41.5t-66.5 -37t-53.5 -30t-24.5 -14.5h281zM410 1214h-467l467 263v-263zM102 39v960h-102v39h145v-1038h-145v39h102zM328 1038h39v-999h106v-39h-145v1038z" />
    <glyph glyph-name="icircumflex" unicode="&#xee;" horiz-adv-x="516" 
d="M262 1204h-63l180 129l-123 88l-303 -217h-64l367 264l369 -264h-68l-147 107zM102 39v960h-102v39h145v-1038h-145v39h102zM328 1038h39v-999h106v-39h-145v1038z" />
    <glyph glyph-name="idieresis" unicode="&#xef;" horiz-adv-x="516" 
d="M61.5 1243q38.5 0 65.5 26.5t27 65.5t-27 65.5t-65.5 26.5t-65.5 -26.5t-27 -65.5t27 -65.5t65.5 -26.5zM133 1440.5q43 -29.5 54 -81.5t-17.5 -95.5t-80.5 -55.5t-98.5 18t-56.5 84t20 98t83 53t96 -20.5zM354 1427q-39 0 -65.5 -26.5t-26.5 -65.5t26.5 -65.5
t65.5 -26.5t65.5 26.5t26.5 65.5t-26.5 65.5t-65.5 26.5zM365 1464q47 -6 79.5 -35.5t38.5 -76.5t-22.5 -90.5t-69.5 -51.5q-69 -13 -113.5 20.5t-51.5 87.5t28 98t92 48h19zM102 39v960h-102v39h145v-1038h-145v39h102zM328 1038h39v-999h106v-39h-145v1038z" />
    <glyph glyph-name="eth" unicode="&#xf0;" horiz-adv-x="970" 
d="M279 653v744q-103 -59 -173 -159t-70 -215q0 -114 67 -221q66 -107 169 -147zM453 629q79 0 151 28v744q-131 49 -287 8v-768q57 -12 136 -12zM856 379q35 120 35 351q0 230 -33 341t-82 185t-131 122v-1292q154 96 211 293zM459 37q80 0 145 26v553q-176 -58 -334 5
q-159 63 -233 223q-37 80 -37 178t38 179q75 161 247 231q82 32 176 32q173 -1 291 -121q132 -122 167 -361q13 -95 12 -177q-1 -81 -1 -139q0 -360 -174 -541q-120 -125 -286 -125q-175 0 -299 124t-151 300h35l8 -29q64 -234 250 -326q66 -32 146 -32z" />
    <glyph glyph-name="ntilde" unicode="&#xf1;" horiz-adv-x="1187" 
d="M106 39v960h-106v39h145v-1038h-145v39h106zM588 1001q-118 0 -219 -36v-926h104v-39h-143v1040h39v-34q274 86 502 -44q71 -40 120 -102t49 -149v-672h107v-39h-146v721q0 106 -119 190q-32 23 -63 39v-950h-145v39h106v926q-74 36 -192 36zM274 1288q0 -17 11 -41
l495 2q53 4 91 46t38 102v18q0 8 -4 19h-504q-53 -8 -90 -50t-37 -96zM399 1106q-68 0 -115 60q-48 60 -48 106q0 130 110 182q35 16 78 16h465q-10 18 -36 40t-65 28v39q77 -10 119 -65q41 -54 40 -110q-2 -128 -112 -177q-32 -14 -69 -15h-469q37 -55 102 -67v-37z" />
    <glyph glyph-name="ograve" unicode="&#xf2;" 
d="M819 141q76 57 130 157q55 100 55 214q0 115 -61 231q-61 115 -124 152v-754zM43 518q0 -235 174 -371v742q-174 -136 -174 -371zM260 115q113 -76 256 -76t264 76v807q-111 72 -237 77q-163 0 -283 -77v-807zM536 0q-102 0 -202 37t-174 105q-160 148 -160 371
q0 222 156 374q156 151 368 151q213 0 365 -156q153 -156 153 -362q0 -47 -8 -86q-24 -177 -169 -305q-146 -129 -329 -129zM344 1253h281q-4 2 -30 17t-112 62q-85 47 -118 66l-21 11v-156zM305 1214v263l467 -263h-467z" />
    <glyph glyph-name="oacute" unicode="&#xf3;" 
d="M819 141q76 57 130 157q55 100 55 214q0 115 -61 231q-61 115 -124 152v-754zM43 518q0 -235 174 -371v742q-174 -136 -174 -371zM260 115q113 -76 256 -76t264 76v807q-111 72 -237 77q-163 0 -283 -77v-807zM536 0q-102 0 -202 37t-174 105q-160 148 -160 371
q0 222 156 374q156 151 368 151q213 0 365 -156q153 -156 153 -362q0 -47 -8 -86q-24 -177 -169 -305q-146 -129 -329 -129zM733 1253v156q-35 -19 -67 -37t-69 -38q-36 -20 -67 -36q-32 -18 -54 -30t-23 -15h280zM772 1214h-467l467 263v-263z" />
    <glyph glyph-name="ocircumflex" unicode="&#xf4;" 
d="M819 141q76 57 130 157q55 100 55 214q0 115 -61 231q-61 115 -124 152v-754zM43 518q0 -235 174 -371v742q-174 -136 -174 -371zM260 115q113 -76 256 -76t264 76v807q-111 72 -237 77q-163 0 -283 -77v-807zM536 0q-102 0 -202 37t-174 105q-160 148 -160 371
q0 222 156 374q156 151 368 151q213 0 365 -156q153 -156 153 -362q0 -47 -8 -86q-24 -177 -169 -305q-146 -129 -329 -129zM543 1204h-64l180 129l-122 88l-304 -217h-63l367 264l368 -264h-67l-148 107z" />
    <glyph glyph-name="otilde" unicode="&#xf5;" 
d="M819 141q76 57 130 157q55 100 55 214q0 115 -61 231q-61 115 -124 152v-754zM43 518q0 -235 174 -371v742q-174 -136 -174 -371zM260 115q113 -76 256 -76t264 76v807q-111 72 -237 77q-163 0 -283 -77v-807zM536 0q-102 0 -202 37t-174 105q-160 148 -160 371
q0 222 156 374q156 151 368 151q213 0 365 -156q153 -156 153 -362q0 -47 -8 -86q-24 -177 -169 -305q-146 -129 -329 -129zM221 1288q0 -19 10 -41l496 2q53 4 91 46t38 102v18q0 8 -4 19h-504q-53 -8 -90 -50t-37 -96zM346 1106q-66 0 -114 59t-49 106q-2 84 51 141
q53 58 137 58h465q-10 18 -36 40t-65 28v39q77 -10 119 -65q41 -54 40 -110q-2 -129 -113 -177q-32 -14 -68 -15h-469q37 -55 102 -67v-37z" />
    <glyph glyph-name="odieresis" unicode="&#xf6;" 
d="M819 141q76 57 130 157q55 100 55 214q0 115 -61 231q-61 115 -124 152v-754zM43 518q0 -235 174 -371v742q-174 -136 -174 -371zM260 115q113 -76 256 -76t264 76v807q-111 72 -237 77q-163 0 -283 -77v-807zM536 0q-102 0 -202 37t-174 105q-160 148 -160 371
q0 222 156 374q156 151 368 151q213 0 365 -156q153 -156 153 -362q0 -47 -8 -86q-24 -177 -169 -305q-146 -129 -329 -129zM393 1243q39 0 66 27q27 28 27 66t-27 65t-66 27t-65 -28q-26 -26 -27 -65q1 -39 27 -65t65 -27zM286 1408q30 44 83 53t96 -21t54 -81
q11 -52 -17 -95q-28 -44 -81 -56q-52 -12 -98 18q-47 30 -57 84t20 98zM686 1427q-40 -1 -66 -27t-26 -65t27 -65t65 -27q38 0 66 27q26 28 26 66t-26 65q-27 26 -66 26zM696 1464q47 -6 80 -36t39 -76q5 -46 -23 -91q-28 -43 -69 -51q-98 -18 -148 58q-14 24 -19 64t30 84
t92 48h18z" />
    <glyph glyph-name="divide" unicode="&#xf7;" horiz-adv-x="696" 
d="M0 410h653v-39h-653v39zM401 620.5q0 38.5 -27.5 65.5t-66.5 27t-64.5 -28t-25.5 -67t26.5 -64.5t64.5 -25.5t65.5 27t27.5 65.5zM180 619q0 43 31 87t113 44q42 0 78 -40t36 -94t-42 -89t-101 -35q-53 8 -84 45.5t-31 81.5zM401 129q0 39 -27.5 65.5t-66.5 26.5
t-64.5 -27.5t-25.5 -66.5t26.5 -64.5t64.5 -25.5t65.5 26.5t27.5 65.5zM180 128q0 44 31 87t113 43q42 0 78 -40t36 -94t-42 -89t-101 -35q-53 8 -84 46t-31 82z" />
    <glyph glyph-name="oslash" unicode="&#xf8;" 
d="M1004 512q0 115 -60.5 230.5t-124.5 152.5v-754q76 57 130.5 156.5t54.5 214.5zM217 889q-174 -136 -174 -371t174 -371v742zM1042 520q0 -47 -8 -86q-24 -177 -169 -305.5t-314 -128.5q-221 0 -375 127l-121 -115l-26 25l122 114q-151 149 -151 367t155.5 369t368.5 151
q212 0 369 -159q9 -9 17 -19l132 113l21 -25l-133 -112q112 -143 112 -316zM260 115q113 -76 256 -76t264 76v581l-520 -481v-100zM543 999q-161 0 -283 -77v-659l520 479v180q-111 72 -237 77z" />
    <glyph glyph-name="ugrave" unicode="&#xf9;" horiz-adv-x="1185" 
d="M1040 1038v-999h107v-39h-146v1038h39zM780 1001h-106v37h145v-1038h-39v37q-109 -37 -197 -37q-174 0 -328 95q-153 95 -153 251v655h-102v37h145v-712q1 -78 57 -138t128 -96l-2 4v942h145v-37h-106v-925q92 -39 202 -39q111 0 211 39v925zM397 1253h281q-4 3 -26 15
q-48 27 -131 72t-103 58l-21 11v-156zM358 1214v263l467 -263h-467z" />
    <glyph glyph-name="uacute" unicode="&#xfa;" horiz-adv-x="1185" 
d="M1040 1038v-999h107v-39h-146v1038h39zM780 1001h-106v37h145v-1038h-39v37q-109 -37 -197 -37q-174 0 -328 95q-153 95 -153 251v655h-102v37h145v-712q1 -78 57 -138t128 -96l-2 4v942h145v-37h-106v-925q92 -39 202 -39q111 0 211 39v925zM786 1253v156
q-36 -19 -68 -37t-68 -38t-66 -36q-30 -18 -54 -30q-23 -12 -24 -15h280zM825 1214h-467l467 263v-263z" />
    <glyph glyph-name="ucircumflex" unicode="&#xfb;" horiz-adv-x="1185" 
d="M1040 1038v-999h107v-39h-146v1038h39zM780 1001h-106v37h145v-1038h-39v37q-109 -37 -197 -37q-174 0 -328 95q-153 95 -153 251v655h-102v37h145v-712q1 -78 57 -138t128 -96l-2 4v942h145v-37h-106v-925q92 -39 202 -39q111 0 211 39v925zM598 1204h-63l180 129
l-123 88l-303 -217h-64l367 264l369 -264h-68l-148 107z" />
    <glyph glyph-name="udieresis" unicode="&#xfc;" horiz-adv-x="1185" 
d="M1040 1038v-999h107v-39h-146v1038h39zM780 1001h-106v37h145v-1038h-39v37q-109 -37 -197 -37q-174 0 -328 95q-153 95 -153 251v655h-102v37h145v-712q1 -78 57 -138t128 -96l-2 4v942h145v-37h-106v-925q92 -39 202 -39q111 0 211 39v925zM449 1243q39 0 65 27
q26 28 27 66q0 38 -27 65q-28 27 -66 27t-65 -28q-27 -26 -27 -65t27 -65t66 -27zM341 1408q30 44 83 53t96 -21t54 -81q10 -52 -18 -95q-28 -44 -80 -56t-98 18t-56 84t19 98zM741 1427q-39 -1 -65 -27t-27 -65q0 -39 27 -65q28 -26 66 -27q38 0 65 27q27 28 27 66t-27 64
t-66 27zM752 1464q48 -6 80 -36t38 -76t-22 -91q-28 -43 -70 -51q-97 -18 -147 58q-13 24 -19 64t29 84t92 48h19z" />
    <glyph glyph-name="yacute" unicode="&#xfd;" horiz-adv-x="1169" 
d="M508 1038v-39h-100l286 -659q72 166 144 329t143 330h-102v39h247v-39h-102q-205 -488 -328 -753l-155 -352q-80 -179 -242 -175q-142 0 -218 77t-81 204h43q0 -149 126 -215q46 -25 116 -25q157 0 220 166q17 45 40 92l-432 981h-113v39h143l426 -979l103 232l-330 747
h166zM821 1253v156q-35 -19 -67 -37t-69 -38q-36 -20 -67 -36q-32 -18 -54 -30t-23 -15h280zM860 1214h-467l467 263v-263z" />
    <glyph glyph-name="thorn" unicode="&#xfe;" horiz-adv-x="1083" 
d="M0 -244h102v1678h-102v34h145v-1751h-145v39zM819 147q78 59 131.5 157.5t53.5 227.5q-4 121 -58.5 214.5t-126.5 146.5v-746zM463 39q97 0 165 15t152 63v798q-35 35 -141.5 59.5t-159.5 25.5t-106 1v-962h90zM373 0v-244h102v-39h-145v1751h39v-430q207 0 350 -45.5
t232 -184.5t89 -286q0 -203 -151 -362.5t-367 -159.5h-149z" />
    <glyph glyph-name="ydieresis" unicode="&#xff;" horiz-adv-x="1163" 
d="M508 1038v-39h-100l286 -659q72 166 144 329t143 330h-102v39h247v-39h-102q-205 -488 -328 -753l-155 -352q-80 -179 -242 -175q-142 0 -218 77t-81 204h43q0 -149 126 -215q46 -25 116 -25q157 0 220 166q17 45 40 92l-432 981h-113v39h143l426 -979l103 232l-330 747
h166zM473 1243q39 0 66 27q27 28 27 66t-27 65t-66 27t-65 -28q-26 -26 -27 -65q1 -39 27 -65t65 -27zM366 1408q30 44 83 53t96 -21t54 -81q11 -52 -17 -95q-28 -44 -81 -56q-52 -12 -99 18q-46 30 -56 84t20 98zM766 1427q-39 -1 -66 -27q-26 -26 -26 -65t26 -65t66 -27
q40 0 66 27q26 28 26 66t-26 64t-66 27zM776 1464q47 -6 80 -36t39 -76t-23 -91q-29 -43 -70 -51q-97 -18 -147 58q-14 24 -19 64t30 84t92 48h18z" />
    <glyph glyph-name="dotlessi" unicode="&#x131;" horiz-adv-x="514" 
d="M102 39v960h-102v39h145v-1038h-145v39h102zM328 1038h39v-999h106v-39h-145v1038z" />
    <glyph glyph-name="Lslash" unicode="&#x141;" horiz-adv-x="1239" 
d="M145 39v1393h-145v36h184v-1468h-184v39h145zM430 711h-8v39h8v718h182v-36h-145v-682h444v-39h-444v-672h694v391h39v-430h-770v711z" />
    <glyph glyph-name="lslash" unicode="&#x142;" horiz-adv-x="514" 
d="M328 1468h43v-718h118v-39h-118v-672h102v-39h-145v711h-183v-711h-145v39h102v672h-102v39h102v680h-102v38h145v-718h183v718z" />
    <glyph glyph-name="OE" unicode="&#x152;" horiz-adv-x="1699" 
d="M35 734q0 -319 246 -531v1071q-117 -100 -181.5 -243.5t-64.5 -296.5zM319 1296v-1124q186 -141 398 -133v1393q-106 -4 -215 -37t-183 -99zM999 0v1432h-245v-1432q-212 0 -340 62.5t-254 209.5q-160 204 -160 469q0 137 53 268.5t147.5 232.5t222.5 163.5t277 62.5h947
v-428h-37v392h-574v-678h291v225h37v-490h-37v226h-291v-676h574v389h37v-428h-648z" />
    <glyph glyph-name="oe" unicode="&#x153;" horiz-adv-x="1665" 
d="M1528 537q0 111 -49 209t-136 169v-378h185zM41 513q0 -126 56.5 -221t125.5 -147v748q-78 -59 -130 -156.5t-52 -223.5zM715 82q77 28 102 68q29 -45 80 -70v864q-28 -16 -44.5 -34.5t-33.5 -35.5q-49 49 -106 76zM936 537h371v401q-85 63 -215 63q-82 0 -156 -36v-428z
M524 999q-144 0 -264 -77v-801q130 -82 281 -82q89 0 135 27l-2 901q-85 32 -150 32zM0 518q0 212 155 365t373 153q146 0 291 -108q145 110 279 110q192 0 329.5 -151.5t137.5 -386.5h-629v-437q217 -74 373 18t178 222h37q-30 -149 -151 -226t-276 -77t-280 96
q-141 -96 -299 -96q-102 0 -196.5 41t-208 153t-113.5 324z" />
    <glyph glyph-name="Scaron" unicode="&#x160;" horiz-adv-x="1157" 
d="M0 487h37q9 -195 133 -331q139 -154 379 -154q182 0 329 90t197 264l-790 387q-113 53 -190 141t-77 204t54 191t133 125q78 50 165 75q86 25 154 25q254 -2 416 -155q57 -54 92 -132v247h37v-426h-37q-4 177 -141 303q-137 125 -363 124q-225 -1 -366 -142
q-49 -49 -82 -119l749 -364q129 -64 210 -168t83 -252q-15 -207 -188 -333t-377 -126q-228 4 -393 151q-164 148 -164 375zM55 1092q1 -94 55 -166t132 -119l841 -414q2 9 2 19v20q0 142 -89 236t-242 166l-686 335q-13 -37 -13 -77zM731 1694l148 106h67l-368 -264
l-367 264h63l304 -217l122 88l-180 129h64z" />
    <glyph glyph-name="scaron" unicode="&#x161;" horiz-adv-x="995" 
d="M84 727q0 -75 58 -133q35 -36 122 -74l635 -266q12 32 12 66q0 98 -121 174q-34 20 -67 32l-631 258v4q-8 -22 -8 -61zM41 738q0 76 47 135q91 117 254 150q74 15 131 15q128 0 246 -55t166 -156v211h43v-307h-43q-36 129 -185 206q-118 62 -235 62t-210 -45t-146 -131
q169 -69 285 -115q407 -163 454 -204q108 -80 106 -193q0 -154 -178 -241q-144 -70 -312 -70t-316 87t-148 216h43q4 -110 146 -187q143 -77 283 -77t217 33q77 34 121 66t73 79l-298 127q-138 59 -282 115q-39 19 -85 39q-102 46 -150 122q-27 42 -27 118zM649 1362
l148 106h67l-368 -264l-367 264h64l303 -217l122 88l-180 129h64z" />
    <glyph glyph-name="Ydieresis" unicode="&#x178;" horiz-adv-x="1382" 
d="M582 0h-185v39h146v663l-396 730h-147v36h170l412 -761v-707zM635 1468v-36h-123l332 -613l313 613h-139v36h328v-36h-148l-334 -654v-739h146v-39h-185v778l-381 690h191zM557 1673q39 0 66 27q27 28 27 66t-27 65t-66 27t-65 -27t-27 -66q1 -39 27 -65t65 -27z
M629 1871q43 -30 54 -82t-17 -95q-28 -44 -81 -56q-52 -12 -99 18q-46 30 -56 84t20 98t82 53t97 -20zM850 1858q-39 0 -66 -27q-26 -27 -26 -66t26 -65t66 -27q40 0 66 27q26 28 26 66t-26 65t-66 27zM860 1894q47 -6 80 -36t39 -76q6 -47 -23 -91q-29 -43 -70 -51
q-97 -18 -147 58q-14 24 -19 64t30 84t92 48h18z" />
    <glyph glyph-name="Zcaron" unicode="&#x17d;" horiz-adv-x="1130" 
d="M39 1432v-394h-39v430h1112l-731 -1429h674v389h39v-428h-775l730 1430h-275l-731 -1430h-43l733 1432h-694zM717 1694l147 106h68l-369 -264l-366 264h63l303 -217l123 88l-180 129h63z" />
    <glyph glyph-name="zcaron" unicode="&#x17e;" horiz-adv-x="980" 
d="M43 999v-266h-43v305h670l-645 -1038h-45l622 999h-559zM889 39v328h43v-367h-688l645 1038h45l-619 -999h574zM596 1362l147 106h68l-369 -264l-366 264h63l303 -217l123 88l-180 129h64z" />
    <glyph glyph-name="florin" unicode="&#x192;" horiz-adv-x="716" 
d="M328 -12v1435q-92 -27 -137.5 -93t-45.5 -138v-1436q92 27 137.5 93.5t45.5 138.5zM367 1001v-1026q-7 -117 -92.5 -187.5t-188.5 -70.5h-86v33h106v1251h-106v37h104l2 166q8 118 92.5 188t176.5 70q154 0 219 -88.5t80 -226.5h-37q-14 181 -93 228.5t-134 54.5h-43
v-392h106v-37h-106z" />
    <glyph glyph-name="circumflex" unicode="&#x2c6;" horiz-adv-x="778" 
d="M373 1204h-64l180 129l-122 88l-304 -217h-63l367 264l368 -264h-67l-148 107z" />
    <glyph glyph-name="caron" unicode="&#x2c7;" horiz-adv-x="774" 
d="M520 1362l148 106h67l-368 -264l-367 264h63l304 -217l122 88l-180 129h64z" />
    <glyph glyph-name="breve" unicode="&#x2d8;" horiz-adv-x="735" 
 />
    <glyph glyph-name="dotaccent" unicode="&#x2d9;" horiz-adv-x="296" 
d="M221 129q0 39 -27.5 65.5t-66.5 26.5t-64.5 -27.5t-25.5 -66.5t26.5 -64.5t64.5 -25.5t65.5 26.5t27.5 65.5zM0 128q0 44 31 87t112 43q43 0 79 -39t36 -94t-35 -90t-97 -35t-94 42t-32 86z" />
    <glyph glyph-name="ring" unicode="&#x2da;" horiz-adv-x="362" 
d="M37 1304.5q0 -51.5 36 -87t87 -35.5t87 35.5t36 87t-36 87t-87 35.5t-87 -35.5t-36 -87zM165 1466q63 0 108.5 -48t45.5 -116t-45.5 -111.5t-117.5 -43.5t-114 50t-42 115t51 109.5t114 44.5z" />
    <glyph glyph-name="ogonek" unicode="&#x2db;" horiz-adv-x="299" 
d="M260 -233q0 -60 -47.5 -101.5t-99.5 -27.5q-45 4 -74 33.5t-38 75.5t20.5 91t89.5 56v106h36v-143q-39 8 -74.5 -18.5t-36.5 -66.5t24.5 -68t67.5 -31t67.5 31t27.5 81h37v-18z" />
    <glyph glyph-name="tilde" unicode="&#x2dc;" horiz-adv-x="755" 
d="M39 1288q0 -19 10 -41l496 2q53 4 91 46t38 102v13q0 13 -4 24h-504q-53 -8 -90 -49.5t-37 -96.5zM164 1106q-66 0 -115 60.5t-49 106.5q0 81 52.5 139t135.5 58h465q-10 18 -35.5 40t-64.5 28v39q77 -11 118.5 -65t40.5 -110q-2 -87 -56.5 -139.5t-125.5 -52.5h-469
q37 -55 103 -67v-37z" />
    <glyph glyph-name="hungarumlaut" unicode="&#x2dd;" horiz-adv-x="614" 
 />
    <glyph glyph-name="endash" unicode="&#x2013;" horiz-adv-x="530" 
d="M0 750h489v-39h-489v39z" />
    <glyph glyph-name="emdash" unicode="&#x2014;" horiz-adv-x="712" 
d="M0 750h674v-39h-674v39z" />
    <glyph glyph-name="quoteleft" unicode="&#x2018;" horiz-adv-x="301" 
d="M137 1139q39 0 65.5 26.5t26.5 65.5t-26.5 65.5t-65.5 26.5t-64.5 -26.5t-25.5 -64.5t25.5 -65.5t64.5 -27.5zM135 1362q51 0 91 -36t40 -94t-40 -93t-100 -35t-95 49t-31 115q0 73 48 135.5t116 62.5v-32q-51 -12 -79 -38t-40 -73q39 39 90 39z" />
    <glyph glyph-name="quoteright" unicode="&#x2019;" horiz-adv-x="301" 
d="M125 1432q-39 0 -65.5 -27t-26.5 -66t26.5 -65.5t65.5 -26.5t64.5 26.5t25.5 64.5t-25.5 66t-64.5 28zM127 1208q-51 0 -91 36t-40 94t40 93t100 35t95 -48.5t31 -114.5q0 -76 -48 -137.5t-116 -61.5v33q51 12 79 37.5t40 72.5q-39 -39 -90 -39z" />
    <glyph glyph-name="quotesinglbase" unicode="&#x201a;" horiz-adv-x="307" 
d="M129 223q-39 0 -65.5 -26.5t-26.5 -65.5t26.5 -65.5t65.5 -26.5t64.5 26.5t25.5 64.5t-25.5 65.5t-64.5 27.5zM131 0q-51 0 -91 36t-40 94t40 93t100 35t95 -49t31 -115q0 -74 -47.5 -136t-116.5 -62v34q51 12 80 37t39 72q-39 -39 -90 -39z" />
    <glyph glyph-name="quotedblleft" unicode="&#x201c;" horiz-adv-x="620" 
d="M450.5 1139q38.5 0 65.5 26.5t27 65.5t-27 65.5t-65.5 26.5t-64.5 -26.5t-26 -64.5t26 -65.5t64.5 -27.5zM448 1362q52 0 92 -36t40 -94t-40 -93t-100 -35t-95.5 49t-31.5 115q0 73 48 135.5t116 62.5v-32q-51 -12 -78.5 -38t-40.5 -73q38 39 90 39zM137 1139
q39 0 65.5 26.5t26.5 65.5t-26.5 65.5t-65.5 26.5t-64.5 -26.5t-25.5 -64.5t25.5 -65.5t64.5 -27.5zM135 1362q51 0 91 -36t40 -94t-40 -93t-100 -35t-95 49t-31 115q0 73 48 135.5t116 62.5v-32q-51 -12 -79 -38t-40 -73q39 39 90 39z" />
    <glyph glyph-name="quotedblright" unicode="&#x201d;" horiz-adv-x="620" 
d="M125 1432q-39 0 -65.5 -27t-26.5 -66t26.5 -65.5t65.5 -26.5t64.5 26.5t25.5 64.5t-25.5 66t-64.5 28zM127 1208q-51 0 -91 36t-40 94t40 93t100 35t95 -48.5t31 -114.5q0 -76 -48 -137.5t-116 -61.5v33q51 12 79 37.5t40 72.5q-39 -39 -90 -39zM438 1432
q-39 0 -65.5 -27t-26.5 -66t26.5 -65.5t65.5 -26.5t64.5 26.5t25.5 64.5t-25.5 66t-64.5 28zM440 1208q-51 0 -91 36t-40 94t39.5 93t99.5 35t95.5 -48.5t31.5 -114.5q0 -76 -48 -137.5t-115 -61.5v33q51 12 78.5 37.5t39.5 72.5q-39 -39 -90 -39z" />
    <glyph glyph-name="quotedblbase" unicode="&#x201e;" horiz-adv-x="612" 
d="M436 223q-39 0 -65.5 -26.5t-26.5 -65.5t26.5 -65.5t65.5 -26.5t64.5 26.5t25.5 64.5t-25.5 65.5t-64.5 27.5zM438 0q-51 0 -91 36t-40 94t39.5 93t99.5 35t95.5 -49t31.5 -115q0 -74 -47.5 -136t-115.5 -62v34q51 12 79.5 37t38.5 72q-39 -39 -90 -39zM129 223
q-39 0 -65.5 -26.5t-26.5 -65.5t26.5 -65.5t65.5 -26.5t64.5 26.5t25.5 64.5t-25.5 65.5t-64.5 27.5zM131 0q-51 0 -91 36t-40 94t40 93t100 35t95 -49t31 -115q0 -74 -47.5 -136t-116.5 -62v34q51 12 80 37t39 72q-39 -39 -90 -39z" />
    <glyph glyph-name="dagger" unicode="&#x2020;" horiz-adv-x="489" 
d="M2 778v39h203v412h39v-412h207v-39h-207v-1063h-39v1063h-203z" />
    <glyph glyph-name="daggerdbl" unicode="&#x2021;" horiz-adv-x="495" 
d="M2 573v39h203v166h-203v39h203v412h39v-412h207v-39h-207v-166h207v-39h-207v-858h-39v858h-203z" />
    <glyph glyph-name="bullet" unicode="&#x2022;" horiz-adv-x="360" 
d="M39 737q0 -51 36 -87t87 -36t87 36t36 87t-36 87t-87 36t-87 -36t-36 -87zM2 750q0 92 65.5 120.5t94.5 28.5q68 0 114 -48t46 -116t-46 -111.5t-118 -43.5t-114 50t-42 120z" />
    <glyph glyph-name="ellipsis" unicode="&#x2026;" horiz-adv-x="890" 
d="M815 129q0 39 -27.5 65.5t-66.5 26.5t-64.5 -27.5t-25.5 -66.5t26.5 -64.5t64.5 -25.5t65.5 26.5t27.5 65.5zM594 128q0 44 31 87t112 43q43 0 79 -39t36 -94t-35 -90t-97 -35t-94 42t-32 86zM518 129q0 39 -27.5 65.5t-66.5 26.5t-64.5 -27.5t-25.5 -66.5t26.5 -64.5
t64.5 -25.5t65.5 26.5t27.5 65.5zM297 128q0 44 31 87t112 43q43 0 79 -39t36 -94t-35.5 -90t-97.5 -35t-93.5 42t-31.5 86zM221 129q0 39 -27.5 65.5t-66.5 26.5t-64.5 -27.5t-25.5 -66.5t26.5 -64.5t64.5 -25.5t65.5 26.5t27.5 65.5zM0 128q0 44 31 87t112 43q43 0 79 -39
t36 -94t-35 -90t-97 -35t-94 42t-32 86z" />
    <glyph glyph-name="perthousand" unicode="&#x2030;" horiz-adv-x="636" 
d="M565 160q0 51 -34.5 87t-86.5 36t-88.5 -36t-36.5 -87t36 -87t87.5 -36t87 36t35.5 87zM283 159q0 65 44.5 112.5t112.5 47.5t114 -44t46 -109t-44.5 -115.5t-111.5 -50.5h-14q-59 4 -103 49t-44 110zM37 1308.5q0 -51.5 34.5 -87t86 -35.5t87.5 35.5t36 87t-34 87.5
t-85 36t-88 -36t-37 -87.5zM165 1468q73 0 112.5 -48t39.5 -110t-44.5 -111.5t-112.5 -49.5t-114 44t-46 113t46 115.5t119 46.5zM600 1468l-557 -1468h-43l559 1468h41z" />
    <glyph glyph-name="guilsinglleft" unicode="&#x2039;" horiz-adv-x="366" 
d="M367 399v-45l-367 344v43l367 334v-47l-328 -309z" />
    <glyph glyph-name="guilsinglright" unicode="&#x203a;" horiz-adv-x="409" 
d="M328 719l-328 309v47l367 -334v-43l-367 -344v45z" />
    <glyph glyph-name="fraction" unicode="&#x2044;" horiz-adv-x="301" 
d="M31 0h-31l225 1466h37z" />
    <glyph glyph-name="Euro" unicode="&#x20ac;" horiz-adv-x="1044" 
d="M145 567v-151q0 -104 70 -202t176 -146v499h-246zM566 33q76 0 149 32.5t155.5 116.5t92.5 242h36q0 -174 -134.5 -299t-313.5 -125t-310.5 126t-131.5 314v127h-109v39h719v-39h-291v-514q62 -20 138 -20zM391 901v500q-107 -50 -176.5 -147.5t-69.5 -200.5v-152h246z
M567 1436q-74 0 -139 -21v-514h291v-39h-719v39h109v127q0 187 130.5 313.5t311.5 126.5t314.5 -125t133.5 -299h-36q-8 158 -91.5 242t-157 117t-147.5 33z" />
    <glyph glyph-name="trademark" unicode="&#x2122;" horiz-adv-x="1976" 
d="M1944 1468v-34h-103v-961h103v-39h-138v1034h138zM926 473h102v-39h-231v39h94v961h-94v34h131l346 -968l74 239l-258 729h43l235 -688l238 688h45v-1034h-133v39h98v911l-330 -950h-29l-331 932v-893zM463 434v1034h307v-301h-35v267h-235v-961h102v-39h-139zM311 434
h-141v39h102v961h-235v-267h-37v301h311v-1034z" />
    <glyph glyph-name="minus" unicode="&#x2212;" horiz-adv-x="534" 
d="M0 410h489v-39h-487q-2 0 -2 2v37z" />
    <glyph glyph-name="fi" unicode="&#xfb01;" horiz-adv-x="1232" 
d="M328 0v1423q-92 -27 -138 -93q-45 -67 -45 -138v-1192h-145v39h102v960h-102v39h102v166q7 117 93 187q86 71 179 71t145 -28q101 -56 133 -176q15 -56 22 -111h-37q-13 179 -131 252q-41 25 -96 31h-39v-392h102v-39h-102v-960h102v-39h-145zM819 39v960h-102v39h145
v-1038h-145v39h102zM1044 1038h39v-999h107v-39h-146v1038zM1065 1322q0 46 -33 78t-79 32q-45 0 -77 -33t-32 -79t32 -79t78 -33t79 34q32 34 32 80zM805 1324q0 64 46 104t91 40q106 0 149 -94q11 -27 11 -53q0 -61 -44 -105t-106 -45q-62 0 -104 44q-43 44 -43 109z" />
    <glyph glyph-name="fl" unicode="&#xfb02;" horiz-adv-x="1230" 
d="M328 0v1423q-92 -27 -138 -93q-45 -67 -45 -138v-1192h-145v39h102v960h-102v39h102v166q7 117 93 187q86 71 179 71t145 -28q101 -56 133 -176q15 -56 22 -111h-37q-13 179 -131 252q-41 25 -96 31h-39v-392h102v-39h-102v-960h102v-39h-145zM819 39v1391h-102v38h145
v-1468h-145v39h102zM1044 1468h43v-1429h103v-39h-146v1468z" />
    <glyph glyph-name="glyph227" horiz-adv-x="0" 
d="M-1081 37h-103v964h103v-964z" />
    <glyph glyph-name="glyph228" horiz-adv-x="0" 
 />
    <glyph glyph-name="percent" horiz-adv-x="634" 
d="M565 160q0 51 -34.5 87t-86.5 36t-88.5 -36t-36.5 -87t36 -87t87.5 -36t87 36t35.5 87zM283 159q0 65 44.5 112.5t112.5 47.5t114 -44t46 -109t-44.5 -115.5t-111.5 -50.5h-14q-59 4 -103 49t-44 110zM37 1308.5q0 -51.5 34.5 -87t86 -35.5t87.5 35.5t36 87t-34 87.5
t-85 36t-88 -36t-37 -87.5zM165 1468q73 0 112.5 -48t39.5 -110t-44.5 -111.5t-112.5 -49.5t-114 44t-46 113t46 115.5t119 46.5zM600 1468l-557 -1468h-43l559 1468h41z" />
  </font>
</defs>
</svg>
