<?xml version="1.0" standalone="no"?>
<!DOCTYPE svg PUBLIC "-//W3C//DTD SVG 1.1//EN" "http://www.w3.org/Graphics/SVG/1.1/DTD/svg11.dtd" >
<svg xmlns="http://www.w3.org/2000/svg">
<metadata>
Created by FontPrep 20130207 at Fri May 23 23:11:00 2014
 By Victor
Copyright (c) 2014 by Antonio Rodrigues Jr. All rights reserved.
</metadata>
<defs>
<font id="f7baa01ac14ddb98749b4d947537e101" horiz-adv-x='1024' >
  <font-face 
    font-family="SlaberlinBold"
    font-weight="400"
    font-stretch="normal"
    units-per-em="2048"
    panose-1="2 0 5 6 0 0 0 2 0 2"
    ascent="1536"
    descent="-512"
    x-height="1020"
    cap-height="1434"
    bbox="-82 -469 2021.21 1870"
    underline-thickness="102"
    underline-position="-102"
    unicode-range="U+0020-2212"
  />
<missing-glyph horiz-adv-x="516" 
 />
    <glyph glyph-name=".notdef" horiz-adv-x="516" 
 />
    <glyph glyph-name=".null" horiz-adv-x="0" 
 />
    <glyph glyph-name="nonmarkingreturn" horiz-adv-x="681" 
 />
    <glyph glyph-name="space" unicode=" " horiz-adv-x="516" 
 />
    <glyph glyph-name="exclam" unicode="!" horiz-adv-x="325" 
d="M274 367h-225v1063h225v-1063zM41 120q0 54 34 88t88 34t88 -34t34 -88t-34 -87t-88 -33t-88 33t-34 87z" />
    <glyph glyph-name="quotedbl" unicode="&#x22;" horiz-adv-x="483" 
d="M215 862h-160l-14 570h190zM424 862h-156l-22 570h196z" />
    <glyph glyph-name="numbersign" unicode="#" horiz-adv-x="942" 
d="M551 592h-119l-20 -94q-2 -10 -5.5 -19.5t-5.5 -19.5l-8 -39h119zM694 436l-2 -10v-6h209v-180h-242q-14 -55 -22 -95l2 2l-29 -147h-184l51 240h-121q-4 -20 -8 -39t-6 -39l-16 -68q-4 -16 -8.5 -47t-8.5 -47h-176l43 240h-135v180h172q4 23 10 47.5t10 44.5l17 80h-209
v182h250l14 80l33 158h178l-47 -238h119l28 133l17 105h182l-51 -238h137v-182h-174l-6 -27q-4 -12 -6 -25.5t-6 -39.5z" />
    <glyph glyph-name="dollar" unicode="$" horiz-adv-x="1034" 
d="M322 911q0 -82 114 -131v248q-114 -25 -114 -117zM768 342q0 59 -36 94t-93 58v-275q129 31 129 123zM252 4h-211v371h162q107 -124 233 -156v330q-163 52 -221.5 99.5t-87.5 105.5t-29 128q0 145 82.5 240t255.5 113v195h203v-195q76 -10 141 -39v39h211v-344l-162 -4
q-79 112 -190 137v-305q173 -49 235 -98.5t90.5 -108.5t28.5 -150q0 -305 -354 -348v-202h-203v198q-81 7 -184 47v-53z" />
    <glyph glyph-name="uni0025" unicode="%" horiz-adv-x="1044" 
d="M541 1175q0 -95 -58.5 -160t-169.5 -65t-174 66t-63 160t62 157.5t174 63.5t170.5 -63.5t58.5 -158.5zM307 1106q66 0 66 70.5t-66 70.5q-61 -1 -61 -71t61 -70zM258 0h-217l745 1397h218zM987 224q0 -95 -58.5 -159.5t-172.5 -64.5q-162 0 -198 89t-36 134
q0 96 61.5 159.5t174.5 63.5t171 -63.5t58 -158.5zM757.5 156q61.5 0 61.5 70.5t-61.5 70t-61.5 -70.5t61.5 -70z" />
    <glyph glyph-name="ampersand" unicode="&#x26;" horiz-adv-x="1335" 
d="M705 1109q0 56 -38.5 93t-92.5 37t-92 -35t-38 -76t21.5 -76.5t56.5 -82.5l31 -35q72 41 112 80t40 95zM283 414q-1 -82 65 -153t162 -71q162 0 270 101l-307 371q-98 -59 -144 -112.5t-46 -135.5zM1294 850v-211h-120q-14 -111 -41 -178q-26 -96 -62 -156
q20 -25 35.5 -47t38.5 -47h149v-211h-280l-101 119q-168 -131 -388 -131t-353 121q-131 125 -131 305q0 127 73.5 223t229.5 188q-63 86 -96 151.5t-33 125.5q0 141 107 235q120 97 263 97t253 -95q98 -93 98 -213t-63.5 -195t-190.5 -153q31 -39 85 -100.5t146 -179.5
l15 37q17 33 26 104h-127v211h467z" />
    <glyph glyph-name="quotesingle" unicode="'" horiz-adv-x="272" 
d="M215 893h-160l-14 539h190z" />
    <glyph glyph-name="parenleft" unicode="(" horiz-adv-x="626" 
d="M238 678q0 -353 137 -566.5t211 -306.5h-215q-144 181 -207.5 323t-93 269t-29.5 439t330 714h215q-348 -433 -348 -872z" />
    <glyph glyph-name="parenright" unicode=")" horiz-adv-x="624" 
d="M496.5 206q-87.5 -203 -240.5 -401h-215q348 433 348 873t-348 872h215q155 -201 241.5 -401.5t86.5 -470t-87.5 -472.5z" />
    <glyph glyph-name="asterisk" unicode="*" horiz-adv-x="811" 
d="M319 1432h173v-248l231 73l47 -155l-227 -84l149 -195l-129 -98l-155 195l-152 -191l-135 92l141 203l-221 82l53 154l225 -76v248z" />
    <glyph glyph-name="plus" unicode="+" horiz-adv-x="991" 
d="M406 61v365h-365v180h365v365h178v-365h366v-180h-366v-365h-178z" />
    <glyph glyph-name="comma" unicode="," horiz-adv-x="421" 
d="M41 -274l141 538h199l-152 -538h-188z" />
    <glyph glyph-name="hyphen" unicode="-" horiz-adv-x="534" 
d="M41 420v188h453v-188h-453z" />
    <glyph glyph-name="period" unicode="." horiz-adv-x="339" 
d="M41 128q0 56 35 94t91 38t94 -38t38 -94t-38 -92t-94 -36t-91 36t-35 92z" />
    <glyph glyph-name="slash" unicode="/" horiz-adv-x="808" 
d="M41 0l537 1430h190l-539 -1430h-188z" />
    <glyph glyph-name="zero" unicode="0" horiz-adv-x="1097" 
d="M854 683q0 229 -86.5 367t-220.5 138t-224 -137t-90 -368t89.5 -370t223.5 -139q135 0 221.5 140t86.5 369zM183.5 173.5q-142.5 189.5 -142.5 508.5t142.5 511.5t365.5 192.5t365.5 -192t142.5 -512q0 -319 -142.5 -508.5t-365.5 -189.5t-365.5 189.5z" />
    <glyph glyph-name="one" unicode="1" 
d="M377 1401v-1194h133v-207h-469v207h129v987h-129v207h336z" />
    <glyph glyph-name="two" unicode="2" horiz-adv-x="946" 
d="M438 1188q-140 0 -207 -127h-190v336h205v-41q88 41 189 41q197 0 314 -120.5t117 -313.5q0 -158 -103.5 -288t-141.5 -173l-271 -301h348v137h207v-338h-848v190q376 407 451.5 504t113 158t37.5 135t-58 137.5t-163 63.5z" />
    <glyph glyph-name="three" unicode="3" horiz-adv-x="1017" 
d="M977 406q0 -199 -142 -308.5t-352 -109.5q-133 0 -235.5 46t-206.5 152l166 142q110 -146 276 -146q131 0 206 58.5t75 169.5t-92 167t-258 56h-82v205h86q123 0 203.5 50t80.5 138t-65.5 138t-155.5 50t-147.5 -28.5t-110.5 -89.5l-153 -2v303h206v-19q95 31 193 31
q201 0 326 -96.5t125 -278.5t-156 -284q213 -102 213 -344z" />
    <glyph glyph-name="four" unicode="4" horiz-adv-x="1054" 
d="M676 563v29v108l-2 310l-334 -447h336zM1014 207v-207h-467v207h129v147h-635v152l668 893h176v-836h119v-209h-119v-147h129z" />
    <glyph glyph-name="five" unicode="5" horiz-adv-x="1028" 
d="M447 762q-147 0 -316 -49l23 688h739v-338h-207v127h-326q-2 -51 -5 -109.5t-5 -117.5q29 2 36 2h77q362 0 443 -171.5t81 -283.5q0 -211 -142.5 -364.5t-352.5 -153.5q-139 0 -244 50t-207 146l164 150q104 -137 287 -137q123 0 205.5 84.5t82.5 209.5t-93 196t-240 71z
" />
    <glyph glyph-name="six" unicode="6" horiz-adv-x="1038" 
d="M252 506q0 -48 19.5 -110t76 -137t181.5 -75q124 0 193 76t69 192.5t-70 181t-161 64.5q-163 0 -304 -125q-4 -19 -4 -67zM311 850q98 55 267 55t294 -123t125 -327.5t-129 -335.5t-349 -131t-349 161t-129 406q0 306 190 546.5t588 313.5l60 -184q-447 -102 -568 -381z
" />
    <glyph glyph-name="seven" unicode="7" horiz-adv-x="956" 
d="M246 1190v-127h-205v338h874v-146l-426 -1255h-239l405 1190h-409z" />
    <glyph glyph-name="eight" unicode="8" horiz-adv-x="1075" 
d="M311 1030q0 -80 64.5 -129t163.5 -59q94 10 159.5 60t65.5 130t-66.5 128t-162.5 48h-5q-92 -4 -155.5 -51t-63.5 -127zM258 406q0 -66 27 -113q45 -51 111 -79t138 -28t144 30t119 83q20 46 20 107q0 98 -75.5 154t-204.5 69q-279 -21 -279 -223zM41 406q0 238 213 344
q-154 101 -154 284q0 184 125.5 279.5t317.5 95.5h8q74 0 133 -20q131 -31 211 -117t80 -234q0 -187 -154 -288q213 -102 213 -344q0 -179 -116 -287t-295 -125l-27 -4l-18 -2h-64l-61 6q-175 21 -293.5 128t-118.5 284z" />
    <glyph glyph-name="nine" unicode="9" horiz-adv-x="1038" 
d="M786 892q0 46 -19 108.5t-76 137t-182 74.5q-124 0 -192.5 -75.5t-68.5 -192.5t69.5 -181.5t160.5 -64.5q162 0 304 123q4 25 4 71zM727 547q-98 -55 -266 -55q-169 0 -294.5 122t-125.5 326.5t129 337.5t348 133t349 -162.5t130 -406.5q0 -307 -192.5 -548.5
t-587.5 -311.5l-57 184q449 102 567 381z" />
    <glyph glyph-name="colon" unicode=":" horiz-adv-x="339" 
d="M41 888q0 56 35 94t91 38t94 -38t38 -94t-38 -91t-94 -35t-91 35t-35 91zM41 128q0 56 35 94t91 38t94 -38t38 -94t-38 -92t-94 -36t-91 36t-35 92z" />
    <glyph glyph-name="semicolon" unicode=";" horiz-adv-x="438" 
d="M139 888q0 56 36 94t92 38t93 -38t37 -94t-36.5 -91t-92.5 -35t-92.5 35t-36.5 91zM41 -289l149 539h199l-151 -539h-197z" />
    <glyph glyph-name="less" unicode="&#x3c;" horiz-adv-x="610" 
d="M338 123l-297 356l297 357h231l-276 -357l47 -61q103 -118 225 -295h-227z" />
    <glyph glyph-name="equal" unicode="=" horiz-adv-x="937" 
d="M41 635v203h856v-203h-856zM41 266v197h856v-197h-856z" />
    <glyph glyph-name="greater" unicode="&#x3e;" horiz-adv-x="612" 
d="M41 123l274 354l-102 129l-172 230h233l297 -357l-297 -356h-233z" />
    <glyph glyph-name="question" unicode="?" horiz-adv-x="851" 
d="M811 1038q0 -206 -307 -420v-323h-199l-6 448q168 103 215 146t63.5 75.5t16.5 73.5q0 80 -50 120t-124 40t-124 -29.5t-101 -91.5h-154v320h205v-27q91 31 173 31q170 0 281 -93t111 -270zM276 126q0 54 36 91t90 37t91 -37t37 -91t-36.5 -90t-90.5 -36t-90.5 36
t-36.5 90z" />
    <glyph glyph-name="at" unicode="@" horiz-adv-x="1374" 
d="M1192 199q-203 -199 -508 -199t-474 191t-169 495t171 505.5t467 201.5q297 0 475.5 -178.5t178.5 -473.5q0 -173 -63.5 -279.5t-161.5 -137.5zM369 1079q-131 -143 -131 -377t116 -375t336 -141q102 0 187.5 27t164.5 98h-16q-113 0 -166 64q-93 -78 -226 -78
q-132 0 -215 71.5t-83 200.5t91 199t228 70q81 0 166 -23v21q0 115 -145 114q-93 0 -172 -96h-135v225zM680 1139q154 0 245 -74t91 -217v-348q0 -12 16 -12q41 -1 69.5 56.5t28.5 181.5q0 235 -121.5 360.5t-324.5 125.5q-139 0 -254 -77h145v-5q52 9 105 9zM697 655
q-169 0 -169 -87t123 -87q93 0 170 90v58q-76 26 -124 26z" />
    <glyph glyph-name="A" unicode="A" horiz-adv-x="1456" 
d="M582 631h290q-52 154 -87 249t-58 160zM545 221v-221h-504v221h147q45 129 89.5 251t88.5 244t87 244.5t90 251.5h-123v222h411l431 -1213h153v-221h-504v221h109l-70 191h-444q-43 -115 -70 -191h109z" />
    <glyph glyph-name="B" unicode="B" horiz-adv-x="1273" 
d="M406 1212v-360h350q78 0 129 52t51 128t-51 128t-129 52h-350zM406 221h401q83 0 146 65t63 150t-61 140t-148 55h-401v-410zM1233 434q0 -187 -125.5 -310.5t-302.5 -123.5h-758v221h137v991h-143v222h713q166 0 283.5 -119t117.5 -274t-100 -273q82 -59 130 -147.5
t48 -186.5z" />
    <glyph glyph-name="C" unicode="C" horiz-adv-x="1253" 
d="M1212 256q-223 -264 -527 -264q-313 0 -478.5 216t-165.5 517q0 302 164.5 514.5t474.5 212.5q168 0 295 -66l6 -2v50h221v-369h-166q-80 100 -165 133t-191 33t-185 -42t-131.5 -112.5t-77 -163t-24.5 -249.5t108.5 -305t313.5 -148q100 0 189.5 40t177.5 148z" />
    <glyph glyph-name="D" unicode="D" horiz-adv-x="1443" 
d="M705 1212h-302v-991h302q230 0 352.5 133t122.5 366q0 232 -127 362t-348 130zM184 1212h-143v222h674q336 0 512 -202t176 -514q0 -311 -178.5 -514.5t-509.5 -203.5h-668v221h137v991z" />
    <glyph glyph-name="E" unicode="E" horiz-adv-x="1173" 
d="M41 1212v222h1085v-349h-221v127h-502v-358h220v133h221v-483h-221v129h-220v-412h508v127h222v-348h-1088v221h139l-2 991h-141z" />
    <glyph glyph-name="F" unicode="F" horiz-adv-x="1110" 
d="M41 1212v222h1028v-349h-219v127h-444v-358h161v133h219v-483h-219v129h-161v-412h139v-221h-498v221h137l-2 991h-141z" />
    <glyph glyph-name="G" unicode="G" horiz-adv-x="1257" 
d="M1217 238q-213 -246 -513 -246q-312 0 -487.5 217t-175.5 517q0 301 164.5 513.5t472.5 212.5q162 0 293 -61v-2q0 -2 2 -3h4v48h221v-369h-162q-80 100 -165 133t-191 33t-185 -42t-131.5 -112.5t-77 -163t-24.5 -247.5t116.5 -305t312.5 -150t306 100v322h-387v221h607
v-616z" />
    <glyph glyph-name="H" unicode="H" horiz-adv-x="1398" 
d="M182 1212h-141v222h504v-222h-142v-358h594v358h-143v222h504v-222h-141v-991h137v-221h-494v221h137v412h-594v-412h136v-221h-492v221h135v991z" />
    <glyph glyph-name="I" unicode="I" horiz-adv-x="583" 
d="M182 1212h-141v222h502v-222h-142v-991h138v-221h-494v221h137v991z" />
    <glyph glyph-name="J" unicode="J" horiz-adv-x="1089" 
d="M1049 1434v-222h-148v-774q0 -225 -110.5 -339.5t-321.5 -114.5q-134 0 -229.5 56.5t-198.5 192.5l168 156q57 -88 122 -136t165 -48q184 0 184 235v772h-135v222h504z" />
    <glyph glyph-name="K" unicode="K" horiz-adv-x="1380" 
d="M182 1212h-141v222h504v-222h-142v-471l469 471h-36v222h503v-222h-170l-477 -477l490 -514h151v-221h-491v221h35l-474 508v-508h136v-221h-492v221h135v991z" />
    <glyph glyph-name="L" unicode="L" horiz-adv-x="1116" 
d="M182 1212h-141v222h504v-222h-142v-991h453v127h219v-348h-1028v221h135v991z" />
    <glyph glyph-name="M" unicode="M" horiz-adv-x="1646" 
d="M1464 221h135v-221h-491v221h135v731q-84 -131 -161.5 -256t-161.5 -254l-99 -155l-418 663v-729h136v-221h-492v221h133v991h-139v222h309l471 -752l473 752h312v-222h-142v-991z" />
    <glyph glyph-name="N" unicode="N" horiz-adv-x="1523" 
d="M1130 1212h-139v222h492v-222h-135v-1212h-179l-772 1022v-739l4 -62h138v-221h-492v221h133v991h-139v222h313l776 -1022v800z" />
    <glyph glyph-name="O" unicode="O" horiz-adv-x="1423" 
d="M1203 202.5q-179 -212.5 -491.5 -212.5t-491.5 212.5t-179 520.5t178 518.5t492.5 210.5t492.5 -210.5t178 -518.5t-179 -520.5zM1159 721q0 102 -28.5 194.5t-85 163t-140.5 111.5t-194.5 41t-193.5 -41t-139 -110.5t-85 -162t-29 -194.5t29 -195.5t85 -164t139 -111.5
t193.5 -41t194.5 41t140.5 110.5t85 163t28.5 195.5z" />
    <glyph glyph-name="P" unicode="P" horiz-adv-x="1193" 
d="M403 801h324q84 0 144.5 60.5t60.5 143.5t-59 145t-146 62h-324v-411zM182 1212h-141v222h686q175 0 300.5 -127t125.5 -301q0 -175 -124 -300.5t-302 -125.5h-324v-359h136v-221h-492v221h135v991z" />
    <glyph glyph-name="Q" unicode="Q" horiz-adv-x="1423" 
d="M1159 721q0 102 -28.5 194.5t-85 163t-140.5 111.5t-194.5 41t-193.5 -41t-139 -110.5t-85 -162t-29 -194.5t29 -195.5t85 -164t139 -111.5t193.5 -41t194.5 41t140.5 110.5t85 163t28.5 195.5zM1382 739q0 -249 -106 -437.5t-307 -264.5q20 -29 76 -96t104 -136h-256
l-141 187q-10 -2 -12 -2h-29q-312 0 -491 212.5t-179 520.5t178 518.5t492.5 210.5t450.5 -161t178 -293t42 -259z" />
    <glyph glyph-name="R" unicode="R" horiz-adv-x="1304" 
d="M403 801h324q83 0 145 60t62 144t-60.5 145.5t-146.5 61.5h-324v-411zM1264 221v-221h-492v221h86l-199 359h-256v-359h136v-221h-494v221h137v991h-141v222h686q175 0 300.5 -127t125.5 -301q0 -129 -70.5 -232.5t-181.5 -157.5l211 -395h152z" />
    <glyph glyph-name="S" unicode="S" horiz-adv-x="1087" 
d="M41 0v369l154 2q51 -72 140 -114t177 -42q151 0 230 47.5t79 120.5q0 132 -135 181.5t-192 68.5l-41 14q-72 25 -227.5 87.5t-155.5 320.5t174 321.5t306 63.5t245 -41v35h221v-377h-164l-16 30q-107 132 -287 132q-121 0 -186.5 -46.5t-65.5 -113.5q0 -92 113.5 -139.5
t162.5 -65.5l39 -12q174 -59 259 -126t130.5 -138.5t45.5 -169.5q0 -196 -145 -307t-370 -111q-145 0 -270 53v-43h-221z" />
    <glyph glyph-name="T" unicode="T" horiz-adv-x="1261" 
d="M41 1085v349h1180v-349h-222v127h-251v-991h135v-221h-494v221h135v991h-262v-127h-221z" />
    <glyph glyph-name="U" unicode="U" horiz-adv-x="1527" 
d="M182 1212h-141v222h504v-222h-142v-706q0 -140 86 -212t230 -85q6 -2 12 -2h64q53 0 191 44.5t138 254.5v706h-141v222h504v-222h-141v-729q-8 -206 -142.5 -336.5t-343.5 -154.5l-72 -6h-26q-154 0 -361 93.5t-219 403.5v729z" />
    <glyph glyph-name="V" unicode="V" horiz-adv-x="1466" 
d="M41 1212v222h504v-222h-105q42 -123 111.5 -313t105 -291.5t76.5 -216.5q37 104 74 205.5t72.5 202t71.5 203t75 210.5h-104v222h503v-222h-157l-430 -1212h-209l-432 1212h-156z" />
    <glyph glyph-name="W" unicode="W" horiz-adv-x="2029" 
d="M41 1212v222h504v-222h-111q29 -102 53.5 -191t49 -175t50 -177t56.5 -200l266 965h217l269 -961l204 739h-114v222h504v-222h-152q-80 -293 -338 -1212h-209l-268 963q-148 -512 -274 -963h-216l-342 1212h-149z" />
    <glyph glyph-name="X" unicode="X" horiz-adv-x="1363" 
d="M1319 221v-221h-492v221h60q-49 72 -99.5 146.5t-105.5 154.5l-209 -301h59v-221h-491v221h158l350 502l-344 489h-160v222h504v-222h-68q53 -76 97.5 -142t103.5 -150q29 43 52.5 76.5t52.5 77.5t94 138h-62v222h504v-222h-164l-344 -489l352 -502h152z" />
    <glyph glyph-name="Y" unicode="Y" horiz-adv-x="1357" 
d="M922 221v-221h-492v221h139v449l-366 542h-162v222h504v-222h-74q55 -78 102.5 -143t106.5 -151q106 150 143 199.5t68 94.5h-78v222h504v-222h-158l-366 -540l-2 -451h131z" />
    <glyph glyph-name="Z" unicode="Z" horiz-adv-x="1146" 
d="M274 1212v-127h-221v349h1004v-191l-709 -1022h537v127h221v-348h-1065v193l713 1019h-480z" />
    <glyph glyph-name="bracketleft" unicode="[" horiz-adv-x="403" 
d="M41 -188v1747h321v-173h-141v-1402h141v-172h-321z" />
    <glyph glyph-name="backslash" unicode="\" horiz-adv-x="808" 
d="M578 4l-537 1397h188l539 -1397h-190z" />
    <glyph glyph-name="bracketright" unicode="]" horiz-adv-x="403" 
d="M41 -188v172h143v1402h-143v173h321v-1747h-321z" />
    <glyph glyph-name="asciicircum" unicode="^" horiz-adv-x="747" 
d="M373 1245l-84 -102h-248l242 289h184l240 -289h-246z" />
    <glyph glyph-name="underscore" unicode="_" horiz-adv-x="1103" 
d="M41 -393v180h1022v-180h-1022z" />
    <glyph glyph-name="grave" unicode="`" 
d="M283 1112l-242 289h227l242 -289h-227z" />
    <glyph glyph-name="a" unicode="a" horiz-adv-x="1060" 
d="M476 446q-228 0 -228 -147q0 -121 174 -121t260 115v131q-49 18 -102.5 20t-103.5 2zM485 647q123 0 197 -18v24q0 90 -57.5 137.5t-140.5 47.5t-131 -18.5t-99 -82.5h-150v287h207v-14q74 22 163 22q187 -1 301 -96t114 -268v-461h131v-207h-338v49q-57 -39 -127.5 -49
t-148.5 -10q-161 0 -263 79.5t-102 239.5t87 227.5t160.5 89t196.5 21.5z" />
    <glyph glyph-name="b" unicode="b" horiz-adv-x="1112" 
d="M858 518q0 154 -88 240t-242 86q-76 0 -149 -25v-614q72 -21 166 -21q147 0 230 90t83 244zM551 1034q90 0 186.5 -29.5t215 -132t118.5 -344.5q0 -243 -145.5 -388.5t-390.5 -145.5q-88 0 -156 10v-4h-338v207h129v987h-129v207h338v-387q82 20 172 20z" />
    <glyph glyph-name="c" unicode="c" horiz-adv-x="974" 
d="M528 184q151 0 275 140l131 -140q-84 -88 -180.5 -139t-227.5 -51q-242 0 -363.5 150.5t-121.5 374.5q0 223 125.5 369t353.5 146q101 0 195 -37v25h207v-303h-154q-112 125 -247.5 125t-202 -91t-66.5 -235q0 -222 101.5 -278t174.5 -56z" />
    <glyph glyph-name="d" unicode="d" horiz-adv-x="1112" 
d="M567 184q108 0 168 19v616q-74 25 -149 25q-154 0 -242 -86t-88 -240t82 -244t229 -90zM562 1034q91 0 173 -20v180h-127v207h336l-2 -168v-1026h129v-207h-336v6q-78 -12 -179 -12t-201.5 39t-207 145.5t-106.5 349.5t155 374.5t366 131.5z" />
    <glyph glyph-name="e" unicode="e" horiz-adv-x="1003" 
d="M752 643q-10 92 -67.5 146.5t-171.5 52.5t-167 -55.5t-80 -143.5h486zM543 182q154 0 274 131l133 -137q-86 -92 -184 -138t-226 -46q-240 0 -369.5 148.5t-129.5 385.5t132.5 371.5t347.5 134.5q214 0 329 -146.5t111 -428.5h-705q14 -129 89 -202t198 -73z" />
    <glyph glyph-name="f" unicode="f" horiz-adv-x="632" 
d="M470 1221q-95 0 -95 -197h166v-193h-166v-624h135v-207h-469v207h125v624h-84v193h84q0 266 106.5 323.5t175.5 57.5t144 -16l-29 -187q-67 19 -93 19z" />
    <glyph glyph-name="g" unicode="g" horiz-adv-x="1114" 
d="M260 507q0 -155 88 -240t240 -85q76 0 149 25v614q-72 21 -166 21q-147 0 -229 -90t-82 -245zM560 1032q102 0 179 -12h334v-207h-129v-817q0 -230 -125.5 -339.5t-358.5 -109.5t-419 195l141 152q125 -143 293 -144q131 0 196.5 52.5t65.5 174.5v33q-81 -18 -171 -18
q-212 0 -366.5 131t-154.5 375q0 243 106.5 349.5t206.5 145.5t202 39z" />
    <glyph glyph-name="h" unicode="h" horiz-adv-x="1212" 
d="M381 952q105 88 273 88t277 -98t109 -272v-463h131v-207h-469v207h132v436q0 102 -59.5 151.5t-142.5 49.5t-140 -50.5t-111 -138.5v-448h129v-207h-469v207h129v987h-129v207h340v-449z" />
    <glyph glyph-name="i" unicode="i" 
d="M133 1282q0 53 32 86t85 33t87 -33t34 -86t-34 -86t-87 -33t-85 33t-32 86zM377 1022v-815h133v-207h-469v207h129v608h-129v207h336z" />
    <glyph glyph-name="j" unicode="j" horiz-adv-x="530" 
d="M248 1282q0 53 32.5 86t86 33t86 -33t32.5 -86t-32.5 -86t-86 -33t-86 33t-32.5 86zM489 1022v-979q0 -272 -147 -350t-254 -90l-47 186q129 16 184.5 78.5t55.5 181.5v766h-129v207h337z" />
    <glyph glyph-name="k" unicode="k" horiz-adv-x="1142" 
d="M1098 207v-207h-238l-481 528l283 287h-29v207h469v-207h-160l-293 -285l303 -323h146zM377 1401v-1194h133v-207h-469v207h129v987h-129v207h336z" />
    <glyph glyph-name="l" unicode="l" 
d="M377 1401v-1194h133v-207h-469v207h129v987h-129v207h336z" />
    <glyph glyph-name="m" unicode="m" horiz-adv-x="1875" 
d="M651 1040q219 0 324 -151q53 55 134 103t183 48q190 0 299 -98.5t109 -271.5v-463h135v-207h-469v207h127v436q0 100 -60.5 149.5t-128.5 50.5q-105 2 -156.5 -48.5t-107.5 -135.5l-2 -4v-448h136v-207h-472v207h129v436q0 102 -59 151.5t-143 49.5t-141 -50.5
t-111 -138.5v-448h133v-207h-469v207h129v608h-129v207h336v-70q109 88 274 88z" />
    <glyph glyph-name="n" unicode="n" horiz-adv-x="1214" 
d="M379 952q105 88 273 88t277 -98t109 -272v-463h136v-207h-469v207h129v436q0 102 -60.5 151.5t-143.5 49.5t-140 -50.5t-111 -138.5v-448h133v-207h-471v207h129v608h-129v207h338v-70z" />
    <glyph glyph-name="o" unicode="o" horiz-adv-x="1040" 
d="M165 135q-124 149 -124 377q0 229 123 374.5t354.5 145.5t356 -147.5t124.5 -378t-124.5 -375.5t-355 -145t-354.5 149zM784 508q0 74 -14 136.5t-46 108.5t-83 71.5t-123 25.5t-121 -25.5t-80.5 -70.5t-46 -107.5t-14.5 -136.5t14.5 -136.5t46 -108.5t80.5 -72.5
t121 -26.5t123 25.5t83 71.5t46 108.5t14 136.5z" />
    <glyph glyph-name="p" unicode="p" horiz-adv-x="1124" 
d="M545 842q-100 0 -166 -21v-614q74 -25 149 -25q154 0 242 85t88 240t-83 245t-230 90zM379 1022v-2q73 12 177 12t205 -39t211.5 -145.5t110.5 -349.5q0 -242 -159 -374t-385 -132q-80 0 -160 18v-272h131v-205l-170 -2l-129 2h-170v205h131v1077h-131v207h338z" />
    <glyph glyph-name="q" unicode="q" horiz-adv-x="1112" 
d="M256 507q0 -155 88 -240t242 -85q76 0 149 25v614q-72 21 -168 21q-147 0 -229 -90t-82 -245zM562 1032q108 0 173 -10h336v-207h-131v-1077h131v-207h-467v207h131v272q-80 -18 -172 -18q-212 0 -367 131t-155 375q0 243 106.5 349.5t206.5 145.5t208 39z" />
    <glyph glyph-name="r" unicode="r" horiz-adv-x="866" 
d="M634 844q-88 0 -145.5 -50.5t-111.5 -138.5v-448h133v-207h-469v207h129v608h-129v207h336v-70q109 88 274 88q83 0 174 -26l-53 -203q-84 33 -138 33z" />
    <glyph glyph-name="s" unicode="s" horiz-adv-x="833" 
d="M246 0h-205v301h147q102 -127 244 -117q82 4 120 35t36 68q-3 64 -52.5 90.5t-154.5 52.5l2 -2q-137 31 -196.5 75t-91.5 94t-40 122q0 129 95.5 217t238.5 100q112 0 180 -22v4h207v-281l-162 -2q-53 59 -105 86t-123 22q-129 -9 -124 -98q5 -75 126.5 -106t251.5 -82.5
t153 -234.5q0 -131 -105 -225.5t-252 -106.5q-115 0 -190 22v-12z" />
    <glyph glyph-name="t" unicode="t" horiz-adv-x="593" 
d="M394 -8q-58 0 -162.5 59t-104.5 336v447h-86v192h86v223h207v-223h168v-192h-168v-443q0 -207 90 -213q32 -4 100 17l29 -185q-101 -18 -159 -18z" />
    <glyph glyph-name="u" unicode="u" horiz-adv-x="1214" 
d="M176 350v463h-135v207h471v-207h-129v-436q0 -102 59.5 -151.5t147.5 -49.5q118 0 173.5 80t74.5 109v448h-133v207h469v-207h-130v-608h130v-207h-336v70q-109 -88 -277 -88q-167 0 -276 98.5t-109 271.5z" />
    <glyph glyph-name="v" unicode="v" horiz-adv-x="1230" 
d="M721 813v207h469v-207h-143l-334 -813h-187l-340 813h-145v207h471v-207h-102l213 -526l215 526h-117z" />
    <glyph glyph-name="w" unicode="w" horiz-adv-x="1816" 
d="M41 813v207h471v-207h-102q20 -66 40.5 -124t41 -116.5t42 -121t46.5 -134.5q138 394 249 703h177l251 -698l168 491h-118v207h469v-207h-142q-147 -405 -288 -813h-181l-252 692l-256 -692h-180l-287 813h-149z" />
    <glyph glyph-name="x" unicode="x" horiz-adv-x="1103" 
d="M49 815v207h469v-207h-61q29 -39 52 -72.5t58 -80.5q29 41 50.5 71.5t58.5 81.5h-86v207h469v-207h-150l-215 -299l221 -309h148v-207h-469v207h70q-29 41 -55.5 74.5t-61.5 83.5q-29 -41 -53.5 -73t-61.5 -85h78v-207h-469v207h152l229 311l-221 297h-152z" />
    <glyph glyph-name="y" unicode="y" horiz-adv-x="1234" 
d="M41 815v207h469v-207h-94l209 -520l206 520h-106v207h469v-207h-141l-492 -1225h-282v207h141l94 230l-326 788h-147z" />
    <glyph glyph-name="z" unicode="z" horiz-adv-x="874" 
d="M627 203v135h207v-338h-793v178l485 643h-278v-135h-207v336h764v-176l-500 -643h322z" />
    <glyph glyph-name="braceleft" unicode="{" horiz-adv-x="464" 
d="M424 -190h-68q-104 0 -170.5 59t-76.5 186l-3 445q-4 47 -13 70.5t-52 23.5v209q45 0 53 24.5t12 71.5l3 404q10 129 76.5 188t170.5 59h68v-180l-68 -2q-65 0 -65 -24v-478l-2 -22q-4 -43 -11.5 -81t-39.5 -67q33 -29 40 -66.5t11 -78.5l2 -21v-378l2 -39
q0 -87 20.5 -105t42.5 -18l68 -2v-178z" />
    <glyph glyph-name="bar" unicode="|" horiz-adv-x="262" 
d="M221 -362h-180v1892h180v-1892z" />
    <glyph glyph-name="braceright" unicode="}" horiz-adv-x="464" 
d="M174 1314q0 13 -20.5 33.5t-44.5 20.5l-68 2v180h68q104 0 171.5 -59t75.5 -188l2 -406q4 -47 12.5 -70.5t53.5 -23.5v-209q-45 0 -53.5 -24.5t-12.5 -71.5l-2 -443q-8 -127 -75.5 -186t-171.5 -59h-68v178l68 2q56 0 60.5 50t4.5 73v417l2 21q2 41 9.5 79t39.5 66
q-33 29 -39 67t-10 81l-2 22v448z" />
    <glyph glyph-name="exclamdown" unicode="&#xa1;" horiz-adv-x="319" 
d="M274 -203h-225v1063h225v-1063zM41 1107q0 54 34 87t88 33t88 -33t34 -87t-34 -88t-88 -34t-88 34t-34 88z" />
    <glyph glyph-name="cent" unicode="&#xa2;" horiz-adv-x="974" 
d="M395 815q-143 -68 -143 -293t143 -307v600zM594 -193h-199v199q-49 8 -92 31q-135 68 -198.5 195.5t-63.5 287.5t72 292t166 168t116 40v192h199v-182q50 -6 121 -33v25h207v-303h-154q-54 63 -98 85t-76 34v-652q114 29 209 138l131 -140q-84 -94 -189 -147
q-63 -29 -151 -39v-191z" />
    <glyph glyph-name="sterling" unicode="&#xa3;" horiz-adv-x="966" 
d="M45 172q264 110 264 235q0 34 -16 66h-252v191h109q-58 90 -58 188q0 160 102.5 260t299.5 100q119 0 215 -43v41h206v-350h-155q-94 150 -273 150q-98 0 -142 -39t-44 -97t27.5 -103.5t62.5 -88.5l15 -18h395v-191h-293q4 -20 4 -53q0 -109 -82 -205h496v-215h-881v172z
" />
    <glyph glyph-name="yen" unicode="&#xa5;" horiz-adv-x="1331" 
d="M1094 463v-197h-320v-51h129v-215h-481v215h137v51h-321v197h321q-4 78 -4 172h-317v203h198l-233 348h-162v215h494v-215h-72q40 -58 85.5 -120t117.5 -169q29 41 53 75t70.5 96.5t82.5 117.5h-75v215h493v-215h-155l-238 -348h197v-203l-318 -2l-2 -170h320z" />
    <glyph glyph-name="brokenbar" unicode="&#xa6;" horiz-adv-x="256" 
d="M41 -2v545h174v-545h-174zM41 860v545h174v-545h-174z" />
    <glyph glyph-name="section" unicode="&#xa7;" horiz-adv-x="817" 
d="M586 702q0 68 -107 103q-30 10 -63 20l-72 19q-102 -19 -102 -119q0 -49 69.5 -71.5t100.5 -32.5l20 -7q16 -4 28.5 -7t28.5 -11q97 38 97 106zM442 1247q-170 0 -170 -127q0 -35 55 -59.5t115 -43.5q334 -105 334 -321q0 -127 -104 -209q71 -71 71 -204t-103.5 -214
t-265.5 -81t-333 82l78 155q132 -54 185.5 -59.5t107.5 -5.5t97.5 30.5t43.5 98.5t-53 99t-162 67q-134 36 -186 73t-77.5 81t-25.5 110q0 145 101 223q-68 72 -68 163q0 162 106 235t233 73q128 0 279 -65l48 -21l-64 -176q-116 75 -163.5 85.5t-78.5 10.5z" />
    <glyph glyph-name="dieresis" unicode="&#xa8;" horiz-adv-x="624" 
d="M346 1282q0 53 33 86t86 33t86 -33t33 -86t-33 -86t-86 -33t-86 33t-33 86zM41 1282q0 53 32.5 86t86 33t86.5 -33t33 -86t-33 -86t-86.5 -33t-86 33t-32.5 86z" />
    <glyph glyph-name="copyright" unicode="&#xa9;" horiz-adv-x="1466" 
d="M1425 708q0 -293 -189 -494.5t-503 -201.5t-503 201.5t-189 494.5t188.5 492t503.5 199t503.5 -199t188.5 -492zM1093 1067.5q-146 155.5 -359 155.5t-359 -155.5t-146 -361.5t145.5 -363t358.5 -157q214 0 360 155t146 363t-146 363.5zM1026 451q-138 -146 -309 -146
q-180 0 -277.5 114.5t-97.5 279.5t98 273.5t273 108.5q62 0 118 -16v18h173v-243l-113 -2q-77 90 -176 90t-151 -68t-52 -194.5t76 -166.5t129 -40q108 0 203 104z" />
    <glyph glyph-name="ordfeminine" unicode="&#xaa;" horiz-adv-x="872" 
d="M557 834q-49 18 -147 18t-136 -19q-68 -35 -68 -100q0 -98 141 -98t210 93v106zM396 1014q97 0 161 -15v20q0 73 -46 111q-45 38 -113 38t-107 -15t-80 -66h-121v231h168v-11q60 18 132 18t133 -19q129 -40 176 -149q25 -55 25 -126v-372h106v-167h-273v39
q-69 -46 -211 -47t-224 62q-81 64 -83 185q0 73 26 126q77 157 331 157z" />
    <glyph glyph-name="guillemotleft" unicode="&#xab;" horiz-adv-x="899" 
d="M637 131l-293 350l293 350h221l-278 -350q31 -39 67.5 -85t82.5 -103t128 -162h-221zM334 131l-293 350l293 350h221l-279 -350q31 -39 68 -85t83 -103t128 -162h-221z" />
    <glyph glyph-name="logicalnot" unicode="&#xac;" horiz-adv-x="964" 
d="M741 217v338h-700v186h883v-524h-183z" />
    <glyph glyph-name="registered" unicode="&#xae;" horiz-adv-x="1466" 
d="M1425 708q0 -293 -189 -494.5t-503 -201.5t-503 201.5t-189 494.5t188.5 492t503.5 199t503.5 -199t188.5 -492zM1093.5 1067.5q-147.5 155.5 -361.5 155.5t-359.5 -155.5t-145.5 -361.5t145.5 -363t359.5 -157t361.5 155t147.5 363t-147.5 363.5zM645 782h129
q27 0 48.5 22.5t21.5 51.5t-21.5 51.5t-48.5 22.5h-129v-148zM1042 516v-145h-272v145h25l-66 119h-84v-119h64v-145h-273v145h62v414h-64v145h340q88 0 152.5 -64.5t64.5 -138.5q0 -135 -110 -206l80 -150h81z" />
    <glyph glyph-name="macron" unicode="&#xaf;" horiz-adv-x="632" 
d="M41 1210v191h551v-191h-551z" />
    <glyph glyph-name="degree" unicode="&#xb0;" 
d="M510 1177q0 -95 -59.5 -161t-169.5 -66t-175 66.5t-65 161.5q0 96 62.5 159.5t174.5 63.5t172 -64.5t60 -159.5zM274 1112q62 0 62 66.5t-62 66.5q-55 0 -55 -66.5t55 -66.5z" />
    <glyph glyph-name="plusminus" unicode="&#xb1;" horiz-adv-x="991" 
d="M41 0v180h909v-180h-909zM393 195v249h-352v199h352v252h199v-252h358v-199h-358v-249h-199z" />
    <glyph glyph-name="twosuperior" unicode="&#xb2;" horiz-adv-x="591" 
d="M34 988v198h121v-24q52 24 112 24q61 0 107 -19q94 -39 130 -135q64 -166 -128 -374l-159 -177h205v81h122v-200h-500v113q226 245 268 299q43 54 66 92t22 79t-35 79t-107 38t-111 -74h-113z" />
    <glyph glyph-name="threesuperior" unicode="&#xb3;" horiz-adv-x="630" 
d="M583 605q0 -117 -83 -182q-84 -64 -184 -64t-160 27t-122 90l98 83q65 -85 152 -85q174 0 174 132t-205 133h-48v120h50q71 -1 119 29t48 82t-38 81t-91 29q-91 1 -152 -69l-90 -1v178h121v-11q56 18 114 18q117 0 190 -56t73 -164q0 -107 -91 -168q125 -60 125 -202z
" />
    <glyph glyph-name="acute" unicode="&#xb4;" 
d="M41 1112l240 289h229l-244 -289h-225z" />
    <glyph glyph-name="mu" unicode="&#xb5;" horiz-adv-x="800" 
d="M368 176q99 0 169 160v616h198v-708q0 -65 25 -244h-187l-12 63q-92 -71 -174 -71t-154 31v-340h-192v1269h192v-557q0 -219 135 -219z" />
    <glyph glyph-name="paragraph" unicode="&#xb6;" horiz-adv-x="849" 
d="M41 1061q0 338 379 338h389v-1407h-201v1200h-59v-1200h-201v747q-163 15 -235 108.5t-72 213.5z" />
    <glyph glyph-name="periodcentered" unicode="&#xb7;" horiz-adv-x="333" 
d="M41 118q0 54 35 91t90 37t91 -37t36 -91t-36 -89t-91 -35t-90 35t-35 89z" />
    <glyph glyph-name="cedilla" unicode="&#xb8;" horiz-adv-x="522" 
d="M481 -59q0 -123 -68.5 -189.5t-187.5 -66.5q-76 0 -184 53l57 160q88 -48 125 -48t63.5 23t26.5 67t-24 156h166q26 -96 26 -155z" />
    <glyph glyph-name="onesuperior" unicode="&#xb9;" horiz-adv-x="354" 
d="M229 1169v-693h77v-120h-272v120h75v573h-75v120h195z" />
    <glyph glyph-name="ordmasculine" unicode="&#xba;" horiz-adv-x="835" 
d="M792 888q0 -183 -97 -296q-97 -112 -279 -113t-279 115t-98 297q-1 180 96 295t278 115q182 0 281 -115q98 -115 98 -298zM414 1158q-202 0 -207 -267q0 -190 112 -250q39 -21 95 -21q158 0 198 162q11 49 11 107q0 192 -113 249q-40 20 -96 20z" />
    <glyph glyph-name="guillemotright" unicode="&#xbb;" horiz-adv-x="923" 
d="M289 838l299 -359l-299 -358h-230l256 358l-194 275l-80 84h248zM584 838l299 -359l-299 -358h-230l258 358l-88 119l-170 240h230z" />
    <glyph glyph-name="onequarter" unicode="&#xbc;" horiz-adv-x="1110" 
d="M674 330v66l-1 123v72l-195 -261h196zM872 121v-121h-273v121h75v86h-287l-78 -207h-188l134 356h-221v120h75v573h-75v120h195v-693h71l357 954h191l-307 -814l152 203h103v-489h70v-123h-70v-86h76z" />
    <glyph glyph-name="onehalf" unicode="&#xbd;" horiz-adv-x="1232" 
d="M773 568q0 54 -34 91t-85 37t-69 -10q-18 -12 -23 -16l-253 -670h-188l134 356h-221v120h75v573h-75v120h195v-693h71l111 297v46h17l229 611h191l-231 -612q13 1 49 1q36 -1 82 -19q93 -38 129 -133q17 -47 17 -107q0 -109 -144 -266l-158 -176h204v80h121v-198h-496
v112q226 245 280 315t63 98q9 27 9 43z" />
    <glyph glyph-name="threequarters" unicode="&#xbe;" horiz-adv-x="1335" 
d="M805 330v127q-1 30 -1 62v72l-94 -126l-51 -135h146zM557 573v-10l326 867h190l-230 -611h84v-489h70v-123h-70v-86h76v-121h-273v121h75v86h-192l-78 -207h-189l88 233v63l47 64l26 69q-74 -90 -226 -90q-75 0 -132 26t-116 85l93 79q61 -81 144 -81q84 0 126 33t42 92
q0 125 -196 127h-46v114h48q69 0 114 28q46 28 46 78t-37 77q-37 28 -87 28q-87 0 -145 -66l-86 -1v169h116v-10q51 17 107 17q115 0 185 -55t69 -156t-88 -158q119 -56 119 -192z" />
    <glyph glyph-name="questiondown" unicode="&#xbf;" horiz-adv-x="851" 
d="M41 158q0 206 307 420v323h211l-6 -448q-172 -105 -217 -147t-61.5 -74.5t-16.5 -73.5q0 -80 50 -120t124 -40t124 29.5t101 91.5h154v-320h-205v27q-91 -31 -173 -31q-170 0 -281 93t-111 270zM575 1070q0 -54 -35.5 -91t-89.5 -37t-91 37t-37 91t36.5 90t90.5 36
t90 -36t36 -90z" />
    <glyph glyph-name="Agrave" unicode="&#xc0;" horiz-adv-x="1456" 
d="M582 631h290q-67 197 -94 271q-28 73 -51 138zM545 221v-221h-504v221h147q46 129 90 251l88 244t87 245t90 251h-123v222h411l431 -1213h153v-221h-504v221h109l-70 191h-444q-36 -94 -70 -191h109zM735 1530l-241 289h227l242 -289h-228z" />
    <glyph glyph-name="Aacute" unicode="&#xc1;" horiz-adv-x="1456" 
d="M582 631h290q-67 197 -94 271q-28 73 -51 138zM545 221v-221h-504v221h147q46 129 90 251l88 244t87 245t90 251h-123v222h411l431 -1213h153v-221h-504v221h109l-70 191h-444q-36 -94 -70 -191h109zM494 1530l239 289h230l-244 -289h-225z" />
    <glyph glyph-name="Acircumflex" unicode="&#xc2;" horiz-adv-x="1456" 
d="M582 631h290q-67 197 -94 271q-28 73 -51 138zM545 221v-221h-504v221h147q46 129 90 251l88 244t87 245t90 251h-123v222h411l431 -1213h153v-221h-504v221h109l-70 191h-444q-36 -94 -70 -191h109zM387 1452l260 367h160l260 -367h-205l-135 174l-135 -174h-205z" />
    <glyph glyph-name="Atilde" unicode="&#xc3;" horiz-adv-x="1456" 
d="M582 631h290q-67 197 -94 271q-28 73 -51 138zM545 221v-221h-504v221h147q46 129 90 251l88 244t87 245t90 251h-123v222h411l431 -1213h153v-221h-504v221h109l-70 191h-444q-36 -94 -70 -191h109zM603 1831q75 0 147 -39q73 -39 112 -39t166 94v-211q-59 -47 -97 -66
q-95 -47 -233 23q-63 33 -94 33q-55 0 -178 -104v223q102 86 177 86z" />
    <glyph glyph-name="Adieresis" unicode="&#xc4;" horiz-adv-x="1456" 
d="M582 631h290q-67 197 -94 271q-28 73 -51 138zM545 221v-221h-504v221h147q46 129 90 251l88 244t87 245t90 251h-123v222h411l431 -1213h153v-221h-504v221h109l-70 191h-444q-36 -94 -70 -191h109zM762 1700q0 53 33 86t86 33t86 -33t33 -86t-34 -86q-32 -33 -85 -33
t-86 33t-33 86zM457 1700q0 53 32 86q33 33 86 33t87 -33t32 -86q0 -53 -32 -86t-86 -33t-87 33q-32 33 -32 86z" />
    <glyph glyph-name="Aring" unicode="&#xc5;" horiz-adv-x="1456" 
d="M739 1599.5q0 79.5 -71.5 80t-71.5 -79.5t71.5 -80t71.5 79.5zM582 631h290q-52 154 -87 249t-58 160zM895 1592q0 -99 -70 -158h6l431 -1213h153v-221h-504v221h109l-70 191h-444q-43 -115 -70 -191h109v-221h-504v221h147l355 991h-123v222h88q-70 59 -70 159t58.5 163
t170.5 63t170 -64t58 -163z" />
    <glyph glyph-name="AE" unicode="&#xc6;" horiz-adv-x="1918" 
d="M983 844v278q-102 -164 -166 -278h166zM1651 1085v127h-445v-358h162v133h221v-483h-221l2 129h-164v-412h451v127h221v-348h-895v633h-289l-245 -412h96v-221h-504v221l154 -6q250 419 378.5 640.5t206.5 354.5h-108v222l348 2h852v-349h-221z" />
    <glyph glyph-name="Ccedilla" unicode="&#xc7;" horiz-adv-x="1253" 
d="M825 -59q0 -123 -68.5 -189.5t-187.5 -66.5q-76 0 -184 53l57 160q88 -48 125 -48t63.5 23t26.5 58t-4 63q-296 7 -454 221.5t-158 513.5q0 298 164.5 510.5t474.5 212.5q168 0 295 -66l6 -2v50h221v-369h-166q-80 100 -165 133t-191 33t-185 -42t-131.5 -112.5t-77 -163
t-24.5 -249.5t108.5 -305t313.5 -148q100 0 189.5 40t177.5 148l161 -143q-170 -204 -393 -250q6 -35 6 -65z" />
    <glyph glyph-name="Egrave" unicode="&#xc8;" horiz-adv-x="1173" 
d="M41 1212v222h1085v-349h-221v127h-502v-358h220v133h221v-483h-221v129h-220v-412h508v127h222v-348h-1088v221h139l-2 991h-141zM594 1530l-242 289h228l241 -289h-227z" />
    <glyph glyph-name="Eacute" unicode="&#xc9;" horiz-adv-x="1173" 
d="M41 1212v222h1085v-349h-221v127h-502v-358h220v133h221v-483h-221v129h-220v-412h508v127h222v-348h-1088v221h139l-2 991h-141zM352 1530l240 289h229l-243 -289h-226z" />
    <glyph glyph-name="Ecircumflex" unicode="&#xca;" horiz-adv-x="1173" 
d="M41 1212v222h1085v-349h-221v127h-502v-358h220v133h221v-483h-221v129h-220v-412h508v127h222v-348h-1088v221h139l-2 991h-141zM246 1452l260 367h160l260 -367h-205l-135 174l-135 -174h-205z" />
    <glyph glyph-name="Edieresis" unicode="&#xcb;" horiz-adv-x="1173" 
d="M41 1212v222h1085v-349h-221v127h-502v-358h220v133h221v-483h-221v129h-220v-412h508v127h222v-348h-1088v221h139l-2 991h-141zM621 1700q0 53 32 86q33 33 86 33t86 -33t33 -86t-33 -86t-86 -33t-86 33q-32 33 -32 86zM315 1700q0 53 33 86t86 33t86 -33t33 -86
t-33 -86t-86 -33t-86 33t-33 86z" />
    <glyph glyph-name="Igrave" unicode="&#xcc;" horiz-adv-x="583" 
d="M182 1212h-141v222h502v-222h-142v-991h138v-221h-494v221h137v991zM299 1530l-242 289h228l241 -289h-227z" />
    <glyph glyph-name="Iacute" unicode="&#xcd;" horiz-adv-x="583" 
d="M182 1212h-141v222h502v-222h-142v-991h138v-221h-494v221h137v991zM57 1530l240 289h229l-243 -289h-226z" />
    <glyph glyph-name="Icircumflex" unicode="&#xce;" horiz-adv-x="583" 
d="M182 1212h-141v222h502v-222h-142v-991h138v-221h-494v221h137v991zM-45 1452l260 367h160l260 -367h-205l-135 174l-135 -174h-205z" />
    <glyph glyph-name="Idieresis" unicode="&#xcf;" horiz-adv-x="583" 
d="M182 1212h-141v222h502v-222h-142v-991h138v-221h-494v221h137v991zM328 1700q0 53 32 86q33 33 86 33t86 -33t33 -86t-33 -86t-86 -33t-86 33q-32 33 -32 86zM23 1700q0 53 32 86q33 33 86 33t86 -33t33 -86t-33 -86t-86 -33t-86 33q-32 33 -32 86z" />
    <glyph glyph-name="Ntilde" unicode="&#xd1;" horiz-adv-x="1523" 
d="M1130 1212h-139v222h492v-222h-135v-1212h-179l-772 1022v-739l4 -62h138v-221h-492v221h133v991h-139v222h313l776 -1022v800zM638 1831q75 0 147 -39q73 -39 111 -39t167 94v-211q-59 -47 -97 -66q-95 -47 -233 23q-63 33 -94 33q-56 0 -178 -104v223q102 86 177 86z
" />
    <glyph glyph-name="Ograve" unicode="&#xd2;" horiz-adv-x="1423" 
d="M1213 1231q169 -199 169 -507t-169 -510q-85 -100 -211 -162t-292 -62q-314 0 -500 224q-169 200 -169 508t169 509q188 221 502 221q315 0 501 -221zM1159 718q0 214 -117 364q-117 149 -330 149t-330 -147q-118 -146 -118 -362q0 -215 117 -363t329 -148q211 0 330 146
q119 147 119 361zM719 1530l-242 289h228l241 -289h-227z" />
    <glyph glyph-name="Oacute" unicode="&#xd3;" horiz-adv-x="1423" 
d="M1213 1231q169 -199 169 -507t-169 -510q-85 -100 -211 -162t-292 -62q-314 0 -500 224q-169 200 -169 508t169 509q188 221 502 221q315 0 501 -221zM1159 718q0 214 -117 364q-117 149 -330 149t-330 -147q-118 -146 -118 -362q0 -215 117 -363t329 -148q211 0 330 146
q119 147 119 361zM477 1530l240 289h229l-244 -289h-225z" />
    <glyph glyph-name="Ocircumflex" unicode="&#xd4;" horiz-adv-x="1423" 
d="M1213 1231q169 -199 169 -507t-169 -510q-85 -100 -211 -162t-292 -62q-314 0 -500 224q-169 200 -169 508t169 509q188 221 502 221q315 0 501 -221zM1159 718q0 214 -117 364q-117 149 -330 149t-330 -147q-118 -146 -118 -362q0 -215 117 -363t329 -148q211 0 330 146
q119 147 119 361zM371 1452l260 367h160l260 -367h-205l-135 174l-136 -174h-204z" />
    <glyph glyph-name="Otilde" unicode="&#xd5;" horiz-adv-x="1423" 
d="M1213 1231q169 -199 169 -507t-169 -510q-85 -100 -211 -162t-292 -62q-314 0 -500 224q-169 200 -169 508t169 509q188 221 502 221q315 0 501 -221zM1159 718q0 214 -117 364q-117 149 -330 149t-330 -147q-118 -146 -118 -362q0 -215 117 -363t329 -148q211 0 330 146
q119 147 119 361zM586 1831q74 0 147 -39q74 -39 112 -39t167 94v-211q-59 -47 -111 -73t-132 -5q-32 8 -91 38t-90 30q-56 0 -178 -104v223q102 86 176 86z" />
    <glyph glyph-name="Odieresis" unicode="&#xd6;" horiz-adv-x="1423" 
d="M1213 1231q169 -199 169 -507t-169 -510q-85 -100 -211 -162t-292 -62q-314 0 -500 224q-169 200 -169 508t169 509q188 221 502 221q315 0 501 -221zM1159 718q0 214 -117 364q-117 149 -330 149t-330 -147q-118 -146 -118 -362q0 -215 117 -363t329 -148q211 0 330 146
q119 147 119 361zM745 1700q0 53 33 86t86 33t86 -33t33 -86t-33 -86t-86 -33t-86 33t-33 86zM440 1700q0 53 33 86t86 33t86 -33t33 -86t-33 -86t-86 -33t-86 33t-33 86z" />
    <glyph glyph-name="multiply" unicode="&#xd7;" horiz-adv-x="854" 
d="M164 905l262 -258l254 260l127 -127l-254 -260l260 -256l-127 -127l-258 256l-258 -258l-129 123l258 262l-258 256z" />
    <glyph glyph-name="Oslash" unicode="&#xd8;" horiz-adv-x="1423" 
d="M679 211h32q211 0 329.5 145.5t118.5 365t-117 357.5q-35 47 -88 84q-74 -246 -145.5 -474t-144.5 -476q12 -2 15 -2zM711 1231q-211 0 -329 -146.5t-118 -361.5q0 -150 57.5 -270.5t170.5 -186.5l294 961q-20 4 -24 4h-51zM1382 725q0 -310 -179 -522.5t-492 -212.5
q-63 0 -113 6l-59 -191h-189l74 244l-6 4q-181 88 -279 270t-98 402q0 306 178 516.5t492 210.5q86 0 139 -12q52 166 57 188h191l-76 -248q174 -93 267 -265t93 -390z" />
    <glyph glyph-name="Ugrave" unicode="&#xd9;" horiz-adv-x="1527" 
d="M182 1212h-141v222h504v-222h-142v-706q0 -140 86 -212t230 -85q6 -2 12 -2h64q53 0 122 22q70 23 113 59q96 81 94 218v706h-141v222h504v-222h-141v-729q-12 -308 -294 -439q-87 -40 -192 -52l-72 -6h-26q-154 0 -284 59q-178 80 -254 250q-38 84 -42 188v729z
M770 1530l-242 289h228l241 -289h-227z" />
    <glyph glyph-name="Uacute" unicode="&#xda;" horiz-adv-x="1527" 
d="M182 1212h-141v222h504v-222h-142v-706q0 -140 86 -212t230 -85q6 -2 12 -2h64q53 0 122 22q70 23 113 59q96 81 94 218v706h-141v222h504v-222h-141v-729q-12 -308 -294 -439q-87 -40 -192 -52l-72 -6h-26q-154 0 -284 59q-178 80 -254 250q-38 84 -42 188v729z
M528 1530l240 289h229l-243 -289h-226z" />
    <glyph glyph-name="Ucircumflex" unicode="&#xdb;" horiz-adv-x="1527" 
d="M182 1212h-141v222h504v-222h-142v-706q0 -140 86 -212t230 -85q6 -2 12 -2h64q53 0 122 22q70 23 113 59q96 81 94 218v706h-141v222h504v-222h-141v-729q-12 -308 -294 -439q-87 -40 -192 -52l-72 -6h-26q-154 0 -284 59q-178 80 -254 250q-38 84 -42 188v729z
M424 1452l260 367h160l260 -367h-205l-135 174l-135 -174h-205z" />
    <glyph glyph-name="Udieresis" unicode="&#xdc;" horiz-adv-x="1527" 
d="M182 1212h-141v222h504v-222h-142v-706q0 -140 86 -212t230 -85q6 -2 12 -2h64q53 0 122 22q70 23 113 59q96 81 94 218v706h-141v222h504v-222h-141v-729q-12 -308 -294 -439q-87 -40 -192 -52l-72 -6h-26q-154 0 -284 59q-178 80 -254 250q-38 84 -42 188v729z
M797 1700q0 53 32 86q33 33 86 33t86 -33t33 -86t-33 -86t-86 -33t-86 33q-32 33 -32 86zM492 1700q0 53 32 86q33 33 86 33t86 -33t33 -86t-33 -86t-86 -33t-86 33q-32 33 -32 86z" />
    <glyph glyph-name="Yacute" unicode="&#xdd;" horiz-adv-x="1357" 
d="M922 221v-221h-492v221h139v449l-366 542h-162v222h504v-222h-74q55 -78 102 -144t107 -150q30 42 54 76l48 68q25 34 52 70t57 80h-78v222h504v-222h-158l-366 -540l-2 -451h131zM444 1530l240 289h229l-243 -289h-226z" />
    <glyph glyph-name="germandbls" unicode="&#xdf;" horiz-adv-x="1071" 
d="M870 707q160 -99 160 -335.5t-166.5 -339t-404.5 -102.5v193q143 0 260 64t117 200q0 176 -314 244q-45 8 -63 12v176q57 23 101 41.5t89 58t45 146.5q0 66 -51 101.5t-118 35.5t-116 -42t-49 -113v-1047h-319v207h121v817q0 259 136 313t223 54t153.5 -24t116 -68
t77 -104t27.5 -163.5t-41 -164t-119 -105.5q90 -27 137 -55h-2z" />
    <glyph glyph-name="agrave" unicode="&#xe0;" horiz-adv-x="1060" 
d="M476 446q-228 0 -228 -147q0 -121 186 -121q160 0 248 115v131q-49 18 -102 20q-54 2 -104 2zM682 653q0 89 -57 137t-141 48t-131 -18q-48 -18 -99 -83h-150v287h207v-14q160 50 323 0t224 -186q31 -69 31 -156v-461h131v-207h-338v49q-57 -39 -127 -49
q-71 -10 -149 -10q-166 0 -265 80q-100 80 -100 227q0 90 32 156q95 197 412 195q122 0 197 -19v24zM537 1112l-242 289h227l242 -289h-227z" />
    <glyph glyph-name="aacute" unicode="&#xe1;" horiz-adv-x="1060" 
d="M476 446q-228 0 -228 -147q0 -121 186 -121q160 0 248 115v131q-49 18 -102 20q-54 2 -104 2zM682 653q0 89 -57 137t-141 48t-131 -18q-48 -18 -99 -83h-150v287h207v-14q160 50 323 0t224 -186q31 -69 31 -156v-461h131v-207h-338v49q-57 -39 -127 -49
q-71 -10 -149 -10q-166 0 -265 80q-100 80 -100 227q0 90 32 156q95 197 412 195q122 0 197 -19v24zM295 1112l240 289h229l-244 -289h-225z" />
    <glyph glyph-name="acircumflex" unicode="&#xe2;" horiz-adv-x="1060" 
d="M476 446q-228 0 -228 -147q0 -121 186 -121q160 0 248 115v131q-49 18 -102 20q-54 2 -104 2zM682 653q0 89 -57 137t-141 48t-131 -18q-48 -18 -99 -83h-150v287h207v-14q160 50 323 0t224 -186q31 -69 31 -156v-461h131v-207h-338v49q-57 -39 -127 -49
q-71 -10 -149 -10q-166 0 -265 80q-100 80 -100 227q0 90 32 156q95 197 412 195q122 0 197 -19v24zM109 1061l260 366h159l260 -366h-204l-135 174l-136 -174h-204z" />
    <glyph glyph-name="atilde" unicode="&#xe3;" horiz-adv-x="1060" 
d="M476 446q-228 0 -228 -147q0 -121 186 -121q160 0 248 115v131q-49 18 -102 20q-54 2 -104 2zM682 653q0 89 -57 137t-141 48t-131 -18q-48 -18 -99 -83h-150v287h207v-14q160 50 323 0t224 -186q31 -69 31 -156v-461h131v-207h-338v49q-57 -39 -127 -49
q-71 -10 -149 -10q-166 0 -265 80q-100 80 -100 227q0 90 32 156q95 197 412 195q122 0 197 -19v24zM406 1413q75 0 147 -39q73 -39 113 -39t165 95v-211q-59 -47 -97 -67t-76 -19q-38 0 -70 7t-90 38q-59 31 -90 30q-56 0 -179 -104v223q102 86 177 86z" />
    <glyph glyph-name="adieresis" unicode="&#xe4;" horiz-adv-x="1060" 
d="M476 446q-228 0 -228 -147q0 -121 186 -121q160 0 248 115v131q-49 18 -102 20q-54 2 -104 2zM682 653q0 89 -57 137t-141 48t-131 -18q-48 -18 -99 -83h-150v287h207v-14q160 50 323 0t224 -186q31 -69 31 -156v-461h131v-207h-338v49q-57 -39 -127 -49
q-71 -10 -149 -10q-166 0 -265 80q-100 80 -100 227q0 90 32 156q95 197 412 195q122 0 197 -19v24zM563 1282q0 53 33 86t86 33t86 -33t33 -86t-33 -86t-86 -33t-86 33t-33 86zM258 1282q0 53 33 86t86 33t86 -33t33 -86t-33 -86t-86 -33t-86 33t-33 86z" />
    <glyph glyph-name="aring" unicode="&#xe5;" horiz-adv-x="1060" 
d="M476 446q-228 0 -228 -147q0 -121 186 -121q160 0 248 115v131q-49 18 -102 20q-54 2 -104 2zM682 653q0 89 -57 137t-141 48t-131 -18q-48 -18 -99 -83h-150v287h207v-14q160 50 323 0t224 -186q31 -69 31 -156v-461h131v-207h-338v49q-57 -39 -127 -49
q-71 -10 -149 -10q-166 0 -265 80q-100 80 -100 227q0 90 32 156q95 197 412 195q122 0 197 -19v24zM696 1263q0 -93 -58 -155t-170 -64q-112 0 -170 64t-58 156q0 94 58 156t170 62t170 -62q58 -64 58 -157zM467 1184q74 0 74 80t-74 79q-68 0 -69 -80q-1 -81 69 -79z" />
    <glyph glyph-name="ae" unicode="&#xe6;" horiz-adv-x="2064" 
d="M476 446q-228 0 -228 -147q0 -121 186 -121q160 0 248 115v131q-49 18 -102 20q-54 2 -104 2zM682 653q0 89 -57 137t-141 48t-131 -18q-48 -18 -99 -83h-150v287h207v-14q160 50 323 0t224 -186q31 -69 31 -156v-461h131v-207h-338v49q-57 -39 -127 -49
q-71 -10 -149 -10q-166 0 -265 80q-100 80 -100 227q0 90 32 156q95 197 412 195q122 0 197 -19v24zM1812 643q-10 93 -67 147t-171 52t-167 -56t-80 -143h485zM1604 182q154 0 274 131l133 -137q-86 -92 -184 -138q-99 -46 -227 -46q-239 0 -368 150q-130 150 -130 384
q0 235 133 370q133 136 347 136t329 -146t110 -429h-704q14 -129 89 -202t198 -73z" />
    <glyph glyph-name="ccedilla" unicode="&#xe7;" horiz-adv-x="974" 
d="M686 -59q0 -123 -68.5 -189.5t-187.5 -66.5q-76 0 -184 53l57 160q88 -48 125 -48t63.5 23t26.5 60t-4 61q-235 4 -354 154t-119 372t125.5 368t353.5 146q101 0 195 -37v25h207v-303h-154q-112 125 -247.5 125t-202 -91t-66.5 -235q0 -222 101.5 -278t174.5 -56
q151 0 275 140l131 -140q-124 -128 -256 -168q8 -35 8 -75z" />
    <glyph glyph-name="egrave" unicode="&#xe8;" horiz-adv-x="1003" 
d="M752 643q-10 93 -68 147t-171 52q-114 -2 -167 -56t-80 -143h486zM543 182q154 0 274 131l133 -137q-86 -92 -184 -138t-226 -46q-240 0 -369 150q-130 150 -130 384q0 235 133 370q133 136 347 136t329 -146t111 -429h-705q14 -129 89 -202t198 -73zM508 1112l-242 289
h228l241 -289h-227z" />
    <glyph glyph-name="eacute" unicode="&#xe9;" horiz-adv-x="1003" 
d="M752 643q-10 93 -68 147t-171 52q-114 -2 -167 -56t-80 -143h486zM543 182q154 0 274 131l133 -137q-86 -92 -184 -138t-226 -46q-240 0 -369 150q-130 150 -130 384q0 235 133 370q133 136 347 136t329 -146t111 -429h-705q14 -129 89 -202t198 -73zM266 1112l240 289
h229l-243 -289h-226z" />
    <glyph glyph-name="ecircumflex" unicode="&#xea;" horiz-adv-x="1003" 
d="M752 643q-10 93 -68 147t-171 52q-114 -2 -167 -56t-80 -143h486zM543 182q154 0 274 131l133 -137q-86 -92 -184 -138t-226 -46q-240 0 -369 150q-130 150 -130 384q0 235 133 370q133 136 347 136t329 -146t111 -429h-705q14 -129 89 -202t198 -73zM162 1065l260 367
h160l260 -367h-205l-135 174l-135 -174h-205z" />
    <glyph glyph-name="edieresis" unicode="&#xeb;" horiz-adv-x="1003" 
d="M752 643q-10 93 -68 147t-171 52q-114 -2 -167 -56t-80 -143h486zM543 182q154 0 274 131l133 -137q-86 -92 -184 -138t-226 -46q-240 0 -369 150q-130 150 -130 384q0 235 133 370q133 136 347 136t329 -146t111 -429h-705q14 -129 89 -202t198 -73zM535 1282
q0 53 32 86q33 33 86 33t86 -33t33 -86t-33 -86t-86 -33t-86 33q-32 33 -32 86zM229 1282q0 53 33 86t86 33t86 -33t33 -86t-33 -86t-86 -33t-86 33t-33 86z" />
    <glyph glyph-name="igrave" unicode="&#xec;" 
d="M160 1112l-242 289h227l242 -289h-227zM377 1022v-815h133v-207h-469v207h129v608h-129v207h336z" />
    <glyph glyph-name="iacute" unicode="&#xed;" 
d="M61 1112l240 289h229l-243 -289h-226zM377 1022v-815h133v-207h-469v207h129v608h-129v207h336z" />
    <glyph glyph-name="icircumflex" unicode="&#xee;" 
d="M-63 1065l260 367h159l260 -367h-204l-136 174l-135 -174h-204zM377 1022v-815h133v-207h-469v207h129v608h-129v207h336z" />
    <glyph glyph-name="idieresis" unicode="&#xef;" 
d="M244 1282q0 53 32.5 86t86 33t86 -33t32.5 -86t-32.5 -86t-86 -33t-86 33t-32.5 86zM-61 1282q0 53 32.5 86t86 33t86 -33t32.5 -86t-32.5 -86t-86 -33t-86 33t-32.5 86zM377 1022v-815h133v-207h-469v207h129v608h-129v207h336z" />
    <glyph glyph-name="ntilde" unicode="&#xf1;" horiz-adv-x="1214" 
d="M1038 207h136v-207h-469v207h129v436q0 101 -60 151t-144 50q-83 0 -155 -65q-43 -39 -96 -124v-448h133v-207h-471v207h129v608h-129v207h338v-70q107 90 275 89q167 -1 276 -100t108 -271v-463zM482 1413q75 0 147 -39q73 -39 113 -39t165 95v-211q-59 -47 -97 -67
t-76 -19q-38 0 -70 7t-90 38q-59 31 -91 30q-55 0 -178 -104v223q102 86 177 86z" />
    <glyph glyph-name="ograve" unicode="&#xf2;" horiz-adv-x="1040" 
d="M999 506q1 -111 -29 -205q-62 -199 -241 -275q-90 -40 -211 -40q-229 0 -353 150t-124 377q0 226 122 372q122 147 354 147t363 -153q119 -143 119 -373zM518 850q-132 0 -197 -90t-65 -250q0 -242 141 -317q49 -27 121 -27t123 26q143 72 143 316q0 245 -143 316
q-51 26 -123 26zM526 1112l-241 289h227l242 -289h-228z" />
    <glyph glyph-name="oacute" unicode="&#xf3;" horiz-adv-x="1040" 
d="M999 506q1 -111 -29 -205q-62 -199 -241 -275q-90 -40 -211 -40q-229 0 -353 150t-124 377q0 226 122 372q122 147 354 147t363 -153q119 -143 119 -373zM518 850q-132 0 -197 -90t-65 -250q0 -242 141 -317q49 -27 121 -27t123 26q143 72 143 316q0 245 -143 316
q-51 26 -123 26zM285 1112l239 289h230l-244 -289h-225z" />
    <glyph glyph-name="ocircumflex" unicode="&#xf4;" horiz-adv-x="1040" 
d="M999 506q1 -111 -29 -205q-62 -199 -241 -275q-90 -40 -211 -40q-229 0 -353 150t-124 377q0 226 122 372q122 147 354 147t363 -153q119 -143 119 -373zM518 850q-132 0 -197 -90t-65 -250q0 -242 141 -317q49 -27 121 -27t123 26q143 72 143 316q0 245 -143 316
q-51 26 -123 26zM180 1034l260 367h160l260 -367h-205l-135 174l-135 -174h-205z" />
    <glyph glyph-name="otilde" unicode="&#xf5;" horiz-adv-x="1040" 
d="M999 506q1 -111 -29 -205q-62 -199 -241 -275q-90 -40 -211 -40q-229 0 -353 150t-124 377q0 226 122 372q122 147 354 147t363 -153q119 -143 119 -373zM518 850q-132 0 -197 -90t-65 -250q0 -242 141 -317q49 -27 121 -27t123 26q143 72 143 316q0 245 -143 316
q-51 26 -123 26zM396 1413q75 0 147 -39q73 -39 113 -39t165 95v-211q-59 -47 -97 -67t-76 -19q-38 0 -70 7t-90 38q-59 31 -91 30q-55 0 -178 -104v223q102 86 177 86z" />
    <glyph glyph-name="odieresis" unicode="&#xf6;" horiz-adv-x="1040" 
d="M999 506q1 -111 -29 -205q-62 -199 -241 -275q-90 -40 -211 -40q-229 0 -353 150t-124 377q0 226 122 372q122 147 354 147t363 -153q119 -143 119 -373zM518 850q-132 0 -197 -90t-65 -250q0 -242 141 -317q49 -27 121 -27t123 26q143 72 143 316q0 245 -143 316
q-51 26 -123 26zM553 1282q0 53 33 86t86 33t86 -33t33 -86t-33 -86t-86 -33t-86 33t-33 86zM248 1282q0 53 33 86t86 33t86 -33t33 -86t-34 -86q-32 -33 -85 -33t-86 33t-33 86z" />
    <glyph glyph-name="divide" unicode="&#xf7;" horiz-adv-x="339" 
d="M41 888q0 56 35 94t91 38t94 -38t38 -94t-38 -91t-94 -35t-91 35t-35 91zM41 128q0 56 35 94t91 38t94 -38t38 -94t-38 -92t-94 -36t-91 36t-35 92z" />
    <glyph glyph-name="oslash" unicode="&#xf8;" horiz-adv-x="1040" 
d="M494 850q-48 0 -143 -49t-95 -297q0 -164 68 -252q31 80 58.5 152.5t55 144.5t56 145.5t59.5 153.5q-11 2 -59 2zM518 166q139 0 202.5 91.5t63.5 257.5t-71 253q-31 -78 -88 -229.5t-142 -372.5h35zM41 512q0 229 123 374.5t354 145.5q40 0 100 -10l74 190h191l-97 -251
q213 -138 213 -455q0 -230 -124.5 -375t-356.5 -145q-54 0 -102 8q-53 -137 -72 -182h-188l94 245q-209 134 -209 455z" />
    <glyph glyph-name="ugrave" unicode="&#xf9;" horiz-adv-x="1214" 
d="M176 350v463h-135v207h471v-207h-129v-436q0 -101 59 -151t148 -50q114 0 206 126q24 34 42 63v448h-133v207h469v-207h-130v-608h130v-207h-336v70q-112 -90 -278 -89t-275 100q-109 98 -109 271zM614 1112l-241 289h227l242 -289h-228z" />
    <glyph glyph-name="uacute" unicode="&#xfa;" horiz-adv-x="1214" 
d="M176 350v463h-135v207h471v-207h-129v-436q0 -101 59 -151t148 -50q114 0 206 126q24 34 42 63v448h-133v207h469v-207h-130v-608h130v-207h-336v70q-112 -90 -278 -89t-275 100q-109 98 -109 271zM373 1112l239 289h230l-244 -289h-225z" />
    <glyph glyph-name="ucircumflex" unicode="&#xfb;" horiz-adv-x="1214" 
d="M176 350v463h-135v207h471v-207h-129v-436q0 -101 59 -151t148 -50q114 0 206 126q24 34 42 63v448h-133v207h469v-207h-130v-608h130v-207h-336v70q-112 -90 -278 -89t-275 100q-109 98 -109 271zM266 1034l260 367h160l260 -367h-205l-135 174l-135 -174h-205z" />
    <glyph glyph-name="udieresis" unicode="&#xfc;" horiz-adv-x="1214" 
d="M176 350v463h-135v207h471v-207h-129v-436q0 -101 59 -151t148 -50q114 0 206 126q24 34 42 63v448h-133v207h469v-207h-130v-608h130v-207h-336v70q-112 -90 -278 -89t-275 100q-109 98 -109 271zM641 1282q0 53 33 86t86 33t86 -33t33 -86t-33 -86t-86 -33t-86 33
t-33 86zM336 1282q0 53 33 86t86 33t86 -33t33 -86t-34 -86q-32 -33 -85 -33t-86 33t-33 86z" />
    <glyph glyph-name="yacute" unicode="&#xfd;" horiz-adv-x="1234" 
d="M41 815v207h469v-207h-94l209 -520l206 520h-106v207h469v-207h-141l-492 -1225h-282v207h141l94 230l-326 788h-147zM383 1112l240 289h229l-244 -289h-225z" />
    <glyph glyph-name="ydieresis" unicode="&#xff;" horiz-adv-x="1234" 
d="M41 815v207h469v-207h-94l209 -520l206 520h-106v207h469v-207h-141l-492 -1225h-282v207h141l94 230l-326 788h-147zM651 1282q0 53 33 86t86 33t86 -33t33 -86t-33 -86t-86 -33t-86 33t-33 86zM346 1282q0 53 33 86t86 33t86 -33t33 -86t-33 -86t-86 -33t-86 33t-33 86
z" />
    <glyph glyph-name="dotlessi" unicode="&#x131;" 
d="M377 1022v-815h133v-207h-469v207h129v608h-129v207h336z" />
    <glyph glyph-name="OE" unicode="&#x152;" horiz-adv-x="1830" 
d="M844 1233h-105q-230 0 -352.5 -142.5t-122.5 -374.5q0 -233 127.5 -374t347.5 -141h105v1032zM1565 1085v142h-502v-373h219v133h219v-483h-219v129h-219v-426h508v141h219v-348h-1061q-335 0 -511.5 201.5t-176.5 511.5q0 311 180.5 516t507.5 205h1057v-349h-221z" />
    <glyph glyph-name="oe" unicode="&#x153;" horiz-adv-x="1746" 
d="M1495 643q-10 92 -67.5 146.5t-171.5 52.5t-167 -55.5t-79 -143.5h485zM784 522q-9 328 -267 328q-133 0 -197 -91t-64 -248.5t64 -251t198 -93.5q257 0 266 328v28zM1286 182q153 0 275 131l133 -137q-86 -92 -184.5 -138t-231.5 -46q-248 0 -381 166
q-127 -172 -367 -172q-241 0 -365 149t-124 377q0 229 123 374.5t361 145.5t366 -166q130 166 359 166q228 0 343 -146.5t111 -428.5h-705q14 -129 89 -202t198 -73z" />
    <glyph glyph-name="Scaron" unicode="&#x160;" horiz-adv-x="1087" 
d="M41 0v369l154 2q51 -72 140 -114t177 -42q151 0 230 47.5t79 120.5q0 132 -135 181.5t-192 68.5l-41 14q-72 25 -227.5 87.5t-155.5 320.5t174 321.5t306 63.5t245 -41v35h221v-377h-164l-16 30q-107 132 -287 132q-121 0 -186.5 -46.5t-65.5 -113.5q0 -92 113.5 -139.5
t162.5 -65.5l39 -12q174 -59 259 -126t130.5 -138.5t45.5 -169.5q0 -196 -145 -307t-370 -111q-145 0 -270 53v-43h-221zM477 1464l-246 297h218l96 -104l94 104h217l-248 -297h-131z" />
    <glyph glyph-name="scaron" unicode="&#x161;" horiz-adv-x="833" 
d="M246 0h-205v301h147q102 -127 244 -117q82 4 120 35t36 68t-26 68t-82 48t-99 27l2 -2q-137 31 -196 75q-60 44 -92 94t-40 122q0 128 96 217q96 90 238 100q112 0 180 -22v4h207v-281l-162 -2q-53 59 -105 86t-123 22q-129 -9 -124 -98q5 -70 123 -105q35 -9 81 -21
q302 -79 327 -297q0 -129 -105 -224t-252 -108q-115 0 -190 22v-12zM322 1188l-193 248h197l90 -121l90 121h196l-192 -248h-188z" />
    <glyph glyph-name="Ydieresis" unicode="&#x178;" horiz-adv-x="1357" 
d="M922 219v-221h-492v221h139v449l-366 542h-162v222h504v-222h-74q55 -78 102.5 -143.5t106.5 -151.5q29 41 53.5 76t49 69t51 69.5t57.5 80.5h-78v222h504v-222h-158l-366 -540l-2 -451h131zM721 1603.5q0 53.5 32.5 88t86 34.5t88.5 -34.5t35 -88t-35 -87t-88.5 -33.5
t-86 33.5t-32.5 87zM408 1603.5q0 53.5 33.5 88t87 34.5t87 -34.5t33.5 -88t-33.5 -87t-87 -33.5t-87 33.5t-33.5 87z" />
    <glyph glyph-name="Zcaron" unicode="&#x17d;" horiz-adv-x="1146" 
d="M274 1212v-127h-221v349h1004v-191l-709 -1022h537v127h221v-348h-1065v193l713 1019h-480zM479 1622l-192 248h196l90 -121l91 121h196l-192 -248h-189z" />
    <glyph glyph-name="zcaron" unicode="&#x17e;" horiz-adv-x="874" 
d="M627 203v135h207v-338h-793v178l485 643h-278v-135h-207v336h764v-176l-500 -643h322zM342 1188l-192 248h196l90 -121l90 121h197l-193 -248h-188z" />
    <glyph glyph-name="circumflex" unicode="&#x2c6;" horiz-adv-x="761" 
d="M41 1034l260 367h160l260 -367h-205l-135 174l-135 -174h-205z" />
    <glyph glyph-name="caron" unicode="&#x2c7;" horiz-adv-x="655" 
d="M233 1188l-192 248h197l90 -121l90 121h196l-192 -248h-189z" />
    <glyph glyph-name="breve" unicode="&#x2d8;" horiz-adv-x="540" 
d="M342 1399h158q-13 -171 -94.5 -211.5t-137.5 -40.5q-109 0 -167 73.5t-60 178.5h156q5 -113 56.5 -113t70 33t18.5 80z" />
    <glyph glyph-name="dotaccent" unicode="&#x2d9;" horiz-adv-x="333" 
d="M41 1269q0 54 35 91t90 37t91 -37t36 -91t-36 -89t-91 -35t-90 35t-35 89z" />
    <glyph glyph-name="ring" unicode="&#x2da;" horiz-adv-x="538" 
d="M498 1181q0 -93 -58.5 -155.5t-170.5 -62.5t-170 63.5t-58 156.5t58.5 155.5t170.5 62.5t170 -63.5t58 -156.5zM270.5 1102q71.5 0 71.5 80t-71.5 80t-71.5 -80t71.5 -80z" />
    <glyph glyph-name="ogonek" unicode="&#x2db;" horiz-adv-x="204" 
 />
    <glyph glyph-name="tilde" unicode="&#x2dc;" horiz-adv-x="684" 
d="M469 1335q52 0 174 95v-211q-59 -47 -97 -66.5t-76 -19.5t-69 7t-91 38t-91 30q-55 0 -178 -104v223q102 86 176 86t147 -39q74 -39 105 -39z" />
    <glyph glyph-name="hungarumlaut" unicode="&#x2dd;" horiz-adv-x="749" 
d="M274 987l226 412h209l-250 -412h-185zM41 987l225 412h209l-248 -412h-186z" />
    <glyph glyph-name="endash" unicode="&#x2013;" horiz-adv-x="1030" 
d="M41 387v180h948v-180h-948z" />
    <glyph glyph-name="emdash" unicode="&#x2014;" horiz-adv-x="1443" 
d="M41 387v180h1362v-180h-1362z" />
    <glyph glyph-name="quoteleft" unicode="&#x2018;" horiz-adv-x="405" 
d="M365 1401l-125 -455h-199l133 455h191z" />
    <glyph glyph-name="quoteright" unicode="&#x2019;" horiz-adv-x="405" 
d="M365 1401l-125 -455h-199l133 455h191z" />
    <glyph glyph-name="quotesinglbase" unicode="&#x201a;" horiz-adv-x="456" 
d="M193 -166h-152l190 430h185z" />
    <glyph glyph-name="quotedblleft" unicode="&#x201c;" horiz-adv-x="645" 
d="M604 1401l-125 -455h-198l133 455h190zM365 1401l-125 -455h-199l133 455h191z" />
    <glyph glyph-name="quotedblright" unicode="&#x201d;" horiz-adv-x="645" 
d="M604 1401l-125 -455h-198l133 455h190zM365 1401l-125 -455h-199l133 455h191z" />
    <glyph glyph-name="quotedblbase" unicode="&#x201e;" horiz-adv-x="630" 
d="M41 -289l121 539h200l-151 -539h-170zM268 -289l121 539h201l-152 -539h-170z" />
    <glyph glyph-name="bullet" unicode="&#x2022;" horiz-adv-x="509" 
d="M41 477q0 96 58.5 155.5t154.5 59.5t155.5 -59.5t59.5 -155.5t-59.5 -154.5t-155.5 -58.5t-154.5 58.5t-58.5 154.5z" />
    <glyph glyph-name="ellipsis" unicode="&#x2026;" horiz-adv-x="1204" 
d="M911 124q0 54 35 91t89 37t91 -37t37 -91t-36.5 -89t-90.5 -35t-89.5 35t-35.5 89zM477 124q0 54 35 91t89 37t91 -37t37 -91t-37 -89t-91 -35t-89 35t-35 89zM41 124q0 54 35 91t89 37t91 -37t37 -91t-37 -89t-91 -35t-89 35t-35 89z" />
    <glyph glyph-name="guilsinglleft" unicode="&#x2039;" horiz-adv-x="585" 
d="M334 129l-293 350l293 350h211l-279 -350q31 -39 68 -85t73.5 -92t72.5 -91t65 -82h-211z" />
    <glyph glyph-name="guilsinglright" unicode="&#x203a;" horiz-adv-x="571" 
d="M41 129l256 350l-256 350h199l290 -350l-290 -350h-199z" />
    <glyph glyph-name="fraction" unicode="&#x2044;" horiz-adv-x="696" 
d="M227 0h-186l428 1401h186z" />
    <glyph glyph-name="Euro" unicode="&#x20ac;" horiz-adv-x="1087" 
d="M41 371v188h147v103h-147v184h182q42 163 154 270t272 107q90 0 178 -39v28h207v-366h-151q-116 182 -230 182q-74 0 -127 -54t-86 -128h318v-184h-367v-103h367v-188h-328q31 -80 86 -132.5t137 -52.5q118 0 246 191l148 -150q-167 -237 -398 -237q-165 0 -276 105
t-156 276h-176z" />
    <glyph glyph-name="trademark" unicode="&#x2122;" horiz-adv-x="1951" 
d="M623 598v-207h-336v207h51v602h-80v-63h-217v264h807v-264h-217v63h-76v-602h68zM1214 598v-207h-337v207h67v596h-67v207h249l271 -498l272 498h242v-207h-62v-596h62v-207h-338v207h61v322q-59 -111 -121.5 -229t-115.5 -216l-236 436v-313h53z" />
    <glyph glyph-name="minus" unicode="&#x2212;" horiz-adv-x="991" 
d="M41 426v180h909v-180h-909z" />
    <glyph glyph-name="percent" horiz-adv-x="1044" 
d="M541 1175q0 -95 -58.5 -160t-169.5 -65t-174 66t-63 160t62 157.5t174 63.5t170.5 -63.5t58.5 -158.5zM307 1106q66 0 66 70.5t-66 70.5q-61 -1 -61 -71t61 -70zM258 0h-217l745 1397h218zM987 224q0 -95 -58.5 -159.5t-172.5 -64.5q-162 0 -198 89t-36 134
q0 96 61.5 159.5t174.5 63.5t171 -63.5t58 -158.5zM757.5 156q61.5 0 61.5 70.5t-61.5 70t-61.5 -70.5t61.5 -70z" />
    </font>
</defs>
</svg>
