<?xml version="1.0" standalone="no"?>
<!DOCTYPE svg PUBLIC "-//W3C//DTD SVG 1.1//EN" "http://www.w3.org/Graphics/SVG/1.1/DTD/svg11.dtd" >
<svg xmlns="http://www.w3.org/2000/svg">
<metadata>
Created by FontPrep 20130207 at Fri May 23 23:11:01 2014
 By Victor
Copyright (c) 2014 by Antonio Rodrigues Jr. All rights reserved.
</metadata>
<defs>
<font id="6aae09fa28d230e0a0444f25124f7720" horiz-adv-x='1024' >
  <font-face 
    font-family="SlaberlinXBold"
    font-weight="400"
    font-stretch="normal"
    units-per-em="2048"
    panose-1="2 0 5 6 0 0 0 2 0 2"
    ascent="1536"
    descent="-512"
    x-height="1018"
    cap-height="1434"
    bbox="-143 -434 1962 1919"
    underline-thickness="102"
    underline-position="-102"
    unicode-range="U+0020-2212"
  />
<missing-glyph horiz-adv-x="516" 
 />
    <glyph glyph-name=".notdef" horiz-adv-x="516" 
 />
    <glyph glyph-name=".null" horiz-adv-x="0" 
 />
    <glyph glyph-name="nonmarkingreturn" horiz-adv-x="681" 
 />
    <glyph glyph-name="space" unicode=" " horiz-adv-x="516" 
 />
    <glyph glyph-name="exclam" unicode="!" horiz-adv-x="382" 
d="M49 1397h285v-1059h-285v1059zM41 148q0 67 42.5 109t108.5 42t108 -42t42 -109t-42 -107.5t-109 -40.5t-108.5 40.5t-41.5 107.5z" />
    <glyph glyph-name="quotedbl" unicode="&#x22;" horiz-adv-x="614" 
d="M279 797h-224l-14 602h254zM551 797h-215l-25 602h262z" />
    <glyph glyph-name="numbersign" unicode="#" horiz-adv-x="952" 
d="M502 547h-31l-12 -53l-8 -27l-2 -4h32zM911 463v-242h-233q-4 -10 -4 -17t-4 -18v-18l-33 -168h-250l47 221h-37l-2 -45l-14 -41q2 2 1 -5t-3 -19.5t-4 -26.5t-4 -23l-13 -61h-241l41 221h-117v242h164l14 53q0 10 4 31h-182v244h235l43 221h244l-43 -221h31l20 90
q4 25 10.5 66.5t10.5 64.5h250l-47 -221h116v-244h-166l-12 -55l-8 -29h186z" />
    <glyph glyph-name="dollar" unicode="$" horiz-adv-x="1036" 
d="M375 879q0 -33 31 -58v113q-31 -22 -31 -55zM668 293q45 23 45 63t-45 76v-139zM995 373q0 -312 -327 -357v-190h-262v186q-53 10 -95 25v-33h-270v418h203q84 -97 162 -131v225q-141 43 -227.5 121.5t-86.5 226.5q0 201 113.5 266.5t200.5 81.5v185h262v-185
q14 -4 27.5 -7t27.5 -7v19h270v-394l-205 -4q-57 82 -120 113v-201q162 -48 219 -98.5t82.5 -110t25.5 -149.5z" />
    <glyph glyph-name="uni0025" unicode="%" horiz-adv-x="1095" 
d="M348 1098q23 0 23 27.5t-23 27.5q-18 1 -18 -27t18 -28zM96 1122q0 104 67.5 174t189.5 70t185.5 -69.5t63.5 -174.5q0 -59 -21 -108l187 352h287l-729 -1366h-285l523 982q-67 -104 -216 -103q-111 0 -181.5 69.5t-70.5 173.5zM1016 245q0 -103 -64.5 -174t-184.5 -71
t-188.5 71t-68.5 174t67.5 172.5t188.5 69.5t185.5 -69.5t64.5 -172.5zM765 218q19 0 19 28t-19 28t-19 -28t19 -28z" />
    <glyph glyph-name="ampersand" unicode="&#x26;" horiz-adv-x="1316" 
d="M655 1064q0 36 -23.5 58.5t-58 22.5t-59.5 -21.5t-25 -52.5t66 -115l8 -8q41 27 66.5 53.5t25.5 62.5zM471 600q-131 -84 -131 -163t49 -132t113 -53q128 0 209 59zM203 1057q0 147 110 246q120 98 267 98t260 -98q104 -98 104 -240q0 -100 -54 -172t-161 -143l51 -62
q25 -27 47.5 -55.5t46.5 -57.5q8 25 13 60v229h389v-272h-115q-11 -152 -86 -264q16 -20 41 -56h160v-270h-313q-81 94 -82 96q-154 -108 -365 -108t-343 125t-132 307q0 121 64.5 213t199.5 178q-102 148 -102 246z" />
    <glyph glyph-name="quotesingle" unicode="'" horiz-adv-x="333" 
d="M276 825h-223l-12 574h252z" />
    <glyph glyph-name="parenleft" unicode="(" horiz-adv-x="700" 
d="M299 664q0 -311 142.5 -529.5t217.5 -314.5h-294q-155 201 -211 326.5t-84.5 248.5t-28.5 328.5t89.5 407t234.5 378.5h294q-360 -455 -360 -845z" />
    <glyph glyph-name="parenright" unicode=")" horiz-adv-x="698" 
d="M401 751.5q0 302.5 -360 757.5h295q144 -182 204 -317t88.5 -259t28.5 -328.5t-86.5 -398.5t-234.5 -386h-295q174 219 267 424t93 507.5z" />
    <glyph glyph-name="asterisk" unicode="*" horiz-adv-x="847" 
d="M307 1399h236v-213l200 61l64 -215l-191 -71q14 -18 26.5 -36t27.5 -36l73 -98l-180 -136l-137 170l-131 -163l-186 124l124 179l-192 71l72 213l194 -65v215z" />
    <glyph glyph-name="plus" unicode="+" horiz-adv-x="997" 
d="M379 57v336h-338v244h338v336h239v-336h338v-244h-338v-336h-239z" />
    <glyph glyph-name="comma" unicode="," horiz-adv-x="495" 
d="M41 -254l152 573h262l-162 -573h-252z" />
    <glyph glyph-name="hyphen" unicode="-" horiz-adv-x="575" 
d="M41 387v250h494v-250h-494z" />
    <glyph glyph-name="period" unicode="." horiz-adv-x="397" 
d="M41 155q0 69 43 114.5t111 45.5t114.5 -46.5t46.5 -114.5t-47 -111t-115 -43t-110.5 43t-42.5 112z" />
    <glyph glyph-name="slash" unicode="/" horiz-adv-x="864" 
d="M41 0l524 1397h258l-526 -1397h-256z" />
    <glyph glyph-name="zero" unicode="0" horiz-adv-x="1097" 
d="M546 238q108 0 177.5 114.5t69.5 314.5t-69.5 315.5t-177.5 115.5t-179.5 -114t-71.5 -316t71.5 -316t179.5 -114zM41 669q0 311 142.5 500t365.5 189t365.5 -189t142.5 -500t-141 -497t-367 -186t-367 186t-141 497z" />
    <glyph glyph-name="one" unicode="1" 
d="M428 1370v-1104h123v-266h-510v266h119v838h-119v266h387z" />
    <glyph glyph-name="two" unicode="2" horiz-adv-x="956" 
d="M458 1366q86 0 166.5 -31.5t167.5 -122.5t87 -269q0 -179 -99.5 -301t-136.5 -165l-194 -215h198v125h268v-387h-860v231q335 363 421.5 469.5t111 152t24.5 97.5t-44 100t-122 48q-108 0 -170 -117h-235v385h264v-20q67 20 153 20z" />
    <glyph glyph-name="three" unicode="3" horiz-adv-x="1040" 
d="M831 735q168 -110 168 -316t-142.5 -318.5t-352.5 -112.5q-138 0 -244 54t-219 171l213 182q116 -151 250 -151q104 0 162.5 45t58.5 123q0 174 -285 174h-114v264h118q98 0 162 37t64 100t-49.5 99t-121 36t-120.5 -26.5t-98 -83.5h-197v354h266v-4q72 16 157 16
q190 0 314.5 -99t124.5 -271q0 -173 -115 -273z" />
    <glyph glyph-name="four" unicode="4" horiz-adv-x="1056" 
d="M627 596v48l-1 103l-1 113q-56 -79 -195 -264h197zM1016 266v-266h-508v266h119v62h-586v190l635 850h219v-772h111v-268h-111v-62h121z" />
    <glyph glyph-name="five" unicode="5" horiz-adv-x="1050" 
d="M470 705q-122 0 -329 -58l25 723h758v-387h-269v117h-225l-2 -56l-4 -77h63q362 0 442.5 -172.5t80.5 -284.5q0 -211 -142.5 -364.5t-343.5 -153.5t-313.5 83t-169.5 138l213 195q109 -146 260 -146q97 0 163 64.5t66 165.5t-75.5 157t-197.5 56z" />
    <glyph glyph-name="six" unicode="6" horiz-adv-x="1040" 
d="M311 504q0 -34 15.5 -84.5t59 -112t141.5 -61.5q99 0 152.5 59.5t53.5 149.5t-53 140t-124 50q-127 0 -243 -96q-2 -11 -2 -45zM999 459q0 -206 -128.5 -338.5t-349.5 -132.5t-350.5 159.5t-129.5 403.5q0 298 190.5 531.5t591.5 306.5l76 -240q-193 -45 -308.5 -102.5
t-176.5 -149.5q49 14 143 14q187 0 314.5 -123t127.5 -329z" />
    <glyph glyph-name="seven" unicode="7" horiz-adv-x="964" 
d="M305 1100v-117h-264v387h883v-178l-367 -1192h-305l338 1100h-285z" />
    <glyph glyph-name="eight" unicode="8" horiz-adv-x="1075" 
d="M367 992q0 -56 51 -93t125 -45q66 10 116 48t50 92t-51.5 88t-122.5 34h-3q-70 -4 -117.5 -36t-47.5 -88zM317 412q0 -45 19 -84q76 -80 166 -80t147.5 23.5t95.5 64.5q13 46 13 76q0 74 -63.5 115.5t-162.5 54.5q-215 -21 -215 -170zM41 412q0 216 166 325
q-111 102 -111 272t125 269.5t322 99.5h8q77 0 135 -20q132 -34 212 -122t81 -244q0 -155 -111 -255q166 -109 166 -325q0 -181 -117.5 -291t-295.5 -127l-29 -4l-10 -2h-70l-59 6q-176 21 -294 129.5t-118 288.5z" />
    <glyph glyph-name="nine" unicode="9" horiz-adv-x="1040" 
d="M729 828v40q0 30 -15.5 79.5t-60.5 111t-142 61.5t-150.5 -58t-53.5 -150.5t53.5 -141.5t123.5 -49q129 0 243 100q2 6 2 7zM476 455q-184 0 -309.5 124.5t-125.5 328.5t128 338t349 134q222 0 351.5 -161t129.5 -404q0 -296 -191.5 -530.5t-592.5 -307.5l-74 240
q190 45 306 103.5t180 148.5q-62 -14 -151 -14z" />
    <glyph glyph-name="colon" unicode=":" horiz-adv-x="397" 
d="M41 857q0 69 43 115t111 46t114.5 -46t46.5 -115t-47 -110.5t-115 -41.5t-110.5 41.5t-42.5 110.5zM41 155q0 69 43 114.5t111 45.5t114.5 -46.5t46.5 -114.5t-47 -111t-115 -43t-110.5 43t-42.5 112z" />
    <glyph glyph-name="semicolon" unicode=";" horiz-adv-x="503" 
d="M143 857q0 69 44 115t112 46t114 -46t46 -115t-46 -110.5t-114 -41.5t-112 41.5t-44 110.5zM41 -266l160 573h262l-162 -573h-260z" />
    <glyph glyph-name="less" unicode="&#x3c;" horiz-adv-x="698" 
d="M348 113l-307 368l307 367h309l-286 -369l26 -33q98 -115 248 -333h-297z" />
    <glyph glyph-name="equal" unicode="=" horiz-adv-x="948" 
d="M41 588v262h866v-262h-866zM41 246v258h866v-258h-866z" />
    <glyph glyph-name="greater" unicode="&#x3e;" horiz-adv-x="698" 
d="M41 113l285 366q-16 20 -35 39l-43 60v-3l-205 273h309l305 -367l-305 -368h-311z" />
    <glyph glyph-name="question" unicode="?" horiz-adv-x="868" 
d="M545 334h-260l-6 411q162 98 217 148t55 105q0 54 -35 82t-90 28t-98 -27.5t-90 -85.5h-197v371h264v-10q72 14 139 14q156 0 269.5 -96t113.5 -284q0 -189 -282 -402v-254zM258 152q0 66 44 112.5t110 46.5t111.5 -46.5t45.5 -112.5t-45.5 -109t-111.5 -43t-110 43
t-44 109z" />
    <glyph glyph-name="at" unicode="@" horiz-adv-x="1374" 
d="M1192 199q-203 -199 -508 -199t-474 191t-169 495t171 505.5t467 201.5q297 0 475.5 -178.5t178.5 -473.5q0 -173 -63.5 -279.5t-161.5 -137.5zM369 1079q-131 -143 -131 -377t116 -375t336 -141q102 0 187.5 27t164.5 98h-16q-113 0 -166 64q-93 -78 -226 -78
q-132 0 -215 71.5t-83 200.5t91 199t228 70q81 0 166 -23v21q0 115 -145 114q-93 0 -172 -96h-135v225zM680 1139q154 0 245 -74t91 -217v-348q0 -12 16 -12q41 -1 69.5 56.5t28.5 181.5q0 235 -121.5 360.5t-324.5 125.5q-139 0 -254 -77h145v-5q52 9 105 9zM697 655
q-169 0 -169 -87t123 -87q93 0 170 90v58q-76 26 -124 26z" />
    <glyph glyph-name="A" unicode="A" horiz-adv-x="1458" 
d="M645 674h164l-80 233zM594 287v-287h-553v287h147q41 113 80 219t76 210.5t75 210t79 220.5h-99v287h455l408 -1147h155v-287h-553v287h86l-41 102h-364q-10 -25 -14.5 -37t-9 -19.5t-15.5 -45.5h88z" />
    <glyph glyph-name="B" unicode="B" horiz-adv-x="1329" 
d="M465 1147v-264h332q57 0 95 39t38 94t-38 93t-95 38h-332zM465 287h381q65 0 112.5 49.5t47.5 114.5t-47.5 105t-112.5 40h-381v-309zM1135 772q153 -122 153 -319t-131 -325t-313 -128h-797v287h131v860h-137v287h756q171 0 294 -123t123 -297q0 -126 -79 -242z" />
    <glyph glyph-name="C" unicode="C" horiz-adv-x="1284" 
d="M672 1452q152 0 260 -45v27h287v-426h-215q-78 94 -153 125.5t-165 31.5t-158.5 -36.5t-112.5 -98t-65.5 -141.5t-21.5 -217t92.5 -266.5t267.5 -129.5q88 0 170 41t172 156l213 -188q-113 -133 -248 -213t-305 -80t-290.5 62.5t-200.5 165t-119 234.5t-39 271t39 270
t119 232.5t200.5 163t272.5 61.5z" />
    <glyph glyph-name="D" unicode="D" horiz-adv-x="1445" 
d="M1116 721q0 199 -108.5 312.5t-300.5 113.5h-246v-860h246q205 0 307 117.5t102 316.5zM176 1147h-135v287h676q336 0 512 -202t176 -514q0 -311 -178.5 -514.5t-509.5 -203.5h-672v287h131v860z" />
    <glyph glyph-name="E" unicode="E" horiz-adv-x="1232" 
d="M41 1147v287h1145v-408h-287v121h-438v-262h129v127h287v-535h-287v121h-129v-311h444v121h287v-408h-1147v287h131v428l-2 432h-133z" />
    <glyph glyph-name="F" unicode="F" horiz-adv-x="1173" 
d="M41 1147v287h1092v-408h-285v121h-383v-262h74v127h284v-535h-284v121h-74v-311h131v-287h-549v287h131v428l-2 432h-135z" />
    <glyph glyph-name="G" unicode="G" horiz-adv-x="1271" 
d="M665 1452q145 0 263 -43v25h286v-426h-213q-76 94 -150.5 125.5t-164.5 31.5t-158.5 -36.5t-112.5 -98t-65.5 -141.5t-21.5 -215t100.5 -266.5t280.5 -131.5q146 0 237 74v248h-366v287h651v-635q-221 -258 -526 -258q-164 0 -289 62.5t-208 165t-125 234.5t-42 271
t39 270t119 232.5t200.5 163t265.5 61.5z" />
    <glyph glyph-name="H" unicode="H" horiz-adv-x="1404" 
d="M174 1147h-133v287h555v-287h-135v-262h485v262h-135v287h553v-287h-133v-860h129v-287h-543v287h129v311h-485v-311h129v-287h-543v287h127v860z" />
    <glyph glyph-name="I" unicode="I" horiz-adv-x="632" 
d="M174 1147h-133v287h551v-287h-133v-860h131v-287h-545v287h129v860z" />
    <glyph glyph-name="J" unicode="J" horiz-adv-x="1126" 
d="M522 270q137 0 137 185v692h-127v287h553v-287h-139v-694q0 -231 -113.5 -350t-332.5 -119q-137 0 -240.5 65t-218.5 217l219 201q61 -94 122.5 -145.5t139.5 -51.5z" />
    <glyph glyph-name="K" unicode="K" horiz-adv-x="1490" 
d="M901 0v266l-436 469l430 430v269h555v-287h-184l-414 -412l424 -448h168v-287h-543zM174 1147h-133v287h555v-287h-135v-860h129v-287h-543v287h127v860z" />
    <glyph glyph-name="L" unicode="L" horiz-adv-x="1179" 
d="M176 1147h-135v287h555v-287h-133v-860h391v121h285v-408h-1092v287h129v860z" />
    <glyph glyph-name="M" unicode="M" horiz-adv-x="1638" 
d="M1597 1434v-287h-133v-860h129v-287h-542v287h127v520l-361 -571l-119 192v-2l-237 377v-516h129v-287h-543v287h125v860h-131v287h352l424 -676l426 676h354z" />
    <glyph glyph-name="N" unicode="N" horiz-adv-x="1523" 
d="M1071 1147h-131v287h543v-287h-129v-1147h-226l-673 889v-602h135v-287h-543v287h125v860h-131v287h354l676 -889v602z" />
    <glyph glyph-name="O" unicode="O" horiz-adv-x="1429" 
d="M1389 724q0 -142 -43 -275.5t-127 -234.5t-211 -162.5t-293 -61.5t-293 61.5t-254 214t-127 455.5t127 456.5t254 214t293 60.5t293 -60.5t211 -162t127 -232.5t43 -273zM432.5 1038.5q-102.5 -126.5 -102.5 -316.5t102 -318t283.5 -128t283 128.5t101.5 316.5t-101 316
t-282.5 128t-284 -126.5z" />
    <glyph glyph-name="P" unicode="P" horiz-adv-x="1251" 
d="M461 836h309q61 0 107.5 45t46.5 108.5t-46.5 110.5t-107.5 47h-309v-311zM174 1147h-133v287h729q180 0 310 -130t130 -314t-128.5 -312.5t-311.5 -128.5h-309v-262h129v-287h-543v287h127v860z" />
    <glyph glyph-name="Q" unicode="Q" horiz-adv-x="1429" 
d="M432.5 1038.5q-102.5 -126.5 -102.5 -316.5t102 -318t283.5 -128t283 128.5t101.5 316.5t-101 316t-282.5 128t-284 -126.5zM1389 741q0 -240 -91.5 -421t-275.5 -263l184 -241h-340l-131 174h-20q-166 0 -293 61.5t-254 214t-127 455.5t127 456.5t254 214t293 60.5
t293 -60.5t211 -162t127 -232.5t43 -256z" />
    <glyph glyph-name="R" unicode="R" horiz-adv-x="1314" 
d="M461 836h309q61 0 107.5 45t46.5 108.5t-46.5 110.5t-107.5 47h-309v-311zM461 549v-262h129v-287h-543v287h127v860h-133v287h729q180 0 310 -130t130 -315q0 -129 -69 -237t-189 -164l164 -301h158v-287h-543v287h55l-147 262h-178z" />
    <glyph glyph-name="S" unicode="S" horiz-adv-x="1110" 
d="M542 -10q-115 0 -214 33v-23h-287v426l203 2q49 -66 129 -106.5t179 -40.5t163.5 33.5t64.5 79.5q0 79 -72.5 120t-211.5 86l-39 14q-74 25 -231.5 89.5t-157.5 332.5t179 336t297 68t210 -25v19h286v-435h-219l-24 52q-102 102 -250 102q-82 0 -134.5 -33t-52.5 -80
q0 -74 236 -157l37 -11q180 -68 263 -134t128 -140t45 -175t-40 -183t-110.5 -137.5t-166 -84t-210.5 -28.5z" />
    <glyph glyph-name="T" unicode="T" horiz-adv-x="1275" 
d="M41 1026v408h1194v-408h-287v121h-160v-860h127v-287h-544v287h129v860h-172v-121h-287z" />
    <glyph glyph-name="U" unicode="U" horiz-adv-x="1527" 
d="M174 1147h-133v287h555v-287h-135v-629q0 -220 266 -244l6 -2h60l6 2q187 14 226.5 98.5t39.5 145.5v629h-133v287h555v-287h-135v-653q-8 -212 -143 -345t-351 -157l-67 -6h-29q-66 0 -131 11t-153.5 53t-192 144t-111.5 300v653z" />
    <glyph glyph-name="V" unicode="V" horiz-adv-x="1468" 
d="M41 1147v287h553v-287h-82q51 -139 88 -244l133 -379l221 623h-82v287h555v-287h-161l-299 -844q-23 -70 -53.5 -152.5t-53.5 -150.5h-252l-411 1147h-156z" />
    <glyph glyph-name="W" unicode="W" horiz-adv-x="2002" 
d="M41 1147v287h555v-287h-92q25 -82 42.5 -151.5t33.5 -127.5q22 -82 34.5 -122.5t34.5 -118.5l223 807h265l225 -803q35 125 71.5 253t73.5 263h-100v287h555v-287h-154q-49 -180 -100 -360.5t-98 -360.5l-121 -426h-256l-225 807l-230 -807h-262l-323 1147h-152z" />
    <glyph glyph-name="X" unicode="X" horiz-adv-x="1372" 
d="M45 1147v287h553v-287h-29q10 -14 19.5 -28.5t19.5 -26.5h-2q12 -18 20.5 -30.5t19 -28.5t40.5 -58l62 92h-3q10 16 15.5 22.5t15.5 21.5t25 36h-25v287h555v-287h-174q-245 -348 -297 -424q35 -47 64.5 -93t99.5 -142t143 -201h160v-287h-543v287h23l-121 178
q-79 -109 -125 -178h23v-287h-543v287h168l303 436l-297 424h-170z" />
    <glyph glyph-name="Y" unicode="Y" horiz-adv-x="1366" 
d="M827 287h125v-287h-542v287h131v375l-332 485h-168v287h553v-287h-35l35 -45l90 -129q37 53 70 98l55 76h-37v287h553v-287h-164l-332 -483v-62l-1 -143z" />
    <glyph glyph-name="Z" unicode="Z" horiz-adv-x="1165" 
d="M338 1147v-121h-287v408h1028v-230l-639 -917h398v121h286v-408h-1083v231l639 916h-342z" />
    <glyph glyph-name="bracketleft" unicode="[" horiz-adv-x="454" 
d="M41 -174v1690h373v-234h-131v-1221h131v-235h-373z" />
    <glyph glyph-name="backslash" unicode="\" horiz-adv-x="864" 
d="M565 4l-524 1366h256l526 -1366h-258z" />
    <glyph glyph-name="bracketright" unicode="]" horiz-adv-x="454" 
d="M41 -174v235h131v1221h-131v234h373v-1690h-373z" />
    <glyph glyph-name="asciicircum" unicode="^" horiz-adv-x="856" 
d="M41 1090l285 342h204l285 -342h-323l-66 73l-59 -73h-326z" />
    <glyph glyph-name="underscore" unicode="_" horiz-adv-x="1101" 
d="M41 -362v241h1020v-241h-1020z" />
    <glyph glyph-name="grave" unicode="`" horiz-adv-x="673" 
d="M326 1090l-285 342h305l287 -342h-307z" />
    <glyph glyph-name="a" unicode="a" horiz-adv-x="1062" 
d="M487 412h-14q-111 0 -138.5 -35t-27.5 -64q0 -73 130 -73t196 82v79q-45 11 -146 11zM98 682v340h269v-2q63 10 132 10q70 0 148 -24.5t165 -97t87 -253.5v-389h123v-266h-389v20q-70 -30 -184 -30q-200 0 -304 84.5t-104 249.5t114.5 257.5t295.5 92.5q124 0 180 -10
q-17 110 -158 110q-53 0 -93 -16.5t-85 -75.5h-197z" />
    <glyph glyph-name="b" unicode="b" horiz-adv-x="1110" 
d="M545 246q119 0 185.5 72.5t66.5 197.5t-72 194.5t-195 69.5q-46 0 -100 -14v-510q48 -10 115 -10zM560 1032q81 0 176 -29.5t214 -131.5t119 -346q0 -243 -146 -387t-388 -144q-74 0 -148 6h-346v266h119v838h-119v266h389v-348q49 10 130 10z" />
    <glyph glyph-name="c" unicode="c" horiz-adv-x="997" 
d="M530 246q128 0 252 145l174 -182q-94 -98 -195.5 -156.5t-232.5 -58.5q-243 0 -365 149t-122 373t125.5 370t355.5 146q80 0 142 -18v6h268v-356h-199q-103 116 -208.5 116t-159.5 -72.5t-54 -191.5q0 -178 80 -224t139 -46z" />
    <glyph glyph-name="d" unicode="d" horiz-adv-x="1110" 
d="M584 780q-125 0 -197 -69.5t-72 -194.5t67 -197.5t183 -72.5q80 0 119 8v512q-58 14 -100 14zM553 1032q82 0 131 -10v82h-119v266h387l-2 -192v-912h119v-266l-342 6q-68 -12 -171 -12t-202.5 39t-206 144t-106.5 349t120 345.5t215 131t177 29.5z" />
    <glyph glyph-name="e" unicode="e" horiz-adv-x="1013" 
d="M690 670q-33 106 -174 110q-132 -7 -176 -110h350zM973 201q-193 -209 -432 -209q-242 0 -371 150t-129 364q0 256 134 390t349 134t331 -154.5t112 -453.5h-645q23 -78 80 -128t141 -50q127 0 254 139z" />
    <glyph glyph-name="f" unicode="f" horiz-adv-x="671" 
d="M578 1022v-254h-152v-502h125v-266h-510v266h115v502h-78v254h78q19 352 315 352q43 0 160 -22l-37 -250q-106 26 -115 26q-43 0 -53 -106h152z" />
    <glyph glyph-name="g" unicode="g" horiz-adv-x="1124" 
d="M582 778q-119 0 -184.5 -72.5t-65.5 -197.5t70.5 -194.5t193.5 -69.5q49 0 100 14v510q-48 10 -114 10zM556 -8q-68 0 -163.5 29.5t-215.5 131t-120 344.5q0 242 145.5 387.5t391.5 145.5q78 0 149 -12h340v-266h-118v-717q0 -232 -126.5 -342.5t-355.5 -110.5t-442 217
l182 195q131 -150 271 -150q98 0 148 36t54 122q-72 -10 -140 -10z" />
    <glyph glyph-name="h" unicode="h" horiz-adv-x="1202" 
d="M621 780q-104 0 -189 -145v-369h119v-266h-510v266h119v838h-119v266h391v-381q88 47 192 47q190 0 303 -98t113 -281v-391h121v-266h-508v266h121v367q0 76 -44 111.5t-109 35.5z" />
    <glyph glyph-name="i" unicode="i" 
d="M127 1222.5q0 65.5 40 106.5t105.5 41t107.5 -41t42 -106.5t-42 -106.5t-107.5 -41t-105.5 41t-40 106.5zM428 1020v-754h123v-266h-510v266h119v488h-119v266h387z" />
    <glyph glyph-name="j" unicode="j" horiz-adv-x="579" 
d="M240 1222.5q0 65.5 41 106.5t106.5 41t106.5 -41t41 -106.5t-41 -106.5t-106.5 -41t-106.5 41t-41 106.5zM539 1020v-942q0 -277 -161 -356.5t-276 -92.5l-61 246q125 16 177 66.5t52 142.5v670h-118v266h387z" />
    <glyph glyph-name="k" unicode="k" horiz-adv-x="1218" 
d="M670 1020h508v-266h-170l-234 -228l82 -88q41 -43 79 -85t83 -87h156v-266h-275l-473 524v-258h123v-266h-508v266h119v838h-119v266h385v-837l244 245v242z" />
    <glyph glyph-name="l" unicode="l" 
d="M428 1370v-1104h123v-266h-510v266h119v838h-119v266h387z" />
    <glyph glyph-name="m" unicode="m" horiz-adv-x="1816" 
d="M1651 657v-391h125v-266h-510v266h118v367q0 74 -45 109.5t-96 36.5q-77 2 -120.5 -38t-84.5 -106v-369h125v-266h-510v266h119v367q0 76 -44 111.5t-110 35.5q-104 0 -190 -147v-367h123v-266h-510v266h121v488h-121v266h387v-33q96 49 215 49q192 0 303 -121
q136 121 308 121t284.5 -100t112.5 -279z" />
    <glyph glyph-name="n" unicode="n" horiz-adv-x="1204" 
d="M623 1036q188 0 301.5 -98t113.5 -281v-391h125v-266h-508v266h119v367q0 76 -45 111.5t-111 35.5q-103 0 -188 -145v-369h123v-266h-512v266h119v488h-119v266h389v-33q91 49 193 49z" />
    <glyph glyph-name="o" unicode="o" horiz-adv-x="1042" 
d="M1001 505q0 -110 -29.5 -204t-90 -163.5t-151.5 -109.5t-212 -40t-210 41t-148.5 112.5t-89 166.5t-29.5 204t29.5 204t89 164.5t148.5 109.5t210 40t212 -41t151.5 -111.5t90 -166.5t29.5 -206zM518 229q209 0 209 279q0 119 -48 198.5t-160 79.5t-158 -78.5t-46 -197.5
q0 -199 74 -240t129 -41z" />
    <glyph glyph-name="p" unicode="p" horiz-adv-x="1122" 
d="M530 244q123 0 195 69.5t72 194.5t-66.5 197.5t-185.5 72.5q-67 0 -115 -10v-510q58 -14 100 -14zM556 1030q104 0 204 -39t210.5 -145.5t110.5 -348.5t-158 -373.5t-384 -131.5q-61 0 -109 10v-168h121v-266l-195 -2l-118 2h-197v266h123v920h-123v266l346 -2
q66 12 169 12z" />
    <glyph glyph-name="q" unicode="q" horiz-adv-x="1110" 
d="M565 778q-117 0 -183.5 -72.5t-66.5 -197.5t72 -194.5t197 -69.5q42 0 100 14v510q-48 10 -119 10zM561 1030q108 0 166 -10h342v-266h-121v-920h121v-268h-508v268h123v168q-151 -29 -330.5 26.5t-246 201t-66.5 270.5t37 219t106.5 163.5t169 108.5t207.5 39z" />
    <glyph glyph-name="r" unicode="r" horiz-adv-x="890" 
d="M618 780q-105 0 -190 -145v-369h123v-266h-510v266h119v488h-119v266h387v-33q92 49 194 49q103 0 228 -35l-70 -264q-127 43 -162 43z" />
    <glyph glyph-name="s" unicode="s" horiz-adv-x="851" 
d="M41 0v354h192q96 -116 205 -108q55 2 82 19.5t25 39.5q0 41 -47.5 59.5t-105.5 31.5q-133 30 -228.5 98t-110.5 204q0 136 97.5 230t244.5 106q106 0 176 -18h224v-334l-203 -2q-93 109 -183 100t-90 -51q3 -53 150 -80q145 -42 234.5 -109t107.5 -202
q0 -139 -105.5 -235t-259.5 -113q-83 0 -141 10h-264z" />
    <glyph glyph-name="t" unicode="t" horiz-adv-x="634" 
d="M430 -8q-168 0 -239.5 112t-71.5 291v375h-78v254h78v207h268v-207h154v-254h-154v-371q0 -61 8 -108t41 -51q10 -2 43 6t78 18l37 -254l-55 -2q-35 -6 -58.5 -11t-50.5 -5z" />
    <glyph glyph-name="u" unicode="u" horiz-adv-x="1204" 
d="M166 362v390h-125v266h512v-266h-119v-365q0 -76 43 -112.5t93 -36.5q77 0 119.5 39t88.5 110v365h-123v266h508v-266h-119v-488h119v-266h-385v35q-96 -51 -197 -51q-189 0 -302 99.5t-113 280.5z" />
    <glyph glyph-name="v" unicode="v" horiz-adv-x="1220" 
d="M41 752v266h512v-266h-78q43 -106 64.5 -156.5t38 -92.5t38.5 -97l144 346h-90v266h510v-266h-144q-208 -503 -309 -752h-223l-316 752h-147z" />
    <glyph glyph-name="w" unicode="w" horiz-adv-x="1761" 
d="M41 752v266h510v-266h-78q20 -57 36.5 -107.5t37.5 -107.5l28 -88l21 49q69 208 184 520h217l203 -567q27 78 51.5 146.5t53.5 154.5h-95v266h510v-266h-143l-266 -752h-219l-207 565q-11 -30 -211 -565h-219l-267 752h-147z" />
    <glyph glyph-name="x" unicode="x" horiz-adv-x="1101" 
d="M1061 266v-266h-502v266h27l-35 45l-33 -45h25v-266h-502v266h160q104 144 178 244l-184 246h-154v266h502v-266h-27l35 -45l33 45h-25v266h502v-266h-160q-82 -119 -178 -246l184 -244h154z" />
    <glyph glyph-name="y" unicode="y" horiz-adv-x="1224" 
d="M41 754v266h510v-266h-70l137 -338l136 338h-80v266h510v-266h-146l-458 -1127h-320v267h146l69 172l-287 688h-147z" />
    <glyph glyph-name="z" unicode="z" horiz-adv-x="890" 
d="M582 262v125h268v-387h-809v215l410 545h-144v-125h-266v385h782v-213l-422 -545h181z" />
    <glyph glyph-name="braceleft" unicode="{" horiz-adv-x="512" 
d="M471 -176h-100q-115 0 -185.5 64.5t-81.5 199.5l-2 412q-2 25 -11 37t-50 12v268q43 0 51 14.5t10 38.5v38v118l2 215q10 139 81 203.5t186 64.5h100v-243l-100 -2q-29 0 -23 -93v-342l-2 -12v-2q-4 -39 -6 -70.5t-29 -62.5q23 -33 28 -72t9 -73l2 -396q0 -75 21 -75
l100 -3v-239z" />
    <glyph glyph-name="bar" unicode="|" horiz-adv-x="325" 
d="M285 -336h-244v1825h244v-1825z" />
    <glyph glyph-name="braceright" unicode="}" horiz-adv-x="512" 
d="M41 1509h100q113 0 186.5 -64.5t82.5 -203.5l2 -375q0 -25 8 -37t51 -12v-268q-43 0 -51 -13.5t-8 -37.5l-2 -410q-8 -135 -82 -199.5t-187 -64.5h-100v239l100 3q23 0 23 77v394l2 10v2q2 35 6 67.5t27 65.5q-18 29 -35 147v342q6 93 -23 93l-100 2v243z" />
    <glyph glyph-name="exclamdown" unicode="&#xa1;" horiz-adv-x="376" 
d="M49 854h285v-1059h-285v1059zM41 1043q0 67 42.5 108t108.5 41t108 -41t42 -108t-42 -108.5t-109 -41.5t-108.5 41.5t-41.5 108.5z" />
    <glyph glyph-name="cent" unicode="&#xa2;" horiz-adv-x="997" 
d="M369 715q-58 -75 -58 -200t58 -198v398zM629 -178h-260v190q-23 6 -64 25q-137 68 -200.5 195.5t-63.5 286.5q1 159 69 285t201 183q37 19 58 25v184h260v-174q8 -2 17 -5t18 -5v8h268v-356h-199q-51 61 -104 90v-492q17 0 61.5 38t91.5 91l174 -182q-98 -113 -211 -172
q-55 -23 -116 -35v-180z" />
    <glyph glyph-name="sterling" unicode="&#xa3;" horiz-adv-x="974" 
d="M289 418q0 12 3 9q-1 1 -5 9h-246v252h74q-27 66 -27 142q0 164 107 265t303 101q80 0 159 -22v20h269v-399h-203q-90 139 -231 139q-72 0 -104 -26.5t-32 -67.5t23.5 -78t52.5 -74h387v-252h-268v-10q0 -84 -39 -152h422v-274h-889v221q244 100 244 197z" />
    <glyph glyph-name="yen" unicode="&#xa5;" horiz-adv-x="1312" 
d="M41 1096v274h532v-274h-34q26 -35 43.5 -57.5t26.5 -36t20.5 -29t27.5 -39.5q14 23 27.5 40t28.5 38l61 84h-35v274h533v-274h-160l-170 -246h148v-262l-293 -2v-41h288v-260h-290v-37l118 -2v-246h-520v246l125 2l-2 37h-293v260h293v43h-293v262h150q-123 189 -162 246
h-170z" />
    <glyph glyph-name="brokenbar" unicode="&#xa6;" horiz-adv-x="319" 
d="M41 -2v580h238v-580h-238zM41 795v579h238v-579h-238z" />
    <glyph glyph-name="section" unicode="&#xa7;" horiz-adv-x="849" 
d="M464 640l42 -11q51 22 51 55t-39 48.5t-92 31.5l-55 14q-56 -13 -56 -69q0 -21 150 -68zM459 641l-2 1q0 -1 2 -1zM463 1153q-119 0 -119 -80q0 -15 94 -46t152.5 -57t138.5 -91t80 -186t-82 -208q51 -78 51 -165q0 -159 -106.5 -245.5t-265.5 -86.5t-365 98l104 207
q153 -60 197.5 -65t73.5 -5q110 0 110 88q0 40 -50.5 64t-111.5 43q-143 43 -223 102t-80 184t78 207q-47 70 -47 193.5t108 200.5t263 77q72 0 130 -18t124 -47l76 -31l-86 -242q-86 53 -141.5 81t-102.5 28z" />
    <glyph glyph-name="dieresis" unicode="&#xa8;" horiz-adv-x="700" 
d="M362 1222.5q0 65.5 41 106.5t108 41t107.5 -41t40.5 -106.5t-40.5 -106.5t-107.5 -41t-108 41t-41 106.5zM41 1222.5q0 65.5 41 106.5t106.5 41t106.5 -41t41 -106.5t-41 -106.5t-106.5 -41t-106.5 41t-41 106.5z" />
    <glyph glyph-name="copyright" unicode="&#xa9;" horiz-adv-x="1435" 
d="M1040 455q-156 -172 -336 -172q-186 0 -286.5 118.5t-100.5 283.5q0 164 101.5 277t279.5 113q31 0 72 -6v8h150q-95 53 -195 53t-178 -36.5t-135.5 -97t-89 -140.5t-31.5 -166t31.5 -166t89 -141t135.5 -98t214.5 -37t261 133.5t124.5 313.5t-141 319v-238l-160 -2
q-75 84 -149 84q-75 0 -110.5 -53t-35.5 -124t37 -126t117 -55t186 114zM1395 692q0 -137 -46 -261t-133.5 -217t-213 -147.5t-285.5 -54.5t-286 54.5t-212 147.5t-132 217t-46 261t46 260t132 215.5t212 146.5t286 54t285.5 -54t213 -146.5t133.5 -215.5t46 -260z" />
    <glyph glyph-name="ordfeminine" unicode="&#xaa;" horiz-adv-x="1062" 
d="M348 820q-92 0 -122 -41q-12 -15 -12 -38q0 -60 105 -60t159 67v64q-40 10 -118 8h-12zM45 1039v275h217v-1q213 32 336 -70q97 -80 95 -225v-315h100v-216h-315v17q-56 -25 -148 -25q-241 0 -308 148q-24 49 -24 119q-1 135 92 210t216 76t170 -8q-15 90 -128 90
q-43 0 -75 -13t-69 -62h-159z" />
    <glyph glyph-name="guillemotleft" unicode="&#xab;" horiz-adv-x="1093" 
d="M754 121l-303 362l303 361h299l-289 -361l289 -362h-299zM344 121l-303 362l303 361h299l-289 -361l289 -362h-299z" />
    <glyph glyph-name="logicalnot" unicode="&#xac;" horiz-adv-x="972" 
d="M688 201v311h-647v250h891v-561h-244z" />
    <glyph glyph-name="registered" unicode="&#xae;" horiz-adv-x="1435" 
d="M1395 692q0 -137 -46 -261t-133.5 -217t-213 -147.5t-285.5 -54.5t-286 54.5t-212 147.5t-132 217t-46 261t46 260t132 215.5t212 146.5t286 54t285.5 -54t213 -146.5t133.5 -215.5t46 -260zM1040 399q109 130 109 297t-124 300.5t-308 133.5q-121 0 -217 -61h256
q95 0 166 -69t71 -176t-90 -183l47 -88h90v-154zM674 799h82q10 0 18 9t8 20t-8 21.5t-18 10.5h-82v-61zM674 588v-35h35q-12 19 -19 35h-16zM406 553h57v307h-60v130q-114 -125 -114 -299t117 -304v166zM454 342q116 -94 264 -94t264 94h-528z" />
    <glyph glyph-name="macron" unicode="&#xaf;" horiz-adv-x="665" 
d="M41 1118v252h584v-252h-584z" />
    <glyph glyph-name="degree" unicode="&#xb0;" 
d="M551 1124.5q0 -104.5 -65.5 -175t-184.5 -70.5t-189.5 70.5t-70.5 176.5t68.5 175t189.5 69t186.5 -70.5t65.5 -175zM313 1128q0 24 -16 23q-16 1 -16 -23t16 -24t16 24z" />
    <glyph glyph-name="plusminus" unicode="&#xb1;" horiz-adv-x="997" 
d="M41 0v242h326v170h-326v258h326v233h260v-233h329v-258h-329v-170h329v-242h-915z" />
    <glyph glyph-name="twosuperior" unicode="&#xb2;" horiz-adv-x="606" 
d="M287 1186q111 0 180 -73q70 -73 70 -180t-94 -224q-25 -31 -47 -56l-98 -110l-19 -19h119v75h161v-232h-516v138q279 301 317 370t-9 121q-26 29 -81 29t-94 -70h-141v231h158v-13q44 13 94 13z" />
    <glyph glyph-name="threesuperior" unicode="&#xb3;" horiz-adv-x="651" 
d="M504 806q100 -65 100 -187t-83 -189t-222 -68q-138 -1 -264 133l126 109q72 -92 141 -91q139 2 139 101q0 105 -169 103h-68v157h70q58 0 96 22t38 60t-29 59t-72 21q-75 0 -130 -65h-117v210h158v-2q44 10 94 10q176 0 240 -128q21 -43 20 -99q0 -96 -68 -156z" />
    <glyph glyph-name="acute" unicode="&#xb4;" horiz-adv-x="673" 
d="M41 1092l283 342h309l-287 -342h-305z" />
    <glyph glyph-name="mu" unicode="&#xb5;" horiz-adv-x="829" 
d="M760 262q0 -87 28 -262h-253v33q-79 -41 -138 -41t-102 12v-297h-254v1249h254v-553q0 -72 18.5 -118.5t75.5 -46.5t111 120v598h260v-694z" />
    <glyph glyph-name="paragraph" unicode="&#xb6;" horiz-adv-x="866" 
d="M41 1018q0 350 387 350h397v-1376h-501v694q-154 22 -218.5 116.5t-64.5 215.5z" />
    <glyph glyph-name="periodcentered" unicode="&#xb7;" horiz-adv-x="391" 
d="M41 146q0 67 43 112t110.5 45t111.5 -45t44 -112t-44 -109.5t-111.5 -42.5t-110.5 42.5t-43 109.5z" />
    <glyph glyph-name="cedilla" unicode="&#xb8;" horiz-adv-x="573" 
d="M532 -16q0 -131 -72.5 -203t-201.5 -72q-74 0 -217 68l80 221q100 -61 127 -61q55 0 55 53q0 38 -33 174h230q32 -107 32 -180z" />
    <glyph glyph-name="onesuperior" unicode="&#xb9;" horiz-adv-x="385" 
d="M265 1184v-659h73v-158h-303v158h70v500h-70v159h230z" />
    <glyph glyph-name="ordmasculine" unicode="&#xba;" horiz-adv-x="841" 
d="M798 893q0 -283 -214 -378q-72 -31 -168 -31t-166 32q-138 63 -188 222q-23 75 -23 161q0 182 98 297t282 114q183 -1 281 -116q98 -116 98 -301zM416 675q165 0 165 221q0 94 -38 157t-127 63q-160 0 -160 -220t160 -221z" />
    <glyph glyph-name="guillemotright" unicode="&#xbb;" horiz-adv-x="999" 
d="M651 113h-575l264 368l-119 162l-47 70l-133 137h610l307 -369z" />
    <glyph glyph-name="onequarter" unicode="&#xbc;" horiz-adv-x="1306" 
d="M768 357v122q-1 3 -1 10v26q-64 -90 -116 -158h117zM1001 159v-159h-304v159h71v37h-238l-72 -196h-255l133 367h-301v158h70v500h-70v159h230v-659h73v-155l388 1064h257l-263 -720l78 105h131v-462h66v-161h-66v-37h72z" />
    <glyph glyph-name="onehalf" unicode="&#xbd;" horiz-adv-x="1386" 
d="M755 658q-37 0 -61 -13l-236 -645h-255l133 367h-301v158h70v500h-70v159h230v-659h73v-155l388 1064h257l-225 -615q110 -4 178 -75t68 -188q0 -62 -36 -125q-36 -64 -105 -145l-117 -129h119v75h161v-232h-516v139q279 301 317 370t-9 121q-26 28 -63 28z" />
    <glyph glyph-name="threequarters" unicode="&#xbe;" horiz-adv-x="1499" 
d="M883 357v122q-1 3 -1 10v26q-58 -80 -86 -117l-15 -41h102zM608 613q0 -18 -2 -34l312 855h257l-225 -615h94v-462h66v-161h-66v-37h72v-159h-304v159h71v37h-161l-72 -196h-255l175 478q-81 -119 -258 -119q-82 0 -146 33t-131 102l127 110q71 -91 141 -91q71 0 106 27
t35 73q0 105 -170 105h-69v158h71q59 0 97 22t38 60q1 38 -29 60t-73 21q-73 0 -131 -66h-118v212h160v-2q44 10 94 10q113 0 187 -60q75 -60 75 -162q0 -103 -68 -164q100 -66 100 -194z" />
    <glyph glyph-name="questiondown" unicode="&#xbf;" horiz-adv-x="901" 
d="M860 -4q-196 -207 -394 -207q-192 0 -308.5 94t-116.5 280t121 279t176 129l8 238h236l4 -367q-158 -96 -202 -140t-59.5 -74.5t-15.5 -65.5q0 -125 146 -125q108 0 227 137zM608 990q0 -67 -41 -107.5t-106.5 -40.5t-106.5 41t-41 107t41 106.5t106.5 40.5t106.5 -40
t41 -107z" />
    <glyph glyph-name="Agrave" unicode="&#xc0;" horiz-adv-x="1458" 
d="M645 674h164l-80 233zM594 287v-287h-553v287h147q41 113 80 219t76 210t75 210t79 221h-99v287h455l408 -1147h155v-287h-553v287h86l-41 102h-364q-11 -25 -15 -37t-8 -20t-16 -45h88zM717 1536l-285 342h305l287 -342h-307z" />
    <glyph glyph-name="Aacute" unicode="&#xc1;" horiz-adv-x="1458" 
d="M645 674h164l-80 233zM594 287v-287h-553v287h147q41 113 80 219t76 210t75 210t79 221h-99v287h455l408 -1147h155v-287h-553v287h86l-41 102h-364q-11 -25 -15 -37t-8 -20t-16 -45h88zM432 1538l283 342h309l-287 -342h-305z" />
    <glyph glyph-name="Acircumflex" unicode="&#xc2;" horiz-adv-x="1458" 
d="M645 674h164l-80 233zM594 287v-287h-553v287h147q41 113 80 219t76 210t75 210t79 221h-99v256h-59l297 414h184l295 -414h-251l397 -1116h155v-287h-553v287h86l-41 102h-364q-11 -25 -15 -37t-8 -20t-16 -45h88zM648 1434h164l-83 106q-29 -35 -48 -62t-33 -44z" />
    <glyph glyph-name="Atilde" unicode="&#xc3;" horiz-adv-x="1458" 
d="M645 674h164l-80 233zM594 287v-287h-553v287h147q41 113 80 219t76 210t75 210t79 221h-99v287h455l408 -1147h155v-287h-553v287h86l-41 102h-364q-11 -25 -15 -37t-8 -20t-16 -45h88zM1047 1655q-51 -72 -105 -86q-92 -24 -217 38q-126 62 -213 37q-51 -15 -100 -85
v245q51 70 104 85q54 15 108 3t108 -39t108 -39t106 2q51 15 101 85v-246z" />
    <glyph glyph-name="Adieresis" unicode="&#xc4;" horiz-adv-x="1458" 
d="M645 674h164l-80 233zM594 287v-287h-553v287h147q41 113 80 219t76 210t75 210t79 221h-99v287h455l408 -1147h155v-287h-553v287h86l-41 102h-364q-11 -25 -15 -37t-8 -20t-16 -45h88zM741 1669q0 66 41 107t108 41q68 0 108 -41t40 -107q0 -67 -41 -107t-107 -40
t-108 40q-41 40 -41 107zM420 1669q0 66 41 107t107 41t106 -41q41 -41 41 -107q0 -67 -41 -107t-107 -40q-67 0 -107 40t-40 107z" />
    <glyph glyph-name="Aring" unicode="&#xc5;" horiz-adv-x="1458" 
d="M647 1540q29 0 29 36t-29 36t-29 -36t29 -36zM645 674h164l-80 233zM895 1585q0 -90 -41 -153l408 -1145h155v-287h-553v287h86l-41 102h-364q-10 -25 -14.5 -37t-9 -19.5t-15.5 -45.5h88v-287h-553v287h147l310 860h-99v287h39q-41 59 -41 152t63.5 162t185.5 69
t185.5 -71t63.5 -161z" />
    <glyph glyph-name="AE" unicode="&#xc6;" horiz-adv-x="1896" 
d="M1563 1026v121h-342v-262h75v127h287v-535h-287l2 121h-77v-311h348v121h286v-408h-923v598h-213q-98 -156 -187 -311h62v-287h-553v289l162 -8q98 166 190 320.5t185 311.5l133 232h-74v287l369 2h843v-408h-286zM932 877v86q-12 -16 -22.5 -35t-30.5 -51h53z" />
    <glyph glyph-name="Ccedilla" unicode="&#xc7;" horiz-adv-x="1284" 
d="M840 -16q0 -131 -73 -203t-202 -72q-72 0 -217 68l80 221q100 -61 127 -61q55 0 55 53v6q-273 26 -421 237t-148 502q0 292 167.5 504.5t475.5 212.5q140 0 248 -45v27h287v-426h-215q-78 94 -153 125.5t-165 31.5t-158.5 -36.5t-112.5 -98t-65.5 -141.5t-21.5 -217
t92.5 -266.5t267.5 -129.5q88 0 170 41t172 156l213 -188q-188 -222 -405 -275q2 -10 2 -26z" />
    <glyph glyph-name="Egrave" unicode="&#xc8;" horiz-adv-x="1232" 
d="M41 1147v287h1145v-408h-287v121h-438v-262h129v127h287v-535h-287v121h-129v-311h444v121h287v-408h-1147v287h131v428l-2 432h-133zM604 1536l-285 342h306l286 -342h-307z" />
    <glyph glyph-name="Eacute" unicode="&#xc9;" horiz-adv-x="1232" 
d="M41 1147v287h1145v-408h-287v121h-438v-262h129v127h287v-535h-287v121h-129v-311h444v121h287v-408h-1147v287h131v428l-2 432h-133zM319 1538l283 342h309l-286 -342h-306z" />
    <glyph glyph-name="Ecircumflex" unicode="&#xca;" horiz-adv-x="1232" 
d="M41 1147v287h1145v-408h-287v121h-438v-262h129v127h287v-535h-287v121h-129v-311h444v121h287v-408h-1147v287h131v428l-2 432h-133zM616 1602l-106 -138h-283l297 414h185l295 -414h-281z" />
    <glyph glyph-name="Edieresis" unicode="&#xcb;" horiz-adv-x="1232" 
d="M41 1147v287h1145v-408h-287v121h-438v-262h129v127h287v-535h-287v121h-129v-311h444v121h287v-408h-1147v287h131v428l-2 432h-133zM629 1669q0 66 41 107q42 41 108 41t107 -41t41 -107q0 -67 -41 -107t-108 -40t-107 40t-41 107zM307 1669q0 66 41 107t107 41
q67 0 107 -41t40 -107q0 -67 -41 -107t-107 -40t-106 40q-41 40 -41 107z" />
    <glyph glyph-name="Igrave" unicode="&#xcc;" horiz-adv-x="632" 
d="M174 1147h-133v287h551v-287h-133v-860h131v-287h-545v287h129v860zM287 1536l-285 342h305l287 -342h-307z" />
    <glyph glyph-name="Iacute" unicode="&#xcd;" horiz-adv-x="632" 
d="M174 1147h-133v287h551v-287h-133v-860h131v-287h-545v287h129v860zM41 1538l283 342h309l-287 -342h-305z" />
    <glyph glyph-name="Icircumflex" unicode="&#xce;" horiz-adv-x="632" 
d="M174 1147h-133v287h551v-287h-133v-860h131v-287h-545v287h129v860zM319 1622l-106 -137h-283l297 413h185l295 -413h-281z" />
    <glyph glyph-name="Idieresis" unicode="&#xcf;" horiz-adv-x="632" 
d="M174 1147h-133v287h551v-287h-133v-860h131v-287h-545v287h129v860zM332 1669q0 66 41 107t107 41t108 -41q41 -41 41 -107q0 -67 -41 -107t-108 -40q-68 0 -108 40t-40 107zM10 1669q0 66 41 107t107 41t106 -41t41 -107q0 -67 -41 -107q-40 -40 -106 -40t-107 40
t-41 107z" />
    <glyph glyph-name="Ntilde" unicode="&#xd1;" horiz-adv-x="1523" 
d="M1071 1147h-131v287h543v-287h-129v-1147h-226l-673 889v-602h135v-287h-543v287h125v860h-131v287h354l676 -889v602zM1079 1655q-51 -72 -104 -86t-107 -2t-109 39t-109 40t-105 -2t-101 -85v245q50 70 104 85q91 26 217 -37q125 -62 214 -36q51 15 100 85v-246z" />
    <glyph glyph-name="Ograve" unicode="&#xd2;" horiz-adv-x="1429" 
d="M1219 1230q170 -204 170 -507t-170 -509q-84 -100 -211 -162t-293 -62t-293 61q-249 119 -338 398q-43 133 -43 275q0 300 170 506q84 102 211 162t293 60t293 -60t211 -162zM1002 410q98 125 98 311t-101 315t-282 129t-285 -127t-103 -317q1 -189 104 -317t285 -128
t284 134zM702 1536l-284 342h305l287 -342h-308z" />
    <glyph glyph-name="Oacute" unicode="&#xd3;" horiz-adv-x="1429" 
d="M1219 1230q170 -204 170 -507t-170 -509q-84 -100 -211 -162t-293 -62t-293 61q-249 119 -338 398q-43 133 -43 275q0 300 170 506q84 102 211 162t293 60t293 -60t211 -162zM1002 410q98 125 98 311t-101 315t-282 129t-285 -127t-103 -317q1 -189 104 -317t285 -128
t284 134zM418 1538l282 342h310l-287 -342h-305z" />
    <glyph glyph-name="Ocircumflex" unicode="&#xd4;" horiz-adv-x="1429" 
d="M1219 1230q170 -204 170 -507t-170 -509q-84 -100 -211 -162t-293 -62t-293 61q-249 119 -338 398q-43 133 -43 275q0 300 170 506q84 102 211 162t293 60t293 -60t211 -162zM1002 410q98 125 98 311t-101 315t-282 129t-285 -127t-103 -317q1 -189 104 -317t285 -128
t284 134zM715 1622l-107 -137h-282l297 413h184l295 -413h-281z" />
    <glyph glyph-name="Otilde" unicode="&#xd5;" horiz-adv-x="1429" 
d="M1219 1230q170 -204 170 -507t-170 -509q-84 -100 -211 -162t-293 -62t-293 61q-249 119 -338 398q-43 133 -43 275q0 300 170 506q84 102 211 162t293 60t293 -60t211 -162zM1002 410q98 125 98 311t-101 315t-282 129t-285 -127t-103 -317q1 -189 104 -317t285 -128
t284 134zM1032 1655q-51 -72 -104 -86q-54 -14 -108 -2t-108 39t-108 40t-106 -2q-51 -15 -101 -85v245q51 70 105 85q91 26 216 -37q125 -62 214 -36q51 15 100 85v-246z" />
    <glyph glyph-name="Odieresis" unicode="&#xd6;" horiz-adv-x="1429" 
d="M1219 1230q170 -204 170 -507t-170 -509q-84 -100 -211 -162t-293 -62t-293 61q-249 119 -338 398q-43 133 -43 275q0 300 170 506q84 102 211 162t293 60t293 -60t211 -162zM1002 410q98 125 98 311t-101 315t-282 129t-285 -127t-103 -317q1 -189 104 -317t285 -128
t284 134zM727 1669q0 66 41 107t108 41q68 0 108 -41t40 -107q0 -67 -41 -107t-107 -40t-108 40q-41 40 -41 107zM406 1669q0 66 40 107q41 41 107 41q67 0 107 -41t40 -107q0 -67 -41 -107t-107 -40t-106 40t-40 107z" />
    <glyph glyph-name="multiply" unicode="&#xd7;" horiz-adv-x="903" 
d="M279 516l-238 238l168 174l240 -240l237 242l170 -170l-235 -240l241 -237l-172 -170l-237 235l-238 -237l-174 165z" />
    <glyph glyph-name="Oslash" unicode="&#xd8;" horiz-adv-x="1429" 
d="M983 1054.5q0 4.5 -3 6.5t-13 10q-61 -207 -121 -388t-127 -407q179 0 280 128.5t101 319.5t-101 310q-16 16 -16 20.5zM715 1165q-180 0 -282.5 -126.5t-102.5 -315.5q0 -252 155 -373l248 815h-18zM41 725q0 299 127 452.5t254 214t293 60.5q55 0 104 -6l6 12
q4 16 11.5 38t13.5 44.5t11 43t9 34.5h263l-80 -254q160 -98 248 -269t88 -342t-43 -304.5t-127 -234.5t-211 -162.5t-293 -61.5q-67 0 -78 2q-38 -111 -57 -176h-258l73 250q-168 92 -261 270t-93 389z" />
    <glyph glyph-name="Ugrave" unicode="&#xd9;" horiz-adv-x="1527" 
d="M174 1147h-133v287h555v-287h-135v-629q0 -117 72 -175t194 -69l6 -2h60l6 2q188 14 245 139q20 44 21 105v629h-133v287h555v-287h-135v-653q-8 -212 -143 -345t-351 -157l-67 -6h-29q-66 0 -131 11t-153 53q-178 84 -260 256q-40 85 -44 188v653zM752 1536l-285 342
h305l287 -342h-307z" />
    <glyph glyph-name="Uacute" unicode="&#xda;" horiz-adv-x="1527" 
d="M174 1147h-133v287h555v-287h-135v-629q0 -117 72 -175t194 -69l6 -2h60l6 2q188 14 245 139q20 44 21 105v629h-133v287h555v-287h-135v-653q-8 -212 -143 -345t-351 -157l-67 -6h-29q-66 0 -131 11t-153 53q-178 84 -260 256q-40 85 -44 188v653zM467 1538l283 342h309
l-287 -342h-305z" />
    <glyph glyph-name="Ucircumflex" unicode="&#xdb;" horiz-adv-x="1527" 
d="M174 1147h-133v287h555v-287h-135v-629q0 -117 72 -175t194 -69l6 -2h60l6 2q188 14 245 139q20 44 21 105v629h-133v287h555v-287h-135v-653q-8 -212 -143 -345t-351 -157l-67 -6h-29q-66 0 -131 11t-153 53q-178 84 -260 256q-40 85 -44 188v653zM375 1485l297 413h184
l295 -413h-281l-106 137q-28 -35 -54 -71t-53 -66h-282z" />
    <glyph glyph-name="Udieresis" unicode="&#xdc;" horiz-adv-x="1527" 
d="M174 1147h-133v287h555v-287h-135v-629q0 -117 72 -175t194 -69l6 -2h60l6 2q188 14 245 139q20 44 21 105v629h-133v287h555v-287h-135v-653q-8 -212 -143 -345t-351 -157l-67 -6h-29q-66 0 -131 11t-153 53q-178 84 -260 256q-40 85 -44 188v653zM776 1669q0 66 41 107
t108 41t107 -41t41 -107q0 -67 -41 -107q-42 -40 -108 -40t-107 40t-41 107zM455 1669q0 66 41 107q40 41 106 41t107 -41t41 -107q0 -67 -41 -107t-107 -40t-106 40t-41 107z" />
    <glyph glyph-name="Yacute" unicode="&#xdd;" horiz-adv-x="1366" 
d="M827 287h125v-287h-542v287h131v375l-332 485h-168v287h553v-287h-35l35 -45l90 -129q37 53 70 98l55 76h-37v287h553v-287h-164l-332 -483v-246l-2 -81v-50zM387 1538l283 342h309l-287 -342h-305z" />
    <glyph glyph-name="germandbls" unicode="&#xdf;" horiz-adv-x="1071" 
d="M864 723q166 -101 166 -341t-174 -342.5t-428 -102.5v251q135 0 241.5 52t106.5 155q0 121 -122 152t-149 38t-44 9t-33 6v221q131 51 174 83.5t43 105.5t-48 87.5t-83 14.5t-68.5 -28.5t-33.5 -77.5v-1006h-371v266h113v719q0 270 139 323.5t229 53.5q172 0 277.5 -99.5
t105.5 -254.5q0 -156 -38 -196t-62 -58q39 -16 61 -31h-2z" />
    <glyph glyph-name="agrave" unicode="&#xe0;" horiz-adv-x="1062" 
d="M487 412h-14q-163 0 -166 -99q0 -73 130 -73t196 82v79q-45 11 -146 11zM449 -10q-294 0 -379 183q-29 60 -29 146t33 154q98 201 377 201q124 0 180 -10q-17 110 -158 110q-53 0 -93 -16t-85 -76h-197v340h269v-2q63 10 132 10q70 0 148 -24t134 -72q118 -99 118 -279
v-389h123v-266h-389v20q-71 -30 -184 -30zM520 1090l-284 342h305l286 -342h-307z" />
    <glyph glyph-name="aacute" unicode="&#xe1;" horiz-adv-x="1062" 
d="M487 412h-14q-163 0 -166 -99q0 -73 130 -73t196 82v79q-45 11 -146 11zM449 -10q-294 0 -379 183q-29 60 -29 146t33 154q98 201 377 201q124 0 180 -10q-17 110 -158 110q-53 0 -93 -16t-85 -76h-197v340h269v-2q63 10 132 10q70 0 148 -24t134 -72q118 -99 118 -279
v-389h123v-266h-389v20q-71 -30 -184 -30zM236 1092l282 342h309l-286 -342h-305z" />
    <glyph glyph-name="acircumflex" unicode="&#xe2;" horiz-adv-x="1062" 
d="M487 412h-14q-163 0 -166 -99q0 -73 130 -73t196 82v79q-45 11 -146 11zM449 -10q-294 0 -379 183q-29 60 -29 146t33 154q98 201 377 201q124 0 180 -10q-17 110 -158 110q-53 0 -93 -16t-85 -76h-197v340h269v-2q63 10 132 10q70 0 148 -24t134 -72q118 -99 118 -279
v-389h123v-266h-389v20q-71 -30 -184 -30zM471 1196l-106 -137h-283l297 414h184l295 -414h-280z" />
    <glyph glyph-name="atilde" unicode="&#xe3;" horiz-adv-x="1062" 
d="M487 412h-14q-163 0 -166 -99q0 -73 130 -73t196 82v79q-45 11 -146 11zM449 -10q-294 0 -379 183q-29 60 -29 146t33 154q98 201 377 201q124 0 180 -10q-17 110 -158 110q-53 0 -93 -16t-85 -76h-197v340h269v-2q63 10 132 10q70 0 148 -24t134 -72q118 -99 118 -279
v-389h123v-266h-389v20q-71 -30 -184 -30zM786 1208q-51 -72 -104 -86q-54 -14 -108 -2t-108 39t-108 40t-106 -2q-51 -15 -100 -85v246q51 70 104 85q54 15 108 3t108 -39t108 -40t106 2q51 15 100 85v-246z" />
    <glyph glyph-name="adieresis" unicode="&#xe4;" horiz-adv-x="1062" 
d="M487 412h-14q-163 0 -166 -99q0 -73 130 -73t196 82v79q-45 11 -146 11zM449 -10q-294 0 -379 183q-29 60 -29 146t33 154q98 201 377 201q124 0 180 -10q-17 110 -158 110q-53 0 -93 -16t-85 -76h-197v340h269v-2q63 10 132 10q70 0 148 -24t134 -72q118 -99 118 -279
v-389h123v-266h-389v20q-71 -30 -184 -30zM481 1223q0 67 41 107t108 40q68 0 108 -41t40 -107t-41 -106q-41 -41 -107 -41t-108 41q-41 41 -41 107zM160 1223q0 67 41 107t107 40t106 -41q41 -41 41 -107t-41 -106q-41 -41 -107 -41q-67 0 -107 41t-40 107z" />
    <glyph glyph-name="aring" unicode="&#xe5;" horiz-adv-x="1062" 
d="M487 412h-14q-163 0 -166 -99q0 -73 130 -73t196 82v79q-45 11 -146 11zM449 -10q-294 0 -379 183q-29 60 -29 146t33 154q98 201 377 201q124 0 180 -10q-17 110 -158 110q-53 0 -93 -16t-85 -76h-197v340h269v-2q8 1 16 3q-60 17 -98 59q-63 71 -63 172t62 170
q64 69 186 69t185 -71t63 -172t-63 -170q-36 -39 -92 -56q227 -31 305 -207q31 -70 31 -162v-389h123v-266h-389v20q-71 -30 -184 -30zM471 1217q29 -1 29 35t-29 36t-29 -36t29 -35z" />
    <glyph glyph-name="ae" unicode="&#xe6;" horiz-adv-x="2076" 
d="M1296 670q-33 106 -174 110q-130 -7 -176 -110h350zM487 412h-14q-111 0 -138.5 -35t-27.5 -64q0 -73 130 -73t196 82v79q-45 11 -146 11zM1149 244q127 0 254 139l176 -182q-96 -104 -200.5 -156.5t-235.5 -52.5q-201 0 -330 112q-131 -114 -397 -114
q-166 0 -270.5 84.5t-104.5 249.5t114.5 257.5t295.5 92.5q124 0 180 -10q-17 110 -158 110q-53 0 -93 -16.5t-85 -75.5h-197v340h269v-2q63 10 108 10q215 0 326 -115q127 115 317 115q227 0 343 -154.5t112 -453.5h-645q23 -78 80 -128t141 -50z" />
    <glyph glyph-name="ccedilla" unicode="&#xe7;" horiz-adv-x="997" 
d="M702 12v-28q0 -131 -72.5 -203t-201.5 -72q-74 0 -217 68l80 221q100 -61 127 -61q55 0 55 53v6q-210 15 -321 162t-111 364t125.5 363.5t355.5 146.5q80 0 142 -18v6h268v-356h-199q-103 116 -208.5 116t-159.5 -72.5t-54 -191.5q0 -178 80 -224t139 -46q128 0 252 145
l174 -182q-124 -133 -256 -184q2 -10 2 -13z" />
    <glyph glyph-name="egrave" unicode="&#xe8;" horiz-adv-x="1013" 
d="M690 670q-34 108 -174 110q-132 -7 -176 -110h350zM973 201q-193 -209 -432 -209t-370 151q-130 151 -130 363q0 254 134 389t349 135t331 -154t112 -454h-645q24 -78 80 -128t141 -50q125 0 254 139zM496 1090l-285 342h305l287 -342h-307z" />
    <glyph glyph-name="eacute" unicode="&#xe9;" horiz-adv-x="1013" 
d="M690 670q-34 108 -174 110q-132 -7 -176 -110h350zM973 201q-193 -209 -432 -209t-370 151q-130 151 -130 363q0 254 134 389t349 135t331 -154t112 -454h-645q24 -78 80 -128t141 -50q125 0 254 139zM211 1092l283 342h309l-287 -342h-305z" />
    <glyph glyph-name="ecircumflex" unicode="&#xea;" horiz-adv-x="1013" 
d="M690 670q-34 108 -174 110q-132 -7 -176 -110h350zM973 201q-193 -209 -432 -209t-370 151q-130 151 -130 363q0 254 134 389t349 135t331 -154t112 -454h-645q24 -78 80 -128t141 -50q125 0 254 139zM508 1176l-107 -138h-282l297 414h184l295 -414h-281z" />
    <glyph glyph-name="edieresis" unicode="&#xeb;" horiz-adv-x="1013" 
d="M690 670q-34 108 -174 110q-132 -7 -176 -110h350zM973 201q-193 -209 -432 -209t-370 151q-130 151 -130 363q0 254 134 389t349 135t331 -154t112 -454h-645q24 -78 80 -128t141 -50q125 0 254 139zM518 1223q0 67 41 107t108 40t107 -41t41 -107q0 -66 -41 -106
q-42 -41 -108 -41t-107 41t-41 107zM197 1223q0 67 41 107q40 40 106 40t107 -41t41 -107t-41 -106q-41 -41 -107 -41t-106 41t-41 107z" />
    <glyph glyph-name="igrave" unicode="&#xec;" 
d="M141 1090l-284 342h305l287 -342h-308zM428 1020v-754h123v-266h-510v266h119v488h-119v266h387z" />
    <glyph glyph-name="iacute" unicode="&#xed;" 
d="M41 1092l283 342h309l-287 -342h-305zM428 1020v-754h123v-266h-510v266h119v488h-119v266h387z" />
    <glyph glyph-name="icircumflex" unicode="&#xee;" 
d="M256 1176l-106 -138h-283l297 414h184l295 -414h-281zM428 1020v-754h123v-266h-510v266h119v488h-119v266h387z" />
    <glyph glyph-name="idieresis" unicode="&#xef;" 
d="M248 1222.5q0 65.5 41 106.5t107 41t107.5 -41t41.5 -106.5t-41 -106.5t-108 -41t-107.5 41t-40.5 106.5zM-74 1222.5q0 65.5 41 106.5t106.5 41t106.5 -41t41 -106.5t-41 -106.5t-106.5 -41t-106.5 41t-41 106.5zM428 1020v-754h123v-266h-510v266h119v488h-119v266h387
z" />
    <glyph glyph-name="ntilde" unicode="&#xf1;" horiz-adv-x="1204" 
d="M623 1036q189 0 303 -99t112 -280v-391h125v-266h-508v266h119v367q0 75 -45 111t-110 36t-108 -42t-81 -103v-369h123v-266h-512v266h119v488h-119v266h389v-33q91 49 193 49zM920 1208q-50 -72 -104 -86q-92 -24 -218 38t-213 37q-51 -15 -100 -85v246q51 70 104 85
t107 3t109 -39t109 -40t105 2t101 85v-246z" />
    <glyph glyph-name="ograve" unicode="&#xf2;" horiz-adv-x="1042" 
d="M882 878q119 -141 119 -371q0 -231 -123 -375t-357 -144t-357 149t-123 376t122 372t355 145q232 0 364 -152zM518 229q209 0 209 279q0 119 -48 199q-48 79 -160 79t-158 -78t-46 -198q0 -200 109 -259q39 -22 94 -22zM510 1090l-285 342h305l287 -342h-307z" />
    <glyph glyph-name="oacute" unicode="&#xf3;" horiz-adv-x="1042" 
d="M882 878q119 -141 119 -371q0 -231 -123 -375t-357 -144t-357 149t-123 376t122 372t355 145q232 0 364 -152zM518 229q209 0 209 279q0 119 -48 199q-48 79 -160 79t-158 -78t-46 -198q0 -200 109 -259q39 -22 94 -22zM225 1092l283 342h309l-287 -342h-305z" />
    <glyph glyph-name="ocircumflex" unicode="&#xf4;" horiz-adv-x="1042" 
d="M882 878q119 -141 119 -371q0 -231 -123 -375t-357 -144t-357 149t-123 376t122 372t355 145q232 0 364 -152zM518 229q209 0 209 279q0 119 -48 199q-48 79 -160 79t-158 -78t-46 -198q0 -200 109 -259q39 -22 94 -22zM522 1176l-106 -138h-283l297 414h184l295 -414
h-280z" />
    <glyph glyph-name="otilde" unicode="&#xf5;" horiz-adv-x="1042" 
d="M882 878q119 -141 119 -371q0 -231 -123 -375t-357 -144t-357 149t-123 376t122 372t355 145q232 0 364 -152zM518 229q209 0 209 279q0 119 -48 199q-48 79 -160 79t-158 -78t-46 -198q0 -200 109 -259q39 -22 94 -22zM838 1208q-50 -72 -104 -86q-92 -24 -218 38
q-125 62 -213 37q-51 -15 -100 -85v246q51 70 104 85t107 3t109 -39t109 -40t105 2t101 85v-246z" />
    <glyph glyph-name="odieresis" unicode="&#xf6;" horiz-adv-x="1042" 
d="M882 878q119 -141 119 -371q0 -231 -123 -375t-357 -144t-357 149t-123 376t122 372t355 145q232 0 364 -152zM518 229q209 0 209 279q0 119 -48 199q-48 79 -160 79t-158 -78t-46 -198q0 -200 109 -259q39 -22 94 -22zM532 1223q0 67 41 107t108 40t107 -41t41 -107
q0 -66 -41 -106q-42 -41 -108 -41t-107 41t-41 107zM211 1223q0 67 41 107q40 40 106 40t107 -41t41 -107t-41 -106q-41 -41 -107 -41t-106 41t-41 107z" />
    <glyph glyph-name="divide" unicode="&#xf7;" horiz-adv-x="397" 
d="M41 857q0 69 43 115t111 46q69 0 115 -46t46 -115t-47 -111t-115 -42t-110 42q-43 42 -43 111zM41 155q0 69 43 115t111 45q69 0 115 -46q46 -47 46 -115t-47 -111t-115 -43t-110 43q-43 43 -43 112z" />
    <glyph glyph-name="oslash" unicode="&#xf8;" horiz-adv-x="1042" 
d="M315 510q0 -89 19 -148l59 156q27 66 50.5 130.5t50.5 135.5q-179 -18 -179 -274zM727 508q0 88 -20 151q-20 -53 -41 -104t-39 -102l-84 -224q184 18 184 279zM41 512q0 230 123 374t354 144h28q27 0 44 -4q39 99 63 170h258l-98 -256q188 -138 188 -434
q0 -231 -125 -374.5t-358 -143.5h-69l-64 -162h-256l96 250q-184 135 -184 436z" />
    <glyph glyph-name="ugrave" unicode="&#xf9;" horiz-adv-x="1204" 
d="M166 362v390h-125v266h512v-266h-119v-365q0 -76 43 -113q43 -36 93 -36q105 1 173 98q18 27 35 51v365h-123v266h508v-266h-119v-488h119v-266h-385v35q-96 -51 -197 -51q-189 0 -302 100t-113 280zM590 1090l-285 342h305l287 -342h-307z" />
    <glyph glyph-name="uacute" unicode="&#xfa;" horiz-adv-x="1204" 
d="M166 362v390h-125v266h512v-266h-119v-365q0 -76 43 -113q43 -36 93 -36q105 1 173 98q18 27 35 51v365h-123v266h508v-266h-119v-488h119v-266h-385v35q-96 -51 -197 -51q-189 0 -302 100t-113 280zM305 1092l283 342h309l-287 -342h-305z" />
    <glyph glyph-name="ucircumflex" unicode="&#xfb;" horiz-adv-x="1204" 
d="M166 362v390h-125v266h512v-266h-119v-365q0 -76 43 -113q43 -36 93 -36q105 1 173 98q18 27 35 51v365h-123v266h508v-266h-119v-488h119v-266h-385v35q-96 -51 -197 -51q-189 0 -302 100t-113 280zM602 1176l-106 -138h-283l297 414h184l295 -414h-280z" />
    <glyph glyph-name="udieresis" unicode="&#xfc;" horiz-adv-x="1204" 
d="M166 362v390h-125v266h512v-266h-119v-365q0 -76 43 -113q43 -36 93 -36q105 1 173 98q18 27 35 51v365h-123v266h508v-266h-119v-488h119v-266h-385v35q-96 -51 -197 -51q-189 0 -302 100t-113 280zM614 1223q0 67 41 107t108 40t107 -41t41 -107q0 -66 -41 -106
q-42 -41 -108 -41t-107 41t-41 107zM293 1223q0 67 41 107q40 40 106 40t107 -41t41 -107t-41 -106q-41 -41 -107 -41t-106 41t-41 107z" />
    <glyph glyph-name="yacute" unicode="&#xfd;" horiz-adv-x="1224" 
d="M41 754v266h510v-266h-70l137 -338l136 338h-80v266h510v-266h-146l-458 -1127h-320v267h146l69 172l-287 688h-147zM315 1092l283 342h309l-286 -342h-306z" />
    <glyph glyph-name="ydieresis" unicode="&#xff;" horiz-adv-x="1224" 
d="M41 754v266h510v-266h-70l137 -338l136 338h-80v266h510v-266h-146l-458 -1127h-320v267h146l69 172l-287 688h-147zM625 1223q0 67 41 107q42 40 108 40t107 -41t41 -107t-41 -106q-41 -41 -108 -41t-107 41t-41 107zM303 1223q0 67 41 107t107 40q67 0 107 -41t40 -107
t-41 -106q-41 -41 -107 -41t-106 41q-41 41 -41 107z" />
    <glyph glyph-name="dotlessi" unicode="&#x131;" 
d="M428 1020v-754h123v-266h-510v266h119v488h-119v266h387z" />
    <glyph glyph-name="OE" unicode="&#x152;" horiz-adv-x="1814" 
d="M801 1165h-60q-202 0 -306.5 -124.5t-104.5 -326.5q0 -203 111.5 -324.5t299.5 -121.5h60v897zM1483 1026v135h-398v-276h129v127h285v-535h-285v121h-129v-326h404v136h285v-408h-1043q-337 0 -513.5 201.5t-176.5 512.5t182.5 515.5t507.5 204.5h1038v-408h-286z" />
    <glyph glyph-name="oe" unicode="&#x153;" horiz-adv-x="1699" 
d="M1376 670q-33 106 -174 110q-130 -7 -176 -110h350zM727 508q0 119 -48 198.5t-160 79.5t-158 -78.5t-46 -197.5q0 -199 74 -240t129 -41q109 0 157 72t52 184v23zM1229 244q127 0 254 139l176 -182q-96 -104 -200.5 -156.5t-235.5 -52.5q-220 0 -353 133
q-122 -137 -353 -137q-230 0 -353 148t-123 377t123 373t346 144t352 -133q129 133 346 133t333 -154.5t112 -453.5h-645q23 -78 80 -128t141 -50z" />
    <glyph glyph-name="Scaron" unicode="&#x160;" horiz-adv-x="1110" 
d="M542 -10q-115 0 -214 33v-23h-287v426l203 2q49 -66 129 -106.5t179 -40.5t163.5 33.5t64.5 79.5q0 79 -72.5 120t-211.5 86l-39 14q-74 25 -231.5 89.5t-157.5 332.5t266 369q46 17 102 26l-260 312h307l74 -78l72 78h305l-260 -311q41 -6 80 -17v19h286v-435h-219
l-24 52q-102 102 -250 102q-82 0 -134.5 -33t-52.5 -80q0 -74 236 -157l37 -11q180 -68 263 -134t128 -140t45 -175t-40 -183t-110.5 -137.5t-166 -84t-210.5 -28.5z" />
    <glyph glyph-name="scaron" unicode="&#x161;" horiz-adv-x="872" 
d="M334 1051l-293 350h299l72 -78l71 78h299l-295 -350h-153zM59 0v354h195q92 -116 205 -108q55 2 81.5 19.5t25.5 38.5q-3 61 -151 92q-131 27 -228.5 96t-112.5 206q0 135 96.5 229.5t245.5 106.5q106 0 176 -18h205v-334l-187 -2q-93 109 -184 100q-90 -9 -86 -51
q3 -54 149 -80q145 -42 234.5 -110t107.5 -201q0 -140 -106.5 -236t-257.5 -112q-84 0 -141 10h-267z" />
    <glyph glyph-name="Ydieresis" unicode="&#x178;" horiz-adv-x="1366" 
d="M827 287h125v-287h-542v287h131v375l-332 485h-168v287h553v-287h-35l35 -45l90 -129q37 53 70 98l55 76h-37v287h553v-287h-164l-332 -483v-246l-2 -81v-50zM694 1669q0 66 41 107t108 41t107 -41t41 -107q0 -67 -41 -107q-42 -40 -108 -40t-107 40t-41 107zM373 1669
q0 66 41 107q40 41 106 41t107 -41t41 -107q0 -67 -41 -107t-107 -40t-106 40t-41 107z" />
    <glyph glyph-name="Zcaron" unicode="&#x17d;" horiz-adv-x="1165" 
d="M338 1147v-121h-287v408h1028v-230l-639 -917h398v121h286v-408h-1083v231l639 916h-342zM956 1919l-278 -457h-193l-278 457h258l117 -172l116 172h258z" />
    <glyph glyph-name="zcaron" unicode="&#x17e;" horiz-adv-x="890" 
d="M582 262v125h268v-387h-809v215l410 545h-144v-125h-266v385h782v-213l-422 -545h181zM819 1493l-278 -457h-193l-278 457h258l116 -172l117 172h258z" />
    <glyph glyph-name="circumflex" unicode="&#x2c6;" horiz-adv-x="858" 
d="M430 1094l-106 -138h-283l297 414h184l295 -414h-280z" />
    <glyph glyph-name="caron" unicode="&#x2c7;" horiz-adv-x="831" 
d="M791 1370l-279 -457h-193l-278 457h258l117 -172l116 172h259z" />
    <glyph glyph-name="breve" unicode="&#x2d8;" horiz-adv-x="583" 
d="M319 1368h224q-13 -208 -104 -257.5t-178.5 -49.5t-153.5 89t-66 218h217q5 -104 31 -104q30 0 30 104z" />
    <glyph glyph-name="dotaccent" unicode="&#x2d9;" horiz-adv-x="391" 
d="M41 1210q0 68 43 112t110.5 44t111.5 -44t44 -112t-44 -109.5t-111.5 -41.5t-110.5 41.5t-43 109.5z" />
    <glyph glyph-name="ring" unicode="&#x2da;" horiz-adv-x="579" 
d="M539 1127q0 -101 -63.5 -169.5t-185.5 -68.5t-185.5 70.5t-63.5 171.5t63.5 170t185.5 69t185.5 -71t63.5 -172zM290 1094q28 0 29 36q-1 36 -29 35q-28 1 -28 -35t28 -36z" />
    <glyph glyph-name="ogonek" unicode="&#x2db;" horiz-adv-x="204" 
 />
    <glyph glyph-name="tilde" unicode="&#x2dc;" horiz-adv-x="716" 
d="M676 1208q-50 -72 -104 -86q-92 -24 -218 38q-125 62 -213 37q-51 -15 -100 -85v246q51 70 104 85t107 3t109 -39t109 -40t105 2t101 85v-246z" />
    <glyph glyph-name="hungarumlaut" unicode="&#x2dd;" horiz-adv-x="829" 
d="M291 1368h497l-276 -457h-471z" />
    <glyph glyph-name="endash" unicode="&#x2013;" horiz-adv-x="1032" 
d="M41 358v242h950v-242h-950z" />
    <glyph glyph-name="emdash" unicode="&#x2014;" horiz-adv-x="1417" 
d="M41 358v242h1335v-242h-1335z" />
    <glyph glyph-name="quoteleft" unicode="&#x2018;" horiz-adv-x="479" 
d="M438 1370l-135 -496h-262l143 496h254z" />
    <glyph glyph-name="quoteright" unicode="&#x2019;" horiz-adv-x="479" 
d="M438 1370l-135 -496h-262l143 496h254z" />
    <glyph glyph-name="quotesinglbase" unicode="&#x201a;" horiz-adv-x="546" 
d="M260 -154h-219l209 473h256z" />
    <glyph glyph-name="quotedblleft" unicode="&#x201c;" horiz-adv-x="702" 
d="M524 874h-483l145 496h476z" />
    <glyph glyph-name="quotedblright" unicode="&#x201d;" horiz-adv-x="702" 
d="M524 874h-483l145 496h476z" />
    <glyph glyph-name="quotedblbase" unicode="&#x201e;" horiz-adv-x="768" 
d="M41 -266l127 573h266l-160 -573h-233zM334 -266l127 573h266l-162 -573h-231z" />
    <glyph glyph-name="bullet" unicode="&#x2022;" horiz-adv-x="552" 
d="M41 478q0 105 64.5 171t169.5 66t171 -65.5t66 -171.5t-65 -170t-171 -64t-170.5 64.5t-64.5 169.5z" />
    <glyph glyph-name="ellipsis" unicode="&#x2026;" horiz-adv-x="1196" 
d="M846 152q0 68 42 112.5t110 44.5t112.5 -44.5t44.5 -112.5t-45 -110t-113 -42t-109.5 42t-41.5 110zM444 152q0 68 42 112.5t110 44.5t113 -44.5t45 -112.5t-45 -110t-113 -42t-110 42t-42 110zM41 152q0 68 43 112.5t110 44.5t111.5 -44.5t44.5 -112.5t-45 -110
t-111 -42t-109.5 42t-43.5 110z" />
    <glyph glyph-name="guilsinglleft" unicode="&#x2039;" horiz-adv-x="673" 
d="M344 119l-303 362l303 361h289l-287 -361q35 -45 70 -88t69 -86l148 -188h-289z" />
    <glyph glyph-name="guilsinglright" unicode="&#x203a;" horiz-adv-x="657" 
d="M41 119l266 362q-29 39 -63.5 86t-70.5 95.5t-69.5 94.5t-62.5 85h274l301 -361l-301 -362h-274z" />
    <glyph glyph-name="fraction" unicode="&#x2044;" horiz-adv-x="751" 
d="M293 0h-252l418 1370h252z" />
    <glyph glyph-name="Euro" unicode="&#x20ac;" horiz-adv-x="1097" 
d="M41 342v250h137v20h-137v246h178q84 242 212 295t203 53t134 -20v10h266v-414h-198q-110 168 -189 168t-139 -92h272v-246h-340v-20h340v-250h-282q59 -94 148 -94t220 196l191 -192q-183 -262 -419 -262t-319 139t-106 213h-172z" />
    <glyph glyph-name="trademark" unicode="&#x2122;" horiz-adv-x="1886" 
d="M653 629v-267h-385v267h47v422h-274v319h1063l227 -416l228 416h286v-266h-57v-475h57v-267h-389v267l-125 -234l-178 334v-100h49v-267h-389v267h64v475h-15v-53h-270v-422h61zM1513 629v106l-57 -106h57z" />
    <glyph glyph-name="minus" unicode="&#x2212;" horiz-adv-x="997" 
d="M41 393v244h915v-244h-915z" />
    <glyph glyph-name="percent" horiz-adv-x="1095" 
d="M348 1098q23 0 23 27.5t-23 27.5q-18 1 -18 -27t18 -28zM96 1122q0 104 67.5 174t189.5 70t185.5 -69.5t63.5 -174.5q0 -59 -21 -108l187 352h287l-729 -1366h-285l523 982q-67 -104 -216 -103q-111 0 -181.5 69.5t-70.5 173.5zM1016 245q0 -103 -64.5 -174t-184.5 -71
t-188.5 71t-68.5 174t67.5 172.5t188.5 69.5t185.5 -69.5t64.5 -172.5zM765 218q19 0 19 28t-19 28t-19 -28t19 -28z" />
    </font>
</defs>
</svg>
