<?xml version="1.0" standalone="no"?>
<!DOCTYPE svg PUBLIC "-//W3C//DTD SVG 1.1//EN" "http://www.w3.org/Graphics/SVG/1.1/DTD/svg11.dtd" >
<svg xmlns="http://www.w3.org/2000/svg">
<metadata>
Created by FontPrep 20130207 at Fri May 23 23:11:05 2014
 By Victor
Copyright (c) 2014 by Antonio Rodrigues Jr. All rights reserved.
</metadata>
<defs>
<font id="ae568c45d4abf8fa57a1b72b671ce5f4" horiz-adv-x='1024' >
  <font-face 
    font-family="UberlinBold"
    font-weight="700"
    font-stretch="normal"
    units-per-em="2048"
    panose-1="2 0 5 6 0 0 0 2 0 2"
    ascent="1536"
    descent="-512"
    x-height="1206"
    cap-height="1434"
    bbox="-166 -422 2351 2947"
    underline-thickness="102"
    underline-position="-102"
    unicode-range="U+0020-2212"
  />
<missing-glyph horiz-adv-x="516" 
 />
    <glyph glyph-name=".notdef" horiz-adv-x="516" 
 />
    <glyph glyph-name=".null" horiz-adv-x="0" 
 />
    <glyph glyph-name="nonmarkingreturn" horiz-adv-x="681" 
 />
    <glyph glyph-name="space" unicode=" " horiz-adv-x="516" 
 />
    <glyph glyph-name="exclam" unicode="!" horiz-adv-x="342" 
d="M51 348v1092h207v-1092h-207zM41 122q0 54 32.5 88t86.5 34t88.5 -34t34.5 -88t-34 -87t-88 -33t-87 33t-33 87z" />
    <glyph glyph-name="quotedbl" unicode="&#x22;" horiz-adv-x="507" 
d="M264 1122v318h203l-2 -318h-201zM41 1122v318h203l-2 -318h-201z" />
    <glyph glyph-name="numbersign" unicode="#" horiz-adv-x="909" 
d="M397 438h86q6 35 13.5 67t15.5 75h-84zM41 580v202h221l49 240h207l-51 -240h86l49 240h207l-51 -240h110v-202h-151q-6 -35 -13.5 -66t-15.5 -76h180v-202h-221l-47 -236h-207l49 236h-86l-47 -236h-207l50 236h-111v202h152q8 49 30 142h-182z" />
    <glyph glyph-name="dollar" unicode="$" horiz-adv-x="1189" 
d="M358 924q0 -43 42 -94.5t106 -73.5v280q-148 -28 -148 -112zM909 344q0 51 -51 81t-129 52v-276q86 16 133 54t47 89zM1135 349q0 -145 -110 -237.5t-296 -113.5v-182h-223v180q-254 33 -465 227l197 144q131 -141 268 -166v331q-253 62 -311 178t-58 184
q0 136 92.5 230.5t276.5 116.5v195h223v-195q115 -12 215 -65.5t205 -153.5l-188 -135q-113 123 -232 149v-342q187 -49 261.5 -101t109.5 -108.5t35 -135.5z" />
    <glyph glyph-name="uni0025" unicode="%" horiz-adv-x="1046" 
d="M543 1177q0 -95 -58.5 -160t-175.5 -65q-160 0 -196.5 89t-36.5 135q0 96 61 159.5t175 63.5t172.5 -63.5t58.5 -158.5zM309.5 1108q63.5 0 63.5 70t-63.5 70t-63.5 -70t63.5 -70zM260 0h-219l747 1399h218zM989 224q0 -95 -58.5 -159.5t-168.5 -64.5t-175 64.5
t-65 159.5t62.5 160t175.5 65t171 -65t58 -160zM771 156q50 0 50 70t-50 70.5t-61.5 -20t-11.5 -51.5t11.5 -50t61.5 -19z" />
    <glyph glyph-name="ampersand" unicode="&#x26;" horiz-adv-x="1230" 
d="M270 429q0 -96 69 -163t163 -67q145 0 250 90l-283 354q-98 -61 -148.5 -110.5t-50.5 -103.5zM686 1123q0 52 -38 81t-87 29t-83 -27.5t-34 -65.5t19.5 -69t50.5 -72l31 -34q70 39 105.5 72.5t35.5 85.5zM41 410q0 247 289 417q-119 162 -119 297t104 230q118 90 263 90
t245 -92q99 -104 99 -217t-59.5 -195t-188.5 -162l86 -125l131 -157q34 79 37 202h227q-20 -242 -106 -399l141 -172l-182 -152l-115 142q-188 -129 -390 -129t-335 116q-127 123 -127 306z" />
    <glyph glyph-name="quotesingle" unicode="'" horiz-adv-x="284" 
d="M41 1122v318h203l-2 -318h-201z" />
    <glyph glyph-name="parenleft" unicode="(" horiz-adv-x="626" 
d="M238 678q0 -353 137 -566.5t211 -306.5h-213q-149 187 -211 326t-91.5 266t-29.5 341.5t92.5 424.5t239.5 389h213q-348 -433 -348 -874z" />
    <glyph glyph-name="parenright" unicode=")" horiz-adv-x="626" 
d="M586 618.5q0 -212.5 -92.5 -422t-237.5 -391.5h-215q350 435 350 873t-350 874h215q149 -187 209.5 -326t90.5 -267t30 -340.5z" />
    <glyph glyph-name="asterisk" unicode="*" horiz-adv-x="829" 
d="M313 1432h197l2 -236l219 70l57 -179l-221 -77q138 -175 148 -187l-152 -112l-151 186l-144 -180l-153 102l133 191l-207 82l61 174l211 -70v236z" />
    <glyph glyph-name="plus" unicode="+" horiz-adv-x="995" 
d="M395 98v355h-354v202h354v357h203v-357h356v-202h-356v-355h-203z" />
    <glyph glyph-name="comma" unicode="," horiz-adv-x="430" 
d="M41 -211l145 457h203l-158 -457h-190z" />
    <glyph glyph-name="hyphen" unicode="-" horiz-adv-x="538" 
d="M41 422v186h457v-186h-457z" />
    <glyph glyph-name="period" unicode="." horiz-adv-x="342" 
d="M41 128q0 56 36 94t92 38t94 -38t38 -94t-38 -92t-94 -36t-92 36t-36 92z" />
    <glyph glyph-name="slash" unicode="/" horiz-adv-x="829" 
d="M41 0l534 1444h213l-534 -1444h-213z" />
    <glyph glyph-name="zero" unicode="0" horiz-adv-x="1138" 
d="M567 182q142 0 231 147t89 384.5t-89.5 381.5t-230.5 144t-232 -143t-91 -382.5t90.5 -385.5t232.5 -146zM569.5 -16q-235.5 0 -382 197t-146.5 531q0 333 148.5 533.5t380 200.5t380 -200t148.5 -534q0 -333 -146.5 -530.5t-382 -197.5z" />
    <glyph glyph-name="one" unicode="1" horiz-adv-x="288" 
d="M41 0v1323l207 76v-1399h-207z" />
    <glyph glyph-name="two" unicode="2" horiz-adv-x="995" 
d="M476 1214q-204 0 -267 -180l-168 127q66 121 176.5 193.5t230.5 72.5q220 0 341.5 -121.5t121.5 -317.5t-256 -476l-282 -307h581v-205h-888v197l413 436v-2q33 39 126 144t93 224q0 84 -62.5 149.5t-159.5 65.5z" />
    <glyph glyph-name="three" unicode="3" horiz-adv-x="1019" 
d="M55 1217q181 194 401 194q216 0 341 -96.5t125 -280.5t-156 -282q213 -102 213 -346q0 -199 -142 -308.5t-344 -109.5t-300.5 72.5t-151.5 125.5l168 142q110 -146 276 -146q131 0 206 59.5t75 169.5t-92 166t-258 56h-82v207h84q125 0 206 50t81 138t-66 138.5
t-156 50.5t-151.5 -33t-118.5 -101z" />
    <glyph glyph-name="four" unicode="4" horiz-adv-x="1046" 
d="M678 565v29v109l-2 309l-336 -447h338zM678 2v352h-637v152l668 895h178v-836h119v-211h-119v-352h-209z" />
    <glyph glyph-name="five" unicode="5" horiz-adv-x="1030" 
d="M444 762q-152 0 -315 -47l66 688h692v-211h-510q-2 -33 -4 -58.5t-5.5 -71t-9.5 -97.5q29 2 36 2h71q228 0 376 -116t148 -357q0 -195 -142.5 -348.5t-352.5 -153.5q-139 0 -244 50t-209 148l166 148q104 -137 287 -137q125 0 206.5 85t81.5 210q0 126 -93 196t-245 70z
" />
    <glyph glyph-name="six" unicode="6" horiz-adv-x="1042" 
d="M254 526q0 -46 19.5 -112t78.5 -148t182 -82q122 0 190.5 76t68.5 192t-70.5 192.5t-161.5 76.5q-159 0 -303 -125q-4 -24 -4 -70zM313 872q99 56 265 56q165 0 294 -133t129 -336.5t-129.5 -337t-349.5 -133.5t-350.5 162t-130.5 405q0 481 284.5 643t497.5 201l58 -187
q-231 -53 -370.5 -127.5t-197.5 -212.5z" />
    <glyph glyph-name="seven" unicode="7" horiz-adv-x="937" 
d="M379 86v-82h-207v78q0 185 57 328.5t155 321.5q98 177 116 212t38.5 71t43 79t51.5 98h-592v211h856v-152l-260 -469h2q-135 -254 -197.5 -403.5t-62.5 -292.5z" />
    <glyph glyph-name="eight" unicode="8" horiz-adv-x="1077" 
d="M313 1032q0 -80 64.5 -129t163.5 -59q94 10 159.5 60t65.5 130t-66.5 128t-162.5 48h-5q-92 -4 -155.5 -51t-63.5 -127zM260 418q0 -112 79 -172t199 -60t200.5 61t80.5 170t-75.5 155t-204.5 57q-135 -10 -207 -54.5t-72 -156.5zM823 752q213 -102 213 -306t-118.5 -320
t-292.5 -132l-27 -4l-18 -2h-64l-61 6q-173 21 -293.5 138t-120.5 294q0 131 58.5 205t156.5 121q-156 98 -156 283t125.5 280.5t319.5 95.5h6q75 0 135 -18q131 -33 212 -119t81 -234q0 -190 -156 -288z" />
    <glyph glyph-name="nine" unicode="9" horiz-adv-x="1042" 
d="M788 872q0 48 -19 113.5t-77.5 148.5t-178.5 83t-191.5 -84t-71.5 -204t69.5 -184.5t160.5 -64.5q162 0 304 123q4 21 4 69zM729 528q-92 -55 -264.5 -55t-298 123.5t-125.5 326t130 346.5t350 144q219 0 349.5 -172t130.5 -418q0 -306 -190 -537.5t-592 -303.5l-59 184
q236 53 373 138t196 224z" />
    <glyph glyph-name="colon" unicode=":" horiz-adv-x="342" 
d="M41 890q0 56 36 94t92 38t94 -38t38 -94t-38 -92t-94 -36t-92 36t-36 92zM41 128q0 56 36 94t92 38t94 -38t38 -94t-38 -92t-94 -36t-92 36t-36 92z" />
    <glyph glyph-name="semicolon" unicode=";" horiz-adv-x="440" 
d="M139 890q0 56 36 94t92 38t94 -38t38 -94t-37.5 -92t-93.5 -36t-92.5 36t-36.5 92zM41 -291l149 541h199l-151 -541h-197z" />
    <glyph glyph-name="less" unicode="&#x3c;" horiz-adv-x="630" 
d="M336 127l-295 354l295 357h252l-281 -355l283 -356h-254z" />
    <glyph glyph-name="equal" unicode="=" horiz-adv-x="940" 
d="M41 635v203h858v-203h-858zM41 268v197h858v-197h-858z" />
    <glyph glyph-name="greater" unicode="&#x3e;" horiz-adv-x="628" 
d="M41 127l281 356l-281 355h252l295 -357l-295 -354h-252z" />
    <glyph glyph-name="question" unicode="?" horiz-adv-x="870" 
d="M41 1214q185 189 377 189q189 0 300 -93t111 -270q0 -202 -307 -419v-326h-200l-5 450q181 113 238 165.5t57 131.5q0 78 -51 118t-124 40t-128 -33.5t-112 -105.5zM293 126q0 54 36 91t91 37t91 -37t36 -91t-36 -90t-91 -36t-91 36t-36 90z" />
    <glyph glyph-name="at" unicode="@" horiz-adv-x="1378" 
d="M1194 199q-207 -199 -511 -199t-473 192t-169 498q0 305 172.5 505t468.5 200t475.5 -177.5t179.5 -474.5q0 -173 -64.5 -281t-162.5 -138zM823 836q0 116 -157 116q-82 0 -177 -118l-133 147q125 160 326 160q154 0 245 -74t91 -217v-350q0 -12 16 -12q41 -1 71 57.5
t30 181.5q0 231 -121.5 359t-329.5 128t-327 -148t-119 -368q0 -356 170 -434t278 -78t193.5 27t164.5 98h-14q-115 0 -168 64q-93 -78 -226 -78q-132 0 -215 71.5t-83 201.5t91.5 199t227.5 69q88 0 166 -21v19zM690 655q-160 0 -160 -88q0 -41 32 -63.5t89 -22.5
q93 0 172 92v56q-65 26 -133 26z" />
    <glyph glyph-name="A" unicode="A" 
d="M760 1012l-182 -377h362zM471 414q-81 -169 -201 -414h-229l719 1501l717 -1501h-238l-195 414h-573z" />
    <glyph glyph-name="B" unicode="B" horiz-adv-x="1325" 
d="M1063 424q0 113 -87 167t-228 54h-486v-446h496q305 0 305 225zM989 1035q0 93 -60.5 146.5t-164.5 53.5h-502v-385h500q100 0 163.5 46t63.5 139zM1284 418q0 -208 -144 -313t-366 -105h-733v1434h743q174 0 299 -100.5t125 -286.5q0 -187 -131 -283q207 -88 207 -346z
" />
    <glyph glyph-name="C" unicode="C" horiz-adv-x="1339" 
d="M41 716.5q0 147.5 56.5 278.5t209.5 285t463 154q309 0 528 -234l-161 -143q-164 164 -377 164t-360.5 -147.5t-147.5 -354.5t147.5 -354.5t359.5 -147.5t390 186l143 -170q-210 -233 -534 -233q-147 0 -278.5 56.5t-228.5 153.5t-153.5 228t-56.5 278.5z" />
    <glyph glyph-name="D" unicode="D" horiz-adv-x="1335" 
d="M1073 724q0 101 -40 194.5t-147 202t-317 108.5h-307v-1014h336q196 25 335.5 170t139.5 339zM1294 724q0 -146 -53 -273t-145 -224.5t-217 -158t-269 -68.5h-569v1434h528q150 0 282 -55.5t230.5 -152t155.5 -226.5t57 -276z" />
    <glyph glyph-name="E" unicode="E" horiz-adv-x="1302" 
d="M41 0v1434h1221v-222h-1000v-360h907v-219h-907v-412h1000v-221h-1221z" />
    <glyph glyph-name="F" unicode="F" horiz-adv-x="1302" 
d="M41 0v1434h1221v-222h-1000v-360h907v-219h-907v-633h-221z" />
    <glyph glyph-name="G" unicode="G" horiz-adv-x="1341" 
d="M1077 633h-454v219h677v-608l-2 -25q-92 -104 -230 -161.5t-296 -57.5t-290 56.5t-230 153.5t-154.5 228t-56.5 278.5t56.5 278.5t154.5 228.5t229 154t290 56.5t293 -62.5t232 -171.5l-155 -151q-172 172 -381.5 172t-358.5 -147t-149 -355t149 -355t347 -147
q197 0 329 113v303z" />
    <glyph glyph-name="H" unicode="H" horiz-adv-x="1323" 
d="M1061 0v633h-795v-633h-225v1434h225v-582h795v582h221v-1434h-221z" />
    <glyph glyph-name="I" unicode="I" horiz-adv-x="303" 
d="M41 0v1434h221v-1434h-221z" />
    <glyph glyph-name="J" unicode="J" horiz-adv-x="1265" 
d="M1022 559v875h203v-889q0 -119 -52.5 -219.5t-189.5 -213t-386 -112.5t-380 125t-176 199l197 172l2 -80q51 -90 154.5 -143.5t221.5 -53.5q64 0 139.5 24.5t171 98t95.5 217.5z" />
    <glyph glyph-name="K" unicode="K" horiz-adv-x="1298" 
d="M41 0v1434h221v-613l686 613h309l-792 -699l788 -735h-321l-670 641v-641h-221z" />
    <glyph glyph-name="L" unicode="L" horiz-adv-x="1304" 
d="M41 0v1434h221v-1213h1002v-221h-1223z" />
    <glyph glyph-name="M" unicode="M" horiz-adv-x="1474" 
d="M1210 0v860l-467 -555l-479 557v-862h-223v1477l696 -809l697 809v-1477h-224z" />
    <glyph glyph-name="N" unicode="N" horiz-adv-x="1327" 
d="M262 0h-221v1487l1028 -995v942h217v-1477l-1024 1008v-965z" />
    <glyph glyph-name="O" unicode="O" horiz-adv-x="1497" 
d="M254 718.5q0 -104.5 39 -195.5t107.5 -158.5t159.5 -107.5t195.5 -40t195.5 40t159 107.5t107.5 158.5t39.5 195.5t-39.5 196t-107.5 159t-159 107.5t-195.5 40t-195.5 -40t-159.5 -107.5t-107.5 -159t-39 -196zM41 716.5q0 147.5 56.5 278.5t153.5 228.5t228 154
t292 56.5t292 -61.5t218 -163t131 -229.5t44 -263t-44 -263t-131 -229.5t-218 -163t-291 -61.5t-292 56.5t-229 153.5t-153.5 228t-56.5 278.5z" />
    <glyph glyph-name="P" unicode="P" horiz-adv-x="1339" 
d="M991 1177q-86 58 -215 58h-514v-432h514q151 0 226 43.5t75 158.5q0 114 -86 172zM1158 687.5q-140 -105.5 -382 -105.5h-514v-582h-221v1434h747q225 0 367.5 -109.5t142.5 -320.5t-140 -316.5z" />
    <glyph glyph-name="Q" unicode="Q" horiz-adv-x="1503" 
d="M252 718.5q0 -104.5 40 -195.5t107.5 -158.5t158.5 -107.5t195.5 -40t195.5 40t160 107.5t107.5 158.5t38.5 195.5t-38.5 196t-107.5 159t-160 107.5t-195.5 40t-195.5 -40t-158.5 -107.5t-107.5 -159t-40 -196zM41 714q0 150 56.5 281t153.5 228.5t228 154t265 56.5
t178.5 -14.5t58.5 -18.5q222 -77 349.5 -268.5t127.5 -398.5t-77.5 -374t-252.5 -266q168 -78 276.5 -138t222.5 -114.5t224 -54.5q111 0 176.5 52t122.5 165l201 -88q-99 -181 -216 -259.5t-314 -78.5q-134 0 -261.5 62.5t-206.5 106.5t-179 94t-208 100.5t-198 58.5h-45
q-84 -4 -138.5 -52t-99.5 -120l-172 113q65 100 111 143q-32 14 -82 49l-41 31l-41 41q-219 224 -219 509z" />
    <glyph glyph-name="R" unicode="R" horiz-adv-x="1345" 
d="M991 1177q-86 58 -215 58h-514v-432h514q151 0 226 43.5t75 158.5q0 114 -86 172zM262 582v-582h-221v1434h747q225 0 367.5 -109.5t142.5 -316.5q0 -170 -85 -267.5t-230 -136.5l322 -604h-240l-315 582h-488z" />
    <glyph glyph-name="S" unicode="S" horiz-adv-x="1370" 
d="M236 393q196 -200 437 -200q208 0 315.5 59t107.5 145q0 120 -163 166.5t-248 68.5t-314.5 90t-229.5 322q0 168 143 285t431 117q180 0 327.5 -61.5t286.5 -192.5l-190 -139l-21 26q-74 80 -172 122t-246 42t-240.5 -49t-92.5 -127q0 -122 162.5 -169.5t248.5 -69.5
t185.5 -52.5t179.5 -78.5t130 -118.5t50 -222t-174 -259t-451 -107.5q-376 0 -657 262z" />
    <glyph glyph-name="T" unicode="T" horiz-adv-x="1323" 
d="M782 1212v-1212h-223v1212h-518v222h1241v-222h-500z" />
    <glyph glyph-name="U" unicode="U" horiz-adv-x="1320" 
d="M661 0q-117 0 -228 41t-198.5 113.5t-140.5 172t-53 218.5v889h215v-873q0 -148 125.5 -245t282.5 -97t281 98t124 242v875h211v-889q0 -119 -52 -219.5t-139.5 -172t-199 -112.5t-228.5 -41z" />
    <glyph glyph-name="V" unicode="V" horiz-adv-x="1519" 
d="M1243 1434h236l-719 -1483l-719 1483h229l490 -1010z" />
    <glyph glyph-name="W" unicode="W" horiz-adv-x="1875" 
d="M1276 506l334 928h225l-557 -1489l-340 909l-338 -909l-559 1489h227l334 -928q80 242 171 484.5t165 471.5z" />
    <glyph glyph-name="X" unicode="X" horiz-adv-x="1445" 
d="M723 920q144 194 391 510h283l-537 -707l545 -723h-287l-395 524l-397 -524h-285l553 723q-61 82 -132 172t-197.5 255.5t-215.5 279.5h283z" />
    <glyph glyph-name="Y" unicode="Y" horiz-adv-x="1419" 
d="M600 0v670l-559 760h278l392 -517q32 41 403 517h264l-555 -756l-2 -674h-221z" />
    <glyph glyph-name="Z" unicode="Z" horiz-adv-x="1413" 
d="M1313 221v-221h-1272l891 1212h-858v222h1298l-889 -1213h830z" />
    <glyph glyph-name="bracketleft" unicode="[" horiz-adv-x="403" 
d="M41 -190v1751h321v-170h-137v-1407h137v-174h-321z" />
    <glyph glyph-name="backslash" unicode="\" horiz-adv-x="811" 
d="M580 0l-539 1403h190l539 -1403h-190z" />
    <glyph glyph-name="bracketright" unicode="]" horiz-adv-x="407" 
d="M41 -190v174h145v1407h-145v170h326v-1751h-326z" />
    <glyph glyph-name="asciicircum" unicode="^" horiz-adv-x="681" 
d="M41 1139l297 274l303 -274h-260l-43 37l-41 -37h-256z" />
    <glyph glyph-name="underscore" unicode="_" horiz-adv-x="1105" 
d="M41 -395v180h1024v-180h-1024z" />
    <glyph glyph-name="grave" unicode="`" horiz-adv-x="503" 
d="M240 1139l-199 260h227l195 -260h-223z" />
    <glyph glyph-name="a" unicode="a" horiz-adv-x="1294" 
d="M647 791l-117 -242h234zM41 0l606 1303l606 -1303h-231l-156 336h-442l-43 -90q-27 -57 -57.5 -124t-59.5 -122h-223z" />
    <glyph glyph-name="b" unicode="b" horiz-adv-x="1177" 
d="M922 367q0 80 -65.5 120.5t-176.5 40.5h-424v-329h434q232 0 232 168zM692 745q166 0 166 121q0 68 -44 107t-120 39h-438v-267h436zM971 649q72 -37 119 -111t47 -173q0 -184 -122 -274.5t-310 -90.5h-664v1210h670q147 0 255.5 -86.5t108.5 -237.5q0 -150 -104 -237z
" />
    <glyph glyph-name="c" unicode="c" horiz-adv-x="1153" 
d="M219 178q-178 178 -178 425.5t177.5 427t436.5 179.5t457 -213l-158 -139q-133 141 -306 141q-172 0 -286 -116t-114 -278.5t114.5 -277t289.5 -114.5t325 158l129 -164q-186 -207 -448 -207q-261 0 -439 178z" />
    <glyph glyph-name="d" unicode="d" horiz-adv-x="1144" 
d="M883 608q0 78 -31 152t-114 160t-246 86h-236v-795h256q151 25 261 137t110 260zM1104 606q0 -243 -167 -416.5t-413 -189.5h-483v1210h451q253 0 384.5 -130t179.5 -240.5t48 -233.5z" />
    <glyph glyph-name="e" unicode="e" horiz-adv-x="1069" 
d="M41 0v1210h987v-213h-770v-262h727v-213h-727v-305h770v-217h-987z" />
    <glyph glyph-name="f" unicode="f" horiz-adv-x="1069" 
d="M41 0v1210h987v-213h-770v-262h727v-213h-727v-522h-217z" />
    <glyph glyph-name="g" unicode="g" horiz-adv-x="1153" 
d="M891 520h-373v215h590v-534l-16 -15q-76 -80 -193 -133t-248 -53t-240.5 48t-191.5 130t-130 191.5t-48 296.5t177.5 366.5t436.5 179.5t457 -213l-158 -139q-133 141 -304 141t-286.5 -115.5t-115.5 -279.5t114.5 -278.5t267.5 -114.5t261 82v225z" />
    <glyph glyph-name="h" unicode="h" horiz-adv-x="1132" 
d="M883 0v518h-625v-518h-217v1212h217v-479h625v479h209v-1212h-209z" />
    <glyph glyph-name="i" unicode="i" horiz-adv-x="299" 
d="M258 0h-217v1210h217v-1210z" />
    <glyph glyph-name="j" unicode="j" horiz-adv-x="1095" 
d="M516 215q137 0 233.5 76t96.5 184v735h209v-745q0 -199 -160 -332t-367 -133q-139 0 -274 79.5t-213 211.5l174 137q53 -100 141 -156.5t160 -56.5z" />
    <glyph glyph-name="k" unicode="k" horiz-adv-x="1130" 
d="M256 0h-215v1210h215v-481l535 481h299l-660 -587q76 -72 161 -152t171 -161t169 -160.5t159 -149.5h-308l-526 506v-506z" />
    <glyph glyph-name="l" unicode="l" horiz-adv-x="1069" 
d="M41 0v1210h217v-993h770v-217h-987z" />
    <glyph glyph-name="m" unicode="m" horiz-adv-x="1251" 
d="M993 0v666l-362 -428l-373 430v-668h-217v1257l584 -667l585 667v-1257h-217z" />
    <glyph glyph-name="n" unicode="n" horiz-adv-x="1136" 
d="M256 0h-215v1262l844 -809v757h211v-1245l-840 793v-758z" />
    <glyph glyph-name="o" unicode="o" horiz-adv-x="1275" 
d="M248 604q0 -82 30.5 -152.5t85 -124t126 -84t153.5 -30.5t153.5 30.5t125 84t85 124t31.5 152.5t-31.5 153.5t-85 126t-125 85t-153.5 30.5t-153.5 -30.5t-126 -85t-85 -126t-30.5 -153.5zM41 542.5q0 186.5 48 297t178 240.5t394 130t419 -180t155 -427t-156 -425
t-419 -178t-441 178t-178 364.5z" />
    <glyph glyph-name="p" unicode="p" horiz-adv-x="1105" 
d="M844 844q0 88 -61.5 126t-155.5 38h-373v-324h371q104 0 161.5 36t57.5 124zM949 570.5q-116 -97.5 -318 -97.5h-377v-473h-213v1210h590q191 0 312.5 -92.5t121.5 -270.5q0 -179 -116 -276.5z" />
    <glyph glyph-name="q" unicode="q" horiz-adv-x="1277" 
d="M364 327q116 -114 281 -114q164 0 278.5 114.5t114.5 277t-114 278.5t-279 116q-166 0 -281.5 -115.5t-115.5 -279t116 -277.5zM41 542q0 187 48 297.5t179.5 240.5t394.5 130t418.5 -180t155.5 -426q0 -299 -133 -415.5t-225 -149.5l159 -225h-260l-129 184l-2 2
q-247 0 -426.5 177.5t-179.5 364.5z" />
    <glyph glyph-name="r" unicode="r" horiz-adv-x="1148" 
d="M846 844q0 88 -62.5 126t-156.5 38h-371v-324h369q104 0 162.5 36t58.5 124zM1065 850q0 -257 -229 -344l272 -506h-231l-263 473h-358v-473h-215v1210h590q191 0 312.5 -92.5t121.5 -267.5z" />
    <glyph glyph-name="s" unicode="s" horiz-adv-x="1159" 
d="M227 346q167 -172 333 -172q155 0 241 44t86 106q0 94 -126 129t-197 53q-199 49 -325 125.5t-126 227.5t122 251t359 100q150 0 273.5 -52t250.5 -171l-176 -139l-20 22q-66 68 -145 104t-193 36t-184 -36t-70 -91q0 -94 309 -181q82 -23 166 -50t191.5 -96t107.5 -232
t-147.5 -256t-374.5 -93q-156 0 -285 53.5t-256 174.5z" />
    <glyph glyph-name="t" unicode="t" horiz-adv-x="1136" 
d="M680 997v-997h-215v997h-424v213h1055v-213h-416z" />
    <glyph glyph-name="u" unicode="u" horiz-adv-x="1134" 
d="M41 463v743h213v-731q0 -113 98 -187.5t219 -74.5q120 0 218 76.5t98 183.5v733h207v-743q0 -199 -160 -331t-368 -132q-203 0 -364 134t-161 329z" />
    <glyph glyph-name="v" unicode="v" horiz-adv-x="1320" 
d="M1036 1212h244l-621 -1241l-618 1241h244l374 -763z" />
    <glyph glyph-name="w" unicode="w" horiz-adv-x="1624" 
d="M1339 1212h244l-479 -1259l-293 739l-287 -739l-483 1259h242l241 -700l287 741l291 -745z" />
    <glyph glyph-name="x" unicode="x" horiz-adv-x="1271" 
d="M637 801l309 411h277l-453 -600q61 -83 176 -235t173.5 -229.5t111.5 -147.5h-279l-317 418l-320 -418h-274l459 608l-455 604h281z" />
    <glyph glyph-name="y" unicode="y" horiz-adv-x="1243" 
d="M731 0h-217v561q-148 207 -223.5 309.5t-136 186.5t-113.5 157h266l316 -411l313 411h266l-471 -651v-563z" />
    <glyph glyph-name="z" unicode="z" horiz-adv-x="1220" 
d="M1116 217v-217h-1075l707 995h-670v217h1102l-731 -995h667z" />
    <glyph glyph-name="braceleft" unicode="{" horiz-adv-x="466" 
d="M426 -193h-70q-104 0 -170.5 59.5t-76.5 188.5l-3 445q-4 47 -12 71.5t-53 24.5v209q45 0 53 23.5t12 72.5l3 404q10 129 76.5 188t170.5 59h70v-180l-70 -2q-65 0 -65 -24v-478l-2 -22q-4 -43 -11.5 -81t-39.5 -67q33 -29 40 -67.5t11 -79.5l2 -21v-378l2 -39
q0 -87 20.5 -105t42.5 -18l70 -2v-181z" />
    <glyph glyph-name="bar" unicode="|" horiz-adv-x="262" 
d="M221 -365h-180v1897h180v-1897z" />
    <glyph glyph-name="braceright" unicode="}" horiz-adv-x="466" 
d="M176 1229q0 98 -21.5 119.5t-45.5 21.5l-68 2v180h68q106 0 172.5 -59t74.5 -188l2 -406q4 -49 12.5 -71.5t55.5 -22.5v-209q-47 0 -55.5 -24.5t-12.5 -71.5l-2 -445q-8 -129 -74.5 -188.5t-172.5 -59.5h-68v181l68 2q56 0 60.5 50t4.5 73l2 39v399q2 41 9.5 80t41.5 67
q-35 29 -41 67t-10 81v383z" />
    <glyph glyph-name="exclamdown" unicode="&#xa1;" horiz-adv-x="319" 
d="M51 -205v1092h207v-1092h-207zM279 1042.5q0 -53.5 -33 -86t-86.5 -32.5t-86 32.5t-32.5 86t32.5 86t86 32.5t86.5 -32.5t33 -86z" />
    <glyph glyph-name="cent" unicode="&#xa2;" horiz-adv-x="1159" 
d="M270 601q0 -118 64.5 -209t169.5 -132v686q-102 -41 -168 -134t-66 -211zM707 -190h-203v206q-205 51 -334 213t-129 371t128 373t335 215v209h203v-197q218 -22 411 -215l-178 -154q-104 111 -233 136v-725q136 29 260 155l143 -182q-173 -189 -403 -213v-192z" />
    <glyph glyph-name="sterling" unicode="&#xa3;" horiz-adv-x="972" 
d="M92 854q0 160 103.5 260t300.5 100q135 0 239.5 -55t196.5 -174l-156 -147q-111 174 -287 174q-98 0 -142 -39t-44 -97t27.5 -103.5t62.5 -90.5l15 -16h397v-193h-295q4 -20 4 -51q0 -114 -82 -205h498v-217h-885v172q266 111 266 242q0 30 -18 59h-252v193h111
q-60 87 -60 188z" />
    <glyph glyph-name="yen" unicode="&#xa5;" horiz-adv-x="1067" 
d="M432 0v207h-282v192h282v111h-282v195h188q-72 121 -150.5 258t-146.5 251h246l250 -430l247 430h242l-301 -509h190v-195h-282v-111h282v-192h-282v-207h-201z" />
    <glyph glyph-name="brokenbar" unicode="&#xa6;" horiz-adv-x="256" 
d="M41 -2v547h174v-547h-174zM41 860v547h174v-547h-174z" />
    <glyph glyph-name="section" unicode="&#xa7;" horiz-adv-x="829" 
d="M575 693q-1 49 -47 71t-80 32t-46.5 13.5t-27 7.5t-22.5 6q-84 -24 -84 -102q0 -45 156 -88l20 -6l48 -19q83 37 83 85zM451 1217q-152 0 -152 -111q0 -25 11 -30l155 -62q137 -43 199.5 -92.5t93 -102.5t30.5 -129q0 -112 -94 -201q64 -61 64 -196t-104 -220t-267 -85
t-346 86l88 180q160 -72 270 -72q146 0 146 119q0 74 -82 101.5t-127 41.5q-136 42 -209.5 93t-73.5 181t90 216q-57 64 -57 156q0 165 105 240t260 75q72 0 131 -19.5t125 -46.5l59 -26l-74 -199q-82 53 -133 78t-108 25z" />
    <glyph glyph-name="dieresis" unicode="&#xa8;" horiz-adv-x="622" 
d="M346 1284q0 53 32 86t85 33t86 -33t33 -86t-33 -86t-86 -33t-85 33t-32 86zM41 1284q0 53 31.5 86t85 33t86 -33t32.5 -86t-32.5 -86t-86 -33t-85 33t-31.5 86z" />
    <glyph glyph-name="copyright" unicode="&#xa9;" horiz-adv-x="1505" 
d="M1100 414q-168 -154 -369 -154q-202 0 -318 137t-116 334t120.5 330t318.5 133q197 0 351 -156l-98 -98q-125 125 -257 125t-207.5 -92t-75.5 -237q0 -144 77.5 -244.5t214.5 -100.5t267 119zM1269 218.5q-195 -204.5 -517 -204.5q-166 0 -298 57.5t-272.5 205.5
t-140.5 448q0 143 49 273t140.5 226.5t223.5 154t299 57.5t299 -57.5t272 -204.5t140 -449t-195 -506.5zM1202 1079q-119 127 -223.5 176.5t-226.5 49.5t-225 -48.5t-179 -129t-119 -186t-43 -277.5t165 -346.5t402 -174.5t402.5 173t165.5 405q0 231 -119 358z" />
    <glyph glyph-name="ordfeminine" unicode="&#xaa;" horiz-adv-x="843" 
d="M415 884l-74 -152h147zM34 387l381 819l381 -819h-146l-97 211h-278l-27 -56q-17 -36 -36 -78t-38 -77h-140z" />
    <glyph glyph-name="guillemotleft" unicode="&#xab;" horiz-adv-x="925" 
d="M623 127l-285 354l283 357h262l-281 -355l283 -356h-262zM336 127l-295 354l295 357h252l-281 -355l283 -356h-254z" />
    <glyph glyph-name="logicalnot" unicode="&#xac;" horiz-adv-x="970" 
d="M721 213v328h-680v211h889v-539h-209z" />
    <glyph glyph-name="registered" unicode="&#xae;" horiz-adv-x="1460" 
d="M657 922v-121h76q53 0 84 19t31 42q-7 60 -105 60h-86zM657 569v-299h-153q100 -59 226 -59t228 59h-77l-164 299h-60zM260 701q0 -110 45 -208t123 -167v749q-78 -70 -123 -167t-45 -207zM1083 371q127 146 127 337t-139 336.5t-342 145.5q-104 0 -209 -49h225
q222 0 274 -103.5t52 -185.5t-39 -139.5t-96 -85.5l25 -39q12 -23 27.5 -46.5t27.5 -45.5v2zM1230 205.5q-189 -205.5 -501 -205.5q-160 0 -288 57.5t-264 205.5t-136 440t136 438.5t264 204t289 57.5t289 -57.5t264 -204t136 -438.5t-189 -497.5z" />
    <glyph glyph-name="macron" unicode="&#xaf;" horiz-adv-x="649" 
d="M41 1180v215h567v-215h-567z" />
    <glyph glyph-name="degree" unicode="&#xb0;" horiz-adv-x="557" 
d="M516 1164q0 -97 -61 -162.5t-175 -65.5t-176.5 66.5t-62.5 163.5t62.5 163t177.5 66t175 -67t60 -164zM280.5 1102q55.5 0 55.5 64.5t-55.5 64t-55.5 -64.5t55.5 -64z" />
    <glyph glyph-name="plusminus" unicode="&#xb1;" horiz-adv-x="993" 
d="M41 0v203h911v-203h-911zM383 313v244h-342v219h342v248h221v-248h348v-219h-348v-244h-221z" />
    <glyph glyph-name="twosuperior" unicode="&#xb2;" horiz-adv-x="602" 
d="M274 1042q-109 0 -145 -103l-95 73q37 69 100 110t131 41q67 -1 115 -19q148 -58 149 -233q0 -96 -97 -212q-26 -31 -49 -57l-160 -175h331v-117h-506v112l235 249q19 23 41 47q84 94 84 151t-36 95t-98 38z" />
    <glyph glyph-name="threesuperior" unicode="&#xb3;" horiz-adv-x="649" 
d="M44 1114q110 118 242 118q130 0 206 -59t76 -171t-95 -170q129 -63 129 -210q0 -120 -84 -185q-84 -66 -209 -67t-211 65q-31 23 -63 55l102 85q66 -86 156 -87t135 35t45 99q0 138 -211 138h-50v125h51q77 1 125 31t48 84t-39 83q-40 30 -97 31q-92 0 -161 -81z" />
    <glyph glyph-name="acute" unicode="&#xb4;" horiz-adv-x="503" 
d="M41 1139l197 260h225l-197 -260h-225z" />
    <glyph glyph-name="mu" unicode="&#xb5;" horiz-adv-x="800" 
d="M233 -319h-192v1273h192v-557q0 -107 29 -164t117 -57t158 160v618h198v-710q0 -65 25 -244h-187l-12 63q-154 -119 -328 -40v-342z" />
    <glyph glyph-name="paragraph" unicode="&#xb6;" horiz-adv-x="851" 
d="M41 1063q0 338 381 338h389v-1409h-201v1202h-59v-1202h-201v749q-166 15 -237.5 108.5t-71.5 213.5z" />
    <glyph glyph-name="periodcentered" unicode="&#xb7;" horiz-adv-x="333" 
d="M41 118.5q0 55.5 35 91.5t89 36t91 -36t37 -91.5t-37 -90t-91 -34.5t-89 34.5t-35 90z" />
    <glyph glyph-name="cedilla" unicode="&#xb8;" horiz-adv-x="385" 
d="M41 -227l96 317h207l-98 -317h-205z" />
    <glyph glyph-name="onesuperior" unicode="&#xb9;" horiz-adv-x="206" 
d="M35 371v800l125 45v-845h-125z" />
    <glyph glyph-name="ordmasculine" unicode="&#xba;" horiz-adv-x="911" 
d="M180 848q0 -57 22 -106q44 -100 149 -145q106 -45 208 -1t148 146q22 49 23 106q0 111 -80 193t-196 82q-116 -1 -195 -81t-79 -194zM159 1146q122 122 307 123q184 1 292 -125t108 -296q0 -169 -102 -289q-115 -131 -298 -131q-182 0 -306 124t-123 297q0 175 122 297z
" />
    <glyph glyph-name="guillemotright" unicode="&#xbb;" horiz-adv-x="925" 
d="M41 127l283 356l-281 355h262l283 -357l-285 -354h-262zM336 127l282 356l-280 355h252l295 -357l-295 -354h-254z" />
    <glyph glyph-name="onequarter" unicode="&#xbc;" horiz-adv-x="1087" 
d="M788 820v-489h70v-124h-70v-206h-122v206h-335l-77 -207h-213l534 1444h213l-354 -958l250 334h104zM666 331v66l-2 124v71l-196 -261h198zM45 371v800l125 45v-845h-125z" />
    <glyph glyph-name="onehalf" unicode="&#xbd;" horiz-adv-x="1171" 
d="M701 660q-36 38 -98 37q-62 0 -104 -36l-245 -661h-213l534 1444h213l-232 -629q22 4 64 4t90 -19q150 -60 149 -235q0 -111 -147 -271l-162 -176h334v-118h-511v113l238 250q19 22 41 47t41 52t31 54q12 26 12 66t-35 78zM45 371v800l125 45v-845h-125z" />
    <glyph glyph-name="threequarters" unicode="&#xbe;" horiz-adv-x="1452" 
d="M455 794q124 -59 124 -188t-81 -191t-206 -64q-71 0 -131 26q-61 26 -127 89l98 82q63 -84 150 -84q86 0 130 34t43 96q0 133 -203 131h-48v120h49q73 0 119 29t47 80q0 50 -38 80t-92 30q-90 0 -155 -77l-92 77q106 112 231 112q125 1 198 -53q73 -58 74 -165
q1 -108 -90 -164zM879 331v66l-2 124v71l-77 -103l-59 -158h138zM879 1v206h-184l-77 -207h-212l99 270v26l20 27l415 1121h213l-231 -624h79v-489h70v-124h-70v-206h-122z" />
    <glyph glyph-name="questiondown" unicode="&#xbf;" horiz-adv-x="872" 
d="M831 -23q-171 -182 -371 -182q-190 0 -304.5 91.5t-114.5 275.5q0 183 131 281t190 137l-4 239h197l-4 -334q-167 -102 -217.5 -154t-67 -91t-16.5 -84q0 -90 55 -133t136 -43t138.5 33.5t114.5 99.5zM573 1054.5q0 -53.5 -31.5 -86t-85 -32.5t-87 32.5t-33.5 86
t33.5 86.5t87 33t85 -33t31.5 -86.5z" />
    <glyph glyph-name="Agrave" unicode="&#xc0;" 
d="M760 1012l-182 -377h362zM471 414q-141 -294 -201 -414h-229l719 1501l717 -1501h-238l-195 414h-573zM745 1548l-198 260h227l195 -260h-224z" />
    <glyph glyph-name="Aacute" unicode="&#xc1;" 
d="M760 1012l-182 -377h362zM471 414q-141 -294 -201 -414h-229l719 1501l717 -1501h-238l-195 414h-573zM547 1548l196 260h226l-197 -260h-225z" />
    <glyph glyph-name="Acircumflex" unicode="&#xc2;" 
d="M760 1012l-182 -377h362zM471 414q-141 -294 -201 -414h-229l719 1501l717 -1501h-238l-195 414h-573zM440 1538l314 293l323 -293h-260l-61 53l-58 -53h-258z" />
    <glyph glyph-name="Atilde" unicode="&#xc3;" 
d="M760 1012l-182 -377h362zM471 414q-141 -294 -201 -414h-229l719 1501l717 -1501h-238l-195 414h-573zM1075 1679q-51 -72 -104 -86t-107 -2t-109 39t-109 40t-105 -2t-101 -85v184q50 70 104 85q89 25 217 -37q127 -62 214 -36q51 15 100 85v-185z" />
    <glyph glyph-name="Adieresis" unicode="&#xc4;" 
d="M760 1012l-182 -377h362zM471 414q-141 -294 -201 -414h-229l719 1501l717 -1501h-238l-195 414h-573zM793 1694q0 53 31 86q32 32 85 32t86 -32t33 -86q0 -53 -33 -86t-86 -33t-85 33q-31 33 -31 86zM487 1694q0 53 32 86q32 32 85 32t86 -32t33 -86q0 -53 -33 -86
t-86 -33t-85 33t-32 86z" />
    <glyph glyph-name="Aring" unicode="&#xc5;" 
d="M760 1550q55 0 55 64.5t-55 64t-55 -64.5t55 -64zM760 1012l-182 -377h362zM520 1620q0 92 62.5 157.5t177.5 65.5t175 -66.5t60 -157.5t-46 -152.5t-136 -77.5l664 -1389h-238l-195 414h-573q-81 -169 -201 -414h-229l664 1389q-88 16 -136.5 77.5t-48.5 153.5z" />
    <glyph glyph-name="AE" unicode="&#xc6;" horiz-adv-x="2316" 
d="M2275 1217h-798v-400h704v-219h-704v-377h798v-221h-1020v590h-364q-33 -35 -557 -590h-293l1362 1442l872 -4v-221zM1276 995q-25 -25 -45.5 -46t-54 -54.5t-80.5 -85.5h159z" />
    <glyph glyph-name="Ccedilla" unicode="&#xc7;" horiz-adv-x="1339" 
d="M41 717q0 147 56.5 278t209.5 285t463 154q309 0 528 -234l-161 -143q-164 164 -377 164t-360.5 -147.5t-147.5 -354.5t147.5 -354.5t359.5 -147.5t390 186l143 -170q-205 -221 -499 -233l-70 -227h-205l74 245q-237 54 -394 250.5t-157 448.5z" />
    <glyph glyph-name="Egrave" unicode="&#xc8;" horiz-adv-x="1302" 
d="M41 0v1434h1221v-222h-1000v-360h907v-219h-907v-412h1000v-221h-1221zM639 1548l-199 260h228l194 -260h-223z" />
    <glyph glyph-name="Eacute" unicode="&#xc9;" horiz-adv-x="1302" 
d="M41 0v1434h1221v-222h-1000v-360h907v-219h-907v-412h1000v-221h-1221zM440 1548l197 260h225l-196 -260h-226z" />
    <glyph glyph-name="Ecircumflex" unicode="&#xca;" horiz-adv-x="1302" 
d="M41 0v1434h1221v-222h-1000v-360h907v-219h-907v-412h1000v-221h-1221zM332 1538l313 293l324 -293h-260l-62 53l-57 -53h-258z" />
    <glyph glyph-name="Edieresis" unicode="&#xcb;" horiz-adv-x="1302" 
d="M41 0v1434h1221v-222h-1000v-360h907v-219h-907v-412h1000v-221h-1221zM686 1694q0 53 32 86q32 32 85 32t86 -32t33 -86q0 -53 -33 -86t-86 -33t-85 33t-32 86zM381 1694q0 53 32 86q32 32 85 32t86 -32q32 -32 32 -86q0 -53 -32 -86t-86 -33q-53 0 -85 33t-32 86z" />
    <glyph glyph-name="Igrave" unicode="&#xcc;" horiz-adv-x="303" 
d="M41 0v1434h221v-1434h-221zM59 1548l-198 260h227l195 -260h-224z" />
    <glyph glyph-name="Iacute" unicode="&#xcd;" horiz-adv-x="303" 
d="M41 0v1434h221v-1434h-221zM-6 1548l196 260h226l-197 -260h-225z" />
    <glyph glyph-name="Icircumflex" unicode="&#xce;" horiz-adv-x="303" 
d="M41 0v1434h221v-1434h-221zM-164 1538l314 293l323 -293h-260l-61 53l-58 -53h-258z" />
    <glyph glyph-name="Idieresis" unicode="&#xcf;" horiz-adv-x="303" 
d="M41 0v1434h221v-1434h-221zM188 1694q0 53 32 86q32 32 85 32t86 -32t33 -86q0 -53 -33 -86t-86 -33t-85 33t-32 86zM-117 1694q0 53 32 86q32 32 85 32t86 -32t33 -86q0 -53 -33 -86t-86 -33t-85 33t-32 86z" />
    <glyph glyph-name="Ntilde" unicode="&#xd1;" horiz-adv-x="1327" 
d="M262 0h-221v1487l1028 -995v942h217v-1477l-1024 1008v-965zM981 1577q-51 -72 -104 -86q-92 -24 -218 38t-213 37q-51 -15 -100 -85v184q50 70 104 85q91 26 218 -37q126 -62 213 -37q51 15 100 85v-184z" />
    <glyph glyph-name="Ograve" unicode="&#xd2;" horiz-adv-x="1497" 
d="M254 719q0 -210 148 -356t354 -146t354 148t148 355q0 206 -148 354t-354 147q-206 0 -354 -146t-148 -356zM41 717q0 147 56 278q55 131 153 229t229 153q131 57 292 57t292 -62t218 -162q175 -204 175 -493q0 -288 -175 -493q-87 -100 -218 -162t-291 -62
q-313 0 -521 210q-97 96 -153 228t-57 279zM735 1548l-198 260h227l194 -260h-223z" />
    <glyph glyph-name="Oacute" unicode="&#xd3;" horiz-adv-x="1497" 
d="M254 719q0 -210 148 -356t354 -146t354 148t148 355q0 206 -148 354t-354 147q-206 0 -354 -146t-148 -356zM41 717q0 147 56 278q55 131 153 229t229 153q131 57 292 57t292 -62t218 -162q175 -204 175 -493q0 -288 -175 -493q-87 -100 -218 -162t-291 -62
q-313 0 -521 210q-97 96 -153 228t-57 279zM537 1548l196 260h225l-196 -260h-225z" />
    <glyph glyph-name="Ocircumflex" unicode="&#xd4;" horiz-adv-x="1497" 
d="M254 719q0 -210 148 -356t354 -146t354 148t148 355q0 206 -148 354t-354 147q-206 0 -354 -146t-148 -356zM41 717q0 147 56 278q55 131 153 229t229 153q131 57 292 57t292 -62t218 -162q175 -204 175 -493q0 -288 -175 -493q-87 -100 -218 -162t-291 -62
q-313 0 -521 210q-97 96 -153 228t-57 279zM430 1538l313 293l324 -293h-260l-62 53l-57 -53h-258z" />
    <glyph glyph-name="Otilde" unicode="&#xd5;" horiz-adv-x="1497" 
d="M254 719q0 -210 148 -356t354 -146t354 148t148 355q0 206 -148 354t-354 147q-206 0 -354 -146t-148 -356zM41 717q0 147 56 278q55 131 153 229t229 153q131 57 292 57t292 -62t218 -162q175 -204 175 -493q0 -288 -175 -493q-87 -100 -218 -162t-291 -62
q-313 0 -521 210q-97 96 -153 228t-57 279zM1065 1679q-51 -72 -104 -86q-92 -24 -218 38t-213 37q-51 -15 -100 -85v184q50 70 104 85q89 25 217 -37q127 -62 214 -36q51 15 100 85v-185z" />
    <glyph glyph-name="Odieresis" unicode="&#xd6;" horiz-adv-x="1497" 
d="M254 719q0 -210 148 -356t354 -146t354 148t148 355q0 206 -148 354t-354 147q-206 0 -354 -146t-148 -356zM41 717q0 147 56 278q55 131 153 229t229 153q131 57 292 57t292 -62t218 -162q175 -204 175 -493q0 -288 -175 -493q-87 -100 -218 -162t-291 -62
q-313 0 -521 210q-97 96 -153 228t-57 279zM782 1694q0 53 32 86q32 32 85 32t86 -32t33 -86q0 -53 -33 -86t-86 -33t-85 33t-32 86zM477 1694q0 53 32 86q32 32 85 32t86 -32t33 -86q0 -53 -33 -86t-86 -33t-85 33t-32 86z" />
    <glyph glyph-name="multiply" unicode="&#xd7;" horiz-adv-x="874" 
d="M41 377l252 250l-250 256l145 139l248 -254l254 250l144 -141l-254 -250l251 -256l-145 -142l-252 254l-252 -250z" />
    <glyph glyph-name="Oslash" unicode="&#xd8;" horiz-adv-x="1497" 
d="M737 1221q-87 0 -178.5 -40t-199 -147.5t-107.5 -328.5t172 -365q106 203 197.5 368.5t148.5 272t119 219.5q-65 21 -152 21zM770 217q88 0 179 40t198.5 145t107.5 329t-180 371l-461 -866q68 -19 156 -19zM41 704q0 160 56.5 291t153.5 228.5t228 154t269 56.5t247 -35
l68 131h246l-125 -230q137 -104 204.5 -259t67.5 -307t-44 -280t-131 -229.5t-218 -163t-285 -61.5t-270 45l-76 -143h-242l132 248q-127 100 -204 247t-77 307z" />
    <glyph glyph-name="Ugrave" unicode="&#xd9;" horiz-adv-x="1320" 
d="M661 0q-242 0 -431 158t-189 387v889h215v-873q0 -146 126 -244t281 -98t281 98q125 98 125 242v875h211v-889q0 -119 -52 -219t-139 -172t-199 -113t-229 -41zM647 1548l-198 260h227l194 -260h-223z" />
    <glyph glyph-name="Uacute" unicode="&#xda;" horiz-adv-x="1320" 
d="M661 0q-242 0 -431 158t-189 387v889h215v-873q0 -146 126 -244t281 -98t281 98q125 98 125 242v875h211v-889q0 -119 -52 -219t-139 -172t-199 -113t-229 -41zM449 1548l196 260h225l-196 -260h-225z" />
    <glyph glyph-name="Ucircumflex" unicode="&#xdb;" horiz-adv-x="1320" 
d="M661 0q-242 0 -431 158t-189 387v889h215v-873q0 -146 126 -244t281 -98t281 98q125 98 125 242v875h211v-889q0 -119 -52 -219t-139 -172t-199 -113t-229 -41zM342 1538l313 293l324 -293h-260l-62 53l-57 -53h-258z" />
    <glyph glyph-name="Udieresis" unicode="&#xdc;" horiz-adv-x="1320" 
d="M661 0q-242 0 -431 158t-189 387v889h215v-873q0 -146 126 -244t281 -98t281 98q125 98 125 242v875h211v-889q0 -119 -52 -219t-139 -172t-199 -113t-229 -41zM694 1694q0 53 32 86q32 32 85 32t86 -32t33 -86q0 -53 -33 -86t-86 -33t-85 33t-32 86zM389 1694
q0 53 32 86q32 32 85 32t86 -32t33 -86q0 -53 -33 -86t-86 -33t-85 33t-32 86z" />
    <glyph glyph-name="Yacute" unicode="&#xdd;" horiz-adv-x="1419" 
d="M600 0v670l-559 760h278l392 -517q77 100 403 517h264l-555 -756l-2 -674h-221zM498 1548l196 260h226l-197 -260h-225z" />
    <glyph glyph-name="Thorn" unicode="&#xde;" horiz-adv-x="901" 
d="M554 923.5q-77 45.5 -181 45.5h-92v-424h45q133 0 219 46t86 166q0 121 -77 166.5zM860 760q0 -228 -144.5 -339.5t-375.5 -111.5h-59v-309h-240v1434h240v-236h79q351 0 425.5 -159.5t74.5 -278.5z" />
    <glyph glyph-name="germandbls" unicode="&#xdf;" horiz-adv-x="894" 
d="M854 366q0 -116 -94 -275t-490 -159v215q141 0 253 60.5t112 183.5q0 160 -293 223l-25 7q-2 0 2 2t0 2h-49v194q84 52 111 65q62 29 90.5 64.5t28.5 86.5t-12.5 73t-38.5 42.5t-82 20.5t-81.5 -44t-25.5 -154v-973h-219v952q0 222 71.5 327t264.5 105q153 0 248.5 -93.5
t95.5 -254.5t-52.5 -208.5t-80.5 -65.5q115 -36 190.5 -119.5t75.5 -276.5z" />
    <glyph glyph-name="agrave" unicode="&#xe0;" horiz-adv-x="1294" 
d="M647 791l-117 -242h234zM41 0l606 1303l606 -1303h-231l-156 336h-442l-43 -90q-27 -57 -57 -124t-60 -122h-223zM635 1343l-199 261h228l194 -261h-223z" />
    <glyph glyph-name="aacute" unicode="&#xe1;" horiz-adv-x="1294" 
d="M647 791l-117 -242h234zM41 0l606 1303l606 -1303h-231l-156 336h-442l-43 -90q-27 -57 -57 -124t-60 -122h-223zM436 1343l197 261h225l-196 -261h-226z" />
    <glyph glyph-name="acircumflex" unicode="&#xe2;" horiz-adv-x="1294" 
d="M647 791l-117 -242h234zM41 0l606 1303l606 -1303h-231l-156 336h-442l-43 -90q-27 -57 -57 -124t-60 -122h-223zM328 1333l313 293l324 -293h-260l-62 53l-57 -53h-258z" />
    <glyph glyph-name="atilde" unicode="&#xe3;" horiz-adv-x="1294" 
d="M647 791l-117 -242h234zM41 0l606 1303l606 -1303h-231l-156 336h-442l-43 -90q-27 -57 -57 -124t-60 -122h-223zM965 1475q-51 -72 -105 -86q-93 -24 -218 37q-125 62 -212 37q-51 -15 -100 -85v185q51 70 104 85q54 15 108 3t108 -39t108 -40t106 2q51 15 101 85v-184z
" />
    <glyph glyph-name="adieresis" unicode="&#xe4;" horiz-adv-x="1294" 
d="M647 791l-117 -242h234zM41 0l606 1303l606 -1303h-231l-156 336h-442l-43 -90q-27 -57 -57 -124t-60 -122h-223zM682 1489q0 53 32 86t85 33t86 -33t33 -86t-33 -86t-86 -33t-85 33t-32 86zM377 1489q0 53 32 86t85 33t86 -33q32 -33 32 -86t-32 -86t-86 -33
q-53 0 -85 33t-32 86z" />
    <glyph glyph-name="aring" unicode="&#xe5;" horiz-adv-x="1294" 
d="M649.5 1346q55.5 0 55.5 64.5t-55.5 64t-55.5 -64.5t55.5 -64zM647 791l-117 -242h234zM410 1416q0 91 63 156.5t177 65.5t174.5 -66.5t60.5 -157.5t-46 -152.5t-137 -77.5l551 -1184h-231l-156 336h-442l-43 -90q-27 -57 -57.5 -124t-59.5 -122h-223l551 1184
q-88 16 -135 78.5t-47 153.5z" />
    <glyph glyph-name="ae" unicode="&#xe6;" horiz-adv-x="1961" 
d="M1053 696v64l-62 -64h62zM1921 1212v-227h-651v-280h575v-220h-575v-268h651v-217h-868v477h-269l-450 -477h-293l1141 1212h739z" />
    <glyph glyph-name="ccedilla" unicode="&#xe7;" horiz-adv-x="1153" 
d="M41 604q0 247 177.5 426.5t436.5 179.5t457 -213l-158 -139q-133 141 -306 141q-172 0 -286 -116t-114 -278.5t114.5 -277t289.5 -114.5t325 158l129 -164q-165 -185 -408 -205l-69 -229h-205l74 245q-200 51 -328.5 214.5t-128.5 371.5z" />
    <glyph glyph-name="egrave" unicode="&#xe8;" horiz-adv-x="1069" 
d="M41 0v1210h987v-213h-770v-262h727v-213h-727v-305h770v-217h-987zM522 1343l-198 261h227l194 -261h-223z" />
    <glyph glyph-name="eacute" unicode="&#xe9;" horiz-adv-x="1069" 
d="M41 0v1210h987v-213h-770v-262h727v-213h-727v-305h770v-217h-987zM324 1343l196 261h225l-196 -261h-225z" />
    <glyph glyph-name="ecircumflex" unicode="&#xea;" horiz-adv-x="1069" 
d="M41 0v1210h987v-213h-770v-262h727v-213h-727v-305h770v-217h-987zM215 1333l313 293l324 -293h-260l-62 53l-57 -53h-258z" />
    <glyph glyph-name="edieresis" unicode="&#xeb;" horiz-adv-x="1069" 
d="M41 0v1210h987v-213h-770v-262h727v-213h-727v-305h770v-217h-987zM569 1489q0 53 32 86t85 33t86 -33t33 -86t-33 -86t-86 -33t-85 33t-32 86zM264 1489q0 53 32 86t85 33t86 -33t33 -86t-33 -86t-86 -33t-85 33t-32 86z" />
    <glyph glyph-name="igrave" unicode="&#xec;" horiz-adv-x="299" 
d="M258 0h-217v1210h217v-1210zM57 1343l-198 261h227l195 -261h-224z" />
    <glyph glyph-name="iacute" unicode="&#xed;" horiz-adv-x="299" 
d="M258 0h-217v1210h217v-1210zM41 1343l197 261h225l-197 -261h-225z" />
    <glyph glyph-name="icircumflex" unicode="&#xee;" horiz-adv-x="299" 
d="M258 0h-217v1210h217v-1210zM-166 1436l313 293l324 -293h-260l-61 53l-58 -53h-258z" />
    <glyph glyph-name="idieresis" unicode="&#xef;" horiz-adv-x="299" 
d="M258 0h-217v1210h217v-1210zM186 1489q0 53 32 86t85 33t86 -33t33 -86t-33 -86t-86 -33t-85 33t-32 86zM-119 1489q0 53 32 86t85 33t86 -33t33 -86t-33 -86t-86 -33t-85 33t-32 86z" />
    <glyph glyph-name="ntilde" unicode="&#xf1;" horiz-adv-x="1136" 
d="M256 0h-215v1262l844 -809v757h211v-1245l-840 793v-758zM885 1475q-51 -72 -105 -86q-93 -24 -218 37q-125 62 -212 37q-51 -15 -100 -85v185q51 70 104 85q54 15 108 3t108 -39t108 -40t106 2q51 15 101 85v-184z" />
    <glyph glyph-name="ograve" unicode="&#xf2;" horiz-adv-x="1275" 
d="M248 604q0 -82 31 -152q63 -143 210 -208q72 -31 154 -31q164 0 280 116t116 277q-1 160 -116 277q-115 118 -281 117q-165 0 -280 -116q-114 -116 -114 -280zM41 604q0 125 48 236q48 110 130 192t192 130q109 48 245 48t247 -52t185 -137t110 -195q37 -110 37 -224
t-37 -222q-77 -225 -295 -328q-111 -52 -247 -52t-246 48q-224 98 -321 322q-48 109 -48 234zM625 1343l-199 261h227l195 -261h-223z" />
    <glyph glyph-name="oacute" unicode="&#xf3;" horiz-adv-x="1275" 
d="M248 604q0 -82 31 -152q63 -143 210 -208q72 -31 154 -31q164 0 280 116t116 277q-1 160 -116 277q-115 118 -281 117q-165 0 -280 -116q-114 -116 -114 -280zM41 604q0 125 48 236q48 110 130 192t192 130q109 48 245 48t247 -52t185 -137t110 -195q37 -110 37 -224
t-37 -222q-77 -225 -295 -328q-111 -52 -247 -52t-246 48q-224 98 -321 322q-48 109 -48 234zM426 1343l197 261h225l-197 -261h-225z" />
    <glyph glyph-name="ocircumflex" unicode="&#xf4;" horiz-adv-x="1275" 
d="M248 604q0 -82 31 -152q63 -143 210 -208q72 -31 154 -31q164 0 280 116t116 277q-1 160 -116 277q-115 118 -281 117q-165 0 -280 -116q-114 -116 -114 -280zM41 604q0 125 48 236q48 110 130 192t192 130q109 48 245 48t247 -52t185 -137t110 -195q37 -110 37 -224
t-37 -222q-77 -225 -295 -328q-111 -52 -247 -52t-246 48q-224 98 -321 322q-48 109 -48 234zM319 1313l314 293l323 -293h-260l-61 53l-57 -53h-259z" />
    <glyph glyph-name="otilde" unicode="&#xf5;" horiz-adv-x="1275" 
d="M248 604q0 -82 31 -152q63 -143 210 -208q72 -31 154 -31q164 0 280 116t116 277q-1 160 -116 277q-115 118 -281 117q-165 0 -280 -116q-114 -116 -114 -280zM41 604q0 125 48 236q48 110 130 192t192 130q109 48 245 48t247 -52t185 -137t110 -195q37 -110 37 -224
t-37 -222q-77 -225 -295 -328q-111 -52 -247 -52t-246 48q-224 98 -321 322q-48 109 -48 234zM954 1475q-51 -72 -104 -86q-54 -15 -108 -3t-108 39t-108 40t-106 -2q-51 -15 -101 -85v185q51 70 105 85q91 26 217 -37t213 -37q51 15 100 85v-184z" />
    <glyph glyph-name="odieresis" unicode="&#xf6;" horiz-adv-x="1275" 
d="M248 604q0 -82 31 -152q63 -143 210 -208q72 -31 154 -31q164 0 280 116t116 277q-1 160 -116 277q-115 118 -281 117q-165 0 -280 -116q-114 -116 -114 -280zM41 604q0 125 48 236q48 110 130 192t192 130q109 48 245 48t247 -52t185 -137t110 -195q37 -110 37 -224
t-37 -222q-77 -225 -295 -328q-111 -52 -247 -52t-246 48q-224 98 -321 322q-48 109 -48 234zM672 1489q0 53 31 86q32 33 85 33t86 -33t33 -86t-33 -86t-86 -33t-85 33q-31 33 -31 86zM367 1489q0 53 31 86q32 33 85 33t86 -33t33 -86t-33 -86t-86 -33t-85 33
q-31 33 -31 86z" />
    <glyph glyph-name="divide" unicode="&#xf7;" horiz-adv-x="342" 
d="M41 890q0 56 36 94t92 38t94 -38t38 -94t-38 -92t-94 -36t-92 36t-36 92zM41 128q0 56 36 94t92 38t94 -38t38 -94t-38 -92t-94 -36t-92 36t-36 92z" />
    <glyph glyph-name="oslash" unicode="&#xf8;" horiz-adv-x="1275" 
d="M643 213q164 0 279.5 115.5t115.5 288.5t-151 294q-78 -180 -151.5 -346t-153.5 -348q16 -4 20 -4h41zM248 597q0 -89 42 -169t109 -133l310 698q-31 6 -89 6t-130 -30.5t-126.5 -85t-85 -126t-30.5 -160.5zM41 588q0 266 178 444t426 178q78 0 152 -20l41 100h217
l-78 -174q135 -86 196.5 -222t61.5 -270q0 -267 -156 -445.5t-434 -178.5q-78 0 -147 18q-51 -112 -60 -133h-215l94 213q-123 82 -199.5 215t-76.5 275z" />
    <glyph glyph-name="ugrave" unicode="&#xf9;" horiz-adv-x="1134" 
d="M566 0q-99 0 -193 35q-199 74 -287 243q-45 85 -45 185v743h213v-731q0 -109 98 -186q98 -76 219 -76q122 0 219 76t97 184v733h207v-743q0 -102 -45 -188q-91 -170 -289 -241q-96 -34 -194 -34zM555 1343l-199 261h228l194 -261h-223z" />
    <glyph glyph-name="uacute" unicode="&#xfa;" horiz-adv-x="1134" 
d="M566 0q-99 0 -193 35q-199 74 -287 243q-45 85 -45 185v743h213v-731q0 -109 98 -186q98 -76 219 -76q122 0 219 76t97 184v733h207v-743q0 -102 -45 -188q-91 -170 -289 -241q-96 -34 -194 -34zM356 1343l197 261h225l-196 -261h-226z" />
    <glyph glyph-name="ucircumflex" unicode="&#xfb;" horiz-adv-x="1134" 
d="M566 0q-99 0 -193 35q-199 74 -287 243q-45 85 -45 185v743h213v-731q0 -109 98 -186q98 -76 219 -76q122 0 219 76t97 184v733h207v-743q0 -102 -45 -188q-91 -170 -289 -241q-96 -34 -194 -34zM248 1436l313 293l324 -293h-260l-62 53l-57 -53h-258z" />
    <glyph glyph-name="udieresis" unicode="&#xfc;" horiz-adv-x="1134" 
d="M566 0q-99 0 -193 35q-199 74 -287 243q-45 85 -45 185v743h213v-731q0 -109 98 -186q98 -76 219 -76q122 0 219 76t97 184v733h207v-743q0 -102 -45 -188q-91 -170 -289 -241q-96 -34 -194 -34zM602 1489q0 53 32 86t85 33t86 -33t33 -86t-33 -86t-86 -33t-85 33t-32 86
zM297 1489q0 53 32 86t85 33t86 -33q32 -33 32 -86t-32 -86t-86 -33q-53 0 -85 33t-32 86z" />
    <glyph glyph-name="yacute" unicode="&#xfd;" horiz-adv-x="1243" 
d="M731 0h-217v561q-137 191 -217 301q-81 111 -142 195q-60 84 -114 157h266l316 -411l313 411h266l-471 -651v-563zM410 1343l196 261h225l-196 -261h-225z" />
    <glyph glyph-name="thorn" unicode="&#xfe;" horiz-adv-x="985" 
d="M401 823q-61 0 -131 -20v-580q76 -16 150 -16q137 0 213 84.5t76 228.5t-82 223.5t-226 79.5zM423 1036q91 0 187.5 -29.5t215 -132t118.5 -345.5q0 -244 -145.5 -389.5t-390.5 -145.5q-68 0 -138 8v-391h-229v1788h229v-377q62 14 153 14z" />
    <glyph glyph-name="ydieresis" unicode="&#xff;" horiz-adv-x="1243" 
d="M731 0h-217v561q-137 191 -217 301q-81 111 -142 195q-60 84 -114 157h266l316 -411l313 411h266l-471 -651v-563zM655 1489q0 53 32 86t85 33t86 -33t33 -86t-33 -86t-86 -33t-85 33t-32 86zM350 1489q0 53 32 86t85 33t86 -33t33 -86t-33 -86t-86 -33t-85 33t-32 86z
" />
    <glyph glyph-name="dotlessi" unicode="&#x131;" horiz-adv-x="319" 
d="M41 1259.5q0 53.5 31.5 86t85 32.5t87.5 -32.5t34 -86t-34 -86t-87.5 -32.5t-85 32.5t-31.5 86zM61 0v1024h209v-1024h-209z" />
    <glyph glyph-name="OE" unicode="&#x152;" horiz-adv-x="1904" 
d="M399.5 364.5q147.5 -147.5 354.5 -147.5h123v1004h-123q-207 0 -354.5 -147.5t-147.5 -354.5t147.5 -354.5zM758 0q-147 0 -278.5 56.5t-228.5 153.5t-153.5 228t-56.5 278.5t56.5 278.5t153.5 228.5t228 154t279 56.5h1106v-222h-766v-360h674v-219h-674v-412h766v-221
h-1106z" />
    <glyph glyph-name="oe" unicode="&#x153;" horiz-adv-x="1759" 
d="M641 999q-165 0 -279 -116t-114 -278.5t114.5 -277t278.5 -114.5h154v786h-154zM643 0q-248 0 -425 177t-177 364.5t47 298t177 240.5t378 130h1075v-213h-708v-262h632v-213h-632v-305h708v-217l-887 2l-141 -2h-47z" />
    <glyph glyph-name="Scaron" unicode="&#x160;" horiz-adv-x="1370" 
d="M236 393q196 -200 437 -200q298 0 394 123q29 38 29 83q0 83 -126 144q-65 31 -218 71q-152 40 -251 70q-216 64 -310 189q-50 69 -50 158q0 284 312 381q109 34 275 34q329 0 601 -254l-190 -139l-21 26q-74 80 -172 122t-246 42t-240 -49q-93 -49 -93 -132t127 -143
q74 -37 222 -75t248 -68q217 -66 309 -197q50 -71 50 -173q0 -201 -175 -309q-175 -109 -450 -107q-378 0 -657 262zM760 2947l57 -53l62 53h260l-324 -293l-313 293h258z" />
    <glyph glyph-name="scaron" unicode="&#x161;" horiz-adv-x="1159" 
d="M227 346q167 -172 333 -172q233 0 305 92q22 27 22 61q0 88 -196 146q-56 15 -127 33q-197 49 -283 100q-168 100 -168 248q0 241 263 327q92 29 230 29t262 -52t250 -171l-176 -139l-20 22q-66 68 -145 104t-193 36t-184 -36q-71 -36 -70 -91q0 -81 201 -148
q54 -18 122 -37q213 -60 290 -108q77 -50 119 -110t42 -148q0 -173 -148 -265t-374 -92q-156 -1 -285 53t-256 175zM518 1513l57 -53l62 53h260l-324 -292l-313 292h258z" />
    <glyph glyph-name="Ydieresis" unicode="&#x178;" horiz-adv-x="1419" 
d="M600 0v670l-559 760h278l392 -517q77 100 403 517h264l-555 -756l-2 -674h-221zM713 2718q0 53 31 86q32 32 85 32t86 -32t33 -86q0 -53 -33 -86t-86 -33t-85 33q-31 33 -31 86zM408 2718q0 53 31 86q32 32 85 32t86 -32t33 -86q0 -53 -33 -86t-86 -33t-85 33
q-31 33 -31 86z" />
    <glyph glyph-name="Zcaron" unicode="&#x17d;" horiz-adv-x="1413" 
d="M1313 221v-221h-1272l891 1212h-858v222h1298l-889 -1213h830zM645 1821l57 -54l62 54h260l-324 -293l-313 293h258z" />
    <glyph glyph-name="zcaron" unicode="&#x17e;" horiz-adv-x="1220" 
d="M1116 217v-217h-1075l707 995h-670v217h1102l-731 -995h667zM549 1513l57 -53l62 53h260l-324 -292l-313 292h258z" />
    <glyph glyph-name="circumflex" unicode="&#x2c6;" horiz-adv-x="718" 
d="M41 1231l313 293l324 -293h-260l-62 53l-57 -53h-258z" />
    <glyph glyph-name="caron" unicode="&#x2c7;" horiz-adv-x="718" 
d="M299 1513l57 -53l62 53h260l-324 -292l-313 292h258z" />
    <glyph glyph-name="breve" unicode="&#x2d8;" horiz-adv-x="600" 
d="M300 1323q30 0 53.5 33t25.5 78h180q-4 -117 -75.5 -196t-184.5 -79t-185.5 80t-72.5 195h182q2 -47 24.5 -79t52.5 -32z" />
    <glyph glyph-name="dotaccent" unicode="&#x2d9;" horiz-adv-x="356" 
d="M41 1304.5q0 59.5 39 98.5t98.5 39t98 -39t38.5 -98.5t-38.5 -97.5t-98 -38t-98.5 38t-39 97.5z" />
    <glyph glyph-name="ring" unicode="&#x2da;" horiz-adv-x="557" 
d="M516 1203q0 -97 -61 -162.5t-175 -65.5t-176.5 66.5t-62.5 163.5t62.5 163t177.5 66t175 -67t60 -164zM280.5 1141.5q55.5 -0.5 55.5 64t-55.5 64.5t-55.5 -64t55.5 -64.5z" />
    <glyph glyph-name="tilde" unicode="&#x2dc;" horiz-adv-x="716" 
d="M676 1270q-50 -72 -104 -86q-92 -24 -218 38t-213 36q-51 -15 -100 -84v184q51 70 104 85t107 3t109 -39t109 -40t105 2t101 85v-184z" />
    <glyph glyph-name="hungarumlaut" unicode="&#x2dd;" horiz-adv-x="587" 
d="M264 1180l76 260h207l-80 -260h-203zM41 1180l76 260h207l-80 -260h-203z" />
    <glyph glyph-name="endash" unicode="&#x2013;" horiz-adv-x="1032" 
d="M41 377v205h950v-205h-950z" />
    <glyph glyph-name="emdash" unicode="&#x2014;" horiz-adv-x="1437" 
d="M41 377v205h1356v-205h-1356z" />
    <glyph glyph-name="quoteleft" unicode="&#x2018;" horiz-adv-x="385" 
d="M41 1081l96 318h207l-98 -318h-205z" />
    <glyph glyph-name="quoteright" unicode="&#x2019;" horiz-adv-x="385" 
d="M41 1081l96 318h207l-98 -318h-205z" />
    <glyph glyph-name="quotesinglbase" unicode="&#x201a;" horiz-adv-x="385" 
d="M41 -55l96 319h207l-98 -319h-205z" />
    <glyph glyph-name="quotedblleft" unicode="&#x201c;" horiz-adv-x="628" 
d="M285 1081l96 318h207l-99 -318h-204zM41 1081l96 318h207l-98 -318h-205z" />
    <glyph glyph-name="quotedblright" unicode="&#x201d;" horiz-adv-x="628" 
d="M285 1081l96 318h207l-99 -318h-204zM41 1081l96 318h207l-98 -318h-205z" />
    <glyph glyph-name="quotedblbase" unicode="&#x201e;" horiz-adv-x="628" 
d="M285 -53l96 319h207l-99 -319h-204zM41 -53l96 319h207l-98 -319h-205z" />
    <glyph glyph-name="bullet" unicode="&#x2022;" horiz-adv-x="509" 
d="M41 477q0 96 57.5 156.5t153.5 60.5t156.5 -60.5t60.5 -156.5t-60.5 -153.5t-156.5 -57.5t-153.5 57.5t-57.5 153.5z" />
    <glyph glyph-name="ellipsis" unicode="&#x2026;" horiz-adv-x="1040" 
d="M748 124q0 54 34.5 91t88.5 37t91 -37t37 -91t-36.5 -89t-90.5 -35t-89 35t-35 89zM393 124q0 54 35 91t90 37t91 -37t36 -91t-36 -89t-91 -35t-90 35t-35 89zM41 124q0 54 35 91t89 37t91 -37t37 -91t-37 -89t-91 -35t-89 35t-35 89z" />
    <glyph glyph-name="guilsinglleft" unicode="&#x2039;" horiz-adv-x="585" 
d="M334 129l-293 350l293 352h211l-279 -352q31 -39 68 -85t73.5 -92t72.5 -91t65 -82h-211z" />
    <glyph glyph-name="guilsinglright" unicode="&#x203a;" horiz-adv-x="571" 
d="M41 129l256 350q-29 39 -62.5 85t-72 98t-121.5 169h199l290 -352l-290 -350h-199z" />
    <glyph glyph-name="fraction" unicode="&#x2044;" horiz-adv-x="741" 
d="M252 0h-211l448 1436h211z" />
    <glyph glyph-name="Euro" unicode="&#x20ac;" horiz-adv-x="1087" 
d="M41 371v188h147v55v6l-2 18q0 11 2 24h-147v186h182q42 163 154 270t272 107q225 0 398 -246l-148 -156q-133 207 -246 207q-74 0 -127 -54t-86 -128h320v-186h-369v-103h369v-188h-332q77 -183 225 -183q119 0 246 191l148 -152q-167 -237 -398 -237q-165 0 -276 105
t-156 276h-176z" />
    <glyph glyph-name="trademark" unicode="&#x2122;" horiz-adv-x="1335" 
d="M1118 621v321l-74 -100v2l-106 -152l-176 248v-319h-176v792l352 -442q82 113 181.5 224.5t174.5 215.5v-790h-176zM395 1243v-627h-178v627h-176v166h526v-166h-172z" />
    <glyph glyph-name="minus" unicode="&#x2212;" horiz-adv-x="995" 
d="M41 416v202h913v-202h-913z" />
    <glyph glyph-name="percent" horiz-adv-x="1062" 
d="M561 1199q0 -99 -59.5 -165.5t-174.5 -66.5t-181 68t-66 166q0 97 65.5 164t181.5 67t175 -67t59 -166zM274 1202q0 -55 48 -55t49 55q0 55 -48.5 55t-48.5 -55zM281 0h-240l739 1432h242zM997 233q0 -100 -59 -166.5t-177 -66.5t-181.5 68.5t-63.5 166.5t63.5 163
t181.5 65t177 -65t59 -165zM758 178q47 0 46.5 56.5t-48.5 56.5q-42 0 -41 -60q0 -23 8 -38t35 -15z" />
  </font>
</defs>
</svg>
