<?xml version="1.0" standalone="no"?>
<!DOCTYPE svg PUBLIC "-//W3C//DTD SVG 1.1//EN" "http://www.w3.org/Graphics/SVG/1.1/DTD/svg11.dtd" >
<svg xmlns="http://www.w3.org/2000/svg">
<metadata>
Created by FontPrep 20130207 at Tue Jan  6 21:55:13 2015
 By Victor
Copyright 2006 Volkswagen AG.
</metadata>
<defs>
<font id="6a55e908a0e183e6bb7f1947ff11aa91" horiz-adv-x='1024' >
  <font-face 
    font-family="Abcdefgs"
    font-weight="600"
    font-stretch="normal"
    units-per-em="2048"
    panose-1="2 11 7 3 0 0 0 2 0 3"
    ascent="1638"
    descent="-410"
    x-height="897"
    cap-height="1452"
    bbox="-315 -567 2286 2062"
    underline-thickness="102"
    underline-position="-307"
    unicode-range="U+0020-FB04"
  />
<missing-glyph horiz-adv-x="630" 
 />
    <glyph glyph-name="ff" unicode="ff" horiz-adv-x="1253" 
d="M1001 897h218v-182h-218v-715h-233v715h-375v-715h-233v715h-127v182h127v268q0 191 62 274q76 101 251 101q101 0 164 -18l-25 -197q-47 10 -99 10q-52 1 -77 -23t-34 -61t-9 -114v-240h375v277q0 190 62 274q76 104 251 102q80 0 148 -14v-199q-36 6 -98 8
q-102 2 -120 -83q-9 -37 -10 -117v-248z" />
    <glyph glyph-name="fi" unicode="fi" horiz-adv-x="1124" 
d="M393 1145v-248h594v-897h-233v715h-361v-715h-233v715h-127v182h127v277q0 190 62 274q76 104 251 102q90 0 168 -20l-31 -197q-128 27 -170 -9q-27 -22 -37 -60q-10 -37 -10 -119zM870 1106q-61 0 -106 44t-45 106t45 106t106 45q60 0 106 -44q46 -45 46 -107t-46 -106
t-106 -44z" />
    <glyph glyph-name="fl" unicode="fl" horiz-adv-x="1122" 
d="M604 1546q82 0 152 -12h233v-1534h-233v1331q-233 52 -311 -38q-50 -58 -52 -208v-188h217v-182h-217v-715h-233v715h-127v182h127v221q0 428 444 428z" />
    <glyph glyph-name="ffi" unicode="ffi" horiz-adv-x="1751" 
d="M160 715h-127v182h127v268q0 191 62 274q76 101 251 101q101 0 164 -18l-27 -197q-47 10 -96 10q-93 0 -112 -82q-9 -37 -9 -116v-240h377v277q0 191 63 274q76 104 250 102q90 0 168 -20l-30 -197q-69 12 -107 12q-39 1 -66 -23q-28 -24 -36 -60q-8 -37 -8 -117v-248
h608v-897h-234v715h-374v-715h-234v715h-377v-715h-233v715zM1346 1250q0 62 44 106t106 45q62 0 106 -44q44 -45 45 -107q-1 -62 -45 -106t-106 -44t-106 44t-44 106z" />
    <glyph glyph-name="ffl" unicode="ffl" horiz-adv-x="1728" 
d="M1210 1546q82 0 152 -12h231v-1534h-233v1331q-232 53 -308 -38q-49 -57 -51 -208v-188h218v-182h-218v-715h-233v715h-375v-715h-233v715h-127v182h127v268q0 191 62 274q76 101 251 101q101 0 164 -18l-27 -197q-47 10 -98 10q-91 0 -110 -82q-9 -37 -9 -116v-240h375
v221q0 428 442 428z" />
    <glyph glyph-name=".notdef" horiz-adv-x="630" 
 />
    <glyph glyph-name=".null" horiz-adv-x="555" 
 />
    <glyph glyph-name="nonmarkingreturn" horiz-adv-x="555" 
 />
    <glyph glyph-name="space" unicode=" " horiz-adv-x="555" 
 />
    <glyph glyph-name="exclam" unicode="!" horiz-adv-x="663" 
d="M332 -20q-102 0 -131 63t-29 112t47 96.5t113 47.5t113 -47t47 -112.5t-47 -112.5t-113 -47zM211 1452h242v-1026h-242v1026z" />
    <glyph glyph-name="quotedbl" unicode="&#x22;" horiz-adv-x="897" 
d="M121 1489h252l-47 -604h-156zM526 1489h252l-47 -604h-156z" />
    <glyph glyph-name="numbersign" unicode="#" horiz-adv-x="1392" 
d="M831 600l39 270h-270l-41 -270h272zM86 403v197h256l41 270h-231v197h258l53 385h217l-53 -385h270l53 385h217l-51 -385h199v-197h-228l-38 -270h200v-197h-229l-57 -403h-218l58 403h-271l-59 -403h-219l61 403h-229z" />
    <glyph glyph-name="dollar" unicode="$" 
d="M807 376q0 69 -38 114t-103 79v-381q68 16 104.5 67.5t36.5 120.5zM420 1077q0 -112 133 -188v371q-66 -18 -99.5 -68.5t-33.5 -114.5zM288 1328.5q102 114.5 261 137.5v183h121v-183q226 -19 354 -194l-152 -144q-84 113 -202 136v-433q74 -33 224 -112t150 -320
q0 -162 -103 -277.5t-271 -139.5v-228h-121v223q-133 10 -237.5 75t-170.5 171l160 146q87 -148 248 -183v439q-72 33 -137.5 69.5t-145.5 119t-80 241.5t102 273.5z" />
    <glyph glyph-name="percent" unicode="%" horiz-adv-x="1738" 
d="M393 739q133 0 133 283q0 141 -29.5 212t-101.5 71q-137 0 -137 -279q0 -154 32.5 -220.5t102.5 -66.5zM1339 141q134 0 134 283q0 141 -30 212t-102 71q-137 0 -137 -279q0 -154 32.5 -220.5t102.5 -66.5zM386 571q-142 0 -228 106.5t-86 334.5t90 344.5t237 116.5
t231.5 -108t84.5 -337t-93.5 -343t-235.5 -114zM1174 1513l143 -65l-758 -1516l-143 66zM1332 -27q-142 0 -228 106.5t-86 334.5t89 343t237 115t232.5 -106.5t84.5 -335.5t-93.5 -343t-235.5 -114z" />
    <glyph glyph-name="ampersand" unicode="&#x26;" horiz-adv-x="1347" 
d="M326 395q0 -84 52 -142t131 -58t137.5 34.5t129.5 98.5l-264 323q-88 -59 -137 -115.5t-49 -140.5zM719 1136q0 62 -38 98t-95 36t-94 -39t-37 -92.5t30.5 -104.5t77.5 -108q61 43 108.5 95.5t47.5 114.5zM86 385q0 129 74.5 221t224.5 199q-154 182 -154 325
q0 144 100 242t265 98t258.5 -91t93.5 -221t-70.5 -218t-187.5 -166l246 -299q47 43 91 92t91 99l146 -164q-94 -102 -189 -193l195 -237v-72h-226l-135 166q-210 -186 -417 -186q-174 0 -290 110t-116 295z" />
    <glyph glyph-name="quotesingle" unicode="'" horiz-adv-x="489" 
d="M121 1489h252l-47 -604h-156z" />
    <glyph glyph-name="parenleft" unicode="(" horiz-adv-x="589" 
d="M365 -422q-240 451 -240 958q0 508 244 984l178 -64q-219 -457 -219 -921t217 -887z" />
    <glyph glyph-name="parenright" unicode=")" horiz-adv-x="589" 
d="M266 553q0 236 -57 469t-162 428l180 70q242 -449 242 -959q0 -279 -64.5 -516.5t-181.5 -466.5l-178 64q221 457 221 911z" />
    <glyph glyph-name="asterisk" unicode="*" horiz-adv-x="761" 
d="M37 1012l209 110l-209 111l74 127l198 -133l-14 235h143l-12 -231l195 129l75 -123l-207 -113l209 -112l-75 -125l-195 129l12 -234h-147l14 236l-194 -131z" />
    <glyph glyph-name="plus" unicode="+" horiz-adv-x="1382" 
d="M98 698h484v478h219v-478h483v-215h-483v-483h-219v483h-484v215z" />
    <glyph glyph-name="comma" unicode="," horiz-adv-x="503" 
d="M162 -66q0 52 -17.5 94t-25.5 63t-8 65t41 86.5t104 42.5t109.5 -46t46.5 -155t-81 -225.5t-216 -216.5l-84 96q131 117 131 196z" />
    <glyph glyph-name="hyphen" unicode="-" horiz-adv-x="739" 
d="M88 639h563v-197h-563v197z" />
    <glyph glyph-name="period" unicode="." horiz-adv-x="483" 
d="M249.5 -29q-65.5 0 -111.5 46t-46 112t46 112t111.5 46t112 -46t46.5 -112t-46.5 -112t-112 -46z" />
    <glyph glyph-name="slash" unicode="/" horiz-adv-x="964" 
d="M788 1452h185l-737 -1452h-181z" />
    <glyph glyph-name="zero" unicode="0" 
d="M594 1264q-262 0 -262 -537t264 -537q125 0 192.5 131.5t67.5 393.5q0 549 -262 549zM586 -29q-133 0 -227.5 52.5t-157 149.5t-94 235.5t-31.5 400t139.5 466t390.5 204.5q250 0 378 -203.5t128 -536.5q0 -522 -196.5 -645t-329.5 -123z" />
    <glyph glyph-name="one" unicode="1" 
d="M176 229h297v994h-278v229h528v-1223h287v-229h-834v229z" />
    <glyph glyph-name="two" unicode="2" 
d="M1092 223v-223h-971v102l393 433q160 176 208 254.5t64.5 131t16.5 107.5q0 98 -59.5 163.5t-179.5 65.5t-174.5 -90.5t-45.5 -224.5h-248q-6 260 124 399.5t360 139.5t356.5 -128.5t126.5 -300.5t-83 -311t-237 -292q-19 -34 -117 -126t-110 -104l32 1z" />
    <glyph glyph-name="three" unicode="3" 
d="M346 432q0 -113 61.5 -180.5t175.5 -67.5t176 66.5t62 166.5q0 101 -70.5 164.5t-205.5 63.5h-76v211h66q117 0 181 55.5t64 149.5t-56 151.5t-150 57.5t-148.5 -63.5t-50.5 -162.5h-240q-4 186 119 312.5t326 126.5t329.5 -114.5t126.5 -289.5q0 -117 -54 -196.5
t-146 -120.5q101 -25 174 -123t73 -199q0 -196 -133.5 -331.5t-354.5 -135.5q-222 0 -356.5 122t-134.5 337h242z" />
    <glyph glyph-name="four" unicode="4" 
d="M686 535v289q0 289 6 343q-6 -14 -19.5 -36.5t-30 -53t-44.5 -73.5l-301 -469h389zM932 1452v-915h201v-215h-201v-322h-248v322h-631v204l604 926h275z" />
    <glyph glyph-name="five" unicode="5" 
d="M535 190q125 0 204.5 77t79.5 200t-89 206t-237 83q-149 0 -294 -49l65 745h711v-223h-514l-23 -287q57 10 144 10q86 0 183 -33.5t165.5 -95t106.5 -146.5t38 -244t-149 -309.5t-406 -150.5q-115 0 -222.5 35t-184.5 101l86 208q142 -127 336 -127z" />
    <glyph glyph-name="six" unicode="6" 
d="M772.5 263.5q73.5 75.5 73.5 184.5t-74 183t-179.5 74t-178 -74.5t-72.5 -183.5t75 -184t179 -75q103 0 176.5 75.5zM653 895q193 0 318 -122t125 -320t-147 -339t-366 -141q-218 0 -355.5 137.5t-137.5 342.5q0 245 204 553q150 227 329 446h303q-82 -93 -129 -152
t-83 -103.5t-78 -100.5t-90 -126.5t-89 -129.5q95 55 196 55z" />
    <glyph glyph-name="seven" unicode="7" 
d="M96 1231v221h994v-127l-633 -1325h-283l608 1231h-686z" />
    <glyph glyph-name="eight" unicode="8" 
d="M768 256q68 68 68 166t-71 166.5t-170.5 68.5t-171 -67.5t-71.5 -166t70.5 -167t174 -68.5t171.5 68zM813 1072q0 85 -59.5 146.5t-159.5 61.5t-157.5 -58.5t-57.5 -143.5t59.5 -147.5t156.5 -62.5t157.5 59.5t60.5 144.5zM1044 1094q0 -215 -210 -316
q111 -37 181 -131.5t70 -202.5q0 -207 -142 -338t-350 -131t-350.5 123t-142.5 316q0 123 68 218t186 136q-98 41 -152.5 125t-54.5 175q0 182 123 299.5t321 117.5t325.5 -108.5t127.5 -282.5z" />
    <glyph glyph-name="nine" unicode="9" 
d="M769 823q73 75 73 184t-74 183t-180 74t-178 -77.5t-72 -184.5t72.5 -180.5t179.5 -73.5q106 0 179 75zM539 557q-193 0 -320 121.5t-127 321.5t148 339.5t364 139.5q217 0 353.5 -136.5t136.5 -345.5t-121.5 -411.5t-222.5 -337.5t-138 -184.5t-49 -63.5h-309
q105 115 255 312t220 302q-87 -57 -190 -57z" />
    <glyph glyph-name="colon" unicode=":" horiz-adv-x="675" 
d="M337.5 -27q-65.5 0 -111.5 45t-46 111t46 112t111.5 46t112 -46t46.5 -112t-46.5 -111t-112 -45zM337.5 528q-65.5 0 -111.5 46.5t-46 112t46 110.5t111.5 45t112 -45t46.5 -110.5t-46.5 -112t-112 -46.5z" />
    <glyph glyph-name="semicolon" unicode=";" horiz-adv-x="675" 
d="M242 -55q0 41 -24.5 99.5t-24.5 107.5q0 48 40.5 90.5t104 42.5t110 -46t46.5 -155t-81 -225.5t-216 -216.5l-84 96q129 116 129 207zM337.5 528q-65.5 0 -111.5 46.5t-46 112t46 110.5t111.5 45t112 -45t46.5 -110.5t-46.5 -112t-112 -46.5z" />
    <glyph glyph-name="less" unicode="&#x3c;" horiz-adv-x="1382" 
d="M96 750l1157 495v-235l-870 -367l870 -362v-252l-1157 493v228z" />
    <glyph glyph-name="equal" unicode="=" horiz-adv-x="1382" 
d="M63 492h1256v-216h-1256v216zM63 907h1256v-213h-1256v213z" />
    <glyph glyph-name="greater" unicode="&#x3e;" horiz-adv-x="1382" 
d="M1253 522l-1157 -493v252l871 362l-871 367v235l1157 -495v-228z" />
    <glyph glyph-name="question" unicode="?" horiz-adv-x="1101" 
d="M559.5 -25q-65.5 0 -112 46.5t-46.5 112t46.5 111.5t112 46t111.5 -46t46 -111.5t-46 -112t-111.5 -46.5zM436 815h103q162 0 198.5 88t36.5 134t-17.5 87t-47 71t-70.5 47.5t-111 17.5t-133 -68.5t-59 -167.5h-215q-8 188 117.5 319.5t325.5 131.5t326 -122.5
t126 -293.5t-99 -281.5t-245 -134.5v-223h-236v395z" />
    <glyph glyph-name="at" unicode="@" horiz-adv-x="2150" 
d="M1268 566q0 120 -69 197t-174 77t-173 -76t-68 -195t70 -199.5t177.5 -80.5t172 78.5t64.5 198.5zM1260 233q-102 -133 -284 -133t-301.5 128t-119.5 332t125 343t306.5 139t273.5 -137v115h221v-705q338 0 338 422q0 104 -43 216t-190 261.5t-486 149.5
q-164 0 -307.5 -63.5t-249 -173t-167 -255t-61.5 -312.5t61.5 -314.5t167 -256t249 -172t297.5 -63.5q301 0 550 162l89 -168q-268 -184 -629 -184q-207 0 -389.5 76.5t-317.5 212t-213 317.5t-78 389t79 388t214 316.5t316.5 214t395.5 78.5t388 -69.5t294 -185
t182.5 -263.5t62.5 -290q0 -288 -156.5 -456.5t-458.5 -168.5h-159v110z" />
    <glyph glyph-name="A" unicode="A" horiz-adv-x="1435" 
d="M932 557l-127 340q-10 27 -25.5 72t-32.5 94t-36 104q-47 -148 -93 -270l-126 -340h440zM588 1452h250l581 -1452h-278l-127 338h-602l-125 -338h-269z" />
    <glyph glyph-name="B" unicode="B" horiz-adv-x="1234" 
d="M598 211q279 0 279 215q0 166 -102.5 195.5t-182.5 29.5h-174v-440h180zM553 858q164 0 198.5 78t34.5 142t-38 101q-38 38 -76.5 51t-104.5 13h-149v-385h135zM1038 1087q0 -201 -182 -303q117 -25 194.5 -120.5t77.5 -231.5q0 -182 -124 -307t-429 -125h-407v1452h414
q245 0 351 -108q105 -108 105 -257z" />
    <glyph glyph-name="C" unicode="C" horiz-adv-x="1320" 
d="M817 -23q-322 0 -525.5 213t-203.5 534t208.5 535t559.5 214q188 0 356 -78v-275q-72 53 -173 87t-205 34q-209 0 -344.5 -144t-135.5 -368t134 -371t358 -147t375 113v-261q-168 -86 -404 -86z" />
    <glyph glyph-name="D" unicode="D" horiz-adv-x="1398" 
d="M524 213q258 0 381 125q137 131 137 384t-133 386t-383 133h-106v-1028h104zM168 1452h383q360 0 559 -198t199 -522t-204 -528t-591 -204h-346v1452z" />
    <glyph glyph-name="E" unicode="E" horiz-adv-x="1114" 
d="M168 1452h793v-231h-539v-361h522v-227h-522v-402h541v-231h-795v1452z" />
    <glyph glyph-name="F" unicode="F" horiz-adv-x="1052" 
d="M168 1452h774v-231h-520v-367h510v-227h-510v-627h-254v1452z" />
    <glyph glyph-name="G" unicode="G" horiz-adv-x="1607" 
d="M881 764h665v-59q0 -316 -194 -526t-529 -210q-164 0 -300 58.5t-285.5 219.5t-149.5 482q0 156 56.5 294t156.5 240.5t238.5 162t316.5 59.5t337 -78t269 -231l-200 -140q-160 217 -426 217q-219 0 -354.5 -150t-135.5 -373q0 -222 135 -376.5t355 -154.5
q176 0 295 96.5t143 245.5h-393v223z" />
    <glyph glyph-name="H" unicode="H" horiz-adv-x="1464" 
d="M168 1452h254v-578h620v578h254v-1452h-254v645h-620v-645h-254v1452z" />
    <glyph glyph-name="I" unicode="I" horiz-adv-x="589" 
d="M168 1452h254v-1452h-254v1452z" />
    <glyph glyph-name="J" unicode="J" horiz-adv-x="888" 
d="M356 209q45 0 71 27q46 48 46 182v1034h252v-1024q0 -131 -25.5 -214t-87.5 -144q-96 -96 -265 -96t-245.5 86.5t-101.5 136.5l186 147q66 -135 170 -135z" />
    <glyph glyph-name="K" unicode="K" horiz-adv-x="1329" 
d="M168 1452h254v-647l508 647h305l-555 -680l584 -772h-322l-520 707v-707h-254v1452z" />
    <glyph glyph-name="L" unicode="L" horiz-adv-x="966" 
d="M168 1452h254v-1221h491v-231h-745v1452z" />
    <glyph glyph-name="M" unicode="M" horiz-adv-x="1855" 
d="M285 1452h264l282 -790q46 -125 99 -320q58 207 92 303l291 807h254l200 -1452h-247l-95 780q-16 116 -26 328q-48 -174 -92 -301l-293 -807h-187l-288 801q-30 83 -93 301q-8 -181 -28 -334l-92 -768h-246z" />
    <glyph glyph-name="N" unicode="N" horiz-adv-x="1595" 
d="M1192 838v614h233v-1452h-229l-633 844q-68 91 -172 246q4 -102 6 -200.5t9 -201.5v-688h-238v1452h233l600 -803q130 -176 201 -291q-10 312 -10 480z" />
    <glyph glyph-name="O" unicode="O" horiz-adv-x="1691" 
d="M848 209q214 0 358 148.5t144 369t-143 369.5t-359 149t-361 -151t-145 -366t146 -367t360 -152zM843 -33q-159 0 -297 58.5t-241.5 161t-163 240.5t-59.5 295t60.5 295t165 241.5t243.5 164t298 60.5t298 -58.5t242.5 -161t163 -240.5t59.5 -297t-61.5 -296t-166 -240.5
t-243.5 -163t-298 -59.5z" />
    <glyph glyph-name="P" unicode="P" horiz-adv-x="1107" 
d="M535 793q137 0 200 63t64 156q0 223 -256 223h-123v-442h115zM168 1452h371q282 0 401 -120t119 -308t-119 -307q-139 -139 -408 -139h-112v-578h-252v1452z" />
    <glyph glyph-name="Q" unicode="Q" horiz-adv-x="1691" 
d="M1208 362q142 154 142 369q0 216 -143 365t-359 149t-361 -151t-145 -367t145 -367t357 -151q96 0 182 33l-201 252l232 59zM82 722q0 157 60.5 295t165 241.5t243.5 164t298 60.5t298 -58.5t242.5 -161t163 -240.5t59.5 -305t-69.5 -308.5t-180.5 -239.5l201 -252
l-232 -57l-149 186q-165 -80 -331 -80q-167 0 -305 58.5t-241.5 161t-163 240.5t-59.5 295z" />
    <glyph glyph-name="R" unicode="R" horiz-adv-x="1185" 
d="M817 1030q0 213 -268 213h-129v-428h112q168 1 226 61q59 60 59 154zM168 1452h407q267 0 390 -123q110 -114 110 -279t-97 -274.5t-265 -134.5l442 -641h-303l-408 631h-24v-631h-252v1452z" />
    <glyph glyph-name="S" unicode="S" horiz-adv-x="1087" 
d="M797 1120q-84 150 -236 150q-78 0 -129 -52.5t-51 -128.5t45 -120.5t112.5 -81.5t259 -124.5t191.5 -348.5q0 -194 -136.5 -319.5t-340.5 -125.5q-154 0 -266.5 67.5t-179.5 178.5l180 158q69 -127 148 -157t128 -30q94 0 150.5 57.5t56.5 137.5t-45 127t-111.5 85
t-145.5 75t-190.5 122.5t-111.5 270.5t127.5 303.5t310.5 118.5q131 0 235.5 -56.5t170.5 -156.5z" />
    <glyph glyph-name="T" unicode="T" horiz-adv-x="962" 
d="M356 1223h-333v229h919v-227h-334v-1225h-252v1223z" />
    <glyph glyph-name="U" unicode="U" horiz-adv-x="1460" 
d="M164 1452h254v-891q0 -196 85 -281t228 -85t227 79q91 91 91 271v907h247v-883q0 -291 -155 -450q-146 -146 -415 -146t-421 152q-141 135 -141 416v911z" />
    <glyph glyph-name="V" unicode="V" horiz-adv-x="1398" 
d="M18 1452h279l307 -856q45 -128 94 -291q25 91 95 285l313 862h272l-557 -1452h-254z" />
    <glyph glyph-name="W" unicode="W" horiz-adv-x="2099" 
d="M41 1452h266l256 -854q35 -123 64 -287q32 175 63 293l232 848h260l233 -856q42 -160 66 -285q41 194 65 283l254 858h258l-463 -1452h-249l-236 854q-25 92 -63 287q-36 -192 -62 -289l-231 -852h-250z" />
    <glyph glyph-name="X" unicode="X" horiz-adv-x="1310" 
d="M522 756l-448 696h297l291 -494l294 494h295l-456 -692l481 -760h-293l-332 555l-327 -555h-291z" />
    <glyph glyph-name="Y" unicode="Y" horiz-adv-x="1236" 
d="M743 0h-254v649l-471 803h291l316 -590l315 590h281l-478 -795v-657z" />
    <glyph glyph-name="Z" unicode="Z" horiz-adv-x="1171" 
d="M96 1229v223h1028l-706 -1223h706v-229h-1118l709 1229h-619z" />
    <glyph glyph-name="bracketleft" unicode="[" horiz-adv-x="706" 
d="M188 1501h445v-178h-230v-1542h232v-182h-447v1902z" />
    <glyph glyph-name="backslash" unicode="\" horiz-adv-x="739" 
d="M33 1452h215l465 -1470h-217z" />
    <glyph glyph-name="bracketright" unicode="]" horiz-adv-x="706" 
d="M70 -219h233v1542h-231v178h444v-1902h-446v182z" />
    <glyph glyph-name="asciicircum" unicode="^" horiz-adv-x="1509" 
d="M670 1452h188l385 -788h-244l-239 503l-252 -503h-242z" />
    <glyph glyph-name="underscore" unicode="_" horiz-adv-x="1036" 
d="M-16 -254h1067v-217h-1067v217z" />
    <glyph glyph-name="grave" unicode="`" horiz-adv-x="962" 
d="M434 1444l277 -307l-133 -95l-326 261z" />
    <glyph glyph-name="a" unicode="a" 
d="M831 441q0 120 -71.5 198t-181.5 78t-182 -76.5t-72 -194t73 -199t184 -81.5q112 0 181 77.5t69 197.5zM821 111q-114 -136 -305 -136t-311.5 131t-120.5 335q0 205 124.5 343t319.5 138q94 0 171 -38t122 -102v115h232v-897h-232v111z" />
    <glyph glyph-name="b" unicode="b" horiz-adv-x="1185" 
d="M789 252.5q71 80.5 71 193.5t-70 192t-183 79q-114 0 -182.5 -76t-68.5 -193t69 -196.5t181 -79.5t183 80.5zM367 774q109 146 299 146t313 -130.5t123 -337.5t-129.5 -341t-313.5 -134t-292 134v-111h-232v1534h232v-760z" />
    <glyph glyph-name="c" unicode="c" horiz-adv-x="903" 
d="M84 444q0 193 134 334.5t355 141.5q140 0 242 -48v-219q-98 60 -217 60t-193.5 -75.5t-74.5 -186.5q0 -112 73 -190.5t198 -78.5q124 0 214 66v-221q-122 -52 -249 -52q-232 0 -357 138t-125 331z" />
    <glyph glyph-name="d" unicode="d" 
d="M829 454q0 119 -71 192t-179 73t-179.5 -79t-71.5 -194t72 -192.5t179 -77.5q108 0 179 79.5t71 198.5zM821 121q-118 -141 -309 -141t-309.5 133.5t-118.5 330.5t125.5 334t315.5 137t296 -122v739h232v-1532h-232v121z" />
    <glyph glyph-name="e" unicode="e" horiz-adv-x="1064" 
d="M745 543q0 84 -58 145.5t-152 61.5t-151.5 -61.5t-66.5 -145.5h428zM541 -27q-193 0 -325 126t-132 340q0 215 129.5 350t325.5 135t320 -124t124 -337l-2 -76h-666q4 -97 73 -164t175 -67q149 0 248 127l154 -109q-157 -201 -424 -201z" />
    <glyph glyph-name="f" unicode="f" horiz-adv-x="645" 
d="M516 1346q-53 0 -79 -22t-35 -60.5t-9 -118.5v-248h217v-182h-217v-715h-233v715h-127v182h127v277q0 190 68.5 283t244.5 93q80 0 148 -14v-199q-52 9 -105 9z" />
    <glyph glyph-name="g" unicode="g" horiz-adv-x="1173" 
d="M571 190q111 0 177.5 78t66.5 191q0 171 -94.5 215.5t-150.5 44.5q-108 0 -178 -76t-70 -189q0 -112 69 -188t180 -76zM807 897h231v-834q0 -137 -25 -226t-91 -153q-123 -121 -346 -122q-222 0 -331.5 97t-115.5 251h227q4 -72 62 -121t166 -49t165.5 61.5t57.5 202.5
v131q-105 -131 -298 -131q-192 0 -308.5 129t-116.5 321t125 329t314 137q190 0 284 -136v113z" />
    <glyph glyph-name="h" unicode="h" horiz-adv-x="1099" 
d="M737 526q0 191 -166 191q-84 -1 -144 -61t-60 -177v-479h-232v1534h232v-752q41 53 113.5 95.5t157.5 42.5q331 0 331 -345v-575h-232v526z" />
    <glyph glyph-name="i" unicode="i" horiz-adv-x="507" 
d="M137 897h234v-897h-234v897zM254 1100q-61 0 -106.5 44t-45.5 106t45.5 106.5t106.5 44.5t105 -44.5t44 -106.5t-44 -106t-105 -44z" />
    <glyph glyph-name="j" unicode="j" horiz-adv-x="507" 
d="M137 897h234v-1309h-234v1309zM254 1100q-61 0 -106.5 44t-45.5 106t45.5 106.5t106.5 44.5t105 -44.5t44 -106.5t-44 -106t-105 -44z" />
    <glyph glyph-name="k" unicode="k" horiz-adv-x="995" 
d="M135 1534h232v-1010l307 373h293l-367 -412l391 -485h-307l-317 428v-428h-232v1534z" />
    <glyph glyph-name="l" unicode="l" horiz-adv-x="501" 
d="M135 1534h232v-1534h-232v1534z" />
    <glyph glyph-name="m" unicode="m" horiz-adv-x="1644" 
d="M1516 565v-565h-234v516q0 88 -31.5 144.5t-113.5 56.5t-138.5 -56.5t-56.5 -166.5v-494h-233v516q0 88 -33 144.5t-114 56.5t-138 -58.5t-57 -166.5v-492h-232v897h227v-127q96 148 277 148q180 0 266 -156q118 153 301 153q218 0 264 -128t46 -222z" />
    <glyph glyph-name="n" unicode="n" horiz-adv-x="1101" 
d="M739 516q0 201 -164 201q-78 0 -143 -58.5t-65 -166.5v-492h-232v897h230v-119q37 49 105.5 93t166.5 44q161 0 252 -86q84 -84 84 -264v-565h-234v516z" />
    <glyph glyph-name="o" unicode="o" horiz-adv-x="1148" 
d="M827 449q0 113 -73.5 189.5t-181.5 76.5t-180.5 -77t-72.5 -190t75.5 -190.5t181.5 -77.5q107 0 179 78t72 191zM221 108q-137 135 -137 335q0 201 141 340t350 139t349.5 -134t140.5 -334t-140.5 -340.5t-353.5 -140.5t-350 135z" />
    <glyph glyph-name="p" unicode="p" 
d="M858 442.5q0 111.5 -67.5 193t-181 81.5t-182.5 -79.5t-69 -199.5q0 -119 69.5 -194.5t182.5 -75.5t180.5 81.5t67.5 193zM367 -412h-232v1309h232v-121q104 144 299 144t316.5 -133.5t121.5 -330.5t-123 -338t-317 -141t-297 129v-518z" />
    <glyph glyph-name="q" unicode="q" 
d="M757.5 242.5q73.5 72.5 73.5 194.5t-70 201t-182 79q-111 0 -180 -78.5t-69 -192.5t69 -195t177 -81t181.5 72.5zM821 111q-103 -134 -299 -134q-195 0 -316.5 134t-121.5 333q0 198 127 334.5t318 136.5t292 -137v119h234v-1309h-234v523z" />
    <glyph glyph-name="r" unicode="r" horiz-adv-x="710" 
d="M623 918q44 0 65 -7l-8 -239q-53 30 -132 30t-129 -67.5t-50 -202.5v-432h-234v897h230v-141q88 162 258 162z" />
    <glyph glyph-name="s" unicode="s" horiz-adv-x="835" 
d="M522 240q0 41 -30.5 63.5t-77.5 40.5t-178.5 66t-131.5 231q0 115 88.5 198t218.5 83t206.5 -43t121.5 -136l-186 -84q-44 86 -133 86q-39 0 -67.5 -22.5t-28.5 -62.5t31.5 -64.5t78.5 -42.5t180.5 -66t133.5 -227q0 -124 -94.5 -203.5t-235.5 -79.5t-219 44.5
t-125 136.5l188 98q52 -98 150 -98q47 0 78.5 20.5t31.5 61.5z" />
    <glyph glyph-name="t" unicode="t" horiz-adv-x="577" 
d="M162 715h-131v182h131v326h233v-326h174v-182h-174v-715h-233v715z" />
    <glyph glyph-name="u" unicode="u" horiz-adv-x="1105" 
d="M129 897h233v-469q0 -121 29 -167t67 -66.5t123 -20.5t123.5 68t38.5 180v475h234v-469q0 -111 -21.5 -197t-81.5 -146q-113 -112 -321 -112q-424 0 -424 441v483z" />
    <glyph glyph-name="v" unicode="v" horiz-adv-x="1040" 
d="M6 897h264l179 -440q50 -132 77 -228q24 84 80 228l174 440h254l-393 -897h-240z" />
    <glyph glyph-name="w" unicode="w" horiz-adv-x="1593" 
d="M16 897h250l170 -457q29 -74 53 -178q30 129 46 172l151 463h229l146 -444q37 -112 53 -189q22 86 60 185l161 448h242l-367 -897h-217l-153 465q-34 112 -45 164q-23 -105 -43 -166l-150 -463h-225z" />
    <glyph glyph-name="x" unicode="x" horiz-adv-x="1017" 
d="M512 324q-71 -116 -227 -324h-281l365 459l-338 438h282q118 -162 199 -291q116 177 201 291h278l-336 -434l359 -463h-283q-53 78 -112.5 163t-106.5 161z" />
    <glyph glyph-name="y" unicode="y" horiz-adv-x="1044" 
d="M414 43l-410 854h270l162 -362q43 -96 67.5 -154.5t37.5 -87.5q23 53 46 111.5t46 111.5l162 381h245l-594 -1309h-245z" />
    <glyph glyph-name="z" unicode="z" horiz-adv-x="948" 
d="M90 711v186h817l-479 -711h453v-186h-846l475 711h-420z" />
    <glyph glyph-name="braceleft" unicode="{" horiz-adv-x="776" 
d="M262 201q0 150 -34.5 218t-145.5 68v172q107 0 143.5 59.5t36.5 207.5v196q0 199 88 289t281 90h74v-162q-117 0 -169.5 -50t-52.5 -165v-166q0 -194 -38 -272t-154 -115q116 -35 155 -116.5t39 -261.5v-185q0 -134 44 -182.5t176 -48.5v-178h-97q-191 0 -268.5 88.5
t-77.5 314.5v199z" />
    <glyph glyph-name="bar" unicode="|" horiz-adv-x="481" 
d="M133 1587h215v-2052h-215v2052z" />
    <glyph glyph-name="braceright" unicode="}" horiz-adv-x="776" 
d="M66 -242q121 0 171 53.5t50 172.5v145q0 212 28.5 273t66.5 88.5t97 46.5q-163 50 -178.5 163t-15.5 195v205q0 128 -46.5 174.5t-172.5 46.5v178h84q195 0 277.5 -88t82.5 -281v-231q0 -141 34 -207.5t144 -66.5v-174q-105 0 -141.5 -59t-36.5 -218v-164
q0 -229 -84 -321t-272 -92h-88v161z" />
    <glyph glyph-name="asciitilde" unicode="~" horiz-adv-x="1509" 
d="M541 569q-109 0 -213 -127l-101 183q75 108 165 138t148 30t114.5 -22.5t111.5 -49.5t107.5 -49.5t103.5 -22.5q120 0 211 117l94 -184q-140 -156 -311 -156q-59 0 -115.5 22.5t-110 49t-104.5 49t-100 22.5z" />
    <glyph glyph-name="nonbreakingspace" unicode="&#xa0;" horiz-adv-x="555" 
 />
    <glyph glyph-name="exclamdown" unicode="&#xa1;" horiz-adv-x="595" 
d="M211 1026h242v-1026h-242v1026zM172 1313q0 65 47 112.5t113 47.5t113 -47.5t47 -113t-47 -112.5t-113 -47t-113 47.5t-47 112.5z" />
    <glyph glyph-name="cent" unicode="&#xa2;" 
d="M453 722.5q0 -104.5 58 -182t157 -100.5v557q-98 -23 -156.5 -96.5t-58.5 -178zM795 0h-127v225q-209 12 -337 150.5t-128 337.5q0 198 123.5 340t341.5 164v235h127v-238q99 -12 184 -47v-219q-95 46 -184 58v-574q96 14 188 68v-217q-86 -41 -188 -54v-229z" />
    <glyph glyph-name="sterling" unicode="&#xa3;" 
d="M82 172q231 129 231 298q0 87 -43 185h-180v160h113q-62 145 -62 240q0 182 123.5 304t324.5 122t314 -81t166 -229l-221 -92q-61 205 -250 205q-90 0 -145.5 -55t-55.5 -137t20.5 -140.5t55.5 -136.5h322v-160h-263q27 -76 27 -147q0 -144 -100 -236q68 -3 132 -29
t103 -37t92 -11q114 0 211 77l109 -192q-156 -107 -328 -107q-87 0 -173.5 31t-131.5 45t-96 14q-119 0 -207 -75z" />
    <glyph glyph-name="currency" unicode="&#xa4;" horiz-adv-x="1392" 
d="M908.5 929.5q-92.5 94.5 -224.5 94.5t-223.5 -93.5t-91.5 -230t92.5 -231t223.5 -94.5q130 0 223 93t93 230t-92.5 231.5zM150 699q0 169 88 288l-187 187l158 159l186 -188q121 86 288 86q166 0 292 -86l188 188l160 -159l-188 -185q84 -127 84 -292t-89 -289l193 -193
l-160 -156l-190 191q-124 -86 -287.5 -86t-292.5 84l-186 -187l-158 158l187 187q-86 124 -86 293z" />
    <glyph glyph-name="yen" unicode="&#xa5;" 
d="M127 332h342v160h-342v170h336l-465 790h291l311 -584l311 584h281l-475 -790h325v-170h-327v-160h327v-172h-327v-160h-246v160h-342v172z" />
    <glyph glyph-name="brokenbar" unicode="&#xa6;" horiz-adv-x="491" 
d="M137 391h217v-784h-217v784zM137 1417h217v-784h-217v784z" />
    <glyph glyph-name="section" unicode="&#xa7;" horiz-adv-x="1099" 
d="M688.5 473.5q59.5 59.5 59.5 142.5t-60.5 142t-143.5 59t-142.5 -59.5t-59.5 -141.5t58.5 -142t143.5 -60t144.5 59.5zM948 8q0 -161 -112 -259.5t-312 -98.5q-199 0 -302 106t-103 264h243q0 -80 47.5 -126t133.5 -46t127 46.5t41 105.5t-48.5 99t-134.5 75l-102 41
q-144 59 -227.5 150.5t-83.5 262.5t87 241.5t140 86.5q-176 94 -176 271q0 143 103.5 242.5t292.5 99.5q188 0 294.5 -92.5t104.5 -290.5h-232q4 92 -39.5 142t-119.5 50t-126.5 -37t-50.5 -105t47 -109.5t160 -90.5l111 -49q266 -121 266 -363t-221 -345q96 -39 144 -114
t48 -157z" />
    <glyph glyph-name="dieresis" unicode="&#xa8;" horiz-adv-x="962" 
d="M274.5 1108q-59.5 0 -100.5 42t-41 101.5t41 100.5t100.5 41t101.5 -41t42 -100.5t-42 -101.5t-101.5 -42zM686 1108q-59 0 -101 42t-42 101.5t42 100.5t101 41t100 -41t41 -100.5t-41 -101.5t-100 -42z" />
    <glyph glyph-name="copyright" unicode="&#xa9;" horiz-adv-x="1724" 
d="M1272 408q-161 -179 -386 -179t-368 137t-143 356t140.5 363t361.5 144q123 0 217 -41t178 -133l-148 -146q-100 119 -250 119q-117 0 -201.5 -78t-84.5 -215q0 -136 82.5 -220.5t216.5 -84.5q135 0 237 115zM862 72q135 0 254 51t208 140t140.5 208t51.5 254t-51.5 255
t-140.5 209t-208 140t-254 51t-255 -51t-208 -140t-139 -209t-51 -255t51 -254t139 -208t208 -140t255 -51zM862.5 -39q-157.5 0 -297 60.5t-243 164t-164 242.5t-60.5 298t60.5 298t164 242.5t243 164t297 60.5t296.5 -60.5t242.5 -164t164 -242.5t60.5 -298t-60.5 -298
t-164 -242.5t-242.5 -164t-296.5 -60.5z" />
    <glyph glyph-name="ordfeminine" unicode="&#xaa;" horiz-adv-x="1165" 
d="M554 881q87 0 134 60t47 151t-55 145.5t-136 54.5t-133.5 -59t-52.5 -147t54.5 -146.5t141.5 -58.5zM184 606h781v-196h-781v196zM733 803q-74 -96 -236 -96t-259 110.5t-97 277.5t100.5 273.5t257.5 106.5t234 -107v92h211v-733h-211v76z" />
    <glyph glyph-name="guillemotleft" unicode="&#xab;" horiz-adv-x="901" 
d="M49 463l299 436l137 -98l-231 -334l233 -317l-147 -95zM416 467l291 422l143 -92l-232 -326l234 -311l-147 -94z" />
    <glyph glyph-name="logicalnot" unicode="&#xac;" horiz-adv-x="1382" 
d="M53 702h1254v-628h-217v413h-1037v215z" />
    <glyph glyph-name="uni00AD" unicode="&#xad;" horiz-adv-x="739" 
d="M88 639h563v-197h-563v197z" />
    <glyph glyph-name="registered" unicode="&#xae;" horiz-adv-x="1724" 
d="M805 993q63 0 105 21.5t42 91.5q0 104 -133 104h-59v-217h45zM596 1333h244q145 0 216.5 -63.5t71.5 -155.5q0 -172 -188 -219l217 -346h-194l-193 330h-10v-330h-164v784zM843.5 395q110.5 0 209 42t172 115t115.5 171t42 208.5t-42 209t-115.5 171t-172 114.5t-209 42
t-207.5 -42t-171 -114.5t-116 -171t-42 -209t42 -208.5t116 -171t171 -115t207.5 -42zM844 268q-137 0 -258 52.5t-211 142.5t-142.5 211t-52.5 258t52.5 258t142.5 211t211 142t258 52t258 -52t211 -142t142 -211t52 -258t-52 -258t-142 -211t-211 -142.5t-258 -52.5z" />
    <glyph glyph-name="macron" unicode="&#xaf;" horiz-adv-x="962" 
d="M188 1331h584v-192h-584v192z" />
    <glyph glyph-name="degree" unicode="&#xb0;" horiz-adv-x="755" 
d="M378 1053q60 0 102 43t42 103t-43 103.5t-103 43.5t-102.5 -42t-42.5 -102t43.5 -104.5t103.5 -44.5zM377 856q-72 0 -136.5 26.5t-111.5 72.5t-74.5 108.5t-27.5 134.5t27.5 135.5t75.5 110.5t112.5 73.5t136.5 26.5t135.5 -26.5t110.5 -72.5t74.5 -109.5t27.5 -135.5
t-27.5 -134t-76 -109.5t-111.5 -74t-135 -26.5z" />
    <glyph glyph-name="plusminus" unicode="&#xb1;" horiz-adv-x="1382" 
d="M104 215h1174v-215h-1174v215zM104 969h478v426h219v-426h477v-213h-477v-430h-219v430h-478v213z" />
    <glyph glyph-name="twosuperior" unicode="&#xb2;" horiz-adv-x="753" 
d="M481 1198q0 41 -29.5 75t-95.5 34t-91 -49.5t-21 -116.5h-178q-4 150 76.5 236.5t225.5 86.5t221.5 -78.5t76.5 -191.5q0 -149 -110 -243.5t-173 -141.5h297v-166h-600v92l219 203q103 95 132.5 132.5t39.5 62t10 65.5z" />
    <glyph glyph-name="threesuperior" unicode="&#xb3;" horiz-adv-x="724" 
d="M358 772q55 0 85 32t30 78t-31.5 78.5t-111.5 32.5h-43v131h37q70 0 99.5 30t29.5 72t-27 67.5t-73 25.5t-72.5 -28.5t-22.5 -84.5h-172q2 117 72.5 188.5t201.5 71.5t202 -69t71 -173t-96 -155q53 -18 87.5 -71.5t34.5 -106.5q0 -112 -79.5 -188t-215.5 -76
q-137 0 -215.5 73.5t-82.5 198.5h176q4 -127 116 -127z" />
    <glyph glyph-name="acute" unicode="&#xb4;" horiz-adv-x="962" 
d="M526 1444l185 -139l-326 -263l-133 97z" />
    <glyph glyph-name="mu" unicode="&#xb5;" horiz-adv-x="1122" 
d="M135 897h232v-459q0 -111 47 -183.5t145 -72.5t147.5 77.5t49.5 184.5v453h231v-897h-223v109q-23 -49 -73 -92.5t-131 -43.5t-127 39t-66 78v-502h-232v1309z" />
    <glyph glyph-name="paragraph" unicode="&#xb6;" horiz-adv-x="1359" 
d="M170 1037q0 81 33 158t123 167t268 90h602v-164h-125v-1632h-188v1632h-176v-1632h-189v965q-155 28 -251.5 143.5t-96.5 272.5z" />
    <glyph glyph-name="periodcentered" unicode="&#xb7;" horiz-adv-x="483" 
d="M239.5 432q-67.5 0 -115.5 48t-48 117t48 116t115.5 47t115.5 -47t48 -116t-48 -117t-115.5 -48z" />
    <glyph glyph-name="cedilla" unicode="&#xb8;" horiz-adv-x="962" 
d="M496 -72l180 -106l-250 -277l-137 109z" />
    <glyph glyph-name="onesuperior" unicode="&#xb9;" horiz-adv-x="481" 
d="M193 1286h-156v166h342v-809h-186v643z" />
    <glyph glyph-name="ordmasculine" unicode="&#xba;" horiz-adv-x="1175" 
d="M764 1090q0 82 -55.5 143t-140.5 61t-137 -60t-52 -144t57 -143.5t139 -59.5t135.5 60.5t53.5 142.5zM184 606h781v-196h-781v196zM282 812.5q-114 110.5 -114 276.5t117.5 278t286 112t287 -109.5t118.5 -275.5q0 -165 -117 -278.5t-291 -113.5q-173 0 -287 110.5z" />
    <glyph glyph-name="guillemotright" unicode="&#xbb;" horiz-adv-x="901" 
d="M281 489l-234 310l146 92l288 -402l-288 -423l-148 96zM643 489l-233 320l145 92l293 -412l-295 -432l-141 99z" />
    <glyph glyph-name="onequarter" unicode="&#xbc;" horiz-adv-x="1624" 
d="M1206 297v311l-180 -311h180zM272 1286h-159v166h342v-809h-183v643zM1079 1503l129 -65l-817 -1497l-127 69zM1382 809v-510h119v-156h-119v-143h-176v143h-360v146l311 520h225z" />
    <glyph glyph-name="onehalf" unicode="&#xbd;" horiz-adv-x="1691" 
d="M272 1286h-159v166h342v-809h-183v643zM1079 1503l129 -65l-817 -1497l-127 69zM1348 554q0 40 -31 74t-95 34t-90 -49.5t-22 -116.5h-178q-4 152 77 237.5t225 85.5t221 -79.5t77 -188.5q0 -148 -109.5 -243t-173.5 -142h297v-166h-600v90l219 205q109 100 135.5 134
t37 59.5t10.5 65.5z" />
    <glyph glyph-name="threequarters" unicode="&#xbe;" horiz-adv-x="1822" 
d="M1411 297v311l-180 -311h180zM291 897q0 -125 117 -125q55 0 83.5 31t28.5 77t-30.5 79.5t-110.5 33.5h-45v129h39q70 0 98.5 30t28.5 72t-27 67.5t-70 25.5q-102 0 -98 -113h-170q2 117 73 189.5t201 72.5t201.5 -68t71.5 -172t-98 -159q55 -18 89 -70.5t34 -106.5
q0 -113 -81.5 -189t-215.5 -76q-133 0 -212 74.5t-83 197.5h176zM1280 1503l127 -65l-815 -1497l-127 69zM1585 809v-510h119v-156h-119v-143h-176v143h-358v146l311 520h223z" />
    <glyph glyph-name="questiondown" unicode="&#xbf;" horiz-adv-x="1101" 
d="M113 394q0 172 97 281.5t245 133.5v223h235v-395h-102q-107 0 -170.5 -63.5t-63.5 -154.5t61.5 -158.5t157.5 -67.5q95 0 158.5 67.5t59.5 167.5h215q4 -191 -120 -321t-324 -130q-199 0 -324 122.5t-125 294.5zM569.5 1161q-65.5 0 -111.5 46t-46 111.5t46 112
t111.5 46.5t111.5 -46.5t46 -112t-46 -111.5t-111.5 -46z" />
    <glyph glyph-name="Agrave" unicode="&#xc0;" horiz-adv-x="1435" 
d="M932 557l-127 340q-9 27 -25 72t-33 94t-36 104q-47 -148 -93 -270l-126 -340h440zM588 1452h250l581 -1452h-278l-127 338h-602l-125 -338h-269zM616 1886l295 -246l-114 -114l-361 209z" />
    <glyph glyph-name="Aacute" unicode="&#xc1;" horiz-adv-x="1435" 
d="M932 557l-127 340q-9 27 -25 72t-33 94t-36 104q-47 -148 -93 -270l-126 -340h440zM588 1452h250l581 -1452h-278l-127 338h-602l-125 -338h-269zM539 1638l290 246l181 -151l-359 -211z" />
    <glyph glyph-name="Acircumflex" unicode="&#xc2;" horiz-adv-x="1435" 
d="M932 557l-127 340q-9 27 -25 72t-33 94t-36 104q-47 -148 -93 -270l-126 -340h440zM588 1452h250l581 -1452h-278l-127 338h-602l-125 -338h-269zM367 1667l352 186l352 -182l-88 -143l-264 125l-266 -125z" />
    <glyph glyph-name="Atilde" unicode="&#xc3;" horiz-adv-x="1435" 
d="M932 557l-127 340q-9 27 -25 72t-33 94t-36 104q-47 -148 -93 -270l-126 -340h440zM588 1452h250l581 -1452h-278l-127 338h-602l-125 -338h-269zM311 1567q-1 117 63 193t175 77q75 0 168 -53q37 -20 71 -36t71 -17q38 -1 61 25t22 71h172q0 -123 -68 -198t-178 -75
q-73 0 -242 92q-34 17 -68 17t-56 -28t-23 -68h-168z" />
    <glyph glyph-name="Adieresis" unicode="&#xc4;" horiz-adv-x="1435" 
d="M932 557l-127 340q-9 27 -25 72t-33 94t-36 104q-47 -148 -93 -270l-126 -340h440zM588 1452h250l581 -1452h-278l-127 338h-602l-125 -338h-269zM508 1550q-59 0 -100 42t-41 102t41 100q41 41 100 41t101 -41t42 -100q0 -60 -42 -102t-101 -42zM920 1550q-59 0 -102 42
q-42 42 -42 102t42 100q42 41 102 41t100 -41q41 -41 41 -100q0 -60 -41 -102t-100 -42z" />
    <glyph glyph-name="Aring" unicode="&#xc5;" horiz-adv-x="1435" 
d="M932 557l-127 340q-10 27 -25.5 72t-32.5 94t-36 104q-47 -148 -93 -270l-126 -340h440zM713 1481q41 0 68.5 28.5t27.5 69.5t-27.5 68.5t-68.5 27.5t-69 -27.5t-28 -68.5t28 -69.5t69 -28.5zM487 1579q0 143 89.5 181t159 38t136 -62.5t66.5 -161.5q0 -100 -84 -167
l565 -1407h-278l-127 338h-602l-125 -338h-269l553 1409q-84 62 -84 170z" />
    <glyph glyph-name="AE" unicode="&#xc6;" horiz-adv-x="1896" 
d="M934 551l-107 346q-16 51 -29 96t-26.5 90t-21.5 76q-68 -178 -103 -262l-141 -346h428zM639 1452h788l76 -231h-518l113 -361h499l72 -227h-498l127 -402h523l75 -231h-796l-101 332h-583l-135 -332h-271z" />
    <glyph glyph-name="Ccedilla" unicode="&#xc7;" horiz-adv-x="1320" 
d="M817 -23q-323 0 -526 213t-203 535t208 534t533 214q215 0 383 -78v-275q-72 53 -173 87t-205 34q-209 0 -345 -145q-135 -145 -135 -368t133 -370t356 -147q224 0 378 113v-261q-168 -86 -404 -86zM692 -72l180 -106l-249 -277l-138 109z" />
    <glyph glyph-name="Egrave" unicode="&#xc8;" horiz-adv-x="1114" 
d="M168 1452h793v-231h-539v-361h522v-227h-522v-402h541v-231h-795v1452zM449 1886l294 -246l-114 -114l-361 209z" />
    <glyph glyph-name="Eacute" unicode="&#xc9;" horiz-adv-x="1114" 
d="M168 1452h793v-231h-539v-361h522v-227h-522v-402h541v-231h-795v1452zM438 1638l291 246l180 -151l-358 -211z" />
    <glyph glyph-name="Ecircumflex" unicode="&#xca;" horiz-adv-x="1114" 
d="M168 1452h793v-231h-539v-361h522v-227h-522v-402h541v-231h-795v1452zM231 1667l353 186l352 -182l-88 -143l-264 125l-267 -125z" />
    <glyph glyph-name="Edieresis" unicode="&#xcb;" horiz-adv-x="1114" 
d="M168 1452h793v-231h-539v-361h522v-227h-522v-402h541v-231h-795v1452zM377 1550q-59 0 -101 42q-40 42 -40 102t40 100q40 41 100 41t102 -41t42 -100q0 -60 -42 -102t-101 -42zM788 1550q-59 0 -101 42t-42 102t42 100q42 41 101 41q58 0 100 -41t42 -100t-41 -102
q-42 -42 -101 -42z" />
    <glyph glyph-name="Igrave" unicode="&#xcc;" horiz-adv-x="589" 
d="M168 1452h254v-1452h-254v1452zM168 1886l295 -246l-115 -114l-360 209z" />
    <glyph glyph-name="Iacute" unicode="&#xcd;" horiz-adv-x="589" 
d="M168 1452h254v-1452h-254v1452zM135 1638l291 246l180 -151l-358 -211z" />
    <glyph glyph-name="Icircumflex" unicode="&#xce;" horiz-adv-x="589" 
d="M168 1452h254v-1452h-254v1452zM-47 1667l352 186l352 -182l-88 -143l-264 125l-266 -125z" />
    <glyph glyph-name="Idieresis" unicode="&#xcf;" horiz-adv-x="589" 
d="M168 1452h254v-1452h-254v1452zM94 1550q-59 0 -100 42t-41 102t41 100q41 41 100 41q60 0 102 -41t42 -100t-42 -102q-43 -42 -102 -42zM506 1550q-59 0 -102 42q-42 42 -42 102t42 100q42 41 102 41t100 -41q41 -41 41 -100q0 -60 -41 -102t-100 -42z" />
    <glyph glyph-name="Eth" unicode="&#xd0;" horiz-adv-x="1419" 
d="M547 213q256 0 386 130t130 380t-133 384t-383 134h-107v-397h150v-205h-150v-426h107zM190 639h-131v205h131v608h381q362 0 560 -198t198 -522t-205 -528t-589 -204h-345v639z" />
    <glyph glyph-name="Ntilde" unicode="&#xd1;" horiz-adv-x="1595" 
d="M1192 838v614h233v-1452h-229l-633 844q-68 91 -172 246q4 -102 6 -200t9 -202v-688h-238v1452h233l600 -803q130 -176 201 -291q-10 312 -10 480zM408 1567q0 117 63 193t174 77q75 0 168 -53q37 -20 71 -36t72 -17t60 25q23 26 22 71h172q0 -123 -68 -198t-177 -75
q-69 0 -171 55q-38 19 -72 37t-68 17q-34 0 -56 -28t-23 -68h-167z" />
    <glyph glyph-name="Ograve" unicode="&#xd2;" horiz-adv-x="1691" 
d="M487 361q146 -152 360 -152t359 149q144 149 144 368q0 220 -143 370q-143 149 -359 149t-361 -151t-145 -365t145 -368zM843 -33q-159 1 -297 59q-284 120 -405 401q-59 138 -59 295t60 295q122 280 409 405q139 60 298 60t298 -58q286 -120 405 -401q60 -138 60 -297
t-62 -296q-126 -282 -409 -404q-139 -60 -298 -59zM756 1886l295 -246l-115 -114l-361 209z" />
    <glyph glyph-name="Oacute" unicode="&#xd3;" horiz-adv-x="1691" 
d="M487 361q146 -152 360 -152t359 149q144 149 144 368q0 220 -143 370q-143 149 -359 149t-361 -151t-145 -365t145 -368zM843 -33q-159 1 -297 59q-284 120 -405 401q-59 138 -59 295t60 295q122 280 409 405q139 60 298 60t298 -58q286 -120 405 -401q60 -138 60 -297
t-62 -296q-126 -282 -409 -404q-139 -60 -298 -59zM639 1638l291 246l180 -151l-358 -211z" />
    <glyph glyph-name="Ocircumflex" unicode="&#xd4;" horiz-adv-x="1691" 
d="M487 361q146 -152 360 -152t359 149q144 149 144 368q0 220 -143 370q-143 149 -359 149t-361 -151t-145 -365t145 -368zM843 -33q-159 1 -297 59q-284 120 -405 401q-59 138 -59 295t60 295q122 280 409 405q139 60 298 60t298 -58q286 -120 405 -401q60 -138 60 -297
t-62 -296q-126 -282 -409 -404q-139 -60 -298 -59zM502 1667l352 186l352 -182l-88 -143l-264 125l-266 -125z" />
    <glyph glyph-name="Otilde" unicode="&#xd5;" horiz-adv-x="1691" 
d="M487 361q146 -152 360 -152t359 149q144 149 144 368q0 220 -143 370q-143 149 -359 149t-361 -151t-145 -365t145 -368zM843 -33q-159 1 -297 59q-284 120 -405 401q-59 138 -59 295t60 295q122 280 409 405q139 60 298 60t298 -58q286 -120 405 -401q60 -138 60 -297
t-62 -296q-126 -282 -409 -404q-139 -60 -298 -59zM438 1567q0 117 64 193t174 77q75 0 168 -53q36 -20 70 -36t72 -17t61 25t22 71h172q1 -123 -67 -198t-179 -75q-73 0 -242 92q-34 17 -68 17q-35 0 -57 -28t-22 -68h-168z" />
    <glyph glyph-name="Odieresis" unicode="&#xd6;" horiz-adv-x="1691" 
d="M487 361q146 -152 360 -152t359 149q144 149 144 368q0 220 -143 370q-143 149 -359 149t-361 -151t-145 -365t145 -368zM843 -33q-159 1 -297 59q-284 120 -405 401q-59 138 -59 295t60 295q122 280 409 405q139 60 298 60t298 -58q286 -120 405 -401q60 -138 60 -297
t-62 -296q-126 -282 -409 -404q-139 -60 -298 -59zM641 1550q-59 0 -100 42t-41 102t41 100q41 41 100 41t101 -41t42 -100q0 -60 -42 -102t-101 -42zM1053 1550q-59 0 -102 42q-42 42 -42 102t42 100q41 41 101 41t101 -41t41 -100q0 -60 -41 -102t-100 -42z" />
    <glyph glyph-name="multiply" unicode="&#xd7;" horiz-adv-x="1382" 
d="M139 205l393 391l-393 393l150 148l393 -392l393 392l152 -148l-391 -393l391 -391l-152 -154l-393 391l-393 -391z" />
    <glyph glyph-name="Oslash" unicode="&#xd8;" horiz-adv-x="1701" 
d="M1356 707q0 204 -101 340l-729 -728q144 -116 322 -116q220 0 364 150t144 354zM848 1251q-218 0 -363 -154t-145 -370q0 -168 92 -299l723 721q-132 102 -307 102zM84 723q0 156 60.5 294t165 241.5t243.5 164t297 60.5q271 0 477 -164l174 174l103 -100l-172 -172
q182 -207 182 -496q0 -158 -61.5 -295t-166 -240.5t-243.5 -163t-297 -59.5q-276 0 -496 176l-186 -186l-101 100l189 189q-168 206 -168 477z" />
    <glyph glyph-name="Ugrave" unicode="&#xd9;" horiz-adv-x="1460" 
d="M164 1452h254v-891q0 -199 86 -283q86 -85 228 -84q141 1 226 80q91 91 91 271v907h247v-883q0 -291 -155 -450q-146 -146 -416 -146t-420 152q-141 135 -141 416v911zM551 1886l295 -246l-115 -114l-360 209z" />
    <glyph glyph-name="Uacute" unicode="&#xda;" horiz-adv-x="1460" 
d="M164 1452h254v-891q0 -199 86 -283q86 -85 228 -84q141 1 226 80q91 91 91 271v907h247v-883q0 -291 -155 -450q-146 -146 -416 -146t-420 152q-141 135 -141 416v911zM528 1638l291 246l180 -151l-358 -211z" />
    <glyph glyph-name="Ucircumflex" unicode="&#xdb;" horiz-adv-x="1460" 
d="M164 1452h254v-891q0 -199 86 -283q86 -85 228 -84q141 1 226 80q91 91 91 271v907h247v-883q0 -291 -155 -450q-146 -146 -416 -146t-420 152q-141 135 -141 416v911zM387 1667l352 186l353 -182l-88 -143l-265 125l-266 -125z" />
    <glyph glyph-name="Udieresis" unicode="&#xdc;" horiz-adv-x="1460" 
d="M164 1452h254v-891q0 -199 86 -283q86 -85 228 -84q141 1 226 80q91 91 91 271v907h247v-883q0 -291 -155 -450q-146 -146 -416 -146t-420 152q-141 135 -141 416v911zM526 1550q-59 0 -100 42t-41 102t41 100q41 41 100 41q60 0 102 -41t42 -100t-42 -102
q-43 -42 -102 -42zM938 1550q-59 0 -101 42t-42 102t42 100q42 41 101 41t100 -41t41 -100q0 -60 -41 -102t-100 -42z" />
    <glyph glyph-name="Yacute" unicode="&#xdd;" horiz-adv-x="1236" 
d="M743 0h-254v649l-471 803h291l316 -590l315 590h281l-478 -795v-657zM471 1638l291 246l180 -151l-358 -211z" />
    <glyph glyph-name="Thorn" unicode="&#xde;" horiz-adv-x="1114" 
d="M541 510q197 0 229.5 88t32.5 133q0 103 -42 146t-88 59t-124 16h-123v-442h115zM174 1452h252v-283h117q285 0 404 -119q118 -119 118 -308t-119 -308q-141 -141 -407 -141h-113v-293h-252v1452z" />
    <glyph glyph-name="germandbls" unicode="&#xdf;" horiz-adv-x="1126" 
d="M129 1137q0 284 146.5 344.5t243.5 60.5q186 0 285 -95t99 -241q0 -78 -23.5 -128t-51 -91t-50 -80t-22.5 -82t22.5 -70.5t55 -55t72.5 -57.5t95.5 -97.5t55.5 -171.5q0 -183 -103 -284t-247 -101t-236 59l80 186q53 -47 117 -47t106.5 38t42.5 98t-22.5 94.5t-55 62
t-127 94t-94.5 222.5q0 74 22.5 123t50 90t51.5 83t24 102t-39 106.5t-114 46.5t-113 -53.5t-38 -133.5v-1159h-233v1137z" />
    <glyph glyph-name="agrave" unicode="&#xe0;" 
d="M762 244q69 78 69 197q0 120 -71 198q-72 78 -182 78t-182 -77t-72 -193q0 -117 72 -198q74 -83 185 -83q112 0 181 78zM821 111q-114 -136 -305 -136q-192 0 -312 131t-120 335q0 205 124 343t320 138q94 0 171 -38t122 -102v115h232v-897h-232v111zM461 1444l276 -307
l-133 -95l-325 261z" />
    <glyph glyph-name="aacute" unicode="&#xe1;" 
d="M762 244q69 78 69 197q0 120 -71 198q-72 78 -182 78t-182 -77t-72 -193q0 -117 72 -198q74 -83 185 -83q112 0 181 78zM821 111q-114 -136 -305 -136q-192 0 -312 131t-120 335q0 205 124 343t320 138q94 0 171 -38t122 -102v115h232v-897h-232v111zM741 1444l185 -139
l-326 -263l-133 97z" />
    <glyph glyph-name="acircumflex" unicode="&#xe2;" 
d="M762 244q69 78 69 197q0 120 -71 198q-72 78 -182 78t-182 -77t-72 -193q0 -117 72 -198q74 -83 185 -83q112 0 181 78zM821 111q-114 -136 -305 -136q-192 0 -312 131t-120 335q0 205 124 343t320 138q94 0 171 -38t122 -102v115h232v-897h-232v111zM262 1180l346 276
l326 -270l-111 -133l-223 174l-223 -176z" />
    <glyph glyph-name="atilde" unicode="&#xe3;" 
d="M762 244q69 78 69 197q0 120 -71 198q-72 78 -182 78t-182 -77t-72 -193q0 -117 72 -198q74 -83 185 -83q112 0 181 78zM821 111q-114 -136 -305 -136q-192 0 -312 131t-120 335q0 205 124 343t320 138q94 0 171 -38t122 -102v115h232v-897h-232v111zM199 1102
q0 118 63 194t174 76q76 0 169 -53t136 -53t66 26t22 70h172q1 -123 -67 -198t-178 -74q-68 0 -171 54q-38 18 -72 36t-68 18q-35 0 -57 -28t-21 -68h-168z" />
    <glyph glyph-name="adieresis" unicode="&#xe4;" 
d="M762 244q69 78 69 197q0 120 -71 198q-72 78 -182 78t-182 -77t-72 -193q0 -117 72 -198q74 -83 185 -83q112 0 181 78zM821 111q-114 -136 -305 -136q-192 0 -312 131t-120 335q0 205 124 343t320 138q94 0 171 -38t122 -102v115h232v-897h-232v111zM406 1108
q-59 0 -101 42q-41 42 -41 101t41 101t101 41q60 0 101 -41q42 -40 42 -100t-42 -102t-101 -42zM817 1108q-59 0 -101 42t-42 101t42 101t101 41q59 0 101 -41q42 -40 40 -100q0 -60 -41 -102t-100 -42z" />
    <glyph glyph-name="aring" unicode="&#xe5;" 
d="M762 244q69 78 69 197q0 120 -71 198q-72 78 -182 78t-182 -77t-72 -193q0 -117 72 -198q74 -83 185 -83q112 0 181 78zM821 111q-114 -136 -305 -136q-192 0 -312 131t-120 335q0 205 124 343t320 138q94 0 171 -38t122 -102v115h232v-897h-232v111zM610 1161
q41 0 69 28q28 29 28 69t-28 69t-69 29q-40 0 -68 -29t-28 -70t28 -69t68 -27zM607 1038q-93 0 -157 63t-65 159q0 95 66 156t158 62q93 1 159 -62t67 -158q1 -94 -67 -157t-161 -63z" />
    <glyph glyph-name="ae" unicode="&#xe6;" horiz-adv-x="1660" 
d="M465 383q-86 0 -126 -30.5t-40 -80.5t45 -85t135 -35t159 63.5t69 167.5h-242zM1343 545q0 84 -60.5 144.5t-151.5 60.5t-149.5 -60.5t-68.5 -144.5h430zM1561 172q-158 -199 -397 -199t-369 154q-53 -66 -139.5 -110t-188.5 -44q-197 0 -294 82.5t-97 210.5
q0 195 141 236t250 41h240q-8 81 -68.5 141.5t-181.5 60.5t-207 -104l-150 119q159 164 376 164t339 -138q123 138 321.5 138t320.5 -125.5t122 -335.5l-2 -78h-666q6 -98 75 -163.5t175 -65.5q148 0 246 125z" />
    <glyph glyph-name="ccedilla" unicode="&#xe7;" horiz-adv-x="903" 
d="M84 443q0 91 34 179q70 180 250 258q91 40 218 40t229 -48v-219q-95 58 -216 59t-195 -74t-74 -188t73 -190q73 -78 198 -78q124 0 214 66v-221q-118 -50 -246 -51q-129 -1 -217 38q-170 75 -237 254q-31 84 -31 175zM473 -72l180 -106l-250 -277l-137 109z" />
    <glyph glyph-name="egrave" unicode="&#xe8;" horiz-adv-x="1064" 
d="M745 543q0 87 -58 146t-152 60q-93 1 -151 -61t-67 -145h428zM541 -27q-192 0 -324 125q-133 125 -133 341q0 215 130 350t325 135q196 0 320 -124t124 -337l-2 -76h-666q4 -97 73 -164t175 -67q146 0 248 127l154 -109q-155 -199 -424 -201zM420 1444l276 -307l-133 -95
l-325 261z" />
    <glyph glyph-name="eacute" unicode="&#xe9;" horiz-adv-x="1064" 
d="M745 543q0 87 -58 146t-152 60q-93 1 -151 -61t-67 -145h428zM541 -27q-192 0 -324 125q-133 125 -133 341q0 215 130 350t325 135q196 0 320 -124t124 -337l-2 -76h-666q4 -97 73 -164t175 -67q146 0 248 127l154 -109q-155 -199 -424 -201zM655 1444l185 -139
l-326 -263l-133 97z" />
    <glyph glyph-name="ecircumflex" unicode="&#xea;" horiz-adv-x="1064" 
d="M745 543q0 87 -58 146t-152 60q-93 1 -151 -61t-67 -145h428zM541 -27q-192 0 -324 125q-133 125 -133 341q0 215 130 350t325 135q196 0 320 -124t124 -337l-2 -76h-666q4 -97 73 -164t175 -67q146 0 248 127l154 -109q-155 -199 -424 -201zM199 1180l346 276l325 -270
l-110 -133l-223 174l-224 -176z" />
    <glyph glyph-name="edieresis" unicode="&#xeb;" horiz-adv-x="1064" 
d="M745 543q0 87 -58 146t-152 60q-93 1 -151 -61t-67 -145h428zM541 -27q-192 0 -324 125q-133 125 -133 341q0 215 130 350t325 135q196 0 320 -124t124 -337l-2 -76h-666q4 -97 73 -164t175 -67q146 0 248 127l154 -109q-155 -199 -424 -201zM332 1108q-59 0 -101 42
q-41 42 -41 101t41 101t101 41q60 0 101 -41q42 -40 42 -100t-42 -102t-101 -42zM743 1108q-59 0 -101 42t-42 101t42 101t101 41q59 0 101 -41q42 -40 41 -100q1 -60 -41 -102t-101 -42z" />
    <glyph glyph-name="igrave" unicode="&#xec;" horiz-adv-x="507" 
d="M137 897h234v-897h-234v897zM160 1444l276 -307l-133 -95l-326 261z" />
    <glyph glyph-name="iacute" unicode="&#xed;" horiz-adv-x="507" 
d="M137 897h234v-897h-234v897zM369 1444l184 -139l-326 -263l-133 97z" />
    <glyph glyph-name="icircumflex" unicode="&#xee;" horiz-adv-x="507" 
d="M137 897h234v-897h-234v897zM-82 1180l346 276l326 -270l-111 -133l-223 174l-223 -176z" />
    <glyph glyph-name="idieresis" unicode="&#xef;" horiz-adv-x="507" 
d="M137 897h234v-897h-234v897zM55 1108q-59 0 -100 42t-41 101t41 101t100 41q59 0 101 -41q42 -40 43 -100q-1 -60 -43 -102t-101 -42zM467 1108q-59 0 -101 42t-42 101t42 101t101 41q59 0 100 -41q41 -40 41 -100t-41 -102t-100 -42z" />
    <glyph glyph-name="eth" unicode="&#xf0;" horiz-adv-x="1175" 
d="M819 454q0 120 -70.5 192.5t-178.5 72.5t-181.5 -78t-73.5 -191q0 -112 74 -190t182 -78q109 0 178.5 76t69.5 196zM1090 586q0 -275 -148 -442t-374 -167t-361 131t-135 333t128 340.5t322.5 138.5t296.5 -119q-43 222 -196 354l-215 -131l-95 160l140 86
q-101 55 -248 82l31 200q238 -41 428 -157l192 118l96 -161l-131 -78q269 -265 269 -688z" />
    <glyph glyph-name="ntilde" unicode="&#xf1;" horiz-adv-x="1101" 
d="M739 516q0 199 -164 201q-77 0 -143 -58t-65 -167v-492h-232v897h230v-119q37 49 105 93t167 44q161 0 252 -86q82 -82 84 -264v-565h-234v516zM147 1102q-1 118 63 194t175 76q76 0 169 -53t136 -53t66 26t22 70h172q0 -123 -68 -198t-177 -74q-71 0 -171 54
q-38 18 -72 36t-68 18t-56 -28t-23 -68h-168z" />
    <glyph glyph-name="ograve" unicode="&#xf2;" horiz-adv-x="1148" 
d="M576 180q105 0 178 78t73 192q0 113 -73 188t-180 76t-180 -75t-75 -190q0 -57 21 -107q40 -100 136 -142q46 -20 100 -20zM572 -27q-212 0 -350 133t-138 336q0 202 141 341t350 139t350 -133q140 -133 140 -334q-1 -201 -141 -341t-352 -141zM459 1444l276 -307
l-133 -95l-326 261z" />
    <glyph glyph-name="oacute" unicode="&#xf3;" horiz-adv-x="1148" 
d="M576 180q105 0 178 78t73 192q0 113 -73 188t-180 76t-180 -75t-75 -190q0 -57 21 -107q40 -100 136 -142q46 -20 100 -20zM572 -27q-212 0 -350 133t-138 336q0 202 141 341t350 139t350 -133q140 -133 140 -334q-1 -201 -141 -341t-352 -141zM702 1444l185 -139
l-326 -263l-133 97z" />
    <glyph glyph-name="ocircumflex" unicode="&#xf4;" horiz-adv-x="1148" 
d="M576 180q105 0 178 78t73 192q0 113 -73 188t-180 76t-180 -75t-75 -190q0 -57 21 -107q40 -100 136 -142q46 -20 100 -20zM572 -27q-212 0 -350 133t-138 336q0 202 141 341t350 139t350 -133q140 -133 140 -334q-1 -201 -141 -341t-352 -141zM233 1180l347 276
l325 -270l-110 -133l-224 174l-223 -176z" />
    <glyph glyph-name="otilde" unicode="&#xf5;" horiz-adv-x="1148" 
d="M576 180q105 0 178 78t73 192q0 113 -73 188t-180 76t-180 -75t-75 -190q0 -57 21 -107q40 -100 136 -142q46 -20 100 -20zM572 -27q-212 0 -350 133t-138 336q0 202 141 341t350 139t350 -133q140 -133 140 -334q-1 -201 -141 -341t-352 -141zM168 1102q0 118 63 194
t175 76q78 0 166 -53q36 -21 71 -37t73 -16t60 26t23 70h172q0 -123 -68 -198t-178 -74q-68 0 -171 54q-38 18 -72 36t-68 18t-56 -28q-23 -28 -22 -68h-168z" />
    <glyph glyph-name="odieresis" unicode="&#xf6;" horiz-adv-x="1148" 
d="M576 180q105 0 178 78t73 192q0 113 -73 188t-180 76t-180 -75t-75 -190q0 -57 21 -107q40 -100 136 -142q46 -20 100 -20zM572 -27q-212 0 -350 133t-138 336q0 202 141 341t350 139t350 -133q140 -133 140 -334q-1 -201 -141 -341t-352 -141zM365 1108q-59 0 -101 42
q-41 42 -41 101t41 101q40 42 100 41q60 0 102 -41q42 -40 42 -100t-42 -102t-101 -42zM776 1108q-59 0 -101 42t-42 101t42 101t101 41q58 0 100 -41q42 -40 42 -100t-42 -102t-100 -42z" />
    <glyph glyph-name="divide" unicode="&#xf7;" horiz-adv-x="1382" 
d="M691 6q-62 0 -106 44t-44 106t44 107.5t106 45.5t106.5 -45t44.5 -107t-44.5 -106.5t-106.5 -44.5zM96 696h1190v-215h-1190v215zM691 868q-62 0 -106 44t-44 106t44 107.5t106 45.5t106.5 -45t44.5 -107t-44.5 -106.5t-106.5 -44.5z" />
    <glyph glyph-name="oslash" unicode="&#xf8;" horiz-adv-x="1153" 
d="M569 168q121 0 196 81.5t75 196.5q0 76 -35 140l-365 -375q61 -43 129 -43zM586 727q-126 0 -199.5 -82.5t-73.5 -195.5q0 -70 37 -142l367 377q-61 43 -131 43zM190 147q-104 125 -104 312t142.5 325t351.5 138q166 0 290 -86l111 112l90 -96l-104 -107
q100 -126 100 -308q0 -183 -140.5 -323.5t-359.5 -140.5q-162 0 -280 84l-113 -114l-90 96z" />
    <glyph glyph-name="ugrave" unicode="&#xf9;" horiz-adv-x="1105" 
d="M129 897h233v-469q0 -121 29 -167t67 -66q38 -21 99 -21q106 -1 154 79q32 58 32 169v475h234v-469q0 -111 -22 -197t-82 -146q-111 -112 -319 -112q-424 0 -425 441v483zM434 1444l277 -307l-133 -95l-326 261z" />
    <glyph glyph-name="uacute" unicode="&#xfa;" horiz-adv-x="1105" 
d="M129 897h233v-469q0 -121 29 -167t67 -66q38 -21 99 -21q106 -1 154 79q32 58 32 169v475h234v-469q0 -111 -22 -197t-82 -146q-111 -112 -319 -112q-424 0 -425 441v483zM694 1444l185 -139l-326 -263l-133 97z" />
    <glyph glyph-name="ucircumflex" unicode="&#xfb;" horiz-adv-x="1105" 
d="M129 897h233v-469q0 -121 29 -167t67 -66q38 -21 99 -21q106 -1 154 79q32 58 32 169v475h234v-469q0 -111 -22 -197t-82 -146q-111 -112 -319 -112q-424 0 -425 441v483zM213 1180l346 276l326 -270l-111 -133l-223 174l-223 -176z" />
    <glyph glyph-name="udieresis" unicode="&#xfc;" horiz-adv-x="1105" 
d="M129 897h233v-469q0 -121 29 -167t67 -66q38 -21 99 -21q106 -1 154 79q32 58 32 169v475h234v-469q0 -111 -22 -197t-82 -146q-111 -112 -319 -112q-424 0 -425 441v483zM344 1108q-59 0 -100 42t-41 101t41 101t100 41q59 0 101 -41q42 -40 42 -100t-42 -102t-101 -42z
M756 1108q-59 0 -102 42q-42 42 -42 101t42 101t102 41q60 0 100 -41q41 -40 41 -100t-41 -102t-100 -42z" />
    <glyph glyph-name="yacute" unicode="&#xfd;" horiz-adv-x="1044" 
d="M414 43l-410 854h270l162 -362q43 -96 67 -154q25 -59 38 -88q19 43 92 223l162 381h245l-594 -1309h-245zM651 1444l185 -139l-326 -263l-133 97z" />
    <glyph glyph-name="thorn" unicode="&#xfe;" horiz-adv-x="1193" 
d="M360 438q0 -119 69.5 -194.5t181.5 -75.5t182.5 82t70.5 194q0 111 -69 192t-183 81t-183 -80t-69 -199zM371 -412h-234v1946h234v-758q100 144 296 144t318.5 -136.5t122.5 -330.5q0 -195 -124.5 -335.5t-317.5 -140.5t-295 129v-518z" />
    <glyph glyph-name="ydieresis" unicode="&#xff;" horiz-adv-x="1044" 
d="M414 43l-410 854h270l162 -362q43 -96 67 -154q25 -59 38 -88q19 43 92 223l162 381h245l-594 -1309h-245zM326 1108q-59 0 -101 42q-41 42 -41 101t41 101t101 41q60 0 101 -41q42 -40 42 -100t-42 -102t-101 -42zM737 1108q-59 0 -101 42t-42 101t42 101t101 41
q59 0 101 -41q42 -40 41 -100q1 -60 -41 -102t-101 -42z" />
    <glyph glyph-name="Amacron" unicode="&#x100;" horiz-adv-x="1435" 
d="M932 557l-127 340q-9 27 -25 72t-33 94t-36 104q-47 -148 -93 -270l-126 -340h440zM588 1452h250l581 -1452h-278l-127 338h-602l-125 -338h-269zM426 1790h584v-193h-584v193z" />
    <glyph glyph-name="amacron" unicode="&#x101;" 
d="M762 244q69 78 69 197q0 120 -71 198q-72 78 -182 78t-182 -77t-72 -193q0 -117 72 -198q74 -83 185 -83q112 0 181 78zM821 111q-114 -136 -305 -136q-192 0 -312 131t-120 335q0 205 124 343t320 138q94 0 171 -38t122 -102v115h232v-897h-232v111zM319 1331h584v-192
h-584v192z" />
    <glyph glyph-name="Abreve" unicode="&#x102;" horiz-adv-x="1435" 
d="M932 557l-127 340q-9 27 -25 72t-33 94t-36 104q-47 -148 -93 -270l-126 -340h440zM588 1452h250l581 -1452h-278l-127 338h-602l-125 -338h-269zM580 1905q0 -78 30 -116t103 -38q145 0 145 154h189q0 -182 -89 -268q-89 -85 -245 -87q-322 0 -322 355h189z" />
    <glyph glyph-name="abreve" unicode="&#x103;" 
d="M762 244q69 78 69 197q0 120 -71 198q-72 78 -182 78t-182 -77t-72 -193q0 -117 72 -198q74 -83 185 -83q112 0 181 78zM821 111q-114 -136 -305 -136q-192 0 -312 131t-120 335q0 205 124 343t320 138q94 0 171 -38t122 -102v115h232v-897h-232v111zM465 1425
q0 -77 31 -115t102 -38q145 0 145 153h189q0 -180 -89 -266t-245 -88q-322 0 -322 354h189z" />
    <glyph glyph-name="Aogonek" unicode="&#x104;" horiz-adv-x="1435" 
d="M805 897q-10 27 -25.5 72t-32.5 94t-36 104q-47 -148 -93 -270l-126 -340h440zM1030 -99.5q53 67.5 111 99.5l-127 338h-602l-125 -338h-269l570 1452h250l581 -1452h-116q-43 -29 -77 -74t-34 -92q0 -109 127 -108q34 0 76 8l16 -152q-145 -43 -258.5 -13.5t-144.5 88
t-31 117.5t53 126.5z" />
    <glyph glyph-name="aogonek" unicode="&#x105;" 
d="M759.5 639q-71.5 78 -181.5 78t-182 -76.5t-72 -194t73 -199t184 -81.5t180.5 77.5t69.5 197.5t-71.5 198zM709 -101q52 66 112 101v111q-114 -136 -305 -136t-311.5 131t-120.5 335q0 205 124.5 343t319.5 138q94 0 171 -38t122 -102v115h232v-897h-70q-43 -29 -77 -74
t-34 -92q0 -109 127 -108q36 0 76 8l17 -152q-145 -43 -258.5 -14t-145 88t-31.5 118t52 125z" />
    <glyph glyph-name="Cacute" unicode="&#x106;" horiz-adv-x="1320" 
d="M817 -23q-323 0 -526 213t-203 535t208 534t533 214q215 0 383 -78v-275q-72 53 -173 87t-205 34q-209 0 -345 -145q-135 -145 -135 -368t133 -370t356 -147q224 0 378 113v-261q-168 -86 -404 -86zM543 1638l291 246l180 -151l-359 -211z" />
    <glyph glyph-name="cacute" unicode="&#x107;" horiz-adv-x="903" 
d="M84 443q0 91 34 179q70 180 250 258q91 40 218 40t229 -48v-219q-95 58 -216 59t-195 -74t-74 -188t73 -190q73 -78 198 -78q124 0 214 66v-221q-118 -50 -246 -51q-129 -1 -217 38q-170 75 -237 254q-31 84 -31 175zM604 1444l184 -139l-325 -263l-133 97z" />
    <glyph glyph-name="Cdotaccent" unicode="&#x10a;" horiz-adv-x="1320" 
d="M817 -23q-323 0 -526 213t-203 535t208 534t533 214q215 0 383 -78v-275q-72 53 -173 87t-205 34q-209 0 -345 -145q-135 -145 -135 -368t133 -370t356 -147q224 0 378 113v-261q-168 -86 -404 -86zM753 1884q67 0 113 -46t47 -113q-1 -67 -47 -113t-113 -47
q-67 0 -113 47q-46 48 -46 114t46 112t113 46z" />
    <glyph glyph-name="cdotaccent" unicode="&#x10b;" horiz-adv-x="903" 
d="M84 443q0 91 34 179q70 180 250 258q91 40 218 40t229 -48v-219q-95 58 -216 59t-195 -74t-74 -188t73 -190q73 -78 198 -78q124 0 214 66v-221q-118 -50 -246 -51q-129 -1 -217 38q-170 75 -237 254q-31 84 -31 175zM505 1415q67 0 113 -46t48 -113q0 -68 -47 -114
t-114 -46t-113 47t-46 113t46 113q46 46 113 46z" />
    <glyph glyph-name="Ccaron" unicode="&#x10c;" horiz-adv-x="1320" 
d="M817 -23q-323 0 -526 213t-203 535t208 534t533 214q215 0 383 -78v-275q-72 53 -173 87t-205 34q-209 0 -345 -145q-135 -145 -135 -368t133 -370t356 -147q224 0 378 113v-261q-168 -86 -404 -86zM485 1864l271 -125l262 125l88 -142l-352 -184l-355 191z" />
    <glyph glyph-name="ccaron" unicode="&#x10d;" horiz-adv-x="903" 
d="M84 443q0 91 34 179q70 180 250 258q91 40 218 40t229 -48v-219q-95 58 -216 59t-195 -74t-74 -188t73 -190q73 -78 198 -78q124 0 214 66v-221q-118 -50 -246 -51q-129 -1 -217 38q-170 75 -237 254q-31 84 -31 175zM264 1436l223 -170l226 172l112 -131l-344 -269
l-325 265z" />
    <glyph glyph-name="Dcaron" unicode="&#x10e;" horiz-adv-x="1398" 
d="M524 213q256 0 381 125q139 133 138 385t-134 385t-383 133h-106v-1028h104zM168 1452h383q358 0 557 -197t200 -523q1 -324 -203 -528t-591 -204h-346v1452zM430 1864l270 -125l263 125l88 -142l-353 -184l-354 191z" />
    <glyph glyph-name="dcaron" unicode="&#x10f;" 
d="M757 256q72 80 72 198q0 119 -70 191t-178 73t-180 -77q-73 -78 -73 -195t74 -195q71 -75 177 -75t178 80zM821 121q-119 -143 -310 -142t-309 135t-118 331t126 334q126 138 316 137t295 -123v739h232v-1532h-232v121zM1462 1504q0 -76 -62 -159t-171 -155l-72 72
q97 84 97 128q-1 45 -20 72t-28 44q-8 17 -8 54t36 70t95 33t96 -42q37 -41 37 -117z" />
    <glyph glyph-name="Dcroat" unicode="&#x110;" horiz-adv-x="1419" 
d="M547 213q256 0 386 130t130 380t-133 384t-383 134h-107v-397h150v-205h-150v-426h107zM190 639h-131v205h131v608h381q362 0 560 -198t198 -522t-205 -528t-589 -204h-345v639z" />
    <glyph glyph-name="dcroat" unicode="&#x111;" horiz-adv-x="1193" 
d="M758 646q-71 73 -179 73t-179.5 -79t-71.5 -194t72 -192.5t179 -77.5t178.5 79.5t71.5 198.5t-71 192zM821 1028h-157v178h157v326h232v-326h125v-178h-125v-1028h-232v121q-118 -141 -309 -141t-309.5 133.5t-118.5 330.5t125.5 334t315.5 137t296 -122v235z" />
    <glyph glyph-name="Emacron" unicode="&#x112;" horiz-adv-x="1114" 
d="M168 1452h793v-231h-539v-361h522v-227h-522v-402h541v-231h-795v1452zM266 1790h584v-193h-584v193z" />
    <glyph glyph-name="emacron" unicode="&#x113;" horiz-adv-x="1064" 
d="M745 543q0 87 -58 146t-152 60q-93 1 -151 -61t-67 -145h428zM541 -27q-192 0 -324 125q-133 125 -133 341q0 215 130 350t325 135q196 0 320 -124t124 -337l-2 -76h-666q4 -97 73 -164t175 -67q146 0 248 127l154 -109q-155 -199 -424 -201zM246 1331h583v-192h-583v192
z" />
    <glyph glyph-name="Edotaccent" unicode="&#x116;" horiz-adv-x="1114" 
d="M168 1452h793v-231h-539v-361h522v-227h-522v-402h541v-231h-795v1452zM721 1725q0 -67 -47 -113t-114 -47q-67 0 -113 47q-46 48 -46 114t46 112t113 46t114 -46t47 -113z" />
    <glyph glyph-name="edotaccent" unicode="&#x117;" horiz-adv-x="1064" 
d="M745 543q0 87 -58 146t-152 60q-93 1 -151 -61t-67 -145h428zM541 -27q-192 0 -324 125q-133 125 -133 341q0 215 130 350t325 135q196 0 320 -124t124 -337l-2 -76h-666q4 -97 73 -164t175 -67q146 0 248 127l154 -109q-155 -199 -424 -201zM692 1256q0 -68 -47 -114
t-114 -46t-113 47t-45 113q0 66 46 113q47 46 113 46t113 -46t47 -113z" />
    <glyph glyph-name="Eogonek" unicode="&#x118;" horiz-adv-x="1114" 
d="M596.5 -98.5q53.5 66.5 110.5 98.5h-539v1452h793v-231h-539v-361h522v-227h-522v-402h541v-231h-95q-43 -29 -76.5 -74t-33.5 -92q0 -109 127 -108q34 0 76 8l16 -152q-145 -43 -258 -14t-144.5 88t-31.5 119t53.5 126.5z" />
    <glyph glyph-name="eogonek" unicode="&#x119;" horiz-adv-x="1064" 
d="M745 543q0 84 -58 145.5t-152 61.5t-151.5 -61.5t-66.5 -145.5h428zM502 -231q0 49 33.5 109.5t89.5 115.5q-39 -16 -117 -16t-156 30.5t-173 126.5t-95 307q0 212 129.5 347t325.5 135t320 -124t124 -337l-2 -76h-666q4 -97 73 -164t175 -67q149 0 248 127l154 -109
q-29 -31 -138.5 -138t-109.5 -202q0 -109 127 -108q34 0 76 8l16 -152q-82 -24 -183 -24q-102 0 -176.5 53t-74.5 158z" />
    <glyph glyph-name="Ecaron" unicode="&#x11a;" horiz-adv-x="1114" 
d="M168 1452h793v-231h-539v-361h522v-227h-522v-402h541v-231h-795v1452zM301 1864l270 -125l263 125l88 -142l-353 -184l-354 191z" />
    <glyph glyph-name="ecaron" unicode="&#x11b;" horiz-adv-x="1064" 
d="M745 543q0 87 -58 146t-152 60q-93 1 -151 -61t-67 -145h428zM541 -27q-192 0 -324 125q-133 125 -133 341q0 215 130 350t325 135q196 0 320 -124t124 -337l-2 -76h-666q4 -97 73 -164t175 -67q146 0 248 127l154 -109q-155 -199 -424 -201zM322 1436l223 -170l225 172
l113 -131l-344 -269l-326 265z" />
    <glyph glyph-name="Gbreve" unicode="&#x11e;" horiz-adv-x="1607" 
d="M881 764h665v-59q0 -316 -194 -525t-529 -211q-164 1 -300 59q-270 116 -382 403q-53 138 -53 296t56 296q115 283 396 402q138 59 316 59t338 -77q158 -78 268 -231l-200 -140q-160 217 -426 217q-218 0 -359 -154q-131 -148 -131 -369t134 -376t356 -155q176 0 296 97
q118 97 142 245h-393v223zM668 1905q0 -78 30 -116t103 -38q145 0 145 154h189q0 -182 -89 -268q-89 -85 -245 -87q-322 0 -322 355h189z" />
    <glyph glyph-name="gbreve" unicode="&#x11f;" horiz-adv-x="1173" 
d="M815 459q0 172 -144 238q-45 22 -101 22q-108 0 -178 -76t-70 -189q0 -112 69 -188t180 -76t177 77q67 77 67 192zM807 897h231v-834q0 -137 -26 -226t-90 -153q-125 -123 -365 -122q-203 0 -313 97t-115 251h227q4 -72 62 -121t166 -49t166 61q57 61 57 203v131
q-105 -131 -298 -131q-192 0 -308 129q-117 129 -117 322q0 192 126 329q126 136 314 136q189 0 283 -136v113zM457 1425q1 -77 31 -115t102 -38q145 0 145 153h189q0 -181 -89 -267q-89 -85 -245 -87q-322 0 -322 354h189z" />
    <glyph glyph-name="Gdotaccent" unicode="&#x120;" horiz-adv-x="1607" 
d="M881 764h665v-59q0 -316 -194 -525t-529 -211q-164 1 -300 59q-270 116 -382 403q-53 138 -53 296t56 296q115 283 396 402q138 59 316 59t338 -77q158 -78 268 -231l-200 -140q-160 217 -426 217q-218 0 -359 -154q-131 -148 -131 -369t134 -376t356 -155q176 0 296 97
q118 97 142 245h-393v223zM965 1725q0 -67 -47 -113t-114 -47q-67 0 -113 47q-46 48 -46 114t46 112t113 46t114 -46t47 -113z" />
    <glyph glyph-name="gdotaccent" unicode="&#x121;" horiz-adv-x="1173" 
d="M815 459q0 172 -144 238q-45 22 -101 22q-108 0 -178 -76t-70 -189q0 -112 69 -188t180 -76t177 77q67 77 67 192zM807 897h231v-834q0 -137 -26 -226t-90 -153q-125 -123 -365 -122q-203 0 -313 97t-115 251h227q4 -72 62 -121t166 -49t166 61q57 61 57 203v131
q-105 -131 -298 -131q-192 0 -308 129q-117 129 -117 322q0 192 126 329q126 136 314 136q189 0 283 -136v113zM589 1415q67 0 113 -46t48 -113q0 -68 -47 -114t-114 -46t-113 47t-46 113t46 113q46 46 113 46z" />
    <glyph glyph-name="Gcommaaccent" unicode="&#x122;" horiz-adv-x="1607" 
d="M881 764h665v-59q0 -316 -194 -525t-529 -211q-164 1 -300 59q-270 116 -382 403q-53 138 -53 296t56 296q115 283 396 402q138 59 316 59t338 -77q158 -78 268 -231l-200 -140q-160 217 -426 217q-218 0 -359 -154q-131 -148 -131 -369t134 -376t356 -155q176 0 296 97
q118 97 142 245h-393v223zM754 -324q0 30 -26 71t-27 84q-1 42 34 74t94 32t97 -42q37 -43 37 -119q-1 -76 -63 -157q-62 -82 -171 -154l-72 72q97 83 97 139z" />
    <glyph glyph-name="gcommaaccent" unicode="&#x123;" horiz-adv-x="1173" 
d="M815 459q0 172 -144 238q-45 22 -101 22q-108 0 -178 -76t-70 -189q0 -112 69 -188t180 -76t177 77q67 77 67 192zM807 897h231v-834q0 -137 -26 -226t-90 -153q-125 -123 -365 -122q-203 0 -313 97t-115 251h227q4 -72 62 -121t166 -49t166 61q57 61 57 203v131
q-105 -131 -298 -131q-192 0 -308 129q-117 129 -117 322q0 192 126 329q126 136 314 136q189 0 283 -136v113zM723 1198q0 -41 -35 -73q-35 -31 -94 -31t-97 42t-38 118t63 157q63 82 172 154l70 -72q-96 -82 -94 -139q0 -31 26 -73t27 -83z" />
    <glyph glyph-name="Hbar" unicode="&#x126;" horiz-adv-x="1505" 
d="M1063 1073h-621v-199h621v199zM1317 1073v-1073h-254v645h-621v-645h-254v1073h-131v205h131v174h254v-174h621v174h254v-174h131v-205h-131z" />
    <glyph glyph-name="hbar" unicode="&#x127;" horiz-adv-x="1105" 
d="M644 920q330 0 331 -345v-575h-232v526q0 191 -165 191q-84 -1 -144 -61t-61 -177v-479h-232v1028h-125v178h125v328h232v-328h258v-178h-258v-246q41 54 113 96t158 42z" />
    <glyph glyph-name="Imacron" unicode="&#x12a;" horiz-adv-x="589" 
d="M168 1452h254v-1452h-254v1452zM6 1790h584v-193h-584v193z" />
    <glyph glyph-name="imacron" unicode="&#x12b;" horiz-adv-x="507" 
d="M137 897h234v-897h-234v897zM-35 1331h584v-192h-584v192z" />
    <glyph glyph-name="Iogonek" unicode="&#x12e;" horiz-adv-x="589" 
d="M125.5 -98.5q53.5 66.5 110.5 98.5h-68v1452h254v-1452h-25q-43 -29 -76.5 -74t-33.5 -92q0 -109 127 -108q35 0 75 8l17 -152q-145 -43 -258 -14t-144.5 88t-31.5 119t53.5 126.5z" />
    <glyph glyph-name="iogonek" unicode="&#x12f;" horiz-adv-x="507" 
d="M90 -99.5q53 67.5 111 99.5h-64v897h234v-897h-9q-43 -29 -76.5 -74t-33.5 -92q0 -109 127 -108q34 0 76 8l16 -152q-145 -43 -258.5 -13.5t-144.5 88t-31 117.5t53 126.5zM403 1250q0 -62 -44 -106t-105 -44t-106.5 44t-45.5 106t45.5 106.5t106.5 44.5t105 -44.5
t44 -106.5z" />
    <glyph glyph-name="Idotaccent" unicode="&#x130;" horiz-adv-x="589" 
d="M168 1452h254v-1452h-254v1452zM459 1725q0 -67 -47 -113t-114 -47q-67 0 -113 47q-46 48 -46 114t46 112t113 46t114 -46t47 -113z" />
    <glyph glyph-name="dotlessi" unicode="&#x131;" horiz-adv-x="507" 
d="M137 897h234v-897h-234v897z" />
    <glyph glyph-name="Kcommaaccent" unicode="&#x136;" horiz-adv-x="1329" 
d="M168 1452h254v-647l508 647h305l-555 -680l584 -772h-322l-520 707v-707h-254v1452zM588 -324q0 34 -26 73t-27 81q0 43 34 75q35 32 95 32q60 -1 96 -43q37 -42 37 -118q-1 -76 -63 -157q-62 -82 -171 -154l-71 72q96 83 96 139z" />
    <glyph glyph-name="kcommaaccent" unicode="&#x137;" horiz-adv-x="995" 
d="M135 1534h232v-1010l307 373h293l-367 -412l391 -485h-307l-317 428v-428h-232v1534zM430 -324q0 34 -26 73t-27 81q0 43 35 75t94 32q59 -1 97 -43t38 -118t-63 -157q-63 -82 -172 -154l-70 72q94 81 94 139z" />
    <glyph glyph-name="Lacute" unicode="&#x139;" horiz-adv-x="966" 
d="M168 1452h254v-1221h491v-231h-745v1452zM285 1638l290 246l181 -151l-359 -211z" />
    <glyph glyph-name="lacute" unicode="&#x13a;" horiz-adv-x="501" 
d="M135 1534h232v-1534h-232v1534zM371 2062l184 -139l-326 -262l-133 96z" />
    <glyph glyph-name="Lcommaaccent" unicode="&#x13b;" horiz-adv-x="966" 
d="M168 1452h254v-1221h491v-231h-745v1452zM416 -324q0 34 -26 72q-26 39 -27 82t34 75t95 32q60 -1 96 -43q37 -42 37 -118q-1 -76 -63 -157q-62 -82 -171 -154l-72 72q97 83 97 139z" />
    <glyph glyph-name="lcommaaccent" unicode="&#x13c;" horiz-adv-x="501" 
d="M135 1534h232v-1534h-232v1534zM127 -168q0 41 35 73t94 32q59 -1 97 -43t38 -118t-63 -157q-63 -82 -172 -154l-70 72q96 82 94 139q0 31 -26 73t-27 83z" />
    <glyph glyph-name="Lcaron" unicode="&#x13d;" horiz-adv-x="966" 
d="M168 1452h254v-1221h491v-231h-745v1452zM643 1221q-1 35 -27 72t-26 81q0 43 35 76t94 33q59 -1 97 -43t38 -118t-63 -157q-63 -82 -173 -153l-69 69q94 81 94 140z" />
    <glyph glyph-name="lcaron" unicode="&#x13e;" horiz-adv-x="501" 
d="M135 1534h232v-1534h-232v1534zM776 1504q0 -76 -62 -159t-171 -155l-72 72q97 84 97 128q-1 45 -20 72t-28 44q-8 17 -8 54t36 70t95 33t96 -42q37 -41 37 -117z" />
    <glyph glyph-name="Lslash" unicode="&#x141;" horiz-adv-x="1005" 
d="M207 1452h254v-491l135 81l100 -168l-235 -143v-500h489v-231h-743v580l-84 -52l-100 168l184 111v645z" />
    <glyph glyph-name="lslash" unicode="&#x142;" horiz-adv-x="630" 
d="M197 1534h233v-578l109 66l100 -168l-209 -125v-729h-233v588l-105 -66l-102 168l207 125v719z" />
    <glyph glyph-name="Nacute" unicode="&#x143;" horiz-adv-x="1595" 
d="M1192 838v614h233v-1452h-229l-633 844q-68 91 -172 246q4 -102 6 -200t9 -202v-688h-238v1452h233l600 -803q130 -176 201 -291q-10 312 -10 480zM600 1638l291 246l180 -151l-358 -211z" />
    <glyph glyph-name="nacute" unicode="&#x144;" horiz-adv-x="1101" 
d="M739 516q0 199 -164 201q-77 0 -143 -58t-65 -167v-492h-232v897h230v-119q37 49 105 93t167 44q161 0 252 -86q82 -82 84 -264v-565h-234v516zM688 1444l184 -139l-325 -263l-133 97z" />
    <glyph glyph-name="Ncommaaccent" unicode="&#x145;" horiz-adv-x="1595" 
d="M1192 838v614h233v-1452h-229l-633 844q-68 91 -172 246q4 -102 6 -200t9 -202v-688h-238v1452h233l600 -803q130 -176 201 -291q-10 312 -10 480zM723 -324q-1 34 -27 73t-26 81q0 43 35 75t94 32q59 -1 96 -43t37 -118t-62 -157q-62 -82 -172 -154l-71 72q96 83 96 139
z" />
    <glyph glyph-name="ncommaaccent" unicode="&#x146;" horiz-adv-x="1101" 
d="M739 516q0 199 -164 201q-77 0 -143 -58t-65 -167v-492h-232v897h230v-119q37 49 105 93t167 44q161 0 252 -86q82 -82 84 -264v-565h-234v516zM424 -168q0 41 35 73t94 32q59 -1 97 -43t38 -118t-63 -157q-63 -82 -172 -154l-70 72q96 82 94 139q-1 31 -27 73t-26 83z
" />
    <glyph glyph-name="Ncaron" unicode="&#x147;" horiz-adv-x="1595" 
d="M1192 838v614h233v-1452h-229l-633 844q-68 91 -172 246q4 -102 6 -200t9 -202v-688h-238v1452h233l600 -803q130 -176 201 -291q-10 312 -10 480zM543 1864l270 -125l262 125l88 -142l-352 -184l-354 191z" />
    <glyph glyph-name="ncaron" unicode="&#x148;" horiz-adv-x="1101" 
d="M739 516q0 199 -164 201q-77 0 -143 -58t-65 -167v-492h-232v897h230v-119q37 49 105 93t167 44q161 0 252 -86q82 -82 84 -264v-565h-234v516zM326 1436l223 -170l225 172l113 -131l-344 -269l-326 265z" />
    <glyph glyph-name="Omacron" unicode="&#x14c;" horiz-adv-x="1691" 
d="M487 361q146 -152 360 -152t359 149q144 149 144 368q0 220 -143 370q-143 149 -359 149t-361 -151t-145 -365t145 -368zM843 -33q-159 1 -297 59q-284 120 -405 401q-59 138 -59 295t60 295q122 280 409 405q139 60 298 60t298 -58q286 -120 405 -401q60 -138 60 -297
t-62 -296q-126 -282 -409 -404q-139 -60 -298 -59zM555 1790h584v-193h-584v193z" />
    <glyph glyph-name="omacron" unicode="&#x14d;" horiz-adv-x="1148" 
d="M576 180q105 0 178 78t73 192q0 113 -73 188t-180 76t-180 -75t-75 -190q0 -57 21 -107q40 -100 136 -142q46 -20 100 -20zM572 -27q-212 0 -350 133t-138 336q0 202 141 341t350 139t350 -133q140 -133 140 -334q-1 -201 -141 -341t-352 -141zM281 1331h583v-192h-583
v192z" />
    <glyph glyph-name="Ohungarumlaut" unicode="&#x150;" horiz-adv-x="1691" 
d="M487 361q146 -152 360 -152t359 149q144 149 144 368q0 220 -143 370q-143 149 -359 149t-361 -151t-145 -365t145 -368zM843 -33q-159 1 -297 59q-284 120 -405 401q-59 138 -59 295t60 295q122 280 409 405q139 60 298 60t298 -58q286 -120 405 -401q60 -138 60 -297
t-62 -296q-126 -282 -409 -404q-139 -60 -298 -59zM1163 1939l183 -137l-293 -289l-129 95zM735 1946l180 -138l-258 -290l-129 94z" />
    <glyph glyph-name="ohungarumlaut" unicode="&#x151;" horiz-adv-x="1148" 
d="M576 180q105 0 178 78t73 192q0 113 -73 188t-180 76t-180 -75t-75 -190q0 -57 21 -107q40 -100 136 -142q46 -20 100 -20zM572 -27q-212 0 -350 133t-138 336q0 202 141 341t350 139t350 -133q140 -133 140 -334q-1 -201 -141 -341t-352 -141zM883 1456l182 -137
l-293 -289l-129 94zM455 1462l180 -137l-258 -291l-129 94z" />
    <glyph glyph-name="OE" unicode="&#x152;" horiz-adv-x="2297" 
d="M1350 725q0 220 -144.5 369t-356.5 149t-359.5 -147.5t-147.5 -365.5t148 -368.5t358 -150.5q212 0 357 147t145 367zM82 720q0 157 60.5 295t164 241.5t242.5 164t297 60.5q281 0 489 -195v166h785v-229h-537v-363h520v-227h-520v-402h541v-231h-789v174
q-214 -205 -491 -205q-158 0 -297 58.5t-242.5 160t-163 238.5t-59.5 294z" />
    <glyph glyph-name="oe" unicode="&#x153;" horiz-adv-x="1808" 
d="M829 450q0 113 -74 189t-182 76t-178.5 -77t-70.5 -190q0 -112 74.5 -190t182.5 -78q104 0 176 78.5t72 191.5zM1491 543q0 83 -58.5 145t-152.5 62t-151.5 -61.5t-65.5 -145.5h428zM1309 156q148 0 247 127l154 -109q-78 -100 -179 -150.5t-245 -50.5q-232 0 -352 172
q-132 -172 -351 -172t-358 134.5t-139 335.5q0 202 142.5 340.5t361.5 138.5t350 -170q55 84 147.5 128t193.5 44q199 0 323.5 -124.5t124.5 -336.5l-3 -76h-665q6 -98 74.5 -164.5t173.5 -66.5z" />
    <glyph glyph-name="Racute" unicode="&#x154;" horiz-adv-x="1185" 
d="M817 1030q0 213 -268 213h-129v-428h112q170 0 228 64q57 57 57 151zM168 1452h407q265 0 390 -123q112 -116 111 -280t-98 -274q-97 -109 -265 -134l442 -641h-303l-408 631h-24v-631h-252v1452zM395 1638l291 246l180 -151l-358 -211z" />
    <glyph glyph-name="racute" unicode="&#x155;" horiz-adv-x="710" 
d="M369 432v-432h-234v897h230v-141q87 160 258 162q42 0 65 -7l-8 -239q-53 30 -132 30t-129 -68t-50 -202zM537 1444l184 -139l-326 -263l-133 97z" />
    <glyph glyph-name="Rcommaaccent" unicode="&#x156;" horiz-adv-x="1185" 
d="M817 1030q0 213 -268 213h-129v-428h112q170 0 228 64q57 57 57 151zM168 1452h407q265 0 390 -123q112 -116 111 -280t-98 -274q-97 -109 -265 -134l442 -641h-303l-408 631h-24v-631h-252v1452zM535 -324q0 30 -27 72t-27 84q0 41 35 73t94 32t97 -42q36 -43 36 -119
t-62 -157q-62 -82 -171 -154l-72 72q97 83 97 139z" />
    <glyph glyph-name="rcommaaccent" unicode="&#x157;" horiz-adv-x="710" 
d="M369 432v-432h-234v897h230v-141q87 160 258 162q42 0 65 -7l-8 -239q-53 30 -132 30t-129 -68t-50 -202zM166 -168q0 41 35 73t94 32q59 -1 97 -43t38 -118t-63 -157q-63 -82 -172 -154l-70 72q96 82 94 139q-1 31 -27 73t-26 83z" />
    <glyph glyph-name="Rcaron" unicode="&#x158;" horiz-adv-x="1185" 
d="M817 1030q0 213 -268 213h-129v-428h112q170 0 228 64q57 57 57 151zM168 1452h407q265 0 390 -123q112 -116 111 -280t-98 -274q-97 -109 -265 -134l442 -641h-303l-408 631h-24v-631h-252v1452zM334 1864l270 -125l262 125l88 -142l-352 -184l-354 191z" />
    <glyph glyph-name="rcaron" unicode="&#x159;" horiz-adv-x="710" 
d="M369 432v-432h-234v897h230v-141q87 160 258 162q42 0 65 -7l-8 -239q-53 30 -132 30t-129 -68t-50 -202zM168 1436l223 -170l225 172l113 -131l-344 -269l-326 265z" />
    <glyph glyph-name="Sacute" unicode="&#x15a;" horiz-adv-x="1087" 
d="M797 1120q-84 150 -236 150q-78 0 -129 -52t-51 -128t56 -132q56 -55 242 -141q310 -142 310 -396q0 -105 -37 -187q-74 -166 -252 -232q-88 -33 -188 -33q-154 0 -266 68t-180 178l180 158q41 -77 112 -131t164 -55q94 -1 150 57t57 137q0 80 -45 127q-67 70 -252 157
q-307 145 -307 395q0 186 127 304q127 119 311 119q131 -1 235 -57t171 -156zM344 1638l291 246l180 -151l-358 -211z" />
    <glyph glyph-name="sacute" unicode="&#x15b;" horiz-adv-x="835" 
d="M522 242q0 39 -32 63t-131 60t-146 68q-109 74 -109 198t89 208q89 83 218 83q131 0 207 -43t121 -136l-186 -84q-44 86 -133 86q-39 -1 -68 -23q-28 -22 -28 -62t32 -64q32 -25 78 -43q48 -17 102 -37q212 -76 212 -256q0 -124 -93 -202q-93 -79 -236 -80
q-142 0 -220 44t-125 136l188 98q53 -100 157 -99q103 1 103 85zM549 1444l184 -139l-325 -263l-134 97z" />
    <glyph glyph-name="Scedilla" unicode="&#x15e;" horiz-adv-x="1087" 
d="M797 1120q-84 150 -236 150q-78 0 -129 -52t-51 -128t56 -132q56 -55 242 -141q310 -142 310 -396q0 -105 -37 -187q-74 -166 -252 -232q-88 -33 -188 -33q-154 0 -266 68t-180 178l180 158q41 -77 112 -131t164 -55q94 -1 150 57t57 137q0 80 -45 127q-67 70 -252 157
q-307 145 -307 395q0 186 127 304q127 119 311 119q131 -1 235 -57t171 -156zM543 -72l180 -106l-250 -277l-137 109z" />
    <glyph glyph-name="scedilla" unicode="&#x15f;" horiz-adv-x="835" 
d="M522 242q0 39 -32 63t-131 60t-146 68q-109 74 -109 198t89 208q89 83 218 83q131 0 207 -43t121 -136l-186 -84q-44 86 -133 86q-39 -1 -68 -23q-28 -22 -28 -62t32 -64q32 -25 78 -43q48 -17 102 -37q212 -76 212 -256q0 -124 -93 -202q-93 -79 -236 -80
q-142 0 -220 44t-125 136l188 98q53 -100 157 -99q103 1 103 85zM422 -72l180 -106l-250 -277l-137 109z" />
    <glyph glyph-name="Scaron" unicode="&#x160;" horiz-adv-x="1087" 
d="M797 1120q-84 150 -236 150q-78 0 -129 -52t-51 -128t56 -132q56 -55 242 -141q310 -142 310 -396q0 -105 -37 -187q-74 -166 -252 -232q-88 -33 -188 -33q-154 0 -266 68t-180 178l180 158q41 -77 112 -131t164 -55q94 -1 150 57t57 137q0 80 -45 127q-67 70 -252 157
q-307 145 -307 395q0 186 127 304q127 119 311 119q131 -1 235 -57t171 -156zM289 1864l270 -125l262 125l88 -142l-352 -184l-354 191z" />
    <glyph glyph-name="scaron" unicode="&#x161;" horiz-adv-x="835" 
d="M522 242q0 39 -32 63t-131 60t-146 68q-109 74 -109 198t89 208q89 83 218 83q131 0 207 -43t121 -136l-186 -84q-44 86 -133 86q-39 -1 -68 -23q-28 -22 -28 -62t32 -64q32 -25 78 -43q48 -17 102 -37q212 -76 212 -256q0 -124 -93 -202q-93 -79 -236 -80
q-142 0 -220 44t-125 136l188 98q53 -100 157 -99q103 1 103 85zM197 1436l223 -170l225 172l113 -131l-344 -269l-326 265z" />
    <glyph glyph-name="Tcedilla" unicode="&#x162;" horiz-adv-x="962" 
d="M356 1223h-333v229h919v-227h-334v-1225h-252v1223zM483 -72l181 -106l-250 -277l-138 109z" />
    <glyph glyph-name="tcedilla" unicode="&#x163;" horiz-adv-x="577" 
d="M162 715h-131v182h131v326h233v-326h174v-182h-174v-715h-233v715zM289 -72l180 -106l-250 -277l-137 109z" />
    <glyph glyph-name="Tcaron" unicode="&#x164;" horiz-adv-x="962" 
d="M356 1223h-333v229h919v-227h-334v-1225h-252v1223zM215 1864l270 -125l263 125l88 -142l-353 -184l-354 191z" />
    <glyph glyph-name="tcaron" unicode="&#x165;" horiz-adv-x="577" 
d="M162 715h-131v182h131v326h233v-326h174v-182h-174v-715h-233v715zM596 1286q0 36 -28 73t-27 80q0 44 36 77q36 32 95 32t96 -42t37 -118q-1 -76 -63 -158q-62 -83 -171 -155l-71 72q96 83 96 139z" />
    <glyph glyph-name="Umacron" unicode="&#x16a;" horiz-adv-x="1460" 
d="M164 1452h254v-891q0 -199 86 -283q86 -85 228 -84q141 1 226 80q91 91 91 271v907h247v-883q0 -291 -155 -450q-146 -146 -416 -146t-420 152q-141 135 -141 416v911zM438 1790h584v-193h-584v193z" />
    <glyph glyph-name="umacron" unicode="&#x16b;" horiz-adv-x="1105" 
d="M129 897h233v-469q0 -121 29 -167t67 -66q38 -21 99 -21q106 -1 154 79q32 58 32 169v475h234v-469q0 -111 -22 -197t-82 -146q-111 -112 -319 -112q-424 0 -425 441v483zM260 1331h584v-192h-584v192z" />
    <glyph glyph-name="Uring" unicode="&#x16e;" horiz-adv-x="1460" 
d="M164 1452h254v-891q0 -199 86 -283q86 -85 228 -84q141 1 226 80q91 91 91 271v907h247v-883q0 -291 -155 -450q-146 -146 -416 -146t-420 152q-141 135 -141 416v911zM731 1591q41 0 69 28t27 69q1 42 -27 70t-69 28t-69 -29t-27 -69q-1 -40 27 -69q28 -28 69 -28z
M730 1468q-46 0 -87 16t-72 47q-65 63 -65 158t65 156q65 62 159 63t160 -63t66 -157t-67 -156q-68 -64 -159 -64z" />
    <glyph glyph-name="uring" unicode="&#x16f;" horiz-adv-x="1105" 
d="M129 897h233v-469q0 -121 29 -167t67 -66q38 -21 99 -21q106 -1 154 79q32 58 32 169v475h234v-469q0 -111 -22 -197t-82 -146q-111 -112 -319 -112q-424 0 -425 441v483zM551 1161q41 0 69 28q28 29 28 69t-28 69t-69 29t-69 -29t-28 -70t28 -69t69 -27zM391 1101
q-65 63 -65 158t65 156q65 62 159 63t160 -63t66 -158t-68 -157q-68 -62 -160 -62t-157 63z" />
    <glyph glyph-name="Uhungarumlaut" unicode="&#x170;" horiz-adv-x="1460" 
d="M164 1452h254v-891q0 -199 86 -283q86 -85 228 -84q141 1 226 80q91 91 91 271v907h247v-883q0 -291 -155 -450q-146 -146 -416 -146t-420 152q-141 135 -141 416v911zM1049 1939l182 -137l-293 -289l-129 95zM621 1946l180 -138l-258 -290l-129 94z" />
    <glyph glyph-name="uhungarumlaut" unicode="&#x171;" horiz-adv-x="1105" 
d="M129 897h233v-469q0 -121 29 -167t67 -66q38 -21 99 -21q106 -1 154 79q32 58 32 169v475h234v-469q0 -111 -22 -197t-82 -146q-111 -112 -319 -112q-424 0 -425 441v483zM872 1456l183 -137l-293 -289l-129 94zM444 1462l181 -137l-258 -291l-129 94z" />
    <glyph glyph-name="Uogonek" unicode="&#x172;" horiz-adv-x="1460" 
d="M164 541v911h254v-891q0 -196 85 -281t228 -85t227 79q91 91 91 271v907h247v-883q0 -277 -153 -450q-90 -98 -123 -176t-33 -109q0 -109 127 -108q34 0 76 8l16 -152q-145 -43 -289.5 -5.5t-144.5 192.5q0 100 123 247q-74 -43 -185 -43q-112 0 -219.5 37.5
t-179.5 107.5t-109.5 169.5t-37.5 253.5z" />
    <glyph glyph-name="uogonek" unicode="&#x173;" horiz-adv-x="1105" 
d="M129 414v483h233v-469q0 -121 29 -167t67 -66.5t123 -20.5t123.5 68t38.5 180v475h234v-469q0 -111 -22.5 -194.5t-93.5 -161.5t-97.5 -145.5t-26.5 -92.5q0 -109 127 -108q36 0 76 8l16 -152q-144 -43 -289 -5.5t-145 189.5q0 102 117 240q-118 -57 -234.5 -16
t-172.5 97q-104 103 -103 327z" />
    <glyph glyph-name="Ydieresis" unicode="&#x178;" horiz-adv-x="1236" 
d="M743 0h-254v649l-471 803h291l316 -590l315 590h281l-478 -795v-657zM408 1550q-59 0 -101 42q-41 42 -41 102t41 100q41 41 101 41t101 -41q42 -41 42 -100q0 -60 -42 -102t-101 -42zM819 1550q-59 0 -101 42t-42 102t42 100q42 41 101 41t101 -41t41 -100
q0 -59 -41 -102q-42 -42 -101 -42z" />
    <glyph glyph-name="Zacute" unicode="&#x179;" horiz-adv-x="1171" 
d="M96 1229v223h1028l-706 -1223h706v-229h-1118l709 1229h-619zM387 1638l291 246l180 -151l-358 -211z" />
    <glyph glyph-name="zacute" unicode="&#x17a;" horiz-adv-x="948" 
d="M90 711v186h817l-479 -711h453v-186h-846l475 711h-420zM614 1444l185 -139l-326 -263l-133 97z" />
    <glyph glyph-name="Zdotaccent" unicode="&#x17b;" horiz-adv-x="1171" 
d="M96 1229v223h1028l-706 -1223h706v-229h-1118l709 1229h-619zM583 1884q67 0 113 -46t47 -113q-1 -67 -47 -113t-113 -47q-67 0 -113 47q-46 48 -46 114t46 112t113 46z" />
    <glyph glyph-name="zdotaccent" unicode="&#x17c;" horiz-adv-x="948" 
d="M90 711v186h817l-479 -711h453v-186h-846l475 711h-420zM635 1256q0 -68 -47 -114t-114 -46t-113 47t-46 113t46 113q46 46 113 46t114 -46t47 -113z" />
    <glyph glyph-name="Zcaron" unicode="&#x17d;" horiz-adv-x="1171" 
d="M96 1229v223h1028l-706 -1223h706v-229h-1118l709 1229h-619zM311 1864l271 -125l262 125l88 -142l-352 -184l-355 191z" />
    <glyph glyph-name="zcaron" unicode="&#x17e;" horiz-adv-x="948" 
d="M90 711v186h817l-479 -711h453v-186h-846l475 711h-420zM256 1436l223 -170l226 172l112 -131l-344 -269l-326 265z" />
    <glyph glyph-name="florin" unicode="&#x192;" 
d="M839 1234q-28 -42 -46 -159l-41 -260h202l-24 -160h-203l-109 -690q-31 -188 -108 -282.5t-246 -94.5q-104 0 -160 13l31 198q45 -6 105 -6t91 46t48 155l104 661h-174l25 160h174l45 289q26 184 104.5 280.5t249.5 96.5q114 0 174 -15l-32 -198q-46 8 -114 8t-96 -42z
" />
    <glyph glyph-name="Scommaaccent" unicode="&#x218;" horiz-adv-x="1087" 
d="M797 1120q-84 150 -236 150q-78 0 -129 -52t-51 -128t56 -132q56 -55 242 -141q310 -142 310 -396q0 -105 -37 -187q-74 -166 -252 -232q-88 -33 -188 -33q-154 0 -266 68t-180 178l180 158q41 -77 112 -131t164 -55q94 -1 150 57t57 137q0 80 -45 127q-67 70 -252 157
q-307 145 -307 395q0 186 127 304q127 119 311 119q131 -1 235 -57t171 -156zM473 -324q-1 34 -27 73t-26 81q0 43 35 75t94 32q59 -1 96 -43t37 -118t-62 -157q-62 -82 -171 -154l-72 72q96 83 96 139z" />
    <glyph glyph-name="scommaaccent" unicode="&#x219;" horiz-adv-x="835" 
d="M522 242q0 39 -32 63t-131 60t-146 68q-109 74 -109 198t89 208q89 83 218 83q131 0 207 -43t121 -136l-186 -84q-44 86 -133 86q-39 -1 -68 -23q-28 -22 -28 -62t32 -64q32 -25 78 -43q48 -17 102 -37q212 -76 212 -256q0 -124 -93 -202q-93 -79 -236 -80
q-142 0 -220 44t-125 136l188 98q53 -100 157 -99q103 1 103 85zM295 -168q0 41 35 73t94 32q59 -1 97 -43t38 -118t-63 -157q-63 -82 -172 -154l-70 72q96 82 94 139q0 31 -26 73t-27 83z" />
    <glyph glyph-name="Tcommaaccent" unicode="&#x21a;" horiz-adv-x="962" 
d="M356 1223h-333v229h919v-227h-334v-1225h-252v1223zM414 -324q0 34 -26 72q-26 39 -27 82t34 75t94 32t97 -42q37 -43 37 -119q-1 -76 -63 -157q-62 -82 -171 -154l-72 72q97 83 97 139z" />
    <glyph glyph-name="tcommaaccent" unicode="&#x21b;" horiz-adv-x="577" 
d="M162 715h-131v182h131v326h233v-326h174v-182h-174v-715h-233v715zM166 -168q0 41 35 73t94 32q59 -1 97 -43t38 -118t-63 -157q-63 -82 -172 -154l-70 72q96 82 94 139q-1 31 -27 73t-26 83z" />
    <glyph glyph-name="circumflex" unicode="&#x2c6;" horiz-adv-x="962" 
d="M145 1180l347 276l325 -270l-110 -133l-224 174l-223 -176z" />
    <glyph glyph-name="caron" unicode="&#x2c7;" horiz-adv-x="962" 
d="M254 1436l223 -170l225 172l113 -131l-344 -269l-326 265z" />
    <glyph glyph-name="breve" unicode="&#x2d8;" horiz-adv-x="962" 
d="M342 1425q0 -78 30.5 -115.5t102.5 -37.5q145 0 146 153h188q0 -271 -131 -312.5t-203 -41.5q-322 0 -321 354h188z" />
    <glyph glyph-name="dotaccent" unicode="&#x2d9;" horiz-adv-x="696" 
d="M347 1096q-67 0 -113 47t-46 113t47 112.5t113 46.5t113 -46t47 -113t-47 -113.5t-114 -46.5z" />
    <glyph glyph-name="ring" unicode="&#x2da;" horiz-adv-x="962" 
d="M481 1161q41 0 69 28t28 68.5t-28 69.5t-69 29t-68.5 -29t-27.5 -69.5t27.5 -68.5t68.5 -28zM480 1038q-46 0 -87 16.5t-71.5 46t-48 69.5t-17.5 87.5t17.5 87t48 69.5t71.5 47.5t88 17.5t88 -17.5t72 -47.5t48.5 -69.5t17.5 -87t-18.5 -87.5t-49.5 -68.5t-72 -46
t-87 -17.5z" />
    <glyph glyph-name="ogonek" unicode="&#x2db;" horiz-adv-x="962" 
d="M328 -101q52 66 112 101h162q-43 -29 -76.5 -74t-33.5 -92q0 -109 126 -108q36 0 76 8l17 -152q-145 -43 -258.5 -14t-145 88t-31.5 118t52 125z" />
    <glyph glyph-name="tilde" unicode="&#x2dc;" horiz-adv-x="962" 
d="M80 1102q0 117 63.5 193.5t173.5 76.5q75 0 166.5 -53t137.5 -53q90 0 90 96h172q0 -123 -67.5 -197.5t-178.5 -74.5q-67 0 -138 36.5t-105 54t-68 17.5t-56 -27.5t-22 -68.5h-168z" />
    <glyph glyph-name="hungarumlaut" unicode="&#x2dd;" horiz-adv-x="962" 
d="M707 1456l182 -137l-293 -289l-129 94zM279 1462l180 -137l-258 -291l-129 94z" />
    <glyph glyph-name="tonos" unicode="&#x384;" horiz-adv-x="819" 
d="M471 1444l184 -139l-325 -263l-133 97z" />
    <glyph glyph-name="dieresistonos" unicode="&#x385;" horiz-adv-x="1132" 
d="M903.5 1112q-57.5 0 -98.5 40t-41 98t41 98.5t98.5 40.5t98 -40.5t40.5 -98.5t-40.5 -98t-98 -40zM453 1571h227l-37 -432h-154zM229.5 1112q-57.5 0 -98.5 40t-41 98t41 98.5t98.5 40.5t98.5 -40.5t41 -98.5t-41 -98t-98.5 -40z" />
    <glyph glyph-name="Alphatonos" unicode="&#x386;" horiz-adv-x="1478" 
d="M975 557l-127 340q-10 27 -26 72t-32 94q-17 49 -36 104q-31 -97 -56 -169q-26 -72 -36 -101l-127 -340h440zM631 1452h250l581 -1452h-278l-127 338h-602l-125 -338h-269zM51 1452h228l-37 -432h-154z" />
    <glyph glyph-name="Epsilontonos" unicode="&#x388;" horiz-adv-x="1443" 
d="M498 1452h792v-231h-538v-361h522v-227h-522v-402h540v-231h-794v1452zM47 1452h227l-36 -432h-154z" />
    <glyph glyph-name="Etatonos" unicode="&#x389;" horiz-adv-x="1794" 
d="M496 1452h254v-578h620v578h254v-1452h-254v645h-620v-645h-254v1452zM47 1452h227l-36 -432h-154z" />
    <glyph glyph-name="Iotatonos" unicode="&#x38a;" horiz-adv-x="919" 
d="M496 1452h254v-1452h-254v1452zM47 1452h227l-36 -432h-154z" />
    <glyph glyph-name="Omicrontonos" unicode="&#x38c;" horiz-adv-x="1980" 
d="M1495 358q145 149 144 370q-1 220 -143 368q-142 149 -359 149q-216 0 -361 -151t-145 -365q0 -215 145 -368q146 -152 359 -152t360 149zM1132 -33q-159 1 -297 59q-284 120 -405 401q-59 138 -59 295t60 295q122 280 409 405q139 60 298 60t298 -58q283 -119 405 -401
q59 -138 59 -297t-61 -296q-126 -282 -409 -404q-139 -60 -298 -59zM47 1452h227l-36 -432h-154z" />
    <glyph glyph-name="Upsilontonos" unicode="&#x38e;" horiz-adv-x="1624" 
d="M1130 0h-253v649l-471 803h290l316 -590l315 590h281l-478 -795v-657zM47 1452h227l-36 -432h-154z" />
    <glyph glyph-name="Omegatonos" unicode="&#x38f;" horiz-adv-x="1970" 
d="M1618 757q0 200 -136 345q-137 143 -351 143t-352 -141t-138 -350q0 -168 93 -295t227 -178v-281h-547v227h260q-201 138 -271 361q-25 80 -24 172q0 154 60 286q122 269 402 381q137 55 293 55q313 1 530 -205q100 -97 158 -230t58 -256q0 -288 -196 -470
q-56 -54 -113 -94h274v-227h-549v281q63 25 121 67q201 152 201 409zM47 1452h227l-36 -432h-154z" />
    <glyph glyph-name="iotadieresistonos" unicode="&#x390;" horiz-adv-x="507" 
d="M137 897h234v-897h-234v897zM596 1112q-57 0 -98 40t-41 98t41 98t98 41q57 0 98 -40q41 -41 41 -99t-41 -98t-98 -40zM145 1571h228l-37 -432h-154zM-78 1112q-57 0 -98 40t-41 98t41 98t98 41q57 0 98 -40q41 -41 41 -99t-41 -98t-98 -40z" />
    <glyph glyph-name="Alpha" unicode="&#x391;" horiz-adv-x="1435" 
d="M932 557l-127 340q-10 27 -25.5 72t-32.5 94t-36 104q-47 -148 -93 -270l-126 -340h440zM588 1452h250l581 -1452h-278l-127 338h-602l-125 -338h-269z" />
    <glyph glyph-name="Beta" unicode="&#x392;" horiz-adv-x="1234" 
d="M598 211q279 0 279 215q0 166 -102.5 195.5t-182.5 29.5h-174v-440h180zM553 858q164 0 198.5 78t34.5 142t-38 101q-38 38 -76.5 51t-104.5 13h-149v-385h135zM1038 1087q0 -201 -182 -303q117 -25 194.5 -120.5t77.5 -231.5q0 -182 -124 -307t-429 -125h-407v1452h414
q245 0 351 -108q105 -108 105 -257z" />
    <glyph glyph-name="Gamma" unicode="&#x393;" horiz-adv-x="950" 
d="M913 1452v-231h-491v-1221h-254v1452h745z" />
    <glyph glyph-name="uni0394" unicode="&#x394;" horiz-adv-x="1452" 
d="M377 231h686l-252 658q-10 27 -24.5 65.5t-28 77.5t-24.5 73t-17 52q-12 -52 -47 -145.5t-45 -122.5zM594 1452h254l586 -1452h-1416z" />
    <glyph glyph-name="Epsilon" unicode="&#x395;" horiz-adv-x="1114" 
d="M168 1452h793v-231h-539v-361h522v-227h-522v-402h541v-231h-795v1452z" />
    <glyph glyph-name="Zeta" unicode="&#x396;" horiz-adv-x="1171" 
d="M96 1229v223h1028l-706 -1223h706v-229h-1118l709 1229h-619z" />
    <glyph glyph-name="Eta" unicode="&#x397;" horiz-adv-x="1464" 
d="M168 1452h254v-578h620v578h254v-1452h-254v645h-620v-645h-254v1452z" />
    <glyph glyph-name="Theta" unicode="&#x398;" horiz-adv-x="1691" 
d="M848 209q214 0 358 148.5t144 369t-143 369.5t-359 149t-361 -151t-145 -366t146 -367t360 -152zM843 -33q-159 0 -297 58.5t-241.5 161t-163 240.5t-59.5 295t60.5 295t165 241.5t243.5 164t298 60.5t298 -58.5t242.5 -161t163 -240.5t59.5 -297t-61.5 -296t-166 -240.5
t-243.5 -163t-298 -59.5zM1208 844v-226h-737v226h737z" />
    <glyph glyph-name="Iota" unicode="&#x399;" horiz-adv-x="589" 
d="M168 1452h254v-1452h-254v1452z" />
    <glyph glyph-name="Kappa" unicode="&#x39a;" horiz-adv-x="1329" 
d="M168 1452h254v-647l508 647h305l-555 -680l584 -772h-322l-520 707v-707h-254v1452z" />
    <glyph glyph-name="Lambda" unicode="&#x39b;" horiz-adv-x="1404" 
d="M295 0h-272l557 1452h254l548 -1452h-278l-307 856q-28 80 -95 291q-29 -103 -94 -285z" />
    <glyph glyph-name="Mu" unicode="&#x39c;" horiz-adv-x="1855" 
d="M285 1452h264l282 -790q46 -125 99 -320q58 207 92 303l291 807h254l200 -1452h-247l-95 780q-16 116 -26 328q-48 -174 -92 -301l-293 -807h-187l-288 801q-30 83 -93 301q-8 -181 -28 -334l-92 -768h-246z" />
    <glyph glyph-name="Nu" unicode="&#x39d;" horiz-adv-x="1595" 
d="M1192 838v614h233v-1452h-229l-633 844q-68 91 -172 246q4 -102 6 -200.5t9 -201.5v-688h-238v1452h233l600 -803q130 -176 201 -291q-10 312 -10 480z" />
    <glyph glyph-name="Xi" unicode="&#x39e;" horiz-adv-x="1304" 
d="M188 858h930v-227h-930v227zM1204 231v-231h-1104v231h1104zM104 1452h1098v-233h-1098v233z" />
    <glyph glyph-name="Omicron" unicode="&#x39f;" horiz-adv-x="1691" 
d="M848 209q214 0 358 148.5t144 369t-143 369.5t-359 149t-361 -151t-145 -366t146 -367t360 -152zM843 -33q-159 0 -297 58.5t-241.5 161t-163 240.5t-59.5 295t60.5 295t165 241.5t243.5 164t298 60.5t298 -58.5t242.5 -161t163 -240.5t59.5 -297t-61.5 -296t-166 -240.5
t-243.5 -163t-298 -59.5z" />
    <glyph glyph-name="Pi" unicode="&#x3a0;" horiz-adv-x="1464" 
d="M1042 0v1219h-620v-1219h-254v1452h1128v-1452h-254z" />
    <glyph glyph-name="Rho" unicode="&#x3a1;" horiz-adv-x="1107" 
d="M535 793q137 0 200 63t64 156q0 223 -256 223h-123v-442h115zM168 1452h371q282 0 401 -120t119 -308t-119 -307q-139 -139 -408 -139h-112v-578h-252v1452z" />
    <glyph glyph-name="Sigma" unicode="&#x3a3;" horiz-adv-x="1249" 
d="M1147 231v-231h-1098l445 735q-111 180 -220.5 358.5t-220.5 358.5h1080v-225h-652l289 -473l-313 -523h690z" />
    <glyph glyph-name="Tau" unicode="&#x3a4;" horiz-adv-x="962" 
d="M356 1223h-333v229h919v-227h-334v-1225h-252v1223z" />
    <glyph glyph-name="Upsilon" unicode="&#x3a5;" horiz-adv-x="1236" 
d="M743 0h-254v649l-471 803h291l316 -590l315 590h281l-478 -795v-657z" />
    <glyph glyph-name="Phi" unicode="&#x3a6;" horiz-adv-x="1673" 
d="M709 1063h-33q-346 0 -346 -336q0 -166 94 -251t252 -85h33v672zM999 391q344 0 344 251t-92 336t-252 85h-41v-672h41zM709 0v178h-54q-268 0 -427.5 149t-159.5 395q0 247 161.5 400.5t452.5 153.5h27v176h249v-176h62q268 0 427 -147.5t159 -394.5t-163 -401.5
t-450 -154.5h-35v-178h-249z" />
    <glyph glyph-name="Chi" unicode="&#x3a7;" horiz-adv-x="1310" 
d="M522 756l-448 696h297l291 -494l294 494h295l-456 -692l481 -760h-293l-332 555l-327 -555h-291z" />
    <glyph glyph-name="Psi" unicode="&#x3a8;" horiz-adv-x="1660" 
d="M700 352h-47q-374 0 -450 208t-76 358v534h254v-512q0 -291 109.5 -328t162.5 -37h47v877h254v-877h50q121 0 198.5 75.5t77.5 277.5v524h254v-524q0 -300 -146.5 -438t-386.5 -138h-47v-352h-254v352z" />
    <glyph glyph-name="uni03A9" unicode="&#x3a9;" horiz-adv-x="1681" 
d="M1192 1102q-137 143 -351 143t-351.5 -141.5t-137.5 -349.5q0 -169 93.5 -295t226.5 -178v-281h-547v227h260q-202 138 -248.5 289.5t-46.5 274.5t60.5 255t163 229t238.5 152.5t293 55.5t293 -54.5t237.5 -151.5t158.5 -231t57 -256t-50 -271t-259 -292h274v-227h-548
v281q135 54 228 176.5t93 311.5q0 190 -137 333z" />
    <glyph glyph-name="Iotadieresis" unicode="&#x3aa;" horiz-adv-x="589" 
d="M168 1452h254v-1452h-254v1452zM92 1550q-59 0 -100 42t-41 102t41 100q41 41 100 41q60 0 102 -41t42 -100t-42 -102q-43 -42 -102 -42zM504 1550q-59 0 -102 42q-42 42 -42 102t42 100q42 41 102 41t100 -41q41 -41 41 -100q0 -60 -41 -102t-100 -42z" />
    <glyph glyph-name="Upsilondieresis" unicode="&#x3ab;" horiz-adv-x="1236" 
d="M743 0h-254v649l-471 803h291l316 -590l315 590h281l-478 -795v-657zM408 1550q-59 0 -101 42q-41 42 -41 102t41 100q41 41 101 41t101 -41q42 -41 42 -100q0 -60 -42 -102t-101 -42zM819 1550q-59 0 -101 42t-42 102t42 100q42 41 101 41t101 -41t41 -100
q0 -59 -41 -102q-42 -42 -101 -42z" />
    <glyph glyph-name="alphatonos" unicode="&#x3ac;" 
d="M762 244q69 78 69 197q0 120 -71 198q-72 78 -182 78t-182 -77t-72 -193q0 -117 72 -198q74 -83 185 -83q112 0 181 78zM821 111q-114 -136 -305 -136q-192 0 -312 131t-120 335q0 205 124 343t320 138q94 0 171 -38t122 -102v115h232v-897h-232v111zM741 1444l185 -139
l-326 -263l-133 97z" />
    <glyph glyph-name="epsilontonos" unicode="&#x3ad;" horiz-adv-x="878" 
d="M84 254q0 88 56 144q56 55 124 73q-95 31 -135 124q-14 34 -14 85q0 105 102 173q102 67 268 68t280 -64q28 -15 42 -23l-80 -150q-14 10 -79 33q-65 22 -133 22q-155 0 -155 -92q0 -104 146 -102h174v-166h-188q-158 0 -158 -117q0 -49 45 -75q45 -25 105 -25
q132 1 226 40q24 9 31 15l78 -162q-135 -77 -336 -78q-202 -2 -301 72q-98 74 -98 205zM586 1444l184 -139l-326 -263l-133 97z" />
    <glyph glyph-name="etatonos" unicode="&#x3ae;" horiz-adv-x="1101" 
d="M739 516q0 199 -164 201q-77 0 -143 -58t-65 -167v-492h-232v897h230v-119q37 49 105 93t167 44q161 0 252 -86q82 -82 84 -264v-977h-234v928zM690 1444l184 -139l-325 -263l-133 97z" />
    <glyph glyph-name="iotatonos" unicode="&#x3af;" horiz-adv-x="507" 
d="M137 897h234v-897h-234v897zM369 1444l184 -139l-326 -263l-133 97z" />
    <glyph glyph-name="upsilondieresistonos" unicode="&#x3b0;" horiz-adv-x="1105" 
d="M129 897h233v-469q0 -121 29 -167t67 -66q38 -21 99 -21q106 -1 154 79q32 58 32 169v475h234v-469q0 -111 -22 -197t-82 -146q-111 -112 -319 -112q-424 0 -425 441v483zM895 1112q-57 0 -98 40t-41 98t41 98t98 41q57 0 98 -40q41 -41 41 -99t-41 -98t-98 -40z
M444 1571h228l-37 -432h-154zM221 1112q-57 0 -98 40t-41 98t41 98t98 41q57 0 98 -40q41 -41 41 -99t-41 -98t-98 -40z" />
    <glyph glyph-name="alpha" unicode="&#x3b1;" 
d="M831 441q0 120 -71.5 198t-181.5 78t-182 -76.5t-72 -194t73 -199t184 -81.5q112 0 181 77.5t69 197.5zM821 111q-114 -136 -305 -136t-311.5 131t-120.5 335q0 205 124.5 343t319.5 138q94 0 171 -38t122 -102v115h232v-897h-232v111z" />
    <glyph glyph-name="beta" unicode="&#x3b2;" horiz-adv-x="1169" 
d="M590 168q55 0 101 22.5t78 59.5t49.5 86t17.5 132.5t-75 165t-192 81.5h-110v182h53q94 0 146.5 58.5t52.5 167.5t-46.5 168t-128.5 59t-125.5 -54.5t-43.5 -142.5v-852q39 -79 103.5 -106t119.5 -27zM135 1104q0 189 106.5 316.5t303.5 127.5t302 -112t105 -289
q0 -134 -60 -207.5t-116 -85.5q109 -33 207 -117.5t98 -283.5t-124 -337.5t-320 -138.5q-150 0 -207 48.5t-63 56.5v-494h-232v1516z" />
    <glyph glyph-name="gamma" unicode="&#x3b3;" horiz-adv-x="1040" 
d="M635 -412h-232v408l-397 901h264l179 -440q44 -107 77 -228q24 84 80 228l174 440h254q-153 -355 -399 -903v-406z" />
    <glyph glyph-name="delta" unicode="&#x3b4;" horiz-adv-x="1157" 
d="M394.5 257.5q77.5 -75.5 187.5 -75.5t182 76t72 191t-73.5 194.5t-187.5 79.5t-186 -78.5t-72 -195t77.5 -192zM222.5 107.5q-138.5 134.5 -138.5 336.5q0 100 39 187.5t138.5 185.5t273.5 98q53 0 86 -12l-320 508v119h643v-193h-330l344 -549q51 -80 83 -159.5t32 -176
t-36 -183.5t-140.5 -191.5t-319.5 -104.5q-216 0 -354.5 134.5z" />
    <glyph glyph-name="epsilon" unicode="&#x3b5;" horiz-adv-x="878" 
d="M727 684q-73 55 -231 55q-49 0 -92.5 -22.5t-43.5 -69.5q0 -102 146 -102h174v-166h-188q-158 0 -158 -117q0 -49 45 -74.5t105 -25.5q100 0 170 21.5t87 33.5l78 -162q-140 -80 -339 -80t-297.5 74t-98.5 205q0 86 58 144t122 73q-97 31 -123 94.5t-26 114.5
q0 105 103.5 173.5t264.5 68.5t235.5 -40t88.5 -48z" />
    <glyph glyph-name="zeta" unicode="&#x3b6;" horiz-adv-x="927" 
d="M92 414q0 180 144 387l372 530h-411v199h706v-144l-463 -669q-100 -134 -100 -275q0 -90 43 -141t107.5 -82t140.5 -54.5t183.5 -81t107.5 -233.5q0 -82 -32 -148.5t-79 -137.5l-178 106q37 59 53 91t16 70t-45 65.5t-112.5 53t-147.5 55.5t-192.5 113.5t-112.5 295.5z
" />
    <glyph glyph-name="eta" unicode="&#x3b7;" horiz-adv-x="1101" 
d="M739 516q0 201 -164 201q-78 0 -143 -58.5t-65 -166.5v-492h-232v897h230v-119q37 49 105.5 93t166.5 44q161 0 252 -86q84 -84 84 -264v-977h-234v928z" />
    <glyph glyph-name="theta" unicode="&#x3b8;" horiz-adv-x="1216" 
d="M603 1343q-123 0 -184.5 -132t-70.5 -351h516q-19 483 -261 483zM607 180q239 0 259 500h-520q14 -360 102 -430t159 -70zM281.5 90q-179.5 117 -179.5 663q0 347 127.5 572t386.5 225t378.5 -211.5t119.5 -563.5t-129.5 -577t-387.5 -225q-136 0 -315.5 117z" />
    <glyph glyph-name="iota" unicode="&#x3b9;" horiz-adv-x="507" 
d="M137 897h234v-897h-234v897z" />
    <glyph glyph-name="kappa" unicode="&#x3ba;" horiz-adv-x="997" 
d="M367 0h-232v897h232v-385l313 385h293l-373 -422l389 -475h-307l-315 416v-416z" />
    <glyph glyph-name="lambda" unicode="&#x3bb;" horiz-adv-x="1093" 
d="M190 1534h252l641 -1534h-258l-178 442q-31 72 -84 222q-20 -59 -48 -121t-43 -97.5t-26 -60.5l-167 -385h-273l436 936z" />
    <glyph glyph-name="uni03BC" unicode="&#x3bc;" horiz-adv-x="1122" 
d="M135 897h232v-459q0 -111 47 -183.5t145 -72.5t147.5 77.5t49.5 184.5v453h231v-897h-223v109q-23 -49 -73 -92.5t-131 -43.5t-127 39t-66 78v-502h-232v1309z" />
    <glyph glyph-name="nu" unicode="&#x3bd;" horiz-adv-x="1040" 
d="M6 897h264l179 -440q50 -132 77 -228q24 84 80 228l174 440h254l-393 -897h-240z" />
    <glyph glyph-name="xi" unicode="&#x3be;" horiz-adv-x="923" 
d="M641 1352q-95 0 -156 -66.5t-61 -160.5t71.5 -161t161.5 -67h185v-186h-207q-134 0 -217.5 -77.5t-83.5 -181.5t43 -155t107.5 -82t139 -52.5t182 -79t107.5 -233.5q0 -80 -31.5 -148.5t-78.5 -137.5l-178 106q35 55 52 88t17 72t-45 66.5t-111.5 54t-144.5 58.5
t-189.5 119t-111.5 282q0 194 93.5 276t144.5 105.5t71 27.5q-66 20 -137 105t-71 219q0 180 127 292.5t315 112.5q94 0 156.5 -19.5t89.5 -29.5v-203q-107 56 -240 56z" />
    <glyph glyph-name="omicron" unicode="&#x3bf;" horiz-adv-x="1148" 
d="M827 449q0 113 -73.5 189.5t-181.5 76.5t-180.5 -77t-72.5 -190t75.5 -190.5t181.5 -77.5q107 0 179 78t72 191zM221 108q-137 135 -137 335q0 201 141 340t350 139t349.5 -134t140.5 -334t-140.5 -340.5t-353.5 -140.5t-350 135z" />
    <glyph glyph-name="pi" unicode="&#x3c0;" horiz-adv-x="1222" 
d="M211 700h-160v197h1120v-197h-159v-700h-232v700h-338v-700h-231v700z" />
    <glyph glyph-name="rho" unicode="&#x3c1;" horiz-adv-x="1179" 
d="M852 442.5q0 111.5 -67.5 193t-181 81.5t-182.5 -79.5t-69 -199.5q0 -119 69.5 -194.5t182.5 -75.5t180.5 81.5t67.5 193zM360 -412h-231v842q0 215 128 353.5t348 138.5t355.5 -135.5t135.5 -331.5t-123 -337t-315 -141q-193 0 -298 129v-518z" />
    <glyph glyph-name="sigma1" unicode="&#x3c2;" horiz-adv-x="882" 
d="M569.5 713q-151.5 0 -195.5 -102.5t-44 -159.5q0 -111 59.5 -174.5t130.5 -96.5t131 -56.5t105 -57t72.5 -84t27.5 -132t-31.5 -148.5t-79.5 -138l-178 106q37 59 53.5 91t16.5 63t-20.5 53.5t-58.5 41t-90 38.5t-110 49q-120 59 -197 171.5t-77 264.5q0 195 134 336.5
t355 141.5q140 0 242 -48v-221q-94 62 -245.5 62z" />
    <glyph glyph-name="sigma" unicode="&#x3c3;" horiz-adv-x="1169" 
d="M827 426q0 108 -75.5 195.5t-181 87.5t-178.5 -77t-73 -187t75.5 -187.5t181.5 -77.5q109 0 180 69t71 177zM223.5 108.5q-139.5 135.5 -139.5 335.5t144 338t358 138q80 0 190.5 -11.5t216.5 -11.5h94v-192h-61q-79 0 -145 12q112 -72 145 -159.5t33 -161.5t-34 -155
t-134 -174.5t-314 -93.5t-353.5 135.5z" />
    <glyph glyph-name="tau" unicode="&#x3c4;" horiz-adv-x="813" 
d="M791 700h-269v-700h-231v700h-268v197h768v-197z" />
    <glyph glyph-name="upsilon" unicode="&#x3c5;" horiz-adv-x="1105" 
d="M129 897h233v-469q0 -121 29 -167t67 -66.5t123 -20.5t123.5 68t38.5 180v475h234v-469q0 -111 -21.5 -197t-81.5 -146q-113 -112 -321 -112q-424 0 -424 441v483z" />
    <glyph glyph-name="phi" unicode="&#x3c6;" horiz-adv-x="1550" 
d="M1022 727q-164 0 -164 -223v-316h103q113 0 187.5 68.5t74.5 192.5t-44 201t-157 77zM627 0h-43q-230 0 -362 122.5t-132 325.5q0 202 105.5 310t140.5 139h219q-146 -155 -185.5 -266t-39.5 -173q0 -123 79 -200.5t218 -69.5v295q0 188 106.5 312.5t312.5 124.5
t310 -125t104 -335t-143.5 -335t-374.5 -125h-84v-412h-231v412z" />
    <glyph glyph-name="chi" unicode="&#x3c7;" horiz-adv-x="1017" 
d="M512 324q-71 -116 -227 -324h-281l365 459l-338 438h282q118 -162 199 -291q116 177 201 291h278l-336 -434l359 -463h-283q-53 78 -112.5 163t-106.5 161z" />
    <glyph glyph-name="psi" unicode="&#x3c8;" horiz-adv-x="1419" 
d="M539 0q-410 0 -410 438v459h233v-448q0 -114 25 -160.5t59.5 -68t94.5 -21.5h53v944h233v-944h56q104 0 139 67.5t35 177.5v453h233v-444q0 -198 -88 -325.5t-323 -127.5h-52v-412h-233v412h-55z" />
    <glyph glyph-name="omega" unicode="&#x3c9;" horiz-adv-x="1552" 
d="M1217 393q0 235 -213 504h225q138 -138 185.5 -264.5t47.5 -219.5q0 -197 -98 -318.5t-309 -121.5q-113 0 -181.5 53.5t-99.5 141.5q-72 -195 -280.5 -195t-306 118.5t-97.5 299.5q0 180 83 310.5t153 195.5h221q-140 -172 -175.5 -293t-35.5 -178q0 -256 169 -256
q87 0 122 70.5t35 171.5v301h225v-297q0 -246 160 -246q86 0 128 69.5t42 153.5z" />
    <glyph glyph-name="iotadieresis" unicode="&#x3ca;" horiz-adv-x="507" 
d="M137 897h234v-897h-234v897zM55 1108q-59 0 -100 42t-41 101t41 101t100 41q59 0 101 -41q42 -40 43 -100q-1 -60 -43 -102t-101 -42zM467 1108q-59 0 -101 42t-42 101t42 101t101 41q59 0 100 -41q41 -40 41 -100t-41 -102t-100 -42z" />
    <glyph glyph-name="upsilondieresis" unicode="&#x3cb;" horiz-adv-x="1105" 
d="M129 897h233v-469q0 -121 29 -167t67 -66q38 -21 99 -21q106 -1 154 79q32 58 32 169v475h234v-469q0 -111 -22 -197t-82 -146q-111 -112 -319 -112q-424 0 -425 441v483zM344 1108q-59 0 -100 42t-41 101t41 101t100 41q59 0 101 -41q42 -40 42 -100t-42 -102t-101 -42z
M756 1108q-59 0 -102 42q-42 42 -42 101t42 101t102 41q60 0 100 -41q41 -40 41 -100t-41 -102t-100 -42z" />
    <glyph glyph-name="omicrontonos" unicode="&#x3cc;" horiz-adv-x="1148" 
d="M576 180q105 0 178 78t73 192q0 113 -73 188t-180 76t-180 -75t-75 -190q0 -57 21 -107q40 -100 136 -142q46 -20 100 -20zM572 -27q-212 0 -350 133t-138 336q0 202 141 341t350 139t350 -133q140 -133 140 -334q-1 -201 -141 -341t-352 -141zM702 1444l185 -139
l-326 -263l-133 97z" />
    <glyph glyph-name="upsilontonos" unicode="&#x3cd;" horiz-adv-x="1105" 
d="M129 897h233v-469q0 -121 29 -167t67 -66q38 -21 99 -21q106 -1 154 79q32 58 32 169v475h234v-469q0 -111 -22 -197t-82 -146q-111 -112 -319 -112q-424 0 -425 441v483zM694 1444l185 -139l-326 -263l-133 97z" />
    <glyph glyph-name="omegatonos" unicode="&#x3ce;" horiz-adv-x="1552" 
d="M774 168q-71 -193 -280 -194t-306 117q-98 118 -98 300t105 345q61 96 131 161h221q-93 -114 -132 -197q-79 -165 -79 -282q0 -171 90 -228q33 -20 82 -20q84 0 119 71t35 171v301h225v-297q0 -246 160 -246q85 0 127 68q41 68 42 153q3 234 -212 506h225
q137 -137 200 -302t13 -344q-78 -278 -387 -278q-212 0 -281 195zM907 1444l185 -139l-326 -263l-133 97z" />
    <glyph glyph-name="afii10023" unicode="&#x401;" horiz-adv-x="1114" 
d="M168 1452h793v-231h-539v-361h522v-227h-522v-402h541v-231h-795v1452zM377 1550q-59 0 -101 42q-40 42 -40 102t40 100q40 41 100 41t102 -41t42 -100q0 -60 -42 -102t-101 -42zM788 1550q-59 0 -101 42t-42 102t42 100q42 41 101 41q58 0 100 -41t42 -100t-41 -102
q-42 -42 -101 -42z" />
    <glyph glyph-name="afii10051" unicode="&#x402;" horiz-adv-x="1480" 
d="M821 197q320 0 320 233q0 98 -65.5 162.5t-215.5 64.5q-89 0 -138 -6q-48 -6 -79 -8v-643h-254v1223h-369v229h992v-229h-369v-367q35 2 91 8t160 6q230 0 369.5 -106.5t139.5 -327.5q0 -309 -209 -379.5t-373 -70.5v211z" />
    <glyph glyph-name="afii10052" unicode="&#x403;" horiz-adv-x="950" 
d="M913 1452v-231h-491v-1221h-254v1452h745zM340 1638l291 246l180 -151l-358 -211z" />
    <glyph glyph-name="afii10053" unicode="&#x404;" horiz-adv-x="1312" 
d="M229.5 247q-147.5 155 -147.5 478q0 322 208.5 536t557.5 214q186 0 358 -80v-271q-72 51 -174 86t-200 35q-186 0 -311.5 -107t-162.5 -288h684v-225h-686q29 -185 159 -301.5t337 -116.5q206 0 362 112v-256q-172 -88 -403 -88q-164 0 -299 58.5t-282.5 213.5z" />
    <glyph glyph-name="afii10054" unicode="&#x405;" horiz-adv-x="1087" 
d="M797 1120q-84 150 -236 150q-78 0 -129 -52.5t-51 -128.5t45 -120.5t112.5 -81.5t259 -124.5t191.5 -348.5q0 -194 -136.5 -319.5t-340.5 -125.5q-154 0 -266.5 67.5t-179.5 178.5l180 158q69 -127 148 -157t128 -30q94 0 150.5 57.5t56.5 137.5t-45 127t-111.5 85
t-145.5 75t-190.5 122.5t-111.5 270.5t127.5 303.5t310.5 118.5q131 0 235.5 -56.5t170.5 -156.5z" />
    <glyph glyph-name="afii10055" unicode="&#x406;" horiz-adv-x="589" 
d="M168 1452h254v-1452h-254v1452z" />
    <glyph glyph-name="afii10056" unicode="&#x407;" horiz-adv-x="622" 
d="M148 1552q-56 0 -96 40t-40 96t40 96.5t96 40.5t96.5 -40t40.5 -96t-40.5 -96.5t-96.5 -40.5zM474 1552q-56 0 -96 40t-40 96t40 96.5t96 40.5t96 -40t40 -96t-40 -96.5t-96 -40.5zM184 1452h254v-1452h-254v1452z" />
    <glyph glyph-name="afii10057" unicode="&#x408;" horiz-adv-x="888" 
d="M356 209q45 0 71 27q46 48 46 182v1034h252v-1024q0 -131 -25.5 -214t-87.5 -144q-96 -96 -265 -96t-245.5 86.5t-101.5 136.5l186 147q66 -135 170 -135z" />
    <glyph glyph-name="afii10058" unicode="&#x409;" horiz-adv-x="1953" 
d="M1630 429q0 101 -57 163.5t-201 62.5h-223v-442h217q129 0 196.5 57.5t67.5 158.5zM231 403v1049h918v-582h215q252 0 390 -106.5t138 -314.5t-141.5 -328.5t-392.5 -120.5h-463v1219h-410v-674q0 -147 -15 -253t-78 -208t-292 -102q-57 0 -69 4v217l49 -2q78 0 114.5 45
t36.5 157z" />
    <glyph glyph-name="afii10059" unicode="&#x40a;" horiz-adv-x="2013" 
d="M1690 432q0 100 -57.5 161.5t-200.5 61.5h-230v-442h223q129 0 197 59.5t68 159.5zM948 0v649h-526v-649h-254v1452h254v-582h526v582h254v-582h219q250 0 390.5 -104.5t140.5 -313.5t-140 -330.5t-397 -121.5h-467z" />
    <glyph glyph-name="afii10060" unicode="&#x40b;" horiz-adv-x="1503" 
d="M865 649q-67 0 -222 -10v-639h-254v1223h-369v229h994v-229h-371v-363q175 10 249 10q207 0 353 -91t146 -369v-410h-254v375q0 225 -102.5 249.5t-169.5 24.5z" />
    <glyph glyph-name="afii10061" unicode="&#x40c;" horiz-adv-x="1329" 
d="M168 1452h254v-647l508 647h305l-555 -680l584 -772h-322l-520 707v-707h-254v1452zM498 1638l290 246l181 -151l-359 -211z" />
    <glyph glyph-name="afii10062" unicode="&#x40e;" horiz-adv-x="1282" 
d="M649 696l336 756h277l-678 -1452h-281l215 451l-495 1001h288l224 -485q20 -49 64 -149t50 -122zM518 1888q0 -78 31 -116t102 -37q145 0 146 153h188q0 -270 -201 -335q-61 -19 -133 -19q-322 0 -321 354h188z" />
    <glyph glyph-name="afii10145" unicode="&#x40f;" horiz-adv-x="1464" 
d="M422 1452v-1219h620v1219h254v-1452h-442v-330h-242v330h-444v1452h254z" />
    <glyph glyph-name="afii10017" unicode="&#x410;" horiz-adv-x="1435" 
d="M932 557l-127 340q-10 27 -25.5 72t-32.5 94t-36 104q-47 -148 -93 -270l-126 -340h440zM588 1452h250l581 -1452h-278l-127 338h-602l-125 -338h-269z" />
    <glyph glyph-name="afii10018" unicode="&#x411;" horiz-adv-x="1245" 
d="M909 429q0 101 -57 163.5t-201 62.5h-229v-442h223q129 0 196.5 57.5t67.5 158.5zM168 0v1452h850v-233h-596v-349h221q258 0 393 -107.5t135 -314.5t-141 -327.5t-393 -120.5h-469z" />
    <glyph glyph-name="afii10019" unicode="&#x412;" horiz-adv-x="1234" 
d="M598 211q279 0 279 215q0 166 -102.5 195.5t-182.5 29.5h-174v-440h180zM553 858q164 0 198.5 78t34.5 142t-38 101q-38 38 -76.5 51t-104.5 13h-149v-385h135zM1038 1087q0 -201 -182 -303q117 -25 194.5 -120.5t77.5 -231.5q0 -182 -124 -307t-429 -125h-407v1452h414
q245 0 351 -108q105 -108 105 -257z" />
    <glyph glyph-name="afii10020" unicode="&#x413;" horiz-adv-x="950" 
d="M913 1452v-231h-491v-1221h-254v1452h745z" />
    <glyph glyph-name="afii10021" unicode="&#x414;" horiz-adv-x="1447" 
d="M14 -264v471q39 6 88.5 36.5t123 131.5t73.5 342v735h936v-1219h172v-497h-244v264h-905v-264h-244zM981 1219h-430v-443q0 -248 -54.5 -376t-127.5 -167h612v986z" />
    <glyph glyph-name="afii10022" unicode="&#x415;" horiz-adv-x="1114" 
d="M168 1452h793v-231h-539v-361h522v-227h-522v-402h541v-231h-795v1452z" />
    <glyph glyph-name="afii10024" unicode="&#x416;" horiz-adv-x="2060" 
d="M899 1452h254v-647l508 647h305l-555 -680l584 -772h-322l-520 707v-707h-254v707l-518 -707h-309l579 741l-581 711h321q129 -164 254 -325.5t254 -323.5v649z" />
    <glyph glyph-name="afii10025" unicode="&#x417;" horiz-adv-x="1171" 
d="M572 184q108 0 173.5 62t65.5 164t-70.5 165.5t-214.5 63.5h-131v211h125q123 0 188.5 57.5t65.5 150.5t-57.5 148.5t-153.5 55.5t-150.5 -49.5t-60.5 -129.5h-260q8 174 137 287t338 113t337 -118t128 -290q0 -117 -54 -196.5t-147 -120.5q99 -24 170.5 -123t71.5 -200
q0 -204 -132 -336t-374 -132q-334 0 -414.5 159t-86.5 261h260q10 -96 74 -149.5t172 -53.5z" />
    <glyph glyph-name="afii10026" unicode="&#x418;" horiz-adv-x="1593" 
d="M168 0v1452h252v-590q0 -353 -8 -491l776 1081h237v-1452h-254v588q0 334 9 489l-774 -1077h-238z" />
    <glyph glyph-name="afii10027" unicode="&#x419;" horiz-adv-x="1593" 
d="M168 0v1452h252v-590q0 -353 -8 -491l776 1081h237v-1452h-254v588q0 334 9 489l-774 -1077h-238zM668 1888q0 -78 30 -116t103 -37q145 0 145 153h189q0 -269 -201 -335q-61 -19 -133 -19q-322 0 -322 354h189z" />
    <glyph glyph-name="afii10028" unicode="&#x41a;" horiz-adv-x="1329" 
d="M168 1452h254v-647l508 647h305l-555 -680l584 -772h-322l-520 707v-707h-254v1452z" />
    <glyph glyph-name="afii10029" unicode="&#x41b;" horiz-adv-x="1347" 
d="M231 403v1049h949v-1452h-254v1219h-441v-674q0 -147 -15 -253t-78 -208t-292 -102q-57 0 -69 4v217l49 -2q78 0 114.5 45t36.5 157z" />
    <glyph glyph-name="afii10030" unicode="&#x41c;" horiz-adv-x="1855" 
d="M285 1452h264l282 -790q46 -125 99 -320q58 207 92 303l291 807h254l200 -1452h-247l-95 780q-16 116 -26 328q-48 -174 -92 -301l-293 -807h-187l-288 801q-30 83 -93 301q-8 -181 -28 -334l-92 -768h-246z" />
    <glyph glyph-name="afii10031" unicode="&#x41d;" horiz-adv-x="1464" 
d="M168 1452h254v-578h620v578h254v-1452h-254v645h-620v-645h-254v1452z" />
    <glyph glyph-name="afii10032" unicode="&#x41e;" horiz-adv-x="1691" 
d="M848 209q214 0 358 148.5t144 369t-143 369.5t-359 149t-361 -151t-145 -366t146 -367t360 -152zM843 -33q-159 0 -297 58.5t-241.5 161t-163 240.5t-59.5 295t60.5 295t165 241.5t243.5 164t298 60.5t298 -58.5t242.5 -161t163 -240.5t59.5 -297t-61.5 -296t-166 -240.5
t-243.5 -163t-298 -59.5z" />
    <glyph glyph-name="afii10033" unicode="&#x41f;" horiz-adv-x="1464" 
d="M1042 0v1219h-620v-1219h-254v1452h1128v-1452h-254z" />
    <glyph glyph-name="afii10034" unicode="&#x420;" horiz-adv-x="1107" 
d="M535 793q137 0 200 63t64 156q0 223 -256 223h-123v-442h115zM168 1452h371q282 0 401 -120t119 -308t-119 -307q-139 -139 -408 -139h-112v-578h-252v1452z" />
    <glyph glyph-name="afii10035" unicode="&#x421;" horiz-adv-x="1320" 
d="M817 -23q-322 0 -525.5 213t-203.5 534t208.5 535t559.5 214q188 0 356 -78v-275q-72 53 -173 87t-205 34q-209 0 -344.5 -144t-135.5 -368t134 -371t358 -147t375 113v-261q-168 -86 -404 -86z" />
    <glyph glyph-name="afii10036" unicode="&#x422;" horiz-adv-x="962" 
d="M356 1223h-333v229h919v-227h-334v-1225h-252v1223z" />
    <glyph glyph-name="afii10037" unicode="&#x423;" horiz-adv-x="1282" 
d="M649 696l336 756h277l-678 -1452h-281l215 451l-495 1001h288l224 -485q14 -35 32.5 -76t34.5 -79t29.5 -69.5t17.5 -46.5z" />
    <glyph glyph-name="afii10038" unicode="&#x424;" horiz-adv-x="1673" 
d="M709 1063h-33q-346 0 -346 -336q0 -166 94 -251t252 -85h33v672zM999 391q344 0 344 251t-92 336t-252 85h-41v-672h41zM709 0v178h-54q-268 0 -427.5 149t-159.5 395q0 247 161.5 400.5t452.5 153.5h27v176h249v-176h62q268 0 427 -147.5t159 -394.5t-163 -401.5
t-450 -154.5h-35v-178h-249z" />
    <glyph glyph-name="afii10039" unicode="&#x425;" horiz-adv-x="1310" 
d="M522 756l-448 696h297l291 -494l294 494h295l-456 -692l481 -760h-293l-332 555l-327 -555h-291z" />
    <glyph glyph-name="afii10040" unicode="&#x426;" horiz-adv-x="1509" 
d="M1468 233v-497h-243v264h-1057v1452h254v-1219h620v1219h254v-1219h172z" />
    <glyph glyph-name="afii10041" unicode="&#x427;" horiz-adv-x="1294" 
d="M682 803q110 0 190 10v639h254v-1452h-254v592q-83 -10 -208 -10q-126 0 -211.5 12t-212.5 90.5t-127 357.5v410h254v-375q0 -225 102.5 -249.5t212.5 -24.5z" />
    <glyph glyph-name="afii10042" unicode="&#x428;" horiz-adv-x="2039" 
d="M168 0v1452h254v-1219h471v1219h254v-1219h471v1219h254v-1452h-1704z" />
    <glyph glyph-name="afii10043" unicode="&#x429;" horiz-adv-x="2084" 
d="M168 0v1452h254v-1219h471v1219h254v-1219h471v1219h254v-1219h172v-497h-242v264h-1634z" />
    <glyph glyph-name="afii10044" unicode="&#x42a;" horiz-adv-x="1388" 
d="M1065 430q0 100 -57.5 162.5t-200.5 62.5h-229v-442h223q131 0 197.5 58.5t66.5 158.5zM324 0v1221h-301v231h555v-582h221q254 0 391 -106.5t137 -313.5t-141 -328.5t-393 -121.5h-469z" />
    <glyph glyph-name="afii10045" unicode="&#x42b;" horiz-adv-x="1755" 
d="M909 429q0 101 -57 163.5t-201 62.5h-229v-442h223q129 0 196.5 57.5t67.5 158.5zM168 0v1452h254v-582h221q258 0 393 -107.5t135 -314.5t-141 -327.5t-393 -120.5h-469zM1587 0h-254v1452h254v-1452z" />
    <glyph glyph-name="afii10046" unicode="&#x42c;" horiz-adv-x="1232" 
d="M909 429q0 101 -57 163.5t-201 62.5h-229v-442h223q129 0 196.5 57.5t67.5 158.5zM168 0v1452h254v-582h221q258 0 393 -107.5t135 -314.5t-141 -327.5t-393 -120.5h-469z" />
    <glyph glyph-name="afii10047" unicode="&#x42d;" horiz-adv-x="1312" 
d="M482 207q201 0 326.5 118t149.5 300h-690v225h684q-37 181 -165 288t-302 107q-227 0 -379 -117v263q160 84 383 84q160 0 296.5 -54.5t291 -210t154.5 -480.5q0 -326 -206 -539.5t-561 -213.5q-195 0 -368 82v260q72 -51 176.5 -81.5t209.5 -30.5z" />
    <glyph glyph-name="afii10048" unicode="&#x42e;" horiz-adv-x="2207" 
d="M1731.5 1095.5q-134.5 149.5 -339.5 149.5t-341 -151.5t-136 -366t139 -366.5t339 -152t336.5 149t136.5 368.5t-134.5 369zM168 1452h254v-598h246q48 273 256 451t469 178q154 0 288 -58.5t233 -161t156.5 -240.5t57.5 -297t-60.5 -296t-162 -240.5t-235.5 -163
t-278 -59.5q-284 0 -491 188t-239 470h-240v-625h-254v1452z" />
    <glyph glyph-name="afii10049" unicode="&#x42f;" horiz-adv-x="1185" 
d="M432.5 867.5q65.5 -54.5 218.5 -54.5h115v428h-139q-135 0 -197.5 -59.5t-62.5 -159.5t65.5 -154.5zM610 1452h408v-1452h-252v635h-29l-422 -635h-286q111 160 220 318.5t220 318.5q-162 20 -261 129t-99 286t130 288.5t371 111.5z" />
    <glyph glyph-name="afii10065" unicode="&#x430;" 
d="M831 441q0 120 -71.5 198t-181.5 78t-182 -76.5t-72 -194t73 -199t184 -81.5q112 0 181 77.5t69 197.5zM821 111q-114 -136 -305 -136t-311.5 131t-120.5 335q0 205 124.5 343t319.5 138q94 0 171 -38t122 -102v115h232v-897h-232v111z" />
    <glyph glyph-name="afii10066" unicode="&#x431;" horiz-adv-x="1165" 
d="M86 596q0 508 154 702q86 111 213 165.5t270 54.5h244v-236h-228q-109 0 -195.5 -28.5t-144.5 -104.5q-94 -120 -94 -395q55 84 152 125t194 41q190 0 311 -135.5t121 -336.5t-144.5 -338t-348.5 -137t-354 142t-150 481zM411.5 636q-71.5 -79 -71.5 -189t72 -187.5
t182 -77.5t180 76.5t70 188.5t-74 190t-180.5 78t-178 -79z" />
    <glyph glyph-name="afii10067" unicode="&#x432;" horiz-adv-x="1009" 
d="M637 639q0 86 -115 86h-155v-186h149q51 0 86 24.5t35 75.5zM694 272q0 109 -147 109h-180v-209h180q147 0 147 100zM877 665q0 -123 -119 -178q70 -14 124 -70.5t54 -146.5q0 -270 -356 -270h-445v897h447q129 0 212 -54.5t83 -177.5z" />
    <glyph glyph-name="afii10068" unicode="&#x433;" horiz-adv-x="753" 
d="M723 700h-354v-700h-234v897h588v-197z" />
    <glyph glyph-name="afii10069" unicode="&#x434;" horiz-adv-x="1175" 
d="M729 702h-256v-249q0 -167 -41 -205.5t-55 -48.5h352v503zM895 -221v221h-631v-221h-231v393q125 16 167 94t42 131v500h721v-698h163v-420h-231z" />
    <glyph glyph-name="afii10070" unicode="&#x435;" horiz-adv-x="1064" 
d="M745 543q0 84 -58 145.5t-152 61.5t-151.5 -61.5t-66.5 -145.5h428zM541 -27q-193 0 -325 126t-132 340q0 215 129.5 350t325.5 135t320 -124t124 -337l-2 -76h-666q4 -97 73 -164t175 -67q149 0 248 127l154 -109q-157 -201 -424 -201z" />
    <glyph glyph-name="afii10072" unicode="&#x436;" horiz-adv-x="1492" 
d="M862 0h-231v416l-316 -416h-307l389 449l-374 448h305l303 -383v383h231v-385l314 385h292l-372 -422l389 -475h-307l-316 416v-416z" />
    <glyph glyph-name="afii10073" unicode="&#x437;" horiz-adv-x="886" 
d="M774 682q0 -143 -127 -203q98 -26 129 -96.5t31 -132.5t-31 -116t-108.5 -107.5t-225.5 -53.5q-255 0 -403 90l84 168q130 -65 266 -65q170 0 170 104q0 109 -153 109h-146v164h129q139 0 139 104q0 92 -138 92t-243 -63l-84 155q136 93 371 93t287.5 -95.5t52.5 -146.5z
" />
    <glyph glyph-name="afii10074" unicode="&#x438;" horiz-adv-x="1140" 
d="M135 0v897h234v-567l424 567h213v-897h-232v565l-426 -565h-213z" />
    <glyph glyph-name="afii10075" unicode="&#x439;" horiz-adv-x="1140" 
d="M135 0v897h234v-567l424 567h213v-897h-232v565l-426 -565h-213zM442 1425q0 -176 131 -176q74 0 110 49t36 127h188q0 -189 -92 -282t-246 -91q-155 1 -235 97t-80 276h188z" />
    <glyph glyph-name="afii10076" unicode="&#x43a;" horiz-adv-x="997" 
d="M367 0h-232v897h232v-385l313 385h293l-373 -422l389 -475h-307l-315 416v-416z" />
    <glyph glyph-name="afii10077" unicode="&#x43b;" horiz-adv-x="1083" 
d="M37 176h31q123 0 122 146v575h758v-897h-231v700h-295v-323q0 -193 -76.5 -293t-253.5 -100l-55 4v188z" />
    <glyph glyph-name="afii10078" unicode="&#x43c;" horiz-adv-x="1388" 
d="M240 897h239l174 -483q18 -51 25.5 -80t13.5 -51q17 65 39 127l176 487h242l170 -897h-244l-47 291q-33 203 -41 311q-31 -118 -100 -299l-111 -303h-174l-110 301q-68 186 -99 299q-10 -108 -39 -278l-51 -322h-233z" />
    <glyph glyph-name="afii10079" unicode="&#x43d;" horiz-adv-x="1103" 
d="M737 0v371h-370v-371h-232v897h232v-334h370v334h232v-897h-232z" />
    <glyph glyph-name="afii10080" unicode="&#x43e;" horiz-adv-x="1148" 
d="M827 449q0 113 -73.5 189.5t-181.5 76.5t-180.5 -77t-72.5 -190t75.5 -190.5t181.5 -77.5q107 0 179 78t72 191zM221 108q-137 135 -137 335q0 201 141 340t350 139t349.5 -134t140.5 -334t-140.5 -340.5t-353.5 -140.5t-350 135z" />
    <glyph glyph-name="afii10081" unicode="&#x43f;" horiz-adv-x="1101" 
d="M735 0v700h-368v-700h-232v897h832v-897h-232z" />
    <glyph glyph-name="afii10082" unicode="&#x440;" 
d="M858 442.5q0 111.5 -67.5 193t-181 81.5t-182.5 -79.5t-69 -199.5q0 -119 69.5 -194.5t182.5 -75.5t180.5 81.5t67.5 193zM367 -412h-232v1309h232v-121q104 144 299 144t316.5 -133.5t121.5 -330.5t-123 -338t-317 -141t-297 129v-518z" />
    <glyph glyph-name="afii10083" unicode="&#x441;" horiz-adv-x="903" 
d="M84 444q0 193 134 334.5t355 141.5q140 0 242 -48v-219q-98 60 -217 60t-193.5 -75.5t-74.5 -186.5q0 -112 73 -190.5t198 -78.5q124 0 214 66v-221q-122 -52 -249 -52q-232 0 -357 138t-125 331z" />
    <glyph glyph-name="afii10084" unicode="&#x442;" horiz-adv-x="813" 
d="M791 700h-269v-700h-231v700h-268v197h768v-197z" />
    <glyph glyph-name="afii10085" unicode="&#x443;" horiz-adv-x="1044" 
d="M414 43l-410 854h270l162 -362q43 -96 67.5 -154.5t37.5 -87.5q23 53 46 111.5t46 111.5l162 381h245l-594 -1309h-245z" />
    <glyph glyph-name="afii10086" unicode="&#x444;" horiz-adv-x="1470" 
d="M324 447q0 -136 75.5 -199.5t190.5 -63.5h26v527h-34q-115 0 -186.5 -64t-71.5 -200zM1147 449q0 135 -75 198.5t-191 63.5h-33v-527h41q117 0 187.5 65t70.5 200zM588 913h28v394h232v-394h29q245 0 377 -122t132 -340t-139 -342.5t-362 -124.5h-37v-396h-232v396h-24
q-248 0 -378 122.5t-130 338.5t140.5 342t363.5 126z" />
    <glyph glyph-name="afii10087" unicode="&#x445;" horiz-adv-x="1017" 
d="M512 324q-71 -116 -227 -324h-281l365 459l-338 438h282q118 -162 199 -291q116 177 201 291h278l-336 -434l359 -463h-283q-53 78 -112.5 163t-106.5 161z" />
    <glyph glyph-name="afii10088" unicode="&#x446;" horiz-adv-x="1179" 
d="M899 -250v250h-764v897h232v-698h368v698h232v-698h163v-449h-231z" />
    <glyph glyph-name="afii10089" unicode="&#x447;" horiz-adv-x="1032" 
d="M480 494q97 0 184 14v389h233v-897h-233v313q-88 -18 -194 -18q-195 0 -287.5 85t-92.5 267v250h232v-238q0 -78 30.5 -121.5t127.5 -43.5z" />
    <glyph glyph-name="afii10090" unicode="&#x448;" horiz-adv-x="1587" 
d="M135 0v897h232v-698h309v698h233v-698h310v698h233v-897h-1317z" />
    <glyph glyph-name="afii10091" unicode="&#x449;" horiz-adv-x="1665" 
d="M135 0v897h232v-698h309v698h233v-698h310v698h233v-698h164v-449h-232v250h-1249z" />
    <glyph glyph-name="afii10092" unicode="&#x44a;" horiz-adv-x="1087" 
d="M782 297q0 121 -149 121l-172 -2v-240h143q178 0 178 121zM651 594q375 0 375 -282q0 -144 -90 -228t-272 -84h-435v702h-209v195h441v-305z" />
    <glyph glyph-name="afii10093" unicode="&#x44b;" horiz-adv-x="1431" 
d="M688 297q0 121 -149 121l-172 -2v-240h143q178 0 178 121zM557 594q375 0 375 -282q0 -144 -90 -228t-273 -84h-434v897h232v-305zM1063 0v897h233v-897h-233z" />
    <glyph glyph-name="afii10094" unicode="&#x44c;" horiz-adv-x="993" 
d="M688 297q0 121 -149 121l-172 -2v-240h143q178 0 178 121zM557 594q375 0 375 -282q0 -144 -90 -228t-273 -84h-434v897h232v-305z" />
    <glyph glyph-name="afii10095" unicode="&#x44d;" horiz-adv-x="937" 
d="M365 922q239 0 363 -134.5t124 -339.5t-127 -339t-346 -134q-158 0 -266 50v206q116 -65 234 -65q117 0 181 56.5t80 148.5h-403v164h403q-16 90 -82 144t-160 54q-143 0 -251 -67v200q119 56 250 56z" />
    <glyph glyph-name="afii10096" unicode="&#x44e;" horiz-adv-x="1529" 
d="M1214 450q0 111 -71 188t-172 77t-170.5 -77t-69.5 -190t71.5 -190.5t173.5 -77.5q101 0 169.5 79.5t68.5 190.5zM367 371v-371h-232v897h232v-334h143q38 159 166.5 259t314.5 100t323.5 -133.5t137.5 -334.5t-138 -341t-338 -140q-192 0 -322 109.5t-154 288.5h-133z
" />
    <glyph glyph-name="afii10097" unicode="&#x44f;" horiz-adv-x="1001" 
d="M336 600q0 -119 145 -119h154v238h-154q-72 0 -108.5 -33t-36.5 -86zM94 596q0 211 139.5 256t243.5 45h389v-897h-231v301h-78l-235 -301h-279l279 324q-102 23 -165 92t-63 180z" />
    <glyph glyph-name="afii10071" unicode="&#x451;" horiz-adv-x="1064" 
d="M745 543q0 87 -58 146t-152 60q-93 1 -151 -61t-67 -145h428zM541 -27q-192 0 -324 125q-133 125 -133 341q0 215 130 350t325 135q196 0 320 -124t124 -337l-2 -76h-666q4 -97 73 -164t175 -67q146 0 248 127l154 -109q-155 -199 -424 -201zM332 1108q-59 0 -101 42
q-41 42 -41 101t41 101t101 41q60 0 101 -41q42 -40 42 -100t-42 -102t-101 -42zM743 1108q-59 0 -101 42t-42 101t42 101t101 41q59 0 101 -41q42 -40 41 -100q1 -60 -41 -102t-101 -42z" />
    <glyph glyph-name="afii10099" unicode="&#x452;" horiz-adv-x="1105" 
d="M743 526q0 191 -165 191q-84 -1 -144 -61t-61 -177v-479h-232v1028h-125v178h125v328h232v-328h258v-178h-258v-246q41 53 113 95.5t158 42.5q330 0 331 -345v-671q0 -154 -78 -248t-250 -94l-69 4v194q12 -4 45 -4q120 0 120 146v624z" />
    <glyph glyph-name="afii10100" unicode="&#x453;" horiz-adv-x="753" 
d="M723 700h-354v-700h-234v897h588v-197zM524 1444l185 -139l-326 -263l-133 97z" />
    <glyph glyph-name="afii10101" unicode="&#x454;" horiz-adv-x="937" 
d="M84 440.5q0 202.5 129 342t354 139.5q141 0 256 -54v-202q-120 67 -231 67q-112 0 -180 -53t-84 -145h405v-164h-405q16 -90 79.5 -147.5t171.5 -57.5t172 28.5t74 34.5v-204q-131 -50 -258 -50t-214 36t-178 131.5t-91 298z" />
    <glyph glyph-name="afii10102" unicode="&#x455;" horiz-adv-x="835" 
d="M522 240q0 41 -30.5 63.5t-77.5 40.5t-178.5 66t-131.5 231q0 115 88.5 198t218.5 83t206.5 -43t121.5 -136l-186 -84q-44 86 -133 86q-39 0 -67.5 -22.5t-28.5 -62.5t31.5 -64.5t78.5 -42.5t180.5 -66t133.5 -227q0 -124 -94.5 -203.5t-235.5 -79.5t-219 44.5
t-125 136.5l188 98q52 -98 150 -98q47 0 78.5 20.5t31.5 61.5z" />
    <glyph glyph-name="afii10103" unicode="&#x456;" horiz-adv-x="507" 
d="M137 897h234v-897h-234v897zM254 1100q-61 0 -106.5 44t-45.5 106t45.5 106.5t106.5 44.5t105 -44.5t44 -106.5t-44 -106t-105 -44z" />
    <glyph glyph-name="afii10104" unicode="&#x457;" horiz-adv-x="593" 
d="M138 1116q-56 0 -95 39t-39 95t39 95t95 39t95 -39t39 -95t-39 -95t-95 -39zM456 1116q-56 0 -95 39t-39 95t39 95t95 39t95 -39t39 -95t-39 -95t-95 -39zM180 897h234v-897h-234v897z" />
    <glyph glyph-name="afii10105" unicode="&#x458;" horiz-adv-x="507" 
d="M137 897h234v-1309h-234v1309zM254 1100q-61 0 -106.5 44t-45.5 106t45.5 106.5t106.5 44.5t105 -44.5t44 -106.5t-44 -106t-105 -44z" />
    <glyph glyph-name="afii10106" unicode="&#x459;" horiz-adv-x="1529" 
d="M1225 297q0 121 -150 121l-162 -2v-240h134q178 0 178 121zM1094 594q374 0 374 -282q0 -144 -90 -228t-272 -84h-424v700h-260v-323q0 -193 -76.5 -293t-253.5 -100l-55 4v188h31q123 0 122 146v575h723v-305z" />
    <glyph glyph-name="afii10107" unicode="&#x45a;" horiz-adv-x="1564" 
d="M1260 297q0 121 -150 121l-162 -2v-240h133q179 0 179 121zM1128 594q375 0 375 -282q0 -144 -90 -228t-272 -84h-426v397h-348v-397h-232v897h232v-319h348v319h233v-305z" />
    <glyph glyph-name="afii10108" unicode="&#x45b;" horiz-adv-x="1105" 
d="M743 526q0 191 -165 191q-84 -1 -144 -61t-61 -177v-479h-232v1028h-125v178h125v328h232v-328h258v-178h-258v-246q41 53 113 95.5t158 42.5q330 0 331 -345v-575h-232v526z" />
    <glyph glyph-name="afii10109" unicode="&#x45c;" horiz-adv-x="997" 
d="M367 0h-232v897h232v-385l313 385h293l-373 -422l389 -475h-307l-315 416v-416zM637 1444l184 -139l-325 -263l-134 97z" />
    <glyph glyph-name="afii10110" unicode="&#x45e;" horiz-adv-x="1044" 
d="M414 43l-410 854h270l162 -362q43 -96 67 -154q25 -59 38 -88q19 43 92 223l162 381h245l-594 -1309h-245zM399 1425q0 -176 131 -176q74 0 110 49t36 127h188q0 -189 -92 -282t-246 -91q-154 1 -234 97t-81 276h188z" />
    <glyph glyph-name="afii10193" unicode="&#x45f;" horiz-adv-x="1101" 
d="M666 0v-289h-230v289h-301v897h232v-700h368v700h232v-897h-301z" />
    <glyph glyph-name="afii10050" unicode="&#x490;" horiz-adv-x="950" 
d="M672 1763h241v-542h-491v-1221h-254v1452h504v311z" />
    <glyph glyph-name="afii10098" unicode="&#x491;" horiz-adv-x="753" 
d="M367 700v-700h-232v897h363v215h223v-412h-354z" />
    <glyph glyph-name="endash" unicode="&#x2013;" horiz-adv-x="1124" 
d="M45 639h1036v-197h-1036v197z" />
    <glyph glyph-name="emdash" unicode="&#x2014;" horiz-adv-x="2048" 
d="M0 637h2048v-193h-2048v193z" />
    <glyph glyph-name="quoteleft" unicode="&#x2018;" horiz-adv-x="503" 
d="M334 1221q0 -52 24.5 -107.5t24.5 -102.5q0 -46 -41 -89t-104.5 -43t-108.5 45.5t-45 155.5t80 226.5t215 217.5l84 -99q-129 -112 -129 -204z" />
    <glyph glyph-name="quoteright" unicode="&#x2019;" horiz-adv-x="503" 
d="M160 1137q0 41 -24.5 99.5t-24.5 107.5q0 48 39.5 90.5t103.5 42.5t110 -46.5t46 -154.5t-80 -225t-215 -217l-84 96q129 116 129 207z" />
    <glyph glyph-name="quotesinglbase" unicode="&#x201a;" horiz-adv-x="503" 
d="M162 -66q0 52 -17.5 94t-25.5 63t-8 65t41 86.5t104 42.5t109.5 -46t46.5 -155t-81 -225.5t-216 -216.5l-84 96q131 117 131 196z" />
    <glyph glyph-name="quotedblleft" unicode="&#x201c;" horiz-adv-x="880" 
d="M324 1223q0 -48 16 -84.5t24.5 -57t8.5 -63.5t-39 -84t-98.5 -41t-104.5 44.5t-45 150.5t72.5 217.5t191.5 210.5l88 -91q-114 -105 -114 -202zM717 1223q0 -50 24.5 -103t24.5 -99t-40 -87t-99.5 -41t-103.5 44.5t-44 150.5t73 217.5t189 210.5l88 -91
q-112 -104 -112 -202z" />
    <glyph glyph-name="quotedblright" unicode="&#x201d;" horiz-adv-x="880" 
d="M164 1147q0 43 -24.5 96t-24.5 101t39 89.5t98 41.5t104 -45.5t45 -149.5t-72.5 -216t-191.5 -210l-88 88q115 106 115 205zM555 1147q0 47 -24.5 97.5t-24.5 98.5q0 49 40 90.5t99.5 41.5t103.5 -45.5t44 -149.5t-73 -216t-190 -210l-88 88q113 104 113 205z" />
    <glyph glyph-name="quotedblbase" unicode="&#x201e;" horiz-adv-x="880" 
d="M164 -45q0 43 -24.5 96t-24.5 101t39 89.5t98 41.5t104 -45t45 -150t-72.5 -217.5t-191.5 -210.5l-88 90q115 106 115 205zM555 -45q0 47 -24.5 97.5t-24.5 98.5q0 49 40 90.5t99.5 41.5t103.5 -45t44 -150t-73 -217.5t-190 -210.5l-88 90q113 104 113 205z" />
    <glyph glyph-name="dagger" unicode="&#x2020;" horiz-adv-x="1185" 
d="M475 860h-409v232h409v510h240v-510h405v-234h-405v-1077h-240v1079z" />
    <glyph glyph-name="daggerdbl" unicode="&#x2021;" horiz-adv-x="1165" 
d="M475 227h-409v232h409v463h-409v229h409v451h240v-451h405v-231h-405v-461h405v-232h-405v-446h-240v446z" />
    <glyph glyph-name="bullet" unicode="&#x2022;" horiz-adv-x="694" 
d="M348.5 420q-61.5 0 -115 23.5t-93.5 63.5t-63.5 94t-23.5 115.5t23.5 115t63.5 93.5t93.5 63.5t115 23.5t115.5 -23.5t94 -63.5t63.5 -93.5t23.5 -115t-23.5 -115.5t-63.5 -94t-94 -63.5t-115.5 -23.5z" />
    <glyph glyph-name="ellipsis" unicode="&#x2026;" horiz-adv-x="1642" 
d="M266.5 -25q-63.5 0 -108.5 45.5t-45 109.5t45 109.5t108.5 45.5t109.5 -45.5t46 -109.5t-46 -109.5t-109.5 -45.5zM806 -25q-64 0 -109.5 45.5t-45.5 109.5t45 109.5t110 45.5t110 -45.5t45 -109.5t-45.5 -109.5t-109.5 -45.5zM1344 -25q-64 0 -109 45.5t-45 109.5
t45 109.5t109 45.5t109.5 -45.5t45.5 -109.5t-45.5 -109.5t-109.5 -45.5z" />
    <glyph glyph-name="perthousand" unicode="&#x2030;" horiz-adv-x="2334" 
d="M373 1307q-125 1 -125 -263t125 -264q53 0 89 57.5t36 204.5q0 265 -125 265zM1247 672q-125 0 -125 -264t125 -263q53 0 89 58.5t36 204.5q0 264 -125 264zM1952 672q-125 0 -125 -264t125 -263q53 0 89 58.5t36 204.5q0 264 -125 264zM371 614q-139 0 -220 103.5
t-81 318.5t80 323.5t226 108.5t221 -108t75 -316t-81 -319t-220 -111zM1153 1520l141 -78l-837 -1516l-142 78zM1245 -20q-139 0 -219 103t-80 319t80 325t225 109t220 -110t75 -318t-81 -318t-220 -110zM1950 -20q-139 0 -220 103t-81 319t80.5 325t226.5 109t220.5 -110
t74.5 -318t-81 -318t-220 -110z" />
    <glyph glyph-name="guilsinglleft" unicode="&#x2039;" horiz-adv-x="593" 
d="M51 461l318 457l147 -99l-252 -352l254 -338l-156 -94z" />
    <glyph glyph-name="guilsinglright" unicode="&#x203a;" horiz-adv-x="593" 
d="M330 487l-254 338l155 97l312 -428l-318 -455l-147 96z" />
    <glyph glyph-name="fraction" unicode="&#x2044;" horiz-adv-x="290" 
d="M444 1513l146 -65l-762 -1514l-143 66z" />
    <glyph glyph-name="zerosuperior" unicode="&#x2070;" horiz-adv-x="794" 
d="M395 1319q-63 0 -97 -76q-34 -77 -34 -197t34 -195t96 -75t100 69q37 69 36 195q0 279 -135 279zM74 1042q0 192 87 309q87 115 241 115t235 -112q82 -112 83 -298q1 -185 -85 -307t-242 -122q-155 -1 -237 111t-82 304z" />
    <glyph glyph-name="foursuperior" unicode="&#x2074;" horiz-adv-x="768" 
d="M428 940v311l-180 -311h180zM604 1452v-510h119v-156h-119v-143h-176v143h-360v146l311 520h225z" />
    <glyph glyph-name="fivesuperior" unicode="&#x2075;" horiz-adv-x="681" 
d="M301 772q127 0 127 131q0 59 -33 99t-123 40t-170 -26l58 436h411v-162h-260l-12 -100h10l23 2q123 0 203 -73t79 -195q0 -203 -178 -274q-59 -24 -139 -24q-141 1 -242 91l62 135q90 -80 184 -80z" />
    <glyph glyph-name="sixsuperior" unicode="&#x2076;" horiz-adv-x="714" 
d="M358 774q55 0 84 33t29 86t-29 86t-82 33t-84 -33q-30 -33 -30 -87t28 -86t84 -32zM415 1151q96 0 167 -66t71 -181q0 -116 -84 -198q-84 -81 -220 -80t-212 80t-76 206t123 309q57 79 189 231h229q-16 -18 -45 -49q-129 -138 -219 -262q31 10 77 10z" />
    <glyph glyph-name="sevensuperior" unicode="&#x2077;" horiz-adv-x="653" 
d="M47 1292v160h567v-80l-331 -729h-207l309 649h-338z" />
    <glyph glyph-name="eightsuperior" unicode="&#x2078;" horiz-adv-x="737" 
d="M367 772q53 0 85 30t31 77t-33 79t-83 31q-51 0 -83 -32q-32 -31 -32 -77t31 -77t84 -31zM274 1230q0 -38 24 -66t70 -27q46 -1 70 25t25 65q0 39 -26 67q-25 28 -71 27q-46 0 -69 -27q-23 -26 -23 -64zM633 1234q0 -114 -90 -165q45 -16 84 -63q39 -48 39 -116
q0 -121 -85 -192t-216 -71q-199 0 -270 136q-23 45 -23 115t40 118t83 69q-37 23 -66 71t-29 101q0 98 74 164q74 65 191 65t193 -59t75 -173z" />
    <glyph glyph-name="ninesuperior" unicode="&#x2079;" horiz-adv-x="714" 
d="M354 1081q53 0 84 33t31 87t-29 86t-84 32t-84 -33q-28 -33 -28 -86t28 -86t82 -33zM300 942q-96 0 -166 65q-71 65 -72 181q-1 115 83 197t220 82q136 -1 213 -79q76 -79 76 -208t-124 -308q-45 -63 -96 -122t-92 -107h-229q14 18 71 79t193 230q-31 -10 -77 -10z" />
    <glyph glyph-name="minussuperior" unicode="&#x207b;" horiz-adv-x="819" 
d="M106 1116h605v-153h-605v153z" />
    <glyph glyph-name="parenleftsuperior" unicode="&#x207d;" horiz-adv-x="446" 
d="M102 1031q0 273 150 554l139 -45q-131 -268 -131 -506t129 -481l-139 -49q-148 254 -148 527z" />
    <glyph glyph-name="parenrightsuperior" unicode="&#x207e;" horiz-adv-x="448" 
d="M55 549q263 504 2 987l140 49q149 -259 149 -531t-151 -550z" />
    <glyph glyph-name="zeroinferior" unicode="&#x2080;" horiz-adv-x="794" 
d="M395 307q-63 0 -97 -76q-34 -77 -34 -197t34 -195t96 -75t100 69q37 69 36 196q0 278 -135 278zM74 32q0 192 87 308t240 115q153 0 236 -113q82 -113 83 -298t-85 -307t-242 -122q-155 0 -237 112q-82 113 -82 305z" />
    <glyph glyph-name="oneinferior" unicode="&#x2081;" horiz-adv-x="481" 
d="M193 274h-156v166h342v-809h-186v643z" />
    <glyph glyph-name="twoinferior" unicode="&#x2082;" horiz-adv-x="753" 
d="M481 175q0 52 -29 86q-30 34 -96 34t-92 -49t-20 -117h-178q-4 150 76 237q81 87 225 87t220 -77t79 -194q0 -145 -167 -293q-52 -45 -116 -92h297v-166h-600v93l219 202q105 97 144 147q38 50 38 102z" />
    <glyph glyph-name="threeinferior" unicode="&#x2083;" horiz-adv-x="724" 
d="M358 -240q55 0 85 32t30 78t-32 79t-111 33h-43v131h37q70 -1 100 29t29 72q0 42 -27 68t-73 26q-47 0 -73 -30q-26 -28 -22 -83h-172q2 117 73 189t201 71q130 0 202 -69q71 -70 71 -174t-96 -155q53 -18 88 -71q61 -93 18 -200t-155 -150q-56 -22 -132 -21
q-129 0 -208 74t-82 198h176q4 -127 116 -127z" />
    <glyph glyph-name="fourinferior" unicode="&#x2084;" horiz-adv-x="768" 
d="M428 -72v312l-180 -312h180zM604 440v-510h119v-155h-119v-144h-176v144h-360v145l311 520h225z" />
    <glyph glyph-name="fiveinferior" unicode="&#x2085;" horiz-adv-x="681" 
d="M301 -240q127 0 127 131q0 59 -33 99t-125 41q-92 0 -168 -27l58 436h411v-161h-260l-12 -101h10l23 2q123 0 203 -72t79 -196q0 -205 -178 -273q-59 -24 -139 -24q-138 0 -242 90l62 135q90 -80 184 -80z" />
    <glyph glyph-name="sixinferior" unicode="&#x2086;" horiz-adv-x="714" 
d="M358 -238q55 0 84 33t29 86t-29 86t-82 33t-84 -33q-30 -33 -30 -87t28 -86t84 -32zM415 139q95 0 166 -65q72 -65 72 -182q0 -116 -84 -198q-84 -81 -220 -80t-212 80t-76 206t123 309q57 79 189 231h229q-16 -18 -45 -49q-129 -138 -219 -262q31 10 77 10z" />
    <glyph glyph-name="seveninferior" unicode="&#x2087;" horiz-adv-x="653" 
d="M47 281v159h567v-80l-331 -729h-207l309 650h-338z" />
    <glyph glyph-name="eightinferior" unicode="&#x2088;" horiz-adv-x="737" 
d="M367 -240q53 0 85 30t31 77q0 47 -32 79q-33 32 -84 32t-83 -32t-32 -78t31 -77t84 -31zM274 218q0 -38 24 -66t70 -27q46 0 70 26q24 27 25 65q0 38 -26 66q-25 28 -71 28t-69 -28q-23 -26 -23 -64zM365 455q117 1 193 -59t75 -174q0 -114 -90 -165q45 -16 84 -63
q39 -48 39 -116q0 -122 -86 -192q-86 -71 -215 -71q-199 0 -270 136q-23 46 -23 116t40 118t83 68q-37 23 -66 71t-29 101q0 98 74 164t191 66z" />
    <glyph glyph-name="nineinferior" unicode="&#x2089;" horiz-adv-x="714" 
d="M354 70q53 0 84 32t31 87q0 54 -29 86t-84 32t-84 -33q-28 -33 -28 -86t28 -86q29 -32 82 -32zM364 455q138 0 214 -79t76 -208t-124 -307q-45 -63 -96 -123t-92 -107h-229q14 17 43 49q109 118 221 261q-84 -27 -166 7q-147 58 -150 224q0 120 82 202q84 81 221 81z" />
    <glyph glyph-name="parenleftinferior" unicode="&#x208d;" horiz-adv-x="446" 
d="M102 20q0 273 150 553l139 -45q-131 -268 -131 -506t129 -481l-139 -49q-148 255 -148 528z" />
    <glyph glyph-name="parenrightinferior" unicode="&#x208e;" horiz-adv-x="448" 
d="M55 -463q264 507 2 987l140 49q149 -259 149 -531t-151 -550z" />
    <glyph glyph-name="Euro" unicode="&#x20ac;" 
d="M92 469v172h156q-2 18 -2 23v59q0 55 2 78h-156v170h176q47 236 187.5 372t359.5 136q136 0 272 -54v-235q-133 72 -254 72q-233 0 -301 -291h359v-170h-379q-2 -18 -2 -23v-59q0 -55 2 -78h379v-172h-354q68 -279 292 -279q135 0 267 72v-233q-135 -56 -299 -56
q-221 0 -353.5 130t-177.5 366h-174z" />
    <glyph glyph-name="afii61352" unicode="&#x2116;" horiz-adv-x="2359" 
d="M2073 1090q0 82 -55.5 143t-140.5 61t-137 -60t-52 -145t57 -143.5t139 -58.5t135.5 60.5t53.5 142.5zM1591 812.5q-114 110.5 -114 276.5t117.5 278t286 112t287 -109.5t118.5 -274.5q0 -164 -116.5 -278.5t-290.5 -114.5t-288 110.5zM412 545v-545h-244v1452h231
l447 -694q141 -219 211 -348q-8 258 -8 493v549h243v-1452h-231l-447 690q-114 178 -211 348q9 -290 9 -493zM1497 393v197h770v-197h-770z" />
    <glyph glyph-name="trademark" unicode="&#x2122;" horiz-adv-x="1718" 
d="M229 1278h-182v174h561v-174h-180v-545h-199v545zM731 1452h262l146 -477l147 477h260l96 -719h-215l-45 486l-153 -486h-211l-148 486l-43 -486h-186z" />
    <glyph glyph-name="Omega" unicode="&#x2126;" horiz-adv-x="1681" 
d="M1192 1102q-137 143 -351 143t-351.5 -141.5t-137.5 -349.5q0 -169 93.5 -295t226.5 -178v-281h-547v227h260q-202 138 -248.5 289.5t-46.5 274.5t60.5 255t163 229t238.5 152.5t293 55.5t293 -54.5t237.5 -151.5t158.5 -231t57 -256t-50 -271t-259 -292h274v-227h-548
v281q135 54 228 176.5t93 311.5q0 190 -137 333z" />
    <glyph glyph-name="arrowleft" unicode="&#x2190;" horiz-adv-x="2048" 
d="M2048 731v-229h-1526l615 -586l-172 -172l-873 872l873 873l172 -172l-615 -586h1526z" />
    <glyph glyph-name="arrowup" unicode="&#x2191;" horiz-adv-x="2048" 
d="M1139 -408h-230v1526l-585 -614l-172 172l872 872l872 -872l-172 -172l-585 614v-1526z" />
    <glyph glyph-name="arrowright" unicode="&#x2192;" horiz-adv-x="2048" 
d="M0 731h1526l-615 586l172 172l873 -873l-873 -872l-172 172l615 586h-1526v229z" />
    <glyph glyph-name="arrowdown" unicode="&#x2193;" horiz-adv-x="2048" 
d="M909 1640h230v-1525l585 614l172 -172l-872 -872l-872 872l172 172l585 -614v1525z" />
    <glyph glyph-name="uni2196" unicode="&#x2196;" horiz-adv-x="2048" 
d="M365 1276h1234v-244l-849 21l1079 -1080l-162 -161l-1079 1079l20 -850h-243v1235z" />
    <glyph glyph-name="uni2197" unicode="&#x2197;" horiz-adv-x="2048" 
d="M449 1276h1234v-1235h-243l20 850l-1079 -1079l-162 161l1079 1080l-849 -21v244z" />
    <glyph glyph-name="uni2198" unicode="&#x2198;" horiz-adv-x="2048" 
d="M1683 1192v-1235h-1234v244l849 -21l-1079 1080l162 161l1079 -1079l-20 850h243z" />
    <glyph glyph-name="uni2199" unicode="&#x2199;" horiz-adv-x="2048" 
d="M365 1192h243l-20 -850l1079 1079l162 -161l-1079 -1080l849 21v-244h-1234v1235z" />
    <glyph glyph-name="partialdiff" unicode="&#x2202;" horiz-adv-x="1155" 
d="M758 652q-70 72 -184 73q-114 0 -185 -78q-70 -78 -71 -195q-1 -118 71 -197t183 -79q110 0 183 79t73 202t-70 195zM1067 554q0 -266 -134 -424q-134 -157 -376 -157q-199 0 -336 135t-137 333t128 338q128 139 300 139q173 0 266 -87q-89 305 -374 444q-97 48 -216 71
l52 190q203 -37 357 -140q303 -201 417 -543q54 -161 53 -299z" />
    <glyph glyph-name="Delta" unicode="&#x2206;" horiz-adv-x="1452" 
d="M377 231h686l-252 658q-10 27 -24.5 65.5t-28 77.5t-24.5 73t-17 52q-12 -52 -47 -145.5t-45 -122.5zM594 1452h254l586 -1452h-1416z" />
    <glyph glyph-name="product" unicode="&#x220f;" horiz-adv-x="1742" 
d="M223 1223h-190v229h1677v-229h-192v-1635h-254v1635h-787v-1635h-254v1635z" />
    <glyph glyph-name="summation" unicode="&#x2211;" horiz-adv-x="1454" 
d="M129 1452h1229v-229h-924l475 -668l-491 -737h954v-230h-1247v197l502 766l-498 700v201z" />
    <glyph glyph-name="minus" unicode="&#x2212;" horiz-adv-x="1382" 
d="M94 696h1194v-215h-1194v215z" />
    <glyph glyph-name="radical" unicode="&#x221a;" horiz-adv-x="1284" 
d="M47 897h264l174 -430q49 -122 82 -238q7 50 92 279l418 1130h250l-637 -1638h-248z" />
    <glyph glyph-name="infinity" unicode="&#x221e;" horiz-adv-x="1468" 
d="M400 713q-58 0 -97 -37t-39 -90t39 -90t98 -37t109 35t104 88q-55 53 -106 92q-50 39 -108 39zM1068 457q58 0 97 38t39 92t-39 91t-99 37t-109 -37q-50 -37 -103 -90q53 -53 105 -92q51 -39 109 -39zM146 357q-99 90 -99 227t97 228t237 89q100 0 187 -54t165 -132
q175 184 352 184q144 0 241 -89t96 -225q-1 -137 -97 -227t-238 -90q-170 0 -352 187q-179 -183 -352 -185q-137 0 -237 87z" />
    <glyph glyph-name="integral" unicode="&#x222b;" horiz-adv-x="655" 
d="M213 1225q0 241 83 344t290 102h69v-182q-119 0 -167 -43t-48 -158v-1284q0 -244 -83 -345t-289 -99h-72v182q127 0 172 41t45 162v1280z" />
    <glyph glyph-name="approxequal" unicode="&#x2248;" horiz-adv-x="1382" 
d="M450 547q93 0 265 -66q66 -25 126 -45q59 -20 121 -20t132 32t116 68l109 -164q-120 -93 -273 -134q-52 -13 -128 -13t-195 45t-179 65q-186 62 -370 -79l-108 163q33 27 77 54q156 94 307 94zM450 958q96 0 265 -65q66 -25 126 -45q59 -20 121 -20t132 31q70 32 116 69
l109 -164q-120 -93 -257 -128q-136 -36 -256 1q-70 20 -136 45t-126 45q-132 44 -252 -11q-71 -32 -118 -69l-108 164q33 27 77 53q156 94 307 94z" />
    <glyph glyph-name="notequal" unicode="&#x2260;" horiz-adv-x="1382" 
d="M84 276v216h453l88 202h-541v213h633l110 256h207l-112 -256h374v-213h-467l-88 -202h555v-216h-649l-117 -268h-204l116 268h-358z" />
    <glyph glyph-name="lessequal" unicode="&#x2264;" horiz-adv-x="1382" 
d="M123 215h1137v-215h-1137v215zM123 963l1137 415v-237l-887 -289l887 -283v-247l-1137 413v228z" />
    <glyph glyph-name="greaterequal" unicode="&#x2265;" horiz-adv-x="1382" 
d="M123 215h1137v-215h-1137v215zM123 559l887 289l-887 282v248l1137 -413v-228l-1137 -415v237z" />
    <glyph glyph-name="lozenge" unicode="&#x25ca;" horiz-adv-x="1349" 
d="M989 725l-315 408l-314 -408l314 -408zM78 725l596 770l598 -770l-598 -770z" />
    <glyph glyph-name="circle" unicode="&#x25cb;" horiz-adv-x="2048" 
d="M1024 -262q164 0 309 62t253 170t170 253t63 309q-1 164 -63 310t-170 253q-108 108 -253 170t-309 62t-309 -62t-253 -170t-170 -253q-62 -146 -62 -310t62 -309t170 -253t253 -170t309 -62zM138 19q-138 234 -138 512q0 277 137 513t375 375q237 139 512 137
q211 0 398 -80q188 -80 326 -220q138 -138 219 -325t81 -399q0 -275 -137 -511t-374 -374q-236 -139 -513 -139t-512 138q-236 139 -374 373z" />
    <glyph glyph-name="H18533" unicode="&#x25cf;" horiz-adv-x="2048" 
d="M138 19q-138 234 -138 512q0 277 137 513t375 375q237 139 512 137q211 0 398 -80q188 -80 326 -220q138 -138 219 -325t81 -399q0 -275 -137 -511t-374 -374q-236 -139 -513 -139t-512 138q-236 139 -374 373z" />
    <glyph glyph-name="uni25DC" unicode="&#x25dc;" horiz-adv-x="1024" 
d="M0 561q0 207 77 383t212 305t319 202t400 73h16v-201h-18q-164 0 -304 -59q-282 -119 -398 -407q-56 -140 -56 -304v-21h-248v29z" />
    <glyph glyph-name="uni25DD" unicode="&#x25dd;" horiz-adv-x="1024" 
d="M776 553q0 330 -214 548q-101 103 -240 163t-304 59h-18v201h16q216 0 400 -73t319 -202t212 -305t77 -383v-29h-248v21z" />
    <glyph glyph-name="uni25DE" unicode="&#x25de;" horiz-adv-x="1024" 
d="M0 -258h18q164 0 304 59q282 119 398 407q56 140 56 304v20h248v-28q0 -207 -77 -383t-212 -305t-319 -202t-400 -73h-16v201z" />
    <glyph glyph-name="uni25DF" unicode="&#x25df;" horiz-adv-x="1024" 
d="M0 532h248v-20q0 -330 214 -548q101 -102 240 -162t304 -60h18v-201h-16q-216 0 -400 73t-319 202t-212 305t-77 383v28z" />
    <glyph glyph-name="Commaaccent" horiz-adv-x="1024" 
d="M451 -324q0 32 -27 73t-27 82q0 42 35 74t94.5 32t96 -42.5t36.5 -118.5t-62 -157.5t-171 -153.5l-72 72q97 83 97 139z" />
    <glyph glyph-name="Hungarumlaut" horiz-adv-x="1024" 
d="M752 1939l182 -137l-293 -289l-129 95zM324 1946l180 -138l-258 -290l-129 94z" />
    <glyph glyph-name="Dotaccent" horiz-adv-x="1024" 
d="M511 1565q-67 0 -113 47.5t-46 113.5t46 112t113 46t114 -46t47 -113t-47 -113.5t-114 -46.5z" />
    <glyph glyph-name="Breve" horiz-adv-x="1024" 
d="M373 1905q0 -78 30.5 -116t102.5 -38q145 0 145 154h189q0 -182 -90.5 -268.5t-243.5 -86.5q-322 0 -322 355h189z" />
    <glyph glyph-name="Macron" horiz-adv-x="1024" 
d="M219 1790h584v-193h-584v193z" />
    <glyph glyph-name="Cedilla" horiz-adv-x="1024" 
d="M520 -72l180 -106l-249 -277l-138 109z" />
    <glyph glyph-name="Ring" horiz-adv-x="1024" 
d="M512 1591q41 0 68.5 28t27.5 69t-27.5 69.5t-68.5 28.5t-68.5 -28.5t-27.5 -69.5t27.5 -69t68.5 -28zM511 1468q-46 0 -87 16.5t-71.5 46.5t-48 69.5t-17.5 87t17.5 87.5t48 69.5t71.5 47t88 17.5t88 -17.5t71.5 -47t48 -69.5t17.5 -87.5t-18.5 -87t-49 -68.5
t-71.5 -46.5t-87 -17.5z" />
    <glyph glyph-name="Tilde" horiz-adv-x="1024" 
d="M111 1567q0 117 63.5 193.5t173.5 76.5q71 0 138 -37t100.5 -53t71.5 -16t60.5 25.5t22.5 70.5h172q0 -123 -67.5 -198t-177.5 -75q-65 0 -137 37t-106 54.5t-68 17.5t-56 -27.5t-22 -68.5h-168z" />
    <glyph glyph-name="Circumflex" horiz-adv-x="1024" 
d="M160 1667l352 186l352 -182l-88 -143l-264 125l-266 -125z" />
    <glyph glyph-name="Acute" horiz-adv-x="1024" 
d="M276 1638l291 246l181 -151l-359 -211z" />
    <glyph glyph-name="commaaccent" horiz-adv-x="962" 
d="M414 -324q0 32 -27 73t-27 82q0 42 35 74t94.5 32t97.5 -42.5t38 -118.5t-63.5 -157.5t-172.5 -153.5l-70 72q95 82 95 139z" />
    <glyph glyph-name="Dieresis" horiz-adv-x="1024" 
d="M307.5 1550q-59.5 0 -100.5 42t-41 101.5t41 100.5t100.5 41t101.5 -41t42 -100.5t-42 -101.5t-101.5 -42zM718.5 1550q-59.5 0 -101.5 42t-42 101.5t42 100.5t101.5 41t100.5 -41t41 -100.5t-41 -101.5t-100.5 -42z" />
    <glyph glyph-name="Caron.alt" horiz-adv-x="1024" 
d="M449 1221q0 31 -18.5 59.5t-27 45.5t-8.5 54t35 70t94.5 33t97 -42.5t37.5 -118.5t-63.5 -157.5t-171.5 -152.5l-70 69q95 82 95 140z" />
    <glyph glyph-name="zero.numerator" horiz-adv-x="794" 
d="M395 1319q-63 0 -97 -76q-34 -77 -34 -197t34 -195t96 -75t100 69q37 69 36 195q0 279 -135 279zM74 1042q0 192 87 309q87 115 241 115t235 -112q82 -112 83 -298q1 -185 -85 -307t-242 -122q-155 -1 -237 111t-82 304z" />
    <glyph glyph-name="zero.denominator" horiz-adv-x="794" 
d="M395 676q-63 0 -97 -76t-34 -196t34 -196q34 -75 96 -75t100 69q37 69 36 195q0 279 -135 279zM74 400q0 192 87 308t241 116t235 -113q82 -112 83 -298q1 -185 -85 -307t-242 -122q-155 0 -237 112t-82 304z" />
    <glyph glyph-name="zero.lf" horiz-adv-x="1273" 
d="M639 190q125 0 206 132.5t81 392.5q0 387 -108.5 468t-180.5 81q-137 0 -213 -145.5t-76 -391.5q0 -379 109.5 -458t181.5 -79zM629 -29q-133 0 -231.5 52.5t-166 149.5t-103.5 235.5t-36 396t149.5 466t405.5 208.5q255 0 395 -206.5t140 -533.5t-104.5 -484
t-210 -220.5t-238.5 -63.5z" />
    <glyph glyph-name="yen.lf" horiz-adv-x="1234" 
d="M152 332h342v160h-342v170h335l-464 790h290l312 -584l311 584h281l-476 -790h326v-170h-328v-160h328v-172h-328v-160h-245v160h-342v172z" />
    <glyph glyph-name="two.numerator" horiz-adv-x="753" 
d="M481 1186q0 53 -29 87q-30 34 -96 34q-66 1 -92 -49t-20 -117h-178q-4 151 76 237t226 86q145 0 220 -77t78 -193q0 -148 -167 -293q-52 -45 -116 -92h297v-166h-600v92l219 203q103 95 143 145q39 50 39 103z" />
    <glyph glyph-name="two.denominator" horiz-adv-x="753" 
d="M481 543q0 53 -29 87q-30 34 -96 34t-92 -50t-20 -116h-178q-4 150 76 236t226 87q145 0 220 -77t78 -193q0 -148 -167 -293q-52 -45 -116 -92h297v-166h-600v92l219 203q103 95 143 145q39 50 39 103z" />
    <glyph glyph-name="two.lf" horiz-adv-x="1185" 
d="M1085 223v-223h-970v102l393 433q160 176 208 254q48 79 64 131t17 108q1 98 -59 164t-180 66t-175 -92q-54 -91 -45 -224h-248q-6 260 124 399t360 139t356 -128q127 -129 127 -300q0 -172 -83 -311t-237 -292q-19 -34 -117 -126t-110 -104l130 4h445z" />
    <glyph glyph-name="three.numerator" horiz-adv-x="724" 
d="M358 772q55 0 85 32t30 78t-32 79t-111 32h-43v131h37q70 0 100 30t29 72q0 42 -27 68t-73 25q-47 0 -73 -29t-22 -84h-172q2 117 73 189q71 71 201 71t202 -68q71 -68 71 -174q0 -104 -96 -155q53 -17 88 -71q61 -93 18 -200t-155 -150q-56 -22 -132 -21
q-129 -1 -208 73t-82 199h176q4 -127 116 -127z" />
    <glyph glyph-name="three.denominator" horiz-adv-x="724" 
d="M358 129q55 0 85 32t30 78q0 47 -32 79t-111 32h-43v131h37q70 0 100 30t29 72q0 41 -27 67t-73 26q-47 0 -73 -29t-22 -84h-172q2 117 73 189t201 72t202 -70q71 -68 71 -172t-96 -156q53 -18 88 -72q61 -93 17 -200q-43 -108 -154 -149q-56 -22 -132 -21
q-129 0 -208 74t-82 198h176q4 -127 116 -127z" />
    <glyph glyph-name="Caron" horiz-adv-x="1024" 
d="M244 1864l270 -125l262 125l88 -142l-352 -184l-354 191z" />
    <glyph glyph-name="Grave" horiz-adv-x="1024" 
d="M455 1886l295 -246l-115 -114l-361 209z" />
    <glyph glyph-name="six.numerator" horiz-adv-x="714" 
d="M358 774q55 0 84 33t29 86t-29 86t-82 33t-84 -33q-30 -33 -30 -87t28 -86t84 -32zM415 1151q96 0 167 -66t71 -181q0 -116 -84 -198q-84 -81 -220 -80t-212 80t-76 206t123 309q57 79 189 231h229q-16 -18 -45 -49q-129 -138 -219 -262q31 10 77 10z" />
    <glyph glyph-name="six.denominator" horiz-adv-x="714" 
d="M358 131q55 0 84 33t29 86t-29 86t-82 33t-84 -33q-30 -33 -30 -87t28 -86t84 -32zM415 508q46 0 89 -18q149 -61 149 -224q0 -121 -84 -203q-84 -81 -220 -80t-212 79q-76 79 -76 207t123 309q42 59 189 231h229q-16 -18 -45 -49q-129 -138 -219 -262q31 10 77 10z" />
    <glyph glyph-name="six.lf" horiz-adv-x="1146" 
d="M753 265.5q70 75.5 70 178.5t-71.5 174.5t-173.5 71.5t-173 -73t-71 -177.5t71 -177t175 -72.5q103 0 173 75.5zM639 881q187 0 309.5 -119.5t122.5 -314.5t-143.5 -334.5t-358.5 -139.5t-351 134t-136 337q0 242 197 540t344 468h301q-131 -148 -196.5 -233.5
t-116.5 -151.5t-171 -242q103 56 199 56z" />
    <glyph glyph-name="seven.numerator" horiz-adv-x="653" 
d="M47 1292v160h567v-80l-331 -729h-207l309 649h-338z" />
    <glyph glyph-name="seven.denominator" horiz-adv-x="653" 
d="M47 649v160h567v-80l-331 -729h-207l309 649h-338z" />
    <glyph glyph-name="seven.lf" horiz-adv-x="1032" 
d="M53 1231v221h944v-96l-594 -1356h-278l559 1231h-631z" />
    <glyph glyph-name="periodsuperior" horiz-adv-x="421" 
d="M211 627q-47 1 -77 31t-30 76t30 76t77 30t77 -30t30 -76t-30 -77q-30 -30 -77 -30z" />
    <glyph glyph-name="period.numerator" horiz-adv-x="421" 
d="M211 627q-47 1 -77 31t-30 76t30 76t77 30t77 -30t30 -76t-30 -77q-30 -30 -77 -30z" />
    <glyph glyph-name="periodinferior" horiz-adv-x="421" 
d="M211 -385q-47 0 -77 31q-30 30 -30 76t30 76t77 30t77 -30t30 -76t-30 -76t-77 -31z" />
    <glyph glyph-name="period.denominator" horiz-adv-x="421" 
d="M211 -16q-47 0 -77 30t-30 77q0 46 30 76t77 30t77 -30t30 -76t-30 -77q-30 -30 -77 -30z" />
    <glyph glyph-name="periodcentered.case" horiz-adv-x="483" 
d="M240 596q-68 0 -116 48t-48 117t48 116t116 47t116 -47t47 -116q1 -69 -47 -117t-116 -48z" />
    <glyph glyph-name="parenright.numerator" horiz-adv-x="448" 
d="M55 549q263 504 2 987l140 49q149 -259 149 -531t-151 -550z" />
    <glyph glyph-name="parenright.denominator" horiz-adv-x="448" 
d="M55 -94q263 504 2 987l140 49q149 -259 149 -531t-151 -550z" />
    <glyph glyph-name="parenright.case" horiz-adv-x="589" 
d="M266 727q0 236 -57 469t-162 428l180 70q242 -449 242 -959q0 -279 -65 -517t-181 -466l-178 64q221 457 221 911z" />
    <glyph glyph-name="parenleft.numerator" horiz-adv-x="446" 
d="M102 1031q0 273 150 554l139 -45q-131 -268 -131 -506t129 -481l-139 -49q-148 254 -148 527z" />
    <glyph glyph-name="parenleft.denominator" horiz-adv-x="446" 
d="M102 388q0 273 150 554l139 -45q-131 -268 -131 -507t129 -480l-139 -49q-148 254 -148 527z" />
    <glyph glyph-name="parenleft.case" horiz-adv-x="589" 
d="M365 -248q-240 451 -240 961q0 511 244 981l178 -64q-219 -457 -219 -921t217 -887z" />
    <glyph glyph-name="one.numerator" horiz-adv-x="481" 
d="M193 1286h-156v166h342v-809h-186v643z" />
    <glyph glyph-name="sterling.lf" horiz-adv-x="1157" 
d="M82 172q231 129 231 298q0 87 -43 185h-180v160h113q-60 141 -61 238q-2 185 122 306q124 122 325 122t314 -81t166 -229l-221 -92q-61 205 -250 205q-90 0 -145 -55t-55 -137t20 -141q20 -58 55 -136h322v-160h-263q27 -76 27 -147q0 -142 -100 -236q69 -3 133 -29
t102 -37t92 -11q114 0 211 77l109 -192q-156 -107 -328 -107q-66 1 -116 15t-98 30q-46 16 -91 30t-96 15q-119 0 -207 -75z" />
    <glyph glyph-name="three.lf" horiz-adv-x="1132" 
d="M328 432q0 -113 58 -180.5t171 -67.5t170 69t57 166t-65.5 161.5t-200.5 64.5h-69v211h63q115 0 176.5 56.5t61.5 149.5t-53.5 150.5t-148.5 57.5t-144.5 -63.5t-45.5 -162.5h-239q-4 191 116 315t322 124t324.5 -115t122.5 -289q0 -117 -53.5 -196.5t-145.5 -120.5
q99 -24 170.5 -121.5t71.5 -198.5q0 -200 -130.5 -334.5t-344.5 -134.5q-215 0 -350.5 123t-135.5 336h242z" />
    <glyph glyph-name="caron.alt" horiz-adv-x="962" 
d="M416 1401q0 33 -28 72.5t-28 81.5t36 75t95.5 33t96.5 -41.5t37 -117.5t-62.5 -159t-171.5 -155l-72 72q97 83 97 139z" />
    <glyph glyph-name="nine.denominator" horiz-adv-x="714" 
d="M354 438q53 0 84 33t31 87t-29 86t-84 32t-84 -33q-28 -33 -28 -86t28 -86t82 -33zM300 299q-96 0 -166 65q-71 65 -72 181q-1 115 83 197t220 82q137 -1 213 -80t76 -208t-124 -307q-53 -74 -188 -229h-229q14 18 71 79t193 230q-31 -10 -77 -10z" />
    <glyph glyph-name="nine.lf" horiz-adv-x="1146" 
d="M743 834q70 72 70 178t-71 178t-174 72q-102 0 -173 -73t-71 -179t70 -177t175 -71q104 0 174 72zM518 571q-193 0 -316.5 121.5t-123.5 316.5t144 332.5t359 137.5t349.5 -134.5t134.5 -349.5t-104.5 -386.5t-224.5 -333.5t-156.5 -211.5t-51.5 -63.5h-303
q97 116 133.5 163.5t134 166.5t214.5 299q-89 -58 -189 -58z" />
    <glyph glyph-name="minus.numerator" horiz-adv-x="819" 
d="M106 1116h605v-153h-605v153z" />
    <glyph glyph-name="minusinferior" horiz-adv-x="819" 
d="M106 104h605v-153h-605v153z" />
    <glyph glyph-name="minus.denominator" horiz-adv-x="819" 
d="M106 473h605v-154h-605v154z" />
    <glyph glyph-name="minus.case" horiz-adv-x="1382" 
d="M94 866h1194v-215h-1194v215z" />
    <glyph glyph-name="hyphensuperior" horiz-adv-x="516" 
d="M80 1112h356v-145h-356v145z" />
    <glyph glyph-name="hyphen.numerator" horiz-adv-x="516" 
d="M80 1112h356v-145h-356v145z" />
    <glyph glyph-name="hypheninferior" horiz-adv-x="516" 
d="M80 100h356v-145h-356v145z" />
    <glyph glyph-name="hyphen.denominator" horiz-adv-x="516" 
d="M80 469h356v-145h-356v145z" />
    <glyph glyph-name="hyphen.case" horiz-adv-x="739" 
d="M88 856h563v-197h-563v197z" />
    <glyph glyph-name="four.numerator" horiz-adv-x="768" 
d="M428 940v311l-180 -311h180zM604 1452v-510h119v-156h-119v-143h-176v143h-360v146l311 520h225z" />
    <glyph glyph-name="four.denominator" horiz-adv-x="768" 
d="M428 297v311l-180 -311h180zM604 809v-510h119v-156h-119v-143h-176v143h-360v146l311 520h225z" />
    <glyph glyph-name="four.lf" horiz-adv-x="1155" 
d="M684 535v278q0 278 8 350q-8 -19 -35.5 -67.5t-41 -72.5t-21.5 -36l-283 -452h373zM932 1452v-915h180v-215h-180v-322h-250v322h-616v200l598 930h268z" />
    <glyph glyph-name="florin.lf" horiz-adv-x="921" 
d="M812 1276q-88 0 -114 -41q-27 -41 -47 -160l-41 -260h203l-25 -160h-202l-109 -690q-30 -185 -108 -281q-77 -96 -246 -96q-104 0 -160 13l31 198q46 -6 106 -6t90 46t48 155l104 661h-174l25 160h174l45 289q26 186 99 274q84 103 255 103q112 0 174 -15l-33 -198
q-47 8 -95 8z" />
    <glyph glyph-name="nine.numerator" horiz-adv-x="714" 
d="M354 1081q53 0 84 33t31 87t-29 86t-84 32t-84 -33q-28 -33 -28 -86t28 -86t82 -33zM300 942q-96 0 -166 65q-71 65 -72 181q-1 115 83 197t220 82q136 -1 213 -79q76 -79 76 -208t-124 -308q-45 -63 -96 -122t-92 -107h-229q14 18 71 79t193 230q-31 -10 -77 -10z" />
    <glyph glyph-name="five.numerator" horiz-adv-x="681" 
d="M301 772q127 0 127 131q0 59 -33 99t-123 40t-170 -26l58 436h411v-162h-260l-12 -100h10l23 2q123 0 203 -73t79 -195q0 -203 -178 -274q-59 -24 -139 -24q-141 1 -242 91l62 135q90 -80 184 -80z" />
    <glyph glyph-name="five.denominator" horiz-adv-x="681" 
d="M301 129q127 0 127 131q0 59 -33 99t-123 40t-170 -26l58 436h411v-162h-260l-12 -100h10l23 2q123 0 203 -73t79 -195q0 -203 -178 -274q-59 -23 -139 -23q-141 1 -242 90l62 135q90 -80 184 -80z" />
    <glyph glyph-name="five.lf" horiz-adv-x="1081" 
d="M465 190q112 0 190 78t78 200t-87 205t-225 83t-265 -43l96 739h659v-223h-462l-31 -285q38 6 112 6t162 -32.5t154.5 -92t104.5 -145.5t38 -248t-147 -310.5t-382 -148.5t-390 144l88 213q129 -140 307 -140z" />
    <glyph glyph-name="one.lf" horiz-adv-x="782" 
d="M358 1223h-268v229h516v-1452h-248v1223z" />
    <glyph glyph-name="one.denominator" horiz-adv-x="481" 
d="M193 643h-156v166h342v-809h-186v643z" />
    <glyph glyph-name="endash.case" horiz-adv-x="1124" 
d="M45 856h1036v-197h-1036v197z" />
    <glyph glyph-name="emdash.case" horiz-adv-x="2048" 
d="M0 836h2048v-152h-2048v152z" />
    <glyph glyph-name="eight.numerator" horiz-adv-x="737" 
d="M367 772q53 0 85 30t31 77t-33 79t-83 31q-51 0 -83 -32q-32 -31 -32 -77t31 -77t84 -31zM274 1230q0 -38 24 -66t70 -27q46 -1 70 25t25 65q0 39 -26 67q-25 28 -71 27q-46 0 -69 -27q-23 -26 -23 -64zM633 1234q0 -114 -90 -165q45 -16 84 -63q39 -48 39 -116
q0 -121 -85 -192t-216 -71q-199 0 -270 136q-23 45 -23 115t40 118t83 69q-37 23 -66 71t-29 101q0 98 74 164q74 65 191 65t193 -59t75 -173z" />
    <glyph glyph-name="eight.denominator" horiz-adv-x="737" 
d="M367 129q53 0 85 30t31 77q-1 46 -33 78t-83 32t-83 -32t-32 -78t31 -76q31 -31 84 -31zM274 586q0 -38 24 -64q24 -28 70 -28t70 26t25 64q0 38 -26 66q-25 28 -71 28t-69 -27t-23 -65zM633 591q0 -114 -90 -165q45 -16 84 -64t39 -116q0 -120 -85 -191t-216 -71
q-199 0 -270 136q-23 46 -23 116t40 117q40 48 83 69q-37 23 -66 71t-29 101q0 98 74 164t191 66t193 -60q76 -59 75 -173z" />
    <glyph glyph-name="eight.lf" horiz-adv-x="1173" 
d="M591 188q50 0 92 18.5t72.5 50.5t49 75t18.5 92t-18.5 91t-50 74t-73.5 50t-91 18t-91 -18t-73 -50t-49.5 -74t-18.5 -91t17.5 -91t48.5 -75t74 -51.5t93 -18.5zM738 1219q-63 61 -151 61q-87 0 -145.5 -59.5t-58.5 -143.5t60 -146.5t148 -62.5t149 59t61 145t-63 147z
M246 97q-137 122 -137 317q0 115 62 212t179 142q-96 47 -147 131t-51 173q0 178 125 295.5t313 117.5t315 -108.5t127 -282.5q0 -109 -53 -190t-150 -126q106 -37 174 -133.5t68 -201.5t-36 -187t-138.5 -181.5t-308.5 -99.5q-205 0 -342 122z" />
    <glyph glyph-name="dollar.lf" horiz-adv-x="999" 
d="M727 376q0 70 -38 114t-103 79v-381q68 16 104 68t37 120zM340 1077q0 -112 133 -188v371q-65 -18 -99 -68t-34 -115zM208 1328q102 114 261 138v183h121v-183q226 -19 354 -194l-151 -144q-84 113 -203 136v-433q74 -33 142 -69q234 -123 233 -363q0 -160 -103 -277
q-103 -116 -272 -140v-228h-121v223q-133 10 -238 75q-104 65 -170 171l160 146q86 -147 248 -183v439q-180 82 -241 145q-122 124 -122 284t102 274z" />
    <glyph glyph-name="commasuperior" horiz-adv-x="421" 
d="M211 840q47 0 77 -30t30 -102q-1 -139 -191 -264l-78 82q88 71 86 109q0 12 -14 39t-14 68q-1 42 28 70t76 28z" />
    <glyph glyph-name="comma.numerator" horiz-adv-x="421" 
d="M211 840q47 0 77 -30t30 -102q-1 -139 -191 -264l-78 82q88 71 86 109q0 12 -14 39t-14 68q-1 42 28 70t76 28z" />
    <glyph glyph-name="commainferior" horiz-adv-x="421" 
d="M211 -172q47 0 77 -30t30 -102q-1 -138 -191 -263l-78 82q88 71 86 108q0 14 -14 39t-14 68q-1 42 28 70t76 28z" />
    <glyph glyph-name="comma.denominator" horiz-adv-x="421" 
d="M211 197q47 0 77 -30q30 -29 30 -101q-1 -139 -191 -265l-78 82q88 71 86 109q0 12 -14 39t-14 68q-1 42 28 70t76 28z" />
    <glyph glyph-name="cent.lf" horiz-adv-x="1005" 
d="M346 723q0 -104 58 -182t157 -101v557q-98 -23 -157 -96q-58 -74 -58 -178zM688 0h-127v225q-208 12 -336 152q-129 140 -129 336q0 195 122 339q122 143 343 165v235h127v-238q99 -12 184 -47v-219q-95 46 -184 58v-574q98 14 189 68v-217q-86 -41 -189 -54v-229z" />
    <glyph glyph-name="bracketright.case" horiz-adv-x="706" 
d="M70 -45h233v1542h-231v178h444v-1902h-446v182z" />
    <glyph glyph-name="bracketleft.case" horiz-adv-x="706" 
d="M188 1675h445v-178h-230v-1542h232v-182h-447v1902z" />
    <glyph glyph-name="braceright.case" horiz-adv-x="776" 
d="M66 -68q121 0 171 54t50 172v145q0 213 29 273q29 61 66 89q38 28 97 46q-163 50 -186 218q-8 58 -8 140v205q0 127 -46 174t-173 47v178h84q196 0 278 -88t82 -280v-232q0 -141 34 -208t144 -66v-174q-105 0 -142 -60q-36 -60 -36 -217v-164q0 -229 -85 -322t-271 -91
h-88v161z" />
    <glyph glyph-name="cyrbreve" horiz-adv-x="962" 
d="M342 1425q0 -176 131 -176q74 0 109.5 49.5t35.5 126.5h189q0 -187 -90.5 -279.5t-246.5 -92.5q-155 0 -235.5 96t-80.5 276h188z" />
    <glyph glyph-name="cyrBreve" horiz-adv-x="1024" 
d="M373 1888q0 -78 30.5 -115.5t102.5 -37.5q145 0 145 153h189q0 -181 -90.5 -267.5t-243.5 -86.5q-322 0 -322 354h189z" />
    <glyph glyph-name="braceleft.case" horiz-adv-x="776" 
d="M262 375q0 151 -35 219t-145 68v172q108 0 144 60t36 206v196q0 199 88 289t281 90h74v-162q-117 0 -169 -50t-53 -165v-165q0 -196 -39 -274t-153 -114q116 -35 155 -116t39 -262v-185q0 -134 44 -182q44 -49 176 -49v-178h-97q-195 0 -269 88q-75 88 -77 315v199z" />
    <glyph glyph-name="Euro.lf" horiz-adv-x="1290" 
d="M49 449v182h172q-4 46 -4 89t4 89h-172v180h203q59 226 219.5 355t398.5 129q157 0 287 -41v-250q-139 61 -283 61q-263 0 -350 -254h381v-180h-416q-2 -23 -2 -28v-67q0 -61 5 -83h413v-182h-375q90 -240 353 -240q146 0 282 59v-243q-132 -48 -307 -48
q-258 0 -409.5 126t-202.5 346h-197z" />
    <glyph glyph-name="Tonos" horiz-adv-x="321" 
d="M47 1452h227l-36 -432h-154z" />
    </font>
</defs>
</svg>
