<?xml version="1.0" standalone="no"?>
<!DOCTYPE svg PUBLIC "-//W3C//DTD SVG 1.1//EN" "http://www.w3.org/Graphics/SVG/1.1/DTD/svg11.dtd" >
<svg xmlns="http://www.w3.org/2000/svg">
<metadata>
Created by FontPrep 20130207 at Tue Jan  6 21:55:07 2015
 By Victor
Copyright \(c\) 1998 Volkswagen AG.
</metadata>
<defs>
<font id="341de4d7013d5ddf9f1d18ed0ab31818" horiz-adv-x='1024' >
  <font-face 
    font-family="VWHeadline-Blk"
    font-weight="500"
    font-stretch="normal"
    units-per-em="2048"
    panose-1="0 0 0 0 0 0 0 0 0 0"
    ascent="1638"
    descent="-410"
    x-height="897"
    cap-height="1452"
    bbox="-119 -514 2071 1909"
    underline-thickness="40"
    underline-position="-246"
    unicode-range="U+000D-FB02"
  />
<missing-glyph horiz-adv-x="748" 
d="M136 68h408v1229h-408v-1229zM68 0v1365h544v-1365h-544z" />
    <glyph glyph-name=".notdef" horiz-adv-x="748" 
d="M136 68h408v1229h-408v-1229zM68 0v1365h544v-1365h-544z" />
    <glyph glyph-name="glyph1" horiz-adv-x="2048" 
 />
    <glyph glyph-name="glyph1" horiz-adv-x="2048" 
 />
    <glyph glyph-name="uni000D" unicode="&#xd;" horiz-adv-x="2048" 
 />
    <glyph glyph-name="space" unicode=" " horiz-adv-x="555" 
 />
    <glyph glyph-name="exclam" unicode="!" horiz-adv-x="651" 
d="M190 467v985h312v-985h-312zM164 160q0 75 53.5 128.5t128.5 53.5t128.5 -53.5t53.5 -128.5t-53.5 -129t-128.5 -54t-128.5 54t-53.5 129z" />
    <glyph glyph-name="quotedbl" unicode="&#x22;" horiz-adv-x="931" 
d="M539 1489h286l-49 -612h-186zM111 1489h286l-49 -612h-188z" />
    <glyph glyph-name="numbersign" unicode="#" horiz-adv-x="1392" 
d="M580 621h227l33 229h-228zM82 383v238h231l33 229h-199v237h232l51 365h266l-51 -365h227l52 365h266l-51 -365h182v-237h-215l-33 -229h182v-238h-215l-53 -383h-266l53 383h-227l-53 -383h-267l54 383h-199z" />
    <glyph glyph-name="dollar" unicode="$" horiz-adv-x="1071" 
d="M709 372q0 54 -27.5 90t-87.5 68v-303q55 13 85 52t30 93zM475 1214q-113 -34 -113 -143t113 -168v311zM84 1058q0 86 46.5 173t135 150.5t201.5 80.5v187h135v-183q214 -16 367 -159l-158 -199q-101 98 -209 113v-375q203 -81 279 -158t93 -147t17 -133
q0 -163 -108.5 -282.5t-280.5 -145.5v-226h-137v221q-238 19 -424 205l162 205q121 -121 262 -158v359q-227 92 -304 204t-77 268z" />
    <glyph glyph-name="percent" unicode="%" horiz-adv-x="1820" 
d="M1540 442q0 277 -129 277q-62 0 -98.5 -77.5t-36.5 -207.5q0 -272 131 -272q63 0 98 72t35 208zM1067 433q0 221 96.5 350.5t250.5 129.5t244.5 -116.5t90.5 -348.5t-100 -357.5t-255 -125.5t-241 123.5t-86 344.5zM459 4l745 1507l162 -69l-748 -1510zM537 1001
q0 277 -129 277q-62 0 -99 -77.5t-37 -207.5q0 -272 131 -272q63 0 98.5 72t35.5 208zM63 992q0 221 97 351t251 130t244 -117.5t90 -349.5t-100 -357t-255 -125t-241 123.5t-86 344.5z" />
    <glyph glyph-name="ampersand" unicode="&#x26;" horiz-adv-x="1355" 
d="M479 1108q0 -52 92 -164q127 98 127 172q0 54 -31 82.5t-77 28.5t-78.5 -33.5t-32.5 -85.5zM379 387q0 -60 39 -100.5t93 -40.5t80 16.5t33 20.5t10 7l22 18q17 14 35.5 30t25.5 22l-195 236q-82 -61 -112.5 -105t-30.5 -104zM86 379q0 101 67 198t212 211
q-152 171 -152 320t98 255.5t278 106.5q179 0 283.5 -94t104.5 -262t-219 -340l-27 -20l184 -222l183 160l174 -200l-189 -160l201 -240v-92h-268l-135 164q-111 -96 -206 -141.5t-196 -45.5q-172 0 -282.5 110t-110.5 292z" />
    <glyph glyph-name="quotesingle" unicode="'" horiz-adv-x="499" 
d="M111 1489h286l-49 -612h-188z" />
    <glyph glyph-name="parenleft" unicode="(" horiz-adv-x="614" 
d="M104 474q0 264 60 505.5t192 497.5l219 -78q-116 -232 -171.5 -451.5t-55.5 -468.5q0 -486 223 -874l-221 -84q-132 236 -189 462.5t-57 490.5z" />
    <glyph glyph-name="parenright" unicode=")" horiz-adv-x="614" 
d="M272 516q0 254 -60.5 481t-164.5 396l221 84q120 -217 183 -436t63 -511t-59 -521t-193 -488l-219 78q116 237 172.5 450t56.5 467z" />
    <glyph glyph-name="asterisk" unicode="*" horiz-adv-x="729" 
d="M33 1221l88 151l174 -131l-23 211h166l-16 -209l172 129l90 -145l-190 -101l192 -96l-90 -147l-170 125l16 -211h-172l23 213l-166 -129l-92 145l192 98z" />
    <glyph glyph-name="plus" unicode="+" 
d="M86 469v262h469v465h264v-465h467v-262h-467v-469h-264v469h-469z" />
    <glyph glyph-name="comma" unicode="," horiz-adv-x="514" 
d="M143 -63q0 53 -26.5 111.5t-26.5 94.5q0 74 49 124t123 50t124 -51.5t50 -138.5q0 -259 -317 -487l-92 106q116 102 116 191z" />
    <glyph glyph-name="hyphen" unicode="-" horiz-adv-x="772" 
d="M82 397v242h606v-242h-606z" />
    <glyph glyph-name="period" unicode="." horiz-adv-x="514" 
d="M80 139q0 73 52 125.5t126 52.5t126 -52.5t52 -125.5t-52 -125.5t-126 -52.5t-126 52.5t-52 125.5z" />
    <glyph glyph-name="slash" unicode="/" horiz-adv-x="1024" 
d="M0 0l825 1452h201l-829 -1452h-197z" />
    <glyph glyph-name="zero" unicode="0" horiz-adv-x="1282" 
d="M408 729q0 -229 62 -358t171 -129q233 0 233 477q0 306 -78 402t-157 96q-114 0 -172.5 -129.5t-58.5 -358.5zM92 722q0 358 153.5 560.5t409.5 202.5q167 0 351 -146.5t184 -619.5q0 -232 -89 -428.5t-227.5 -259t-257.5 -62.5q-242 0 -383 197.5t-141 555.5z" />
    <glyph glyph-name="one" unicode="1" horiz-adv-x="858" 
d="M78 1169v283h586v-1452h-316v1169h-270z" />
    <glyph glyph-name="two" unicode="2" horiz-adv-x="1204" 
d="M588 1483q118 0 213.5 -37t186.5 -133.5t91 -274.5q0 -126 -71 -275t-396 -495q99 6 201 6h285v-274h-987v90l409 492q141 169 190.5 260.5t49.5 175.5t-52.5 135t-146.5 51t-140 -75.5t-40 -200.5h-301q-7 266 131 410.5t377 144.5z" />
    <glyph glyph-name="three" unicode="3" horiz-adv-x="1210" 
d="M535 866q225 0 225 183q0 78 -48 127t-130 49t-125 -56t-41 -151h-299q-3 202 128 336.5t347 134.5t348.5 -120t132.5 -308q0 -100 -48.5 -180t-137.5 -127q99 -32 163 -126t64 -190t-34.5 -176.5t-98 -145.5t-163 -105t-211.5 -40q-222 0 -370.5 121.5t-146.5 372.5h295
q-12 -238 207 -238q99 0 147.5 56.5t48.5 144.5q0 182 -245 182h-66v256h58z" />
    <glyph glyph-name="four" unicode="4" horiz-adv-x="1218" 
d="M684 557v250q0 189 12 299q-77 -151 -112 -203l-228 -346h328zM68 299v264l596 889h329v-891h181v-262h-181v-299h-313v299h-612z" />
    <glyph glyph-name="five" unicode="5" horiz-adv-x="1144" 
d="M487 242q101 0 173.5 63t72.5 169t-83.5 180.5t-225.5 74.5t-268 -41l118 764h707v-278h-467l-27 -207q17 2 85 2t159.5 -31t164 -88.5t115 -148t42.5 -199.5t-39 -204t-111.5 -168.5t-184.5 -116t-232 -42.5q-232 0 -416 129l69 277q165 -135 348 -135z" />
    <glyph glyph-name="six" unicode="6" horiz-adv-x="1228" 
d="M408 458q0 -92 62.5 -156t155.5 -64t156.5 66t63.5 156t-63 154t-155 64t-156 -64t-64 -156zM96 469q0 122 46 244.5t158 293.5t327 445h370q-186 -212 -307 -382.5t-153 -213.5q52 30 91.5 39.5t98.5 9.5q179 0 302.5 -120t123.5 -308q0 -138 -70 -254t-195 -184
t-276 -68q-226 0 -371 134.5t-145 363.5z" />
    <glyph glyph-name="seven" unicode="7" horiz-adv-x="1116" 
d="M53 1178v274h1028v-92l-602 -1360h-352l543 1178h-617z" />
    <glyph glyph-name="eight" unicode="8" horiz-adv-x="1251" 
d="M457 1068q0 -72 49.5 -121.5t125.5 -49.5t127.5 49.5t51.5 121.5t-51.5 122.5t-127.5 50.5t-125.5 -50.5t-49.5 -122.5zM432 438q0 -82 55.5 -140t141.5 -58t142 56t56 140t-58 141.5t-140 57.5t-139.5 -57.5t-57.5 -139.5zM117 414q0 126 69 225t185 135
q-92 41 -145.5 124.5t-53.5 173.5q0 179 122 299t345 120q127 0 230.5 -46.5t166 -136.5t62.5 -199t-54.5 -190.5t-152.5 -127.5q113 -37 182.5 -136t69.5 -201t-37 -186.5t-102.5 -150t-163.5 -104t-224 -38.5t-241 53t-186.5 156.5t-71.5 229.5z" />
    <glyph glyph-name="nine" unicode="9" horiz-adv-x="1212" 
d="M381 996q0 -92 62 -156t156 -64t157 66t63 158t-64.5 154.5t-154.5 62.5t-154.5 -64.5t-64.5 -156.5zM78 981q0 142 74 258.5t195 180t261 63.5q238 0 380 -137.5t142 -362.5q0 -151 -65 -296.5t-205 -336.5l-258 -350h-373q149 181 239 300t224 300q-71 -51 -176 -51
q-188 0 -313 120t-125 312z" />
    <glyph glyph-name="colon" unicode=":" horiz-adv-x="600" 
d="M172 723q0 73 52 124.5t126 51.5t126 -51.5t52 -124.5t-52 -124.5t-126 -51.5t-126 51.5t-52 124.5zM172 141q0 73 52 124.5t126 51.5t126 -51.5t52 -124.5t-52 -124.5t-126 -51.5t-126 51.5t-52 124.5z" />
    <glyph glyph-name="semicolon" unicode=";" horiz-adv-x="618" 
d="M217 723q0 73 52 124.5t126 51.5t126 -51.5t52 -124.5t-52 -124.5t-126 -51.5t-126 51.5t-52 124.5zM281 -63q0 53 -27 111.5t-27 94.5q0 74 49 124t123 50t124 -51.5t50 -138.5q0 -259 -317 -487l-92 106q117 102 117 191z" />
    <glyph glyph-name="less" unicode="&#x3c;" 
d="M82 553v274l1167 498v-287l-803 -340l803 -329v-314z" />
    <glyph glyph-name="equal" unicode="=" 
d="M0 684v260h1372v-260h-1372zM0 254v262h1372v-262h-1372z" />
    <glyph glyph-name="greater" unicode="&#x3e;" 
d="M82 55v299l803 340l-803 330v301l1167 -498v-274z" />
    <glyph glyph-name="question" unicode="?" horiz-adv-x="1155" 
d="M426 156q0 74 52 126t126 52t126 -52t52 -126t-52.5 -126.5t-125.5 -52.5t-125.5 52.5t-52.5 126.5zM133 1012q0 206 125.5 338.5t345.5 132.5t348.5 -132.5t128.5 -307.5q0 -174 -87 -285t-246 -146v-153h-297v360h110q100 0 156.5 58.5t56.5 137.5t-56 135t-136 56
t-136.5 -56.5t-56.5 -137.5h-256z" />
    <glyph glyph-name="at" unicode="@" horiz-adv-x="2144" 
d="M817 566q0 -102 57.5 -173t151.5 -71t148.5 69t54.5 167t-58.5 168.5t-148.5 70.5t-147.5 -64.5t-57.5 -166.5zM88 561q0 202 79.5 386.5t213.5 317.5t319 212t394 79t391 -66.5t302.5 -179.5t187.5 -261t67 -284t-34.5 -277.5t-186.5 -253t-414 -111.5h-186v92
q-111 -117 -281 -117t-286.5 125t-116.5 334t125.5 348t302.5 139q85 0 152.5 -35t103.5 -94v105h270v-670q163 0 235 99.5t72 282.5t-119 342.5t-286 210t-306 50.5q-208 0 -383 -104.5t-275.5 -282.5t-100.5 -363t59 -329.5t160.5 -248.5t243.5 -165t289 -61t293.5 43.5
t254.5 112.5l96 -187q-268 -184 -637 -184q-275 0 -504 130.5t-362 359t-133 505.5z" />
    <glyph glyph-name="A" unicode="A" horiz-adv-x="1517" 
d="M549 567h403l-123 330q-43 116 -81 252q-37 -132 -80 -254zM6 0l572 1452h335l598 -1452h-350l-108 293h-602l-107 -293h-338z" />
    <glyph glyph-name="B" unicode="B" horiz-adv-x="1327" 
d="M471 887h139q103 0 150 47q47 46 47 114t-31 99t-64.5 41t-95.5 10h-145v-311zM471 256h193q256 0 256 188q0 90 -40 130t-84.5 50.5t-119.5 10.5h-205v-379zM164 0v1452h461q152 0 237.5 -26t169.5 -110t84 -235q0 -189 -160 -280q122 -24 200.5 -119.5t78.5 -230.5
q0 -196 -125 -318q-66 -67 -175.5 -100t-293.5 -33h-477z" />
    <glyph glyph-name="C" unicode="C" horiz-adv-x="1310" 
d="M78 717q0 156 55 296.5t151.5 243t237 161.5t334.5 59t358 -76v-342q-70 58 -173.5 94.5t-204.5 36.5q-189 0 -311 -126t-122 -343q0 -269 151 -365t292 -96q218 0 368 119v-324q-170 -86 -403 -86q-164 0 -303 59t-232.5 160.5t-145.5 237t-52 291.5z" />
    <glyph glyph-name="D" unicode="D" horiz-adv-x="1425" 
d="M475 256h88q208 0 320 109q133 133 133 363t-123 353q-67 67 -152 92t-194 25h-72v-942zM164 0v1452h411q374 0 562 -188q211 -211 211 -527q0 -317 -210 -527t-581 -210h-393z" />
    <glyph glyph-name="E" unicode="E" horiz-adv-x="1138" 
d="M164 0v1452h821v-285h-506v-286h496v-283h-496v-309h506v-289h-821z" />
    <glyph glyph-name="F" unicode="F" horiz-adv-x="1099" 
d="M164 0v1452h821v-285h-506v-286h504v-283h-504v-598h-315z" />
    <glyph glyph-name="G" unicode="G" horiz-adv-x="1622" 
d="M74 756q0 188 92 361.5t263.5 273.5t382.5 100t379.5 -85t268.5 -247l-256 -151q-142 196 -385 196q-206 0 -316 -136t-110 -335q0 -198 112.5 -343.5t342.5 -145.5q123 0 225 69.5t139 188.5h-389v270h729v-57q0 -321 -142.5 -477.5t-284 -214.5t-309.5 -58t-307.5 59
t-234 161t-147.5 242.5t-53 328.5z" />
    <glyph glyph-name="H" unicode="H" horiz-adv-x="1497" 
d="M164 0v1452h315v-571h539v571h315v-1452h-315v598h-539v-598h-315z" />
    <glyph glyph-name="I" unicode="I" horiz-adv-x="643" 
d="M164 0v1452h315v-1452h-315z" />
    <glyph glyph-name="J" unicode="J" horiz-adv-x="978" 
d="M512 494v958h311v-950q0 -167 -29 -260t-100 -164q-105 -105 -305 -105q-133 0 -241.5 78.5t-155.5 208.5l246 162q56 -158 165 -158q82 0 95.5 68t13.5 162z" />
    <glyph glyph-name="K" unicode="K" horiz-adv-x="1431" 
d="M164 0v1452h315v-653l486 653h381l-551 -692l569 -760h-395l-490 676v-676h-315z" />
    <glyph glyph-name="L" unicode="L" horiz-adv-x="1007" 
d="M164 0v1452h317v-1163h504v-289h-821z" />
    <glyph glyph-name="M" unicode="M" horiz-adv-x="1886" 
d="M76 0l198 1452h328l252 -700q53 -149 90 -301q55 209 86 294l254 707h322l202 -1452h-307l-88 788q-11 98 -14 263q-8 -28 -31.5 -114.5t-40.5 -135.5l-287 -801h-209l-282 782q-30 81 -74 258q0 -135 -14 -272l-82 -768h-303z" />
    <glyph glyph-name="N" unicode="N" horiz-adv-x="1583" 
d="M164 0v1452h287l489 -698q137 -196 203 -320q-14 174 -17 424l-4 594h297v-1452h-282l-506 719q-107 149 -195 291q14 -259 15 -330l14 -680h-301z" />
    <glyph glyph-name="O" unicode="O" horiz-adv-x="1665" 
d="M385 727q0 -128 57.5 -234.5t160 -168.5t228.5 -62q192 0 320.5 135t128.5 330q0 127 -58 233t-161.5 168t-229.5 62q-190 0 -318 -134.5t-128 -328.5zM61 722q0 156 61.5 298t165.5 244t246 162.5t297 60.5q211 0 388.5 -101t281 -277t103.5 -386q0 -155 -62 -296
t-166 -243t-246 -162.5t-300 -60.5t-301 59.5t-245.5 161t-162.5 243t-60 297.5z" />
    <glyph glyph-name="P" unicode="P" horiz-adv-x="1208" 
d="M834 995q0 187 -222 187h-135v-375h125q124 -1 178 53t54 135zM164 0v1452h416q165 0 274.5 -28.5t183.5 -102.5q119 -119 119 -319t-121 -320q-141 -141 -430 -141h-129v-541h-313z" />
    <glyph glyph-name="Q" unicode="Q" horiz-adv-x="1665" 
d="M385 727q0 -128 57.5 -234.5t160 -168.5t228.5 -62q55 0 125 17l-172 215l285 57l105 -129q106 125 106 305q0 127 -58 233t-161.5 168t-229.5 62q-190 0 -318 -134.5t-128 -328.5zM61 722q0 156 61.5 298t165.5 244t246 162.5t297 60.5q211 0 388.5 -101t281 -277
t103.5 -386q0 -156 -62.5 -297.5t-173.5 -247.5l209 -260l-285 -55l-137 170q-157 -72 -320 -72t-306 59.5t-245.5 161t-162.5 243t-60 297.5z" />
    <glyph glyph-name="R" unicode="R" horiz-adv-x="1273" 
d="M477 817h113q136 1 190 55t54 132q0 194 -250 194h-107v-381zM164 0v1452h448q293 0 417 -124t124 -294t-96 -283t-242 -135l418 -616h-373l-383 612v-612h-313z" />
    <glyph glyph-name="S" unicode="S" horiz-adv-x="1142" 
d="M829 1090q-86 139 -226 139q-68 0 -112.5 -45t-44.5 -102t33 -95.5t85.5 -66t162.5 -75.5t213.5 -139t103.5 -270q0 -107 -41 -197.5t-151 -184t-324 -93.5q-280 0 -469 205l199 227q68 -76 134 -121t145 -45t131.5 49t52.5 109t-25.5 97t-67 62.5t-95 53.5t-139 67.5
t-175.5 135t-90 240.5q0 144 65.5 244t172.5 153t233 53t238 -52.5t184 -140.5z" />
    <glyph glyph-name="T" unicode="T" horiz-adv-x="987" 
d="M25 1167v285h938v-281h-312v-1171h-315v1167h-311z" />
    <glyph glyph-name="U" unicode="U" horiz-adv-x="1488" 
d="M156 537v915h315v-897q0 -94 13.5 -142t54.5 -89q84 -84 209 -84q124 0 200 76t76 229v907h309v-881q0 -292 -157 -449t-435 -157q-135 0 -253 42.5t-195 119.5q-137 137 -137 410z" />
    <glyph glyph-name="V" unicode="V" horiz-adv-x="1443" 
d="M8 1452h348l277 -819q40 -117 86 -293q38 152 84 283l287 829h344l-545 -1452h-344z" />
    <glyph glyph-name="W" unicode="W" horiz-adv-x="2068" 
d="M39 1452h328l202 -793q38 -149 60 -323q27 191 59 332l172 784h350l179 -797q44 -195 61 -323q29 187 61 319l201 801h318l-424 -1452h-340l-181 801q-39 183 -59 315q-25 -176 -53 -315l-174 -801h-336z" />
    <glyph glyph-name="X" unicode="X" horiz-adv-x="1396" 
d="M2 0l541 762l-488 690h387l273 -436l284 436h375l-495 -684l516 -768h-371l-326 512l-325 -512h-371z" />
    <glyph glyph-name="Y" unicode="Y" horiz-adv-x="1292" 
d="M803 0h-316v649l-481 803h367l278 -553l283 553h354l-485 -790v-662z" />
    <glyph glyph-name="Z" unicode="Z" horiz-adv-x="1243" 
d="M74 1171v281h1122l-678 -1169h670v-283h-1186l678 1171h-606z" />
    <glyph glyph-name="bracketleft" unicode="[" horiz-adv-x="772" 
d="M174 -451v1903h528v-219h-260v-1456h263v-228h-531z" />
    <glyph glyph-name="backslash" unicode="\" horiz-adv-x="729" 
d="M4 1452h264l469 -1489h-264z" />
    <glyph glyph-name="bracketright" unicode="]" horiz-adv-x="772" 
d="M63 -223h267v1458h-264v217h528v-1901h-531v226z" />
    <glyph glyph-name="asciicircum" unicode="^" horiz-adv-x="1499" 
d="M233 639l418 813h215l400 -813h-285l-225 475l-240 -475h-283z" />
    <glyph glyph-name="underscore" unicode="_" horiz-adv-x="1028" 
d="M-20 -231h1069v-263h-1069v263z" />
    <glyph glyph-name="grave" unicode="`" horiz-adv-x="1228" 
d="M344 1282l227 170l291 -336l-168 -112z" />
    <glyph glyph-name="a" unicode="a" horiz-adv-x="1208" 
d="M375 444q0 -102 61 -173.5t160 -71.5t158 69.5t59 167.5t-62.5 168t-158.5 70t-156.5 -64t-60.5 -166zM76 441q0 212 120.5 348.5t325.5 136.5q91 0 167 -37t114 -96v104h289v-897h-289v92q-123 -123 -311 -123t-302 130t-114 342z" />
    <glyph glyph-name="b" unicode="b" horiz-adv-x="1206" 
d="M395 450q0 -96 56.5 -168.5t157.5 -72.5t158.5 68.5t57.5 164.5t-55.5 164t-155.5 68t-159.5 -64t-59.5 -160zM408 0h-291v1534h291v-754q117 142 300 142t302.5 -128t119.5 -344t-127.5 -345.5t-308.5 -129.5t-286 121v-96z" />
    <glyph glyph-name="c" unicode="c" horiz-adv-x="899" 
d="M622 217q115 0 193 68v-265q-135 -49 -273 -49t-248 65.5t-164 171.5t-54 216t32 195.5t92 154.5t156 110.5t227 41.5t232 -47v-263q-32 23 -90.5 40.5t-110.5 17.5q-101 0 -169 -61t-68 -161t65 -167.5t180 -67.5z" />
    <glyph glyph-name="d" unicode="d" horiz-adv-x="1210" 
d="M383 440q0 -101 61.5 -162t151.5 -61t152.5 71t62.5 170t-63.5 159.5t-153.5 60.5t-150.5 -68.5t-60.5 -169.5zM76 446q0 129 53.5 235t157 170t239.5 64q175 0 277 -102v719h291v-1532h-291v115q-63 -65 -135 -100t-176 -35q-192 0 -304 132t-112 334z" />
    <glyph glyph-name="e" unicode="e" horiz-adv-x="1081" 
d="M717 551q0 69 -47.5 121.5t-125.5 52.5t-128 -49t-58 -125h359zM985 174q-160 -207 -413 -207q-218 0 -318.5 87t-139 179.5t-38.5 208.5q0 211 131 349.5t339 138.5t334 -124.5t126 -344.5q0 -47 -2 -82h-648q5 -86 65 -142.5t152 -56.5q136 0 224 119z" />
    <glyph glyph-name="f" unicode="f" horiz-adv-x="665" 
d="M25 680v217h120v225q0 225 72 328.5t270 103.5q85 0 164 -14v-242q-51 7 -97 7t-72 -21q-28 -21 -37 -61t-9 -144v-182h203v-217h-203v-680h-291v680h-120z" />
    <glyph glyph-name="g" unicode="g" horiz-adv-x="1193" 
d="M375 452q0 -96 58.5 -158.5t154.5 -62.5t152.5 66.5t56.5 154.5t-56.5 156t-152.5 68t-154.5 -64t-58.5 -160zM516 922q193 0 272 -127v102h289v-813q0 -150 -26 -236t-93 -153q-141 -135 -389 -135q-205 0 -323.5 99t-118.5 251h289q0 -57 52 -95t120 -38q200 0 200 223
v127q-110 -121 -305 -121t-301 130t-106 323q0 194 123.5 328.5t316.5 134.5z" />
    <glyph glyph-name="h" unicode="h" horiz-adv-x="1118" 
d="M117 0v1534h291v-748q113 140 290 140q65 0 188.5 -46t123.5 -292v-588h-291v514q0 72 -35.5 116t-105.5 44t-120 -50t-50 -175v-449h-291z" />
    <glyph glyph-name="i" unicode="i" horiz-adv-x="536" 
d="M123 0v897h291v-897h-291zM92 1235q0 72 52 124t124 52t124 -52t52 -124t-52 -124t-124 -52t-124 52t-52 124z" />
    <glyph glyph-name="j" unicode="j" horiz-adv-x="536" 
d="M123 -412v1309h291v-1309h-291zM92 1235q0 72 52 124t124 52t124 -52t52 -124t-52 -124t-124 -52t-124 52t-52 124z" />
    <glyph glyph-name="k" unicode="k" horiz-adv-x="1069" 
d="M117 0v1534h291v-1006l282 369h357l-347 -414l371 -483h-381l-282 420v-420h-291z" />
    <glyph glyph-name="l" unicode="l" horiz-adv-x="524" 
d="M117 0v1534h291v-1534h-291z" />
    <glyph glyph-name="m" unicode="m" horiz-adv-x="1712" 
d="M408 764q102 156 278 156q98 0 167 -39t120 -129q121 166 311 166q228 0 274 -128.5t46 -224.5v-565h-291v496q0 176 -137 176q-55 0 -112.5 -41t-57.5 -160v-471h-291v496q0 176 -137 176q-55 0 -112.5 -41t-57.5 -160v-471h-291v897h291v-133z" />
    <glyph glyph-name="n" unicode="n" horiz-adv-x="1122" 
d="M723 496q0 176 -137 176q-55 0 -116.5 -41t-61.5 -160v-471h-291v897h291v-119q102 140 290 140q147 0 236 -89q43 -43 61.5 -103.5t18.5 -158.5v-567h-291v496z" />
    <glyph glyph-name="o" unicode="o" horiz-adv-x="1171" 
d="M369 444q0 -96 65.5 -160.5t155.5 -64.5t150.5 68t60.5 163t-63 160.5t-157 65.5t-153 -68t-59 -164zM76 448q0 206 142.5 344t365.5 138t367.5 -137t144.5 -335t-100.5 -303.5t-201.5 -146.5t-223 -41q-211 0 -353 137.5t-142 343.5z" />
    <glyph glyph-name="p" unicode="p" horiz-adv-x="1212" 
d="M397 432q0 -100 59.5 -165.5t159.5 -65.5t155.5 70.5t55.5 166.5t-55.5 165t-156.5 69t-159.5 -70t-58.5 -170zM706 922q192 0 311.5 -135.5t119.5 -326.5t-85 -296.5t-172 -147t-192 -41.5q-180 0 -280 115v-502h-291v1309h291v-115q106 140 298 140z" />
    <glyph glyph-name="q" unicode="q" horiz-adv-x="1212" 
d="M385 444q0 -99 57.5 -168t151.5 -69t157.5 59.5t63.5 163.5t-58.5 174t-156.5 70t-156.5 -65.5t-58.5 -164.5zM76 444q0 200 126 335.5t322 135.5q94 0 167.5 -36t113.5 -95v113h291v-1309h-291v504q-99 -117 -281 -117q-252 0 -350 158t-98 311z" />
    <glyph glyph-name="r" unicode="r" horiz-adv-x="698" 
d="M684 920v-293q-48 30 -119 30q-155 0 -155 -266v-391h-293v897h289v-141q86 164 261 164h17z" />
    <glyph glyph-name="s" unicode="s" horiz-adv-x="880" 
d="M438 180q43 0 67.5 16t24.5 44t-24 48t-62.5 34t-114.5 37.5t-155.5 83.5t-79.5 187q0 126 98 212t263 86q263 0 346 -211l-234 -90q-38 94 -125 94q-30 0 -53.5 -17.5t-23.5 -46.5t24 -50t63 -35.5t116.5 -39.5t156 -83.5t78.5 -187.5q0 -130 -105.5 -209t-262.5 -79
t-243.5 51.5t-128.5 161.5l246 97q18 -46 52 -74.5t77 -28.5z" />
    <glyph glyph-name="t" unicode="t" horiz-adv-x="618" 
d="M39 680v217h123v320h291v-320h165v-217h-165v-680h-291v680h-123z" />
    <glyph glyph-name="u" unicode="u" horiz-adv-x="1126" 
d="M109 428v469h290v-461q0 -105 37 -164t133 -59t127 62.5t31 152.5v469h291v-469q0 -125 -20.5 -203.5t-79.5 -136.5q-122 -121 -352 -121t-365 135q-49 49 -70.5 125.5t-21.5 200.5z" />
    <glyph glyph-name="v" unicode="v" horiz-adv-x="1105" 
d="M-2 897h328l172 -438q37 -95 65 -203q22 95 66 213l159 428h320l-397 -897h-318z" />
    <glyph glyph-name="w" unicode="w" horiz-adv-x="1748" 
d="M10 897h303l170 -432q17 -40 52 -158q31 116 43 154l151 436h299l141 -408q42 -127 52 -178q26 90 61 178l160 408h297l-400 -897h-274l-154 440q-27 80 -37 135q-13 -66 -36 -137l-154 -438h-287z" />
    <glyph glyph-name="x" unicode="x" horiz-adv-x="1105" 
d="M-2 0l375 459l-344 438h348q103 -143 180 -276q104 178 176 276h350l-342 -430l367 -467h-346q-117 169 -203 311q-87 -145 -213 -311h-348z" />
    <glyph glyph-name="y" unicode="y" horiz-adv-x="1116" 
d="M-2 897h332l166 -401q63 -160 75 -203q21 59 76 196l166 408h305l-569 -1309h-311l176 394z" />
    <glyph glyph-name="z" unicode="z" horiz-adv-x="972" 
d="M78 676v221h860l-446 -678h419v-219h-884l440 676h-389z" />
    <glyph glyph-name="braceleft" unicode="{" horiz-adv-x="798" 
d="M61 428v211q97 0 132.5 55.5t35.5 204.5v129q0 218 94 321t308 103h98v-186q-225 0 -225 -213v-133q0 -194 -42 -273t-173 -115q126 -35 171.5 -112t45.5 -219v-207q0 -125 41.5 -175t181.5 -50v-220h-115q-222 0 -303.5 99.5t-81.5 308.5v195q0 150 -34.5 213t-133.5 63
z" />
    <glyph glyph-name="bar" unicode="|" horiz-adv-x="471" 
d="M104 -514v2052h263v-2052h-263z" />
    <glyph glyph-name="braceright" unicode="}" horiz-adv-x="798" 
d="M61 -266q226 0 226 213v133q0 194 42 272.5t173 114.5q-126 35 -171.5 112.5t-45.5 219.5v207q0 66 -8 105t-42 79.5t-174 40.5v219h115q222 0 303.5 -99.5t81.5 -308.5v-194q0 -150 34.5 -213.5t133.5 -63.5v-211q-97 0 -132.5 -55.5t-35.5 -204.5v-129
q0 -218 -93.5 -321t-307.5 -103h-99v187z" />
    <glyph glyph-name="asciitilde" unicode="~" horiz-adv-x="1499" 
d="M967 410q-98 0 -224.5 70.5t-203.5 70.5q-110 0 -224 -125l-114 213q52 68 137.5 121t192.5 53t233.5 -71.5t197.5 -71.5q136 0 224 121l108 -218q-150 -163 -327 -163z" />
    <glyph glyph-name="uni00A0" unicode="&#xa0;" horiz-adv-x="555" 
 />
    <glyph glyph-name="exclamdown" unicode="&#xa1;" horiz-adv-x="651" 
d="M190 0v985h312v-985h-312zM164 1292q0 75 53.5 129t128.5 54t128.5 -54t53.5 -129t-53.5 -128.5t-128.5 -53.5t-128.5 53.5t-53.5 128.5z" />
    <glyph glyph-name="cent" unicode="&#xa2;" horiz-adv-x="1044" 
d="M403 718q0 -96 52 -168.5t137 -100.5v522q-86 -26 -137.5 -91.5t-51.5 -161.5zM592 1452h145v-217q17 -2 34.5 -5.5t30.5 -6t32 -8.5t27.5 -8.5t13.5 -4.5l43 -14v-260q-102 45 -181 53v-543q76 12 114.5 34.5t70.5 41.5v-258q-91 -45 -185 -57v-199h-145v193
q-218 8 -359 150t-141 380t151 371t349 147v211z" />
    <glyph glyph-name="sterling" unicode="&#xa3;" horiz-adv-x="1228" 
d="M100 651v174h101q-54 137 -54 262t109 263.5t397 138.5q356 0 494 -299l-285 -127q-34 95 -84 138.5t-130 43.5t-126.5 -42t-46.5 -98t6.5 -80.5t9.5 -41t28 -73.5t36 -87h270v-172h-217q31 -202 -96 -327q64 -2 154.5 -43t144.5 -41t100.5 16.5t116.5 65.5l141 -240
q-96 -58 -175 -86q-78 -28 -164 -29q-147 0 -255.5 48t-215.5 48t-195 -73l-101 237q307 154 209 424h-172z" />
    <glyph glyph-name="currency" unicode="&#xa4;" horiz-adv-x="1310" 
d="M49 434v217h184q-2 20 -2 66t2 71h-184v216h219q65 230 233.5 351.5t405.5 121.5q136 0 275 -33v-301q-143 47 -264 47q-225 0 -302 -186h342v-216h-385q-2 -20 -2 -67t2 -70h385v-217h-335q82 -174 305 -174q133 0 254 41v-293q-150 -39 -289 -39q-255 0 -414.5 117.5
t-216.5 347.5h-213z" />
    <glyph glyph-name="yen" unicode="&#xa5;" horiz-adv-x="1292" 
d="M1116 672v-195h-319v-141h319v-197h-319v-139h-303v139h-347v197h347v141h-347v195h336l-477 780h367l278 -537l283 537h354l-489 -780h317z" />
    <glyph glyph-name="brokenbar" unicode="&#xa6;" horiz-adv-x="471" 
d="M104 633v784h263v-784h-263zM104 391h263v-784h-263v784z" />
    <glyph glyph-name="section" unicode="&#xa7;" horiz-adv-x="1114" 
d="M379 616q0 -72 52 -124t124 -52t124 52t52 124t-52 124.5t-124 52.5t-124 -52.5t-52 -124.5zM74 45h305q0 -74 45 -117t124 -43t122 41.5t43 87.5t-26.5 74.5t-69 46.5t-97.5 39.5t-144 53t-181.5 125.5t-92.5 265q0 105 51 197.5t126 140.5q-58 35 -99 98.5t-41 141.5
q0 154 106 266.5t326 112.5t335.5 -99.5t115.5 -318.5h-283q0 95 -44.5 143t-115.5 48t-116 -40.5t-45 -96.5t32.5 -89t84.5 -55.5t156.5 -58t210.5 -121t106 -284.5t-181 -316q79 -29 131 -104t52 -155q0 -157 -122 -269.5t-352 -112.5t-346 117t-116 282z" />
    <glyph glyph-name="dieresis" unicode="&#xa8;" horiz-adv-x="1024" 
d="M694 1235q0 67 48 115.5t116 48.5t116 -48.5t48 -115.5t-48 -115.5t-116 -48.5t-116 48.5t-48 115.5zM240 1235q0 68 48 116t115 48t115.5 -48.5t48.5 -115.5t-48.5 -115.5t-115.5 -48.5t-115 48t-48 116z" />
    <glyph glyph-name="copyright" unicode="&#xa9;" horiz-adv-x="1714" 
d="M360 729q0 257 160.5 385.5t353.5 128.5q241 0 398 -168l-176 -180q-100 100 -221 100t-192 -72t-71 -192t73 -194t201 -74t210 94l176 -170q-160 -170 -398 -170q-144 0 -259.5 58t-185 176t-69.5 278zM211 725q0 -175 86.5 -323.5t235 -235t323.5 -86.5t323.5 86.5
t235 235t86.5 323.5t-86.5 323.5t-235 235t-323.5 86.5t-323.5 -86.5t-235 -235t-86.5 -323.5zM90 725q0 209 102.5 385t278.5 278.5t385 102.5t385 -102.5t278.5 -278.5t102.5 -385t-102.5 -385t-278.5 -278.5t-385 -102.5t-385 102.5t-278.5 278.5t-102.5 385z" />
    <glyph glyph-name="ordfeminine" unicode="&#xaa;" horiz-adv-x="1155" 
d="M381 1086q0 -74 43 -125.5t115 -51.5t113.5 50.5t41.5 120.5t-45 120.5t-113 50.5t-111.5 -45.5t-43.5 -119.5zM180 397v242h781v-242h-781zM117 1092q0 164 92.5 270t250.5 106t230 -104v88h258v-719h-258v64q-78 -90 -234 -90t-247.5 110.5t-91.5 274.5z" />
    <glyph glyph-name="guillemotleft" unicode="&#xab;" horiz-adv-x="983" 
d="M451 467l315 461l172 -111l-238 -344l240 -321l-176 -109zM53 457l326 473l162 -115l-238 -348l242 -320l-180 -112z" />
    <glyph glyph-name="logicalnot" unicode="&#xac;" 
d="M0 467v262h1372v-729h-264v467h-1108z" />
    <glyph glyph-name="uni00AD" unicode="&#xad;" horiz-adv-x="772" 
d="M82 397v242h606v-242h-606z" />
    <glyph glyph-name="registered" unicode="&#xae;" horiz-adv-x="1714" 
d="M772 993h39q115 0 115 101q0 42 -26.5 69t-86.5 27h-41v-197zM573 549v784h267q142 0 224.5 -63.5t82.5 -157.5t-37.5 -143t-120.5 -82l187 -338h-242l-150 313h-12v-313h-199zM313 932q0 -143 70.5 -264t192 -191.5t264.5 -70.5t264 70.5t191.5 191.5t70.5 264
t-70.5 264t-191.5 191.5t-264 70.5t-264.5 -70.5t-192 -191.5t-70.5 -264zM176 932q0 180 89 333t241.5 241.5t310.5 88.5t281 -52.5t211.5 -141t141 -211.5t52.5 -281t-88.5 -310.5t-241.5 -241.5t-333 -89t-333 89t-242 242t-89 333z" />
    <glyph glyph-name="macron" unicode="&#xaf;" horiz-adv-x="1024" 
d="M305 1090v237h602v-237h-602z" />
    <glyph glyph-name="degree" unicode="&#xb0;" horiz-adv-x="759" 
d="M252 1176q0 -52 37 -89.5t90 -37.5t90 37.5t37 89.5t-37 89.5t-90 37.5t-90 -37.5t-37 -89.5zM14 1176q0 148 107.5 252t257.5 104t257 -104t107 -252t-107 -252.5t-257 -104.5t-257.5 104.5t-107.5 252.5z" />
    <glyph glyph-name="plusminus" unicode="&#xb1;" 
d="M86 764v260h469v428h264v-428h467v-260h-467v-430h-264v430h-469zM86 0v262h1200v-262h-1200z" />
    <glyph glyph-name="uni00B2" unicode="&#xb2;" horiz-adv-x="806" 
d="M386 1466q130 0 204 -68.5t74 -164.5t-60.5 -174.5t-144.5 -155.5q36 6 41 6h172v-184h-555v80l211 235q70 77 93 114.5t23 67.5q0 60 -66 60t-65 -108h-211q-3 136 75.5 214t208.5 78z" />
    <glyph glyph-name="uni00B3" unicode="&#xb3;" horiz-adv-x="770" 
d="M436 1229q0 59 -59 59q-53 0 -55 -78h-205q3 114 72.5 185t189.5 71t194 -63.5t74 -155.5t-82 -147q45 -20 74 -64t29 -90q0 -96 -77 -167.5t-201 -71.5t-204 66t-84 198h205q0 -51 16.5 -70.5t54.5 -19.5q72 0 73 61q0 37 -24.5 56t-100.5 18v149q110 -2 110 64z" />
    <glyph glyph-name="acute" unicode="&#xb4;" horiz-adv-x="921" 
d="M356 1116l289 336l229 -170l-352 -278z" />
    <glyph glyph-name="uni00B5" unicode="&#xb5;" horiz-adv-x="1155" 
d="M125 -412v1309h291v-461q0 -105 37 -164t133 -59t126.5 63.5t30.5 151.5v469h291v-469q0 -125 -20.5 -203.5t-79.5 -136.5q-121 -121 -354 -121q-93 0 -164 41v-420h-291z" />
    <glyph glyph-name="paragraph" unicode="&#xb6;" 
d="M162 1030q0 168 127 295t307 127h633v-197h-121v-1599h-215v1599h-158v-1599h-215v934q-163 32 -260.5 152t-97.5 288z" />
    <glyph glyph-name="periodcentered" unicode="&#xb7;" horiz-adv-x="514" 
d="M66 594q0 76 55 131t131 55t131 -55t55 -131t-55 -131t-131 -55t-131 55t-55 131z" />
    <glyph glyph-name="cedilla" unicode="&#xb8;" horiz-adv-x="614" 
d="M174 -358l217 282l227 -104l-280 -305z" />
    <glyph glyph-name="uni00B9" unicode="&#xb9;" horiz-adv-x="608" 
d="M109 1266v186h344v-727h-220v541h-124z" />
    <glyph glyph-name="ordmasculine" unicode="&#xba;" horiz-adv-x="1175" 
d="M414 1082q0 -68 45 -113t109 -45t107.5 49t43.5 116t-44.5 113.5t-110.5 46.5t-108 -49.5t-42 -117.5zM180 397v242h781v-242h-781zM154 1088q0 164 116 274.5t294 110.5t297.5 -110t119.5 -268t-113 -275.5t-296 -117.5t-300.5 111t-117.5 275z" />
    <glyph glyph-name="guillemotright" unicode="&#xbb;" horiz-adv-x="983" 
d="M432 829l176 109l318 -430l-322 -467l-168 117l238 350zM37 158l244 350l-240 317l172 107l313 -424l-311 -465z" />
    <glyph glyph-name="onequarter" unicode="&#xbc;" horiz-adv-x="1507" 
d="M1096 313v121q0 7 1 32.5t1 33.5l-115 -187h113zM799 137v180l252 410h241v-412h80v-178h-80v-137h-198v137h-295zM221 8l752 1503l139 -71l-752 -1506zM109 1266v186h344v-727h-213v541h-131z" />
    <glyph glyph-name="onehalf" unicode="&#xbd;" horiz-adv-x="1507" 
d="M1086 741q130 0 204 -68.5t74 -164.5t-60.5 -174.5t-144.5 -155.5q36 6 41 6h172v-184h-555v80l211 235q70 78 93.5 116t23.5 67q0 59 -66 59q-35 0 -50.5 -25t-14.5 -83h-211q-3 136 75 214t208 78zM221 8l752 1503l139 -71l-752 -1506zM109 1266v186h344v-727h-213v541
h-131z" />
    <glyph glyph-name="threequarters" unicode="&#xbe;" horiz-adv-x="1740" 
d="M1329 313v121q0 50 2 66l-114 -187h112zM1032 137v180l252 410h242v-412h80v-178h-80v-137h-199v137h-295zM455 8l751 1503l140 -71l-752 -1506zM358 1165q111 -2 111 64q0 29 -16 44t-41 15q-56 0 -58 -78h-204q3 114 72.5 185t189.5 71t194 -63.5t74 -155.5t-82 -147
q45 -20 73.5 -64t28.5 -90q0 -96 -76 -167.5t-200 -71.5t-204.5 66t-84.5 198h205q0 -51 17 -70.5t55 -19.5q72 0 71 61q0 37 -24.5 56t-100.5 18v149z" />
    <glyph glyph-name="questiondown" unicode="&#xbf;" horiz-adv-x="1155" 
d="M414 1298q0 74 52.5 126.5t125.5 52.5t125.5 -52.5t52.5 -126.5t-52 -126t-126 -52t-126 52t-52 126zM449 995h296v-360h-110q-100 0 -156.5 -58.5t-56.5 -137.5t56 -135t136 -56t136.5 56.5t56.5 137.5h256q0 -206 -125.5 -338.5t-345.5 -132.5t-348.5 132.5
t-128.5 307.5q0 174 87.5 285t246.5 146v153z" />
    <glyph glyph-name="Agrave" unicode="&#xc0;" horiz-adv-x="1517" 
d="M549 567h403l-123 330q-43 116 -81 252q-37 -132 -80 -254zM471 1753l256 154l268 -271l-147 -110zM6 0l572 1452h335l598 -1452h-350l-108 293h-602l-107 -293h-338z" />
    <glyph glyph-name="Aacute" unicode="&#xc1;" horiz-adv-x="1517" 
d="M549 567h403l-123 330q-43 116 -81 252q-37 -132 -80 -254zM524 1632l267 269l258 -154l-377 -227zM6 0l572 1452h335l598 -1452h-350l-108 293h-602l-107 -293h-338z" />
    <glyph glyph-name="Acircumflex" unicode="&#xc2;" horiz-adv-x="1517" 
d="M549 567h403l-123 330q-43 116 -81 252q-37 -132 -80 -254zM377 1696l387 153l385 -145l-86 -184l-297 112l-305 -112zM6 0l572 1452h335l598 -1452h-350l-108 293h-602l-107 -293h-338z" />
    <glyph glyph-name="Atilde" unicode="&#xc3;" horiz-adv-x="1517" 
d="M549 567h403l-123 330q-43 116 -81 252q-37 -132 -80 -254zM334 1548q0 125 72 210t180 85q61 0 117.5 -23.5t105.5 -47t88 -23.5t60.5 23.5t21.5 60.5h209q0 -133 -75.5 -215t-190.5 -82q-55 0 -113 24.5t-110.5 49t-86.5 24.5t-54.5 -27t-20.5 -59h-203zM6 0l572 1452
h335l598 -1452h-350l-108 293h-602l-107 -293h-338z" />
    <glyph glyph-name="Adieresis" unicode="&#xc4;" horiz-adv-x="1517" 
d="M1090 1319q0 68 48 116t115 48t115.5 -48.5t48.5 -115.5t-48.5 -115.5t-115.5 -48.5t-115 48t-48 116zM549 567h403l-123 330q-43 116 -81 252q-37 -132 -80 -254zM76 1319q0 67 48 115.5t116 48.5t115.5 -48t47.5 -116t-47.5 -116t-115.5 -48t-116 48.5t-48 115.5zM6 0
l572 1452h335l598 -1452h-350l-108 293h-602l-107 -293h-338z" />
    <glyph glyph-name="Aring" unicode="&#xc5;" horiz-adv-x="1517" 
d="M647 1602q0 -41 28.5 -70t69.5 -29t70 29t29 70t-29 69.5t-70 28.5t-69.5 -28.5t-28.5 -69.5zM549 567h403l-123 330q-43 116 -81 252q-37 -132 -80 -254zM494 1602q0 104 73 174.5t178 70.5t178.5 -70.5t73.5 -174.5t-73 -177l587 -1425h-350l-108 293h-602l-107 -293
h-338l561 1427q-73 71 -73 175z" />
    <glyph glyph-name="AE" unicode="&#xc6;" horiz-adv-x="1886" 
d="M563 555h383l-98 342q-5 18 -27.5 89t-38.5 151q-44 -131 -86 -240zM4 0l623 1452h848l88 -285h-469l80 -286h450l84 -283h-451l91 -309h471l88 -289h-807l-78 281h-569l-111 -281h-338z" />
    <glyph glyph-name="Ccedilla" unicode="&#xc7;" horiz-adv-x="1310" 
d="M494 -383l200 303l189 -96l-238 -285zM78 717q0 156 55 296.5t151.5 243t237 161.5t334.5 59t358 -76v-342q-70 58 -173.5 94.5t-204.5 36.5q-189 0 -311 -126t-122 -343q0 -269 151 -365t292 -96q218 0 368 119v-324q-170 -86 -403 -86q-164 0 -303 59t-232.5 160.5
t-145.5 237t-52 291.5z" />
    <glyph glyph-name="Egrave" unicode="&#xc8;" horiz-adv-x="1138" 
d="M303 1753l258 154l268 -271l-147 -110zM164 0v1452h821v-285h-506v-286h496v-283h-496v-309h506v-289h-821z" />
    <glyph glyph-name="Eacute" unicode="&#xc9;" horiz-adv-x="1138" 
d="M469 1632l264 269l260 -154l-377 -227zM164 0v1452h821v-285h-506v-286h496v-283h-496v-309h506v-289h-821z" />
    <glyph glyph-name="Ecircumflex" unicode="&#xca;" horiz-adv-x="1138" 
d="M213 1696l385 153l389 -145l-86 -184l-299 112l-305 -112zM164 0v1452h821v-285h-506v-286h496v-283h-496v-309h506v-289h-821z" />
    <glyph glyph-name="Edieresis" unicode="&#xcb;" horiz-adv-x="1138" 
d="M647 1696q0 62 43.5 105.5t105.5 43.5t106 -43.5t44 -105.5t-44 -106t-105 -44t-105.5 44t-44.5 106zM276 1696q0 62 44 105.5t106 43.5t105.5 -43.5t43.5 -105.5t-43.5 -106t-105.5 -44t-106 44t-44 106zM164 0v1452h821v-285h-506v-286h496v-283h-496v-309h506v-289
h-821z" />
    <glyph glyph-name="Igrave" unicode="&#xcc;" horiz-adv-x="643" 
d="M164 0v1452h315v-1452h-315zM6 1755l254 154l270 -271l-147 -110z" />
    <glyph glyph-name="Iacute" unicode="&#xcd;" horiz-adv-x="643" 
d="M164 0v1452h315v-1452h-315zM129 1632l266 269l258 -154l-379 -227z" />
    <glyph glyph-name="Icircumflex" unicode="&#xce;" horiz-adv-x="643" 
d="M164 0v1452h315v-1452h-315zM-61 1696l385 153l387 -145l-86 -184l-297 112l-305 -112z" />
    <glyph glyph-name="Idieresis" unicode="&#xcf;" horiz-adv-x="643" 
d="M358 1696q0 62 44 105.5t106 43.5t105.5 -43.5t43.5 -105.5t-43.5 -106t-105.5 -44t-106 44t-44 106zM164 0v1452h315v-1452h-315zM-12 1696q0 62 44 105.5t106 43.5t105.5 -43.5t43.5 -105.5t-44.5 -106t-105.5 -44t-105 44t-44 106z" />
    <glyph glyph-name="Eth" unicode="&#xd0;" horiz-adv-x="1435" 
d="M485 256h88q208 0 320 109q133 133 133 363t-123 353q-67 67 -152 92t-194 25h-72v-342h140v-242h-140v-358zM55 614v242h119v596h412q373 0 561 -188q211 -212 211 -528t-210 -526t-581 -210h-393v614h-119z" />
    <glyph glyph-name="Ntilde" unicode="&#xd1;" horiz-adv-x="1583" 
d="M399 1544q0 125 72 210t172 85t180 -47t150.5 -47t70.5 84h209q0 -133 -75.5 -215t-190.5 -82q-55 0 -113 24.5t-110 49t-86 24.5t-55 -27t-21 -59h-203zM164 0v1452h287l489 -698q137 -196 203 -320q-14 174 -17 424l-4 594h297v-1452h-282l-506 719q-107 149 -195 291
q14 -259 15 -330l14 -680h-301z" />
    <glyph glyph-name="Ograve" unicode="&#xd2;" horiz-adv-x="1665" 
d="M543 1753l258 154l266 -271l-147 -110zM385 727q0 -128 57.5 -234.5t160 -168.5t228.5 -62q192 0 320.5 135t128.5 330q0 127 -58 233t-161.5 168t-229.5 62q-190 0 -318 -134.5t-128 -328.5zM61 722q0 156 61.5 298t165.5 244t246 162.5t297 60.5q211 0 388.5 -101
t281 -277t103.5 -386q0 -155 -62 -296t-166 -243t-246 -162.5t-300 -60.5t-301 59.5t-245.5 161t-162.5 243t-60 297.5z" />
    <glyph glyph-name="Oacute" unicode="&#xd3;" horiz-adv-x="1665" 
d="M600 1632l266 269l258 -154l-374 -227zM385 727q0 -128 57.5 -234.5t160 -168.5t228.5 -62q192 0 320.5 135t128.5 330q0 127 -58 233t-161.5 168t-229.5 62q-190 0 -318 -134.5t-128 -328.5zM61 722q0 156 61.5 298t165.5 244t246 162.5t297 60.5q211 0 388.5 -101
t281 -277t103.5 -386q0 -155 -62 -296t-166 -243t-246 -162.5t-300 -60.5t-301 59.5t-245.5 161t-162.5 243t-60 297.5z" />
    <glyph glyph-name="Ocircumflex" unicode="&#xd4;" horiz-adv-x="1665" 
d="M451 1696l387 153l387 -145l-88 -184l-297 112l-305 -112zM385 727q0 -128 57.5 -234.5t160 -168.5t228.5 -62q192 0 320.5 135t128.5 330q0 127 -58 233t-161.5 168t-229.5 62q-190 0 -318 -134.5t-128 -328.5zM61 722q0 156 61.5 298t165.5 244t246 162.5t297 60.5
q211 0 388.5 -101t281 -277t103.5 -386q0 -155 -62 -296t-166 -243t-246 -162.5t-300 -60.5t-301 59.5t-245.5 161t-162.5 243t-60 297.5z" />
    <glyph glyph-name="Otilde" unicode="&#xd5;" horiz-adv-x="1665" 
d="M403 1542q0 125 72 210t172 85t180 -47t151 -47t71 84h208q0 -133 -75.5 -215t-190.5 -82q-55 0 -113 24.5t-110 49t-86 24.5t-55 -27t-21 -59h-203zM385 727q0 -128 57.5 -234.5t160 -168.5t228.5 -62q192 0 320.5 135t128.5 330q0 127 -58 233t-161.5 168t-229.5 62
q-190 0 -318 -134.5t-128 -328.5zM61 722q0 156 61.5 298t165.5 244t246 162.5t297 60.5q211 0 388.5 -101t281 -277t103.5 -386q0 -155 -62 -296t-166 -243t-246 -162.5t-300 -60.5t-301 59.5t-245.5 161t-162.5 243t-60 297.5z" />
    <glyph glyph-name="Odieresis" unicode="&#xd6;" horiz-adv-x="1665" 
d="M1350 1466q0 68 48 116t115 48t115.5 -48t48.5 -116t-47.5 -115.5t-115.5 -47.5t-116 47.5t-48 115.5zM385 727q0 -128 57.5 -234.5t160 -168.5t228.5 -62q192 0 320.5 135t128.5 330q0 127 -58 233t-161.5 168t-229.5 62q-190 0 -318 -134.5t-128 -328.5zM61 722
q0 156 61.5 298t165.5 244t246 162.5t297 60.5q211 0 388.5 -101t281 -277t103.5 -386q0 -155 -62 -296t-166 -243t-246 -162.5t-300 -60.5t-301 59.5t-245.5 161t-162.5 243t-60 297.5zM-10 1466q0 68 48 116t116 48t115.5 -48t47.5 -116t-47.5 -115.5t-115.5 -47.5
t-116 47.5t-48 115.5z" />
    <glyph glyph-name="multiply" unicode="&#xd7;" 
d="M125 225l375 373l-375 377l186 180l373 -371l377 371l184 -180l-373 -377l373 -373l-184 -186l-377 375l-373 -375z" />
    <glyph glyph-name="Oslash" unicode="&#xd8;" horiz-adv-x="1683" 
d="M850 252q182 0 312 137.5t130 337.5q0 163 -90 289l-657 -658q123 -106 305 -106zM381 727q0 -138 65 -250l646 645q-115 78 -256 78q-195 0 -325 -137.5t-130 -335.5zM1608 723q0 -206 -104.5 -382t-282 -278t-385.5 -102q-289 0 -506 182l-197 -196l-108 108l198 199
q-157 203 -157 469q0 155 61.5 297t165.5 244t246 162.5t297 60.5q261 0 467 -154l174 174l108 -108l-168 -168q191 -214 191 -508z" />
    <glyph glyph-name="Ugrave" unicode="&#xd9;" horiz-adv-x="1488" 
d="M395 1753l256 154l269 -271l-148 -110zM156 537v915h315v-897q0 -94 13.5 -142t54.5 -89q84 -84 209 -84q124 0 200 76t76 229v907h309v-881q0 -292 -157 -449t-435 -157q-135 0 -253 42.5t-195 119.5q-137 137 -137 410z" />
    <glyph glyph-name="Uacute" unicode="&#xda;" horiz-adv-x="1488" 
d="M541 1632l266 269l258 -154l-377 -227zM156 537v915h315v-897q0 -94 13.5 -142t54.5 -89q84 -84 209 -84q124 0 200 76t76 229v907h309v-881q0 -292 -157 -449t-435 -157q-135 0 -253 42.5t-195 119.5q-137 137 -137 410z" />
    <glyph glyph-name="Ucircumflex" unicode="&#xdb;" horiz-adv-x="1488" 
d="M371 1696l383 153l387 -145l-86 -184l-297 112l-305 -112zM156 537v915h315v-897q0 -94 13.5 -142t54.5 -89q84 -84 209 -84q124 0 200 76t76 229v907h309v-881q0 -292 -157 -449t-435 -157q-135 0 -253 42.5t-195 119.5q-137 137 -137 410z" />
    <glyph glyph-name="Udieresis" unicode="&#xdc;" horiz-adv-x="1488" 
d="M1014 1675q0 67 48 115.5t116 48.5t115.5 -48t47.5 -116t-47.5 -116t-115.5 -48t-116 48.5t-48 115.5zM156 537v915h315v-897q0 -94 13.5 -142t54.5 -89q84 -84 209 -84q124 0 200 76t76 229v907h309v-881q0 -292 -157 -449t-435 -157q-135 0 -253 42.5t-195 119.5
q-137 137 -137 410zM152 1675q0 68 48 116t115 48t115.5 -48.5t48.5 -115.5t-48.5 -115.5t-115.5 -48.5t-115 48t-48 116z" />
    <glyph glyph-name="Yacute" unicode="&#xdd;" horiz-adv-x="1292" 
d="M453 1632l266 269l258 -154l-379 -227zM803 0h-316v649l-481 803h367l278 -553l283 553h354l-485 -790v-662z" />
    <glyph glyph-name="Thorn" unicode="&#xde;" horiz-adv-x="1218" 
d="M844 725q0 186 -221 186h-136v-374h125q126 0 179 53t53 135zM174 0v1452h313v-270h103q165 0 275 -28.5t184 -102.5q118 -119 118 -319t-120 -320q-142 -142 -431 -142h-129v-270h-313z" />
    <glyph glyph-name="germandbls" unicode="&#xdf;" horiz-adv-x="1128" 
d="M117 0v1145q0 176 106 292.5t314 116.5q207 0 315.5 -99.5t108.5 -262.5q0 -107 -34.5 -161t-69 -101t-34.5 -91t27.5 -77t66.5 -67.5t106 -105t67 -214.5q0 -189 -114 -289t-262 -100q-147 0 -243 71l107 219q43 -49 100 -49t87 31t30 76t-15 75.5t-39 54t-75 64
t-97.5 101.5t-46.5 148q0 143 70 232t70 155t-34 105.5t-92 39.5t-93 -42t-35 -110v-1157h-291z" />
    <glyph glyph-name="agrave" unicode="&#xe0;" horiz-adv-x="1208" 
d="M375 444q0 -102 61 -173.5t160 -71.5t158 69.5t59 167.5t-62.5 168t-158.5 70t-156.5 -64t-60.5 -166zM244 1282l227 170l291 -336l-168 -112zM76 441q0 212 120.5 348.5t325.5 136.5q91 0 167 -37t114 -96v104h289v-897h-289v92q-123 -123 -311 -123t-302 130t-114 342z
" />
    <glyph glyph-name="aacute" unicode="&#xe1;" horiz-adv-x="1208" 
d="M475 1116l289 336l229 -170l-352 -278zM375 444q0 -102 61 -173.5t160 -71.5t158 69.5t59 167.5t-62.5 168t-158.5 70t-156.5 -64t-60.5 -166zM76 441q0 212 120.5 348.5t325.5 136.5q91 0 167 -37t114 -96v104h289v-897h-289v92q-123 -123 -311 -123t-302 130t-114 342z
" />
    <glyph glyph-name="acircumflex" unicode="&#xe2;" horiz-adv-x="1208" 
d="M375 444q0 -102 61 -173.5t160 -71.5t158 69.5t59 167.5t-62.5 168t-158.5 70t-156.5 -64t-60.5 -166zM233 1188l400 278l373 -274l-127 -170l-258 174l-250 -176zM76 441q0 212 120.5 348.5t325.5 136.5q91 0 167 -37t114 -96v104h289v-897h-289v92q-123 -123 -311 -123
t-302 130t-114 342z" />
    <glyph glyph-name="atilde" unicode="&#xe3;" horiz-adv-x="1208" 
d="M375 444q0 -102 61 -173.5t160 -71.5t158 69.5t59 167.5t-62.5 168t-158.5 70t-156.5 -64t-60.5 -166zM186 1067q0 125 72 210t172 85t180 -47t150.5 -47t70.5 84h209q0 -133 -75.5 -215t-190.5 -82q-55 0 -113 24.5t-110 49t-86 24.5t-55 -27t-21 -59h-203zM76 441
q0 212 120.5 348.5t325.5 136.5q91 0 167 -37t114 -96v104h289v-897h-289v92q-123 -123 -311 -123t-302 130t-114 342z" />
    <glyph glyph-name="adieresis" unicode="&#xe4;" horiz-adv-x="1208" 
d="M694 1235q0 67 48 115.5t116 48.5t116 -48.5t48 -115.5t-48 -115.5t-116 -48.5t-116 48.5t-48 115.5zM375 444q0 -102 61 -173.5t160 -71.5t158 69.5t59 167.5t-62.5 168t-158.5 70t-156.5 -64t-60.5 -166zM240 1235q0 68 48 116t115 48t115.5 -48.5t48.5 -115.5
t-48.5 -115.5t-115.5 -48.5t-115 48t-48 116zM76 441q0 212 120.5 348.5t325.5 136.5q91 0 167 -37t114 -96v104h289v-897h-289v92q-123 -123 -311 -123t-302 130t-114 342z" />
    <glyph glyph-name="aring" unicode="&#xe5;" horiz-adv-x="1208" 
d="M532 1264q0 -41 29 -70t70 -29t69.5 29t28.5 70t-28.5 69.5t-69.5 28.5t-70 -28.5t-29 -69.5zM379 1264q0 104 73.5 174.5t178.5 70.5t178.5 -70.5t73.5 -174.5t-73.5 -175t-178.5 -71t-178.5 71t-73.5 175zM375 444q0 -102 61 -173.5t160 -71.5t158 69.5t59 167.5
t-62.5 168t-158.5 70t-156.5 -64t-60.5 -166zM76 441q0 212 120.5 348.5t325.5 136.5q91 0 167 -37t114 -96v104h289v-897h-289v92q-123 -123 -311 -123t-302 130t-114 342z" />
    <glyph glyph-name="ae" unicode="&#xe6;" horiz-adv-x="1669" 
d="M1307 555q0 66 -48.5 119t-125.5 53t-128 -48.5t-57 -123.5h359zM340 278q0 -44 39.5 -75t118.5 -31t139.5 53.5t60.5 149.5h-211q-72 0 -109.5 -26.5t-37.5 -70.5zM1575 170q-161 -203 -397 -203t-371 135q-131 -135 -328 -135q-198 0 -301.5 80.5t-103.5 209.5
t90 213.5t325 84.5h205q-13 69 -69.5 115.5t-158.5 46.5t-175 -82l-185 135q156 160 404 160q192 0 315 -123q120 123 319 123t325 -124.5t126 -344.5q0 -47 -2 -86h-647q5 -83 65 -139t152 -56q134 0 223 115z" />
    <glyph glyph-name="ccedilla" unicode="&#xe7;" horiz-adv-x="899" 
d="M246 -358l217 282l227 -104l-280 -305zM622 217q115 0 193 68v-265q-135 -49 -273 -49t-248 65.5t-164 171.5t-54 216t32 195.5t92 154.5t156 110.5t227 41.5t232 -47v-263q-32 23 -90.5 40.5t-110.5 17.5q-101 0 -169 -61t-68 -161t65 -167.5t180 -67.5z" />
    <glyph glyph-name="egrave" unicode="&#xe8;" horiz-adv-x="1081" 
d="M717 551q0 69 -47.5 121.5t-125.5 52.5t-128 -49t-58 -125h359zM219 1282l227 170l291 -336l-168 -112zM985 174q-160 -207 -413 -207q-218 0 -318.5 87t-139 179.5t-38.5 208.5q0 211 131 349.5t339 138.5t334 -124.5t126 -344.5q0 -47 -2 -82h-648q5 -86 65 -142.5
t152 -56.5q136 0 224 119z" />
    <glyph glyph-name="eacute" unicode="&#xe9;" horiz-adv-x="1081" 
d="M717 551q0 69 -47.5 121.5t-125.5 52.5t-128 -49t-58 -125h359zM356 1116l289 336l229 -170l-352 -278zM985 174q-160 -207 -413 -207q-218 0 -318.5 87t-139 179.5t-38.5 208.5q0 211 131 349.5t339 138.5t334 -124.5t126 -344.5q0 -47 -2 -82h-648q5 -86 65 -142.5
t152 -56.5q136 0 224 119z" />
    <glyph glyph-name="ecircumflex" unicode="&#xea;" horiz-adv-x="1081" 
d="M717 551q0 69 -47.5 121.5t-125.5 52.5t-128 -49t-58 -125h359zM158 1188l399 278l373 -274l-127 -170l-258 174l-250 -176zM985 174q-160 -207 -413 -207q-218 0 -318.5 87t-139 179.5t-38.5 208.5q0 211 131 349.5t339 138.5t334 -124.5t126 -344.5q0 -47 -2 -82h-648
q5 -86 65 -142.5t152 -56.5q136 0 224 119z" />
    <glyph glyph-name="edieresis" unicode="&#xeb;" horiz-adv-x="1081" 
d="M629 1235q0 67 48.5 115.5t115.5 48.5t115 -48t48 -116t-48 -116t-115 -48t-115.5 48.5t-48.5 115.5zM717 551q0 69 -47.5 121.5t-125.5 52.5t-128 -49t-58 -125h359zM174 1235q0 67 48 115.5t116 48.5t116 -48.5t48 -115.5t-48 -115.5t-116 -48.5t-116 48.5t-48 115.5z
M985 174q-160 -207 -413 -207q-218 0 -318.5 87t-139 179.5t-38.5 208.5q0 211 131 349.5t339 138.5t334 -124.5t126 -344.5q0 -47 -2 -82h-648q5 -86 65 -142.5t152 -56.5q136 0 224 119z" />
    <glyph glyph-name="igrave" unicode="&#xec;" horiz-adv-x="536" 
d="M123 0v897h291v-897h-291zM-45 1282l227 170l291 -336l-168 -112z" />
    <glyph glyph-name="iacute" unicode="&#xed;" horiz-adv-x="536" 
d="M123 0v897h291v-897h-291zM84 1116l289 336l229 -170l-352 -278z" />
    <glyph glyph-name="icircumflex" unicode="&#xee;" horiz-adv-x="536" 
d="M123 0v897h291v-897h-291zM-119 1188l400 278l372 -274l-127 -170l-258 174l-250 -176z" />
    <glyph glyph-name="idieresis" unicode="&#xef;" horiz-adv-x="536" 
d="M338 1235q0 67 48 115.5t116 48.5t116 -48.5t48 -115.5t-48 -115.5t-116 -48.5t-116 48.5t-48 115.5zM123 0v897h291v-897h-291zM-117 1235q0 67 48.5 115.5t115.5 48.5t115.5 -48.5t48.5 -115.5t-48.5 -115.5t-115.5 -48.5t-115.5 48.5t-48.5 115.5z" />
    <glyph glyph-name="eth" unicode="&#xf0;" horiz-adv-x="1187" 
d="M360 452q0 -96 62 -160.5t156 -64.5t155.5 64.5t61.5 163.5t-61.5 161t-156.5 62t-156 -65t-61 -161zM53 453q0 125 55.5 231.5t162.5 173t243 66.5q183 0 287 -99q-36 166 -183 305l-190 -116l-113 186l97 57q-85 42 -211 58l37 241q236 -36 432 -143l170 103l112 -187
l-90 -53q275 -269 275 -666q0 -285 -157.5 -460t-399.5 -175t-384.5 129.5t-142.5 348.5z" />
    <glyph glyph-name="ntilde" unicode="&#xf1;" horiz-adv-x="1122" 
d="M141 1067q0 125 72 210t172 85t180 -47t150.5 -47t70.5 84h209q0 -133 -75.5 -215t-190.5 -82q-55 0 -113 24.5t-110 49t-86 24.5t-55 -27t-21 -59h-203zM723 496q0 176 -137 176q-55 0 -116.5 -41t-61.5 -160v-471h-291v897h291v-119q102 140 290 140q147 0 236 -89
q43 -43 61.5 -103.5t18.5 -158.5v-567h-291v496z" />
    <glyph glyph-name="ograve" unicode="&#xf2;" horiz-adv-x="1171" 
d="M369 444q0 -96 65.5 -160.5t155.5 -64.5t150.5 68t60.5 163t-63 160.5t-157 65.5t-153 -68t-59 -164zM242 1282l227 170l291 -336l-168 -112zM76 448q0 206 142.5 344t365.5 138t367.5 -137t144.5 -335t-100.5 -303.5t-201.5 -146.5t-223 -41q-211 0 -353 137.5
t-142 343.5z" />
    <glyph glyph-name="oacute" unicode="&#xf3;" horiz-adv-x="1171" 
d="M408 1116l288 336l230 -170l-353 -278zM369 444q0 -96 65.5 -160.5t155.5 -64.5t150.5 68t60.5 163t-63 160.5t-157 65.5t-153 -68t-59 -164zM76 448q0 206 142.5 344t365.5 138t367.5 -137t144.5 -335t-100.5 -303.5t-201.5 -146.5t-223 -41q-211 0 -353 137.5
t-142 343.5z" />
    <glyph glyph-name="ocircumflex" unicode="&#xf4;" horiz-adv-x="1171" 
d="M369 444q0 -96 65.5 -160.5t155.5 -64.5t150.5 68t60.5 163t-63 160.5t-157 65.5t-153 -68t-59 -164zM201 1188l399 278l373 -274l-127 -170l-258 174l-250 -176zM76 448q0 206 142.5 344t365.5 138t367.5 -137t144.5 -335t-100.5 -303.5t-201.5 -146.5t-223 -41
q-211 0 -353 137.5t-142 343.5z" />
    <glyph glyph-name="otilde" unicode="&#xf5;" horiz-adv-x="1171" 
d="M369 444q0 -96 65.5 -160.5t155.5 -64.5t150.5 68t60.5 163t-63 160.5t-157 65.5t-153 -68t-59 -164zM162 1067q0 125 72 210t180 85q61 0 117.5 -23.5t105.5 -47t88 -23.5t60.5 23.5t21.5 60.5h209q0 -133 -75.5 -215t-190.5 -82q-55 0 -113 24.5t-110.5 49t-86.5 24.5
t-54.5 -27t-20.5 -59h-203zM76 448q0 206 142.5 344t365.5 138t367.5 -137t144.5 -335t-100.5 -303.5t-201.5 -146.5t-223 -41q-211 0 -353 137.5t-142 343.5z" />
    <glyph glyph-name="odieresis" unicode="&#xf6;" horiz-adv-x="1171" 
d="M651 1235q0 67 48.5 115.5t115.5 48.5t115.5 -48.5t48.5 -115.5t-48.5 -115.5t-115.5 -48.5t-115.5 48.5t-48.5 115.5zM369 444q0 -96 65.5 -160.5t155.5 -64.5t150.5 68t60.5 163t-63 160.5t-157 65.5t-153 -68t-59 -164zM197 1235q0 68 47.5 116t115.5 48t116 -48.5
t48 -115.5t-48 -115.5t-116 -48.5t-115.5 48t-47.5 116zM76 448q0 206 142.5 344t365.5 138t367.5 -137t144.5 -335t-100.5 -303.5t-201.5 -146.5t-223 -41q-211 0 -353 137.5t-142 343.5z" />
    <glyph glyph-name="divide" unicode="&#xf7;" 
d="M520 1008q0 69 48.5 117.5t117.5 48.5t117.5 -48.5t48.5 -117.5t-48.5 -117.5t-117.5 -48.5t-117.5 48.5t-48.5 117.5zM520 186q0 69 48.5 117.5t117.5 48.5t117.5 -48.5t48.5 -117.5t-48.5 -117.5t-117.5 -48.5t-117.5 48.5t-48.5 117.5zM0 467v262h1372v-262h-1372z
" />
    <glyph glyph-name="oslash" unicode="&#xf8;" horiz-adv-x="1179" 
d="M592 205q100 0 163.5 72t63.5 172q0 50 -20 102l-328 -309q55 -37 121 -37zM362 444q0 -49 21 -100l328 309q-52 37 -121 37q-102 0 -165 -72.5t-63 -173.5zM82 466q0 188 142.5 326t367.5 138q176 0 313 -94l101 96l90 -101l-95 -88q101 -125 101 -304t-139 -325.5
t-407 -146.5q-144 0 -277 90l-99 -92l-90 101l92 86q-100 126 -100 314z" />
    <glyph glyph-name="ugrave" unicode="&#xf9;" horiz-adv-x="1126" 
d="M229 1282l228 170l291 -336l-168 -112zM109 428v469h290v-461q0 -105 37 -164t133 -59t127 62.5t31 152.5v469h291v-469q0 -125 -20.5 -203.5t-79.5 -136.5q-122 -121 -352 -121t-365 135q-49 49 -70.5 125.5t-21.5 200.5z" />
    <glyph glyph-name="uacute" unicode="&#xfa;" horiz-adv-x="1126" 
d="M403 1116l289 336l230 -170l-353 -278zM109 428v469h290v-461q0 -105 37 -164t133 -59t127 62.5t31 152.5v469h291v-469q0 -125 -20.5 -203.5t-79.5 -136.5q-122 -121 -352 -121t-365 135q-49 49 -70.5 125.5t-21.5 200.5z" />
    <glyph glyph-name="ucircumflex" unicode="&#xfb;" horiz-adv-x="1126" 
d="M172 1188l399 278l373 -274l-127 -170l-258 174l-250 -176zM109 428v469h290v-461q0 -105 37 -164t133 -59t127 62.5t31 152.5v469h291v-469q0 -125 -20.5 -203.5t-79.5 -136.5q-122 -121 -352 -121t-365 135q-49 49 -70.5 125.5t-21.5 200.5z" />
    <glyph glyph-name="udieresis" unicode="&#xfc;" horiz-adv-x="1126" 
d="M629 1235q0 67 48.5 115.5t115.5 48.5t115 -48t48 -116t-48 -116t-115 -48t-115.5 48.5t-48.5 115.5zM174 1235q0 67 48 115.5t116 48.5t116 -48.5t48 -115.5t-48 -115.5t-116 -48.5t-116 48.5t-48 115.5zM109 428v469h290v-461q0 -105 37 -164t133 -59t127 62.5
t31 152.5v469h291v-469q0 -125 -20.5 -203.5t-79.5 -136.5q-122 -121 -352 -121t-365 135q-49 49 -70.5 125.5t-21.5 200.5z" />
    <glyph glyph-name="yacute" unicode="&#xfd;" horiz-adv-x="1116" 
d="M377 1116l289 336l229 -170l-352 -278zM4 897h332l166 -401q2 -5 30 -72.5t46 -130.5q27 78 75 196l166 408h305l-569 -1309h-311l176 394z" />
    <glyph glyph-name="thorn" unicode="&#xfe;" horiz-adv-x="1224" 
d="M403 432q0 -99 59.5 -165t159.5 -66t156 70.5t56 166.5t-55 165t-157 69t-160.5 -70.5t-58.5 -169.5zM712 922q192 0 311.5 -135.5t119.5 -326.5t-85 -296.5t-172 -147t-192 -41.5q-180 0 -280 115v-502h-291v1946h291v-752q106 140 298 140z" />
    <glyph glyph-name="ydieresis" unicode="&#xff;" horiz-adv-x="1116" 
d="M633 1235q0 67 48.5 115.5t115.5 48.5t115.5 -48.5t48.5 -115.5t-48.5 -115.5t-115.5 -48.5t-115.5 48.5t-48.5 115.5zM178 1235q0 67 48 115.5t116 48.5t116 -48.5t48 -115.5t-48 -115.5t-116 -48.5t-116 48.5t-48 115.5zM-2 897h332l166 -401q63 -160 75 -203
q21 59 76 196l166 408h305l-569 -1309h-311l176 394z" />
    <glyph glyph-name="OE" unicode="&#x152;" horiz-adv-x="2267" 
d="M385 729q0 -199 130 -331t314 -132q127 0 230.5 61t162 167t58.5 219q0 216 -134 344.5t-315 128.5q-115 0 -216 -54.5t-165.5 -161t-64.5 -241.5zM61 721q0 156 60.5 296.5t163 242.5t245 162.5t290.5 60.5t246 -35.5t196 -108.5v113h809v-283h-506v-288h495v-283h-495
v-309h506v-289h-809v119q-209 -154 -433 -154q-158 0 -300 58.5t-245 159.5t-163 241.5t-60 296.5z" />
    <glyph glyph-name="oe" unicode="&#x153;" horiz-adv-x="1818" 
d="M1450 551q0 69 -48 121.5t-126 52.5t-127 -48.5t-57 -125.5h358zM375 444q0 -96 65.5 -160.5t155.5 -64.5t150.5 68t60.5 163t-63 160.5t-157 65.5t-153 -68t-59 -164zM82 448q0 206 142 344t364 138t356 -146q52 67 142.5 106.5t191.5 39.5q207 0 334 -124.5t127 -344.5
q0 -47 -2 -82h-647q5 -86 65 -142.5t152 -56.5q135 0 223 119l188 -125q-81 -105 -186 -156t-256 -51q-217 0 -340 148q-138 -148 -354 -148t-358 137.5t-142 343.5z" />
    <glyph glyph-name="Ydieresis" unicode="&#x178;" horiz-adv-x="1292" 
d="M711 1700q0 62 43.5 105.5t105.5 43.5t106 -43.5t44 -105.5t-44 -106t-106 -44t-105.5 44t-43.5 106zM270 1700q0 62 44 105.5t106 43.5t105.5 -43.5t43.5 -105.5t-43.5 -106t-105.5 -44t-106 44t-44 106zM803 0h-316v649l-481 803h367l278 -553l283 553h354l-485 -790
v-662z" />
    <glyph glyph-name="circumflex" unicode="&#x2c6;" horiz-adv-x="1024" 
d="M209 1188l399 278l373 -274l-127 -170l-258 174l-250 -176z" />
    <glyph glyph-name="tilde" unicode="&#x2dc;" horiz-adv-x="1024" 
d="M203 1067q0 125 72 210t180 85q61 0 117.5 -23.5t105.5 -47t88 -23.5t60.5 23.5t21.5 60.5h209q0 -133 -75.5 -215t-190.5 -82q-55 0 -113 24.5t-110.5 49t-86.5 24.5t-54.5 -27t-20.5 -59h-203z" />
    <glyph glyph-name="uni2000" unicode="&#x2000;" horiz-adv-x="954" 
 />
    <glyph glyph-name="uni2001" unicode="&#x2001;" horiz-adv-x="1909" 
 />
    <glyph glyph-name="uni2002" unicode="&#x2002;" horiz-adv-x="954" 
 />
    <glyph glyph-name="uni2003" unicode="&#x2003;" horiz-adv-x="1909" 
 />
    <glyph glyph-name="uni2004" unicode="&#x2004;" horiz-adv-x="636" 
 />
    <glyph glyph-name="uni2005" unicode="&#x2005;" horiz-adv-x="477" 
 />
    <glyph glyph-name="uni2006" unicode="&#x2006;" horiz-adv-x="318" 
 />
    <glyph glyph-name="uni2007" unicode="&#x2007;" horiz-adv-x="318" 
 />
    <glyph glyph-name="uni2008" unicode="&#x2008;" horiz-adv-x="238" 
 />
    <glyph glyph-name="uni2009" unicode="&#x2009;" horiz-adv-x="381" 
 />
    <glyph glyph-name="uni200A" unicode="&#x200a;" horiz-adv-x="106" 
 />
    <glyph glyph-name="uni2010" unicode="&#x2010;" horiz-adv-x="772" 
d="M82 397v242h606v-242h-606z" />
    <glyph glyph-name="uni2011" unicode="&#x2011;" horiz-adv-x="772" 
d="M82 397v242h606v-242h-606z" />
    <glyph glyph-name="figuredash" unicode="&#x2012;" horiz-adv-x="772" 
d="M82 397v242h606v-242h-606z" />
    <glyph glyph-name="endash" unicode="&#x2013;" horiz-adv-x="1198" 
d="M76 397v242h1048v-242h-1048z" />
    <glyph glyph-name="emdash" unicode="&#x2014;" horiz-adv-x="2048" 
d="M0 539v235h2048v-235h-2048z" />
    <glyph glyph-name="quoteleft" unicode="&#x2018;" horiz-adv-x="514" 
d="M70 1020q0 259 317 487l92 -106q-117 -102 -117 -191q0 -53 27 -111.5t27 -94.5q0 -74 -49 -124.5t-123 -50.5t-124 52t-50 139z" />
    <glyph glyph-name="quoteright" unicode="&#x2019;" horiz-adv-x="514" 
d="M143 1092q0 53 -26.5 111.5t-26.5 94.5q0 74 49 124.5t123 50.5t124 -52t50 -139q0 -259 -317 -487l-92 106q116 101 116 191z" />
    <glyph glyph-name="quotesinglbase" unicode="&#x201a;" horiz-adv-x="514" 
d="M143 -63q0 53 -26.5 111.5t-26.5 94.5q0 74 49 124t123 50t124 -51.5t50 -138.5q0 -259 -317 -487l-92 106q116 102 116 191z" />
    <glyph glyph-name="quotedblleft" unicode="&#x201c;" horiz-adv-x="962" 
d="M526 1020q0 257 318 487l92 -106q-117 -102 -117 -191q0 -53 26.5 -111.5t26.5 -94.5q0 -74 -49 -124.5t-123 -50.5t-124 52t-50 139zM70 1020q0 259 317 487l92 -106q-117 -102 -117 -191q0 -53 27 -111.5t27 -94.5q0 -74 -49 -124.5t-123 -50.5t-124 52t-50 139z" />
    <glyph glyph-name="quotedblright" unicode="&#x201d;" horiz-adv-x="962" 
d="M600 1092q0 53 -26.5 111.5t-26.5 94.5q0 74 49 124.5t123 50.5t124 -52t50 -139q0 -257 -318 -487l-92 106q117 102 117 191zM143 1092q0 53 -26.5 111.5t-26.5 94.5q0 74 49 124.5t123 50.5t124 -52t50 -139q0 -259 -317 -487l-92 106q116 101 116 191z" />
    <glyph glyph-name="quotedblbase" unicode="&#x201e;" horiz-adv-x="962" 
d="M600 -63q0 53 -26.5 111.5t-26.5 94.5q0 74 49 124t123 50t124 -51.5t50 -138.5q0 -257 -318 -487l-92 106q117 102 117 191zM143 -63q0 53 -26.5 111.5t-26.5 94.5q0 74 49 124t123 50t124 -51.5t50 -138.5q0 -259 -317 -487l-92 106q116 102 116 191z" />
    <glyph glyph-name="bullet" unicode="&#x2022;" horiz-adv-x="684" 
d="M25 725q0 132 93.5 225.5t225.5 93.5t226 -93.5t94 -225.5t-94 -225.5t-226 -93.5t-225.5 93.5t-93.5 225.5z" />
    <glyph glyph-name="ellipsis" unicode="&#x2026;" horiz-adv-x="1675" 
d="M1229 147q0 71 50.5 121.5t121.5 50.5t121.5 -50.5t50.5 -121.5t-50.5 -121.5t-121.5 -50.5t-121.5 50.5t-50.5 121.5zM666 147q0 71 51 121.5t121 50.5t121 -50.5t51 -121.5t-51 -121.5t-121 -50.5t-121 50.5t-51 121.5zM102 147q0 71 51 121.5t121 50.5t121 -50.5
t51 -121.5t-51 -121.5t-121 -50.5t-121 50.5t-51 121.5z" />
    <glyph glyph-name="uni202F" unicode="&#x202f;" horiz-adv-x="381" 
 />
    <glyph glyph-name="guilsinglleft" unicode="&#x2039;" horiz-adv-x="628" 
d="M53 457l326 473l178 -115l-238 -348l242 -320l-196 -112z" />
    <glyph glyph-name="guilsinglright" unicode="&#x203a;" horiz-adv-x="628" 
d="M68 825l196 113l311 -422l-325 -473l-178 115l237 348z" />
    <glyph glyph-name="uni205F" unicode="&#x205f;" horiz-adv-x="477" 
 />
    <glyph glyph-name="trademark" unicode="&#x2122;" horiz-adv-x="1800" 
d="M637 733l74 719h372l109 -414l106 414h381l88 -719h-286l-33 471l-133 -471h-293l-125 469l-25 -469h-235zM31 1231v221h581v-221h-157v-498h-258v498h-166z" />
    <glyph glyph-name="uni25FC" unicode="&#x25fc;" horiz-adv-x="901" 
d="M0 0v901h901v-901h-901z" />
    <glyph glyph-name="uniFB01" unicode="&#xfb01;" horiz-adv-x="1175" 
d="M731 1235q0 72 52 124t124 52t124 -52t52 -124t-52 -124t-124 -52t-124 52t-52 124zM25 680v217h120v225q0 225 72 328.5t270 103.5q98 0 185 -20l-37 -240q-46 11 -86 11q-39 0 -67 -21t-37 -61t-9 -144v-182h617v-897h-291v680h-326v-680h-291v680h-120z" />
    <glyph glyph-name="uniFB02" unicode="&#xfb02;" horiz-adv-x="1169" 
d="M25 680v217h120v225q0 199 120 311.5t349 112.5q74 0 148 -12h291v-1534h-291v1288q-73 17 -125 17q-104 0 -152.5 -49t-48.5 -177v-182h203v-217h-203v-680h-291v680h-120z" />
    </font>
</defs>
</svg>
